<?xml version="1.0" encoding="UTF-8" standalone="no"?>
<!-- Created with Inkscape (http://www.inkscape.org/) -->

<svg
   xmlns:dc="http://purl.org/dc/elements/1.1/"
   xmlns:cc="http://creativecommons.org/ns#"
   xmlns:rdf="http://www.w3.org/1999/02/22-rdf-syntax-ns#"
   xmlns:svg="http://www.w3.org/2000/svg"
   xmlns="http://www.w3.org/2000/svg"
   xmlns:sodipodi="http://sodipodi.sourceforge.net/DTD/sodipodi-0.dtd"
   xmlns:inkscape="http://www.inkscape.org/namespaces/inkscape"
   width="64"
   height="64"
   id="svg5312"
   version="1.1"
   inkscape:version="0.91 r13725"
   viewBox="0 0 64 64"
   sodipodi:docname="afrique.svg">
  <defs
     id="defs5314" />
  <sodipodi:namedview
     id="base"
     pagecolor="#ffffff"
     bordercolor="#666666"
     borderopacity="1.0"
     inkscape:pageopacity="0.0"
     inkscape:pageshadow="2"
     inkscape:zoom="5.5"
     inkscape:cx="28.723044"
     inkscape:cy="32"
     inkscape:current-layer="layer1"
     showgrid="true"
     inkscape:document-units="px"
     inkscape:grid-bbox="true"
     inkscape:snap-grids="false"
     inkscape:snap-page="true"
     inkscape:snap-bbox="true"
     inkscape:bbox-nodes="true"
     inkscape:window-width="1474"
     inkscape:window-height="841"
     inkscape:window-x="-8"
     inkscape:window-y="-8"
     inkscape:window-maximized="1" />
  <metadata
     id="metadata5317">
    <rdf:RDF>
      <cc:Work
         rdf:about="">
        <dc:format>image/svg+xml</dc:format>
        <dc:type
           rdf:resource="http://purl.org/dc/dcmitype/StillImage" />
        <dc:title></dc:title>
      </cc:Work>
    </rdf:RDF>
  </metadata>
  <g
     id="layer1"
     inkscape:label="Layer 1"
     inkscape:groupmode="layer">
    <path
       inkscape:connector-curvature="0"
       style="opacity:0.33200001;fill:#000000;fill-opacity:1;stroke:none;stroke-width:1.5;stroke-linecap:round;stroke-linejoin:round;stroke-miterlimit:4;stroke-dasharray:none;stroke-opacity:1"
       d="M 27.269807,7.1179991 23.345156,7.474946 20.490461,7.3556653 18.111993,8.9018486 16.208863,8.4256219 15.733524,7.9502834 l -1.546183,1.9031308 -1.189237,0.7130098 0,2.497743 -2.021516,1.070845 -2.8546992,3.924651 -0.3569469,1.426904 0.5946182,1.783849 -0.7130049,2.8547 1.3076231,2.140797 1.7838497,2.973086 0.191381,0.112157 17.391659,17.391658 0.01869,0.335586 4.163212,10.347045 0.356058,1.903129 0.406797,0.580376 -0.03295,0.03295 0.186039,0.186039 0.273275,0.389885 0.08279,-0.03381 3.516076,3.516072 26.70881,0 0,-31.900133 -20.299763,-20.300653 -0.01783,-0.04271 -0.03118,-0.0063 -0.104149,-0.104145 -0.07121,0.07122 -2.291232,-0.437064 -0.832285,0.951565 -2.497748,-0.951565 -3.330033,-0.475338 -0.594618,1.902241 L 30.242832,11.280313 29.410547,10.566419 27.032079,9.8534101 27.26975,7.117994 Z"
       id="rect4476" />
    <path
       style="fill:#ffffff;fill-opacity:1;fill-rule:evenodd;stroke:none;stroke-width:1.5;stroke-linecap:butt;stroke-linejoin:miter;stroke-miterlimit:4;stroke-dasharray:none;stroke-opacity:1"
       d="M 27.269834,7.1181035 23.344992,7.4748547 20.490711,7.3558386 18.112198,8.9018121 16.209122,8.4260508 15.733356,7.950617 l -1.546001,1.9027607 -1.18926,0.7134613 0,2.497542 -2.021767,1.070576 -2.8542843,3.924501 -0.3570698,1.427328 0.5947958,1.784041 -0.7134926,2.854289 1.3082794,2.140788 1.7837225,2.972972 3.449076,2.022105 2.85428,-0.475762 1.189259,0.475762 3.568097,-1.427322 1.426981,0.23773 0.475766,1.189592 2.259816,0 0.475768,0.9512 -0.357071,2.973301 3.687122,7.968382 -1.546329,1.784042 0.119025,2.140823 4.162564,10.34687 0.356747,1.902761 0.832507,1.189259 2.616564,-1.070243 1.665026,-0.119016 2.140787,-0.594481 1.665026,-2.735575 1.189259,-1.070241 -0.11902,-2.140792 2.021772,-0.832513 -0.594468,-3.09232 3.805821,-2.854285 -0.832513,-7.016853 3.80549,-4.995077 2.854613,-2.735242 2.378513,-5.589891 -5.470843,2.140824 -8.325131,-14.747533 1.189258,1.070576 0.594792,-0.951528 -0.594792,-1.427327 -2.497538,-0.475433 -0.832513,0.9512 -2.497538,-0.9512 -3.330051,-0.475763 -0.594464,1.902756 -3.687125,-1.426993 -0.832509,-0.71383 -2.378514,-0.7134613 0.238045,-2.7352742 z m 27.353893,36.0357605 -1.189255,2.25984 -1.90307,1.07021 -0.951214,0.119016 0.832517,2.021776 -0.832517,2.021777 0,1.784042 1.189259,0.356746 1.308284,-0.594778 1.545996,-5.113764 0,-3.924865 z"
       id="path4228"
       inkscape:connector-curvature="0" />
  </g>
</svg>
