<?xml version="1.0" encoding="UTF-8" standalone="no"?>
<!-- Created with Inkscape (http://www.inkscape.org/) -->

<svg
   xmlns:dc="http://purl.org/dc/elements/1.1/"
   xmlns:cc="http://creativecommons.org/ns#"
   xmlns:rdf="http://www.w3.org/1999/02/22-rdf-syntax-ns#"
   xmlns:svg="http://www.w3.org/2000/svg"
   xmlns="http://www.w3.org/2000/svg"
   xmlns:sodipodi="http://sodipodi.sourceforge.net/DTD/sodipodi-0.dtd"
   xmlns:inkscape="http://www.inkscape.org/namespaces/inkscape"
   width="64"
   height="64"
   id="svg5312"
   version="1.1"
   inkscape:version="0.91 r13725"
   viewBox="0 0 64 64"
   sodipodi:docname="amerique_du_nord.svg">
  <defs
     id="defs5314" />
  <sodipodi:namedview
     id="base"
     pagecolor="#ffffff"
     bordercolor="#666666"
     borderopacity="1.0"
     inkscape:pageopacity="0.0"
     inkscape:pageshadow="2"
     inkscape:zoom="5.5"
     inkscape:cx="28.723044"
     inkscape:cy="32"
     inkscape:current-layer="layer1"
     showgrid="true"
     inkscape:document-units="px"
     inkscape:grid-bbox="true"
     inkscape:snap-grids="false"
     inkscape:snap-page="true"
     inkscape:snap-bbox="true"
     inkscape:bbox-nodes="true"
     inkscape:window-width="1474"
     inkscape:window-height="841"
     inkscape:window-x="-8"
     inkscape:window-y="-8"
     inkscape:window-maximized="1" />
  <metadata
     id="metadata5317">
    <rdf:RDF>
      <cc:Work
         rdf:about="">
        <dc:format>image/svg+xml</dc:format>
        <dc:type
           rdf:resource="http://purl.org/dc/dcmitype/StillImage" />
        <dc:title></dc:title>
      </cc:Work>
    </rdf:RDF>
  </metadata>
  <g
     id="layer1"
     inkscape:label="Layer 1"
     inkscape:groupmode="layer">
    <path
       inkscape:connector-curvature="0"
       style="opacity:0.33200001;fill:#000000;fill-opacity:1;stroke:none;stroke-width:1.5;stroke-linecap:round;stroke-linejoin:round;stroke-miterlimit:4;stroke-dasharray:none;stroke-opacity:1"
       d="m 44.972083,9.5329435 c -0.374584,0.213129 -0.431608,0.7660325 -0.876788,0.8848005 -0.477676,-0.7408732 -1.497577,-0.6262372 -2.20044,-0.324902 l -1.607599,0.34805 c 0.650794,0.618614 1.426984,1.03052 2.242273,1.36904 4.55e-4,2.55e-4 0.0014,4.33e-4 0.0019,9.12e-4 l 0.73437,0.73437 -1.092205,-0.121951 1.142944,1.484764 c -0.01664,0.007 -0.03318,0.01436 -0.04985,0.02137 l -0.784248,-0.784214 c -0.272203,-0.71048 -0.707617,-1.496834 -1.54707,-1.548854 -0.823274,-0.272951 -1.649124,-0.632266 -2.534243,-0.602625 -0.843597,0.452505 -1.625078,1.008798 -2.406058,1.559531 0.937258,0.192994 1.90399,0.172162 2.841339,0.364959 -0.152678,0.227709 -0.697236,0.622497 -0.243897,0.827835 0.126982,0.03441 0.256284,0.07922 0.38632,0.128182 l 2.037544,2.037539 c 0.08841,0.367206 0.352197,0.690035 0.729918,0.729918 l 0.834954,0.834959 c -1.006241,-0.152094 -2.018803,-0.261197 -3.035394,-0.310664 0,-0.384694 0.193358,-1.089718 -0.396114,-1.113567 -0.698352,-0.111747 -1.404497,-0.165899 -2.107863,-0.235 l 0.02939,0.02493 9.12e-4,0 c 0.606626,0.360224 1.606901,0.378787 1.774059,1.215938 -0.04827,0.459664 -0.08819,1.273336 0.554557,1.294268 l 0.283068,0.02225 1.620953,1.620952 c -0.213875,0.328612 -0.423253,0.660151 -0.641793,0.98539 l -1.293384,-1.293379 c 0.09187,-0.157723 0.176888,-0.319725 0.251914,-0.48602 -0.23943,-0.0202 -0.515909,-0.05185 -0.785998,-0.04807 l -0.978267,-0.97827 c 0.323704,0.008 0.666035,-0.17027 0.550109,-0.520735 -0.123829,-0.209899 -0.317424,-0.455836 -0.591058,-0.429052 -0.220171,-0.0041 -0.440013,0.182652 -0.522513,0.386324 l -1.207926,-1.207926 c -0.02393,-0.312072 -0.02233,-0.741411 -0.402349,-0.730809 -0.591751,0.149454 -1.3012,0.08918 -1.823904,0.338255 -0.06768,0.540224 0.364097,1.25954 0.980048,1.046812 0.360096,0.06397 0.434803,0.693763 0.804693,0.642682 l 1.166977,1.16698 0.346268,0.346268 c -0.900055,-0.02616 -1.800374,-0.05433 -2.700698,-0.06943 l 0,0.10593 -0.0019,0 c 0.01091,0.09244 0.02571,0.188518 0.0427,0.28574 l -2.349981,-2.349985 0.05252,-0.05252 c -0.124106,-0.0083 -0.248554,-0.02342 -0.372971,-0.03473 0.096,-0.04662 0.192893,-0.09106 0.285736,-0.147765 0.207641,-0.652047 -0.561712,-1.022999 -1.075293,-1.148286 -0.520019,-0.267382 -1.006742,-0.595073 -1.46874,-0.952453 l 0.223424,0.841185 -9.11e-4,0 c 0.07561,0.280353 0.151333,0.560833 0.226988,0.841186 -1.075032,-0.48088 -2.150009,-0.961158 -3.224993,-1.442034 l -0.153963,0.249245 -0.774423,-0.774425 c 0.08487,-0.12279 0.157528,-0.257419 0.197611,-0.419263 -0.02625,-0.481257 -0.60098,-0.353506 -0.959576,-0.342704 l -0.07655,-0.07655 -0.07121,0.07121 c -0.06098,-0.0099 -0.122461,-0.01992 -0.184256,-0.01335 -0.767034,0.258849 -1.191492,1.032957 -1.759817,1.541729 -0.02807,0.408264 0.433964,0.42839 0.758403,0.317778 l 2.852914,2.852916 c -1.422581,0.341573 -2.876568,-0.09299 -4.310972,-0.06053 -0.405758,0.355606 -0.262451,1.008597 -0.13174,1.446481 0.339031,0.360223 0.805003,0.586742 1.236411,0.808252 l 2.261856,2.261856 c -1.697707,-0.469298 -3.474992,-0.645474 -5.200225,-0.984496 -0.937487,-0.07894 -1.812161,0.342869 -2.58676,0.817153 -0.87965,0.360214 -1.818804,0.05247 -2.666871,-0.23233 -2.767521,-0.695175 -5.5667611,-1.359701 -8.4163181,-1.577337 -0.8976526,0.202842 -1.862785,0.292795 -2.6383867,0.834066 0.1067369,0.687254 -0.6346321,1.156996 -1.2497641,1.105559 -0.3465549,0.08606 -0.9198933,0.07204 -1.0975459,0.335585 1.155655,0.838 2.3114561,1.675767 3.4671111,2.513771 l -2.9312446,0.291076 3.1555622,1.058379 -3.0612076,2.118545 c 1.5708017,1.117281 3.1416252,2.235004 4.7124272,3.352284 -0.081392,0.847781 -0.4248039,1.850677 -1.3352182,2.104303 -0.902165,0.513138 -1.8047173,1.025921 -2.706927,1.539059 1.1680929,-0.550656 2.3255841,-1.125325 3.4680003,-1.727772 L 5.8404508,35.251899 34.588554,64 l 29.411263,0 0,-42.928996 -9.291323,-9.291323 0.972925,-0.453977 C 55.126694,11.278397 54.577592,11.19612 54.0302,11.101387 l -0.138859,-0.138859 c -0.06749,0.02803 -0.142875,0.04753 -0.212746,0.07299 C 50.77943,10.492661 47.95123,9.4936582 44.972087,9.5329577 Z m -13.511501,2.5805295 1.058384,1.05838 c 0.769905,0.256666 1.53997,0.51331 2.309921,0.769977 0.285711,-0.520862 -0.395322,-0.947776 -0.854539,-0.920413 -0.837904,-0.302784 -1.675863,-0.605159 -2.513766,-0.907944 z m 5.132574,1.475859 c -0.08545,-3.6e-4 -0.164838,0.01112 -0.235,0.04184 -0.09763,0.488773 0.619752,0.604507 0.907059,0.347152 0.225643,0.02037 0.548559,-0.251161 0.136193,-0.248349 -0.245187,-0.02981 -0.551922,-0.139569 -0.808252,-0.140645 z m -7.806569,0.231437 c -0.06472,-0.0071 -0.133836,9.11e-4 -0.189599,0.01422 -0.314196,0.06015 -0.833683,-0.0977 -0.937321,0.324902 0.400425,0.298847 1.011678,0.03965 1.293379,-0.260809 -0.04115,-0.04855 -0.10174,-0.07127 -0.166459,-0.07834 z m 7.675717,0.293746 c -0.0041,-0.0027 -0.01805,0.0053 -0.04807,0.03473 -0.01609,0.07818 0.05992,-0.0268 0.04807,-0.03473 z m 0.128181,0.129963 c -0.07957,0.03504 0.07347,-0.0064 0,0 z m -9.954488,4.266464 0.879465,0.879459 c -0.151597,-0.08164 -0.303268,-0.163142 -0.454866,-0.24479 l -0.749501,0.750394 -0.624879,-0.624879 c 0.316539,-0.253473 0.633265,-0.506721 0.949781,-0.760184 z m 10.5402,0.721905 0.657817,0.658706 c 0.05794,0.357283 0.174312,0.732205 0.128181,1.075296 l -1.219498,-1.219497 c 0.183164,-0.138936 0.352426,-0.289044 0.4335,-0.514505 z m 1.441144,1.441144 0.06409,0.06498 c -0.09959,0.08113 -0.200704,0.159483 -0.321343,0.190491 0.09039,-0.08046 0.1731,-0.16861 0.25725,-0.255472 z m 2.415857,0.677401 c 0.368449,0.255696 0.653323,0.647279 0.972925,0.972925 0.319601,0.325646 0.673937,0.585353 1.182111,0.575927 0.470202,0.03613 0.50798,0.584227 0.307101,0.913286 l -1.489212,-1.489213 -0.972925,-0.972925 z m -10.061307,1.806103 -0.151325,1.247981 -0.913285,-0.913289 c 0.354841,-0.111473 0.709783,-0.22322 1.06461,-0.334692 z m 0.324014,0.01335 0.116609,0.116609 c -0.0108,-0.0046 -0.01144,-2.87e-4 -0.02401,-0.0062 -0.0512,-0.0061 -0.176587,-0.104446 -0.09258,-0.110375 z m 8.542716,10.169899 0.520735,0.520736 c -0.03801,-0.0086 -0.07516,-0.01764 -0.111267,-0.02939 L 39.862658,33.44666 c -0.0032,-0.01409 -0.0093,-0.02502 -0.01158,-0.04006 -0.0058,-0.01955 -0.0074,-0.04526 -0.01249,-0.06587 z"
       id="rect4428" />
    <path
       style="opacity:1;fill:#ffffff;fill-opacity:1;fill-rule:evenodd;stroke:none;stroke-width:1.5;stroke-linecap:butt;stroke-linejoin:miter;stroke-miterlimit:4;stroke-dasharray:none;stroke-opacity:1"
       d="m 44.972316,9.5329664 c -0.374584,0.213129 -0.431919,0.7662316 -0.877099,0.8850016 -0.477675,-0.7408735 -1.497836,-0.6263695 -2.2007,-0.325035 -0.535647,0.115976 -1.071295,0.231952 -1.606942,0.347927 1.301587,1.237236 3.102545,1.646726 4.721337,2.298683 -0.945188,-0.105526 -1.890376,-0.211051 -2.835564,-0.316581 0.380964,0.495004 0.76193,0.990003 1.142894,1.485001 -0.527808,0.222367 -1.055571,0.444739 -1.58338,0.667106 0.594896,0.506228 1.189791,1.012452 1.784732,1.518681 -0.744246,-0.370788 -1.488446,-0.741575 -2.232647,-1.112367 -0.652867,0.51095 -0.194789,1.796459 0.667041,1.657303 1.693627,0.336278 3.402887,0.940006 5.150843,0.666381 -0.110566,-0.419968 -0.904899,-0.319488 -0.78499,-0.848158 0.611804,-0.495232 1.374052,-0.850077 1.88682,-1.438419 -0.04239,-0.323832 -0.621375,-0.620372 -0.396186,-0.917624 1.759255,0.468078 3.531245,-0.235328 5.126461,-0.926061 0.275549,-0.100943 0.561162,-0.180551 0.821579,-0.318157 -0.306412,-0.07634 -0.644322,-0.04927 -0.928681,-0.198421 0.951141,-0.44421 1.902276,-0.88842 2.853416,-1.33263 C 52.063147,11.017084 48.633161,9.4846746 44.972316,9.5329664 Z M 38.400753,10.99323 c -0.843601,0.452504 -1.624534,1.009002 -2.405515,1.559736 0.937259,0.192993 1.903685,0.172202 2.841034,0.365 -0.152677,0.227708 -0.697168,0.622413 -0.243829,0.827753 0.872907,0.236473 1.827938,0.941173 2.728053,0.407919 0.384657,-0.301459 0.952434,-0.491108 1.219415,-0.870463 -0.26739,-0.742022 -0.711067,-1.631914 -1.60471,-1.687292 -0.823273,-0.272951 -1.649328,-0.632295 -2.534448,-0.602653 z m -5.881595,2.178682 c 0.769904,0.256667 1.539809,0.513334 2.30976,0.770001 0.285712,-0.520863 -0.395549,-0.947431 -0.854766,-0.920068 -0.837904,-0.302784 -1.675762,-0.605569 -2.513665,-0.908353 0.352889,0.352807 0.70578,0.705611 1.058671,1.05842 z m 3.838678,0.459472 c -0.09763,0.488783 0.620326,0.604457 0.907634,0.347103 0.225644,0.02037 0.548226,-0.251568 0.13586,-0.248755 -0.326913,-0.03975 -0.76284,-0.221146 -1.043494,-0.09835 z m -11.586541,0.153685 c -0.767035,0.25885 -1.191934,1.033331 -1.76026,1.542103 -0.03418,0.496709 0.661117,0.422749 0.945736,0.232293 0.791052,-0.259 1.873331,-0.475246 2.105538,-1.412819 -0.02826,-0.517996 -0.701269,-0.325212 -1.0455,-0.338156 -0.08153,-0.0093 -0.162886,-0.03222 -0.245514,-0.02342 z m 3.826053,0.05026 c -0.314196,0.06015 -0.833755,-0.0984 -0.937394,0.32421 0.400426,0.298846 1.011454,0.03992 1.293157,-0.260523 -0.08226,-0.09709 -0.244239,-0.08994 -0.355763,-0.06368 z m 7.81732,0.313686 c -0.02142,0.10425 0.120001,-0.117288 0,0 z m 0.175557,0.09526 c -0.07957,0.03504 0.07347,-0.0064 0,0 z m -6.798436,1.447894 c 0.07561,0.280353 0.151219,0.560701 0.226874,0.841052 -1.075032,-0.480879 -2.150019,-0.961754 -3.225006,-1.442629 -0.415966,0.674561 -0.831934,1.349118 -1.2479,2.023679 0.978959,0.06819 1.954683,-0.126845 2.933688,-0.06473 0.01367,0.240096 -0.436293,0.673563 -0.0063,0.742368 1.215906,-0.250022 2.54493,-0.171618 3.639742,-0.840269 0.207641,-0.652047 -0.561626,-1.022839 -1.075214,-1.148126 -0.520016,-0.267382 -1.006442,-0.595807 -1.46844,-0.953186 0.07429,0.280612 0.148576,0.561229 0.222864,0.841841 z m 5.89185,-0.01869 c -0.591751,0.149456 -1.301177,0.08872 -1.823881,0.337792 -0.06768,0.540223 0.363736,1.259936 0.979688,1.047209 0.403297,0.07165 0.446456,0.859834 0.949928,0.597917 0.462408,-0.145514 0.533506,-0.722493 0.312192,-1.089899 -0.05642,-0.292608 0.031,-0.905543 -0.417927,-0.893019 z m 1.387908,0.168949 c 0.606563,0.360606 1.607489,0.378594 1.774706,1.216052 -0.04827,0.459664 -0.088,1.273012 0.554744,1.293944 2.145963,0.170881 4.291926,0.341756 6.437891,0.512632 0.256818,-0.595123 -0.485152,-1.063028 -1.011183,-0.974082 -1.73656,-0.386189 -3.504293,-0.6389 -5.281687,-0.725388 0,-0.384692 0.192829,-1.08912 -0.396644,-1.112974 -0.698351,-0.111746 -1.403949,-0.166345 -2.107315,-0.235446 l 0.02962,0.02525 z m 0.744975,1.382894 c -0.411545,-0.0075 -0.840547,0.651966 -0.322628,0.841317 0.317934,0.244303 1.077721,0.08566 0.913057,-0.412157 -0.123828,-0.209897 -0.316794,-0.455945 -0.590429,-0.42916 z m -15.504431,1.211841 c -0.405757,0.355606 -0.262651,1.008072 -0.131941,1.445965 0.376499,0.400025 0.912967,0.640221 1.380617,0.885613 0.736953,-0.05784 1.083874,-0.836413 1.694356,-1.153345 0.468469,-0.375114 0.936938,-0.750225 1.405363,-1.125339 -1.434759,0.358788 -2.901148,-0.08565 -4.348395,-0.05289 z m 19.695226,0.588947 c -0.549366,0.648429 -0.954532,1.400122 -1.436308,2.096838 1.073573,0.286883 1.406821,1.799567 2.617349,1.777108 0.508804,0.0391 0.51409,0.681179 0.255268,0.992431 -0.04959,0.304717 -0.365925,0.917697 -0.700813,0.531182 -1.313803,-1.179945 -2.593149,-2.43279 -3.541528,-3.93414 -0.34897,-0.02047 -0.531865,0.360597 -0.840821,0.440003 0.536742,-0.477748 0.965561,-1.07324 1.260799,-1.72763 -0.6031,-0.05083 -1.442872,-0.184854 -1.816955,0.399952 0.0082,0.60813 0.422894,1.321375 -0.06148,1.84794 0.292914,0.598902 1.337274,0.710156 1.226617,1.514735 -0.0077,0.645292 -0.667953,1.181601 -1.298215,1.00368 -1.353134,0.07478 -2.736666,0.442209 -4.076263,0.06579 -0.09284,-0.541604 0.631583,-0.610264 0.863607,-0.978053 0.218079,-0.09297 0.678253,-0.449583 0.270035,-0.613818 -0.731303,-0.393847 -1.462605,-0.787696 -2.193908,-1.181544 0.120911,-0.925779 -0.823594,-1.422924 -1.339461,-2.030262 -0.461405,0.04835 -0.186905,0.655776 -0.297836,0.957617 -0.03509,0.2829 0.04102,0.77511 -0.257774,0.884983 -1.193027,-0.642536 -2.3861,-1.285067 -3.579127,-1.927597 -0.577987,0.57868 -1.155974,1.157364 -1.733962,1.736049 0.2333,0.182501 0.564634,0.251621 0.732625,0.508684 -0.250847,0.134138 -0.57384,0.158306 -0.772093,0.374999 1.001565,0.152983 2.00313,0.305966 3.00474,0.458945 -0.856954,0.09763 -1.713862,0.195263 -2.570817,0.292894 0.481687,0.316818 0.978322,0.61108 1.44948,0.943685 -2.12559,-0.891073 -4.453718,-1.051616 -6.69261,-1.491578 -0.937486,-0.07894 -1.811986,0.343082 -2.586586,0.817367 -0.87965,0.360215 -1.81905,0.05273 -2.667117,-0.232065 -2.76752,-0.695176 -5.5663518,-1.360015 -8.4159077,-1.577652 -0.8976527,0.202842 -1.8632139,0.292922 -2.6388156,0.834193 0.1067369,0.687255 -0.6343179,1.156435 -1.2494488,1.104999 -0.346556,0.08606 -0.9198028,0.07246 -1.0974553,0.336 1.1556549,0.838 2.3112641,1.675998 3.466919,2.513998 -0.9770902,0.09684 -1.9542263,0.193682 -2.9313177,0.290526 1.0520167,0.352807 2.1040344,0.705611 3.15605,1.05842 -1.0204321,0.706313 -2.0408651,1.412627 -3.0612982,2.118945 1.5708017,1.117281 3.1415565,2.234557 4.7123585,3.351838 -0.081392,0.84778 -0.4251269,1.850899 -1.3355412,2.104527 -0.902165,0.513137 -1.8043758,1.02628 -2.7065855,1.539417 2.2403495,-1.056123 4.4439649,-2.194213 6.5705588,-3.46526 -0.080901,-0.472308 -0.4814582,-1.161457 0.078937,-1.485786 0.5040176,-0.295206 1.1190576,-0.772612 1.5568096,-0.948629 -0.285758,0.618053 -0.571561,1.2361 -0.857319,1.854153 0.630855,-0.413268 1.507361,-0.673636 1.739978,-1.46838 0.501238,-0.258973 0.901116,0.349836 1.383805,0.40089 1.467482,0.62349 3.099948,1.014682 4.323146,2.084678 1.500569,2.600678 2.927079,5.348286 5.23488,7.341225 -0.304899,0.134088 -0.93908,-0.149058 -0.955806,0.366841 -0.01595,1.970061 -0.587285,4.069974 0.341724,5.926642 0.410452,1.088104 0.70218,2.449513 1.874287,2.972947 1.045455,0.619839 1.727126,1.669978 2.208402,2.756455 0.938261,1.660733 1.848538,3.413867 3.347969,4.646835 -0.918436,-1.773504 -1.836826,-3.547019 -2.75526,-5.320522 1.51848,0.756748 2.083934,2.48793 3.232799,3.634542 0.77264,1.008266 1.792571,1.936603 2.10221,3.208608 0.0055,0.735004 0.73896,1.142793 1.373415,1.26643 1.302181,0.540438 2.599712,1.092834 3.915519,1.599624 0.437022,-0.410865 1.371319,-0.519992 1.60079,0.167443 0.257684,0.383742 0.851759,0.257464 1.016014,-0.142251 0.926775,-0.940273 1.957827,-1.827685 2.570041,-3.020458 -0.639422,-0.07441 -1.455496,-0.39438 -1.957372,0.18395 -0.04101,0.463825 -0.219809,1.19261 -0.827603,1.099195 -0.834851,0.124542 -1.813173,-0.121619 -2.247233,-0.903865 -0.512677,-0.524858 -1.420402,-1.024295 -1.221283,-1.888642 0.235351,-0.927889 0.317889,-1.913441 0.406851,-2.843131 0.724239,-0.60973 1.564968,-1.054559 2.356614,-1.566968 0.556247,0.292159 1.092031,0.620902 1.634196,0.937894 0.08354,-0.718824 0.960411,-0.933061 1.552298,-0.738081 0.765803,0.02149 1.531653,0.04288 2.297456,0.06437 0.513224,1.058597 1.026497,2.117194 1.539721,3.17579 0.429549,-0.0022 1.096362,-0.342271 0.830703,-0.856644 -0.277417,-1.018806 -0.837494,-1.925901 -1.37542,-2.82362 1.150597,-1.16888 2.579977,-2.013534 3.74762,-3.16342 -0.133126,-0.64264 -0.672055,-1.111374 -0.799484,-1.756047 0.435199,0.378194 1.089434,-0.116896 1.026449,-0.635079 0.190916,-0.764199 0.836355,-1.485096 1.680146,-1.422289 0.345061,-0.02552 1.044333,-0.161582 0.821315,-0.639208 -0.120165,-0.541108 0.324159,-1.025752 0.8353,-1.107515 0.732283,-0.380171 1.496802,-0.733244 2.319697,-0.856958 0.227512,0.359476 -0.541085,0.678987 -0.17,0.991579 1.107294,-0.284477 2.018374,-1.006819 2.988418,-1.574735 -0.120468,-0.565098 -0.836513,-0.278557 -1.140824,-0.04211 -0.867036,0.200928 -1.759908,-0.882827 -1.234173,-1.665275 0.197369,-0.634268 -0.760147,-1.161676 -1.150441,-0.579085 -0.691602,0.65433 -1.421369,1.42758 -2.422186,1.533292 0.705985,-0.826979 1.485675,-1.606487 2.324732,-2.293153 1.066213,-0.622956 2.331514,-0.01194 3.447897,-0.44328 0.9995,-0.260919 1.733779,-1.017489 2.601571,-1.526981 0.290105,-0.143508 0.272928,-0.293423 -0.02064,-0.419221 -1.11723,-0.78798 -2.234465,-1.575955 -3.351696,-2.363936 0.406683,-0.784416 -0.322209,-1.526904 -0.889823,-1.984425 -0.354886,-0.352608 -0.623826,-0.808504 -1.072015,-1.055309 -0.402194,0.526493 -0.804388,1.052984 -1.206582,1.579476 -0.609205,-0.489913 -1.442488,-0.982911 -1.467103,-1.860265 -0.695044,-0.707234 -1.785376,-0.620637 -2.617582,-1.075716 -0.583183,-0.1952 -1.166321,-0.390399 -1.749502,-0.585598 -0.132808,0.907806 -0.265614,1.815614 -0.398422,2.723421 0.487566,0.347896 0.975087,0.695786 1.462652,1.043681 -0.620782,0.920359 -1.782226,1.681664 -1.665005,2.92605 0.05414,0.765512 0,1.723908 -0.733445,2.165789 -0.823958,-0.210973 -1.703657,-1.01965 -1.440639,-1.942388 0.11836,-0.42123 0.0046,-0.987655 -0.50835,-1.055526 -1.483571,-0.528861 -2.926032,-1.210897 -4.500024,-1.434011 -0.356856,-0.05248 -0.813748,-0.07471 -0.881747,-0.520703 -0.131622,-0.447306 -0.05373,-1.190539 -0.639469,-1.299473 -0.45826,0.09467 -0.626024,-0.482093 -0.443312,-0.812596 0.116811,-1.043932 0.683176,-2.018736 1.551114,-2.611047 1.157433,-1.115326 2.213141,-2.384053 3.477631,-3.358646 0.5315,0.02935 1.375602,0.184434 1.560957,-0.494097 0.139552,-0.702395 0.503929,-1.697611 1.379843,-1.626613 0.87482,0.210982 1.207155,1.193323 1.977425,1.582742 0.453657,0.39182 1.074577,0.644655 1.472997,1.051001 -0.134721,0.707616 -0.15008,1.675215 -0.897107,2.01595 -0.457166,-0.03209 -1.160486,-0.246869 -1.382438,0.314101 0.005,0.577795 0.748759,0.444748 1.106024,0.305788 0.582818,-0.06562 1.137061,0.328657 1.299855,0.875394 0.713939,0.779699 1.824739,0.93728 2.753284,1.334866 0.255062,0.0668 0.845975,0.02579 0.722894,-0.344208 -0.246176,-0.351568 -0.750377,-0.428021 -0.942368,-0.828159 0.654505,0.125036 1.292377,0.320801 1.940783,0.472107 0.01932,-1.119698 -1.060489,-1.746842 -1.734467,-2.463419 -0.10991,-0.410739 0.455681,-0.667794 0.712101,-0.345261 0.474996,0.287116 1.10684,0.845041 1.63763,0.341838 0.266694,-0.128108 0.633662,-0.56503 0.210854,-0.747678 -1.199658,-0.666868 -2.420801,-1.293908 -3.631115,-1.941001 0.255528,-0.139721 0.906249,-0.223775 0.66551,-0.641133 -1.608086,-1.354068 -3.52166,-2.29077 -5.391482,-3.207487 -0.665675,0.0176 -1.61533,-0.02001 -1.805335,-0.817955 -0.277463,-0.634887 -1.162857,-0.841795 -1.682143,-0.376886 -0.448142,0.206608 -0.925271,0.484887 -1.437812,0.375046 0.03464,-0.360102 0.418336,-0.958912 -0.131622,-1.105268 -0.06162,-0.02261 -0.127747,-0.04266 -0.193924,-0.02866 z M 34.4552,19.250323 c 0.0979,0.829413 0.421208,1.918063 1.381071,2.066051 0.492123,0.02001 1.226571,-0.08054 1.420449,-0.528706 -0.34136,-0.221584 -0.880836,-0.09854 -1.097547,-0.508398 0.268622,-0.424508 0.858367,-0.562656 1.024717,-1.06421 -0.908956,-0.02634 -1.817866,-0.05528 -2.727095,-0.07052 0,0.03527 0,0.07052 0,0.105788 z m 11.128147,0.240264 c 0.04808,0.865814 1.057258,1.389548 1.841337,1.169209 -0.138822,-0.575247 -0.749533,-0.911567 -1.265811,-1.104601 -0.18622,-0.05479 -0.381785,-0.07578 -0.575526,-0.06461 z m -10.616289,3.738417 c 0.73791,0.192456 1.475776,0.384912 2.213687,0.577368 -0.449146,-0.449121 -0.898245,-0.898243 -1.347391,-1.347366 -0.288765,0.256667 -0.577531,0.513334 -0.866296,0.77 z m -4.176575,1.426581 c -0.751858,-0.244298 -1.50367,-0.488596 -2.255527,-0.732894 0.81229,-0.255175 1.62458,-0.510352 2.436826,-0.765525 -0.06043,0.49947 -0.120866,0.998944 -0.181299,1.498419 z m 0.532913,-1.487895 c 0.17902,-0.0068 0.3363,0.240988 0.06527,0.113158 -0.05729,-0.0069 -0.223183,-0.135523 -0.06527,-0.113158 z m 16.638394,1.832367 c -0.438253,0.199908 -0.436566,1.09236 0.08974,1.129737 0.502696,-0.155047 0.5763,-1.190643 -0.08974,-1.129737 z m -4.848677,2.13158 c -0.03737,0.497792 -0.301208,1.231201 0.242643,1.53868 0.50926,0.09378 1.037387,-0.534827 1.4982,-0.07856 0.228652,0.113797 0.644938,0.399532 0.827606,0.167659 -0.241506,-0.687109 -1.101878,-0.727962 -1.591358,-1.169106 -0.306768,-0.145909 -0.609389,-0.518401 -0.977091,-0.458679 z m 1.352906,2.149468 c -0.229838,0.05689 -0.532503,0.449906 -0.141877,0.499739 0.195701,0.159614 0.652366,0.185424 0.522386,-0.190264 0.01321,-0.227854 -0.113848,-0.543418 -0.380509,-0.309475 z"
       id="path4162"
       inkscape:connector-curvature="0" />
  </g>
</svg>
