<?xml version="1.0" encoding="UTF-8" standalone="no"?>
<!-- Created with Inkscape (http://www.inkscape.org/) -->

<svg
   xmlns:dc="http://purl.org/dc/elements/1.1/"
   xmlns:cc="http://creativecommons.org/ns#"
   xmlns:rdf="http://www.w3.org/1999/02/22-rdf-syntax-ns#"
   xmlns:svg="http://www.w3.org/2000/svg"
   xmlns="http://www.w3.org/2000/svg"
   xmlns:sodipodi="http://sodipodi.sourceforge.net/DTD/sodipodi-0.dtd"
   xmlns:inkscape="http://www.inkscape.org/namespaces/inkscape"
   width="64"
   height="64"
   id="svg5312"
   version="1.1"
   inkscape:version="0.91 r13725"
   viewBox="0 0 64 64"
   sodipodi:docname="amerique_centrale.svg">
  <defs
     id="defs5314" />
  <sodipodi:namedview
     id="base"
     pagecolor="#ffffff"
     bordercolor="#666666"
     borderopacity="1.0"
     inkscape:pageopacity="0.0"
     inkscape:pageshadow="2"
     inkscape:zoom="2.75"
     inkscape:cx="28.723044"
     inkscape:cy="32"
     inkscape:current-layer="layer1"
     showgrid="true"
     inkscape:document-units="px"
     inkscape:grid-bbox="true"
     inkscape:snap-grids="false"
     inkscape:snap-page="true"
     inkscape:snap-bbox="true"
     inkscape:bbox-nodes="true"
     inkscape:window-width="1474"
     inkscape:window-height="841"
     inkscape:window-x="-8"
     inkscape:window-y="-8"
     inkscape:window-maximized="1" />
  <metadata
     id="metadata5317">
    <rdf:RDF>
      <cc:Work
         rdf:about="">
        <dc:format>image/svg+xml</dc:format>
        <dc:type
           rdf:resource="http://purl.org/dc/dcmitype/StillImage" />
        <dc:title></dc:title>
      </cc:Work>
    </rdf:RDF>
  </metadata>
  <g
     id="layer1"
     inkscape:label="Layer 1"
     inkscape:groupmode="layer">
    <path
       inkscape:connector-curvature="0"
       style="opacity:0.33200001;fill:#000000;fill-opacity:1;stroke:none;stroke-width:1.5;stroke-linecap:round;stroke-linejoin:round;stroke-miterlimit:4;stroke-dasharray:none;stroke-opacity:1"
       d="m 7.6554575,18.230577 -1.6262956,0.293734 0.1388638,0.540297 -0.029396,-0.0064 0.055192,0.105917 0.8420745,3.277512 1.3939703,1.469626 -0.3097717,1.273787 1.9369565,1.566656 0.619538,1.567567 1.394859,2.448768 0.619544,0.784217 0.02138,-0.13618 32.583765,32.58379 18.703737,0 0,-1.005895 -30.428728,-30.42871 -0.07388,0.07388 -2.202219,0.636461 -11.027117,-11.027114 -0.04362,0.04375 -0.484239,-0.340038 -1.084194,1.567521 -0.929315,-0.195792 -1.627185,-3.722602 -4.18279,0.490483 -4.2611255,-1.861301 z m 30.9094015,12.243932 -2.866266,0.980054 0,0.575025 -0.163789,0.06855 8.08964,8.08964 -0.03295,0.03373 20.408363,20.408357 0,-11.311048 -6.08325,-6.083269 0.01513,-0.02689 -0.0543,-0.0123 -0.06231,-0.0623 -0.146871,0.01413 -0.34538,-0.07921 -6.654725,-6.654743 0.446854,-0.0623 -2.169286,-1.665463 -2.556495,0 1.006752,1.370818 -0.210964,0.01139 -1.969006,-1.968996 0.01158,0 -0.03026,-0.01777 L 44.998821,33.883369 44.39352,33.606544 40.424364,31.258361 38.56485,30.47501 Z m 13.247149,5.485961 -0.07032,0.623107 -0.03382,0.0064 0.02935,0.02917 -0.0027,0.02689 0.03737,0.0082 12.227921,12.227932 0,-3.122647 -7.892918,-7.892887 0.04362,-0.04558 -0.474449,0.08545 -0.155777,0.01504 -1.621843,-1.621802 -0.151324,0.01413 0.156665,-0.158466 -2.091839,-0.194926 z"
       id="rect4629" />
    <path
       style="fill:#ffffff;fill-rule:evenodd;stroke:none;stroke-width:0.89041895px;stroke-linecap:butt;stroke-linejoin:miter;stroke-opacity:1"
       d="m 7.6556581,18.230121 -1.6268243,0.294099 1.0070166,3.918029 1.3942437,1.469397 -0.3096942,1.273332 1.9365181,1.567385 0.619804,1.567431 1.394663,2.448677 0.619379,0.783669 0.07752,-0.489526 -1.858986,-4.310251 -1.9369286,-3.036782 -1.2391824,-2.350553 -0.2325851,-1.763496 1.6268197,0.588151 3.8734514,5.779011 0,1.371319 3.873443,4.89781 -0.464742,2.448677 8.366274,4.7022 0.387218,-0.78367 2.014466,0.58765 1.781457,2.057047 3.718814,1.469398 0,-1.175847 0.774436,1.469398 1.162074,1.56743 0.697336,2.155077 0.387213,-0.392085 2.091571,2.056956 0.929493,0.685728 0.77486,0 -0.155053,-0.58765 1.472187,-0.979279 0.696908,0.391629 0,1.567431 0.929916,-0.196111 0,-0.881748 -0.155056,-0.489572 -1.626825,-0.881793 -1.31713,0.881793 -1.239187,-0.293596 -1.859405,-2.84076 0.774856,-3.820497 -0.46517,-1.273332 -3.408277,-0.293597 -1.239611,0.489662 0,-0.783715 0.464751,-2.448677 0.77486,-0.19602 -0.310114,-1.371319 0.697332,-2.449179 -2.71137,0.78367 -0.464751,2.155034 -3.176115,1.371411 -1.936933,-1.469398 -1.781458,-3.526399 0.464738,-4.309659 -0.619794,0.09803 -2.866431,-5.289895 -0.697336,-0.489617 -1.084545,1.56743 -0.929488,-0.196111 -1.626824,-3.722419 -4.183137,0.490164 -4.2606699,-1.861575 z m 30.9096389,12.244753 -2.866431,0.979279 0,0.685682 2.711374,-1.077221 -0.30969,0.587559 0.696908,-0.09803 2.091566,0.685683 1.704357,1.861027 -0.23217,0.294053 2.866007,-0.294053 -4.802931,-2.840717 -1.85899,-0.783259 z m 7.824014,4.211626 1.007016,1.371364 -1.858996,0.09799 0,0.97978 2.788908,-0.392131 2.788898,-0.391584 -2.16909,-1.665417 -2.556736,0 z m -5.887505,1.077767 -0.30969,0.783716 2.323737,0.489617 0.852388,-0.196112 -2.866435,-1.077221 z m 11.310239,0.196066 -0.07752,0.685637 1.394663,0.293597 0.774427,-0.783715 -2.091566,-0.195519 z m 4.338202,1.860936 -1.626829,0.293643 0.697332,0.685637 0.929497,-0.97928 z m 0.697327,2.448677 -0.155057,1.273332 1.08455,-0.979279 -0.929493,-0.294053 z m 0.23259,2.74273 -0.155057,1.371319 0.07753,0.392131 0.929489,-1.56743 -0.85196,-0.19602 z"
       id="path4401"
       inkscape:connector-curvature="0" />
  </g>
</svg>
