<?xml version="1.0" encoding="UTF-8" standalone="no"?>
<!-- Created with Inkscape (http://www.inkscape.org/) -->

<svg
   xmlns:dc="http://purl.org/dc/elements/1.1/"
   xmlns:cc="http://creativecommons.org/ns#"
   xmlns:rdf="http://www.w3.org/1999/02/22-rdf-syntax-ns#"
   xmlns:svg="http://www.w3.org/2000/svg"
   xmlns="http://www.w3.org/2000/svg"
   xmlns:sodipodi="http://sodipodi.sourceforge.net/DTD/sodipodi-0.dtd"
   xmlns:inkscape="http://www.inkscape.org/namespaces/inkscape"
   width="64"
   height="64"
   id="svg5312"
   version="1.1"
   inkscape:version="0.91 r13725"
   viewBox="0 0 64 64"
   sodipodi:docname="amerique_du_sud.svg">
  <defs
     id="defs5314" />
  <sodipodi:namedview
     id="base"
     pagecolor="#ffffff"
     bordercolor="#666666"
     borderopacity="1.0"
     inkscape:pageopacity="0.0"
     inkscape:pageshadow="2"
     inkscape:zoom="2.75"
     inkscape:cx="28.723044"
     inkscape:cy="32"
     inkscape:current-layer="layer1"
     showgrid="true"
     inkscape:document-units="px"
     inkscape:grid-bbox="true"
     inkscape:snap-grids="false"
     inkscape:snap-page="true"
     inkscape:snap-bbox="true"
     inkscape:bbox-nodes="true"
     inkscape:window-width="1474"
     inkscape:window-height="841"
     inkscape:window-x="-8"
     inkscape:window-y="-8"
     inkscape:window-maximized="1" />
  <metadata
     id="metadata5317">
    <rdf:RDF>
      <cc:Work
         rdf:about="">
        <dc:format>image/svg+xml</dc:format>
        <dc:type
           rdf:resource="http://purl.org/dc/dcmitype/StillImage" />
        <dc:title></dc:title>
      </cc:Work>
    </rdf:RDF>
  </metadata>
  <g
     id="layer1"
     inkscape:label="Layer 1"
     inkscape:groupmode="layer">
    <path
       inkscape:connector-curvature="0"
       style="opacity:0.33200001;fill:#000000;fill-opacity:1;stroke:none;stroke-width:1.5;stroke-linecap:round;stroke-linejoin:round;stroke-miterlimit:4;stroke-dasharray:none;stroke-opacity:1"
       d="m 23.808008,3.8306801 -0.192269,0.1922693 -2.40072,0.9141791 -0.126399,1.011203 -1.768717,1.5159157 0.883912,3.2855238 -3.03183,2.90543 -0.252802,4.422234 4.169437,6.190956 0.435282,0.323121 3.35762,3.356737 -3.160899,19.695336 1.263112,-0.8848 -0.50471,2.274303 -0.884806,-0.379187 -0.632002,2.274303 1.516808,0.505613 -1.643207,1.010315 0.126399,2.400729 0.884805,2.021497 1.371709,0.72638 0.802911,0.802901 -2.17462,-0.518055 3.118176,1.461603 L 29.625989,64 l 34.373813,0 0,-33.904723 -12.69167,-12.691678 -0.02222,-0.210075 -3.28464,-2.021519 -3.285524,-0.379201 -0.379196,0.474449 -5.077382,-5.078273 -0.02136,0.02138 -1.849715,-1.3556899 -2.527123,0.1263987 -1.38862,-1.0681729 -2.770134,-2.7701268 -0.13708,-0.2056268 -0.06234,0.00626 -0.10592,-0.1059301 -0.131741,0.1317444 -3.23745,0.347153 -1.89601,-0.8839122 -0.38899,0.3329143 -0.934655,-0.934651 z"
       id="rect4496" />
    <path
       style="fill:#ffffff;fill-rule:evenodd;stroke:none;stroke-width:0.38812223px;stroke-linecap:butt;stroke-linejoin:miter;stroke-opacity:1"
       d="m 23.868463,3.9266525 -2.653321,1.0108632 -0.126444,1.0109118 -1.768882,1.5159696 0.884436,3.2852469 -3.032322,2.90584 -0.252546,4.422211 4.169314,6.191089 3.916761,2.906233 -3.284872,20.468204 1.263436,-0.884436 -0.505441,2.274303 -0.884445,-0.379005 -0.631889,2.274394 1.516334,0.505385 -1.64244,1.010589 0.126106,2.400729 0.884437,2.02145 2.148227,1.137335 0.631547,-1.137335 1.642433,-0.505111 -1.010543,-1.895298 3.15877,-2.906206 -1.642778,-1.263441 0.88444,-1.010543 0.631889,0 1.768876,-2.40082 -1.642427,-0.505386 0.505094,-1.010905 1.76889,0.631856 0,-2.021404 3.285211,-0.379324 1.263438,-1.768872 -1.389883,-1.894979 3.032311,0.379005 3.790657,-5.180222 0.758002,-2.148232 1.642428,-1.768876 3.664212,-0.884459 2.27433,-5.685629 -0.505446,-2.021424 3.032332,-3.032343 -0.252556,-2.400734 -3.285211,-2.021479 -3.284877,-0.378954 -0.505436,0.631506 -2.653331,-1.89532 -0.631891,1.010911 0.126445,-1.516019 -1.895329,0.126098 L 40.419947,12.13951 39.282954,10.24419 37.387626,8.854269 34.860762,8.9807217 31.575539,6.4535393 30.564992,4.9375157 27.027233,5.31652 25.131904,4.4321116 24.247458,5.1900716 23.994912,6.4535393 23.236574,5.9484275 23.742019,4.558561 23.868463,3.9266525 Z m 2.147886,53.3193025 -1.136996,0.252579 -0.379343,1.010907 -2.653325,-0.631903 4.043211,1.895298 2.147876,-0.252897 -2.021423,-2.273984 z"
       id="path4246"
       inkscape:connector-curvature="0" />
  </g>
</svg>
