<?xml version="1.0" encoding="UTF-8" standalone="no"?>
<!-- Created with Inkscape (http://www.inkscape.org/) -->

<svg
   xmlns:dc="http://purl.org/dc/elements/1.1/"
   xmlns:cc="http://creativecommons.org/ns#"
   xmlns:rdf="http://www.w3.org/1999/02/22-rdf-syntax-ns#"
   xmlns:svg="http://www.w3.org/2000/svg"
   xmlns="http://www.w3.org/2000/svg"
   xmlns:sodipodi="http://sodipodi.sourceforge.net/DTD/sodipodi-0.dtd"
   xmlns:inkscape="http://www.inkscape.org/namespaces/inkscape"
   width="64"
   height="64"
   id="svg5312"
   version="1.1"
   inkscape:version="0.91 r13725"
   viewBox="0 0 64 64"
   sodipodi:docname="asie.svg">
  <defs
     id="defs5314" />
  <sodipodi:namedview
     id="base"
     pagecolor="#ffffff"
     bordercolor="#666666"
     borderopacity="1.0"
     inkscape:pageopacity="0.0"
     inkscape:pageshadow="2"
     inkscape:zoom="2.75"
     inkscape:cx="28.723044"
     inkscape:cy="32"
     inkscape:current-layer="layer1"
     showgrid="true"
     inkscape:document-units="px"
     inkscape:grid-bbox="true"
     inkscape:snap-grids="false"
     inkscape:snap-page="true"
     inkscape:snap-bbox="true"
     inkscape:bbox-nodes="true"
     inkscape:window-width="1474"
     inkscape:window-height="841"
     inkscape:window-x="-8"
     inkscape:window-y="-8"
     inkscape:window-maximized="1" />
  <metadata
     id="metadata5317">
    <rdf:RDF>
      <cc:Work
         rdf:about="">
        <dc:format>image/svg+xml</dc:format>
        <dc:type
           rdf:resource="http://purl.org/dc/dcmitype/StillImage" />
        <dc:title></dc:title>
      </cc:Work>
    </rdf:RDF>
  </metadata>
  <g
     id="layer1"
     inkscape:label="Layer 1"
     inkscape:groupmode="layer">
    <path
       inkscape:connector-curvature="0"
       style="opacity:0.33200001;fill:#000000;fill-opacity:1;stroke:none;stroke-width:1.5;stroke-linecap:round;stroke-linejoin:round;stroke-miterlimit:4;stroke-dasharray:none;stroke-opacity:1"
       d="m 25.071957,11.396002 -0.07032,0.07032 -1.153625,0.64088 0.588386,0.523432 0.176249,0.129935 2.420298,2.420322 -5.327504,1.479419 0,0.833161 -2.129219,1.481197 -0.887474,-0.16913 -3.874788,-3.87481 9.12e-4,-0.0091 -2.291225,0.589288 -2.6837782,0.78508 0.1308512,0.981828 -0.9168471,0.524298 -1.0468097,1.112675 0.5029324,0.352525 -0.060529,0.06052 2.1425719,2.14254 -0.457535,0.281291 -2.8698167,-0.09256 2.6846671,9.905516 -1.758919,-0.370299 -0.8331755,0.740598 -1.0183206,0.185127 0,1.29607 1.0183206,0.462863 1.5737739,-0.740599 -0.2777267,0.740599 0.092577,0.648035 -0.7405984,0.277736 c 0,0 -0.4628626,0 -0.092577,0.462862 0.3702901,0.462863 1.2034747,0.648035 1.2034747,0.648035 l 0.7405984,0.833162 -1.0183251,-0.09256 0.3702992,1.57376 -1.6663464,-0.09256 -0.3702992,-0.648035 -0.9257481,0 -0.4628717,-0.370299 -0.2777267,1.110898 -3.0549663,0.370299 -0.7405984,2.221795 0.092572,1.480286 2.8698213,4.443589 0.2892937,1.229302 -0.027619,0.0278 0.044527,0.04466 0.064093,0.272403 0.1539944,-0.05432 L 20.931032,64 l 43.068649,0 0,-39.25085 -1.980565,-1.980565 0.04807,-0.09079 -0.202063,-0.06321 -0.06409,-0.06408 -0.03382,0.03373 -1.181221,-0.369388 -3.702992,-1.666369 -2.499522,-0.185127 -0.09257,0.833162 -3.82049,-0.434378 -0.273274,-0.272403 -0.0721,-0.866979 -0.743264,0.05159 -2.934803,-2.934775 0.04896,0.01504 -0.219864,-0.186038 -0.411244,-0.411272 -0.03382,0.03373 -0.186038,-0.156688 -0.195835,0.39254 0.12195,0.03828 3.247242,3.247239 -0.577703,0.04011 -3.646026,-3.646023 0.0036,-0.0064 -0.02224,-0.01231 -0.134411,-0.134402 -0.03828,0.03828 -0.394336,-0.21899 -2.029522,0.130847 0.295524,0.50739 -0.04718,0.04717 0.179808,0.179795 0.03026,0.05164 0.01513,-0.0064 0.751281,0.751308 -0.158447,0.15842 -0.411244,0.274181 0.367629,0.01686 1.123357,1.12334 -2.053558,-0.495768 0.185149,0.555426 -2.499517,0.740598 -0.740598,-1.851496 -2.962394,-0.09256 -0.462876,0.370299 -1.098433,-0.264382 -1.304953,-1.304958 -0.56435,-0.564358 0.190491,-0.08723 -0.380977,-0.103229 -0.03737,-0.03737 -0.03204,0.01869 -1.828353,-0.495813 -1.652993,-1.653016 0.136193,-0.06408 -1.17855,-0.523387 -0.04362,0.07119 -0.500261,-0.50028 0.151323,-0.09521 -2.220901,-1.079769 -0.154888,-0.154865 z m -11.217573,4.483651 -0.02315,0.02324 -0.01158,-0.01139 0.03473,-0.01139 z m 29.70939,0.824274 0.106815,0.0196 -0.04362,0.04375 -0.0632,-0.06317 z m 16.143622,6.68316 0.885692,0.371211 -0.25725,0.257227 -0.628442,-0.628438 z M 6.9869359,41.37775 l 0.8331755,0.185173 1.6663464,1.481197 0.7405982,-0.555472 0.129069,0.09261 -1.1206913,1.119785 -0.8598735,0.453064 -1.4811969,-2.221796 0.092573,-0.55456 z"
       id="rect4552" />
    <path
       style="fill:#ffffff;fill-rule:evenodd;stroke:none;stroke-width:0.20107692px;stroke-linecap:butt;stroke-linejoin:miter;stroke-opacity:1"
       d="m 25.025881,11.452652 -1.178272,0.654552 0.589225,0.523751 1.243604,0.916383 1.243776,-0.589198 0.523537,-0.327185 -2.42187,-1.178303 z m 2.814747,1.702009 -0.916414,1.505443 2.09469,-0.98192 -1.178276,-0.523523 z m 0.530164,1.65452 -6.665121,1.85145 0,0.833207 -2.129232,1.481106 -1.943982,-0.370163 -0.555394,2.314313 0,1.481152 -0.833185,0.925725 0.462863,-3.610338 -0.462863,-1.203506 -1.388583,-0.277645 -0.555399,1.851451 0.740649,1.018243 -0.370322,0.462862 -2.129232,-1.296024 -2.406835,1.48106 -2.8697031,-0.09252 2.684626,9.905197 -1.7589053,-0.370345 -0.8331801,0.740644 -1.0182613,0.185081 0,1.296025 1.0182613,0.462862 1.5738287,-0.740461 -0.277786,0.740461 0.092536,0.648127 -0.7404708,0.277599 c 0,0 -0.4628216,0 -0.092536,0.462862 0.3702901,0.462863 1.2033334,0.648126 1.2033334,0.648126 l 0.7406486,0.833025 -1.0182613,-0.09256 0.3701442,1.573806 -1.6661869,-0.0927 -0.3703266,-0.647944 -0.9257206,0 -0.4628627,-0.370299 -0.2777859,1.110943 -3.0547703,0.370162 -0.7406486,2.22175 0.092531,1.481151 2.8698805,4.443544 0.3701488,1.573623 3.1474841,-1.110806 2.1292314,-1.203507 1.110793,-1.666185 -1.296042,-1.110943 -1.758728,0.925725 -1.4813016,-2.221795 0.092718,-0.555381 0.8330069,0.185264 1.6663692,1.481105 0.7404662,-0.555426 1.296047,0.925771 2.777162,-0.185263 1.296048,1.666323 0.833184,0 1.666192,4.99897 1.203511,-0.462863 0.185072,-2.036714 2.962412,-2.869646 1.573655,-0.185127 0.83319,2.03653 0,0.925725 1.018256,-0.462862 0.740648,1.388588 -0.09271,1.85145 0.925716,1.851451 1.388583,1.388542 -0.64793,-2.036669 -1.110798,-1.75875 0.277613,-1.758887 1.573833,1.943968 0.185073,0.647944 1.481114,-1.851268 -0.09254,-1.110989 -1.388578,-1.481105 1.110792,-0.925724 0.462863,0 0.09253,0.647942 0.740649,-0.833024 2.036514,-0.740644 1.851445,-2.499348 -0.555394,-2.684613 0.833185,-0.555426 -0.925721,-0.370344 -0.555398,-0.462863 1.573655,-1.203507 -0.09254,1.29607 0.925721,-0.833162 0.09254,0.648081 0.740648,0.277645 0.09254,1.666323 1.203512,-0.647898 -1.01844,-1.573851 1.203507,-0.833208 0,-0.462862 0.925725,-0.740462 0.83318,0.647944 2.499381,-3.702856 -0.09254,-2.221613 -1.203511,0.555381 -0.925721,-0.833162 2.499554,-2.314313 3.887962,-0.370345 0.833184,0.648126 1.296048,-1.85145 0.64793,-0.185218 0.277608,0.648126 1.75891,-1.388634 0.09254,1.110807 -3.147311,2.22175 0.370327,3.795464 2.221585,-2.869693 -0.370326,-1.388634 0.740648,-0.833162 2.221773,-0.185035 3.702882,-1.29607 -0.648112,-1.481106 1.11097,-0.925726 2.869703,1.203279 0.740471,-1.388542 -1.481119,-0.462863 -3.702888,-1.666187 -2.499376,-0.185263 -0.09253,0.833161 -4.073214,-0.462862 -0.09254,-1.110761 -2.684626,0.185081 -5.369077,-1.296024 0.185072,0.555517 -2.499376,0.740507 -0.740648,-1.85145 -2.962239,-0.09256 -0.462863,0.370345 -4.99893,-1.203507 2.221768,-1.018243 -4.443531,-1.203551 z m -13.556305,0.112798 -2.291038,0.589015 -2.6839103,0.785581 0.1310198,0.98192 -0.9164142,0.523569 -1.047434,1.112766 1.3092914,0.916382 1.3746233,-0.06531 -0.9164139,-0.98192 1.3091089,-1.963657 3.665657,-1.243794 0.06551,-0.654553 z m 29.194225,0.850891 -2.029176,0.131029 0.458205,0.785353 0.327372,-0.130801 1.439947,0.261875 0.392882,-0.720089 -0.58923,-0.327367 z m 1.636484,0.261875 -0.19635,0.392722 1.047254,0.327322 -0.850904,-0.720044 z m -2.225526,1.309105 -0.785577,0.523705 1.440129,0.06554 -0.654552,-0.589243 z m 0.387504,12.878665 -0.370322,0.06946 -0.02311,0.717355 0.277786,0.439756 -0.208338,2.33742 0.208338,0.09252 0.02311,-0.323949 0.277612,0.231432 0.06944,-0.161975 -0.370149,-0.509258 0.254524,-0.717355 0.462863,0.185081 -0.439775,-1.041395 0.04636,-0.624838 -0.208343,-0.694248 z m 3.355834,3.193643 -0.138896,0.06946 -0.09254,0.04635 -0.324145,0.532319 0.555577,-0.277781 0,-0.370345 z m -3.564173,1.064593 -0.323967,0.879421 -0.393415,0.09265 -0.208338,0.64799 0.462858,0.09252 0.162161,-0.416467 -0.09271,-0.16202 0.300875,-0.02324 0.393415,0.324177 0.509222,-0.439802 0.485946,-0.185035 -0.06944,-0.300934 -0.370326,0.09252 -0.624842,-0.323904 -0.231432,-0.277827 z m 1.967249,0.0464 -0.300879,0.06946 0.277786,0.277599 0.02311,-0.347055 z m -2.244861,1.828161 -0.532306,0.20837 -0.02306,1.157157 -1.018439,0.879329 -0.208161,-0.277599 -0.370322,0.624838 -1.180245,0.02324 -0.648112,0.740644 0.254702,0 0.485946,-0.25472 0.809919,-0.06923 0.208338,0.532091 0.485951,-0.532091 c 0,0 0.740631,-0.115853 0.902632,-0.09275 0.161998,0.02324 0.462863,-0.462863 0.462863,-0.462863 l 0.09254,-0.995136 0.416681,-0.509076 -0.138895,-0.972075 z m -2.869698,3.193871 -0.624842,0.300888 0.04618,0.277599 0.833189,-0.323995 -0.254524,-0.254492 z m -1.296048,0.138685 -0.416498,0.347238 0.323967,0.485924 -0.185255,0.486015 0.462863,-0.02324 0.161979,-0.971894 -0.347056,-0.324131 z m -3.702882,3.72619 -0.601754,0.971893 0.416682,0.555381 0.370144,-1.342238 -0.185072,-0.185036 z m -4.212105,2.12905 -0.694294,0.323947 0.1389,0.462863 0.555394,-0.427223 0,-0.359587 z m 0,0.359587 0,0.149624 0.04635,-0.185264 -0.04635,0.03555 z m 3.957585,0.357766 -0.04636,1.458045 -0.115629,0.115761 0.208161,-0.115761 0.04636,0 0.115624,0.300888 0.69429,0.04635 0.370326,0.439756 0.06945,-0.324131 -1.041345,-0.717355 0.416499,-1.018289 -0.717378,-0.185264 z m 0.04618,1.967258 -0.06945,0.185081 0.347238,0.115807 0.06944,-0.115807 -0.347233,-0.185081 z m 1.735817,0.161974 -0.254698,0.185081 0.185255,0.231432 -0.208343,0.370299 0.300874,0.277827 -0.161984,-0.20837 0.138896,-0.231432 0.185072,0.208371 0.115807,-0.02324 -0.300879,-0.810101 z m -1.249684,0.439802 0.04618,0.508985 0.347234,-0.300843 -0.393411,-0.208142 z m -0.740653,0.04617 -0.740649,0.925679 0.06945,0.16202 0.509217,-0.7174 0.277613,-0.277599 -0.115629,-0.0927 z m 1.180245,0.370299 -0.1389,0.7174 0.416686,-0.578487 -0.277786,-0.138913 z m 0.925716,0.370345 0,0.347055 -0.532306,0.324132 -0.02311,-0.277736 -0.624847,0.39336 -0.115802,0.208325 0.555577,-0.254675 0.300879,0.185218 -0.185255,0.416558 0.624842,0.254675 0.138895,-0.02324 -0.27779,-0.3703 0.231431,-0.347101 0.300879,0.462908 -0.115625,-0.995227 -0.27779,-0.323949 z m -17.704326,0.04635 -0.138895,0.833025 0.323967,0.55538 0.416681,-0.185081 0,-0.231386 -0.601753,-0.971938 z m 14.441213,1.156974 -1.502234,1.263848 -1.298016,0.310003 -0.323968,0.948787 0.416504,0.624882 0.231431,0.57867 2.175409,0.254492 0.462858,-1.596958 0.53231,-0.161929 -0.555399,-0.833207 0.624847,-0.833025 -0.763742,-0.555563 z m -8.0537,0.462862 -0.462862,0.277782 3.980495,4.350799 0.370326,-1.388542 -2.036518,-1.851496 -1.851441,-1.388543 z m 9.627355,1.481288 -0.74047,0.809964 0.185076,2.05973 0.277786,-0.04635 -0.138895,-1.018243 0.300879,-0.09252 0.416499,0.87933 0.254702,-0.277599 -0.578665,-0.786995 0.601753,-0.300705 -0.02306,-0.231432 -0.671201,0.2776 -0.323967,-0.601731 0.624842,-0.11567 1.481119,-0.277736 -1.666369,-0.277645 z m 2.638454,0.115625 0.06927,0.717401 0.208343,-0.161975 0,-0.433877 -0.277608,-0.121549 z m 0.277608,0.121549 0.09253,0.04056 -0.09253,-0.11567 0,0.0752 z m 1.573651,0.688552 -0.694289,0.277644 0.416681,-0.04621 0.02311,0.347056 0.532305,-0.04621 0.1389,0.277645 -0.439774,0.115807 c 0,0 0.161984,0.416467 0.161984,0.50903 0,0.09256 0.27779,-0.323949 0.27779,-0.323949 l 0.509035,0.277782 0.53231,0.138685 0.810097,0.53232 -0.138896,0.786857 0.185072,0.115761 0.532311,0.02324 1.180418,0.393452 -0.02329,-0.509076 0.370322,-0.138868 0.648117,-0.02279 0.925541,0.995137 0.902632,0.185127 -0.971898,-0.995228 -0.439776,-0.254492 0.347058,-0.416695 -0.46286,-0.208143 -0.647931,-0.740644 -2.638276,-0.7174 -0.462858,0.09256 -0.393415,0.555381 -0.555394,-0.439619 -0.208343,-0.671188 -0.416681,-0.09252 z m -1.71255,0.786857 0,0.300843 0.900125,0.04375 -0.900125,-0.344686 z m 0.900125,0.344686 0.187579,0.07178 -0.138708,-0.06946 -0.04887,-0.0046 z m -1.617503,-0.229107 -0.09254,0.347284 0.393415,-0.0464 0,0.09252 0.02306,-0.323949 -0.323963,-0.06946 z m 9.928419,0.555608 -0.09272,0.254493 -0.439592,0.323994 -0.648113,-0.16202 -0.25452,0.185082 0.485951,0.185263 1.041523,-0.393406 0.06945,-0.324177 -0.161984,-0.06923 z m -11.270643,0.115625 -0.18525,0.393406 0.115802,0.02279 0.06945,-0.416467 z m -6.271889,0.55538 -0.277608,0.462863 3.425101,0.833162 -0.555399,-0.925726 -2.592094,-0.370299 z m 7.961173,0.648126 -1.295869,0.555381 0,0.370299 1.388578,-0.462817 -0.09271,-0.462863 z m -3.9805,0.185036 -0.06944,0.277827 0.671201,0.02279 0.300874,-0.138914 -0.902632,-0.161974 z m 1.458031,0.138914 -0.231431,0.04621 0.971897,0.06946 0.254702,-0.09261 -0.995168,-0.02279 z m -0.370322,0.16202 -0.277791,0.115624 0.393593,0.393406 0.138713,0.06941 -0.254515,-0.578441 z"
       id="path4289"
       inkscape:connector-curvature="0" />
  </g>
</svg>
