<?xml version="1.0" encoding="UTF-8" standalone="no"?>
<!-- Created with Inkscape (http://www.inkscape.org/) -->

<svg
   xmlns:dc="http://purl.org/dc/elements/1.1/"
   xmlns:cc="http://creativecommons.org/ns#"
   xmlns:rdf="http://www.w3.org/1999/02/22-rdf-syntax-ns#"
   xmlns:svg="http://www.w3.org/2000/svg"
   xmlns="http://www.w3.org/2000/svg"
   xmlns:sodipodi="http://sodipodi.sourceforge.net/DTD/sodipodi-0.dtd"
   xmlns:inkscape="http://www.inkscape.org/namespaces/inkscape"
   width="64"
   height="64"
   id="svg5312"
   version="1.1"
   inkscape:version="0.91 r13725"
   viewBox="0 0 64 64"
   sodipodi:docname="europe.svg">
  <defs
     id="defs5314" />
  <sodipodi:namedview
     id="base"
     pagecolor="#ffffff"
     bordercolor="#666666"
     borderopacity="1.0"
     inkscape:pageopacity="0.0"
     inkscape:pageshadow="2"
     inkscape:zoom="2.75"
     inkscape:cx="28.723044"
     inkscape:cy="32"
     inkscape:current-layer="layer1"
     showgrid="true"
     inkscape:document-units="px"
     inkscape:grid-bbox="true"
     inkscape:snap-grids="false"
     inkscape:snap-page="true"
     inkscape:snap-bbox="true"
     inkscape:bbox-nodes="true"
     inkscape:window-width="1474"
     inkscape:window-height="841"
     inkscape:window-x="-8"
     inkscape:window-y="-8"
     inkscape:window-maximized="1" />
  <metadata
     id="metadata5317">
    <rdf:RDF>
      <cc:Work
         rdf:about="">
        <dc:format>image/svg+xml</dc:format>
        <dc:type
           rdf:resource="http://purl.org/dc/dcmitype/StillImage" />
        <dc:title></dc:title>
      </cc:Work>
    </rdf:RDF>
  </metadata>
  <g
     id="layer1"
     inkscape:label="Layer 1"
     inkscape:groupmode="layer">
    <path
       inkscape:connector-curvature="0"
       style="opacity:0.33200001;fill:#000000;fill-opacity:1;stroke:none;stroke-width:1.5;stroke-linecap:round;stroke-linejoin:round;stroke-miterlimit:4;stroke-dasharray:none;stroke-opacity:1"
       d="m 36.692765,11.068409 c -0.120464,-0.01048 -0.24596,0.01276 -0.377422,0.08814 -0.583979,0.268302 -1.165151,0.75573 -1.851496,0.575935 -0.451948,-0.120729 -1.143671,-0.314378 -1.312067,0.298199 -0.261675,0.335799 -0.292407,0.91064 -0.730809,1.070837 -0.61642,0.05214 -1.203584,-0.311963 -1.8239,-0.196748 -0.506406,0.0855 -0.965148,0.336756 -1.469626,0.437067 -0.649657,0.188135 -1.10654,0.730389 -1.655663,1.095766 l -2.438101,1.863073 -4.010092,5.080049 -3.264152,1.079724 c -0.562828,0.563402 -0.405155,1.433844 -0.238559,2.129232 l 0.451304,2.650841 0.149542,0.0319 -0.0053,0.0055 2.082932,2.082927 c -0.242032,0.123555 -0.427132,0.328416 -0.389879,0.636459 -0.04307,0.834302 0.537055,1.499792 0.836731,2.22804 0.189456,0.455707 -0.144943,1.14836 -0.705879,0.956898 -0.470547,-0.257637 -0.943199,-0.162977 -1.383283,0.100585 -0.466568,0.222316 -1.057115,0.03828 -1.453601,0.429046 -0.01996,0.02005 -0.03491,0.04466 -0.05341,0.0659 l -6.432168,-6.432178 c 0.05791,-0.222498 -0.211123,-0.515775 -0.454864,-0.472661 -0.4691661,0.194515 -1.043824,-0.159012 -1.4607239,0.194014 -0.2698057,0.384017 -0.3496263,0.8683 -0.6035171,1.260476 -0.1609719,0.570648 0.2745455,1.040301 0.54833,1.488306 0.3103039,0.475077 0.5360018,1.015099 0.8723383,1.465155 0.3531894,0.275913 0.7265517,0.632722 0.7432687,1.111809 0.208279,0.404709 -0.214168,0.946371 -0.6533623,0.85007 l -1.9129179,-1.912886 -0.081001,0.08099 c -0.072351,-0.01914 -0.1476776,-0.02735 -0.224317,-0.01504 -0.6862909,0.160972 -1.3643646,0.353892 -2.0437691,0.541206 -0.2330584,0.464686 0.2152658,0.878008 0.3533862,1.295159 0.07967,0.50666 -0.2674813,0.935843 -0.5634564,1.304957 -0.1059443,0.257728 0.079757,0.502559 0.3168896,0.601731 l 6.6636029,6.663608 c -0.138681,0.554241 -0.307679,1.101555 -0.428157,1.660991 -0.0046,0.570147 -0.573428,0.696209 -1.028115,0.538518 -1.3216229,-0.02097 -2.6456625,-0.101359 -3.9682528,-0.146843 -0.341646,0.287899 -0.826166,0.462179 -0.9880586,0.91506 l 9.115e-4,2.834191 c -0.2835876,0.328142 -0.2419956,0.964874 0.2047333,1.128717 0.4330929,0.28079 0.00629,0.933337 0.4183675,1.229302 0.049226,0.01094 0.099741,0.01686 0.1513237,0.0196 L 6.3968029,50.065679 20.331091,64 l 43.668608,0 0,-43.204868 -6.63779,-6.637767 -0.0294,0.02917 c -0.184789,-0.182119 -0.491534,-0.253854 -0.646243,0.01003 -1.123659,0.618046 -2.247313,1.236093 -3.370972,1.854185 -0.220899,0.263972 -0.29659,0.625293 -0.46109,0.923082 l -1.474078,-1.474088 c -0.07362,-0.189091 -0.233368,-0.334477 -0.456641,-0.283068 -0.386429,0.08432 -0.979951,-0.103 -1.164308,0.373854 -0.107699,0.416285 0.02333,0.871582 -0.0098,1.296071 l -1.013872,1.013867 -1.126033,-1.125162 c -0.02721,-0.39131 -0.657105,-0.467922 -0.926637,-0.707648 -0.89962,-0.566136 -1.806748,-1.120423 -2.711381,-1.678811 -0.779169,0.01595 -1.558347,0.0319 -2.337511,0.04808 -0.424602,-0.546585 -0.8492,-1.093124 -1.273797,-1.639662 -0.222886,0.151218 -0.445608,0.302711 -0.668494,0.453975 l -1.047699,-1.047685 -0.02137,0.02142 C 38.461187,11.894005 38.025319,11.728339 37.698617,11.596535 37.373473,11.435973 37.054146,11.09981 36.692756,11.068682 Z m -26.261871,18.688557 0.6142,0.614172 c -0.184502,-0.06453 -0.371461,-0.124921 -0.549219,-0.199391 -0.07262,-0.137592 -0.08523,-0.277554 -0.06498,-0.414781 z"
       id="rect4503" />
    <path
       style="fill:#ffffff;fill-rule:evenodd;stroke:none;stroke-width:1px;stroke-linecap:butt;stroke-linejoin:miter;stroke-opacity:1"
       d="m 36.315343,11.156551 c -0.583979,0.268302 -1.165151,0.75573 -1.851496,0.575935 -0.451948,-0.120729 -1.143607,-0.314287 -1.312003,0.29829 -0.261676,0.335799 -0.292471,0.910549 -0.730873,1.070746 -0.61642,0.05214 -1.203183,-0.311963 -1.823499,-0.196748 -0.506406,0.0855 -0.965973,0.337166 -1.470451,0.437477 -0.649657,0.188135 -1.106084,0.730162 -1.655207,1.095539 -0.812713,0.620963 -1.625425,1.241926 -2.438133,1.86289 -1.3367,1.693349 -2.673396,3.386699 -4.010092,5.080049 -1.088051,0.359908 -2.176101,0.719816 -3.264152,1.079724 -0.562828,0.563402 -0.405155,1.433844 -0.238559,2.129232 0.150435,0.883614 0.300869,1.767228 0.451304,2.650841 0.581856,0.125515 1.163711,0.251029 1.745566,0.376543 0.764338,-0.466736 1.528673,-0.933473 2.293007,-1.400209 0.633956,1.540217 1.257458,3.085128 1.944073,4.602922 0.434382,0.296285 0.890208,-0.137136 1.166809,-0.448461 0.378394,-0.247428 0.983943,0.08504 1.255267,-0.360683 0.294311,-0.788635 0.01231,-1.757748 0.603517,-2.437184 0.414056,-0.37071 0.926026,-0.610025 1.344115,-0.97563 0.09472,-0.598085 -0.513501,-0.955167 -0.866108,-1.332531 -0.440941,-0.493261 -0.26209,-1.241926 -0.01244,-1.781173 0.295733,-0.477401 0.827957,-0.722277 1.222224,-1.107115 0.500239,-0.41396 1.000478,-0.827966 1.500717,-1.241972 0.0884,-0.413186 -0.05389,-0.956717 0.35072,-1.235501 0.786981,-0.197341 1.571965,-0.405984 2.371337,-0.548316 0.459723,0.128978 0.79605,0.487838 1.166978,0.766394 0.329578,0.458032 -0.227384,0.906538 -0.603954,1.097726 -0.852791,0.521929 -1.679905,1.083963 -2.513327,1.63588 -0.476768,0.551279 -0.115834,1.297528 -0.189598,1.939639 -0.06369,0.466235 0.139638,0.982648 0.594088,1.171512 0.501013,0.359681 1.156459,0.418792 1.735625,0.237448 1.266187,-0.220995 2.538535,-0.46341 3.819392,-0.552646 0.463396,0.113847 0.547796,0.82988 0.07781,0.990533 -0.286081,0.309866 -0.690694,0.689782 -1.149541,0.533413 -0.623693,-0.115715 -1.247387,-0.231477 -1.87108,-0.347192 -0.468806,0.262604 -0.937616,0.525209 -1.406421,0.787814 0.05211,0.494446 0.770154,0.459445 0.863437,0.931969 -0.138768,0.378685 0.03892,1.072979 -0.509468,1.153556 -0.469152,0.06814 -0.806104,-0.37121 -1.193712,-0.493626 -0.662752,0.04909 -1.146109,0.853033 -0.839069,1.454171 0.123518,0.467101 -0.196279,0.927138 -0.590163,1.150047 -0.276702,0.322718 -0.640142,0.789045 -1.12514,0.624883 -0.610194,-0.0984 -1.207167,-0.610436 -1.838649,-0.313969 -0.725002,0.260554 -1.381528,0.676839 -2.087767,0.981555 -0.361941,0.251804 -0.916838,0.295875 -1.149177,-0.152221 -0.209938,-0.348286 -0.610002,-0.797203 -1.048587,-0.510033 -0.29386,0.165529 -0.675539,0.494948 -1.008531,0.232343 -0.413007,-0.341952 -0.53205,-0.909865 -0.921295,-1.27383 -0.258594,-0.409129 0.02078,-1.000332 0.516596,-1.008398 0.527137,-0.224595 0.302255,-0.856588 0.122525,-1.235638 -0.313645,-0.517689 -0.74672,-0.04056 -1.121832,0.07538 -0.396646,0.06084 -0.868259,0.293095 -0.810666,0.769356 -0.04307,0.834302 0.536864,1.499792 0.836539,2.22804 0.189457,0.455707 -0.144751,1.14836 -0.705687,0.956898 -0.470547,-0.257637 -0.943459,-0.163205 -1.383543,0.100357 -0.466568,0.222316 -1.056855,0.03874 -1.453341,0.429274 -0.520712,0.527351 -0.523711,1.476092 -1.251881,1.819912 -0.569713,0.162294 -1.268123,0.395229 -1.443802,1.035243 -0.28361,0.636687 -1.035325,0.855767 -1.668689,0.957354 -0.359133,0.02415 -1.06014,-0.483326 -1.08971,0.152723 0.154851,0.446319 -0.07849,0.991627 -0.620252,0.842459 -0.476749,-0.07442 -0.945892,-0.443584 -1.4375804,-0.238586 -0.4204275,0.38265 -0.041018,1.088474 0.4452604,1.202549 0.603203,0.163342 1.205416,0.408492 1.632088,0.884434 0.290893,0.30066 0.631728,0.66982 0.528997,1.126166 -0.143872,0.661616 -0.365669,1.306187 -0.50852,1.969536 -0.0046,0.570147 -0.573187,0.695934 -1.027874,0.538244 -1.3216227,-0.02097 -2.6456624,-0.10136 -3.9682527,-0.146844 -0.341646,0.287899 -0.826166,0.462179 -0.9880586,0.915061 2.963e-4,0.94473 4.558e-4,1.88946 9.115e-4,2.83419 -0.2835876,0.328143 -0.2419956,0.964875 0.2047334,1.128718 0.4330928,0.280789 0.00629,0.933336 0.4183674,1.229302 0.4191514,0.09347 0.9408107,-0.165985 1.2755749,0.199392 0.163082,0.394545 0.6963266,0.872266 1.099358,0.494948 0.4380104,-0.328644 0.9993649,-0.504291 1.5439121,-0.393999 0.448306,0.03509 1.067583,0.06745 1.279585,-0.428544 0.294968,-0.463409 1.030316,-0.195199 1.293377,-0.67652 0.287676,-0.585004 0.04749,-1.265078 0.25138,-1.875058 0.150676,-0.691195 0.633802,-1.433024 1.405022,-1.481607 0.407598,-0.01823 0.942811,-0.182028 0.96147,-0.668726 0.07515,-0.45115 0.268411,-0.94391 0.729195,-1.119922 0.560941,-0.363508 1.330767,-0.471431 1.927028,-0.12875 0.542643,0.206502 1.130468,-0.100266 1.450881,-0.543349 0.314105,-0.34464 0.823978,-0.618001 1.281158,-0.386022 0.408409,0.118632 0.995118,0.126517 1.164389,0.597537 0.15569,0.475351 0.05094,1.157658 0.593613,1.406043 1.287881,0.703729 2.622371,1.382436 3.678797,2.422281 0.286181,0.479407 -0.413295,0.964784 -0.09881,1.438448 0.429784,0.326957 0.799322,-0.308226 0.839405,-0.684496 0.06323,-0.392129 -0.223711,-0.884525 0.142423,-1.191019 0.296636,-0.0082 1.092595,0.438754 0.892984,-0.198389 -0.296308,-0.401837 -0.896457,-0.354029 -1.210384,-0.740461 -0.311534,-0.28594 -0.558539,-0.731621 -1.023156,-0.772 -0.665477,-0.178974 -0.885997,-0.919664 -1.333456,-1.366803 -0.337845,-0.452107 -0.812461,-0.820993 -1.049457,-1.336587 -0.112489,-0.506615 0.317846,-1.047639 0.844419,-1.020476 0.707948,-0.09224 1.327321,0.474895 1.539961,1.112311 0.421654,0.791369 1.124593,1.420627 1.957063,1.752096 0.551584,0.314333 1.110473,0.635137 1.563765,1.086424 0.218342,0.584685 -0.190751,1.312978 0.282175,1.815901 0.720144,0.957947 1.211469,2.057315 1.782062,3.104817 0.40536,0.394864 0.811413,-0.240227 0.918082,-0.599178 0.253882,-0.396824 0.292685,-0.877507 0.129184,-1.314437 -0.0053,-0.472935 -0.426936,-0.721138 -0.676967,-1.062132 -0.31374,-0.552874 0.597925,-0.623379 0.715405,-0.12082 0.438735,0.510716 0.744932,-0.270991 0.8735,-0.618001 0.310869,-0.301663 0.788348,-0.08782 1.137673,0.03099 0.370026,0.164982 0.863871,0.198298 1.121494,-0.17665 0.279573,-0.237721 0.606762,-0.431871 0.970271,-0.503926 0.337708,-0.458533 -0.41294,-0.75304 -0.384833,-1.200453 0.03997,-0.691423 0.661634,-1.134597 0.967112,-1.711079 0.614601,-0.908634 1.233937,-1.814033 1.855821,-2.7177 0.43178,-0.218989 0.844415,0.17068 1.278241,0.178883 0.477456,0.297698 -0.144113,0.848475 0.101934,1.243203 0.260695,0.633542 1.058472,1.02713 1.705058,0.746295 0.361435,0.02051 1.057725,-0.336436 0.622376,-0.725968 -0.332946,-0.234987 -0.936166,0.09028 -1.109193,-0.416103 -0.200873,-0.429911 0.306407,-0.756914 0.663066,-0.857225 0.794655,-0.249753 1.646001,-0.279058 2.425635,-0.578579 0.442135,-0.124238 0.700369,0.48957 0.334696,0.745931 -0.28351,0.419475 -0.773914,0.767853 -0.774425,1.320088 0.139976,0.489251 0.676716,0.678616 1.008855,1.017697 0.761101,0.60255 1.501945,1.233723 2.214355,1.891283 0.360232,0.388848 0.0477,1.039618 -0.440977,1.123066 -0.554032,0.137364 -1.062032,0.495267 -1.64908,0.467648 -1.414776,-0.471613 -2.836406,-1.188603 -4.369709,-1.028999 -0.456605,0.0064 -1.096254,-0.09821 -1.343263,0.398328 -0.226573,0.43962 -0.75181,0.680941 -1.230661,0.560804 -0.528527,-0.03555 -1.123417,0.02279 -1.492937,0.446638 -0.396017,0.267618 -0.894292,0.139825 -1.338086,0.218716 -0.423795,0.301298 -0.143092,0.867252 -0.254579,1.288049 -0.129557,0.430732 0.0747,0.941448 0.482456,1.142025 0.268119,0.315837 0.431019,0.899201 0.93376,0.874134 0.418741,-0.09033 0.891753,-0.139187 1.243567,0.146707 0.561324,0.133308 1.050597,-0.509759 1.610084,-0.225506 0.410447,0.149988 0.869376,0.342999 1.296088,0.136315 1.283779,-0.315836 2.604847,0.02461 3.905297,-0.08149 1.634984,-0.02461 3.268306,-0.116081 4.903662,-0.122005 0.486406,-0.07506 0.531184,-0.737409 0.294639,-1.077947 -0.07647,-0.378229 -0.419981,-0.880834 -0.03026,-1.196351 0.542688,-0.08673 1.026989,0.262331 1.547732,0.356353 0.658691,0.192464 1.454244,0.388894 2.058235,-0.05105 0.432414,-0.421525 0.219331,-1.123841 -0.08393,-1.558128 -0.584102,-0.889903 -1.226782,-1.742252 -1.830231,-2.617388 -0.27259,-0.278283 -0.649712,-0.704412 -0.380627,-1.104837 0.325722,-0.526622 0.891171,-0.834756 1.268456,-1.319176 0.2658,-0.261739 0.733772,-0.490299 0.682737,-0.927503 -0.233592,-0.684769 -0.855736,-1.143165 -1.142053,-1.804326 -0.232512,-0.373717 -0.576031,-0.698578 -0.672054,-1.142071 0.479694,-0.632539 1.237265,-0.944092 1.852526,-1.416753 0.505166,-0.285165 0.958203,-0.836671 1.599616,-0.716808 1.730284,0.0602 3.429773,0.476854 5.164897,0.476489 0.802061,0.04056 1.605489,0.02689 2.408262,0.03281 0.463601,-0.287125 -0.005,-0.877963 -0.402343,-0.941768 -0.345561,-0.291317 -0.08993,-0.880059 0.299976,-0.996094 0.776225,-0.533778 0.935898,-1.640209 0.616871,-2.479934 C 62.18171,29.398243 61.41099,26.968396 60.610233,24.549123 59.536748,21.27226 58.474711,17.99166 57.406431,14.71311 c 0.323316,-0.407625 -0.445312,-0.984244 -0.720126,-0.516277 -1.123659,0.618047 -2.247313,1.236093 -3.370972,1.854185 -0.323643,0.386798 -0.321907,0.991946 -0.77086,1.281805 -0.562454,0.0068 -1.106304,-0.174006 -1.66724,-0.187816 -0.408714,-0.25873 -0.167152,-0.984608 0.29464,-1.010313 0.459709,-0.168264 0.253435,-1.033237 -0.248349,-0.917749 -0.386428,0.08431 -0.979892,-0.103365 -1.164248,0.373489 -0.154633,0.59772 0.190008,1.27784 -0.178979,1.827843 -0.848794,0.702771 -1.776971,1.306643 -2.630369,2.000117 -0.352265,0.386296 0.496644,0.908361 -9.11e-4,1.218045 -0.427168,0.16357 -0.77818,-0.272859 -1.197181,-0.298791 -0.448189,-0.14853 -1.126054,-0.123965 -1.308678,0.400834 -0.07493,0.578715 -0.756345,0.855357 -1.259656,0.636095 -0.45846,-0.156962 -0.720878,-0.618548 -0.762028,-1.081912 -0.10825,-0.489524 -0.197063,-1.032189 -0.587324,-1.386082 -0.210735,-0.531271 0.585264,-0.646212 0.922148,-0.438935 0.882105,0.244466 1.808687,0.242506 2.703403,0.422893 0.484158,0.125104 0.878056,-0.230839 1.114464,-0.611529 0.277216,-0.492806 0.719506,-0.861692 1.016543,-1.336997 0.163278,-0.542483 -0.603467,-0.603508 -0.907687,-0.874088 -0.899619,-0.566137 -1.807007,-1.120423 -2.71164,-1.678812 -0.779169,0.01595 -1.558343,0.0319 -2.337511,0.04808 -0.424603,-0.546584 -0.8492,-1.093123 -1.273798,-1.639662 -0.540017,0.366425 -1.080038,0.732896 -1.620055,1.099322 -0.336241,-0.362552 -0.460748,-1.030549 -0.04985,-1.385945 0.0089,-0.534416 -0.581518,-0.748756 -0.991618,-0.914195 -0.433521,-0.214112 -0.857444,-0.740917 -1.383283,-0.43971 z M 10.162962,26.872916 c -0.4691662,0.194515 -1.0438241,-0.159012 -1.460724,0.194014 -0.2698057,0.384017 -0.3496855,0.868255 -0.6035764,1.26043 -0.1609719,0.570648 0.274263,1.040211 0.5480474,1.488216 0.3103039,0.475077 0.5363893,1.015007 0.8727258,1.465063 0.3531893,0.275913 0.7265052,0.63295 0.7432222,1.112037 0.217189,0.422027 -0.251101,1.000651 -0.7094418,0.841183 -0.4555478,0.284208 0.3207899,0.834757 -0.1121426,1.128991 -0.4601782,0.3121 -0.00273,0.849296 0.3072814,1.015235 0.1071202,0.477174 -0.4007927,0.767443 -0.7786164,0.869486 -0.4021336,0.314515 0.2630058,0.744928 0.5309612,0.408901 1.5207142,-0.316429 3.0478832,-0.600454 4.5726592,-0.896375 0.385111,-0.325453 -0.27996,-0.900522 0.178026,-1.195485 0.292388,-0.381875 -0.158242,-0.940856 -0.591941,-0.881244 -0.450972,-0.220128 -1.094281,-0.389395 -1.180236,-0.971073 -0.176303,-0.632174 -0.368057,-1.259701 -0.568898,-1.884492 -0.394472,-0.359498 -0.936253,-0.455799 -1.414434,-0.656056 -0.234439,-0.444268 0.115174,-0.913147 0.402344,-1.234589 0.211091,-0.419658 -0.34161,-0.69393 -0.69609,-0.642703 -0.5901946,0.05446 -0.13844,-0.820674 0.272786,-0.780523 0.367301,-0.187542 0.0036,-0.6968 -0.311953,-0.641016 z m 12.571478,3.842726 c -0.509609,-0.03783 -0.487469,0.777287 -0.06053,0.89282 0.429529,0.147482 0.796164,-0.418837 0.496703,-0.754864 -0.101679,-0.128522 -0.278292,-0.192874 -0.436174,-0.137956 z M 7.3910597,31.395717 c -0.6862909,0.160971 -1.3643646,0.353892 -2.0437691,0.541206 -0.2330584,0.464686 0.2152612,0.878008 0.3533862,1.295159 0.07967,0.50666 -0.2674814,0.935843 -0.5634564,1.304957 -0.1852134,0.450557 0.5154611,0.877415 0.8376237,0.516277 C 6.5348368,34.64013 7.100695,34.235148 7.6723458,33.838279 8.0660799,33.31913 7.8999306,32.625292 8.0809192,32.03573 8.1101329,31.66853 7.7550194,31.338839 7.3910597,31.395717 Z M 20.678215,44.287644 c -0.266041,0.363691 -0.272084,0.833344 -0.307993,1.263985 0.521527,0.04512 0.692448,-0.610709 0.62043,-1.021889 0.03245,-0.202263 -0.109166,-0.577074 -0.312437,-0.242096 z m -0.129962,2.052665 c -0.527862,0.158557 -0.424224,0.813565 -0.445964,1.241745 0.0099,0.339581 0.173747,0.839223 0.599069,0.78868 0.470228,-0.136543 0.507408,-0.738775 0.43045,-1.142481 -0.06428,-0.328552 -0.123336,-0.925999 -0.583555,-0.887944 z m 2.915214,2.842212 c 0.657815,0.460538 1.315631,0.921031 1.973446,1.381524 0.197319,-0.493444 0.394632,-0.986887 0.591946,-1.480331 -0.855129,0.03281 -1.710258,0.0659 -2.565392,0.09881 z m 10.159197,1.905822 c -0.444624,0.389395 0.41071,0.712798 0.720431,0.494993 0.254424,0.03783 1.13369,0.115032 0.77787,-0.312008 -0.41,-0.1854 -0.88334,0 -1.297128,-0.176787 -0.06689,-0.01732 -0.133521,-0.01367 -0.201173,-0.0064 z m 6.888809,0.376497 c -0.540359,0.04685 -0.397234,0.981145 0.13653,0.88252 0.44909,0 0.646481,-0.797795 0.138526,-0.878919 -0.09165,0.02643 -0.182852,-0.02233 -0.275056,-0.0046 z"
       id="path4260"
       inkscape:connector-curvature="0" />
  </g>
</svg>
