<?xml version="1.0" encoding="UTF-8" standalone="no"?>
<!-- Created with Inkscape (http://www.inkscape.org/) -->

<svg
   xmlns:dc="http://purl.org/dc/elements/1.1/"
   xmlns:cc="http://creativecommons.org/ns#"
   xmlns:rdf="http://www.w3.org/1999/02/22-rdf-syntax-ns#"
   xmlns:svg="http://www.w3.org/2000/svg"
   xmlns="http://www.w3.org/2000/svg"
   xmlns:sodipodi="http://sodipodi.sourceforge.net/DTD/sodipodi-0.dtd"
   xmlns:inkscape="http://www.inkscape.org/namespaces/inkscape"
   width="64"
   height="64"
   id="svg5312"
   version="1.1"
   inkscape:version="0.91 r13725"
   viewBox="0 0 64 64"
   sodipodi:docname="initial.svg">
  <defs
     id="defs5314" />
  <sodipodi:namedview
     id="base"
     pagecolor="#ffffff"
     bordercolor="#666666"
     borderopacity="1.0"
     inkscape:pageopacity="0.0"
     inkscape:pageshadow="2"
     inkscape:zoom="5.5"
     inkscape:cx="45.966213"
     inkscape:cy="10.474957"
     inkscape:current-layer="layer1"
     showgrid="true"
     inkscape:document-units="px"
     inkscape:grid-bbox="true"
     inkscape:snap-grids="false"
     inkscape:snap-page="true"
     inkscape:snap-bbox="true"
     inkscape:bbox-nodes="true"
     inkscape:window-width="1474"
     inkscape:window-height="841"
     inkscape:window-x="-8"
     inkscape:window-y="-8"
     inkscape:window-maximized="1" />
  <metadata
     id="metadata5317">
    <rdf:RDF>
      <cc:Work
         rdf:about="">
        <dc:format>image/svg+xml</dc:format>
        <dc:type
           rdf:resource="http://purl.org/dc/dcmitype/StillImage" />
        <dc:title></dc:title>
      </cc:Work>
    </rdf:RDF>
  </metadata>
  <g
     id="layer1"
     inkscape:label="Layer 1"
     inkscape:groupmode="layer">
    <path
       style="opacity:0.33200001;fill:#000000;fill-opacity:1;stroke:none;stroke-width:1.5;stroke-linecap:round;stroke-linejoin:round;stroke-miterlimit:4;stroke-dasharray:none;stroke-opacity:1"
       d="M 49.863281 13.568359 L 49.822266 13.609375 L 49.154297 13.980469 L 49.496094 14.285156 L 49.597656 14.359375 L 51 15.761719 L 47.914062 16.617188 L 47.914062 17.099609 L 46.681641 17.957031 L 46.167969 17.859375 L 43.923828 15.617188 L 43.923828 15.607422 L 42.597656 15.949219 L 41.044922 16.404297 L 41.119141 16.972656 L 40.587891 17.275391 L 39.982422 17.919922 L 40.273438 18.125 L 40.238281 18.160156 L 41.478516 19.400391 L 41.214844 19.5625 L 41.089844 19.5625 L 40.746094 19.220703 L 40.738281 19.228516 C 40.687531 19.177746 40.601454 19.158086 40.558594 19.228516 L 40.019531 19.525391 L 39.912109 19.525391 L 34.648438 14.261719 L 33.925781 14.275391 C 33.838461 14.275391 33.787794 14.296661 33.703125 14.275391 L 32.798828 14.044922 C 32.741508 14.030182 32.733546 14.109321 32.753906 14.181641 C 32.763506 14.216051 32.779208 14.247928 32.798828 14.267578 L 33.279297 14.746094 C 33.234117 14.737994 33.186989 14.758559 33.152344 14.792969 L 32.998047 14.947266 L 32.341797 14.291016 C 32.314867 14.264006 32.273347 14.303008 32.234375 14.298828 C 32.184435 14.290728 32.137209 14.246706 32.119141 14.291016 L 31.986328 14.625 L 31.464844 14.945312 C 31.437004 14.973152 31.391122 15.02199 31.388672 15.058594 C 31.388672 15.102014 31.431034 15.134717 31.464844 15.167969 L 34.765625 18.470703 C 34.652838 18.531313 34.536794 18.583149 34.40625 18.548828 C 34.281091 18.515238 34.089617 18.463192 34.042969 18.632812 C 33.970069 18.725852 33.961214 18.883344 33.839844 18.927734 C 33.669178 18.942474 33.507789 18.841587 33.335938 18.873047 C 33.195717 18.896787 33.067498 18.966363 32.927734 18.994141 C 32.747894 19.046551 32.622791 19.197599 32.470703 19.298828 L 31.794922 19.814453 L 30.683594 21.220703 L 29.78125 21.519531 C 29.625511 21.67555 29.669062 21.916827 29.714844 22.109375 L 29.839844 22.84375 L 29.880859 22.851562 L 30.457031 23.429688 C 30.389841 23.464098 30.339294 23.520211 30.349609 23.605469 C 30.338199 23.836513 30.497097 24.021016 30.580078 24.222656 C 30.632478 24.348864 30.54 24.541275 30.384766 24.488281 C 30.25445 24.417031 30.123824 24.442745 30.001953 24.515625 C 29.872779 24.577045 29.709338 24.526638 29.599609 24.634766 C 29.591409 24.642866 29.590947 24.646594 29.585938 24.652344 L 27.804688 22.871094 C 27.821117 22.809674 27.745471 22.728274 27.677734 22.740234 C 27.626154 22.761494 27.57018 22.758826 27.513672 22.753906 L 25.115234 20.355469 L 24.646484 20.671875 C 24.573584 20.721015 24.493483 20.619465 24.423828 20.671875 L 24.111328 20.908203 L 23.560547 21.134766 C 23.519467 21.151146 23.431504 21.182196 23.431641 21.222656 C 23.431914 21.262776 23.529823 21.326712 23.560547 21.357422 L 26.34375 24.142578 C 26.27907 24.271329 26.405249 24.384519 26.443359 24.5 C 26.465259 24.640297 26.368593 24.759115 26.287109 24.861328 C 26.257439 24.932578 26.30913 25.001861 26.375 25.029297 L 28.21875 26.875 C 28.18041 27.028481 28.134976 27.179112 28.101562 27.333984 C 28.101562 27.491892 27.94225 27.526072 27.816406 27.482422 C 27.450383 27.474222 27.08305 27.454506 26.716797 27.441406 C 26.622177 27.520846 26.488228 27.569921 26.443359 27.695312 L 26.443359 28.025391 L 16.464844 18.046875 L 15.859375 17.441406 L 13.039062 14.621094 L 13.396484 14.453125 C 13.191997 14.435915 12.990902 14.406304 12.789062 14.371094 L 12.738281 14.318359 C 12.713631 14.328989 12.684403 14.335903 12.658203 14.345703 C 11.589068 14.145541 10.547841 13.77652 9.4492188 13.791016 C 9.3111517 13.86963 9.289184 14.073368 9.125 14.117188 C 8.9489028 13.843962 8.5736694 13.886991 8.3144531 13.998047 L 7.7207031 14.126953 C 7.9607485 14.355044 8.2463046 14.505962 8.546875 14.630859 L 8.8183594 14.902344 L 8.4160156 14.857422 L 8.8378906 15.404297 C 8.8296706 15.404297 8.8247504 15.414062 8.8183594 15.414062 L 8.5292969 15.125 C 8.4288782 14.862999 8.2684554 14.571901 7.9589844 14.552734 C 7.6553558 14.452078 7.3497971 14.319182 7.0234375 14.330078 C 6.7123688 14.496991 6.4246911 14.703217 6.1367188 14.90625 C 6.4823404 14.9775 6.839834 14.97026 7.1855469 15.041016 C 7.1290389 15.125046 6.9285066 15.269946 7.0957031 15.345703 C 7.1423521 15.358813 7.1883095 15.374558 7.2363281 15.392578 L 7.9882812 16.144531 C 8.0211453 16.279914 8.1184593 16.399319 8.2578125 16.414062 L 8.5664062 16.720703 C 8.195315 16.665003 7.8220999 16.625597 7.4472656 16.607422 C 7.4472656 16.465568 7.5181409 16.20603 7.3007812 16.197266 C 7.0432539 16.156326 6.7827907 16.134605 6.5234375 16.109375 L 6.5332031 16.119141 C 6.7568621 16.251985 7.1259254 16.257721 7.1875 16.566406 C 7.169242 16.735939 7.1552715 17.037221 7.3925781 17.044922 L 7.4960938 17.052734 L 8.09375 17.650391 C 8.01515 17.771523 7.9380304 17.89369 7.8574219 18.013672 L 7.3808594 17.537109 C 7.4146364 17.478959 7.4452242 17.418768 7.4726562 17.357422 C 7.3843793 17.349322 7.2831905 17.339024 7.1835938 17.339844 L 6.8222656 16.978516 C 6.9415809 16.978516 7.0681597 16.916104 7.0253906 16.787109 C 6.9795626 16.710119 6.9095141 16.619078 6.8085938 16.628906 C 6.7275278 16.628906 6.6456794 16.696137 6.6152344 16.771484 L 6.1699219 16.326172 C 6.1607919 16.211101 6.1616554 16.052788 6.0214844 16.056641 C 5.8033028 16.111511 5.5423214 16.089678 5.3496094 16.181641 C 5.3240484 16.380908 5.4838093 16.644865 5.7109375 16.566406 C 5.8437636 16.590146 5.8714718 16.823526 6.0078125 16.804688 L 6.4375 17.234375 L 6.5644531 17.361328 C 6.2325705 17.351528 5.9003791 17.341637 5.5683594 17.335938 L 5.5683594 17.375 C 5.5683594 17.40941 5.5785054 17.444687 5.5839844 17.480469 L 4.71875 16.615234 L 4.7382812 16.595703 C 4.6924082 16.595703 4.6454825 16.587041 4.5996094 16.582031 C 4.6347554 16.564821 4.6710268 16.548624 4.7050781 16.527344 C 4.7812591 16.286887 4.497928 16.14971 4.3085938 16.103516 C 4.1167948 16.004906 3.9380155 15.883728 3.7675781 15.751953 L 3.8496094 16.0625 C 3.8774524 16.165939 3.9055227 16.269608 3.9335938 16.373047 C 3.5372156 16.195678 3.1405193 16.019112 2.7441406 15.841797 L 2.6875 15.933594 L 2.4023438 15.646484 C 2.4333818 15.601444 2.4598664 15.551896 2.4746094 15.492188 C 2.4645694 15.314711 2.2533721 15.363175 2.1210938 15.367188 L 2.09375 15.337891 L 2.0664062 15.365234 C 2.0444973 15.365234 2.0208699 15.357422 1.9980469 15.357422 C 1.7151867 15.452832 1.5591185 15.738145 1.3496094 15.925781 C 1.3391114 16.076395 1.5092258 16.083758 1.6289062 16.042969 L 2.6816406 17.09375 C 2.1570918 17.219716 1.620819 17.059946 1.0917969 17.072266 C 0.94217361 17.203389 0.99454035 17.444043 1.0429688 17.605469 C 1.1679439 17.738313 1.3409281 17.82256 1.5 17.904297 L 2.3339844 18.738281 C 1.7079221 18.565183 1.0522114 18.49998 0.41601562 18.375 C 0.27261045 18.362767 0.13444817 18.388049 0 18.427734 L 0 28.253906 L 2.8125 31.066406 L 2.7617188 31.28125 L 3.21875 31.650391 L 3.3652344 32.021484 L 3.6933594 32.599609 L 3.8398438 32.785156 L 3.8476562 32.751953 L 9.9414062 38.845703 L 9.8984375 39.605469 L 11.191406 41.525391 L 11.326172 41.625 L 12.365234 42.664062 L 11.386719 48.767578 L 11.777344 48.494141 L 11.621094 49.199219 L 11.347656 49.082031 L 11.152344 49.785156 L 11.621094 49.943359 L 11.111328 50.255859 L 11.152344 51 L 11.425781 51.626953 L 11.851562 51.851562 L 12.099609 52.099609 L 11.425781 51.939453 L 12.392578 52.392578 L 13.835938 53.835938 L 13.902344 53.835938 C 13.902344 53.876058 13.918049 53.918015 13.949219 53.949219 L 24.001953 64 L 64 64 L 64 18.355469 L 63.943359 18.359375 L 62.244141 16.660156 L 62.273438 16.667969 L 62.146484 16.560547 L 61.908203 16.322266 L 61.888672 16.341797 L 61.78125 16.251953 L 61.667969 16.478516 L 61.738281 16.501953 L 63.617188 18.380859 L 63.283203 18.404297 L 61.171875 16.292969 L 61.160156 16.285156 L 61.082031 16.207031 L 61.058594 16.228516 L 60.830078 16.103516 L 59.65625 16.177734 L 59.826172 16.472656 L 59.800781 16.498047 L 59.904297 16.603516 L 59.921875 16.632812 L 59.929688 16.632812 L 60.365234 17.068359 L 60.273438 17.160156 L 60.035156 17.318359 L 60.248047 17.328125 L 60.898438 17.978516 L 59.708984 17.691406 L 59.816406 18.013672 L 58.369141 18.441406 L 57.941406 17.369141 L 56.226562 17.316406 L 55.957031 17.53125 L 55.322266 17.378906 L 54.566406 16.623047 L 54.240234 16.294922 L 54.349609 16.244141 L 54.128906 16.185547 L 54.107422 16.164062 L 54.089844 16.173828 L 53.03125 15.886719 L 52.074219 14.929688 L 52.152344 14.894531 L 51.46875 14.589844 L 51.443359 14.630859 L 51.154297 14.341797 L 51.242188 14.287109 L 49.957031 13.662109 L 49.867188 13.572266 L 49.863281 13.568359 z M 4.4648438 14.744141 L 4.8554688 15.132812 C 5.1394246 15.227483 5.4231669 15.323291 5.7070312 15.417969 C 5.8124704 15.225913 5.5619201 15.068051 5.3925781 15.078125 C 5.0835635 14.966497 4.7737671 14.855769 4.4648438 14.744141 z M 6.3574219 15.287109 C 6.3254699 15.286944 6.2974114 15.287174 6.2714844 15.302734 C 6.2354244 15.482916 6.4995732 15.526565 6.6054688 15.431641 C 6.6886788 15.439741 6.8066583 15.338854 6.6542969 15.339844 C 6.5638749 15.329214 6.4519064 15.287109 6.3574219 15.287109 z M 3.4433594 15.373047 C 3.4310354 15.373047 3.4182451 15.372759 3.4082031 15.380859 C 3.2924024 15.402949 3.1007503 15.344158 3.0625 15.5 C 3.2102062 15.610236 3.4370826 15.515187 3.5410156 15.404297 C 3.5254966 15.386267 3.5024786 15.37746 3.4785156 15.375 C 3.4661916 15.375 3.4547724 15.375165 3.4433594 15.375 L 3.4433594 15.373047 z M 6.3085938 15.480469 C 6.3085938 15.480469 6.3010536 15.481041 6.2910156 15.494141 C 6.2827956 15.522801 6.3127017 15.483769 6.3085938 15.480469 z M 43.367188 16.162109 L 43.369141 16.166016 L 43.355469 16.179688 L 43.347656 16.171875 L 43.367188 16.162109 z M 60.570312 16.642578 L 60.632812 16.654297 L 60.607422 16.679688 L 60.570312 16.642578 z M 2.6855469 17.103516 L 3.0097656 17.427734 C 2.9540786 17.397424 2.8977574 17.368281 2.8417969 17.337891 L 2.5664062 17.613281 L 2.3359375 17.382812 L 2.6855469 17.103516 z M 6.5722656 17.369141 L 6.8144531 17.611328 C 6.8359061 17.743109 6.8796683 17.881277 6.8632812 18.007812 L 6.4121094 17.558594 C 6.4792994 17.506994 6.5423682 17.452273 6.5722656 17.369141 z M 7.1035156 17.900391 L 7.1269531 17.923828 C 7.0899801 17.954138 7.0545433 17.982681 7.0097656 17.994141 C 7.0430856 17.964651 7.0725236 17.932251 7.1035156 17.900391 z M 8.3535156 18.509766 C 8.4714616 18.629835 8.601691 18.724144 8.7890625 18.720703 C 8.962558 18.733803 8.9764707 18.93722 8.9023438 19.058594 L 8.3535156 18.509766 z M 4.2851562 18.816406 L 4.2285156 19.277344 L 3.8925781 18.939453 C 4.0234871 18.898513 4.1542928 18.857522 4.2851562 18.816406 z M 4.4042969 18.826172 L 4.4472656 18.867188 C 4.4390456 18.867188 4.4403631 18.867104 4.4394531 18.867188 C 4.4207381 18.867188 4.3730299 18.828642 4.4042969 18.826172 z M 7.5546875 22.576172 L 7.7460938 22.767578 C 7.7319448 22.767578 7.7183151 22.758389 7.7050781 22.755859 L 7.5625 22.613281 C 7.5625 22.605181 7.5629075 22.605349 7.5546875 22.599609 L 7.5546875 22.576172 z "
       id="path6112-9" />
    <path
       style="opacity:1;fill:#ffffff;fill-opacity:1;fill-rule:evenodd;stroke:none;stroke-width:1.5;stroke-linecap:butt;stroke-linejoin:miter;stroke-miterlimit:4;stroke-dasharray:none;stroke-opacity:1"
       d="M 9.6894531 13.548828 C 9.5438008 13.63171 9.5207866 13.846391 9.3476562 13.892578 C 9.1618822 13.604456 8.7654623 13.648428 8.4921875 13.765625 L 7.8671875 13.900391 C 8.3733417 14.381558 9.073639 14.541357 9.703125 14.794922 L 8.5996094 14.671875 L 9.0449219 15.25 C 8.8396578 15.33649 8.6349518 15.421407 8.4296875 15.507812 C 8.6610606 15.704702 8.8916739 15.90272 9.1230469 16.099609 C 8.8336139 15.955381 8.5432935 15.810244 8.2539062 15.666016 C 8.0000303 15.864707 8.1786396 16.364686 8.5136719 16.310547 C 9.1722337 16.441341 9.8378827 16.676702 10.517578 16.570312 C 10.474208 16.407006 10.164336 16.445804 10.210938 16.240234 C 10.448884 16.047682 10.74589 15.910472 10.945312 15.681641 C 10.928883 15.555763 10.703378 15.439784 10.791016 15.324219 C 11.475138 15.506205 12.164753 15.233399 12.785156 14.964844 C 12.892284 14.925544 13.004229 14.893 13.105469 14.839844 C 12.98629 14.810354 12.854738 14.821802 12.744141 14.763672 C 13.114045 14.590945 13.483656 14.418822 13.853516 14.246094 C 12.446563 14.126105 11.11302 13.52999 9.6894531 13.548828 z M 49.855469 13.611328 L 49.171875 13.990234 L 49.513672 14.294922 L 50.236328 14.828125 L 50.958984 14.484375 L 51.263672 14.294922 L 49.855469 13.611328 z M 33.275391 13.916016 L 32.662109 14.105469 L 33.181641 14.435547 L 34.21875 14.388672 L 34.644531 14.246094 L 33.699219 13.962891 L 33.416016 14.246094 L 33.275391 13.916016 z M 7.1328125 14.115234 C 6.8047184 14.29124 6.5009397 14.508488 6.1972656 14.722656 C 6.5616929 14.798006 6.9381701 14.790457 7.3027344 14.865234 C 7.2437614 14.953854 7.0307054 15.105696 7.2070312 15.185547 C 7.5465365 15.277527 7.9175745 15.553077 8.2675781 15.345703 C 8.4171554 15.228501 8.6383915 15.153365 8.7421875 15.005859 C 8.6382554 14.717243 8.4666338 14.371149 8.1191406 14.349609 C 7.818981 14.2501 7.5173261 14.12146 7.1972656 14.115234 C 7.1758126 14.114828 7.1550415 14.114499 7.1328125 14.115234 z M 31.90625 14.248047 L 31.90625 14.625 L 31.623047 14.435547 L 31.103516 14.484375 L 31.386719 15.097656 L 32.472656 15.191406 L 31.716797 15.568359 L 32.425781 15.804688 L 32.566406 15.427734 L 32.802734 14.861328 L 33.416016 14.8125 L 32.283203 14.248047 L 31.90625 14.248047 z M 4.4335938 14.550781 L 4.8457031 14.962891 C 5.1450411 15.062731 5.4447113 15.161968 5.7441406 15.261719 C 5.8551942 15.059179 5.5906716 14.893648 5.4121094 14.904297 C 5.0862519 14.786525 4.7594056 14.668552 4.4335938 14.550781 z M 51.492188 14.599609 L 50.958984 15.474609 L 52.175781 14.904297 L 51.492188 14.599609 z M 33.605469 15.050781 L 33.228516 15.144531 L 33.416016 15.568359 L 33.888672 15.380859 L 33.605469 15.050781 z M 6.4296875 15.126953 C 6.3959105 15.126789 6.3650036 15.134298 6.3378906 15.142578 C 6.3004626 15.33267 6.5797136 15.377425 6.6914062 15.277344 C 6.7791353 15.285444 6.9046719 15.180591 6.7441406 15.181641 C 6.6487886 15.170181 6.5293756 15.127763 6.4296875 15.126953 z M 1.8339844 15.201172 C 1.5356962 15.301828 1.3694949 15.602989 1.1484375 15.800781 C 1.1352005 15.993981 1.4069355 15.966701 1.5175781 15.892578 C 1.8251779 15.791839 2.245561 15.706416 2.3359375 15.341797 C 2.3254395 15.140321 2.0616559 15.216018 1.9277344 15.210938 C 1.9039994 15.210938 1.8811569 15.202872 1.8574219 15.201172 C 1.8492019 15.200761 1.8412874 15.200387 1.8339844 15.201172 z M 3.3554688 15.214844 C 3.3431447 15.214844 3.3308115 15.214556 3.3203125 15.222656 C 3.1981216 15.246396 2.9973355 15.185163 2.9570312 15.349609 C 3.1127255 15.465825 3.3494828 15.364674 3.4589844 15.248047 C 3.4434654 15.229197 3.4198642 15.22122 3.3945312 15.21875 C 3.3822072 15.21875 3.3677918 15.217044 3.3554688 15.216797 L 3.3554688 15.214844 z M 6.3789062 15.330078 C 6.3789062 15.330078 6.3709101 15.32982 6.3613281 15.34375 C 6.3531081 15.37406 6.3839262 15.333378 6.3789062 15.330078 z M 51.802734 15.558594 L 51.800781 15.560547 L 47.925781 16.636719 L 47.925781 17.121094 L 46.689453 17.982422 L 45.560547 17.767578 L 45.236328 19.111328 L 45.236328 19.972656 L 44.751953 20.509766 L 45.021484 18.412109 L 44.751953 17.712891 L 43.945312 17.552734 L 43.623047 18.626953 L 44.052734 19.21875 L 43.837891 19.488281 L 42.601562 18.734375 L 41.203125 19.595703 L 40.945312 19.587891 C 40.915633 19.498131 40.888915 19.40812 40.859375 19.318359 C 40.949705 19.204599 40.734887 19.043198 40.658203 19.173828 C 40.42683 19.301099 40.194173 19.429369 39.962891 19.556641 L 39.535156 19.542969 L 39.625 19.875 C 39.59716 19.94298 39.566315 20.006976 39.501953 20.048828 C 39.344935 20.048828 39.191763 20.002137 39.035156 19.998047 C 38.921089 19.925967 38.990141 19.72197 39.119141 19.714844 C 39.247448 19.668164 39.188918 19.426713 39.048828 19.458984 C 38.940969 19.482724 38.774052 19.429584 38.722656 19.5625 C 38.679286 19.729414 38.777028 19.920658 38.673828 20.074219 C 38.436885 20.270373 38.177718 20.439198 37.939453 20.632812 C 37.841093 20.740675 38.07835 20.886172 37.939453 20.972656 C 37.820184 21.018526 37.72241 20.895952 37.605469 20.888672 C 37.48031 20.846902 37.291173 20.85371 37.240234 21 C 37.218784 21.161586 37.029167 21.238916 36.888672 21.177734 C 36.760685 21.134324 36.687236 21.006273 36.675781 20.876953 C 36.645651 20.740343 36.620806 20.587134 36.511719 20.488281 C 36.452749 20.340041 36.675503 20.309365 36.769531 20.367188 C 37.01583 20.435167 37.273625 20.434254 37.523438 20.484375 C 37.658591 20.519615 37.767935 20.420515 37.833984 20.314453 C 37.910944 20.176857 38.03616 20.074086 38.119141 19.941406 C 38.165011 19.78997 37.950179 19.772776 37.865234 19.697266 C 37.614142 19.539199 37.360019 19.384374 37.107422 19.228516 C 36.889969 19.236716 36.67253 19.236134 36.455078 19.240234 C 36.336493 19.087653 36.218148 18.935784 36.099609 18.783203 L 35.646484 19.089844 C 35.552634 18.988613 35.517921 18.802389 35.632812 18.703125 C 35.632812 18.553986 35.471945 18.495411 35.357422 18.449219 C 35.236372 18.389429 35.117541 18.24214 34.970703 18.326172 C 34.807752 18.400692 34.644788 18.536451 34.453125 18.486328 C 34.327009 18.452738 34.134906 18.399313 34.087891 18.570312 C 34.014991 18.664102 34.004955 18.824423 33.882812 18.869141 C 33.710777 18.883881 33.548221 18.782183 33.375 18.814453 C 33.233638 18.838193 33.105613 18.907538 32.964844 18.935547 C 32.783498 18.987957 32.655273 19.14014 32.501953 19.242188 C 32.275053 19.415492 32.049121 19.588415 31.822266 19.761719 L 30.701172 21.179688 L 29.791016 21.480469 C 29.633952 21.637715 29.677913 21.881986 29.724609 22.076172 L 29.849609 22.816406 L 30.337891 22.919922 C 30.551281 22.789702 30.765173 22.659599 30.978516 22.529297 C 31.155481 22.959274 31.327869 23.390697 31.519531 23.814453 C 31.640808 23.897173 31.768473 23.776291 31.845703 23.689453 C 31.951325 23.620663 32.121495 23.714158 32.197266 23.589844 C 32.279386 23.369613 32.19676 23.097883 32.365234 22.908203 C 32.480762 22.80468 32.623519 22.738848 32.740234 22.636719 C 32.766254 22.469804 32.596412 22.368992 32.498047 22.263672 C 32.374989 22.125993 32.425197 21.91811 32.498047 21.767578 C 32.580617 21.634327 32.729749 21.564483 32.839844 21.457031 C 32.979471 21.341468 33.118094 21.226887 33.257812 21.111328 C 33.282463 20.99601 33.242989 20.843433 33.355469 20.765625 C 33.575249 20.710755 33.794376 20.653001 34.017578 20.613281 C 34.145932 20.649291 34.240228 20.750401 34.34375 20.828125 C 34.43573 20.956054 34.281267 21.079413 34.175781 21.132812 C 33.937699 21.278516 33.707214 21.435789 33.474609 21.589844 C 33.341463 21.743735 33.440282 21.951576 33.419922 22.130859 C 33.402122 22.260997 33.459278 22.406242 33.585938 22.458984 C 33.725746 22.559392 33.908639 22.576007 34.070312 22.525391 C 34.423831 22.463971 34.779138 22.395994 35.136719 22.371094 C 35.26603 22.403054 35.289616 22.601602 35.158203 22.646484 C 35.077913 22.732974 34.965971 22.840525 34.837891 22.796875 C 34.663757 22.764915 34.490449 22.731489 34.316406 22.699219 L 33.923828 22.919922 C 33.938438 23.057924 34.137998 23.047747 34.164062 23.179688 C 34.125712 23.285424 34.17425 23.479427 34.021484 23.501953 C 33.89053 23.520803 33.795769 23.397436 33.6875 23.363281 C 33.502503 23.377211 33.369404 23.601718 33.455078 23.769531 C 33.489308 23.89992 33.398884 24.027602 33.289062 24.089844 C 33.212113 24.179944 33.109992 24.311488 32.974609 24.265625 C 32.804264 24.237785 32.639125 24.095022 32.462891 24.177734 C 32.260502 24.250624 32.076045 24.366158 31.878906 24.451172 C 31.777848 24.521602 31.623455 24.533343 31.558594 24.408203 C 31.499624 24.310903 31.38809 24.185445 31.265625 24.265625 C 31.183645 24.311485 31.077353 24.405496 30.984375 24.332031 C 30.869077 24.236621 30.835197 24.078202 30.726562 23.976562 C 30.654483 23.862395 30.735057 23.695568 30.871094 23.693359 C 31.018253 23.630299 30.95638 23.455423 30.90625 23.349609 C 30.81862 23.205135 30.696506 23.338354 30.591797 23.371094 C 30.481064 23.388304 30.349167 23.453094 30.365234 23.585938 C 30.352914 23.81878 30.515988 24.003675 30.599609 24.207031 C 30.652869 24.334225 30.559039 24.52809 30.402344 24.474609 C 30.270978 24.402529 30.1385 24.428253 30.015625 24.501953 C 29.8854 24.564193 29.722062 24.511984 29.611328 24.621094 C 29.46604 24.76827 29.464976 25.034872 29.261719 25.130859 C 29.102648 25.175899 28.906491 25.239343 28.857422 25.417969 C 28.778012 25.595778 28.569405 25.657206 28.392578 25.685547 C 28.292341 25.693647 28.096153 25.551032 28.087891 25.728516 C 28.131261 25.853085 28.065281 26.006454 27.914062 25.964844 C 27.780962 25.944394 27.650924 25.840865 27.513672 25.898438 C 27.396273 26.005233 27.502972 26.200644 27.638672 26.232422 C 27.807101 26.278282 27.974663 26.347543 28.09375 26.480469 C 28.17486 26.564329 28.268991 26.667488 28.240234 26.794922 C 28.200064 26.979611 28.139502 27.158574 28.099609 27.34375 C 28.099609 27.502885 27.939483 27.538202 27.8125 27.494141 C 27.443554 27.485941 27.074344 27.466225 26.705078 27.453125 C 26.609738 27.533385 26.472967 27.582531 26.427734 27.708984 C 26.427825 27.972701 26.429506 28.236197 26.429688 28.5 C 26.350227 28.59156 26.361818 28.770626 26.486328 28.816406 C 26.607195 28.895036 26.486757 29.07565 26.603516 29.158203 C 26.720549 29.184403 26.86555 29.113284 26.958984 29.214844 C 27.004854 29.324998 27.153202 29.456971 27.265625 29.351562 C 27.387907 29.259833 27.545223 29.211395 27.697266 29.242188 C 27.822377 29.251987 27.995532 29.261473 28.054688 29.123047 C 28.137068 28.993644 28.342528 29.067666 28.416016 28.933594 C 28.496256 28.770282 28.429148 28.580429 28.486328 28.410156 C 28.527868 28.217198 28.661737 28.009687 28.876953 27.996094 C 28.99079 27.987894 29.141235 27.946433 29.146484 27.810547 C 29.167934 27.684587 29.220518 27.547188 29.349609 27.498047 C 29.506171 27.396569 29.722252 27.365424 29.888672 27.460938 C 30.040167 27.518258 30.203503 27.434472 30.292969 27.310547 C 30.380659 27.214317 30.522813 27.136387 30.650391 27.201172 C 30.76441 27.233942 30.927366 27.237632 30.974609 27.369141 C 31.017979 27.501821 30.988994 27.692433 31.140625 27.761719 C 31.500169 27.9582 31.873105 28.147241 32.167969 28.4375 C 32.248209 28.571326 32.053121 28.707656 32.140625 28.839844 C 32.260579 28.931074 32.363771 28.753521 32.375 28.648438 C 32.3928 28.538936 32.311632 28.401995 32.414062 28.316406 C 32.496862 28.316406 32.719841 28.437991 32.664062 28.259766 C 32.581443 28.147563 32.413809 28.16059 32.326172 28.052734 C 32.239262 27.972474 32.170647 27.849196 32.041016 27.837891 C 31.855196 27.787921 31.792852 27.581847 31.667969 27.457031 C 31.573619 27.330819 31.441139 27.226013 31.375 27.082031 C 31.34396 26.940587 31.464353 26.791291 31.611328 26.798828 C 31.808969 26.773438 31.981633 26.931489 32.041016 27.109375 C 32.158688 27.330346 32.355514 27.505106 32.587891 27.597656 C 32.741851 27.685366 32.89691 27.77443 33.023438 27.900391 C 33.084058 28.063621 32.971686 28.267827 33.103516 28.408203 C 33.304581 28.675691 33.440309 28.982922 33.599609 29.275391 C 33.712717 29.385627 33.825663 29.207504 33.855469 29.107422 C 33.925899 28.996692 33.938448 28.862184 33.892578 28.740234 C 33.892578 28.608212 33.772916 28.538528 33.703125 28.443359 C 33.615495 28.288974 33.869617 28.269625 33.902344 28.410156 C 34.0249 28.552745 34.110516 28.335424 34.146484 28.238281 C 34.233204 28.154091 34.367392 28.213434 34.464844 28.246094 C 34.568228 28.291954 34.705408 28.302106 34.777344 28.197266 C 34.855124 28.130926 34.94736 28.076789 35.048828 28.056641 C 35.143138 27.928713 34.933555 27.8456 34.941406 27.720703 C 34.952816 27.527662 35.125673 27.405077 35.210938 27.244141 C 35.382517 26.990499 35.554883 26.736632 35.728516 26.484375 C 35.849063 26.422955 35.964796 26.532696 36.085938 26.535156 C 36.219175 26.618286 36.046314 26.770619 36.115234 26.880859 C 36.188134 27.057684 36.411318 27.168303 36.591797 27.089844 C 36.692717 27.097944 36.885224 26.995401 36.763672 26.886719 C 36.670692 26.821189 36.503371 26.913003 36.455078 26.771484 C 36.399388 26.651502 36.541117 26.559258 36.640625 26.53125 C 36.862505 26.46164 37.098818 26.454793 37.316406 26.371094 C 37.43983 26.336684 37.512218 26.506546 37.410156 26.578125 C 37.330686 26.695246 37.195449 26.793047 37.195312 26.947266 C 37.234563 27.083795 37.383812 27.135869 37.476562 27.230469 C 37.689084 27.398692 37.894921 27.576224 38.09375 27.759766 C 38.19435 27.868281 38.106955 28.048923 37.970703 28.072266 C 37.816013 28.110746 37.675537 28.210826 37.511719 28.203125 C 37.116709 28.071513 36.719028 27.871463 36.291016 27.916016 C 36.163577 27.916016 35.984986 27.888363 35.916016 28.027344 C 35.852986 28.15011 35.705959 28.217092 35.572266 28.183594 C 35.424788 28.173794 35.259453 28.191962 35.15625 28.308594 C 35.04579 28.383124 34.905084 28.347011 34.78125 28.369141 C 34.662894 28.453261 34.742018 28.613026 34.710938 28.730469 C 34.674878 28.850702 34.731581 28.992807 34.845703 29.048828 C 34.920233 29.136948 34.965111 29.299934 35.105469 29.292969 C 35.222365 29.267579 35.354898 29.254574 35.453125 29.333984 C 35.609868 29.370814 35.746148 29.190247 35.902344 29.269531 C 36.016912 29.311301 36.144493 29.365864 36.263672 29.308594 C 36.622074 29.220384 36.992411 29.316166 37.355469 29.285156 C 37.445159 29.285156 37.533401 29.285444 37.623047 29.277344 L 36.740234 29.384766 L 36.310547 30.675781 L 36.318359 30.808594 C 36.114098 30.68083 35.950994 30.62476 36.005859 30.765625 L 35.339844 30.640625 L 35.074219 30.945312 L 34.273438 30.640625 L 33.205078 30.488281 L 33.015625 31.097656 L 31.833984 30.640625 L 31.566406 30.410156 L 30.802734 30.181641 L 30.878906 29.304688 L 29.621094 29.419922 L 28.707031 29.380859 L 27.943359 29.876953 L 27.333984 29.724609 L 27.181641 29.572266 L 26.685547 30.181641 L 26.304688 30.410156 L 26.304688 31.210938 L 25.65625 31.554688 L 24.742188 32.8125 L 24.626953 33.269531 L 24.818359 33.841797 L 24.587891 34.757812 L 25.007812 35.443359 L 25.580078 36.396484 L 26.685547 37.044922 L 27.601562 36.892578 L 27.982422 37.044922 L 29.125 36.587891 L 29.583984 36.664062 L 29.736328 37.044922 L 30.460938 37.044922 L 30.613281 37.349609 L 30.498047 38.302734 L 31.679688 40.857422 L 31.183594 41.429688 L 31.222656 42.115234 L 32.556641 45.431641 L 32.671875 46.042969 L 32.939453 46.423828 L 33.777344 46.080078 L 34.310547 46.042969 L 34.998047 45.851562 L 35.53125 44.974609 L 35.912109 44.632812 L 35.875 43.945312 L 36.521484 43.679688 L 36.332031 42.6875 L 37.550781 41.773438 L 37.285156 39.523438 L 38.503906 37.921875 L 39.419922 37.044922 L 40.181641 35.253906 L 38.427734 35.939453 L 35.759766 31.210938 L 36.140625 31.554688 L 36.332031 31.25 L 36.298828 31.167969 C 36.312978 31.184349 36.3281 31.204343 36.34375 31.220703 L 36.363281 31.537109 L 38.03125 34.119141 L 38.248047 35.033203 L 40.076172 34.386719 L 41.3125 33.6875 L 41.958984 32.720703 L 41.205078 32.074219 L 40.183594 32.611328 L 39.322266 31.320312 L 39.376953 30.998047 L 39.861328 31.105469 L 40.830078 31.966797 L 41.259766 31.644531 L 42.013672 32.181641 L 43.626953 32.074219 L 44.380859 33.042969 L 44.865234 33.042969 L 45.832031 35.947266 L 46.53125 35.677734 L 46.638672 34.494141 L 48.361328 32.828125 L 49.275391 32.720703 L 49.759766 33.902344 L 49.759766 34.441406 L 50.351562 34.171875 L 50.78125 34.978516 L 50.728516 36.054688 L 51.265625 37.130859 L 52.072266 37.9375 L 51.695312 36.753906 L 51.050781 35.732422 L 51.210938 34.710938 L 52.126953 35.839844 L 52.234375 36.216797 L 53.09375 35.140625 L 53.041016 34.494141 L 52.234375 33.634766 L 52.878906 33.095703 L 53.148438 33.095703 L 53.201172 33.472656 L 53.632812 32.988281 L 54.816406 32.558594 L 55.892578 31.105469 L 55.568359 29.544922 L 56.052734 29.222656 L 55.515625 29.007812 L 55.193359 28.738281 L 56.107422 28.039062 L 56.052734 28.792969 L 56.591797 28.308594 L 56.644531 28.685547 L 57.076172 28.845703 L 57.128906 29.814453 L 57.828125 29.4375 L 57.236328 28.523438 L 57.935547 28.039062 L 57.935547 27.771484 L 58.474609 27.339844 L 58.958984 27.716797 L 60.410156 25.564453 L 60.357422 24.273438 L 59.658203 24.597656 L 59.119141 24.113281 L 60.572266 22.767578 L 62.832031 22.552734 L 63.316406 22.929688 L 64 21.951172 L 64 18.386719 L 62.884766 18.464844 L 59.765625 17.710938 L 59.873047 18.033203 L 58.419922 18.464844 L 57.990234 17.388672 L 56.267578 17.333984 L 56 17.548828 L 53.09375 16.849609 L 54.384766 16.257812 L 51.802734 15.558594 z M 3.6992188 15.615234 L 3.7851562 15.943359 C 3.8148243 16.052368 3.8436519 16.160522 3.8730469 16.269531 C 3.4549417 16.082559 3.0371547 15.895962 2.6191406 15.708984 L 2.1347656 16.496094 C 2.5154425 16.522284 2.8947138 16.446953 3.2753906 16.470703 C 3.2836106 16.564073 3.1057749 16.732982 3.2753906 16.759766 C 3.7482698 16.662466 4.2637249 16.693218 4.6894531 16.433594 C 4.7705186 16.180034 4.4712257 16.035058 4.2714844 15.986328 C 4.0693697 15.882394 3.8807838 15.754136 3.7011719 15.615234 L 3.6992188 15.615234 z M 43.921875 15.626953 L 42.591797 15.96875 L 41.03125 16.425781 L 41.107422 16.996094 L 40.574219 17.300781 L 39.966797 17.947266 L 40.726562 18.480469 L 41.525391 18.441406 L 40.994141 17.871094 L 41.753906 16.730469 L 43.884766 16.007812 L 43.921875 15.626953 z M 6.0761719 15.935547 C 5.8461224 15.993697 5.5704891 15.971234 5.3671875 16.068359 C 5.3411705 16.278433 5.5085035 16.557325 5.7480469 16.474609 C 5.9048821 16.502449 5.9213718 16.808914 6.1171875 16.707031 C 6.2969821 16.650531 6.3243672 16.42604 6.2382812 16.283203 C 6.2163723 16.169443 6.2508997 15.930718 6.0761719 15.935547 z M 6.6054688 15.992188 L 6.6171875 16.001953 C 6.8530793 16.142165 7.2416882 16.148888 7.3066406 16.474609 C 7.2879256 16.653316 7.2715335 16.97041 7.5214844 16.978516 L 10.025391 17.177734 C 10.125215 16.946236 9.8373007 16.764267 9.6328125 16.798828 C 8.9574536 16.648703 8.2692771 16.549287 7.578125 16.515625 C 7.578125 16.366074 7.6527362 16.093237 7.4238281 16.083984 C 7.1523334 16.040564 6.8789262 16.018967 6.6054688 15.992188 z M 60.886719 16.121094 L 59.708984 16.197266 L 59.974609 16.654297 L 60.164062 16.578125 L 61.001953 16.728516 L 61.230469 16.310547 L 60.886719 16.121094 z M 61.837891 16.273438 L 61.724609 16.501953 L 62.332031 16.691406 L 61.837891 16.273438 z M 6.90625 16.539062 C 6.7462197 16.539062 6.5797743 16.793558 6.78125 16.867188 C 6.9048103 16.962187 7.1988051 16.90082 7.1347656 16.707031 C 7.0864276 16.625131 7.0126478 16.52866 6.90625 16.539062 z M 0.87695312 17.009766 C 0.71920498 17.148015 0.77491316 17.401911 0.82617188 17.572266 C 0.97260008 17.727795 1.1813872 17.822476 1.3632812 17.917969 C 1.6498388 17.895059 1.7840864 17.592009 2.0214844 17.46875 C 2.2036525 17.322883 2.3861913 17.177118 2.5683594 17.03125 C 2.0453166 17.162045 1.5108506 17.017116 0.98242188 17.009766 C 0.94727507 17.00931 0.91205411 17.008986 0.87695312 17.009766 z M 60.544922 17.033203 L 60.087891 17.337891 L 60.925781 17.376953 L 60.544922 17.033203 z M 8.546875 17.234375 L 8.5546875 17.238281 C 8.5464675 17.238199 8.5415473 17.238738 8.5351562 17.238281 C 8.3215847 17.490455 8.1638884 17.781804 7.9765625 18.052734 C 8.394029 18.16428 8.5253143 18.752904 8.9960938 18.744141 C 9.1939635 18.759701 9.1943966 19.009809 9.09375 19.130859 C 9.074123 19.249371 8.9524899 19.486224 8.8222656 19.335938 C 8.3113645 18.87713 7.8140303 18.39051 7.4453125 17.806641 C 7.3096108 17.798541 7.2373243 17.947642 7.1171875 17.978516 C 7.3258752 17.792765 7.4926254 17.561105 7.6074219 17.306641 C 7.3728537 17.286961 7.0478135 17.23341 6.9023438 17.460938 C 6.9023438 17.697385 7.065146 17.974934 6.8769531 18.179688 C 6.9907911 18.412613 7.3985572 18.456672 7.3554688 18.769531 C 7.3554688 19.020475 7.0947215 19.229363 6.8496094 19.160156 C 6.3233716 19.188816 5.7846605 19.332239 5.2636719 19.185547 C 5.2276119 18.974901 5.5093699 18.947685 5.5996094 18.804688 C 5.6843714 18.768628 5.8638759 18.630287 5.7050781 18.566406 L 4.8515625 18.105469 C 4.8982111 17.745515 4.5326855 17.552603 4.3320312 17.316406 C 4.1526021 17.33526 4.2583432 17.572086 4.2148438 17.689453 C 4.2011497 17.799443 4.2311721 17.990448 4.1152344 18.033203 C 3.6513018 17.783319 3.1866347 17.533085 2.7226562 17.283203 L 2.0488281 17.958984 C 2.1395701 18.030234 2.2687124 18.05633 2.3339844 18.15625 C 2.2364404 18.20866 2.1102513 18.218127 2.0332031 18.302734 C 2.4226436 18.362524 2.8136845 18.421008 3.203125 18.480469 L 2.203125 18.595703 C 2.3904051 18.718883 2.5824529 18.831617 2.765625 18.960938 C 1.9389995 18.614415 1.0346438 18.553902 0.1640625 18.382812 C 0.10857943 18.378074 0.05428649 18.38497 0 18.388672 L 0 24.150391 C 0.34233228 24.682647 0.72227009 25.18658 1.2050781 25.603516 C 1.0864932 25.655936 0.84051163 25.547307 0.83398438 25.748047 C 0.82576737 26.514146 0.60551913 27.330699 0.96679688 28.052734 C 1.1264163 28.475833 1.2395501 29.003512 1.6953125 29.207031 C 1.939466 29.351831 2.1293708 29.558667 2.2851562 29.791016 L 2.4980469 30.613281 L 2.8261719 30.960938 L 2.7539062 31.261719 L 3.2109375 31.632812 L 3.3574219 32.003906 L 3.6875 32.582031 L 3.8339844 32.767578 L 3.8515625 32.652344 L 3.4121094 31.632812 L 2.9550781 30.916016 L 2.6621094 30.359375 L 2.6132812 29.992188 C 2.6722542 30.002817 2.730683 30.013374 2.7890625 30.027344 C 2.7890625 30.027344 2.78947 30.019278 2.78125 30.017578 C 2.79038 30.025678 2.7979686 30.028263 2.8066406 30.033203 C 2.8680326 30.047133 2.9273456 30.065661 2.9882812 30.082031 L 3.9042969 31.447266 L 3.9042969 31.773438 L 4.8203125 32.931641 L 4.7109375 33.509766 L 6.6894531 34.621094 L 6.78125 34.4375 L 7.2578125 34.576172 L 7.6777344 35.0625 L 8.5585938 35.410156 L 8.5585938 35.130859 L 8.7402344 35.478516 L 9.015625 35.849609 L 9.1796875 36.359375 L 9.2714844 36.265625 L 9.7675781 36.751953 L 9.9863281 36.916016 L 10.169922 36.916016 L 10.132812 36.775391 L 10.480469 36.544922 L 10.644531 36.636719 L 10.644531 37.007812 L 10.845703 36.964844 L 10.9375 37.310547 L 10.017578 38.193359 L 9.9414062 39.535156 L 11.207031 41.414062 L 12.394531 42.296875 L 11.398438 48.509766 L 11.78125 48.240234 L 11.628906 48.931641 L 11.359375 48.816406 L 11.167969 49.505859 L 11.628906 49.660156 L 11.128906 49.966797 L 11.167969 50.695312 L 11.4375 51.308594 L 12.087891 51.654297 L 12.28125 51.308594 L 12.779297 51.15625 L 12.472656 50.580078 L 13.431641 49.697266 L 12.931641 49.314453 L 13.201172 49.007812 L 13.392578 49.007812 L 13.929688 48.279297 L 13.431641 48.125 L 13.583984 47.818359 L 14.121094 48.009766 L 14.121094 47.396484 L 15.117188 47.28125 L 15.501953 46.746094 L 15.080078 46.169922 L 16 46.285156 L 17.150391 44.712891 L 17.380859 44.060547 L 17.878906 43.523438 L 18.992188 43.255859 L 19.681641 41.529297 L 19.527344 40.916016 L 20.449219 39.996094 L 20.371094 39.267578 L 19.375 38.654297 L 18.376953 38.539062 L 18.224609 38.730469 L 17.417969 38.154297 L 17.226562 38.462891 L 17.265625 38.001953 L 16.689453 38.041016 L 17.074219 37.734375 L 16.728516 37.158203 L 16.152344 36.736328 L 15.386719 36.775391 L 14.388672 36.007812 L 14.310547 35.890625 L 14.529297 35.525391 L 14.326172 35.478516 L 14.291016 35.802734 L 14.304688 35.884766 L 14.082031 35.548828 L 13.007812 35.662109 L 12.431641 35.394531 L 12.164062 35.625 L 12.087891 36.007812 L 11.857422 35.855469 L 12.009766 35.433594 L 12.048828 35.240234 L 11.244141 35.548828 L 11.205078 35.855469 L 10.667969 36.314453 L 10.742188 36.591797 L 10.443359 36.427734 L 10.130859 36.636719 L 9.8378906 36.568359 L 9.3984375 35.896484 L 9.5820312 34.992188 L 9.4707031 34.691406 L 8.6660156 34.621094 L 8.3730469 34.738281 L 8.3730469 34.552734 L 8.4824219 33.972656 L 8.6660156 33.927734 L 8.5917969 33.603516 L 8.7558594 33.023438 L 8.1152344 33.208984 L 8.0058594 33.71875 L 7.2539062 34.042969 L 6.796875 33.695312 L 6.375 32.861328 L 6.4648438 32.039062 C 6.4730637 31.971902 6.4736218 31.912192 6.4804688 31.847656 L 6.4804688 31.839844 C 6.4991838 31.640993 6.5113889 31.453254 6.5136719 31.279297 C 6.5447099 31.298977 6.5766119 31.319354 6.6074219 31.339844 C 6.6220289 31.20348 6.6376086 31.066269 6.6503906 30.933594 C 6.9320641 30.696488 7.2585327 30.52348 7.5664062 30.324219 C 7.7827165 30.437814 7.9903391 30.566107 8.2011719 30.689453 C 8.2340359 30.409925 8.5745012 30.326505 8.8046875 30.402344 L 9.6992188 30.427734 C 9.8988229 30.83945 10.097272 31.250393 10.296875 31.662109 C 10.463935 31.662109 10.724433 31.53008 10.621094 31.330078 C 10.513236 30.933852 10.295127 30.581479 10.085938 30.232422 C 10.533347 29.777872 11.088896 29.44913 11.542969 29.001953 C 11.491349 28.752071 11.281946 28.568975 11.232422 28.318359 C 11.401627 28.465371 11.655371 28.274154 11.630859 28.072266 C 11.705389 27.775127 11.957062 27.493172 12.285156 27.517578 C 12.419306 27.507778 12.690243 27.455038 12.603516 27.269531 C 12.556876 27.059128 12.730904 26.871622 12.929688 26.839844 C 13.214467 26.692014 13.510063 26.554014 13.830078 26.505859 C 13.918488 26.645664 13.61962 26.769082 13.763672 26.890625 C 14.19433 26.779978 14.548528 26.500103 14.925781 26.279297 C 14.879091 26.059559 14.600778 26.171455 14.482422 26.263672 C 14.145244 26.341482 13.799509 25.919492 14.003906 25.615234 C 14.080906 25.368547 13.706457 25.164091 13.554688 25.390625 C 13.285749 25.645091 13.002448 25.945212 12.613281 25.986328 C 12.887789 25.664702 13.191265 25.360744 13.517578 25.09375 C 13.93217 24.851486 14.42325 25.085851 14.857422 24.921875 C 15.246133 24.820403 15.533596 24.52624 15.871094 24.328125 C 15.983881 24.272425 15.975651 24.214911 15.861328 24.166016 L 14.558594 23.246094 C 14.716752 22.941096 14.433629 22.652582 14.212891 22.474609 C 14.074908 22.337511 13.969193 22.160362 13.794922 22.064453 C 13.638497 22.269124 13.482596 22.472982 13.326172 22.677734 C 13.089321 22.487231 12.765353 22.296277 12.755859 21.955078 C 12.485506 21.68006 12.061946 21.714097 11.738281 21.537109 C 11.511518 21.460939 11.285402 21.38452 11.058594 21.308594 L 10.902344 22.367188 C 11.091952 22.502486 11.281095 22.638137 11.470703 22.773438 C 11.229334 23.131346 10.778712 23.428158 10.824219 23.912109 C 10.845669 24.209736 10.824295 24.58208 10.539062 24.753906 C 10.218637 24.671836 9.8762259 24.356939 9.9785156 23.998047 C 10.024386 23.834247 9.9788913 23.61426 9.78125 23.587891 C 9.2043313 23.38224 8.6432999 23.117983 8.03125 23.03125 C 7.8924445 23.01075 7.7139284 23.001923 7.6875 22.828125 C 7.636697 22.654169 7.6668093 22.364611 7.4394531 22.322266 C 7.2611192 22.359096 7.1964636 22.134359 7.2675781 22.005859 C 7.3134051 21.599877 7.5335969 21.222574 7.8710938 20.992188 C 8.3211506 20.558526 8.7309259 20.064499 9.2226562 19.685547 C 9.4293354 19.697007 9.7580049 19.756407 9.8300781 19.492188 C 9.8841201 19.21905 10.024723 18.833726 10.365234 18.861328 C 10.705468 18.943318 10.835244 19.325126 11.134766 19.476562 C 11.311136 19.628978 11.554112 19.72678 11.708984 19.884766 C 11.656584 20.159954 11.650133 20.535453 11.359375 20.667969 C 11.18168 20.655689 10.90858 20.572827 10.822266 20.791016 C 10.822266 21.015669 11.113056 20.964209 11.251953 20.910156 C 11.478671 20.884776 11.694502 21.037387 11.757812 21.25 C 12.035469 21.553199 12.467075 21.614905 12.828125 21.769531 C 12.927355 21.795731 13.157256 21.778474 13.109375 21.634766 C 13.013705 21.498074 12.816908 21.468112 12.742188 21.3125 C 12.996749 21.36083 13.245861 21.437289 13.498047 21.496094 C 13.506247 21.060707 13.084358 20.817687 12.822266 20.539062 C 12.779816 20.379355 12.999921 20.278907 13.099609 20.404297 C 13.284378 20.516009 13.529877 20.732771 13.736328 20.537109 C 13.840033 20.487159 13.982816 20.317104 13.818359 20.246094 C 13.351871 19.986718 12.876939 19.743867 12.40625 19.492188 C 12.50562 19.438128 12.759632 19.404434 12.666016 19.242188 C 12.040683 18.715567 11.295433 18.352525 10.568359 17.996094 C 10.309462 18.004194 9.9410403 17.987489 9.8671875 17.677734 C 9.7592367 17.430887 9.4148683 17.350415 9.2128906 17.53125 C 9.0386647 17.61151 8.853536 17.720408 8.6542969 17.677734 C 8.6675339 17.537687 8.8169506 17.303017 8.6035156 17.246094 C 8.5857146 17.237994 8.56641 17.235195 8.546875 17.234375 z M 5.5996094 17.285156 L 5.5996094 17.326172 C 5.6370384 17.648697 5.7634365 18.07133 6.1367188 18.128906 C 6.3280613 18.137006 6.6140938 18.098272 6.6894531 17.923828 C 6.5566728 17.837588 6.3459789 17.886127 6.2617188 17.726562 C 6.3661994 17.561535 6.5954777 17.507508 6.6601562 17.3125 C 6.3066837 17.30187 5.9531733 17.291726 5.5996094 17.285156 z M 9.9824219 17.417969 L 9.9824219 17.419922 C 9.9637089 17.419466 9.9444052 17.418762 9.9257812 17.419922 C 9.9444942 17.756615 10.337764 17.960665 10.642578 17.875 C 10.588528 17.651244 10.351137 17.520412 10.150391 17.445312 C 10.096341 17.429752 10.039021 17.419609 9.9824219 17.417969 z M 6.1347656 18.574219 L 5.7988281 18.873047 L 6.6582031 19.097656 C 6.4835208 18.923037 6.309448 18.748911 6.1347656 18.574219 z M 4.2441406 18.845703 L 4.1738281 19.427734 C 3.8814741 19.332724 3.5892749 19.239536 3.296875 19.144531 C 3.612782 19.045351 3.9282336 18.944884 4.2441406 18.845703 z M 4.3632812 18.845703 C 4.3632812 18.845247 4.3735544 18.844836 4.3808594 18.845703 C 4.4504674 18.845703 4.5117806 18.940195 4.40625 18.890625 C 4.386623 18.890625 4.3353922 18.849803 4.3632812 18.845703 z M 10.851562 19.558594 C 10.681124 19.636404 10.681963 19.983552 10.886719 19.998047 C 11.082215 19.937437 11.110682 19.534927 10.851562 19.558594 z M 23.412109 20.285156 L 23.222656 20.472656 L 23.601562 20.708984 L 23.318359 20.945312 L 23.789062 20.992188 L 23.412109 21.228516 L 24.167969 21.371094 L 25.347656 20.755859 L 25.064453 20.285156 L 24.638672 20.425781 L 24.167969 20.332031 L 23.884766 20.615234 L 23.412109 20.285156 z M 8.9921875 20.384766 L 8.9921875 20.386719 C 8.9830575 20.386801 8.9735158 20.386719 8.9648438 20.386719 C 8.9502368 20.58033 8.8490756 20.864882 9.0605469 20.984375 C 9.2585993 21.021205 9.463377 20.775568 9.6425781 20.953125 C 9.7315401 20.997345 9.8937749 21.110033 9.9648438 21.019531 C 9.8709036 20.752374 9.5360415 20.736035 9.3457031 20.564453 C 9.241268 20.514505 9.137578 20.397706 9.0175781 20.384766 L 8.9921875 20.384766 z M 9.5585938 21.191406 C 9.5398787 21.191246 9.5173835 21.201659 9.4921875 21.224609 C 9.4028605 21.246749 9.2854109 21.398637 9.4375 21.417969 C 9.513681 21.480209 9.6911537 21.49035 9.640625 21.34375 C 9.648845 21.27741 9.6180149 21.191648 9.5605469 21.191406 L 9.5585938 21.191406 z M 27.6875 22.707031 L 27.6875 22.708984 C 27.6793 22.708738 27.674942 22.709149 27.669922 22.708984 C 27.538967 22.763044 27.378112 22.663439 27.261719 22.761719 C 27.186409 22.868931 27.16465 23.005733 27.09375 23.115234 C 27.04857 23.274529 27.171141 23.404235 27.248047 23.529297 C 27.334637 23.661894 27.396344 23.813816 27.490234 23.939453 C 27.588824 24.016433 27.69261 24.116255 27.697266 24.25 C 27.757886 24.367854 27.627577 24.528845 27.5 24.484375 C 27.372788 24.563815 27.58938 24.716681 27.46875 24.798828 C 27.340261 24.885968 27.468918 25.035756 27.554688 25.082031 C 27.584808 25.215282 27.443421 25.297671 27.337891 25.326172 C 27.225605 25.413972 27.411876 25.53323 27.486328 25.439453 C 27.910916 25.351083 28.336082 25.272088 28.761719 25.189453 C 28.869258 25.098623 28.68473 24.937779 28.8125 24.855469 C 28.89439 24.748833 28.767584 24.592746 28.646484 24.609375 C 28.520596 24.547935 28.340414 24.500299 28.316406 24.337891 C 28.267246 24.161397 28.214346 23.986864 28.158203 23.8125 C 28.048154 23.712081 27.897184 23.684844 27.763672 23.628906 C 27.698162 23.504908 27.794674 23.374921 27.875 23.285156 C 27.93397 23.167959 27.780564 23.091218 27.681641 23.105469 C 27.516863 23.121029 27.643292 22.875495 27.757812 22.886719 C 27.853842 22.837579 27.77118 22.709979 27.6875 22.707031 z M 64 23.148438 L 63.853516 23.251953 L 64 24.755859 L 64 23.148438 z M 31.212891 23.777344 C 31.201481 23.777262 31.190647 23.777056 31.179688 23.785156 C 31.037412 23.774526 31.043346 24.000933 31.162109 24.033203 C 31.282019 24.074143 31.384401 23.916125 31.300781 23.822266 C 31.279331 23.795246 31.246981 23.780117 31.212891 23.779297 L 31.212891 23.777344 z M 26.896484 23.970703 C 26.704914 24.015743 26.515871 24.070718 26.326172 24.123047 C 26.261492 24.252696 26.384938 24.367995 26.423828 24.484375 C 26.445748 24.625819 26.350335 24.744545 26.267578 24.847656 C 26.215998 24.973376 26.41008 25.092925 26.5 24.992188 C 26.656288 24.876787 26.815081 24.763155 26.974609 24.652344 C 27.084521 24.507462 27.037731 24.314932 27.087891 24.150391 C 27.096091 24.060711 27.020411 23.979057 26.933594 23.970703 L 26.896484 23.970703 z M 60.769531 24.515625 L 60.554688 24.554688 L 60.542969 24.970703 L 60.703125 25.226562 L 60.582031 26.585938 L 60.703125 26.638672 L 60.716797 26.451172 L 60.876953 26.585938 L 60.917969 26.492188 L 60.703125 26.195312 L 60.851562 25.779297 L 61.119141 25.886719 L 60.863281 25.28125 L 60.890625 24.917969 L 60.769531 24.515625 z M 40.917969 25.257812 C 40.975265 25.265406 41.032432 25.271168 41.089844 25.277344 L 41.097656 25.294922 L 40.917969 25.257812 z M 39.791016 25.330078 L 39.587891 25.509766 L 39.494141 25.527344 C 39.568671 25.479834 39.64528 25.432391 39.714844 25.378906 C 39.740404 25.364176 39.765646 25.348088 39.791016 25.330078 z M 40.498047 26.208984 L 40.503906 26.208984 L 40.341797 26.640625 L 40.396484 27.015625 L 39.964844 27.177734 C 39.964844 27.177734 39.697216 27.178306 39.912109 27.447266 C 40.127277 27.716228 40.611328 27.824219 40.611328 27.824219 L 41.041016 28.306641 L 40.449219 28.253906 L 40.664062 29.167969 L 39.695312 29.113281 L 39.5 28.769531 C 39.606307 28.777631 39.710997 28.762369 39.800781 28.699219 C 39.921511 28.581611 39.862524 28.384885 39.777344 28.263672 C 39.614256 28.015267 39.434099 27.777512 39.265625 27.533203 C 39.189445 27.455393 39.08507 27.336407 39.160156 27.224609 C 39.251166 27.077601 39.408324 26.990687 39.513672 26.855469 C 39.588202 26.782579 39.719319 26.719688 39.705078 26.597656 C 39.705078 26.597656 39.703513 26.588468 39.695312 26.585938 L 40.498047 26.208984 z M 62.720703 26.371094 L 62.640625 26.410156 L 62.585938 26.4375 L 62.398438 26.748047 L 62.720703 26.585938 L 62.720703 26.371094 z M 60.648438 26.990234 L 60.460938 27.5 L 60.232422 27.554688 L 60.111328 27.931641 L 60.380859 27.984375 L 60.474609 27.744141 L 60.419922 27.648438 L 60.595703 27.636719 L 60.824219 27.824219 L 61.119141 27.568359 L 61.402344 27.460938 L 61.361328 27.287109 L 61.146484 27.339844 L 60.783203 27.152344 L 60.648438 26.990234 z M 61.792969 27.015625 L 61.617188 27.056641 L 61.779297 27.21875 L 61.792969 27.015625 z M 30.652344 27.533203 C 30.639094 27.533203 30.623319 27.541632 30.605469 27.570312 C 30.530979 27.671785 30.529431 27.8036 30.519531 27.923828 C 30.665138 27.936108 30.713443 27.753414 30.693359 27.638672 C 30.701559 27.600202 30.682024 27.537549 30.652344 27.533203 z M 60.488281 28.078125 L 60.177734 28.199219 L 60.166016 28.873047 L 59.574219 29.382812 L 59.453125 29.222656 L 59.238281 29.585938 L 58.550781 29.599609 L 58.175781 30.029297 L 58.322266 30.029297 L 58.605469 29.880859 L 59.076172 29.841797 L 59.197266 30.150391 L 59.480469 29.841797 C 59.480469 29.841797 59.909718 29.774009 60.003906 29.787109 C 60.098006 29.800209 60.273438 29.517578 60.273438 29.517578 L 60.328125 28.939453 L 60.570312 28.644531 L 60.488281 28.078125 z M 30.568359 28.144531 C 30.421018 28.188761 30.451339 28.372693 30.445312 28.492188 C 30.445312 28.587028 30.49233 28.725106 30.611328 28.710938 C 30.742648 28.672467 30.753875 28.50527 30.732422 28.392578 C 30.714622 28.300848 30.697035 28.133882 30.568359 28.144531 z M 38.849609 28.609375 C 38.978921 28.609375 39.09935 28.689871 39.226562 28.712891 C 39.256242 28.720991 39.285956 28.730101 39.316406 28.738281 L 38.943359 28.738281 L 38.791016 28.617188 C 38.809726 28.617188 38.828586 28.609088 38.847656 28.617188 L 38.849609 28.609375 z M 32.099609 28.910156 C 31.860979 28.919156 31.621535 28.92851 31.382812 28.9375 C 31.566441 29.066005 31.749965 29.195634 31.933594 29.324219 L 32.099609 28.910156 z M 34.21875 29.46875 C 34.094596 29.577435 34.333516 29.668193 34.419922 29.607422 C 34.491172 29.618052 34.737904 29.638541 34.638672 29.519531 C 34.524149 29.467931 34.390964 29.519433 34.275391 29.470703 L 34.248047 29.470703 L 34.248047 29.46875 C 34.238947 29.468668 34.22788 29.469206 34.21875 29.46875 z M 36.142578 29.574219 C 35.991723 29.587319 36.03134 29.84783 36.179688 29.820312 C 36.305073 29.820557 36.358981 29.598774 36.216797 29.576172 C 36.198087 29.584272 36.179136 29.575258 36.160156 29.576172 L 36.162109 29.574219 C 36.153909 29.573762 36.148958 29.573808 36.142578 29.574219 z M 58.820312 29.935547 L 58.457031 30.109375 L 58.484375 30.271484 L 58.96875 30.083984 L 58.820312 29.935547 z M 58.066406 30.015625 L 57.824219 30.216797 L 58.013672 30.5 L 57.90625 30.78125 L 58.175781 30.769531 L 58.269531 30.205078 L 58.066406 30.015625 z M 55.916016 32.181641 L 55.566406 32.746094 L 55.808594 33.068359 L 56.023438 32.289062 L 55.916016 32.181641 z M 9.953125 32.513672 L 9.2753906 32.744141 L 9.2753906 32.90625 L 9.9160156 32.652344 L 9.8417969 32.791016 L 10.007812 32.767578 L 10.501953 32.929688 L 10.904297 33.369141 L 10.849609 33.439453 L 11.527344 33.369141 L 10.392578 32.697266 L 9.953125 32.513672 z M 53.466797 33.417969 L 53.064453 33.605469 L 53.144531 33.875 L 53.466797 33.628906 L 53.466797 33.714844 L 53.494141 33.605469 L 53.46875 33.625 L 53.466797 33.417969 z M 11.802734 33.507812 L 12.041016 33.832031 L 11.601562 33.855469 L 11.601562 34.087891 L 12.261719 33.994141 L 12.919922 33.902344 L 12.408203 33.507812 L 11.802734 33.507812 z M 10.410156 33.763672 L 10.337891 33.949219 L 10.886719 34.064453 L 11.087891 34.017578 L 10.410156 33.763672 z M 13.085938 33.810547 L 13.068359 33.972656 L 13.396484 34.041016 L 13.580078 33.857422 L 13.085938 33.810547 z M 55.767578 33.835938 L 55.740234 34.683594 L 55.673828 34.75 L 55.794922 34.683594 L 55.820312 34.683594 L 55.888672 34.857422 L 56.291016 34.884766 L 56.507812 35.140625 L 56.546875 34.951172 L 55.941406 34.535156 L 56.183594 33.943359 L 55.767578 33.835938 z M 14.111328 34.25 L 13.726562 34.320312 L 13.890625 34.482422 L 14.111328 34.25 z M 14.275391 34.830078 L 14.238281 35.130859 L 14.496094 34.898438 L 14.275391 34.830078 z M 55.794922 34.978516 L 55.753906 35.085938 L 55.955078 35.154297 L 55.996094 35.085938 L 55.794922 34.978516 z M 56.802734 35.072266 L 56.654297 35.179688 L 56.761719 35.314453 L 56.642578 35.529297 L 56.816406 35.691406 L 56.722656 35.570312 L 56.802734 35.435547 L 56.910156 35.556641 L 56.978516 35.542969 L 56.802734 35.072266 z M 56.076172 35.328125 L 56.103516 35.625 L 56.306641 35.449219 L 56.076172 35.328125 z M 55.646484 35.355469 L 55.216797 35.892578 L 55.255859 35.988281 L 55.552734 35.570312 L 55.712891 35.408203 L 55.646484 35.355469 z M 56.332031 35.570312 L 56.251953 35.988281 L 56.494141 35.650391 L 56.332031 35.570312 z M 56.871094 35.785156 L 56.871094 35.988281 L 56.560547 36.175781 L 56.546875 36.013672 L 56.183594 36.242188 L 56.117188 36.363281 L 56.439453 36.216797 L 56.615234 36.324219 L 56.507812 36.566406 L 56.871094 36.712891 L 56.951172 36.699219 L 56.789062 36.484375 L 56.923828 36.283203 L 57.099609 36.552734 L 57.03125 35.972656 L 56.871094 35.785156 z M 46.582031 35.8125 L 46.5 36.296875 L 46.689453 36.619141 L 46.931641 36.511719 L 46.931641 36.376953 L 46.582031 35.8125 z M 54.974609 36.484375 L 54.101562 37.21875 L 53.347656 37.400391 L 53.158203 37.951172 L 53.400391 38.314453 L 53.535156 38.650391 L 54.798828 38.798828 L 55.068359 37.871094 L 55.376953 37.775391 L 55.054688 37.292969 L 55.417969 36.808594 L 54.974609 36.484375 z M 50.292969 36.753906 L 50.025391 36.916016 L 52.337891 39.443359 L 52.552734 38.636719 L 51.369141 37.560547 L 50.292969 36.753906 z M 55.888672 37.615234 L 55.458984 38.085938 L 55.566406 39.283203 L 55.726562 39.255859 L 55.646484 38.664062 L 55.820312 38.609375 L 56.0625 39.121094 L 56.210938 38.958984 L 55.875 38.501953 L 56.224609 38.328125 L 56.210938 38.193359 L 55.820312 38.353516 L 55.632812 38.003906 L 55.996094 37.9375 L 56.857422 37.775391 L 55.888672 37.615234 z M 57.421875 37.681641 L 57.460938 38.099609 L 57.582031 38.003906 L 57.582031 37.751953 L 57.421875 37.681641 z M 57.583984 37.708984 L 57.583984 37.751953 L 57.636719 37.775391 L 57.583984 37.708984 z M 58.496094 38.152344 L 58.09375 38.314453 L 58.335938 38.287109 L 58.349609 38.488281 L 58.658203 38.460938 L 58.740234 38.623047 L 58.484375 38.689453 C 58.484375 38.689453 58.578125 38.932522 58.578125 38.986328 C 58.578125 39.040388 58.740234 38.796875 58.740234 38.796875 L 59.035156 38.958984 L 59.345703 39.039062 L 59.816406 39.349609 L 59.734375 39.806641 L 59.841797 39.873047 L 60.152344 39.886719 L 60.837891 40.115234 L 60.824219 39.820312 L 61.039062 39.738281 L 61.416016 39.724609 L 61.953125 40.304688 L 62.478516 40.412109 L 61.912109 39.832031 L 61.658203 39.685547 L 61.859375 39.443359 L 61.589844 39.322266 L 61.212891 38.892578 L 59.679688 38.474609 L 59.412109 38.529297 L 59.183594 38.851562 L 58.859375 38.595703 L 58.738281 38.205078 L 58.496094 38.152344 z M 57.501953 38.609375 L 57.501953 38.785156 L 58.025391 38.810547 L 57.501953 38.609375 z M 58.025391 38.810547 L 58.025391 38.8125 L 58.03125 38.8125 L 58.025391 38.810547 z M 58.03125 38.8125 L 58.134766 38.851562 L 58.054688 38.8125 L 58.03125 38.8125 z M 57.085938 38.677734 L 57.03125 38.878906 L 57.259766 38.851562 L 57.259766 38.90625 L 57.273438 38.716797 L 57.085938 38.677734 z M 62.855469 39 L 62.800781 39.148438 L 62.544922 39.335938 L 62.169922 39.242188 L 62.021484 39.349609 L 62.302734 39.457031 L 62.908203 39.228516 L 62.949219 39.039062 L 62.855469 39 z M 56.304688 39.066406 L 56.197266 39.294922 L 56.265625 39.308594 L 56.304688 39.066406 z M 52.660156 39.388672 L 52.5 39.658203 L 54.490234 40.142578 L 54.167969 39.605469 L 52.660156 39.388672 z M 57.287109 39.765625 L 56.533203 40.087891 L 56.533203 40.304688 L 57.341797 40.035156 L 57.287109 39.765625 z M 54.974609 39.873047 L 54.933594 40.035156 L 55.324219 40.048828 L 55.498047 39.966797 L 54.974609 39.873047 z M 55.822266 39.955078 L 55.6875 39.982422 L 56.251953 40.021484 L 56.400391 39.966797 L 55.822266 39.955078 z M 55.605469 40.048828 L 55.445312 40.115234 L 55.673828 40.34375 L 55.753906 40.384766 L 55.605469 40.048828 z M 60.880859 40.234375 L 60.318359 41.898438 L 59.21875 41.109375 L 59.416016 40.460938 L 58.230469 40.544922 L 57.751953 41.220703 L 57.273438 40.939453 L 56.371094 41.53125 L 56.087891 42.208984 L 54.255859 42.771484 L 54.03125 43.251953 L 54.283203 43.787109 L 54.001953 43.900391 L 54.3125 44.548828 L 54.566406 45.28125 L 54.453125 46.013672 L 55.017578 46.267578 L 55.722656 45.759766 L 56.427734 45.902344 L 56.568359 45.591797 L 57.554688 45.337891 L 58.259766 45.310547 L 59.048828 45.648438 L 59.275391 46.240234 L 59.810547 45.619141 L 59.697266 46.296875 L 59.951172 46.013672 L 60.121094 46.380859 L 60.429688 47.058594 L 61.248047 47.169922 L 61.501953 46.916016 L 61.783203 47.226562 L 62.628906 46.832031 L 63.447266 44.464844 L 63.193359 43.703125 L 61.783203 42.123047 L 61.558594 40.96875 L 61.277344 41.052734 L 60.880859 40.234375 z M 39.644531 40.857422 L 39.263672 41.582031 L 38.654297 41.923828 L 38.349609 41.962891 L 38.615234 42.609375 L 38.349609 43.257812 L 38.349609 43.830078 L 38.730469 43.945312 L 39.150391 43.753906 L 39.644531 42.115234 L 39.644531 40.857422 z M 61.417969 47.847656 L 61.671875 48.550781 L 61.896484 48.636719 L 62.234375 48.072266 L 62.207031 47.847656 L 61.785156 47.958984 L 61.417969 47.847656 z M 12.705078 51.423828 L 12.361328 51.5 L 12.246094 51.806641 L 11.439453 51.615234 L 12.667969 52.189453 L 13.320312 52.113281 L 12.705078 51.423828 z "
       id="path6098" />
  </g>
</svg>
