<?xml version="1.0" encoding="UTF-8" standalone="no"?>
<!-- Created with Inkscape (http://www.inkscape.org/) -->

<svg
   xmlns:dc="http://purl.org/dc/elements/1.1/"
   xmlns:cc="http://creativecommons.org/ns#"
   xmlns:rdf="http://www.w3.org/1999/02/22-rdf-syntax-ns#"
   xmlns:svg="http://www.w3.org/2000/svg"
   xmlns="http://www.w3.org/2000/svg"
   xmlns:sodipodi="http://sodipodi.sourceforge.net/DTD/sodipodi-0.dtd"
   xmlns:inkscape="http://www.inkscape.org/namespaces/inkscape"
   width="64"
   height="64"
   id="svg5312"
   version="1.1"
   inkscape:version="0.91 r13725"
   viewBox="0 0 64 64"
   sodipodi:docname="australie.svg">
  <defs
     id="defs5314" />
  <sodipodi:namedview
     id="base"
     pagecolor="#ffffff"
     bordercolor="#666666"
     borderopacity="1.0"
     inkscape:pageopacity="0.0"
     inkscape:pageshadow="2"
     inkscape:zoom="2.75"
     inkscape:cx="28.723044"
     inkscape:cy="32"
     inkscape:current-layer="layer1"
     showgrid="true"
     inkscape:document-units="px"
     inkscape:grid-bbox="true"
     inkscape:snap-grids="false"
     inkscape:snap-page="true"
     inkscape:snap-bbox="true"
     inkscape:bbox-nodes="true"
     inkscape:window-width="1474"
     inkscape:window-height="841"
     inkscape:window-x="-8"
     inkscape:window-y="-8"
     inkscape:window-maximized="1" />
  <metadata
     id="metadata5317">
    <rdf:RDF>
      <cc:Work
         rdf:about="">
        <dc:format>image/svg+xml</dc:format>
        <dc:type
           rdf:resource="http://purl.org/dc/dcmitype/StillImage" />
        <dc:title></dc:title>
      </cc:Work>
    </rdf:RDF>
  </metadata>
  <g
     id="layer1"
     inkscape:label="Layer 1"
     inkscape:groupmode="layer">
    <path
       inkscape:connector-curvature="0"
       style="opacity:0.33200001;fill:#000000;fill-opacity:1;stroke:none;stroke-width:1.5;stroke-linecap:round;stroke-linejoin:round;stroke-miterlimit:4;stroke-dasharray:none;stroke-opacity:1"
       d="m 26.940427,17.643044 -1.990364,5.874075 -3.882809,-2.787937 0.696985,-2.289434 -4.181897,0.2982 -1.693058,2.390018 -1.69127,-0.996095 -3.186718,2.090953 -0.995179,2.390064 -6.4713496,1.990368 -0.7966805,1.693035 0.8954834,1.891561 -0.9942909,0.398784 1.0948803,2.288568 0.8954833,2.589412 -0.3987845,2.588545 0.4949212,0.222544 L 30.459166,64 l 33.540637,0 0,-15.330967 -6.533655,-6.533685 -0.04985,0.04986 -0.395226,-0.396096 -0.161113,0.161109 -0.05074,-0.612442 -0.397896,0.598177 -1.593357,-0.796658 -1.693052,-2.389153 -0.496704,0 1.790972,3.185811 -0.895484,1.094903 1.094876,0.597265 -0.09881,1.095769 0.259032,0.691652 -0.03204,0.0319 -27.68616,-27.686135 -0.0427,0.04284 -0.07744,-0.161109 z m 32.264171,4.239742 -0.113049,0.113072 -1.784737,0.62575 0.777092,0.17182 -0.07299,0.07297 5.988888,5.988925 0,-2.177319 -4.692838,-4.692806 -0.0089,-0.06144 -0.03915,0.01322 -0.0543,-0.05433 z m -2.793274,1.037022 -0.597284,0.795792 0.171797,-0.0123 -0.0027,0.0046 8.016638,8.016619 0,-2.03845 -6.683202,-6.683174 -0.130852,0.130847 -0.774426,-0.213658 z m -11.15173,1.393969 -0.995179,0.09972 2.584979,3.32199 -0.0258,0.02598 0.203845,0.203813 0.02493,0.0319 0.008,0 16.939446,16.939414 0,-1.904915 -18.596893,-18.596854 -0.02848,0.02826 -0.114832,-0.149578 z"
       id="rect4552-3" />
    <path
       style="fill:#ffffff;fill-rule:evenodd;stroke:none;stroke-width:1px;stroke-linecap:butt;stroke-linejoin:miter;stroke-opacity:1"
       d="m 26.940778,17.642817 -1.990975,5.874348 -3.882526,-2.787983 0.696793,-2.289252 -4.181637,0.298245 -1.692716,2.389518 -1.691854,-0.995959 -3.186585,2.091272 -0.995061,2.389518 -6.4717367,1.99096 -0.7962157,1.692716 0.8956338,1.891561 -0.9950519,0.398511 1.0953315,2.289251 0.8956381,2.589184 -0.3985337,2.588408 1.9918264,0.895602 2.4889311,-1.792161 2.4889311,0.497957 0.497957,-1.095313 3.483987,-0.895648 2.488936,-0.0994 2.788047,1.194759 0.796215,2.090361 1.891552,-2.189807 -0.397677,2.388698 0.895638,-0.995048 0.59738,1.294113 1.095331,2.389518 2.88747,0.398556 0.895638,-0.896513 0.995918,1.095359 2.986888,-1.393604 2.886608,-8.363266 -0.895634,-2.688629 -4.977862,-5.575282 -0.797072,-4.081322 -0.995066,0.2982 -1.394447,-2.887428 z m 32.356958,4.281078 -1.990974,0.697622 0.896495,0.198891 1.194754,-0.198891 -0.100275,-0.697622 z m -2.886613,0.995913 -0.597379,0.796202 1.393595,-0.0994 0.299116,-0.397691 -1.095332,-0.299111 z m -11.151337,1.393559 -0.995061,0.100311 2.787201,3.583411 1.095332,0.100265 -2.887472,-3.783987 z m 7.368229,14.43655 1.791277,3.185674 -0.895638,1.095313 1.09534,0.597403 -0.09943,1.095358 0.298264,0.796202 0.896495,-1.393604 0.397682,-1.393604 0.797077,-0.199666 -0.10028,-1.194758 -0.397682,0.597356 -1.593292,-0.796202 -1.692711,-2.389472 -0.497105,0 z m -0.497952,5.376346 -1.294181,2.389469 -2.091245,0.995093 -1.493022,1.891607 1.592436,1.095313 1.194763,-0.498002 1.19475,-1.891561 0.797077,-0.796202 1.691854,-2.190669 -1.592432,-0.995048 z m -23.296877,0.397691 0.895634,2.48896 0.796225,0.299066 1.194749,-1.990958 -0.09942,-0.797068 -1.493013,0.398557 -1.294177,-0.398557 z"
       id="path4378"
       inkscape:connector-curvature="0" />
  </g>
</svg>
