<?xml version="1.0" encoding="UTF-8" standalone="no"?>
<!-- Created with Inkscape (http://www.inkscape.org/) -->

<svg
   xmlns:dc="http://purl.org/dc/elements/1.1/"
   xmlns:cc="http://creativecommons.org/ns#"
   xmlns:rdf="http://www.w3.org/1999/02/22-rdf-syntax-ns#"
   xmlns:svg="http://www.w3.org/2000/svg"
   xmlns="http://www.w3.org/2000/svg"
   xmlns:sodipodi="http://sodipodi.sourceforge.net/DTD/sodipodi-0.dtd"
   xmlns:inkscape="http://www.inkscape.org/namespaces/inkscape"
   width="64"
   height="64"
   id="svg4263"
   version="1.1"
   inkscape:version="0.91 r13725"
   viewBox="0 0 64 64"
   inkscape:export-filename="C:\Users\emile\Desktop\SÉMINAIRE TAL\graphismes\allergenes\lactose_sq.png"
   inkscape:export-xdpi="105.46875"
   inkscape:export-ydpi="105.46875"
   sodipodi:docname="difficile.svg">
  <defs
     id="defs4265">
    <pattern
       y="0"
       x="0"
       height="6"
       width="6"
       patternUnits="userSpaceOnUse"
       id="EMFhbasepattern" />
  </defs>
  <sodipodi:namedview
     id="base"
     pagecolor="#ffffff"
     bordercolor="#666666"
     borderopacity="1.0"
     inkscape:pageopacity="0.0"
     inkscape:pageshadow="2"
     inkscape:zoom="9.4711191"
     inkscape:cx="28.183991"
     inkscape:cy="39.552912"
     inkscape:current-layer="layer1"
     showgrid="true"
     inkscape:document-units="px"
     inkscape:grid-bbox="true"
     inkscape:snap-page="true"
     inkscape:snap-bbox="true"
     inkscape:bbox-nodes="true"
     inkscape:snap-nodes="true"
     inkscape:snap-others="true"
     inkscape:object-nodes="true"
     inkscape:window-width="1474"
     inkscape:window-height="841"
     inkscape:window-x="-8"
     inkscape:window-y="-8"
     inkscape:window-maximized="1"
     inkscape:snap-global="false"
     inkscape:snap-object-midpoints="true" />
  <metadata
     id="metadata4268">
    <rdf:RDF>
      <cc:Work
         rdf:about="">
        <dc:format>image/svg+xml</dc:format>
        <dc:type
           rdf:resource="http://purl.org/dc/dcmitype/StillImage" />
        <dc:title />
      </cc:Work>
    </rdf:RDF>
  </metadata>
  <g
     id="layer1"
     inkscape:label="Layer 1"
     inkscape:groupmode="layer">
    <path
       style="opacity:0.33200001;fill:#000000;fill-opacity:1;stroke:none;stroke-width:0.1;stroke-linecap:round;stroke-linejoin:round;stroke-miterlimit:4;stroke-dasharray:none;stroke-opacity:1"
       d="m 20.050781,19.890625 -0.01953,0.0059 c 0.363765,0.322391 0.680508,0.701396 0.900391,1.146485 0.252983,0.512095 0.408325,1.083749 0.408203,1.697265 l 0,0.01563 c 0.195322,0.0197 0.386913,0.05339 0.574218,0.0957 -0.127103,0.138146 -0.246064,0.282691 -0.355468,0.435547 -1.057491,-0.65009 -2.306549,-0.924838 -3.535156,-0.861328 -1.271489,0.06573 -2.520187,0.495873 -3.517579,1.251953 -0.717245,0.543714 -1.303161,1.255751 -1.671875,2.123047 -0.06569,0.154523 -0.126334,0.312291 -0.177734,0.476563 -0.406288,0.987439 -0.453164,1.999099 -0.236328,2.953125 -0.186478,-0.009 -0.341294,-0.01545 -0.587891,-0.0293 -0.150344,-0.0084 -0.300487,-0.04471 -0.451172,-0.06641 l 0.02344,11.613281 0,-0.960938 0,-10.298828 c 0.140383,0.01369 0.281853,0.02734 0.425781,0.02734 l 0.66211,0 c 0.586064,2.050426 2.390081,3.787631 4.482421,4.369141 0.08511,0.02366 0.16986,0.04665 0.25586,0.06641 1.006715,0.769374 0.105532,3.03556 0.412109,4.355469 l 0,3.933593 c -0.101726,0.0051 -0.202472,0.01149 -0.304687,0.01172 -0.123107,-4.8e-4 -0.246296,-0.0076 -0.369141,-0.01172 -1.93844,-0.06446 -3.841711,-0.570389 -5.564453,-1.492187 L 34.65625,64 64,64 64,33.373047 55.197266,24.570312 c 0.795077,0.939047 1.279405,2.157719 1.28125,3.488282 -0.0023,2.348784 -1.500237,4.418698 -3.689454,5.099609 l 0,6.628906 0,0.960938 0,0.460937 c -1.582855,0.685285 -3.282201,1.039069 -5,1.042969 -0.123108,-4.8e-4 -0.244342,-0.0076 -0.367187,-0.01172 -0.601471,-0.02002 -1.199948,-0.09419 -1.789063,-0.203125 10e-4,-1.203253 0.03116,-2.387443 0.138672,-3.517578 0.544836,-0.20212 1.038592,-0.480434 1.482422,-0.816406 -0.01246,0.123638 -0.02298,0.25454 -0.03711,0.361328 -0.0563,0.425659 -0.236328,0.971099 -0.236328,1.234375 3e-6,0.526555 0.212053,0.953125 0.472656,0.953125 0.0039,0 0.0078,-0.0037 0.01172,-0.0039 0.255244,-0.01241 0.458984,-0.430475 0.458984,-0.949219 0,-0.263277 -0.178075,-0.808717 -0.234375,-1.234375 -0.02478,-0.187333 -0.04619,-0.418819 -0.06641,-0.666015 2.13643,-1.904484 2.856774,-5.258666 1.695312,-7.882813 l 0.07031,0 c -0.01696,-6.34e-4 -0.0377,-0.0014 -0.05469,-0.002 -0.0054,-1.89e-4 -0.01208,1.92e-4 -0.01758,0 -0.27168,-0.613153 -0.64408,-1.188285 -1.126953,-1.69336 -0.905393,-1.19037 -2.517427,-1.737983 -3.71875,-2.216796 -0.05496,-0.731911 -0.301041,-1.407889 -0.679687,-1.996094 -1.1089,-1.722599 -3.361669,-2.688902 -5.345704,-2.132813 l -0.466796,0.800782 c 0.0037,-0.0018 0.008,-0.0022 0.01172,-0.0039 0.248817,-0.115697 0.508927,-0.204978 0.777344,-0.269531 0.09494,-0.02333 0.190285,-0.04403 0.28711,-0.06055 0.04629,-0.0077 0.092,-0.01731 0.138671,-0.02344 0.175468,-0.02368 0.353258,-0.03902 0.533203,-0.03906 0.185784,4.3e-5 0.367793,0.01681 0.546876,0.04102 0.04269,0.0058 0.0847,0.01244 0.126953,0.01953 0.01549,0.0026 0.02951,0.0089 0.04492,0.01172 0.145529,0.02556 0.290074,0.05455 0.429688,0.0957 0.0142,0.0042 0.02883,0.0074 0.04297,0.01172 0.05375,0.01649 0.103464,0.04182 0.15625,0.06055 0.121915,0.04325 0.244783,0.08462 0.361328,0.138671 0.153317,0.07112 0.299893,0.155102 0.441406,0.246094 0.03364,0.02093 0.07055,0.03675 0.103516,0.05859 0.03562,0.02328 0.0676,0.05101 0.101562,0.07617 0.03772,0.02785 0.07378,0.05787 0.111328,0.08594 0.03765,0.02814 0.07677,0.05433 0.113282,0.08398 0.184168,0.149588 0.359898,0.309633 0.517578,0.488281 0.128725,0.144403 0.247312,0.297456 0.355469,0.458984 0.108242,0.161135 0.205999,0.329815 0.292968,0.50586 l 0,0.002 c 0.07225,0.146391 0.137963,0.296638 0.195313,0.451172 l 0,0.002 c 0.05728,0.154548 0.108131,0.312533 0.148437,0.474609 l 0,0.002 c 0.04024,0.162095 0.07061,0.327085 0.0918,0.496094 0.02142,0.170086 0.03323,0.342861 0.0332,0.519531 l 0,0.01953 c 3.048901,0.307628 5.374606,2.938251 5.378906,6.083984 -0.0027,2.694986 -1.722476,5.07029 -4.234374,5.851562 l 0,7.603516 0,0.002 0,1.103516 0,0.527344 c -1.816165,0.786294 -3.767286,1.192965 -5.738282,1.197265 -0.141254,-5.4e-4 -0.280923,-0.0091 -0.421875,-0.01367 -0.0013,-4.3e-5 -0.0026,4.4e-5 -0.0039,0 -0.503054,-0.01679 -1.003184,-0.06995 -1.5,-0.138672 -0.0563,-0.0078 -0.11372,-0.0072 -0.169922,-0.01562 -0.0066,-9.89e-4 -0.01295,-0.0029 -0.01953,-0.0039 -0.07962,-0.012 -0.156929,-0.03552 -0.236328,-0.04883 -0.368357,-0.06215 -0.73322,-0.138229 -1.095703,-0.228515 -0.133084,-0.03296 -0.266288,-0.06288 -0.398438,-0.09961 -0.465161,-0.12987 -0.925517,-0.275455 -1.376953,-0.451172 -0.0033,-0.0013 -0.0065,-0.0026 -0.0098,-0.0039 -0.0077,-0.003 -0.01575,-0.0048 -0.02344,-0.0078 -0.225642,-0.08845 -0.448595,-0.18554 -0.669922,-0.285157 -0.03413,-0.01526 -0.06949,-0.02743 -0.103516,-0.04297 -0.08373,-0.03847 -0.164949,-0.08292 -0.248047,-0.123046 -0.177143,-0.08506 -0.355212,-0.168571 -0.529296,-0.261719 l 0,-0.002 0,-1.103516 0,-7.208984 0,-4.605469 c 0.161076,0.01572 0.323138,0.03125 0.488281,0.03125 l 3.423828,0 1.232422,0 0.002,-0.002 1.216797,0 2.21875,0 c -0.681133,-0.02382 -1.458821,-0.0538 -2.220703,-0.08203 -0.332201,-0.01231 -0.737239,-0.03039 -1.121094,-0.04687 -0.255458,-0.01097 -0.479948,-0.01962 -0.746094,-0.03125 -0.0024,-9.9e-5 -0.0037,1.01e-4 -0.0059,0 -0.518323,-0.02265 -1.215837,-0.05914 -1.833985,-0.08984 -0.728864,-0.03619 -1.254469,-0.05633 -2.164062,-0.107422 -2.836953,-0.159361 -5.822189,-2.420273 -5.822266,-5.337891 3.1e-5,-1.050635 0.310146,-2.019999 0.830078,-2.83789 0.123537,-0.197495 0.262805,-0.38169 0.410157,-0.558594 0.0415,-0.04973 0.07985,-0.102235 0.123047,-0.150391 0.176469,-0.196437 0.36652,-0.380179 0.570312,-0.548828 0.05101,-0.03851 0.105607,-0.07218 0.15625,-0.111328 -0.294487,-0.283569 -0.511192,-0.453554 -0.511192,-0.453554 0,0 -0.293529,0.267594 -0.764198,0.877382 l 0.0059,-0.002 c -0.146866,0.169301 -0.272801,0.355721 -0.398438,0.542969 -0.205359,0.306067 -0.391193,0.628218 -0.527343,0.984375 -0.98243,2.04206 -0.387676,4.548553 1.175781,6.136719 0.944442,1.010656 2.192083,1.753542 3.554687,2.048828 l 0,3.476562 c -0.341683,0.187769 -0.696618,0.353997 -1.078125,0.472656 l 0,0.197266 0,7.40625 0,0.002 0,1.101563 0,0.002 0,0.527344 c -1.816163,0.786294 -3.767287,1.192965 -5.738281,1.197265 -0.141252,-5.4e-4 -0.280923,-0.0091 -0.421875,-0.01367 -0.561621,-0.01859 -1.120231,-0.07171 -1.673828,-0.154296 -0.0066,-9.89e-4 -0.01295,-0.0029 -0.01953,-0.0039 -0.01579,-0.0024 -0.03109,-0.0073 -0.04687,-0.0098 -0.375128,-0.05778 -0.747849,-0.130073 -1.117188,-0.216797 -0.03262,-0.0077 -0.06509,-0.01555 -0.09766,-0.02344 -0.04526,-0.01096 -0.08961,-0.02572 -0.134766,-0.03711 -0.175429,-0.04432 -0.347728,-0.09756 -0.521484,-0.148438 -0.321184,-0.09387 -0.638521,-0.198339 -0.953125,-0.314453 -0.158843,-0.05871 -0.317658,-0.115337 -0.474609,-0.179687 -0.10629,-0.04352 -0.212995,-0.08475 -0.31836,-0.13086 -0.311032,-0.136101 -0.61772,-0.284847 -0.919922,-0.443359 -0.03496,-0.01834 -0.07259,-0.03019 -0.107421,-0.04883 l 0,-0.002 0,-1.103516 0,-11.814453 c 0.161075,0.01572 0.323139,0.02929 0.488281,0.0293 l 3.423828,0 2.449219,0 2.21875,0 c -0.681132,-0.02382 -1.45687,-0.0538 -2.21875,-0.08203 -0.553283,-0.02051 -1.201128,-0.04901 -1.867188,-0.07813 -0.0024,-9.9e-5 -0.0036,1.01e-4 -0.0059,0 -0.518321,-0.02265 -1.21584,-0.05914 -1.833985,-0.08984 -0.728865,-0.03619 -1.254468,-0.05633 -2.164062,-0.107422 -0.354619,-0.01992 -0.71132,-0.07348 -1.064453,-0.15625 -0.706266,-0.165543 -1.39851,-0.450899 -2.025391,-0.833984 -0.627344,-0.383369 -1.18893,-0.863924 -1.638672,-1.419922 -0.112394,-0.138927 -0.216965,-0.281755 -0.314453,-0.429688 -0.09782,-0.148379 -0.186312,-0.300291 -0.267578,-0.457031 -0.08078,-0.155703 -0.153862,-0.315271 -0.216797,-0.478516 l 0,-0.002 c -0.06286,-0.163243 -0.116651,-0.32992 -0.160156,-0.5 l 0,-0.002 c -0.04343,-0.170089 -0.07705,-0.343309 -0.09961,-0.519531 l 0,-0.002 c -0.02248,-0.176244 -0.03507,-0.355435 -0.03516,-0.53711 l 0,-0.002 c 5e-6,-0.181694 0.0099,-0.362059 0.02734,-0.539062 l 0,-0.002 c 0.0175,-0.176977 0.04404,-0.350084 0.07813,-0.521485 l 0,-0.002 c 0.03414,-0.171383 0.07513,-0.340937 0.125,-0.505859 l 0,-0.002 c 0.04992,-0.164906 0.109033,-0.324863 0.173828,-0.482422 l 0,-0.002 c 0.129938,-0.315655 0.290118,-0.615659 0.474609,-0.896485 l 0,-0.002 c 0.184614,-0.280811 0.394639,-0.540438 0.626954,-0.779297 0.931028,-0.957252 2.217421,-1.550879 3.638672,-1.548828 0.766659,0.0011 1.460263,0.07931 2.076171,0.255859 0.615909,0.176065 1.154123,0.451436 1.613282,0.847657 0.08314,-0.15356 0.176072,-0.297854 0.27539,-0.4375 0.04396,-0.06219 0.0918,-0.120296 0.138672,-0.179688 0.04808,-0.06051 0.09745,-0.120231 0.148438,-0.177734 0.185556,-0.210659 0.38753,-0.400412 0.607421,-0.568359 0.0036,-0.0028 0.0061,-0.007 0.0098,-0.0098 z m 30.558594,0.0918 -0.0332,0.0039 c 0.322037,0.304654 0.606282,0.651068 0.80664,1.056641 0.252984,0.512094 0.410276,1.083749 0.410157,1.697265 l 0,0.01563 c 1.118785,0.112884 2.111478,0.599363 2.902343,1.3125 z m -5.519531,0.634766 -0.519532,0.06055 c 0.112893,0.0756 0.23427,0.139098 0.337891,0.228516 0.05468,-0.100999 0.118953,-0.194709 0.181641,-0.289062 z M 13.623047,34.390625 c 0,0 -0.105433,2.075741 -0.238281,3.080078 -0.0563,0.42566 -0.236331,0.971098 -0.236328,1.234375 0,0.526554 0.214005,0.953125 0.474609,0.953125 0.260603,0 0.470702,-0.426571 0.470703,-0.953125 0,-0.263276 -0.180028,-0.808715 -0.236328,-1.234375 -0.132848,-1.004337 -0.234375,-3.080078 -0.234375,-3.080078 z m 36.996094,0 c 0,0 -0.103482,2.075741 -0.236329,3.080078 -0.0563,0.425661 -0.234377,0.971097 -0.234374,1.234375 0,0.526554 0.210101,0.953125 0.470703,0.953125 0.260605,0 0.472653,-0.426571 0.472656,-0.953125 0,-0.263277 -0.180028,-0.808715 -0.236328,-1.234375 -0.132847,-1.004337 -0.236328,-3.080078 -0.236328,-3.080078 z M 17,34.984375 c 0,0 -0.01408,0.242944 -0.01758,0.308594 l 0,0.0039 c -0.02284,0.432201 -0.103677,1.897634 -0.21875,2.767578 -0.0563,0.425659 -0.236328,0.971099 -0.236328,1.234375 1e-6,0.526555 0.212053,0.953125 0.472656,0.953125 0.0039,0 0.0078,-0.0037 0.01172,-0.0039 0.255244,-0.01241 0.460936,-0.430475 0.460937,-0.949219 0,-0.263277 -0.178075,-0.808717 -0.234375,-1.234375 C 17.105433,37.060122 17,34.984375 17,34.984375 Z m 3.753906,4.59375 c -8.6e-5,0.0017 -0.02938,0.593856 -0.07813,1.332031 l 0,0.002 c -0.04881,0.738856 -0.117212,1.621587 -0.193359,2.197266 l 0,0.002 c -0.0646,0.4884 -0.269532,1.113935 -0.269531,1.416016 0,0.604167 0.241998,1.09375 0.541015,1.09375 0.299014,0 0.541016,-0.489583 0.541016,-1.09375 2e-6,-0.302081 -0.206885,-0.927616 -0.271484,-1.416016 -0.152429,-1.152374 -0.269532,-3.533203 -0.269532,-3.533203 z m 7.509766,0 c -8.7e-5,0.0017 -0.02938,0.593856 -0.07813,1.332031 l 0,0.002 c -0.04881,0.738856 -0.117212,1.621588 -0.193359,2.197266 l 0,0.002 c -0.0646,0.488399 -0.269534,1.113933 -0.269532,1.416016 0,0.604167 0.242,1.09375 0.541016,1.09375 0.299015,0 0.542968,-0.489583 0.542969,-1.09375 1e-6,-0.302083 -0.206885,-0.927617 -0.271485,-1.416016 -0.152428,-1.152372 -0.271484,-3.533203 -0.271484,-3.533203 z m 6.820312,0 c -8.5e-5,0.0017 -0.02987,0.593856 -0.07813,1.332031 l 0,0.002 c -0.04832,0.738856 -0.115259,1.621587 -0.191406,2.197266 l 0,0.002 c -0.0646,0.4884 -0.271487,1.113935 -0.271484,1.416016 0,0.604167 0.241999,1.09375 0.541015,1.09375 0.299014,0 0.541016,-0.489583 0.541016,-1.09375 0,-0.302081 -0.206874,-0.927616 -0.271484,-1.416016 -0.152428,-1.152374 -0.269532,-3.533203 -0.269532,-3.533203 z m 7.509766,0 c -8.5e-5,0.0017 -0.02987,0.593856 -0.07813,1.332031 l 0,0.002 c -0.04832,0.738856 -0.11526,1.621588 -0.191406,2.197266 l 0,0.002 c -0.0646,0.488399 -0.269531,1.113933 -0.269531,1.416016 2e-6,0.604167 0.240049,1.09375 0.539062,1.09375 0.299016,0 0.542969,-0.489583 0.542969,-1.09375 3e-6,-0.302083 -0.206875,-0.927617 -0.271485,-1.416016 -0.152426,-1.152372 -0.271484,-3.533203 -0.271484,-3.533203 z m -17.960938,0.681641 c 0,0 -0.01738,0.278185 -0.02148,0.353515 l 0,0.002 0,0.002 c -6.67e-4,0.01168 -0.0033,0.04562 -0.0039,0.05664 l 0,0.002 c -0.0094,0.176287 -0.02579,0.453559 -0.04492,0.748047 -0.0013,0.01994 -0.0026,0.02846 -0.0039,0.04883 -0.0056,0.08907 -0.0077,0.134687 -0.01367,0.226563 -0.04497,0.694991 -0.10266,1.479945 -0.183594,2.091797 l 0,0.002 c -0.03239,0.243775 -0.100504,0.520812 -0.160156,0.77539 l 0,0.002 c -0.05957,0.254298 -0.111328,0.486127 -0.111328,0.636719 0,0.151042 0.01543,0.29474 0.04297,0.425781 l 0,0.002 c 0.02753,0.130251 0.06825,0.247001 0.117188,0.345703 0.09842,0.198797 0.232927,0.322265 0.382812,0.322265 0.0045,0 0.0074,-0.0037 0.01172,-0.0039 0.07322,-0.0036 0.143682,-0.03546 0.207031,-0.0918 0.190049,-0.16957 0.322265,-0.551644 0.322266,-0.998047 0,-0.302083 -0.204921,-0.927617 -0.269531,-1.416015 -0.07633,-0.577025 -0.144527,-1.461261 -0.193359,-2.201172 -0.04875,-0.738176 -0.07804,-1.330298 -0.07813,-1.332031 z m 14.330079,0 c 0,0 -0.01738,0.278185 -0.02148,0.353515 l 0,0.002 0,0.002 c -0.01014,0.19185 -0.03803,0.643453 -0.06641,1.082031 -0.04497,0.694991 -0.10266,1.479945 -0.183594,2.091797 l 0,0.002 c -0.03239,0.243775 -0.100504,0.520812 -0.160156,0.77539 l 0,0.002 c -0.05957,0.254298 -0.111328,0.486127 -0.111328,0.636719 0,0.151042 0.01543,0.29474 0.04297,0.425781 l 0,0.002 c 0.02753,0.130251 0.06825,0.247001 0.117187,0.345703 0.09842,0.198797 0.232928,0.322265 0.382813,0.322265 0.0045,0 0.0073,-0.0037 0.01172,-0.0039 0.07322,-0.0036 0.143682,-0.03546 0.207032,-0.0918 0.190049,-0.16957 0.322265,-0.551644 0.322265,-0.998047 0,-0.302083 -0.204921,-0.927617 -0.269531,-1.416015 -0.07632,-0.577025 -0.144526,-1.461261 -0.193359,-2.201172 -0.04875,-0.738176 -0.07804,-1.330297 -0.07813,-1.332031 z"
       id="rect4687"
       inkscape:connector-curvature="0"
       sodipodi:nodetypes="ccsccccssccccccccscccccccccccccccccccccccsscsccccccccsccccccccccccsccccccccccccccccccccccccccccccccccccccccccccccccccscccscccccccccsccccccccccccccccssccccscccccccccscccssscccccccccccccccccccccssccccccccccscccccccccscsssccscssscccccsscssccccccssssccccccssssccccccssscccccccssscccccccccccccccscccsccscccccccsccccscccsccsccc" />
    <path
       style="opacity:0.65499998;fill:#ffffff;fill-opacity:1;stroke:none;stroke-width:1.41400003;stroke-miterlimit:4;stroke-dasharray:none;stroke-opacity:1"
       d="m 18.254514,19.019914 c 0.140393,0.02357 0.278401,0.05292 0.412785,0.09253 -0.134502,-0.0391 -0.272485,-0.06928 -0.412785,-0.09253 z m 1.376874,0.542439 c 0.09904,0.06562 0.190919,0.140095 0.283132,0.21498 -0.09305,-0.07463 -0.183206,-0.149668 -0.283132,-0.21498 z m 1.299858,1.481594 -2.77979,0.596739 -0.127437,0.785123 c 1.228608,-0.06351 2.476394,0.212603 3.533885,0.862693 0.109404,-0.152856 0.228611,-0.298465 0.355715,-0.43661 -0.187306,-0.04231 -0.378144,-0.0756 -0.573466,-0.0953 l 0,-0.01607 c 1.22e-4,-0.613516 -0.155924,-1.184481 -0.408907,-1.696576 z m -7.139246,2.361465 -2.51716,1.128649 1.559719,1.268276 c 0.368714,-0.867296 0.953843,-1.580053 1.671088,-2.123767 L 13.792,23.405412 Z m 3.182602,10.47976 0.0083,1.408457 c 0.0035,-0.06565 0.01718,-0.307512 0.01718,-0.307512 0,0 0.105403,2.074105 0.238252,3.078437 0.0563,0.425658 0.234373,0.971754 0.234373,1.235031 -1e-6,0.518744 -0.205192,0.937825 -0.460436,0.950237 l 0.01053,1.981924 -0.05375,0.0089 c 0.122845,0.0041 0.245907,0.01171 0.369014,0.01219 0.102215,-2.28e-4 0.203569,-0.006 0.305295,-0.01109 l 0,-3.935035 c -0.306577,-1.319909 0.594484,-3.585651 -0.412231,-4.355024 -0.086,-0.01976 -0.171429,-0.04283 -0.256537,-0.06649 z m 0.0067,1.462756 c -0.0093,0.17389 -0.03255,0.530332 -0.05596,0.892059 0.03242,-0.482443 0.04474,-0.682075 0.05596,-0.892059 z m -4.90357,5.73633 c 0.10765,0.04971 0.216431,0.09135 0.325242,0.137965 -0.10897,-0.04657 -0.217436,-0.08826 -0.325242,-0.137965 z m 0.677079,0.286457 c 0.154339,0.06072 0.310749,0.115546 0.467085,0.170101 -0.156183,-0.05427 -0.312896,-0.109642 -0.467085,-0.170101 z m 0.687606,0.248779 c 0.167932,0.05517 0.337073,0.103757 0.506978,0.151817 -0.170132,-0.04785 -0.338828,-0.09683 -0.506978,-0.151817 z m 0.706444,0.206116 c 0.190267,0.05049 0.381687,0.09531 0.574021,0.136856 -0.192349,-0.04125 -0.383736,-0.08668 -0.574021,-0.136856 z m 0.690931,0.162897 c 0.222752,0.04591 0.447091,0.08529 0.672092,0.119126 -0.22492,-0.03355 -0.449413,-0.07356 -0.672092,-0.119126 z m 0.689269,0.122451 c 0.234354,0.0349 0.470727,0.06255 0.706998,0.08422 -0.236251,-0.02149 -0.472651,-0.04961 -0.706998,-0.08422 z m 0.72085,0.08588 c 0.238377,0.02158 0.477189,0.03578 0.716972,0.04377 -0.23961,-0.008 -0.478752,-0.02236 -0.716972,-0.04377 z"
       id="path4521"
       inkscape:connector-curvature="0" />
    <path
       style="fill:#ffffff;fill-rule:evenodd;stroke:none;stroke-width:1px;stroke-linecap:butt;stroke-linejoin:miter;stroke-opacity:1"
       d="m 17.66664,18.967277 c -1.333459,3.41e-4 -2.561831,0.743648 -3.209751,1.940368 -0.800348,-0.690645 -1.878945,-0.960531 -3.215293,-0.962427 -2.4764067,-0.0035 -4.4834983,2.063203 -4.4835688,4.60602 6.62e-5,2.542817 2.6022514,4.512563 5.0747658,4.651452 0.246597,0.01385 0.399732,0.01982 0.58621,0.02881 -0.216836,-0.954026 -0.169144,-1.965222 0.237144,-2.952661 0.0514,-0.164272 0.11272,-0.321981 0.178412,-0.476504 L 11.27484,24.534059 13.792,23.40541 l 0.713647,0.273158 c 0.997392,-0.75608 2.246886,-1.187033 3.518372,-1.252761 l 0.127437,-0.785123 2.77979,-0.596739 c -0.606073,-1.22682 -1.833195,-2.076344 -3.264606,-2.07667 z m -6.2627,10.522424 0,10.298023 0,0.960766 c 1.72332,0.922107 3.626007,1.427933 5.565121,1.492121 l 0.05374,-0.0089 -0.01052,-1.981924 c -0.0039,1.86e-4 -0.0083,0.0033 -0.01219,0.0033 -0.260603,0 -0.472071,-0.427007 -0.472072,-0.953562 0,-0.263276 0.179733,-0.809372 0.236037,-1.235031 0.115073,-0.869944 0.19602,-2.334845 0.218859,-2.767046 l -0.0083,-1.412336 c -2.09234,-0.58151 -3.896392,-2.319004 -4.48246,-4.36943 l -0.662673,0 c -0.143928,-3e-6 -0.285146,-0.01235 -0.425529,-0.02604 z m 2.218513,4.90134 c 0,0 0.101526,2.076316 0.234374,3.080653 0.0563,0.42566 0.236035,0.970094 0.236035,1.23337 -1e-6,0.526554 -0.209806,0.953561 -0.470409,0.953561 -0.260604,0 -0.474287,-0.427007 -0.474288,-0.953561 -1e-6,-0.263277 0.179734,-0.80771 0.236036,-1.23337 0.132848,-1.004337 0.238252,-3.080653 0.238252,-3.080653 z"
       id="path4526"
       inkscape:connector-curvature="0" />
    <path
       style="opacity:0.65499998;fill:#ffffff;fill-opacity:1;stroke:none;stroke-width:1.41400003;stroke-miterlimit:4;stroke-dasharray:none;stroke-opacity:1"
       d="M 25.396484 21.880859 C 25.582269 21.880902 25.764275 21.895712 25.943359 21.919922 C 25.763867 21.895942 25.582333 21.880909 25.396484 21.880859 z M 26.070312 21.941406 C 26.2314 21.968456 26.39073 22.001428 26.544922 22.046875 C 26.390595 22.002035 26.231291 21.968093 26.070312 21.941406 z M 26.587891 22.058594 C 26.765795 22.113174 26.936508 22.180355 27.103516 22.257812 C 26.935916 22.181213 26.766173 22.112525 26.587891 22.058594 z M 27.650391 22.5625 C 27.764025 22.6378 27.868805 22.724624 27.974609 22.810547 C 27.86784 22.724907 27.765047 22.637438 27.650391 22.5625 z M 28.029297 24.501953 L 25.951172 24.947266 L 25.347656 28.654297 L 20.951172 26.972656 L 18.0625 28.267578 L 20.820312 30.509766 L 20.865234 33.732422 C 21.483379 33.763122 22.180898 33.799616 22.699219 33.822266 C 22.701519 33.822367 22.702678 33.822167 22.705078 33.822266 L 24.572266 33.830078 L 24.572266 33.900391 C 25.334146 33.928621 26.109884 33.958602 26.791016 33.982422 C 26.810496 33.983107 26.834036 33.983557 26.853516 33.984375 L 24.572266 33.984375 L 24.611328 40.613281 C 24.615428 40.537951 24.632812 40.259766 24.632812 40.259766 C 24.632812 40.259766 24.751868 42.640601 24.904297 43.792969 C 24.968907 44.281367 25.173828 44.906901 25.173828 45.208984 C 25.173826 45.804188 24.937396 46.286538 24.644531 46.300781 L 24.658203 48.574219 L 24.595703 48.583984 C 24.736655 48.588584 24.876326 48.597116 25.017578 48.597656 C 26.988572 48.593356 28.939696 48.186685 30.755859 47.400391 L 30.755859 46.873047 L 30.755859 45.769531 L 30.755859 38.164062 C 31.137366 38.045403 31.492301 37.879175 31.833984 37.691406 L 31.833984 34.214844 C 30.47138 33.919558 29.223739 33.176672 28.279297 32.166016 C 26.71584 30.57785 26.121086 28.071357 27.103516 26.029297 C 27.322961 25.455248 27.64237 24.947985 28.029297 24.501953 z M 34.830078 33.085938 C 34.596603 33.401606 34.995342 33.279347 34.830078 33.085938 z M 34.693359 33.990234 C 34.192427 34.163666 34.384297 34.375886 34.603516 34.4375 C 34.650411 34.308305 34.692031 34.17774 34.730469 34.044922 C 34.714055 34.024174 34.713207 34.012878 34.693359 33.990234 z M 28.263672 39.578125 C 28.263672 39.578125 28.382728 41.958956 28.535156 43.111328 C 28.599756 43.599727 28.806642 44.225261 28.806641 44.527344 C 28.80664 45.131511 28.562687 45.621094 28.263672 45.621094 C 27.964656 45.621094 27.722656 45.131511 27.722656 44.527344 C 27.722654 44.225261 27.927588 43.599727 27.992188 43.111328 C 28.144617 41.958956 28.263672 39.578125 28.263672 39.578125 z M 24.607422 40.675781 C 24.596822 40.875303 24.571792 41.284174 24.544922 41.699219 C 24.582112 41.145668 24.594542 40.916716 24.607422 40.675781 z M 18.982422 47.255859 C 19.10594 47.312899 19.232576 47.362528 19.357422 47.416016 C 19.232394 47.362576 19.106117 47.31289 18.982422 47.255859 z M 19.759766 47.585938 C 19.936855 47.655617 20.117497 47.718652 20.296875 47.78125 C 20.117672 47.71898 19.936682 47.655308 19.759766 47.585938 z M 20.548828 47.871094 C 20.741512 47.934394 20.935911 47.989777 21.130859 48.044922 C 20.935652 47.990032 20.741762 47.934186 20.548828 47.871094 z M 21.359375 48.109375 C 21.577686 48.167305 21.796895 48.217957 22.017578 48.265625 C 21.796876 48.218305 21.577705 48.166945 21.359375 48.109375 z M 22.152344 48.294922 C 22.407928 48.347602 22.66371 48.392817 22.921875 48.431641 C 22.663802 48.393141 22.407844 48.347206 22.152344 48.294922 z M 22.943359 48.435547 C 23.212258 48.475577 23.482809 48.50639 23.753906 48.53125 C 23.482832 48.50659 23.212247 48.475257 22.943359 48.435547 z M 23.769531 48.533203 C 24.043042 48.557983 24.316673 48.574804 24.591797 48.583984 C 24.31687 48.574784 24.042864 48.557773 23.769531 48.533203 z "
       id="path4568" />
    <path
       style="fill:#ffffff;fill-rule:evenodd;stroke:none;stroke-width:1px;stroke-linecap:butt;stroke-linejoin:miter;stroke-opacity:1"
       d="m 25.396102,21.880222 c -1.530006,3.97e-4 -2.939671,0.852056 -3.68309,2.225167 -0.918318,-0.792442 -2.156151,-1.100041 -3.68947,-1.102215 -2.841419,-0.0041 -5.144122,2.365361 -5.144205,5.282977 7.7e-5,2.917618 2.985169,5.179446 5.822122,5.338807 0.909594,0.05109 1.434092,0.07068 2.162957,0.106871 l -0.04467,-3.222105 -2.75793,-2.242714 2.888728,-1.293628 4.397698,1.681237 0.602947,-3.707015 2.072247,-0.444498 c 0.643825,-0.804214 0.758524,-0.858784 0.758524,-0.858784 0,0 -0.106562,-0.145061 -0.242408,-0.294473 -0.767861,-0.898546 -1.886913,-1.469341 -3.14345,-1.469627 z M 22.698785,33.82275 c 0.668265,0.02921 1.317633,0.05759 1.872649,0.07816 l 0,-0.07178 -1.872649,-0.0065 z m -4.488618,0.130798 0,11.814919 0,1.103812 c 1.977332,1.058022 4.160261,1.637894 6.385194,1.711543 l 0.06221,-0.0096 -0.01277,-2.274615 c -0.0043,2.14e-4 -0.0083,0.0032 -0.01276,0.0032 -0.299016,0 -0.542334,-0.490074 -0.542334,-1.09424 0,-0.302082 0.206565,-0.928051 0.271167,-1.41645 0.132035,-0.998171 0.224226,-2.679943 0.25043,-3.175848 l -0.03828,-6.632433 -2.450077,0 -3.424683,0 c -0.165142,-4e-6 -0.327026,-0.01459 -0.488101,-0.03031 z m 2.544189,5.62433 c 0,0 0.117144,2.380776 0.269572,3.53315 0.0646,0.4884 0.271168,1.114368 0.271166,1.416449 0,0.604167 -0.241724,1.094243 -0.540738,1.094243 -0.299017,0 -0.542335,-0.490076 -0.542335,-1.094243 -1e-6,-0.302081 0.206566,-0.928049 0.271167,-1.416449 0.152429,-1.152374 0.271168,-3.53315 0.271168,-3.53315 z"
       id="path4570"
       inkscape:connector-curvature="0"
       sodipodi:nodetypes="ccccscccccccccccccccccccccssscccccccsssssc" />
    <path
       style="opacity:0.65499998;fill:#ffffff;fill-opacity:1;stroke:none;stroke-width:1.41400003;stroke-miterlimit:4;stroke-dasharray:none;stroke-opacity:1"
       d="m 48.706433,19.019914 c 0.140394,0.02357 0.278404,0.05292 0.412787,0.09253 -0.134502,-0.0391 -0.272487,-0.06928 -0.412787,-0.09253 z m 1.376873,0.542439 c 0.09904,0.06562 0.191475,0.140095 0.283687,0.21498 -0.09305,-0.07463 -0.183761,-0.149668 -0.283687,-0.21498 z m 1.299861,1.481594 -2.77979,0.596739 -0.526371,3.230806 -3.833087,-1.46608 -0.452677,0.202792 c 0.378646,0.588205 0.623782,1.263309 0.678741,1.99522 1.201323,0.478813 2.813552,1.028143 3.718945,2.218513 0.482873,0.505074 0.856414,1.078436 1.128094,1.691589 0.0055,1.92e-4 0.01229,3.64e-4 0.01773,5.54e-4 0.01699,5.96e-4 0.03734,9.66e-4 0.0543,0.0016 l -0.07092,0 c 1.161462,2.624147 0.44207,5.979438 -1.69436,7.883922 0.02022,0.247196 0.04171,0.477557 0.06649,0.66489 0.0563,0.425658 0.234374,0.971754 0.234374,1.235031 0,0.518744 -0.204637,0.937824 -0.459881,0.950237 l 0.01053,1.981924 -0.0543,0.0089 c 0.122845,0.0041 0.245905,0.01171 0.369013,0.01219 1.717798,-0.0039 3.416556,-0.357482 4.999413,-1.042767 l 0,-0.461544 0,-0.960765 0,-6.627836 c 2.189216,-0.680911 3.68724,-2.752578 3.68958,-5.101362 -0.0038,-2.74163 -2.029124,-5.033825 -4.686359,-5.301936 l 0,-0.01607 c 1.19e-4,-0.613516 -0.156478,-1.184481 -0.409461,-1.696575 z m -0.764625,13.347094 c 0,0 0.103189,2.076316 0.236036,3.080653 0.0563,0.42566 0.236591,0.970093 0.236591,1.23337 -3e-6,0.526554 -0.212022,0.953561 -0.472627,0.953561 -0.260602,0 -0.470408,-0.427007 -0.470408,-0.953561 -2e-6,-0.263278 0.17807,-0.807709 0.234373,-1.23337 0.132847,-1.004337 0.236035,-3.080653 0.236035,-3.080653 z m -4.637599,7.719917 c 0.234356,0.0349 0.470726,0.06255 0.706997,0.08422 -0.236252,-0.02149 -0.47265,-0.04961 -0.706997,-0.08422 z m 0.720849,0.08588 c 0.238375,0.02158 0.477744,0.03578 0.717527,0.04377 -0.23961,-0.008 -0.479307,-0.02236 -0.717527,-0.04377 z"
       id="path4636"
       inkscape:connector-curvature="0" />
    <path
       style="fill:#ffffff;fill-rule:evenodd;stroke:none;stroke-width:1px;stroke-linecap:butt;stroke-linejoin:miter;stroke-opacity:1"
       d="m 48.11856,18.967277 c -1.333243,5.47e-4 -2.561921,0.743815 -3.209752,1.940368 -0.800346,-0.690645 -1.878942,-0.960531 -3.215292,-0.962427 -1.327817,-0.0018 -2.508674,0.599877 -3.325,1.545313 2.002014,-0.602467 4.299783,0.373256 5.422726,2.117673 l 0.452677,-0.202792 3.833087,1.46608 0.526371,-3.230806 2.77979,-0.596739 c -0.605996,-1.22666 -1.832881,-2.076123 -3.264052,-2.07667 l -5.55e-4,0 z m -0.864355,18.737129 c -0.44383,0.335972 -0.938422,0.614585 -1.483258,0.816705 -0.107514,1.130135 -0.136938,2.31401 -0.137965,3.517263 0.58975,0.109055 1.185867,0.182306 1.788,0.202237 l 0.05429,-0.0089 -0.01053,-1.981924 c -0.0039,1.86e-4 -0.0083,0.0033 -0.01219,0.0033 -0.260603,0 -0.472624,-0.427007 -0.472627,-0.953562 0,-0.263276 0.179733,-0.809372 0.236036,-1.235031 0.01413,-0.106788 0.02577,-0.23651 0.03823,-0.360148 z"
       id="path4638"
       inkscape:connector-curvature="0" />
    <path
       inkscape:connector-curvature="0"
       id="path4640"
       d="m 39.726507,21.880222 c 0.185783,4.3e-5 0.368036,0.01567 0.547119,0.03988 -0.179491,-0.02398 -0.361272,-0.03983 -0.547119,-0.03988 z m 0.674726,0.06062 c 0.161089,0.02705 0.319553,0.05983 0.473747,0.105277 -0.154328,-0.04484 -0.312766,-0.07859 -0.473747,-0.105277 z m 0.516814,0.118038 c 0.177905,0.05458 0.349805,0.121932 0.51681,0.199389 -0.167598,-0.0766 -0.338527,-0.145458 -0.51681,-0.199389 z m 1.062336,0.504052 c 0.113633,0.0753 0.219599,0.161318 0.325402,0.247241 -0.106768,-0.08564 -0.210745,-0.172303 -0.325402,-0.247241 z m 0.502459,0.395585 c 0.118794,0.107665 0.234892,0.217546 0.341351,0.338162 C 42.7169,23.176316 42.602637,23.06579 42.482842,22.958517 Z m 0.341351,0.338162 c 0.255405,0.289368 0.473761,0.614719 0.647613,0.966631 -0.17417,-0.352558 -0.390162,-0.677824 -0.647613,-0.966631 z m 0.647613,0.966631 -3.190206,0.6843 -0.602949,3.707016 -4.397695,-1.681237 -2.888728,1.293627 2.757929,2.242714 0.04467,3.222105 c 0.618147,0.0307 1.316046,0.06827 1.834369,0.09092 0.0022,1.01e-4 0.0041,-9.9e-5 0.0065,0 l 1.86627,0.0065 0,0.07178 c 0.761882,0.02823 1.53925,0.05753 2.220383,0.08135 0.01946,6.85e-4 0.04114,8.82e-4 0.06062,0.0017 l -2.279401,0 0.03828,6.629244 c 0.0041,-0.07533 0.02074,-0.354113 0.02074,-0.354113 0,0 0.11874,2.380782 0.271168,3.53315 0.06461,0.488398 0.269572,1.114367 0.269572,1.41645 0,0.595204 -0.235113,1.076808 -0.527979,1.091051 l 0.01277,2.274615 -0.06221,0.0096 c 0.140952,0.0046 0.281447,0.01382 0.422701,0.01436 1.970996,-0.0043 3.921416,-0.411629 5.737579,-1.197923 l 0,-0.527978 0,-1.103811 0,-7.603852 c 2.511898,-0.781273 4.230718,-3.157442 4.233401,-5.852428 -0.0043,-3.145733 -2.329782,-5.776089 -5.378683,-6.083717 l 0,-0.01915 c 9.7e-5,-0.704011 -0.178733,-1.358514 -0.469004,-1.94609 z m -4.569969,9.637605 c -0.553129,-0.0205 -1.200403,-0.04906 -1.866269,-0.07816 0.666084,0.0291 1.312746,0.05765 1.866269,0.07816 z m 3.692661,5.676969 c 0,0 0.11874,2.380778 0.271166,3.53315 0.06461,0.488399 0.271171,1.114367 0.271168,1.41645 0,0.604167 -0.243318,1.09424 -0.542334,1.09424 -0.299013,0 -0.540737,-0.490073 -0.54074,-1.09424 0,-0.302083 0.204972,-0.928051 0.269573,-1.41645 0.152427,-1.152372 0.271167,-3.53315 0.271167,-3.53315 z m -3.655972,1.097429 c -0.01061,0.199522 -0.03695,0.60901 -0.06382,1.024055 0.03719,-0.553551 0.05094,-0.78312 0.06382,-1.024055 z m -5.625925,6.58139 c 0.123518,0.05704 0.250001,0.106022 0.374847,0.15951 -0.125029,-0.05344 -0.251152,-0.102479 -0.374847,-0.15951 z m 0.778409,0.330186 c 0.177088,0.06968 0.356577,0.132006 0.535954,0.194604 -0.179202,-0.06227 -0.359039,-0.125233 -0.535954,-0.194604 z m 0.78798,0.283931 c 0.192685,0.0633 0.387263,0.11872 0.582212,0.173865 -0.195207,-0.05489 -0.389276,-0.110773 -0.582212,-0.173865 z m 0.810313,0.237668 c 0.218311,0.05793 0.438093,0.108652 0.658776,0.15632 -0.2207,-0.04732 -0.440446,-0.09875 -0.658776,-0.15632 z m 0.792766,0.186627 c 0.255584,0.05268 0.512269,0.09676 0.770434,0.135584 -0.258075,-0.0385 -0.514935,-0.0833 -0.770434,-0.135584 z m 0.791169,0.140369 c 0.2689,0.04003 0.539216,0.07085 0.810312,0.09571 -0.271073,-0.02466 -0.541423,-0.056 -0.810312,-0.09571 z m 0.826263,0.0973 c 0.27351,0.02478 0.547948,0.04187 0.823073,0.05105 -0.274929,-0.0092 -0.549741,-0.02648 -0.823073,-0.05105 z"
       style="opacity:0.65499998;fill:#ffffff;fill-opacity:1;stroke:none;stroke-width:1.41400003;stroke-miterlimit:4;stroke-dasharray:none;stroke-opacity:1" />
    <path
       inkscape:connector-curvature="0"
       id="path4642"
       d="m 39.726507,21.880222 c -1.530007,3.97e-4 -2.939672,0.852056 -3.683093,2.225167 -0.918317,-0.792442 -2.156151,-1.100041 -3.689469,-1.102215 -2.841419,-0.0041 -5.144122,2.365361 -5.144204,5.282977 7.7e-5,2.917618 2.985169,5.179446 5.822122,5.338807 0.909593,0.05109 1.434092,0.07068 2.162957,0.106871 l -0.04467,-3.222105 -2.757931,-2.242714 2.88873,-1.293628 4.397695,1.681237 0.602949,-3.707015 3.190203,-0.6843 c -0.695398,-1.407649 -2.1029,-2.382708 -3.745294,-2.383082 z M 37.029189,33.82275 c 0.668265,0.02921 1.317633,0.05759 1.872648,0.07816 l 0,-0.07178 -1.872648,-0.0065 z m -4.488618,0.130798 0,11.814919 0,1.103812 c 1.977333,1.058022 4.160262,1.637894 6.385194,1.711543 l 0.06221,-0.0096 -0.01277,-2.274615 c -0.0044,2.14e-4 -0.0083,0.0032 -0.01276,0.0032 -0.299016,0 -0.542334,-0.490074 -0.542334,-1.09424 0,-0.302082 0.206564,-0.928051 0.271165,-1.41645 0.132035,-0.998171 0.224228,-2.679943 0.250432,-3.175848 l -0.03829,-6.632433 -2.450076,0 -3.424683,0 c -0.165143,-4e-6 -0.327026,-0.01459 -0.488102,-0.03031 z m 2.544188,5.62433 c 0,0 0.117145,2.380776 0.269573,3.53315 0.06461,0.4884 0.271167,1.114368 0.271167,1.416449 0,0.604167 -0.241726,1.094243 -0.54074,1.094243 -0.299016,0 -0.542334,-0.490076 -0.542334,-1.094243 -3e-6,-0.302081 0.206567,-0.928049 0.271168,-1.416449 0.152429,-1.152374 0.271166,-3.53315 0.271166,-3.53315 z"
       style="fill:#ffffff;fill-rule:evenodd;stroke:none;stroke-width:1px;stroke-linecap:butt;stroke-linejoin:miter;stroke-opacity:1" />
    <path
       style="fill:#ffffff;fill-rule:evenodd;stroke:none;stroke-width:1px;stroke-linecap:butt;stroke-linejoin:miter;stroke-opacity:1"
       d="m 39.726507,21.880222 c -1.530007,3.97e-4 -2.939672,0.852056 -3.683093,2.225167 -0.918317,-0.792442 -2.156151,-1.100041 -3.689469,-1.102215 -2.841419,-0.0041 -5.144122,2.365361 -5.144204,5.282977 7.7e-5,2.917618 2.985169,5.179446 5.822122,5.338807 0.909593,0.05109 1.434092,0.07068 2.162957,0.106871 l -0.04467,-3.222105 -2.757931,-2.242714 2.88873,-1.293628 4.397695,1.681237 0.602949,-3.707015 3.190203,-0.6843 c -0.695398,-1.407649 -2.1029,-2.382708 -3.745294,-2.383082 z M 37.029189,33.82275 c 0.668265,0.02921 1.317633,0.05759 1.872648,0.07816 l 0,-0.07178 -1.872648,-0.0065 z m -4.488618,0.130798 0,11.814919 0,1.103812 c 1.977333,1.058022 4.160262,1.637894 6.385194,1.711543 l 0.06221,-0.0096 -0.01277,-2.274615 c -0.0044,2.14e-4 -0.0083,0.0032 -0.01276,0.0032 -0.299016,0 -0.542334,-0.490074 -0.542334,-1.09424 0,-0.302082 0.206564,-0.928051 0.271165,-1.41645 0.132035,-0.998171 0.224228,-2.679943 0.250432,-3.175848 l -0.03829,-6.632433 -2.450076,0 -3.424683,0 c -0.165143,-4e-6 -0.327026,-0.01459 -0.488102,-0.03031 z m 2.544188,5.62433 c 0,0 0.117145,2.380776 0.269573,3.53315 0.06461,0.4884 0.271167,1.114368 0.271167,1.416449 0,0.604167 -0.241726,1.094243 -0.54074,1.094243 -0.299016,0 -0.542334,-0.490076 -0.542334,-1.094243 -3e-6,-0.302081 0.206567,-0.928049 0.271168,-1.416449 0.152429,-1.152374 0.271166,-3.53315 0.271166,-3.53315 z"
       id="path4767"
       inkscape:connector-curvature="0" />
  </g>
</svg>
