<?xml version="1.0" encoding="UTF-8" standalone="no"?>
<!-- Created with Inkscape (http://www.inkscape.org/) -->

<svg
   xmlns:dc="http://purl.org/dc/elements/1.1/"
   xmlns:cc="http://creativecommons.org/ns#"
   xmlns:rdf="http://www.w3.org/1999/02/22-rdf-syntax-ns#"
   xmlns:svg="http://www.w3.org/2000/svg"
   xmlns="http://www.w3.org/2000/svg"
   xmlns:sodipodi="http://sodipodi.sourceforge.net/DTD/sodipodi-0.dtd"
   xmlns:inkscape="http://www.inkscape.org/namespaces/inkscape"
   width="64"
   height="64"
   id="svg4263"
   version="1.1"
   inkscape:version="0.91 r13725"
   viewBox="0 0 64 64"
   inkscape:export-filename="C:\Users\emile\Desktop\SÉMINAIRE TAL\graphismes\allergenes\lactose_sq.png"
   inkscape:export-xdpi="105.46875"
   inkscape:export-ydpi="105.46875"
   sodipodi:docname="facile.svg">
  <defs
     id="defs4265">
    <pattern
       y="0"
       x="0"
       height="6"
       width="6"
       patternUnits="userSpaceOnUse"
       id="EMFhbasepattern" />
  </defs>
  <sodipodi:namedview
     id="base"
     pagecolor="#ffffff"
     bordercolor="#666666"
     borderopacity="1.0"
     inkscape:pageopacity="0.0"
     inkscape:pageshadow="2"
     inkscape:zoom="4.7355596"
     inkscape:cx="24.267232"
     inkscape:cy="34.076785"
     inkscape:current-layer="layer1"
     showgrid="true"
     inkscape:document-units="px"
     inkscape:grid-bbox="true"
     inkscape:snap-page="true"
     inkscape:snap-bbox="true"
     inkscape:bbox-nodes="true"
     inkscape:snap-nodes="true"
     inkscape:snap-others="false"
     inkscape:object-nodes="true"
     inkscape:window-width="1474"
     inkscape:window-height="841"
     inkscape:window-x="-8"
     inkscape:window-y="-8"
     inkscape:window-maximized="1" />
  <metadata
     id="metadata4268">
    <rdf:RDF>
      <cc:Work
         rdf:about="">
        <dc:format>image/svg+xml</dc:format>
        <dc:type
           rdf:resource="http://purl.org/dc/dcmitype/StillImage" />
        <dc:title></dc:title>
      </cc:Work>
    </rdf:RDF>
  </metadata>
  <g
     id="layer1"
     inkscape:label="Layer 1"
     inkscape:groupmode="layer">
    <path
       style="opacity:0.33200001;fill:#000000;fill-opacity:1;stroke:none;stroke-width:0.1;stroke-linecap:round;stroke-linejoin:round;stroke-miterlimit:4;stroke-dasharray:none;stroke-opacity:1"
       d="M 53.787109 21.167969 L 53.783203 21.171875 C 53.94492 21.341381 54.098701 21.518673 54.244141 21.703125 C 54.389484 21.887456 54.526325 22.077395 54.654297 22.275391 C 54.782228 22.473323 54.902263 22.67639 55.011719 22.886719 C 55.119089 23.093038 55.21811 23.304438 55.306641 23.521484 C 55.308541 23.526084 55.3106 23.530586 55.3125 23.535156 C 55.313048 23.536456 55.313853 23.537762 55.314453 23.539062 C 55.395283 23.738678 55.467191 23.942715 55.53125 24.150391 C 55.53785 24.171551 55.546354 24.191651 55.552734 24.212891 C 55.554234 24.217991 55.555141 24.223356 55.556641 24.228516 C 55.615071 24.425505 55.66435 24.626806 55.707031 24.830078 C 55.714531 24.865438 55.723489 24.900008 55.730469 24.935547 C 55.767349 25.124484 55.793666 25.316209 55.816406 25.509766 C 55.822506 25.561586 55.832811 25.611935 55.837891 25.664062 C 55.861431 25.907079 55.87466 26.153462 55.875 26.402344 C 55.8717 29.702222 53.767102 32.611725 50.691406 33.568359 L 50.691406 37.888672 L 50.691406 42.878906 L 50.691406 44.230469 L 50.691406 44.876953 C 48.467602 45.839731 46.079403 46.33835 43.666016 46.34375 C 43.493059 46.34309 43.321027 46.331872 43.148438 46.326172 C 43.147137 46.326129 43.145831 46.326215 43.144531 46.326172 C 43.032225 46.322472 42.920702 46.310578 42.808594 46.304688 C 42.578007 46.292668 42.346791 46.282609 42.117188 46.261719 C 42.000878 46.251059 41.885573 46.233333 41.769531 46.220703 C 41.55439 46.197203 41.338879 46.176121 41.125 46.144531 C 41.1164 46.143231 41.108179 46.139972 41.099609 46.138672 C 40.91172 46.110422 40.72577 46.072733 40.539062 46.039062 C 40.411628 46.016013 40.283148 45.998626 40.15625 45.972656 C 40.1013 45.961416 40.047027 45.947307 39.992188 45.935547 C 39.72197 45.877177 39.452859 45.815071 39.185547 45.744141 C 39.091957 45.719461 38.999445 45.692226 38.90625 45.666016 C 38.667545 45.598496 38.429291 45.530635 38.193359 45.453125 C 38.089811 45.419265 37.987737 45.379535 37.884766 45.34375 C 37.782925 45.30821 37.68167 45.2707 37.580078 45.234375 C 37.295415 45.129615 37.014005 45.015994 36.734375 44.896484 C 36.684235 44.875004 36.634361 44.852871 36.583984 44.832031 C 36.48083 44.789341 36.377168 44.748091 36.275391 44.701172 C 35.95659 44.554189 35.640999 44.396835 35.330078 44.230469 L 35.330078 42.878906 L 35.330078 29.623047 C 35.259348 29.774658 35.175828 29.918297 35.095703 30.064453 L 35.103516 30.072266 C 35.078106 30.118436 35.047804 30.161436 35.021484 30.207031 C 34.975744 30.286471 34.927384 30.363786 34.878906 30.441406 C 34.796546 30.572986 34.711119 30.702056 34.621094 30.828125 C 34.569134 30.901005 34.515394 30.972049 34.460938 31.042969 C 34.367978 31.163894 34.271896 31.28153 34.171875 31.396484 C 34.105815 31.472454 34.039764 31.547876 33.970703 31.621094 C 33.874613 31.722935 33.773597 31.81975 33.671875 31.916016 C 33.595195 31.988586 33.519245 32.061618 33.439453 32.130859 C 33.338365 32.218609 33.232881 32.300625 33.126953 32.382812 C 33.036993 32.452582 32.948815 32.524264 32.855469 32.589844 C 32.742927 32.668944 32.62511 32.741692 32.507812 32.814453 C 32.420073 32.868833 32.334456 32.925864 32.244141 32.976562 C 32.096008 33.059803 31.941908 33.132177 31.787109 33.205078 C 31.717669 33.237758 31.650817 33.274157 31.580078 33.304688 C 31.351196 33.403517 31.116781 33.493158 30.875 33.568359 L 30.875 42.878906 L 30.875 44.230469 L 30.875 44.876953 C 28.651196 45.839731 26.262996 46.33835 23.849609 46.34375 C 23.676652 46.34309 23.50462 46.331872 23.332031 46.326172 C 23.330731 46.326129 23.329425 46.326215 23.328125 46.326172 C 23.215819 46.322472 23.104295 46.310577 22.992188 46.304688 C 22.761601 46.292668 22.530387 46.282609 22.300781 46.261719 C 22.184472 46.251059 22.069167 46.233333 21.953125 46.220703 C 21.737984 46.197203 21.522473 46.176121 21.308594 46.144531 C 21.299994 46.143231 21.291773 46.139972 21.283203 46.138672 C 21.095314 46.110422 20.909362 46.072733 20.722656 46.039062 C 20.595222 46.016013 20.466742 45.998626 20.339844 45.972656 C 20.284894 45.961416 20.23062 45.947307 20.175781 45.935547 C 19.905565 45.877177 19.636453 45.815071 19.369141 45.744141 C 19.275551 45.719461 19.183039 45.692226 19.089844 45.666016 C 18.851139 45.598496 18.612885 45.530635 18.376953 45.453125 C 18.273405 45.419265 18.171331 45.379535 18.068359 45.34375 C 17.966518 45.30821 17.865264 45.2707 17.763672 45.234375 C 17.479009 45.129615 17.197599 45.015994 16.917969 44.896484 C 16.867829 44.875004 16.817954 44.852871 16.767578 44.832031 C 16.664424 44.789341 16.560761 44.748091 16.458984 44.701172 C 16.140184 44.554189 15.824593 44.396835 15.513672 44.230469 L 35.283203 64 L 64 64 L 64 31.380859 L 53.787109 21.167969 z M 10.697266 25.478516 L 10.695312 25.480469 L 10.730469 25.513672 C 10.719509 25.501842 10.708366 25.490246 10.697266 25.478516 z M 10.828125 25.613281 L 15.513672 30.298828 L 15.513672 28.412109 C 15.710902 28.431349 15.90912 28.449209 16.111328 28.449219 L 20.304688 28.449219 L 23.304688 28.449219 L 26.095703 28.449219 C 26.071863 28.448319 26.045334 28.448166 26.021484 28.447266 C 25.187471 28.418086 24.23562 28.382236 23.302734 28.347656 C 22.625455 28.322556 21.832897 28.287583 21.017578 28.251953 C 21.014778 28.251832 21.012566 28.252075 21.009766 28.251953 C 20.375106 28.224213 19.52056 28.178193 18.763672 28.140625 C 17.871211 28.096325 17.228988 28.072325 16.115234 28.009766 C 15.888958 27.997056 15.662302 27.97157 15.435547 27.9375 C 15.350707 27.92473 15.26634 27.906285 15.181641 27.890625 C 15.029411 27.862515 14.877849 27.834105 14.726562 27.796875 C 14.649892 27.777975 14.574348 27.753602 14.498047 27.732422 C 14.347684 27.690742 14.197281 27.647992 14.048828 27.597656 C 13.966688 27.569756 13.886091 27.538293 13.804688 27.507812 C 13.652992 27.451132 13.50211 27.391557 13.353516 27.326172 C 13.292406 27.299222 13.232373 27.270567 13.171875 27.242188 C 13.01493 27.168717 12.861243 27.090649 12.708984 27.007812 C 12.639244 26.969803 12.570581 26.930542 12.501953 26.890625 C 12.367046 26.812285 12.235601 26.730012 12.105469 26.644531 C 12.036729 26.599321 11.967669 26.554952 11.900391 26.507812 C 11.744539 26.398733 11.594434 26.283135 11.447266 26.164062 C 11.415886 26.138662 11.382513 26.115684 11.351562 26.089844 C 11.169467 25.937901 10.994149 25.779832 10.828125 25.613281 z M 35.867188 28.003906 C 35.835678 28.150621 35.801538 28.295764 35.761719 28.439453 C 35.817329 28.441853 35.871577 28.449219 35.927734 28.449219 L 40.121094 28.449219 L 41.251953 28.449219 L 43.121094 28.449219 L 45.912109 28.449219 C 45.888269 28.448319 45.861741 28.448166 45.837891 28.447266 C 45.003878 28.418086 44.052027 28.382236 43.119141 28.347656 C 42.510169 28.325086 41.792567 28.293559 41.064453 28.261719 C 40.982783 28.258119 40.916215 28.255553 40.833984 28.251953 C 40.831184 28.251832 40.828972 28.252075 40.826172 28.251953 C 40.191512 28.224213 39.336966 28.178193 38.580078 28.140625 C 37.687617 28.096325 37.045395 28.072325 35.931641 28.009766 C 35.910211 28.008566 35.888627 28.005306 35.867188 28.003906 z M 18.628906 35.298828 C 18.628906 35.298828 18.483517 38.213975 18.296875 39.625 C 18.217775 40.223021 17.964843 40.989489 17.964844 41.359375 C 17.964845 42.099147 18.262776 42.699219 18.628906 42.699219 C 18.674676 42.699219 18.718586 42.689715 18.761719 42.671875 C 19.063649 42.546903 19.291015 42.006676 19.291016 41.359375 C 19.291017 40.989489 19.038084 40.223021 18.958984 39.625 C 18.865664 38.919488 18.783799 37.838759 18.724609 36.933594 C 18.665419 36.028429 18.628906 35.298828 18.628906 35.298828 z M 27.824219 35.298828 C 27.824219 35.298828 27.678829 38.213975 27.492188 39.625 C 27.413087 40.223021 27.162108 40.989489 27.162109 41.359375 C 27.16211 42.099147 27.458089 42.699219 27.824219 42.699219 C 27.869989 42.699219 27.913849 42.689715 27.957031 42.671875 C 28.259336 42.546903 28.48828 42.006676 28.488281 41.359375 C 28.488282 40.989489 28.23535 40.223021 28.15625 39.625 C 28.06293 38.919488 27.979599 37.838759 27.919922 36.933594 C 27.860242 36.028429 27.824219 35.298828 27.824219 35.298828 z M 38.445312 35.298828 C 38.445312 35.298828 38.299923 38.213975 38.113281 39.625 C 38.034181 40.223021 37.781249 40.989489 37.78125 41.359375 C 37.781251 42.099147 38.079183 42.699219 38.445312 42.699219 C 38.811442 42.699219 39.107421 42.099147 39.107422 41.359375 C 39.107423 40.989489 38.854491 40.223021 38.775391 39.625 C 38.588749 38.213975 38.445312 35.298828 38.445312 35.298828 z M 47.640625 35.298828 C 47.640625 35.298828 47.495236 38.213975 47.308594 39.625 C 47.229494 40.223021 46.978515 40.989489 46.978516 41.359375 C 46.978517 42.099147 47.274495 42.699219 47.640625 42.699219 C 48.006755 42.699219 48.304687 42.099147 48.304688 41.359375 C 48.304688 40.989489 48.051756 40.223021 47.972656 39.625 C 47.786014 38.213975 47.640625 35.298828 47.640625 35.298828 z M 23.376953 36.132812 C 23.376953 36.132812 23.356463 36.474176 23.351562 36.566406 L 23.351562 36.570312 C 23.343962 36.714681 23.317111 37.107005 23.300781 37.384766 C 23.288841 37.572874 23.282951 37.689103 23.269531 37.896484 C 23.214471 38.747401 23.144006 39.709917 23.044922 40.458984 C 22.965822 41.057005 22.712891 41.823473 22.712891 42.193359 C 22.712893 42.933131 23.010823 43.533203 23.376953 43.533203 C 23.382353 43.533203 23.387168 43.529597 23.392578 43.529297 C 23.751177 43.511857 24.039061 42.922158 24.039062 42.193359 C 24.039062 41.823473 23.788084 41.057005 23.708984 40.458984 C 23.615664 39.753476 23.532334 38.672744 23.472656 37.767578 C 23.412976 36.862412 23.376953 36.132812 23.376953 36.132812 z M 43.193359 36.132812 C 43.193359 36.132812 43.172869 36.474176 43.167969 36.566406 L 43.167969 36.570312 C 43.160369 36.714681 43.133518 37.107005 43.117188 37.384766 C 43.105247 37.572874 43.099357 37.689103 43.085938 37.896484 C 43.030878 38.747401 42.960413 39.709917 42.861328 40.458984 C 42.782228 41.057005 42.529297 41.823473 42.529297 42.193359 C 42.529299 42.933131 42.827229 43.533203 43.193359 43.533203 C 43.198759 43.533203 43.203574 43.529597 43.208984 43.529297 C 43.567583 43.511857 43.855468 42.922158 43.855469 42.193359 C 43.855469 41.823473 43.604491 41.057005 43.525391 40.458984 C 43.338749 39.047967 43.193359 36.132812 43.193359 36.132812 z "
       id="rect4514" />
    <path
       style="opacity:0.65499998;fill:#ffffff;fill-opacity:1;stroke:none;stroke-width:1.41400003;stroke-miterlimit:4;stroke-dasharray:none;stroke-opacity:1"
       d="m 24.312639,13.628906 c 0.227484,5.2e-5 0.450643,0.01919 0.669921,0.04883 -0.219777,-0.02937 -0.442357,-0.04878 -0.669921,-0.04883 z m 0.826171,0.07422 c 0.197245,0.03312 0.391279,0.07326 0.580079,0.128906 -0.188966,-0.05492 -0.382966,-0.09623 -0.580079,-0.128906 z m 0.632813,0.144531 c 0.217836,0.06684 0.428319,0.1493 0.632813,0.244141 -0.205219,-0.0938 -0.414513,-0.178104 -0.632813,-0.244141 z m 1.300781,0.617188 c 0.139139,0.0922 0.268886,0.197525 0.398438,0.302734 -0.130732,-0.104861 -0.258048,-0.210975 -0.398438,-0.302734 z m 0.615235,0.484375 c 0.145458,0.13183 0.287613,0.266373 0.417968,0.414062 -0.131376,-0.147377 -0.271285,-0.282712 -0.417968,-0.414062 z m 0.417968,0.414062 c 0.312733,0.354318 0.580098,0.752694 0.792969,1.183594 -0.213262,-0.431691 -0.477733,-0.829963 -0.792969,-1.183594 z m 0.792969,1.183594 -3.90625,0.837891 -0.738281,4.539062 -5.384766,-2.058594 -3.537109,1.583985 3.376953,2.746093 0.05469,3.945313 c 0.756888,0.03757 1.611434,0.08359 2.246094,0.111328 0.0028,1.22e-4 0.005,-1.21e-4 0.0078,0 l 2.285156,0.0078 0,0.08789 c 0.932886,0.03458 1.884737,0.07043 2.71875,0.09961 0.02385,8.37e-4 0.05038,0.0011 0.07422,0.002 l -2.791016,0 0.04687,8.117187 c 0.0049,-0.09223 0.02539,-0.433594 0.02539,-0.433594 0,0 0.145389,2.915155 0.332031,4.326172 0.0791,0.598021 0.330078,1.364489 0.330078,1.734375 -1e-6,0.728799 -0.287885,1.318499 -0.646484,1.335938 l 0.01563,2.785156 -0.07617,0.01172 c 0.172589,0.0057 0.344621,0.01692 0.517578,0.01758 2.413387,-0.0054 4.801587,-0.504019 7.025391,-1.466797 l 0,-0.646484 0,-1.351563 0,-9.310547 c 3.075696,-0.956634 5.180307,-3.866137 5.183593,-7.166015 -0.0052,-3.851799 -2.852706,-7.072542 -6.585937,-7.449219 l 0,-0.02344 c 1.71e-4,-0.861948 -0.218796,-1.663356 -0.574219,-2.382813 z m -5.595703,11.800781 c -0.67728,-0.0251 -1.469837,-0.06007 -2.285156,-0.0957 0.815588,0.03563 1.607394,0.07058 2.285156,0.0957 z m 4.521484,6.951172 c 0,0 0.14539,2.915147 0.332032,4.326172 0.0791,0.598021 0.332032,1.364489 0.332031,1.734375 -1e-6,0.739772 -0.297933,1.339844 -0.664063,1.339844 -0.36613,0 -0.662108,-0.600072 -0.662109,-1.339844 -1e-6,-0.369886 0.250976,-1.136354 0.330078,-1.734375 0.186642,-1.411025 0.332031,-4.326172 0.332031,-4.326172 z m -4.476562,1.34375 c -0.01299,0.244303 -0.04524,0.745703 -0.07813,1.253906 0.04555,-0.677799 0.06237,-0.958894 0.07813,-1.253906 z m -6.888672,8.058594 c 0.151242,0.06984 0.306114,0.129818 0.458984,0.195312 -0.153094,-0.06543 -0.307526,-0.125482 -0.458984,-0.195312 z m 0.953125,0.404297 c 0.216836,0.08531 0.43661,0.161634 0.65625,0.238281 -0.219426,-0.07625 -0.439626,-0.153341 -0.65625,-0.238281 z m 0.964844,0.347656 c 0.235932,0.07751 0.474185,0.14537 0.71289,0.212891 -0.239022,-0.06722 -0.47665,-0.135636 -0.71289,-0.212891 z m 0.992187,0.291016 c 0.267312,0.07093 0.536425,0.13304 0.806641,0.191406 -0.270238,-0.05795 -0.539304,-0.12091 -0.806641,-0.191406 z m 0.970703,0.228515 c 0.312951,0.0645 0.627249,0.11848 0.94336,0.166016 -0.315997,-0.04714 -0.630512,-0.102007 -0.94336,-0.166016 z m 0.96875,0.171875 c 0.329253,0.04902 0.660244,0.08675 0.992188,0.117188 -0.331917,-0.0302 -0.662946,-0.06856 -0.992188,-0.117188 z m 1.011719,0.119141 c 0.334901,0.03033 0.670936,0.05127 1.007813,0.0625 -0.336635,-0.01122 -0.67313,-0.03242 -1.007813,-0.0625 z"
       id="path4521"
       inkscape:connector-curvature="0" />
    <path
       style="fill:#ffffff;fill-rule:evenodd;stroke:none;stroke-width:1px;stroke-linecap:butt;stroke-linejoin:miter;stroke-opacity:1"
       d="m 24.312639,13.628906 c -1.873418,4.85e-4 -3.599484,1.043301 -4.509766,2.72461 -1.124435,-0.970308 -2.640101,-1.346947 -4.517578,-1.34961 -3.479179,-0.0049 -6.2987295,2.89627 -6.2988285,6.46875 9.3e-5,3.572481 3.6551955,6.341981 7.1289065,6.53711 1.113754,0.06256 1.755976,0.08656 2.648437,0.130859 l -0.05469,-3.945313 -3.376953,-2.746093 3.537109,-1.583985 5.384766,2.058594 0.738281,-4.539062 3.90625,-0.837891 c -0.851484,-1.723599 -2.574904,-2.917511 -4.585937,-2.917969 z m -3.302735,14.623047 c 0.81826,0.03576 1.613378,0.07051 2.292969,0.0957 l 0,-0.08789 -2.292969,-0.0078 z m -5.496094,0.160156 0,14.466797 0,1.351563 c 2.421146,1.295498 5.094039,2.005523 7.81836,2.095703 l 0.07617,-0.01172 -0.01563,-2.785156 c -0.0054,2.62e-4 -0.01019,0.0039 -0.01563,0.0039 -0.36613,0 -0.664061,-0.600072 -0.664063,-1.339844 0,-0.369886 0.252929,-1.136354 0.332031,-1.734375 0.161671,-1.222212 0.274554,-3.281459 0.306641,-3.888672 l -0.04687,-8.121093 -3,0 -4.193359,0 c -0.202208,-6e-6 -0.400427,-0.01787 -0.597657,-0.03711 z m 3.115235,6.886719 c 0,0 0.143436,2.915147 0.330078,4.326172 0.0791,0.598021 0.332032,1.364489 0.332031,1.734375 -10e-7,0.739772 -0.295979,1.339844 -0.662109,1.339844 -0.36613,0 -0.664062,-0.600072 -0.664063,-1.339844 -10e-7,-0.369886 0.25293,-1.136354 0.332032,-1.734375 0.186642,-1.411025 0.332031,-4.326172 0.332031,-4.326172 z"
       id="path4526"
       inkscape:connector-curvature="0" />
    <path
       inkscape:connector-curvature="0"
       id="path4548"
       d="m 44.129045,13.628906 c 0.227484,5.2e-5 0.450643,0.01919 0.669921,0.04883 -0.219777,-0.02937 -0.442357,-0.04878 -0.669921,-0.04883 z m 0.826171,0.07422 c 0.197245,0.03312 0.391279,0.07326 0.580079,0.128906 -0.188966,-0.05492 -0.382966,-0.09623 -0.580079,-0.128906 z m 0.632813,0.144531 c 0.217836,0.06684 0.428319,0.1493 0.632813,0.244141 -0.205219,-0.0938 -0.414513,-0.178104 -0.632813,-0.244141 z m 1.300781,0.617188 c 0.139139,0.0922 0.268886,0.197525 0.398438,0.302734 C 47.156516,14.662718 47.0292,14.556604 46.88881,14.464845 Z m 0.615235,0.484375 c 0.145458,0.13183 0.287613,0.266373 0.417968,0.414062 -0.131376,-0.147377 -0.271285,-0.282712 -0.417968,-0.414062 z m 0.417968,0.414062 c 0.312733,0.354318 0.580098,0.752694 0.792969,1.183594 -0.213262,-0.431691 -0.477733,-0.829963 -0.792969,-1.183594 z m 0.792969,1.183594 -3.90625,0.837891 -0.738281,4.539062 -5.384766,-2.058594 -3.537109,1.583985 3.376953,2.746093 0.05469,3.945313 c 0.756888,0.03757 1.611434,0.08359 2.246094,0.111328 0.0028,1.22e-4 0.005,-1.21e-4 0.0078,0 l 2.285156,0.0078 0,0.08789 c 0.932886,0.03458 1.884737,0.07043 2.71875,0.09961 0.02385,8.37e-4 0.05038,0.0011 0.07422,0.002 l -2.791016,0 0.04687,8.117187 c 0.0049,-0.09223 0.02539,-0.433594 0.02539,-0.433594 0,0 0.145389,2.915155 0.332031,4.326172 0.0791,0.598021 0.330078,1.364489 0.330078,1.734375 -1e-6,0.728799 -0.287885,1.318499 -0.646484,1.335938 l 0.01563,2.785156 -0.07617,0.01172 c 0.172589,0.0057 0.344621,0.01692 0.517578,0.01758 2.413387,-0.0054 4.801587,-0.504019 7.025391,-1.466797 l 0,-0.646484 0,-1.351563 0,-9.310547 c 3.075696,-0.956634 5.180307,-3.866137 5.183593,-7.166015 -0.0052,-3.851799 -2.852706,-7.072542 -6.585937,-7.449219 l 0,-0.02344 c 1.71e-4,-0.861948 -0.218796,-1.663356 -0.574219,-2.382813 z m -5.595703,11.800781 c -0.67728,-0.0251 -1.469837,-0.06007 -2.285156,-0.0957 0.815588,0.03563 1.607394,0.07058 2.285156,0.0957 z m 4.521484,6.951172 c 0,0 0.14539,2.915147 0.332032,4.326172 0.0791,0.598021 0.332032,1.364489 0.332031,1.734375 -10e-7,0.739772 -0.297933,1.339844 -0.664063,1.339844 -0.36613,0 -0.662108,-0.600072 -0.662109,-1.339844 -10e-7,-0.369886 0.250976,-1.136354 0.330078,-1.734375 0.186642,-1.411025 0.332031,-4.326172 0.332031,-4.326172 z m -4.476562,1.34375 c -0.01299,0.244303 -0.04524,0.745703 -0.07813,1.253906 0.04555,-0.677799 0.06237,-0.958894 0.07813,-1.253906 z m -6.888672,8.058594 c 0.151242,0.06984 0.306114,0.129818 0.458984,0.195312 -0.153094,-0.06543 -0.307526,-0.125482 -0.458984,-0.195312 z m 0.953125,0.404297 c 0.216836,0.08531 0.43661,0.161634 0.65625,0.238281 -0.219426,-0.07625 -0.439626,-0.153341 -0.65625,-0.238281 z m 0.964844,0.347656 c 0.235932,0.07751 0.474185,0.14537 0.71289,0.212891 -0.239022,-0.06722 -0.47665,-0.135636 -0.71289,-0.212891 z m 0.992187,0.291016 c 0.267312,0.07093 0.536425,0.13304 0.806641,0.191406 -0.270238,-0.05795 -0.539304,-0.12091 -0.806641,-0.191406 z m 0.970703,0.228515 c 0.312951,0.0645 0.627249,0.11848 0.94336,0.166016 -0.315997,-0.04714 -0.630512,-0.102007 -0.94336,-0.166016 z m 0.96875,0.171875 c 0.329253,0.04902 0.660244,0.08675 0.992188,0.117188 -0.331917,-0.0302 -0.662946,-0.06856 -0.992188,-0.117188 z m 1.011719,0.119141 c 0.334901,0.03033 0.670936,0.05127 1.007813,0.0625 -0.336635,-0.01122 -0.67313,-0.03242 -1.007813,-0.0625 z"
       style="opacity:0.65499998;fill:#ffffff;fill-opacity:1;stroke:none;stroke-width:1.41400003;stroke-miterlimit:4;stroke-dasharray:none;stroke-opacity:1" />
    <path
       inkscape:connector-curvature="0"
       id="path4550"
       d="m 44.129045,13.628906 c -1.873418,4.85e-4 -3.599484,1.043301 -4.509766,2.72461 -1.124435,-0.970308 -2.640101,-1.346947 -4.517578,-1.34961 -3.479179,-0.0049 -6.298729,2.89627 -6.298828,6.46875 9.3e-5,3.572481 3.655195,6.341981 7.128906,6.53711 1.113754,0.06256 1.755976,0.08656 2.648437,0.130859 l -0.05469,-3.945313 -3.376953,-2.746093 3.537109,-1.583985 5.384766,2.058594 0.738281,-4.539062 3.90625,-0.837891 C 47.863495,14.823276 46.140075,13.629364 44.129042,13.628906 Z M 40.82631,28.251953 c 0.81826,0.03576 1.613378,0.07051 2.292969,0.0957 l 0,-0.08789 -2.292969,-0.0078 z m -5.496094,0.160156 0,14.466797 0,1.351563 c 2.421146,1.295498 5.094039,2.005523 7.81836,2.095703 l 0.07617,-0.01172 -0.01563,-2.785156 c -0.0054,2.62e-4 -0.01019,0.0039 -0.01563,0.0039 -0.36613,0 -0.664061,-0.600072 -0.664063,-1.339844 0,-0.369886 0.252929,-1.136354 0.332031,-1.734375 0.161671,-1.222212 0.274554,-3.281459 0.306641,-3.888672 l -0.04687,-8.121093 -3,0 -4.193359,0 c -0.202208,-6e-6 -0.400427,-0.01787 -0.597657,-0.03711 z m 3.115235,6.886719 c 0,0 0.143436,2.915147 0.330078,4.326172 0.0791,0.598021 0.332032,1.364489 0.332031,1.734375 -10e-7,0.739772 -0.295979,1.339844 -0.662109,1.339844 -0.36613,0 -0.664062,-0.600072 -0.664063,-1.339844 -10e-7,-0.369886 0.25293,-1.136354 0.332032,-1.734375 0.186642,-1.411025 0.332031,-4.326172 0.332031,-4.326172 z"
       style="fill:#ffffff;fill-rule:evenodd;stroke:none;stroke-width:1px;stroke-linecap:butt;stroke-linejoin:miter;stroke-opacity:1" />
  </g>
</svg>
