<?xml version="1.0" encoding="UTF-8" standalone="no"?>
<!-- Created with Inkscape (http://www.inkscape.org/) -->

<svg
   xmlns:dc="http://purl.org/dc/elements/1.1/"
   xmlns:cc="http://creativecommons.org/ns#"
   xmlns:rdf="http://www.w3.org/1999/02/22-rdf-syntax-ns#"
   xmlns:svg="http://www.w3.org/2000/svg"
   xmlns="http://www.w3.org/2000/svg"
   xmlns:sodipodi="http://sodipodi.sourceforge.net/DTD/sodipodi-0.dtd"
   xmlns:inkscape="http://www.inkscape.org/namespaces/inkscape"
   width="64"
   height="64"
   id="svg4263"
   version="1.1"
   inkscape:version="0.91 r13725"
   viewBox="0 0 64 64"
   inkscape:export-filename="C:\Users\emile\Desktop\SÉMINAIRE TAL\graphismes\allergenes\lactose_sq.png"
   inkscape:export-xdpi="105.46875"
   inkscape:export-ydpi="105.46875"
   sodipodi:docname="moyenne.svg">
  <defs
     id="defs4265">
    <pattern
       y="0"
       x="0"
       height="6"
       width="6"
       patternUnits="userSpaceOnUse"
       id="EMFhbasepattern" />
  </defs>
  <sodipodi:namedview
     id="base"
     pagecolor="#ffffff"
     bordercolor="#666666"
     borderopacity="1.0"
     inkscape:pageopacity="0.0"
     inkscape:pageshadow="2"
     inkscape:zoom="9.4711191"
     inkscape:cx="30.546123"
     inkscape:cy="29.945632"
     inkscape:current-layer="layer1"
     showgrid="true"
     inkscape:document-units="px"
     inkscape:grid-bbox="true"
     inkscape:snap-page="true"
     inkscape:snap-bbox="true"
     inkscape:bbox-nodes="true"
     inkscape:snap-nodes="true"
     inkscape:snap-others="true"
     inkscape:object-nodes="true"
     inkscape:window-width="1474"
     inkscape:window-height="841"
     inkscape:window-x="-8"
     inkscape:window-y="-8"
     inkscape:window-maximized="1"
     inkscape:snap-global="false"
     inkscape:snap-object-midpoints="true" />
  <metadata
     id="metadata4268">
    <rdf:RDF>
      <cc:Work
         rdf:about="">
        <dc:format>image/svg+xml</dc:format>
        <dc:type
           rdf:resource="http://purl.org/dc/dcmitype/StillImage" />
        <dc:title></dc:title>
      </cc:Work>
    </rdf:RDF>
  </metadata>
  <g
     id="layer1"
     inkscape:label="Layer 1"
     inkscape:groupmode="layer">
    <path
       style="opacity:0.33200001;fill:#000000;fill-opacity:1;stroke:none;stroke-width:0.1;stroke-linecap:round;stroke-linejoin:round;stroke-miterlimit:4;stroke-dasharray:none;stroke-opacity:1"
       d="M 50.158203 17.787109 L 50.134766 17.792969 C 50.191843 17.842317 50.254244 17.885038 50.308594 17.9375 L 50.158203 17.787109 z M 22.203125 17.972656 C 22.532623 18.2985 22.810365 18.680117 23.019531 19.103516 C 23.020831 19.106416 23.020184 19.110581 23.021484 19.113281 C 21.852001 19.338063 20.754614 19.828979 19.820312 20.546875 A 7.5020734 7.2716899 0 0 0 17.900391 22.767578 C 17.304958 23.831441 16.992569 25.024043 16.992188 26.234375 C 16.994271 26.935353 17.100704 27.631339 17.308594 28.302734 A 7.5020734 7.2716899 0 0 0 17.316406 28.322266 C 17.154778 28.315437 16.998951 28.308455 16.824219 28.300781 C 16.822019 28.300686 16.820659 28.300877 16.818359 28.300781 C 16.319608 28.278981 15.649492 28.244374 15.054688 28.214844 C 14.353341 28.180028 13.847905 28.162441 12.972656 28.113281 C 11.466357 28.028667 9.9326268 27.313555 8.8457031 26.230469 L 8.8261719 26.25 L 12.498047 29.919922 L 12.498047 28.427734 C 12.653041 28.442854 12.809844 28.457026 12.96875 28.457031 L 16.265625 28.457031 L 17.361328 28.457031 A 7.5020734 7.2716899 0 0 0 18.634766 30.775391 C 20.05856 32.501413 22.096916 33.447582 24.388672 33.660156 C 24.596115 33.680396 24.804899 33.699214 25.017578 33.699219 L 29.427734 33.699219 L 32.582031 33.699219 L 32.582031 33.701172 L 35.517578 33.701172 C 35.492498 33.699972 35.464543 33.698146 35.439453 33.697266 C 34.562252 33.666579 33.561274 33.63011 32.580078 33.59375 C 31.867609 33.56735 31.035426 33.529679 30.177734 33.492188 C 30.174734 33.492061 30.172922 33.492317 30.169922 33.492188 C 29.502396 33.463017 28.602725 33.41452 27.806641 33.375 C 26.867967 33.328395 26.192912 33.304081 25.021484 33.238281 C 21.367888 33.033047 17.523536 30.118809 17.523438 26.361328 C 17.523543 22.603849 20.489089 19.553494 24.148438 19.558594 C 24.189447 19.558652 24.224943 19.564053 24.265625 19.564453 L 22.203125 17.972656 z M 50.378906 18.007812 C 50.693392 18.326325 50.961961 18.694416 51.164062 19.103516 C 51.443374 19.668905 51.615369 20.299195 51.615234 20.976562 L 51.615234 20.994141 C 52.785162 21.112185 53.83447 21.595945 54.685547 22.314453 L 50.378906 18.007812 z M 37.417969 18.986328 L 36.988281 19.318359 L 36.974609 19.320312 C 37.207646 19.510244 37.43304 19.711163 37.632812 19.9375 C 37.963921 20.309155 38.242724 20.728064 38.466797 21.181641 C 38.840625 21.938355 39.070493 22.780918 39.070312 23.6875 L 39.070312 23.712891 C 42.996869 24.109074 45.992447 27.495612 45.998047 31.546875 C 45.994589 35.017637 43.779893 38.077812 40.544922 39.083984 L 40.544922 48.876953 L 40.544922 50.298828 L 40.544922 50.978516 C 38.205959 51.991151 35.694615 52.515884 33.15625 52.521484 C 32.974338 52.520794 32.792855 52.507853 32.611328 52.501953 C 32.610028 52.50191 32.608722 52.501996 32.607422 52.501953 C 32.489315 52.498013 32.371806 52.486665 32.253906 52.480469 C 32.011563 52.467836 31.768656 52.457495 31.527344 52.435547 C 31.420343 52.425738 31.31382 52.40981 31.207031 52.398438 C 30.644372 52.337502 30.085324 52.253876 29.53125 52.142578 C 29.509207 52.138157 29.486871 52.135367 29.464844 52.130859 C 29.406645 52.118951 29.349098 52.104258 29.291016 52.091797 C 29.266134 52.086422 29.241661 52.079657 29.216797 52.074219 C 28.957649 52.017744 28.699924 51.958282 28.443359 51.890625 C 28.120055 51.805354 27.799106 51.710024 27.480469 51.607422 C 27.344925 51.563776 27.210784 51.515517 27.076172 51.46875 C 26.845157 51.388134 26.612832 51.30846 26.384766 51.21875 C 26.047084 51.086337 25.713305 50.945335 25.382812 50.792969 C 25.0474 50.638333 24.715794 50.473863 24.388672 50.298828 L 24.388672 48.876953 L 24.388672 41.435547 C 22.692712 42.141896 20.880197 42.515531 19.048828 42.519531 C 18.912909 42.519011 18.78016 42.510359 18.644531 42.505859 C 16.503607 42.43499 14.400717 41.877448 12.498047 40.859375 L 35.638672 64 L 64 64 L 64 31.628906 L 55.394531 23.023438 C 56.259854 24.056509 56.789042 25.390876 56.791016 26.847656 C 56.788433 29.440883 55.133851 31.728694 52.716797 32.480469 L 52.716797 39.796875 L 52.716797 40.859375 L 52.716797 41.367188 C 50.96921 42.12379 49.09384 42.515331 47.197266 42.519531 C 47.061347 42.519011 46.924692 42.510359 46.789062 42.505859 C 44.756431 42.438291 42.760438 41.926436 40.935547 41.003906 L 40.935547 39.355469 C 41.516291 39.175475 42.064801 38.928523 42.576172 38.630859 C 42.583989 39.19845 42.810956 39.65625 43.09375 39.65625 C 43.381476 39.65625 43.615233 39.18487 43.615234 38.603516 C 43.615235 38.457829 43.568572 38.230974 43.513672 37.986328 C 45.431174 36.467227 46.624353 34.104273 46.626953 31.515625 C 46.625462 30.436379 46.4158 29.405077 46.041016 28.457031 L 46.767578 28.457031 L 48.962891 28.457031 C 48.944151 28.456172 48.923047 28.455736 48.904297 28.455078 C 48.248883 28.432148 47.500692 28.404133 46.767578 28.376953 C 46.537871 28.368443 46.255442 28.35504 45.992188 28.34375 C 45.986886 28.33092 45.981963 28.317477 45.976562 28.304688 C 45.174568 26.389097 43.68028 24.843177 41.796875 24.007812 C 41.049956 23.676526 40.24414 23.452607 39.394531 23.367188 L 39.394531 23.341797 C 39.394705 22.398778 39.155831 21.521469 38.765625 20.734375 C 38.432307 20.062036 37.966705 19.476711 37.417969 18.986328 z M 14.947266 33.839844 C 14.947266 33.839844 14.834174 36.131373 14.6875 37.240234 C 14.625338 37.710193 14.42578 38.31284 14.425781 38.603516 C 14.425782 39.184868 14.659541 39.65625 14.947266 39.65625 C 15.234991 39.65625 15.466796 39.18487 15.466797 38.603516 C 15.466798 38.312838 15.269191 37.710193 15.207031 37.240234 C 15.060357 36.131373 14.947266 33.839844 14.947266 33.839844 z M 22.173828 33.839844 C 22.173828 33.839844 22.058783 36.131369 21.912109 37.240234 C 21.849945 37.710193 21.654296 38.312838 21.654297 38.603516 C 21.654298 39.184869 21.886103 39.65625 22.173828 39.65625 C 22.461553 39.65625 22.695311 39.18487 22.695312 38.603516 C 22.695315 38.312838 22.495754 37.710193 22.433594 37.240234 C 22.286921 36.131373 22.173828 33.839844 22.173828 33.839844 z M 50.320312 33.839844 C 50.320314 33.839844 50.205268 36.131373 50.058594 37.240234 C 49.996432 37.710193 49.80078 38.312838 49.800781 38.603516 C 49.800781 39.184869 50.032587 39.65625 50.320312 39.65625 C 50.608039 39.65625 50.841796 39.18487 50.841797 38.603516 C 50.841798 38.312838 50.644191 37.710193 50.582031 37.240234 C 50.435357 36.131373 50.320312 33.839844 50.320312 33.839844 z M 18.677734 34.496094 C 18.677734 34.496094 18.664056 34.763458 18.660156 34.835938 L 18.660156 34.837891 C 18.634941 35.315073 18.54502 36.93405 18.417969 37.894531 C 18.355807 38.36449 18.158203 38.969089 18.158203 39.259766 C 18.158205 39.841119 18.390009 40.310547 18.677734 40.310547 C 18.681974 40.310547 18.687206 40.3088 18.691406 40.308594 C 18.973213 40.29489 19.197265 39.832497 19.197266 39.259766 C 19.197266 38.969089 19.001613 38.364489 18.939453 37.894531 C 18.79278 36.785675 18.677734 34.496094 18.677734 34.496094 z M 46.826172 34.496094 C 46.826172 34.496094 46.808588 34.763458 46.804688 34.835938 L 46.804688 34.837891 C 46.804139 34.848268 46.80139 34.885046 46.800781 34.896484 C 46.790571 35.088472 46.766084 35.481486 46.740234 35.880859 C 46.696838 36.549644 46.642338 37.305736 46.564453 37.894531 C 46.502291 38.36449 46.302734 38.969089 46.302734 39.259766 C 46.302736 39.841119 46.538447 40.310547 46.826172 40.310547 C 46.830412 40.310547 46.833691 40.3088 46.837891 40.308594 C 47.119696 40.29489 47.345702 39.832497 47.345703 39.259766 C 47.345703 38.969089 47.148097 38.364489 47.085938 37.894531 C 46.939265 36.785675 46.826172 34.496094 46.826172 34.496094 z M 27.664062 40.904297 C 27.664063 40.904297 27.512713 43.970983 27.316406 45.455078 C 27.233209 46.084068 26.966796 46.890259 26.966797 47.279297 C 26.966798 48.057379 27.278972 48.6875 27.664062 48.6875 C 28.049152 48.6875 28.361327 48.057379 28.361328 47.279297 C 28.36133 46.890259 28.094919 46.084068 28.011719 45.455078 C 27.815412 43.970983 27.664062 40.904297 27.664062 40.904297 z M 37.335938 40.904297 C 37.335938 40.904297 37.182636 43.970984 36.986328 45.455078 C 36.903131 46.084068 36.640623 46.890256 36.640625 47.279297 C 36.640625 48.057379 36.950848 48.6875 37.335938 48.6875 C 37.721027 48.6875 38.035155 48.057379 38.035156 47.279297 C 38.035157 46.890256 37.768747 46.084068 37.685547 45.455078 C 37.48924 43.970984 37.335938 40.904297 37.335938 40.904297 z M 32.658203 41.78125 C 32.658203 41.78125 32.637912 42.141271 32.632812 42.238281 L 32.632812 42.242188 C 32.628262 42.328325 32.611076 42.592721 32.603516 42.728516 C 32.555018 43.599548 32.457656 45.219907 32.310547 46.332031 C 32.227349 46.961019 31.960938 47.767209 31.960938 48.15625 C 31.960938 48.93433 32.273113 49.564453 32.658203 49.564453 C 32.663953 49.564453 32.670081 49.560823 32.675781 49.560547 C 33.05295 49.542203 33.355467 48.92279 33.355469 48.15625 C 33.355469 47.76721 33.091012 46.961019 33.007812 46.332031 C 32.811505 44.847943 32.658203 41.78125 32.658203 41.78125 z "
       id="rect4608" />
    <path
       style="opacity:0.65499998;fill:#ffffff;fill-opacity:1;stroke:none;stroke-width:1.41400003;stroke-miterlimit:4;stroke-dasharray:none;stroke-opacity:1"
       d="m 19.413378,16.810505 c 0.17877,4.1e-5 0.354207,0.0152 0.526529,0.03849 -0.172713,-0.02308 -0.347696,-0.03845 -0.526529,-0.03849 z m 0.648977,0.05773 c 0.155006,0.02603 0.30819,0.05774 0.456558,0.101457 -0.148499,-0.04316 -0.301656,-0.07579 -0.456558,-0.101457 z m 0.498541,0.113702 c 0.171187,0.05253 0.336088,0.117889 0.49679,0.192419 -0.161272,-0.07371 -0.325239,-0.140523 -0.49679,-0.192419 z m 1.02157,0.486296 c 0.109343,0.07245 0.211308,0.15522 0.313118,0.2379 -0.102738,-0.08241 -0.202792,-0.165791 -0.313118,-0.2379 z m 0.811658,0.704953 c 0.245763,0.278442 0.457201,0.591983 0.624486,0.930608 -0.167592,-0.339246 -0.376757,-0.652705 -0.624486,-0.930608 z m 0.624486,0.930608 -3.069957,0.657724 -0.127696,0.785418 c 0.934301,-0.717896 2.03167,-1.209613 3.201153,-1.434395 -0.0013,-0.0027 -0.0022,-0.0059 -0.0035,-0.0088 z m -7.882182,2.608153 -2.77958,1.243726 2.653633,2.158593 0.04373,3.099694 c 0.594805,0.02953 1.266257,0.06566 1.765008,0.08746 0.0023,9.6e-5 0.0031,-9.5e-5 0.0053,0 l 0.484546,0.0018 c -0.20789,-0.671395 -0.314533,-1.3684 -0.316617,-2.069378 3.81e-4,-1.210332 0.312436,-2.40143 0.907869,-3.465293 z m 3.498527,9.062936 0.02448,4.061791 c 0.0039,-0.07248 0.01924,-0.341107 0.01924,-0.341107 0,0 0.113967,2.289964 0.26064,3.39882 0.06216,0.469958 0.258892,1.073748 0.258892,1.364425 -1e-6,0.572731 -0.22548,1.035854 -0.507287,1.049558 l 0.01224,2.188331 -0.05948,0.0088 c 0.135629,0.0045 0.26991,0.01348 0.405829,0.014 1.831369,-0.004 3.642793,-0.378194 5.338753,-1.084543 l 0,-7.773729 c 0.06154,0.01308 -0.03552,0.05166 5.1e-5,-2.37e-4 -2.291756,-0.212574 -4.329586,-1.160026 -5.75338,-2.886048 z m 3.538762,3.06471 c 0,0 0.113967,2.291708 0.26064,3.400569 0.06216,0.469959 0.260641,1.071999 0.26064,1.362677 -1e-6,0.581354 -0.233555,1.053057 -0.52128,1.053057 -0.287725,0 -0.519531,-0.471704 -0.519532,-1.053057 -10e-7,-0.290678 0.196727,-0.892718 0.258891,-1.362677 0.146674,-1.108865 0.260641,-3.400573 0.260641,-3.400573 z m -3.517769,1.056556 c -0.01021,0.191988 -0.03538,0.585462 -0.06123,0.984835 0.03579,-0.532651 0.04884,-0.752997 0.06123,-0.984835 z m -5.413972,6.332335 c 0.118854,0.05488 0.240216,0.102466 0.360347,0.153935 -0.120309,-0.05142 -0.241323,-0.09906 -0.360347,-0.153935 z m 0.748684,0.318366 c 0.170402,0.06704 0.343428,0.126937 0.516033,0.187171 C 14.334256,41.674101 14.160895,41.6136 13.99066,41.54685 Z m 0.75918,0.272884 c 0.185409,0.06091 0.372178,0.114867 0.559765,0.16793 -0.187838,-0.05282 -0.374115,-0.107219 -0.559765,-0.16793 z m 0.780172,0.229155 c 0.210069,0.05574 0.420882,0.10457 0.633235,0.150436 -0.212369,-0.04554 -0.423147,-0.09504 -0.633235,-0.150436 z m 0.76268,0.178424 c 0.245933,0.05069 0.491521,0.09384 0.739938,0.131195 -0.248327,-0.03705 -0.494085,-0.08089 -0.739938,-0.131195 z m 0.76093,0.136443 c 0.258744,0.03852 0.519311,0.06705 0.780171,0.09096 -0.260839,-0.02373 -0.521435,-0.05275 -0.780171,-0.09096 z m 0.794165,0.09271 c 0.263184,0.02383 0.527679,0.04016 0.792416,0.04898 -0.264545,-0.0088 -0.529404,-0.02535 -0.792416,-0.04898 z"
       id="path4521"
       inkscape:connector-curvature="0"
       sodipodi:nodetypes="cccccccccccccccccccccccccccccccccssccccccccccssssccccccccccccccccccccccccc" />
    <path
       style="fill:#ffffff;fill-rule:evenodd;stroke:none;stroke-width:1px;stroke-linecap:butt;stroke-linejoin:miter;stroke-opacity:1"
       d="m 19.413378,16.810505 c -1.472235,3.81e-4 -2.828658,0.819834 -3.544009,2.141099 -0.883641,-0.762521 -2.073831,-1.057961 -3.549255,-1.060053 -2.7341329,-0.0039 -4.9503396,2.275908 -4.9504175,5.08336 7.32e-5,2.807454 2.8730575,4.984245 5.6028925,5.137589 0.875249,0.04916 1.380278,0.06664 2.081624,0.101456 l -0.04373,-3.099695 -2.653633,-2.158592 2.77958,-1.243727 2.763838,1.056556 a 7.5020734,7.2716899 0 0 1 1.920691,-2.221566 l 0.127696,-0.785418 3.069957,-0.657724 C 22.349466,17.749291 20.993757,16.810866 19.413376,16.810505 Z M 16.81922,28.301419 c 0.177306,0.0078 0.333242,0.01408 0.496791,0.02099 a 7.5020734,7.2716899 0 0 1 -0.007,-0.01924 l -0.489794,-0.0018 z m -4.320681,0.125947 0,11.370216 0,1.061804 c 1.90267,1.018073 4.00424,1.575187 6.145164,1.646056 l 0.05948,-0.0088 -0.01224,-2.188329 c -0.0042,2.06e-4 -0.008,0.0018 -0.01224,0.0018 -0.287725,0 -0.521278,-0.469955 -0.52128,-1.051308 0,-0.290677 0.198478,-0.894467 0.26064,-1.364426 0.127051,-0.960481 0.216183,-2.578782 0.241398,-3.055964 l -0.02448,-4.06354 a 7.5020734,7.2716899 0 0 1 -1.273464,-2.317774 l -1.096788,0 -3.295614,0 c -0.158906,-5e-6 -0.315557,-0.01462 -0.470551,-0.02974 z m 2.448969,5.412223 c 0,0 0.112217,2.291708 0.258891,3.400569 0.06216,0.469959 0.260641,1.071999 0.26064,1.362677 -10e-7,0.581354 -0.231806,1.053057 -0.519531,1.053057 -0.287725,0 -0.52128,-0.471705 -0.521281,-1.053057 -1e-6,-0.290676 0.198478,-0.892718 0.26064,-1.362677 0.146674,-1.108861 0.260641,-3.400569 0.260641,-3.400569 z"
       id="path4526"
       inkscape:connector-curvature="0" />
    <path
       style="opacity:0.65499998;fill:#ffffff;fill-opacity:1;stroke:none;stroke-width:1.41400003;stroke-miterlimit:4;stroke-dasharray:none;stroke-opacity:1"
       d="m 47.560783,16.810505 c 0.17877,4.1e-5 0.354207,0.0152 0.526528,0.03849 -0.172713,-0.02308 -0.347696,-0.03845 -0.526528,-0.03849 z m 0.648977,0.05773 c 0.155006,0.02603 0.308188,0.05774 0.456558,0.101457 -0.1485,-0.04316 -0.301658,-0.07579 -0.456558,-0.101457 z m 0.496791,0.113702 c 0.171187,0.05253 0.337837,0.117889 0.49854,0.192419 -0.161271,-0.07371 -0.326988,-0.140523 -0.49854,-0.192419 z m 1.02332,0.486296 c 0.109342,0.07245 0.211308,0.15522 0.313117,0.2379 -0.102735,-0.08241 -0.202791,-0.165791 -0.313117,-0.2379 z m 1.434396,1.635561 -3.069959,0.657724 -0.579006,3.566748 -4.233219,-1.616319 -2.779579,1.243726 1.294455,1.053057 c 1.883405,0.835365 3.376997,2.380601 4.178991,4.296192 l 0.790667,0.0035 0,0.06822 c 0.733114,0.02718 1.482187,0.05579 2.137601,0.07872 0.01875,6.58e-4 0.03899,9.41e-4 0.05773,0.0018 l -2.193577,0 0.03674,6.379565 c 0.0039,-0.07248 0.02099,-0.341106 0.02099,-0.341106 0,0 0.113966,2.289964 0.260639,3.39882 0.06216,0.469958 0.258892,1.073748 0.258892,1.364425 -1e-6,0.572731 -0.225482,1.035854 -0.507287,1.049558 l 0.01224,2.18833 -0.06123,0.0088 c 0.135629,0.0045 0.271659,0.01348 0.407578,0.014 1.896574,-0.0042 3.77309,-0.39616 5.520677,-1.152764 l 0,-0.507287 0,-1.061803 0,-7.317171 c 2.417054,-0.751775 4.071453,-3.039402 4.074036,-5.632629 -0.0041,-3.026958 -2.242291,-5.557023 -5.176072,-5.853037 l 0,-0.01924 c 1.35e-4,-0.677367 -0.171999,-1.306324 -0.45131,-1.871713 z m -0.844895,14.735795 c 0,0 0.115716,2.291708 0.26239,3.400569 0.06216,0.469959 0.260641,1.071999 0.26064,1.362677 -10e-7,0.581354 -0.235305,1.053057 -0.52303,1.053057 -0.287725,0 -0.519531,-0.471704 -0.519531,-1.053057 -10e-7,-0.290678 0.196729,-0.892718 0.258891,-1.362677 0.146674,-1.108861 0.26064,-3.400569 0.26064,-3.400569 z m -3.517769,1.056556 c -0.01021,0.191988 -0.03538,0.585462 -0.06123,0.984835 0.0358,-0.532651 0.04884,-0.752997 0.06123,-0.984835 z M 41.38938,41.22848 c 0.118854,0.05488 0.240216,0.102466 0.360349,0.153935 -0.120311,-0.05142 -0.241325,-0.09906 -0.360349,-0.153935 z m 0.748685,0.318366 c 0.170403,0.06704 0.343428,0.126937 0.516032,0.187171 -0.172435,-0.05992 -0.345796,-0.120421 -0.516032,-0.187171 z m 0.757431,0.272884 c 0.185408,0.06091 0.373926,0.114867 0.561514,0.16793 -0.187837,-0.05282 -0.375864,-0.107219 -0.561514,-0.16793 z m 0.780172,0.229155 c 0.210068,0.05574 0.420883,0.10457 0.633234,0.150436 -0.212369,-0.04554 -0.423145,-0.09504 -0.633234,-0.150436 z m 0.762679,0.178427 c 0.245933,0.05069 0.493271,0.09384 0.741688,0.131195 -0.248327,-0.03705 -0.495835,-0.08089 -0.741688,-0.131195 z m 0.76093,0.136442 c 0.258745,0.03852 0.519311,0.06705 0.780171,0.09096 -0.260838,-0.02373 -0.521435,-0.05275 -0.780171,-0.09096 z m 0.795915,0.09271 c 0.263183,0.02384 0.52768,0.04016 0.792416,0.04898 -0.264546,-0.0088 -0.529404,-0.02535 -0.792416,-0.04898 z m -18.780097,9.900832 c 0.259358,0.08452 0.521255,0.159113 0.78367,0.232653 -0.262065,-0.07387 -0.52465,-0.147846 -0.78367,-0.232653 z"
       id="path4548"
       inkscape:connector-curvature="0" />
    <path
       style="fill:#ffffff;fill-rule:evenodd;stroke:none;stroke-width:1px;stroke-linecap:butt;stroke-linejoin:miter;stroke-opacity:1"
       d="m 47.560783,16.810505 c -1.472235,3.81e-4 -2.828659,0.819834 -3.544009,2.141099 -0.883643,-0.762521 -2.07558,-1.057961 -3.551005,-1.060053 -1.154177,-0.0016 -2.212885,0.407541 -3.054215,1.088041 0.551425,0.491506 1.019362,1.079649 1.353931,1.754512 0.390206,0.787094 0.629908,1.665134 0.629734,2.608153 l 0,0.02448 c 0.849609,0.08542 1.654821,0.310692 2.40174,0.64198 l -1.294455,-1.053057 2.779579,-1.243727 4.233219,1.61632 0.579006,-3.566749 3.069959,-0.657724 C 50.495124,17.749287 49.141164,16.810862 47.560783,16.810501 Z M 45.97595,28.304918 c 0.0054,0.01279 0.01045,0.02566 0.01575,0.03849 0.263254,0.01129 0.545217,0.02472 0.774924,0.03323 l 0,-0.06822 -0.790667,-0.0035 z m 0.06472,0.152185 c 0.374784,0.948046 0.584513,1.980217 0.586004,3.059463 -0.0026,2.588648 -1.196188,4.951427 -3.11369,6.470528 0.0549,0.244646 0.101459,0.470054 0.101458,0.615741 -10e-7,0.581354 -0.233555,1.053057 -0.521281,1.053057 -0.282794,0 -0.509965,-0.457478 -0.517782,-1.025069 -0.511371,0.297664 -1.058316,0.544201 -1.63906,0.724195 l 0,1.649556 c 1.825475,0.922825 3.819725,1.433562 5.853032,1.500868 l 0.06122,-0.0088 -0.01224,-2.188329 c -0.0042,2.06e-4 -0.008,0.0018 -0.01224,0.0018 -0.287725,0 -0.523029,-0.469955 -0.523031,-1.051308 0,-0.290677 0.198479,-0.894467 0.260641,-1.364426 0.12705,-0.960481 0.216183,-2.578782 0.241397,-3.055964 l -0.03674,-6.381314 -0.727694,0 z M 27.215095,52.357296 c 0.259358,0.08452 0.521255,0.159113 0.78367,0.232653 -0.262065,-0.07387 -0.52465,-0.147846 -0.78367,-0.232653 z"
       id="path4550"
       inkscape:connector-curvature="0" />
    <path
       style="opacity:0.65499998;fill:#ffffff;fill-opacity:1;stroke:none;stroke-width:1.41400003;stroke-miterlimit:4;stroke-dasharray:none;stroke-opacity:1"
       d="m 33.64281,18.112181 c 0.239265,5.5e-5 0.47398,0.02019 0.704614,0.05135 -0.23116,-0.03089 -0.465266,-0.0513 -0.704614,-0.05135 z m 0.868955,0.07807 c 0.207459,0.03484 0.411539,0.07705 0.610118,0.13558 -0.198751,-0.05775 -0.4028,-0.10122 -0.610118,-0.13558 z m 0.665582,0.152015 c 0.229118,0.0703 0.4505,0.157031 0.665582,0.256783 -0.215845,-0.09865 -0.435978,-0.187328 -0.665582,-0.256783 z m 1.36814,0.649148 c 0.146347,0.09698 0.282812,0.207754 0.419072,0.318411 -0.137502,-0.110292 -0.27141,-0.221901 -0.419072,-0.318411 z m 0.647096,0.509459 c 0.152991,0.138656 0.302508,0.280166 0.439612,0.435505 -0.138179,-0.15501 -0.285334,-0.297353 -0.439612,-0.435505 z m 0.439612,0.435505 c 0.328929,0.372664 0.610139,0.79167 0.834033,1.244884 -0.224305,-0.454046 -0.502472,-0.872941 -0.834033,-1.244884 z m 0.834033,1.244884 -4.108532,0.881281 -0.776514,4.774117 -5.663615,-2.165197 -3.720276,1.66601 3.551826,2.8883 0.05753,4.149618 c 0.796084,0.03952 1.694882,0.08792 2.362408,0.117089 0.003,1.29e-4 0.0052,-1.27e-4 0.0082,0 l 2.403493,0.0083 0,0.09245 c 0.981196,0.03636 1.982338,0.07408 2.859539,0.104767 0.02509,8.8e-4 0.05299,10e-4 0.07807,0.0022 l -2.935549,0 0.04931,8.537535 c 0.0051,-0.09701 0.02671,-0.456048 0.02671,-0.456048 0,0 0.152918,3.066113 0.349225,4.550201 0.0832,0.628988 0.347171,1.435148 0.347171,1.824188 -2e-6,0.76654 -0.302793,1.386777 -0.679962,1.405121 l 0.01643,2.929383 -0.08011,0.01233 c 0.181527,0.0059 0.362468,0.0178 0.54438,0.01849 2.538365,-0.0056 5.050236,-0.530121 7.389199,-1.542756 l 0,-0.679961 0,-1.421553 0,-9.792693 c 3.234971,-1.006172 5.448567,-4.066343 5.452025,-7.537105 -0.0056,-4.051263 -3.000433,-7.438791 -6.926988,-7.834974 l 0,-0.02465 c 1.8e-4,-0.906582 -0.230128,-1.749492 -0.603956,-2.506206 z m -5.885475,12.411882 c -0.712352,-0.02641 -1.54595,-0.06319 -2.403491,-0.100658 0.857822,0.03747 1.690631,0.07422 2.403491,0.100658 z m 4.755629,7.311137 c 0,0 0.152918,3.066106 0.349225,4.5502 0.0832,0.62899 0.349227,1.435148 0.349226,1.824189 -10e-7,0.778082 -0.313361,1.409228 -0.698451,1.409228 -0.385089,0 -0.696396,-0.631146 -0.696396,-1.409228 -2e-6,-0.389041 0.263972,-1.195199 0.347169,-1.824189 0.196308,-1.484094 0.349227,-4.5502 0.349227,-4.5502 z m -4.70838,1.413333 c -0.01365,0.256957 -0.04759,0.784321 -0.08217,1.318841 0.0479,-0.712898 0.06561,-1.008551 0.08217,-1.318841 z m -7.245399,8.475907 c 0.159073,0.07346 0.321965,0.136541 0.482751,0.205427 -0.161021,-0.06882 -0.323451,-0.13198 -0.482751,-0.205427 z m 1.002481,0.425234 c 0.228066,0.08971 0.45922,0.170005 0.690235,0.250621 -0.230789,-0.08019 -0.462393,-0.161283 -0.690235,-0.250621 z m 1.014809,0.36566 c 0.24815,0.08153 0.49874,0.152897 0.749806,0.223916 -0.251399,-0.0707 -0.501333,-0.142661 -0.749806,-0.223916 z M 28.44346,51.8905 c 0.281154,0.07461 0.564203,0.139929 0.848413,0.201318 -0.284234,-0.06095 -0.567232,-0.127169 -0.848413,-0.201318 z m 1.020971,0.240348 c 0.329157,0.06785 0.659731,0.124616 0.992211,0.174613 -0.332362,-0.04957 -0.663163,-0.107282 -0.992211,-0.174613 z m 1.018915,0.180776 c 0.346304,0.05156 0.694435,0.09125 1.043569,0.123256 -0.349106,-0.03176 -0.697278,-0.07212 -1.043569,-0.123256 z m 1.064111,0.125311 c 0.352242,0.03189 0.705681,0.05392 1.060003,0.06574 -0.354069,-0.01175 -0.707989,-0.0341 -1.060003,-0.06574 z"
       id="path4568"
       inkscape:connector-curvature="0" />
    <path
       style="fill:#ffffff;fill-rule:evenodd;stroke:none;stroke-width:1px;stroke-linecap:butt;stroke-linejoin:miter;stroke-opacity:1"
       d="m 33.64281,18.112181 c -1.970432,5.1e-4 -3.785883,1.097328 -4.743302,2.865702 -1.182664,-1.020553 -2.776819,-1.416698 -4.751519,-1.419499 -3.659349,-0.0051 -6.624907,3.046254 -6.625012,6.803733 9.8e-5,3.757481 3.844478,6.670398 7.498074,6.875632 1.171428,0.0658 1.84691,0.09103 2.785584,0.137635 l -0.05753,-4.149618 -3.551827,-2.888301 3.720276,-1.66601 5.663616,2.165197 0.776512,-4.774115 4.108534,-0.881282 C 37.570641,19.368401 35.757974,18.112662 33.642801,18.112181 Z M 30.169044,33.49248 c 0.860634,0.03762 1.696927,0.07417 2.411709,0.100656 l 0,-0.09245 -2.411709,-0.0082 z m -5.780709,0.168448 0,15.215955 0,1.421554 c 2.546526,1.362584 5.357834,2.109378 8.223234,2.204227 l 0.08011,-0.01232 -0.01643,-2.929384 c -0.0057,2.76e-4 -0.01068,0.0041 -0.01643,0.0041 -0.38509,0 -0.698449,-0.631146 -0.69845,-1.409226 0,-0.389041 0.266026,-1.195201 0.349224,-1.824189 0.170044,-1.285505 0.288773,-3.451389 0.32252,-4.090047 l -0.04931,-8.541642 -3.155354,0 -4.410511,0 c -0.212679,-5e-6 -0.421163,-0.01879 -0.628606,-0.03903 z m 3.276558,7.243345 c 0,0 0.150864,3.066106 0.347171,4.550201 0.0832,0.62899 0.349226,1.43515 0.349224,1.824188 -10e-7,0.778082 -0.311306,1.40923 -0.696395,1.40923 -0.385091,0 -0.69845,-0.631148 -0.698451,-1.40923 -1e-6,-0.389038 0.266028,-1.195198 0.349225,-1.824188 0.196307,-1.484095 0.349226,-4.550201 0.349226,-4.550201 z"
       id="path4570"
       inkscape:connector-curvature="0" />
  </g>
</svg>
