<?xml version="1.0" encoding="UTF-8" standalone="no"?>
<!-- Created with Inkscape (http://www.inkscape.org/) -->

<svg
   xmlns:dc="http://purl.org/dc/elements/1.1/"
   xmlns:cc="http://creativecommons.org/ns#"
   xmlns:rdf="http://www.w3.org/1999/02/22-rdf-syntax-ns#"
   xmlns:svg="http://www.w3.org/2000/svg"
   xmlns="http://www.w3.org/2000/svg"
   xmlns:sodipodi="http://sodipodi.sourceforge.net/DTD/sodipodi-0.dtd"
   xmlns:inkscape="http://www.inkscape.org/namespaces/inkscape"
   width="64"
   height="64"
   id="svg4263"
   version="1.1"
   inkscape:version="0.91 r13725"
   viewBox="0 0 64 64"
   inkscape:export-filename="C:\Users\emile\Desktop\SÉMINAIRE TAL\graphismes\allergenes\lactose_sq.png"
   inkscape:export-xdpi="105.46875"
   inkscape:export-ydpi="105.46875"
   sodipodi:docname="tres_facile.svg">
  <defs
     id="defs4265">
    <pattern
       y="0"
       x="0"
       height="6"
       width="6"
       patternUnits="userSpaceOnUse"
       id="EMFhbasepattern" />
  </defs>
  <sodipodi:namedview
     id="base"
     pagecolor="#ffffff"
     bordercolor="#666666"
     borderopacity="1.0"
     inkscape:pageopacity="0.0"
     inkscape:pageshadow="2"
     inkscape:zoom="6.6970926"
     inkscape:cx="24.267232"
     inkscape:cy="34.076785"
     inkscape:current-layer="layer1"
     showgrid="true"
     inkscape:document-units="px"
     inkscape:grid-bbox="true"
     inkscape:snap-page="true"
     inkscape:snap-bbox="true"
     inkscape:bbox-nodes="true"
     inkscape:snap-nodes="true"
     inkscape:snap-others="false"
     inkscape:object-nodes="true"
     inkscape:window-width="1474"
     inkscape:window-height="841"
     inkscape:window-x="-8"
     inkscape:window-y="-8"
     inkscape:window-maximized="1" />
  <metadata
     id="metadata4268">
    <rdf:RDF>
      <cc:Work
         rdf:about="">
        <dc:format>image/svg+xml</dc:format>
        <dc:type
           rdf:resource="http://purl.org/dc/dcmitype/StillImage" />
        <dc:title></dc:title>
      </cc:Work>
    </rdf:RDF>
  </metadata>
  <g
     id="layer1"
     inkscape:label="Layer 1"
     inkscape:groupmode="layer">
    <path
       style="opacity:0.33200001;fill:#000000;fill-opacity:1;stroke:none;stroke-width:0.1;stroke-linecap:round;stroke-linejoin:round;stroke-miterlimit:4;stroke-dasharray:none;stroke-opacity:1"
       d="M 42.871094 21.167969 L 42.867188 21.171875 C 44.16003 22.526985 44.956247 24.374482 44.958984 26.402344 C 44.955698 29.702222 42.851087 32.611725 39.775391 33.568359 L 39.775391 42.878906 L 39.775391 44.230469 L 39.775391 44.876953 C 37.551587 45.839731 35.163387 46.33835 32.75 46.34375 C 32.577043 46.343089 32.405011 46.331885 32.232422 46.326172 C 32.231122 46.326129 32.229815 46.326215 32.228516 46.326172 C 32.11621 46.322429 32.004686 46.310578 31.892578 46.304688 C 31.661991 46.292667 31.430777 46.282609 31.201172 46.261719 C 31.084863 46.251055 30.969557 46.233331 30.853516 46.220703 C 30.638374 46.197202 30.422864 46.176121 30.208984 46.144531 C 30.200415 46.143266 30.192161 46.13995 30.183594 46.138672 C 29.995705 46.110418 29.809753 46.072727 29.623047 46.039062 C 29.495612 46.016013 29.367133 45.99862 29.240234 45.972656 C 29.185286 45.961414 29.131011 45.947308 29.076172 45.935547 C 28.805956 45.877181 28.536843 45.81507 28.269531 45.744141 C 28.175946 45.719462 28.083429 45.692225 27.990234 45.666016 C 27.751529 45.598495 27.513276 45.530637 27.277344 45.453125 C 27.173795 45.419263 27.071722 45.379533 26.96875 45.34375 C 26.866909 45.308211 26.765655 45.270703 26.664062 45.234375 C 26.3794 45.129615 26.09799 45.015994 25.818359 44.896484 C 25.768215 44.875001 25.718345 44.85287 25.667969 44.832031 C 25.564814 44.789339 25.461152 44.748096 25.359375 44.701172 C 25.040575 44.554189 24.724984 44.396835 24.414062 44.230469 L 44.183594 64 L 64 64 L 64 42.296875 L 42.871094 21.167969 z M 19.597656 25.478516 L 19.595703 25.480469 L 19.634766 25.519531 C 19.621948 25.506207 19.610364 25.491926 19.597656 25.478516 z M 19.728516 25.613281 L 24.414062 30.298828 L 24.414062 28.412109 C 24.611292 28.431349 24.809511 28.449213 25.011719 28.449219 L 29.205078 28.449219 L 32.205078 28.449219 L 34.996094 28.449219 C 34.972254 28.448319 34.945725 28.448103 34.921875 28.447266 C 34.087862 28.418085 33.136011 28.382235 32.203125 28.347656 C 31.525845 28.322553 30.733288 28.287589 29.917969 28.251953 C 29.915186 28.251832 29.912939 28.252075 29.910156 28.251953 C 29.275496 28.224214 28.420951 28.178196 27.664062 28.140625 C 26.771601 28.096325 26.129379 28.072329 25.015625 28.009766 C 23.09055 27.901628 21.112049 27.001207 19.728516 25.613281 z M 27.529297 35.298828 C 27.529297 35.298828 27.383908 38.213975 27.197266 39.625 C 27.118164 40.223021 26.865233 40.989489 26.865234 41.359375 C 26.865235 42.099147 27.163167 42.699219 27.529297 42.699219 C 27.895427 42.699219 28.191405 42.099147 28.191406 41.359375 C 28.191407 40.989489 27.938475 40.223021 27.859375 39.625 C 27.672733 38.213975 27.529297 35.298828 27.529297 35.298828 z M 36.724609 35.298828 C 36.724609 35.298828 36.57922 38.213975 36.392578 39.625 C 36.313476 40.223021 36.062499 40.989489 36.0625 41.359375 C 36.062501 42.099147 36.358479 42.699219 36.724609 42.699219 C 37.090739 42.699219 37.388671 42.099147 37.388672 41.359375 C 37.388673 40.989489 37.135741 40.223021 37.056641 39.625 C 36.869999 38.213975 36.724609 35.298828 36.724609 35.298828 z M 32.277344 36.132812 C 32.277344 36.132812 32.256824 36.474175 32.251953 36.566406 L 32.251953 36.570312 C 32.244324 36.714681 32.217505 37.107005 32.201172 37.384766 C 32.189229 37.572874 32.183342 37.689103 32.169922 37.896484 C 32.114857 38.747401 32.044397 39.709917 31.945312 40.458984 C 31.86621 41.057005 31.613281 41.823473 31.613281 42.193359 C 31.613283 42.933131 31.911214 43.533203 32.277344 43.533203 C 32.282775 43.533203 32.287569 43.529559 32.292969 43.529297 C 32.651568 43.511858 32.939452 42.922158 32.939453 42.193359 C 32.939453 41.823473 32.688475 41.057005 32.609375 40.458984 C 32.422733 39.047967 32.277344 36.132812 32.277344 36.132812 z "
       id="rect4514" />
    <path
       style="opacity:0.655;fill:#ffffff;fill-opacity:1;stroke:none;stroke-width:1.41400003;stroke-miterlimit:4;stroke-dasharray:none;stroke-opacity:1"
       d="M 33.212891 13.628906 C 33.440375 13.628958 33.663534 13.648101 33.882812 13.677734 C 33.663035 13.648365 33.440455 13.628958 33.212891 13.628906 z M 34.039062 13.703125 C 34.236307 13.73624 34.430341 13.776384 34.619141 13.832031 C 34.430175 13.777116 34.236175 13.735804 34.039062 13.703125 z M 34.671875 13.847656 C 34.889711 13.9145 35.100194 13.996956 35.304688 14.091797 C 35.099469 13.997995 34.890175 13.913693 34.671875 13.847656 z M 35.972656 14.464844 C 36.111795 14.557042 36.241542 14.662369 36.371094 14.767578 C 36.240362 14.662717 36.113046 14.556603 35.972656 14.464844 z M 36.587891 14.949219 C 36.733349 15.081049 36.875504 15.215592 37.005859 15.363281 C 36.874483 15.215904 36.734574 15.080569 36.587891 14.949219 z M 37.005859 15.363281 C 37.318592 15.717599 37.585957 16.115975 37.798828 16.546875 C 37.585566 16.115184 37.321095 15.716912 37.005859 15.363281 z M 37.798828 16.546875 L 33.892578 17.384766 L 33.154297 21.923828 L 27.769531 19.865234 L 24.232422 21.449219 L 27.609375 24.195312 L 27.664062 28.140625 C 28.42095 28.178196 29.275496 28.224214 29.910156 28.251953 C 29.912939 28.252075 29.915186 28.251832 29.917969 28.251953 L 32.203125 28.259766 L 32.203125 28.347656 C 33.136011 28.382235 34.087862 28.418085 34.921875 28.447266 C 34.945725 28.448103 34.972254 28.448319 34.996094 28.449219 L 32.205078 28.449219 L 32.251953 36.566406 C 32.256824 36.474175 32.277344 36.132812 32.277344 36.132812 C 32.277344 36.132812 32.422733 39.047967 32.609375 40.458984 C 32.688475 41.057005 32.939453 41.823473 32.939453 42.193359 C 32.939452 42.922158 32.651568 43.511858 32.292969 43.529297 L 32.308594 46.314453 L 32.232422 46.326172 C 32.405011 46.331885 32.577043 46.343089 32.75 46.34375 C 35.163387 46.33835 37.551587 45.839731 39.775391 44.876953 L 39.775391 44.230469 L 39.775391 42.878906 L 39.775391 33.568359 C 42.851087 32.611725 44.955698 29.702222 44.958984 26.402344 C 44.953784 22.550545 42.106278 19.329802 38.373047 18.953125 L 38.373047 18.929688 C 38.373218 18.06774 38.154251 17.266332 37.798828 16.546875 z M 32.203125 28.347656 C 31.525845 28.322553 30.733288 28.287589 29.917969 28.251953 C 30.733557 28.287583 31.525363 28.322534 32.203125 28.347656 z M 36.724609 35.298828 C 36.724609 35.298828 36.869999 38.213975 37.056641 39.625 C 37.135741 40.223021 37.388673 40.989489 37.388672 41.359375 C 37.388671 42.099147 37.090739 42.699219 36.724609 42.699219 C 36.358479 42.699219 36.062501 42.099147 36.0625 41.359375 C 36.062499 40.989489 36.313476 40.223021 36.392578 39.625 C 36.57922 38.213975 36.724609 35.298828 36.724609 35.298828 z M 32.248047 36.642578 C 32.23506 36.886881 32.202809 37.388281 32.169922 37.896484 C 32.215474 37.218685 32.232294 36.93759 32.248047 36.642578 z M 25.359375 44.701172 C 25.510617 44.771013 25.665489 44.83099 25.818359 44.896484 C 25.665265 44.831054 25.510833 44.771002 25.359375 44.701172 z M 26.3125 45.105469 C 26.529336 45.190777 26.74911 45.267103 26.96875 45.34375 C 26.749324 45.267499 26.529124 45.190409 26.3125 45.105469 z M 27.277344 45.453125 C 27.513276 45.530637 27.751529 45.598495 27.990234 45.666016 C 27.751212 45.598795 27.513584 45.53038 27.277344 45.453125 z M 28.269531 45.744141 C 28.536843 45.81507 28.805956 45.877181 29.076172 45.935547 C 28.805934 45.877592 28.536868 45.814637 28.269531 45.744141 z M 29.240234 45.972656 C 29.553185 46.037158 29.867483 46.091136 30.183594 46.138672 C 29.867597 46.09153 29.553082 46.036665 29.240234 45.972656 z M 30.208984 46.144531 C 30.538237 46.193549 30.869228 46.231285 31.201172 46.261719 C 30.869255 46.231519 30.538226 46.193159 30.208984 46.144531 z M 31.220703 46.263672 C 31.555604 46.294003 31.891639 46.314946 32.228516 46.326172 C 31.891881 46.314955 31.555386 46.293752 31.220703 46.263672 z "
       id="path4521" />
    <path
       style="fill:#ffffff;fill-rule:evenodd;stroke:none;stroke-width:1px;stroke-linecap:butt;stroke-linejoin:miter;stroke-opacity:1"
       d="M 33.212891 13.628906 C 31.339473 13.629391 29.613407 14.672207 28.703125 16.353516 C 27.57869 15.383208 26.063024 15.006569 24.185547 15.003906 C 20.706368 14.999006 17.886818 17.900176 17.886719 21.472656 C 17.886812 25.045137 21.541914 27.814637 25.015625 28.009766 C 26.129379 28.072329 26.771601 28.096325 27.664062 28.140625 L 27.609375 24.195312 L 24.232422 21.449219 L 27.769531 19.865234 L 33.154297 21.923828 L 33.892578 17.384766 L 37.798828 16.546875 C 36.947344 14.823276 35.223924 13.629364 33.212891 13.628906 z M 29.910156 28.251953 C 30.728416 28.287717 31.523534 28.322467 32.203125 28.347656 L 32.203125 28.259766 L 29.910156 28.251953 z M 24.414062 28.412109 L 24.414062 42.878906 L 24.414062 44.230469 C 26.835208 45.525967 29.508101 46.235992 32.232422 46.326172 L 32.308594 46.314453 L 32.292969 43.529297 C 32.287569 43.529559 32.282775 43.533203 32.277344 43.533203 C 31.911214 43.533203 31.613283 42.933131 31.613281 42.193359 C 31.613281 41.823473 31.86621 41.057005 31.945312 40.458984 C 32.106983 39.236772 32.219866 37.177525 32.251953 36.570312 L 32.205078 28.449219 L 29.205078 28.449219 L 25.011719 28.449219 C 24.809511 28.449213 24.611292 28.431349 24.414062 28.412109 z M 27.529297 35.298828 C 27.529297 35.298828 27.672733 38.213975 27.859375 39.625 C 27.938475 40.223021 28.191407 40.989489 28.191406 41.359375 C 28.191405 42.099147 27.895427 42.699219 27.529297 42.699219 C 27.163167 42.699219 26.865235 42.099147 26.865234 41.359375 C 26.865233 40.989489 27.118164 40.223021 27.197266 39.625 C 27.383908 38.213975 27.529297 35.298828 27.529297 35.298828 z "
       id="path4526" />
  </g>
</svg>
