<?xml version="1.0" encoding="UTF-8" standalone="no"?>
<!-- Created with Inkscape (http://www.inkscape.org/) -->

<svg
   xmlns:dc="http://purl.org/dc/elements/1.1/"
   xmlns:cc="http://creativecommons.org/ns#"
   xmlns:rdf="http://www.w3.org/1999/02/22-rdf-syntax-ns#"
   xmlns:svg="http://www.w3.org/2000/svg"
   xmlns="http://www.w3.org/2000/svg"
   xmlns:xlink="http://www.w3.org/1999/xlink"
   xmlns:sodipodi="http://sodipodi.sourceforge.net/DTD/sodipodi-0.dtd"
   xmlns:inkscape="http://www.inkscape.org/namespaces/inkscape"
   width="64"
   height="64"
   id="svg4684"
   version="1.1"
   inkscape:version="0.91 r13725"
   viewBox="0 0 64 64"
   sodipodi:docname="dessert.svg">
  <defs
     id="defs4686">
    <linearGradient
       inkscape:collect="always"
       id="linearGradient5494">
      <stop
         style="stop-color:#ffffff;stop-opacity:1;"
         offset="0"
         id="stop5496" />
      <stop
         style="stop-color:#ffffff;stop-opacity:0;"
         offset="1"
         id="stop5498" />
    </linearGradient>
    <inkscape:path-effect
       effect="spiro"
       id="path-effect3941-8"
       is_visible="true" />
    <linearGradient
       inkscape:collect="always"
       xlink:href="#linearGradient5494"
       id="linearGradient5500"
       x1="13.09375"
       y1="34.654297"
       x2="48.690777"
       y2="49.903278"
       gradientUnits="userSpaceOnUse" />
  </defs>
  <sodipodi:namedview
     id="base"
     pagecolor="#ffffff"
     bordercolor="#666666"
     borderopacity="1.0"
     inkscape:pageopacity="0.0"
     inkscape:pageshadow="2"
     inkscape:zoom="6.3044218"
     inkscape:cx="39.607297"
     inkscape:cy="36.616121"
     inkscape:current-layer="layer1"
     showgrid="true"
     inkscape:document-units="px"
     inkscape:grid-bbox="true"
     inkscape:snap-page="true"
     inkscape:object-nodes="true"
     inkscape:object-paths="true"
     inkscape:snap-bbox="true"
     inkscape:bbox-nodes="true"
     inkscape:snap-object-midpoints="true"
     inkscape:snap-global="true"
     showguides="true"
     inkscape:window-width="1470"
     inkscape:window-height="841"
     inkscape:window-x="-8"
     inkscape:window-y="-8"
     inkscape:window-maximized="1" />
  <metadata
     id="metadata4689">
    <rdf:RDF>
      <cc:Work
         rdf:about="">
        <dc:format>image/svg+xml</dc:format>
        <dc:type
           rdf:resource="http://purl.org/dc/dcmitype/StillImage" />
        <dc:title></dc:title>
      </cc:Work>
    </rdf:RDF>
  </metadata>
  <g
     id="layer1"
     inkscape:label="Layer 1"
     inkscape:groupmode="layer">
    <path
       style="opacity:0.33200001;fill:#000000;fill-opacity:0.77064221;stroke:none;stroke-width:1.5;stroke-linecap:round;stroke-linejoin:round;stroke-miterlimit:4;stroke-dasharray:none;stroke-dashoffset:0;stroke-opacity:1"
       d="M 49.515625 9.1660156 L 49.509766 9.171875 C 50.250684 9.8811462 50.34499 11.039062 49.689453 11.853516 L 43.873047 19.078125 C 44.197872 20.036948 44.156064 21.099791 43.724609 22.046875 C 42.978782 21.755385 42.20223 21.550926 41.410156 21.4375 C 41.360826 20.098192 41.050936 18.781648 40.498047 17.5625 L 37.634766 14.699219 C 37.855059 14.919626 38.064926 15.15035 38.263672 15.390625 C 38.373486 15.528384 38.479644 15.669059 38.582031 15.8125 C 38.676721 15.93532 38.768543 16.060354 38.857422 16.1875 C 39.048145 16.471785 39.224161 16.765796 39.384766 17.068359 C 40.089965 18.38794 40.490526 19.850656 40.556641 21.347656 C 40.247559 21.318566 39.937374 21.302931 39.626953 21.300781 C 38.348609 21.306881 37.08151 21.541612 35.884766 21.994141 C 33.941936 22.718898 32.247475 23.991608 31.003906 25.660156 C 30.944456 25.579886 30.883901 25.500455 30.822266 25.421875 C 28.779134 22.822715 25.669112 21.305105 22.376953 21.300781 C 21.845829 21.305081 21.315742 21.348771 20.791016 21.431641 L 21.597656 22.238281 C 21.856811 22.214951 22.116778 22.201919 22.376953 22.199219 C 22.646302 22.202519 22.915406 22.216818 23.183594 22.242188 L 23.203125 22.244141 C 23.3493 22.257151 23.495169 22.273429 23.640625 22.292969 L 23.654297 22.294922 C 23.826858 22.317692 23.998793 22.345053 24.169922 22.376953 C 24.3125 22.404403 24.454462 22.43501 24.595703 22.46875 C 24.771368 22.50887 24.945912 22.55381 25.119141 22.603516 C 25.275311 22.650436 25.430306 22.701236 25.583984 22.755859 L 25.585938 22.755859 C 25.744946 22.810409 25.902549 22.869018 26.058594 22.931641 C 26.211935 22.994851 26.363676 23.061931 26.513672 23.132812 C 26.658567 23.199632 26.801838 23.269964 26.943359 23.34375 C 27.079878 23.41673 27.214681 23.492926 27.347656 23.572266 C 27.497795 23.659486 27.645633 23.750664 27.791016 23.845703 C 27.931494 23.939793 28.06956 24.037478 28.205078 24.138672 C 28.338421 24.236272 28.469321 24.337219 28.597656 24.441406 C 28.719232 24.542046 28.838407 24.645591 28.955078 24.751953 C 29.086491 24.868941 29.214791 24.989427 29.339844 25.113281 C 29.44995 25.225283 29.557402 25.339898 29.662109 25.457031 C 29.774606 25.579892 29.884015 25.705583 29.990234 25.833984 C 30.15924 26.036441 30.320175 26.24559 30.472656 26.460938 C 30.372224 26.316907 30.268021 26.175582 30.160156 26.037109 C 30.269832 26.171656 30.375989 26.309073 30.478516 26.449219 L 30.472656 26.460938 C 30.368991 26.632006 30.269995 26.805899 30.175781 26.982422 C 30.173381 26.981535 30.172422 26.981369 30.169922 26.980469 C 29.295365 28.591777 28.836046 30.398161 28.833984 32.234375 C 28.840884 32.478951 28.855836 32.723228 28.878906 32.966797 L 29.779297 32.966797 C 29.752297 32.699989 29.736009 32.432193 29.730469 32.164062 C 29.731024 32.138672 29.731622 32.113281 29.732422 32.087891 C 29.736122 31.828989 29.749757 31.570329 29.773438 31.3125 C 29.788168 31.159753 29.806405 31.007368 29.828125 30.855469 C 29.851125 30.673083 29.879129 30.491373 29.912109 30.310547 C 29.938679 30.176491 29.96798 30.042999 30 29.910156 C 30.04476 29.711368 30.09556 29.51401 30.152344 29.318359 C 30.186824 29.205738 30.223294 29.093741 30.261719 28.982422 C 30.328859 28.779569 30.402464 28.578944 30.482422 28.380859 C 30.527412 28.272612 30.574292 28.165174 30.623047 28.058594 C 30.713417 27.856168 30.810474 27.656838 30.914062 27.460938 C 30.959763 27.377588 31.006642 27.294893 31.054688 27.212891 C 31.174065 27.001246 31.301104 26.794076 31.435547 26.591797 C 31.480977 26.525477 31.527207 26.45972 31.574219 26.394531 C 31.71778 26.190306 31.868929 25.991598 32.027344 25.798828 C 32.082504 25.733648 32.1385 25.669193 32.195312 25.605469 C 32.356555 25.418897 32.524641 25.238433 32.699219 25.064453 C 32.755239 25.010403 32.811879 24.95701 32.869141 24.904297 C 33.058903 24.724011 33.255671 24.55135 33.458984 24.386719 C 33.504894 24.350499 33.551114 24.314689 33.597656 24.279297 C 33.810608 24.113448 34.030191 23.956417 34.255859 23.808594 C 34.310869 23.774194 34.366208 23.740334 34.421875 23.707031 C 34.648857 23.564791 34.88147 23.43187 35.119141 23.308594 C 35.169061 23.283424 35.219194 23.258685 35.269531 23.234375 C 35.423099 23.153445 35.578752 23.0766 35.736328 23.003906 C 35.754558 23.003197 35.772786 23.002553 35.791016 23.001953 C 35.884116 22.958823 35.977879 22.917153 36.072266 22.876953 C 36.074266 22.876257 36.078078 22.873747 36.080078 22.873047 C 36.090128 22.869747 36.107807 22.856026 36.117188 22.853516 C 36.161347 22.837576 36.205618 22.821941 36.25 22.806641 L 36.287109 22.796875 C 36.871621 22.58605 37.474539 22.43107 38.087891 22.333984 L 38.152344 22.318359 C 38.474217 22.271719 38.798178 22.241092 39.123047 22.226562 C 39.290758 22.213133 39.458781 22.204019 39.626953 22.199219 C 39.734431 22.201319 39.841867 22.205318 39.949219 22.210938 C 40.164491 22.218837 40.379449 22.233829 40.59375 22.255859 C 40.730152 22.269939 40.866249 22.286871 41.001953 22.306641 C 41.028663 22.311041 41.055351 22.315643 41.082031 22.320312 C 41.254645 22.345032 41.42658 22.374343 41.597656 22.408203 C 41.719916 22.433873 41.841683 22.461878 41.962891 22.492188 C 42.155829 22.539117 42.347322 22.591868 42.537109 22.650391 C 42.671509 22.692441 42.805003 22.737371 42.9375 22.785156 C 43.115185 22.848446 43.291038 22.916833 43.464844 22.990234 C 43.587018 23.042464 43.708136 23.097162 43.828125 23.154297 C 43.973771 23.224307 44.117694 23.2979 44.259766 23.375 C 44.300266 23.39491 44.340636 23.415087 44.380859 23.435547 C 44.48346 23.492967 44.585039 23.552222 44.685547 23.613281 C 44.874302 23.725553 45.059299 23.844108 45.240234 23.96875 C 45.321834 24.02611 45.402575 24.084715 45.482422 24.144531 C 45.67453 24.286132 45.8615 24.434667 46.042969 24.589844 C 46.109499 24.647554 46.175256 24.706153 46.240234 24.765625 C 46.370454 24.885878 46.497453 25.00962 46.621094 25.136719 C 46.669744 25.183099 46.717924 25.229979 46.765625 25.277344 C 46.846625 25.364444 46.926065 25.452998 47.003906 25.542969 C 47.149315 25.705599 47.289365 25.873008 47.423828 26.044922 C 47.515858 26.167181 47.605077 26.291563 47.691406 26.417969 C 47.792766 26.558602 47.890456 26.70188 47.984375 26.847656 C 48.028195 26.916776 48.071165 26.986448 48.113281 27.056641 C 48.244325 27.277692 48.366813 27.503773 48.480469 27.734375 C 48.507689 27.790765 48.534387 27.847404 48.560547 27.904297 C 48.678402 28.153599 48.785918 28.407724 48.882812 28.666016 C 48.900762 28.714056 48.918347 28.762236 48.935547 28.810547 C 49.027727 29.070055 49.10918 29.333302 49.179688 29.599609 C 49.188887 29.628209 49.198051 29.656857 49.207031 29.685547 L 49.203125 29.6875 C 49.413278 30.496146 49.52155 31.328201 49.525391 32.164062 C 49.523091 32.43206 49.510058 32.699856 49.486328 32.966797 L 49.53125 32.966797 L 49.478516 33.119141 L 49.476562 33.15625 L 49.466797 33.15625 L 48.347656 36.398438 L 47.931641 37.605469 L 47.537109 38.751953 L 46.001953 43.207031 L 44.681641 47.037109 L 43.806641 49.574219 L 43.658203 50.009766 L 43.339844 50.933594 L 42.650391 52.931641 L 19.394531 52.931641 L 30.462891 64 L 64 64 L 64 23.648438 L 49.515625 9.1660156 z M 34.371094 18.509766 C 34.424584 18.579316 34.485256 18.643451 34.554688 18.701172 L 34.556641 18.701172 C 34.487211 18.643442 34.424576 18.579335 34.371094 18.509766 z M 34.892578 24.068359 C 34.891378 24.072859 34.889872 24.077561 34.888672 24.082031 C 34.874702 24.136251 34.871944 24.189238 34.871094 24.242188 C 34.872094 24.184918 34.876298 24.127159 34.892578 24.068359 z "
       id="rect5516" />
    <path
       style="opacity:1;fill:#ffffff;fill-opacity:1;stroke:none;stroke-width:1.5;stroke-linecap:round;stroke-linejoin:round;stroke-miterlimit:4;stroke-dasharray:none;stroke-dashoffset:0;stroke-opacity:1"
       d="M 12.511719 32.966797 L 13.09375 34.654297 L 14.234375 32.966797 L 12.511719 32.966797 z M 15.269531 32.966797 L 13.710938 35.378906 L 15.449219 38.064453 L 15.439453 39.900391 L 18.277344 35.703125 L 16.5625 32.966797 L 15.269531 32.966797 z M 18.277344 35.703125 L 20.125 32.966797 L 17.703125 32.966797 L 18.285156 33.867188 L 18.277344 35.703125 z M 18.277344 35.703125 L 18.285156 37.212891 L 16.546875 39.900391 L 18.285156 42.587891 L 18.275391 44.423828 L 21.113281 40.224609 L 18.277344 35.703125 z M 21.113281 40.224609 L 23.949219 36.027344 L 22.03125 32.966797 L 21.123047 32.966797 L 21.123047 33.013672 L 19.384766 35.703125 L 21.123047 38.390625 L 21.113281 40.224609 z M 21.113281 40.224609 L 21.123047 41.734375 L 19.382812 44.423828 L 21.121094 47.111328 L 21.113281 48.947266 L 23.949219 44.748047 L 21.113281 40.224609 z M 23.949219 44.748047 L 26.787109 40.548828 L 23.949219 36.027344 L 23.958984 37.537109 L 22.220703 40.224609 L 23.958984 42.912109 L 23.949219 44.748047 z M 23.949219 44.748047 L 23.958984 46.257812 L 22.220703 48.947266 L 23.957031 51.634766 L 23.949219 52.931641 L 24.3125 52.931641 L 26.785156 49.271484 L 23.949219 44.748047 z M 26.785156 49.271484 L 29.623047 45.072266 L 26.787109 40.548828 L 26.794922 42.060547 L 25.056641 44.748047 L 26.792969 47.435547 L 26.785156 49.271484 z M 26.785156 49.271484 L 26.792969 50.78125 L 25.402344 52.931641 L 29.080078 52.931641 L 26.785156 49.271484 z M 26.787109 40.548828 L 29.623047 36.351562 L 27.501953 32.966797 L 26.792969 32.966797 L 26.794922 33.337891 L 25.056641 36.027344 L 26.794922 38.712891 L 26.787109 40.548828 z M 29.623047 36.351562 L 31.912109 32.966797 L 28.630859 32.966797 L 29.632812 34.515625 L 29.623047 36.351562 z M 29.623047 36.351562 L 29.632812 37.861328 L 27.894531 40.548828 L 29.630859 43.236328 L 29.623047 45.072266 L 32.458984 40.875 L 29.623047 36.351562 z M 32.458984 40.875 L 35.296875 36.675781 L 32.970703 32.966797 L 32.464844 32.966797 L 32.46875 33.662109 L 30.730469 36.351562 L 32.46875 39.039062 L 32.458984 40.875 z M 32.458984 40.875 L 32.46875 42.384766 L 30.730469 45.072266 L 32.466797 47.759766 L 32.458984 49.595703 L 35.294922 45.398438 L 32.458984 40.875 z M 35.294922 45.398438 L 38.132812 41.199219 L 35.296875 36.675781 L 35.304688 38.185547 L 33.566406 40.875 L 35.302734 43.560547 L 35.294922 45.398438 z M 35.294922 45.398438 L 35.302734 46.90625 L 33.566406 49.595703 L 35.302734 52.283203 L 35.298828 52.931641 L 36.095703 52.931641 L 38.130859 49.921875 L 35.294922 45.398438 z M 38.130859 49.921875 L 40.96875 45.722656 L 38.132812 41.199219 L 38.140625 42.708984 L 36.402344 45.398438 L 38.140625 48.083984 L 38.130859 49.921875 z M 38.130859 49.921875 L 38.140625 51.429688 L 37.167969 52.931641 L 40.019531 52.931641 L 38.130859 49.921875 z M 38.132812 41.199219 L 40.96875 37 L 38.439453 32.966797 L 38.136719 32.966797 L 38.142578 33.988281 L 36.404297 36.675781 L 38.140625 39.363281 L 38.132812 41.199219 z M 40.96875 37 L 43.695312 32.966797 L 39.556641 32.966797 L 40.978516 35.164062 L 40.96875 37 z M 40.96875 37 L 40.978516 38.509766 L 39.240234 41.199219 L 40.976562 43.886719 L 40.96875 45.722656 L 43.804688 41.523438 L 40.96875 37 z M 43.804688 41.523438 L 46.642578 37.324219 L 43.910156 32.966797 L 43.806641 32.966797 L 43.814453 34.3125 L 42.076172 37 L 43.814453 39.6875 L 43.804688 41.523438 z M 43.804688 41.523438 L 43.814453 43.033203 L 42.076172 45.722656 L 43.8125 48.410156 L 43.806641 49.574219 L 45.597656 44.382812 L 43.804688 41.523438 z M 46.642578 37.324219 L 49.470703 33.140625 L 49.53125 32.966797 L 45.019531 32.966797 L 46.650391 35.488281 L 46.642578 37.324219 z M 46.642578 37.324219 L 46.650391 38.835938 L 44.912109 41.523438 L 46.001953 43.207031 L 47.537109 38.751953 L 46.642578 37.324219 z M 40.96875 45.722656 L 40.976562 47.232422 L 39.238281 49.921875 L 40.976562 52.607422 L 40.974609 52.931641 L 41.988281 52.931641 L 43.339844 50.933594 L 43.658203 50.009766 L 40.96875 45.722656 z M 35.296875 36.675781 L 37.800781 32.966797 L 34.091797 32.966797 L 35.304688 34.839844 L 35.296875 36.675781 z M 32.458984 49.595703 L 32.466797 51.105469 L 31.285156 52.931641 L 34.548828 52.931641 L 32.458984 49.595703 z M 32.458984 49.595703 L 29.623047 45.072266 L 29.630859 46.583984 L 27.892578 49.271484 L 29.628906 51.958984 L 29.625 52.931641 L 30.203125 52.931641 L 32.458984 49.595703 z M 23.949219 36.027344 L 26.017578 32.966797 L 23.166016 32.966797 L 23.958984 34.191406 L 23.949219 36.027344 z M 21.113281 48.947266 L 21.121094 50.457031 L 19.521484 52.931641 L 23.609375 52.931641 L 21.113281 48.947266 z M 21.113281 48.947266 L 18.275391 44.423828 L 18.285156 45.933594 L 17.435547 47.248047 L 19.064453 51.976562 L 21.113281 48.947266 z M 18.275391 44.423828 L 15.439453 39.900391 L 15.449219 41.410156 L 15.431641 41.4375 L 17.074219 46.201172 L 18.275391 44.423828 z M 15.439453 39.900391 L 14.246094 37.998047 L 15.083984 40.427734 L 15.439453 39.900391 z M 48.347656 36.398438 L 47.75 37.324219 L 47.931641 37.605469 L 48.347656 36.398438 z "
       id="path5491" />
    <path
       style="opacity:1;fill:#ffffff;fill-opacity:0.38135594;stroke:none;stroke-width:1.5;stroke-linecap:round;stroke-linejoin:round;stroke-miterlimit:4;stroke-dasharray:none;stroke-dashoffset:0;stroke-opacity:1"
       d="M 30.673828 11.794922 A 9.8976086 9.9654673 0 0 1 31.150391 11.814453 A 9.8976086 9.9654673 0 0 0 30.673828 11.794922 z M 29.685547 11.845703 A 9.8976086 9.9654673 0 0 0 23.214844 15.238281 A 9.8976086 9.9654673 0 0 1 29.685547 11.845703 z M 31.664062 11.855469 A 9.8976086 9.9654673 0 0 1 32.25 11.933594 A 9.8976086 9.9654673 0 0 0 31.664062 11.855469 z M 32.601562 11.996094 A 9.8976086 9.9654673 0 0 1 33.226562 12.144531 A 9.8976086 9.9654673 0 0 0 32.601562 11.996094 z M 33.552734 12.238281 A 9.8976086 9.9654673 0 0 1 34.193359 12.460938 A 9.8976086 9.9654673 0 0 0 33.552734 12.238281 z M 34.455078 12.566406 A 9.8976086 9.9654673 0 0 1 35.128906 12.876953 A 9.8976086 9.9654673 0 0 0 34.455078 12.566406 z M 35.314453 12.974609 A 9.8976086 9.9654673 0 0 1 36.019531 13.390625 A 9.8976086 9.9654673 0 0 0 35.314453 12.974609 z M 36.136719 13.466797 A 9.8976086 9.9654673 0 0 1 36.847656 13.992188 A 9.8976086 9.9654673 0 0 0 36.136719 13.466797 z M 36.910156 14.042969 A 9.8976086 9.9654673 0 0 1 37.595703 14.660156 A 9.8976086 9.9654673 0 0 0 36.910156 14.042969 z M 37.634766 14.699219 A 9.8976086 9.9654673 0 0 1 38.263672 15.390625 A 9.8976086 9.9654673 0 0 0 37.634766 14.699219 z M 27.851562 14.894531 C 26.691347 14.923052 26.272363 17.158286 24.964844 16.667969 C 24.3549 16.43923 23.428506 15.8172 23.199219 15.255859 A 9.8976086 9.9654673 0 0 0 20.791016 21.431641 A 10.788333 10.862298 0 0 1 22.376953 21.300781 A 10.788333 10.862298 0 0 1 31.003906 25.660156 A 10.788333 10.862298 0 0 1 39.626953 21.300781 A 10.788333 10.862298 0 0 1 40.556641 21.347656 A 9.8976086 9.9654673 0 0 0 39.384766 17.068359 C 38.543962 17.087844 36.385794 14.511495 36.119141 15.578125 C 35.981872 16.127324 36.015683 19.465859 34.791016 18.853516 C 33.384025 18.15002 34.50971 15.563133 32.919922 15.033203 C 31.875004 14.684898 32.260642 17.277699 31.517578 17.525391 C 29.583929 18.169938 29.465565 15.565794 28.400391 15.033203 C 28.199629 14.932823 28.017308 14.890457 27.851562 14.894531 z M 39.384766 17.068359 A 9.8976086 9.9654673 0 0 0 38.892578 16.240234 A 9.8976086 9.9654673 0 0 1 39.384766 17.068359 z M 38.304688 15.439453 A 9.8976086 9.9654673 0 0 1 38.857422 16.1875 A 9.8976086 9.9654673 0 0 0 38.304688 15.439453 z "
       id="path5267" />
    <path
       style="opacity:1;fill:#ffffff;fill-opacity:0.38135594;stroke:none;stroke-width:1.5;stroke-linecap:round;stroke-linejoin:round;stroke-miterlimit:4;stroke-dasharray:none;stroke-dashoffset:0;stroke-opacity:1"
       d="M 22.376953 22.199219 A 9.8976086 9.9654673 0 0 1 30.472656 26.460938 A 10.907067 10.981847 0 0 1 30.478516 26.449219 A 9.8976088 9.9654675 0 0 0 22.376953 22.199219 z M 22.376953 22.199219 A 9.8976088 9.9654675 0 0 0 20.410156 22.398438 A 9.8976086 9.9654673 0 0 1 22.376953 22.199219 z M 18.523438 22.986328 A 9.8976088 9.9654675 0 0 0 16.001953 24.542969 A 9.8976086 9.9654673 0 0 1 18.523438 22.986328 z M 16 24.542969 A 9.8976088 9.9654675 0 0 0 15.277344 25.222656 A 9.8976086 9.9654673 0 0 1 16 24.542969 z M 15.277344 25.222656 A 9.8976088 9.9654675 0 0 0 14.048828 26.779297 A 9.8976086 9.9654673 0 0 1 15.277344 25.222656 z M 29.566406 26.835938 C 28.423684 26.772411 29.062554 28.52729 27.900391 29.689453 C 26.798598 30.79125 25.219441 28.008232 24.623047 28.207031 C 22.692367 28.850592 22.613756 30.608897 21.427734 31.794922 C 20.303934 32.918725 19.12229 28.521484 18.697266 28.521484 C 16.446796 28.521484 16.944418 30.861328 14.488281 30.861328 C 13.632335 30.861328 13.063782 30.570531 12.693359 30.154297 A 9.8976088 9.9654675 0 0 0 12.478516 32.164062 A 9.8976088 9.9654675 0 0 0 12.539062 33.15625 L 28.890625 33.15625 A 10.907067 10.981847 0 0 1 28.833984 32.234375 A 10.907067 10.981847 0 0 1 30.169922 26.980469 C 29.926847 26.891932 29.728049 26.844924 29.566406 26.835938 z M 13.152344 28.554688 A 9.8976088 9.9654675 0 0 0 12.810547 29.626953 A 9.8976086 9.9654673 0 0 1 13.152344 28.554688 z "
       id="ellipse5269" />
    <path
       style="opacity:1;fill:#ffffff;fill-opacity:0.38135594;stroke:none;stroke-width:1.5;stroke-linecap:round;stroke-linejoin:round;stroke-miterlimit:4;stroke-dasharray:none;stroke-dashoffset:0;stroke-opacity:1"
       d="M 39.626953 22.199219 A 9.8976088 9.9654675 0 0 0 38.435547 22.28125 A 9.8976086 9.9654673 0 0 1 39.626953 22.199219 z M 39.949219 22.210938 A 9.8976086 9.9654673 0 0 1 40.59375 22.255859 A 9.8976088 9.9654675 0 0 0 39.949219 22.210938 z M 41.001953 22.306641 A 9.8976086 9.9654673 0 0 1 41.597656 22.408203 A 9.8976088 9.9654675 0 0 0 41.001953 22.306641 z M 38.101562 22.332031 A 9.8976088 9.9654675 0 0 0 36.287109 22.796875 L 38.101562 22.332031 z M 41.962891 22.492188 A 9.8976086 9.9654673 0 0 1 42.537109 22.650391 A 9.8976088 9.9654675 0 0 0 41.962891 22.492188 z M 42.9375 22.785156 A 9.8976086 9.9654673 0 0 1 43.464844 22.990234 A 9.8976088 9.9654675 0 0 0 42.9375 22.785156 z M 36.080078 22.873047 A 9.8976088 9.9654675 0 0 0 29.730469 32.164062 A 9.8976088 9.9654675 0 0 0 29.791016 33.15625 L 49.476562 33.15625 A 9.8976088 9.9654675 0 0 0 49.525391 32.164062 A 9.8976088 9.9654675 0 0 0 49.203125 29.6875 C 48.915291 29.832618 46.815753 30.874347 46.179688 30.238281 C 45.48693 29.545522 47.032271 27.854765 44.539062 28.210938 C 43.207117 28.401228 40.324063 31.089671 39.082031 29.847656 C 37.501762 28.267382 39.697534 25.785441 38.769531 24.857422 C 37.499042 23.586935 35.967549 26.07439 34.949219 24.546875 C 34.546194 23.94235 35.631828 23.020701 36.080078 22.873047 z M 43.828125 23.154297 A 9.8976086 9.9654673 0 0 1 44.380859 23.435547 A 9.8976088 9.9654675 0 0 0 43.828125 23.154297 z M 44.685547 23.613281 A 9.8976086 9.9654673 0 0 1 45.240234 23.96875 A 9.8976088 9.9654675 0 0 0 44.685547 23.613281 z M 45.482422 24.144531 A 9.8976086 9.9654673 0 0 1 46.042969 24.589844 A 9.8976088 9.9654675 0 0 0 45.482422 24.144531 z M 46.240234 24.765625 A 9.8976086 9.9654673 0 0 1 46.765625 25.277344 A 9.8976088 9.9654675 0 0 0 46.240234 24.765625 z M 46.933594 25.458984 A 9.8976086 9.9654673 0 0 1 47.423828 26.044922 A 9.8976088 9.9654675 0 0 0 46.933594 25.458984 z M 47.550781 26.210938 A 9.8976086 9.9654673 0 0 1 47.984375 26.847656 A 9.8976088 9.9654675 0 0 0 47.550781 26.210938 z M 48.113281 27.056641 A 9.8976086 9.9654673 0 0 1 48.480469 27.734375 A 9.8976088 9.9654675 0 0 0 48.113281 27.056641 z M 48.560547 27.904297 A 9.8976086 9.9654673 0 0 1 48.882812 28.666016 A 9.8976088 9.9654675 0 0 0 48.560547 27.904297 z M 48.935547 28.810547 A 9.8976086 9.9654673 0 0 1 49.179688 29.599609 A 9.8976088 9.9654675 0 0 0 48.935547 28.810547 z "
       id="ellipse5271" />
    <path
       style="opacity:1;fill:url(#linearGradient5500);fill-opacity:1;stroke:none;stroke-width:1.5;stroke-linecap:round;stroke-linejoin:round;stroke-miterlimit:4;stroke-dasharray:none;stroke-dashoffset:0;stroke-opacity:1"
       d="m 12.511127,32.96632 37.020853,0 -6.882268,19.96602 -23.255157,0 z"
       id="rect5273"
       inkscape:connector-curvature="0"
       sodipodi:nodetypes="ccccc" />
    <path
       style="opacity:1;fill:#ffffff;fill-opacity:1;stroke:none;stroke-width:1.5;stroke-linecap:round;stroke-linejoin:round;stroke-miterlimit:4;stroke-dasharray:none;stroke-dashoffset:0;stroke-opacity:1"
       d="M 48.302734 8.6152344 C 48.175247 8.6043118 48.048534 8.6054476 47.921875 8.6191406 C 47.415257 8.6739106 46.930205 8.9233486 46.583984 9.3535156 L 40.886719 16.431641 C 40.549032 16.359411 40.20648 16.335939 39.865234 16.349609 A 10.173354 10.243104 0 0 1 41.410156 21.4375 A 10.470169 10.541953 0 0 1 43.724609 22.046875 C 44.156064 21.099791 44.197872 20.036948 43.873047 19.078125 L 49.689453 11.853516 C 50.381916 10.993184 50.247032 9.7432422 49.386719 9.0507812 C 49.064086 8.7911095 48.685196 8.6480022 48.302734 8.6152344 z M 48.070312 9.1054688 C 48.439996 9.1110325 48.810235 9.2309794 49.123047 9.4804688 C 49.406761 9.7067635 49.600069 10.003405 49.701172 10.324219 C 49.734872 10.431157 49.758994 10.541409 49.771484 10.652344 C 49.821444 11.096061 49.70211 11.55727 49.400391 11.935547 L 43.523438 19.175781 C 44.06158 19.60917 43.807293 21.428165 43.591797 21.619141 C 43.623257 20.963976 43.602114 20.151939 42.71875 19.742188 C 42.70737 19.715547 42.701583 19.688509 42.689453 19.662109 L 48.828125 12.089844 C 49.145869 11.691474 49.27332 11.205567 49.220703 10.738281 C 49.168083 10.270977 48.935487 9.82361 48.537109 9.5058594 C 48.285758 9.3053882 47.997977 9.1878082 47.703125 9.1367188 C 47.824058 9.1133002 47.947085 9.1036142 48.070312 9.1054688 z "
       id="rect5293" />
    <path
       inkscape:connector-curvature="0"
       id="path5566"
       d="m 47.921602,8.6187184 c -0.506618,0.05477 -0.992037,0.304201 -1.338258,0.734368 l -5.695989,7.0790086 c -0.337687,-0.07223 -0.680172,-0.09568 -1.021418,-0.08201 a 10.173354,10.243104 0 0 1 1.543277,5.088386 10.470169,10.541953 0 0 1 2.314935,0.607625 c 0.431455,-0.947084 0.473894,-2.008472 0.149069,-2.967295 l 5.815284,-7.224391 c 0.692463,-0.860332 0.55838,-2.1108126 -0.301933,-2.8032736 -0.430177,-0.346229 -0.958388,-0.48719 -1.465026,-0.432418 z"
       style="opacity:0.629;fill:#ffffff;fill-opacity:1;stroke:none;stroke-width:1.5;stroke-linecap:round;stroke-linejoin:round;stroke-miterlimit:4;stroke-dasharray:none;stroke-dashoffset:0;stroke-opacity:1" />
    <path
       style="fill:#ffffff;fill-opacity:0.84322035;fill-rule:evenodd;stroke:none;stroke-width:1px;stroke-linecap:butt;stroke-linejoin:miter;stroke-opacity:1"
       d="m 39.626974,22.199738 a 9.8976086,9.9654673 0 0 0 -1.474957,0.119078 l -1.901318,0.487811 a 9.8976086,9.9654673 0 0 0 -0.134437,0.0461 c -0.42762,0.114378 -1.579738,1.075812 -1.167675,1.693895 1.01833,1.527515 2.551342,-0.959363 3.821831,0.311124 0.928003,0.928019 -1.269152,3.40923 0.311117,4.989504 1.242032,1.242015 4.126183,-1.44599 5.458128,-1.63628 2.493208,-0.356172 0.947355,1.335307 1.640113,2.028066 0.637319,0.63732 2.745505,-0.411263 3.02673,-0.553109 a 9.8976086,9.9654673 0 0 0 -9.579532,-7.486176 z"
       id="path5314"
       inkscape:connector-curvature="0" />
    <path
       style="fill:#ffffff;fill-opacity:0.84322035;fill-rule:evenodd;stroke:none;stroke-width:1px;stroke-linecap:butt;stroke-linejoin:miter;stroke-opacity:1"
       d="M 22.376953 22.199219 A 9.8976086 9.9654673 0 0 0 12.685547 30.146484 C 13.055781 30.567049 13.626788 30.861328 14.488281 30.861328 C 16.944418 30.861328 16.446796 28.521484 18.697266 28.521484 C 19.12229 28.521484 20.303934 32.918725 21.427734 31.794922 C 22.613756 30.608897 22.692367 28.850592 24.623047 28.207031 C 25.219441 28.008232 26.798598 30.79125 27.900391 29.689453 C 29.228578 28.361266 28.204554 26.260179 30.175781 26.982422 A 10.907067 10.981847 0 0 1 30.472656 26.460938 A 9.8976086 9.9654673 0 0 0 22.376953 22.199219 z "
       id="path5320" />
    <path
       style="fill:#ffffff;fill-opacity:0.84322035;fill-rule:evenodd;stroke:none;stroke-width:1px;stroke-linecap:butt;stroke-linejoin:miter;stroke-opacity:1"
       d="m 30.673513,11.794376 a 9.8976086,9.9654673 0 0 0 -7.47465,3.460772 c 0.229287,0.561341 1.156937,1.184762 1.766881,1.413501 1.494308,0.560363 1.827786,-2.439324 3.433877,-1.63628 1.065174,0.532591 1.185275,3.137377 3.118924,2.49283 0.743064,-0.247692 0.357058,-2.841135 1.401976,-2.49283 1.589788,0.52993 0.463589,3.118332 1.87058,3.821828 1.224667,0.612343 1.191746,-2.727204 1.329015,-3.276403 0.266653,-1.06663 2.424063,1.509807 3.264867,1.490322 a 9.8976086,9.9654673 0 0 0 -8.71147,-5.27374 z"
       id="path5322"
       inkscape:connector-curvature="0" />
    <path
       style="opacity:1;fill:#ffffff;fill-opacity:0.15677966;stroke:none;stroke-width:1.5;stroke-linecap:round;stroke-linejoin:round;stroke-miterlimit:4;stroke-dasharray:none;stroke-dashoffset:0;stroke-opacity:1"
       d="M 26.597656 12.693359 A 9.8976086 9.9654673 0 0 0 26.394531 12.798828 A 9.8976086 9.9654673 0 0 1 26.611328 12.693359 A 8.5257616 8.5059347 0 0 0 26.597656 12.693359 z M 25.808594 13.101562 A 9.8976086 9.9654673 0 0 0 25.429688 13.337891 A 9.8976086 9.9654673 0 0 1 25.808594 13.101562 z M 24.992188 13.623047 A 9.8976086 9.9654673 0 0 0 24.587891 13.933594 A 9.8976086 9.9654673 0 0 1 24.992188 13.623047 z M 24.222656 14.228516 A 9.8976086 9.9654673 0 0 0 23.792969 14.632812 A 9.8976086 9.9654673 0 0 1 24.222656 14.228516 z M 27.851562 14.894531 C 26.691347 14.923052 26.272363 17.158286 24.964844 16.667969 C 24.356997 16.440016 23.436398 15.821549 23.203125 15.261719 A 9.8976086 9.9654673 0 0 0 20.791016 21.431641 A 10.788333 10.862298 0 0 1 22.376953 21.300781 A 10.788333 10.862298 0 0 1 31.003906 25.660156 A 10.788333 10.862298 0 0 1 35.884766 21.994141 A 8.5257616 8.5059347 0 0 0 35.927734 21.152344 A 8.5257616 8.5059347 0 0 0 35.533203 18.601562 C 35.357565 18.882567 35.123279 19.01965 34.791016 18.853516 C 33.384025 18.15002 34.50971 15.563133 32.919922 15.033203 C 31.875004 14.684898 32.260642 17.277699 31.517578 17.525391 C 29.583929 18.169938 29.465565 15.565794 28.400391 15.033203 C 28.199629 14.932823 28.017308 14.890457 27.851562 14.894531 z M 23.498047 14.923828 A 9.8976086 9.9654673 0 0 0 23.302734 15.140625 A 9.8976086 9.9654673 0 0 1 23.498047 14.923828 z "
       id="path5349" />
    <path
       style="opacity:1;fill:#ffffff;fill-opacity:0.15677966;stroke:none;stroke-width:1.5;stroke-linecap:round;stroke-linejoin:round;stroke-miterlimit:4;stroke-dasharray:none;stroke-dashoffset:0;stroke-opacity:1"
       d="M 16.916016 23.861328 A 9.8976088 9.9654675 0 0 0 16.902344 23.871094 A 9.8976086 9.9654673 0 0 1 16.919922 23.861328 A 8.5257616 8.5059347 0 0 0 16.916016 23.861328 z M 16.212891 24.382812 A 9.8976088 9.9654675 0 0 0 16.103516 24.464844 A 9.8976086 9.9654673 0 0 1 16.212891 24.382812 z M 15.482422 25.03125 A 9.8976088 9.9654675 0 0 0 15.369141 25.136719 A 9.8976086 9.9654673 0 0 1 15.482422 25.03125 z M 14.822266 25.744141 A 9.8976088 9.9654675 0 0 0 14.705078 25.878906 A 9.8976086 9.9654673 0 0 1 14.822266 25.744141 z M 14.242188 26.507812 A 9.8976088 9.9654675 0 0 0 14.115234 26.6875 A 9.8976086 9.9654673 0 0 1 14.242188 26.507812 z M 13.746094 27.310547 A 9.8976088 9.9654675 0 0 0 13.609375 27.552734 A 9.8976086 9.9654673 0 0 1 13.746094 27.310547 z M 13.314453 28.191406 A 9.8976088 9.9654675 0 0 0 13.193359 28.460938 A 9.8976086 9.9654673 0 0 1 13.314453 28.191406 z M 24.746094 28.203125 C 24.701498 28.193931 24.660321 28.194606 24.623047 28.207031 C 22.692367 28.850592 22.613756 30.608897 21.427734 31.794922 C 20.303934 32.918725 19.12229 28.521484 18.697266 28.521484 C 16.446796 28.521484 16.944418 30.861328 14.488281 30.861328 C 13.630948 30.861328 13.061784 30.56966 12.691406 30.152344 A 9.8976088 9.9654675 0 0 0 12.478516 32.164062 A 9.8976088 9.9654675 0 0 0 12.539062 33.15625 L 27.292969 33.15625 A 8.5257616 8.5059347 0 0 0 27.361328 32.136719 A 8.5257616 8.5059347 0 0 0 27.052734 29.904297 C 26.180858 29.653796 25.245267 28.306037 24.746094 28.203125 z M 13.011719 28.982422 A 9.8976088 9.9654675 0 0 0 12.861328 29.443359 A 9.8976086 9.9654673 0 0 1 13.011719 28.982422 z "
       id="ellipse5351" />
    <path
       style="opacity:1;fill:#ffffff;fill-opacity:0.15677966;stroke:none;stroke-width:1.5;stroke-linecap:round;stroke-linejoin:round;stroke-miterlimit:4;stroke-dasharray:none;stroke-dashoffset:0;stroke-opacity:1"
       d="M 35.841797 23 A 8.5257616 8.5059347 0 0 0 35.736328 23.003906 A 9.8976088 9.9654675 0 0 0 29.730469 32.164062 A 9.8976088 9.9654675 0 0 0 29.791016 33.15625 L 44.328125 33.15625 A 8.5257616 8.5059347 0 0 0 44.492188 31.503906 A 8.5257616 8.5059347 0 0 0 43.904297 28.421875 C 42.439302 29.074696 40.152619 30.918229 39.082031 29.847656 C 37.501762 28.267382 39.697534 25.785441 38.769531 24.857422 C 37.499042 23.586935 35.967549 26.07439 34.949219 24.546875 C 34.604388 24.029639 35.33709 23.300509 35.841797 23 z "
       id="ellipse5353" />
    <path
       style="fill:#ffffff;fill-opacity:1;fill-rule:evenodd;stroke:none;stroke-width:1px;stroke-linecap:butt;stroke-linejoin:miter;stroke-opacity:1"
       d="m 21.407931,22.786055 c -2.232475,-0.310866 -8.102181,4.47777 -3.398438,2.30664 2.38009,-0.84339 2.587283,3.681568 4.017578,0.78711 1.227807,-1.72565 3.820262,-0.877105 4.689454,-0.355469 1.664161,-2.276793 -4.108102,-2.875585 -5.308594,-2.738281 z"
       id="path5364"
       inkscape:connector-curvature="0" />
    <path
       style="fill:#ffffff;fill-opacity:1;fill-rule:evenodd;stroke:none;stroke-width:1px;stroke-linecap:butt;stroke-linejoin:miter;stroke-opacity:1"
       d="m 30.2575,12.211165 c -0.979955,0.02722 -4.152535,1.172692 -3.212646,1.899335 1.261042,-0.560963 2.06609,-1.652353 2.774616,-0.124691 0.269443,0.531597 1.377466,1.349364 1.373338,0.106062 -0.190679,-1.679332 2.80234,-0.646667 3.850987,0.313304 C 35.94317,13.778563 34.717242,13.194923 33.451644,12.73615 32.459643,12.281204 31.342902,12.104499 30.2575,12.211165 Z"
       id="path5373"
       inkscape:connector-curvature="0"
       sodipodi:nodetypes="ccccccc" />
    <path
       style="fill:#ffffff;fill-opacity:1;fill-rule:evenodd;stroke:none;stroke-width:1px;stroke-linecap:butt;stroke-linejoin:miter;stroke-opacity:1"
       d="m 39.640171,22.92769 c -0.152985,0.03472 1.727145,1.165058 1.151326,2.252964 -0.263877,0.819643 -0.998579,3.412014 0.727549,2.340156 1.366592,-0.897481 4.368723,-2.60466 5.284104,-0.280331 -0.0094,1.518142 1.153869,0.08316 -0.01219,-0.748175 -1.458886,-2.424343 -4.331583,-3.878035 -7.150791,-3.564614 z"
       id="path5377"
       inkscape:connector-curvature="0" />
  </g>
</svg>
