<?xml version="1.0" encoding="UTF-8" standalone="no"?>
<!-- Created with Inkscape (http://www.inkscape.org/) -->

<svg
   xmlns:dc="http://purl.org/dc/elements/1.1/"
   xmlns:cc="http://creativecommons.org/ns#"
   xmlns:rdf="http://www.w3.org/1999/02/22-rdf-syntax-ns#"
   xmlns:svg="http://www.w3.org/2000/svg"
   xmlns="http://www.w3.org/2000/svg"
   xmlns:xlink="http://www.w3.org/1999/xlink"
   xmlns:sodipodi="http://sodipodi.sourceforge.net/DTD/sodipodi-0.dtd"
   xmlns:inkscape="http://www.inkscape.org/namespaces/inkscape"
   width="64"
   height="64"
   id="svg4684"
   version="1.1"
   inkscape:version="0.91 r13725"
   viewBox="0 0 64 64"
   sodipodi:docname="dessert-couleur.svg">
  <defs
     id="defs4686">
    <linearGradient
       inkscape:collect="always"
       id="linearGradient5610">
      <stop
         style="stop-color:#ffffff;stop-opacity:1;"
         offset="0"
         id="stop5612" />
      <stop
         style="stop-color:#ffffff;stop-opacity:0;"
         offset="1"
         id="stop5614" />
    </linearGradient>
    <linearGradient
       inkscape:collect="always"
       id="linearGradient5600">
      <stop
         style="stop-color:#fcab5e;stop-opacity:1;"
         offset="0"
         id="stop5602" />
      <stop
         style="stop-color:#fcab5e;stop-opacity:0;"
         offset="1"
         id="stop5604" />
    </linearGradient>
    <inkscape:path-effect
       effect="spiro"
       id="path-effect3941-8"
       is_visible="true" />
    <linearGradient
       inkscape:collect="always"
       xlink:href="#linearGradient5600"
       id="linearGradient5606"
       x1="12.511127"
       y1="42.94933"
       x2="49.53198"
       y2="42.94933"
       gradientUnits="userSpaceOnUse" />
    <linearGradient
       inkscape:collect="always"
       xlink:href="#linearGradient5610"
       id="linearGradient5628"
       x1="16.232065"
       y1="22.76755"
       x2="27.015463"
       y2="26.859362"
       gradientUnits="userSpaceOnUse"
       gradientTransform="matrix(1.1750512,0,0,1.3753978,-3.5378054,-8.4682157)" />
    <linearGradient
       inkscape:collect="always"
       xlink:href="#linearGradient5610"
       id="linearGradient5630"
       x1="38.435547"
       y1="22.28125"
       x2="47.550781"
       y2="26.210938"
       gradientUnits="userSpaceOnUse" />
    <linearGradient
       inkscape:collect="always"
       xlink:href="#linearGradient5610"
       id="linearGradient5632"
       x1="26.872829"
       y1="12.181018"
       x2="35.352924"
       y2="14.745339"
       gradientUnits="userSpaceOnUse" />
  </defs>
  <sodipodi:namedview
     id="base"
     pagecolor="#ffffff"
     bordercolor="#666666"
     borderopacity="1.0"
     inkscape:pageopacity="0.0"
     inkscape:pageshadow="2"
     inkscape:zoom="4.9095167"
     inkscape:cx="47.287731"
     inkscape:cy="54.50565"
     inkscape:current-layer="layer1"
     showgrid="true"
     inkscape:document-units="px"
     inkscape:grid-bbox="true"
     inkscape:snap-page="true"
     inkscape:object-nodes="true"
     inkscape:object-paths="true"
     inkscape:snap-bbox="true"
     inkscape:bbox-nodes="true"
     inkscape:snap-object-midpoints="true"
     inkscape:snap-global="false"
     showguides="true"
     inkscape:window-width="1470"
     inkscape:window-height="841"
     inkscape:window-x="-8"
     inkscape:window-y="-8"
     inkscape:window-maximized="1" />
  <metadata
     id="metadata4689">
    <rdf:RDF>
      <cc:Work
         rdf:about="">
        <dc:format>image/svg+xml</dc:format>
        <dc:type
           rdf:resource="http://purl.org/dc/dcmitype/StillImage" />
        <dc:title></dc:title>
      </cc:Work>
    </rdf:RDF>
  </metadata>
  <g
     id="layer1"
     inkscape:label="Layer 1"
     inkscape:groupmode="layer">
    <path
       style="opacity:0.33200001;fill:#000000;fill-opacity:0.77064221;stroke:none;stroke-width:1.5;stroke-linecap:round;stroke-linejoin:round;stroke-miterlimit:4;stroke-dasharray:none;stroke-dashoffset:0;stroke-opacity:1"
       d="M 48.302734 8.6152344 C 48.175247 8.6043118 48.048534 8.6054476 47.921875 8.6191406 C 47.669156 8.6464618 47.418928 8.723233 47.191406 8.8457031 C 46.963447 8.968678 46.757095 9.1384321 46.583984 9.3535156 L 40.886719 16.431641 C 40.717875 16.395526 40.547441 16.372557 40.376953 16.359375 C 40.206449 16.346187 40.035857 16.342774 39.865234 16.349609 A 10.173354 10.243104 0 0 1 40.498047 17.5625 A 10.173354 10.243104 0 0 1 40.853516 18.460938 C 40.748729 18.156798 40.631317 17.856367 40.498047 17.5625 L 37.634766 14.699219 A 9.8976086 9.9654673 0 0 0 37.595703 14.660156 A 9.8976086 9.9654673 0 0 0 37.496094 14.570312 A 9.8976086 9.9654673 0 0 0 36.910156 14.042969 A 9.8976086 9.9654673 0 0 0 36.847656 13.992188 A 9.8976086 9.9654673 0 0 0 36.523438 13.751953 A 9.8976086 9.9654673 0 0 0 36.019531 13.390625 A 9.8976086 9.9654673 0 0 0 35.4375 13.046875 A 9.8976086 9.9654673 0 0 0 35.314453 12.974609 A 9.8976086 9.9654673 0 0 0 35.128906 12.876953 A 9.8976086 9.9654673 0 0 0 34.783203 12.716797 A 9.8976086 9.9654673 0 0 0 34.455078 12.566406 A 9.8976086 9.9654673 0 0 0 34.193359 12.460938 A 9.8976086 9.9654673 0 0 0 33.691406 12.287109 A 9.8976086 9.9654673 0 0 0 33.226562 12.144531 A 9.8976086 9.9654673 0 0 0 33.017578 12.095703 A 9.8976086 9.9654673 0 0 0 32.25 11.933594 A 9.8976086 9.9654673 0 0 0 31.664062 11.855469 A 9.8976086 9.9654673 0 0 0 31.150391 11.814453 A 9.8976086 9.9654673 0 0 0 30.673828 11.794922 A 9.8976086 9.9654673 0 0 0 29.685547 11.845703 A 9.8976086 9.9654673 0 0 0 28.894531 11.96875 A 9.8976086 9.9654673 0 0 0 28.46875 12.060547 A 9.8976086 9.9654673 0 0 0 28.453125 12.064453 A 9.8976086 9.9654673 0 0 0 27.951172 12.193359 A 9.8976086 9.9654673 0 0 0 27.75 12.246094 A 9.8976086 9.9654673 0 0 0 27.498047 12.339844 A 9.8976086 9.9654673 0 0 0 27.490234 12.341797 A 9.8976086 9.9654673 0 0 0 27.039062 12.509766 A 9.8976086 9.9654673 0 0 0 26.820312 12.589844 A 9.8976086 9.9654673 0 0 0 26.609375 12.693359 A 8.5257616 8.5059347 0 0 0 26.597656 12.693359 A 9.8976086 9.9654673 0 0 0 26.490234 12.748047 A 9.8976086 9.9654673 0 0 0 26.140625 12.923828 A 9.8976086 9.9654673 0 0 0 25.691406 13.175781 A 9.8976086 9.9654673 0 0 0 25.681641 13.179688 A 9.8976086 9.9654673 0 0 0 25.675781 13.183594 A 9.8976086 9.9654673 0 0 0 25.279297 13.431641 A 9.8976086 9.9654673 0 0 0 24.876953 13.712891 A 9.8976086 9.9654673 0 0 0 24.865234 13.720703 A 9.8976086 9.9654673 0 0 1 24.863281 13.722656 A 9.8976086 9.9654673 0 0 0 24.501953 14 A 9.8976086 9.9654673 0 0 0 24.082031 14.359375 A 9.8976086 9.9654673 0 0 0 23.736328 14.6875 A 9.8976086 9.9654673 0 0 0 23.580078 14.833984 A 9.8976086 9.9654673 0 0 0 23.498047 14.923828 A 9.8976086 9.9654673 0 0 0 23.302734 15.140625 A 9.8976086 9.9654673 0 0 0 23.220703 15.232422 A 9.8976086 9.9654673 0 0 0 23.214844 15.238281 A 9.8976086 9.9654673 0 0 0 23.199219 15.255859 A 9.8976086 9.9654673 0 0 0 20.849609 20.650391 A 9.8976086 9.9654673 0 0 0 20.849609 20.654297 A 9.8976086 9.9654673 0 0 0 20.791016 21.431641 L 21.597656 22.238281 A 9.8976086 9.9654673 0 0 0 16.917969 23.861328 A 8.5257616 8.5059347 0 0 0 16.916016 23.861328 A 9.8976088 9.9654675 0 0 0 16.902344 23.871094 A 9.8976086 9.9654673 0 0 0 16.138672 24.4375 A 9.8976088 9.9654675 0 0 0 16.103516 24.464844 A 9.8976086 9.9654673 0 0 0 15.482422 25.03125 A 9.8976088 9.9654675 0 0 0 15.369141 25.136719 A 9.8976086 9.9654673 0 0 0 14.822266 25.744141 A 9.8976086 9.9654673 0 0 0 14.714844 25.869141 A 9.8976088 9.9654675 0 0 0 14.705078 25.878906 A 9.8976086 9.9654673 0 0 0 14.242188 26.507812 A 9.8976088 9.9654675 0 0 0 14.115234 26.6875 A 9.8976086 9.9654673 0 0 0 13.746094 27.310547 A 9.8976086 9.9654673 0 0 0 13.648438 27.482422 A 9.8976088 9.9654675 0 0 0 13.609375 27.552734 A 9.8976086 9.9654673 0 0 0 13.25 28.337891 A 9.8976088 9.9654675 0 0 0 13.193359 28.460938 A 9.8976086 9.9654673 0 0 0 13.011719 28.982422 A 9.8976086 9.9654673 0 0 0 12.996094 29.03125 A 9.8976088 9.9654675 0 0 0 12.861328 29.443359 A 9.8976086 9.9654673 0 0 0 12.685547 30.146484 C 12.687931 30.149192 12.690959 30.1516 12.693359 30.154297 A 9.8976088 9.9654675 0 0 0 12.478516 32.164062 A 9.8976088 9.9654675 0 0 0 12.527344 32.966797 L 12.511719 32.966797 L 13.09375 34.654297 L 14.246094 37.998047 L 15.083984 40.427734 L 19.394531 52.931641 L 30.462891 64 L 64 64 L 64 23.648438 L 49.515625 9.1660156 L 49.509766 9.171875 C 49.467894 9.1320784 49.432596 9.0877077 49.386719 9.0507812 C 49.241634 8.9340094 49.082721 8.8497363 48.919922 8.7792969 C 48.88323 8.7634831 48.847852 8.7478644 48.810547 8.734375 C 48.645041 8.6742024 48.474724 8.6299698 48.302734 8.6152344 z M 50.121094 10.464844 C 50.122175 10.479181 50.122277 10.493453 50.123047 10.507812 C 50.122352 10.493529 50.122097 10.479106 50.121094 10.464844 z M 50.115234 10.822266 C 50.110928 10.862879 50.100603 10.90296 50.09375 10.943359 C 50.100887 10.902961 50.110673 10.862883 50.115234 10.822266 z M 50.046875 11.167969 C 50.020637 11.257465 49.982826 11.343402 49.943359 11.429688 C 49.982927 11.343805 50.020341 11.257334 50.046875 11.167969 z M 49.90625 11.521484 C 49.846308 11.636672 49.774287 11.748116 49.689453 11.853516 C 49.774157 11.748277 49.846115 11.636695 49.90625 11.521484 z M 33.398438 15.320312 L 33.400391 15.320312 C 33.462441 15.381747 33.51526 15.448783 33.5625 15.521484 C 33.515251 15.448812 33.460495 15.381725 33.398438 15.320312 z M 39.748047 17.853516 C 39.803273 17.982625 39.858509 18.111002 39.908203 18.242188 A 9.8976086 9.9654673 0 0 0 39.748047 17.853516 z M 40.890625 18.576172 A 10.173354 10.243104 0 0 1 41.126953 19.404297 C 41.059715 19.125107 40.981025 18.84895 40.890625 18.576172 z M 40.103516 18.822266 C 40.149763 18.971309 40.199044 19.118483 40.238281 19.269531 A 9.8976086 9.9654673 0 0 0 40.103516 18.822266 z M 41.169922 19.607422 A 10.173354 10.243104 0 0 1 41.308594 20.347656 C 41.272751 20.098648 41.223814 19.852867 41.169922 19.607422 z M 40.371094 19.882812 C 40.398127 20.022216 40.430063 20.160197 40.451172 20.300781 A 9.8976086 9.9654673 0 0 0 40.371094 19.882812 z M 44.078125 20.486328 C 44.07627 20.554338 44.069752 20.621511 44.064453 20.689453 C 44.069705 20.621707 44.076287 20.554131 44.078125 20.486328 z M 41.349609 20.726562 A 10.173354 10.243104 0 0 1 41.410156 21.4375 A 10.470169 10.541953 0 0 1 42.4375 21.638672 A 10.470169 10.541953 0 0 1 42.511719 21.662109 C 42.148406 21.569193 41.781877 21.490731 41.410156 21.4375 C 41.401389 21.199475 41.374738 20.962731 41.349609 20.726562 z M 43.992188 21.199219 C 43.979085 21.26204 43.967329 21.324367 43.951172 21.386719 C 43.967206 21.324662 43.979179 21.261744 43.992188 21.199219 z M 22.376953 21.300781 A 10.788333 10.862298 0 0 1 23.527344 21.369141 C 23.147211 21.327598 22.763542 21.301289 22.376953 21.300781 z M 22.376953 21.300781 C 22.168162 21.302472 21.960161 21.314273 21.751953 21.328125 A 10.788333 10.862298 0 0 1 22.376953 21.300781 z M 39.626953 21.300781 C 39.378593 21.301966 39.131843 21.319525 38.884766 21.337891 A 10.788333 10.862298 0 0 1 39.626953 21.300781 z M 38.257812 21.40625 C 38.120537 21.424623 37.982135 21.439218 37.845703 21.462891 A 10.788333 10.862298 0 0 1 38.257812 21.40625 z M 23.933594 21.429688 A 10.788333 10.862298 0 0 1 24.660156 21.556641 C 24.420583 21.504039 24.177277 21.465845 23.933594 21.429688 z M 37.167969 21.609375 C 37.067097 21.63369 36.965416 21.652439 36.865234 21.679688 A 10.788333 10.862298 0 0 1 37.167969 21.609375 z M 25.138672 21.679688 A 10.788333 10.862298 0 0 1 25.767578 21.865234 C 25.560441 21.795795 25.350101 21.73646 25.138672 21.679688 z M 42.892578 21.775391 A 10.470169 10.541953 0 0 1 43.724609 22.046875 C 43.452511 21.940531 43.172117 21.858372 42.892578 21.775391 z M 26.228516 22.035156 A 10.788333 10.862298 0 0 1 26.84375 22.294922 C 26.641541 22.20185 26.436207 22.115535 26.228516 22.035156 z M 39.626953 22.199219 C 39.734431 22.201319 39.841867 22.205318 39.949219 22.210938 C 39.967486 22.211608 39.985643 22.214071 40.003906 22.214844 C 39.87822 22.209911 39.753617 22.199307 39.626953 22.199219 z M 23.183594 22.242188 L 23.203125 22.244141 C 23.3493 22.257151 23.495169 22.273429 23.640625 22.292969 A 9.8976086 9.9654673 0 0 0 23.183594 22.242188 z M 41.5625 22.402344 C 41.574165 22.404609 41.585999 22.405896 41.597656 22.408203 C 41.616664 22.412194 41.635314 22.417771 41.654297 22.421875 C 41.623676 22.415353 41.593215 22.408577 41.5625 22.402344 z M 27.279297 22.505859 A 10.788333 10.862298 0 0 1 27.869141 22.835938 C 27.675598 22.720143 27.479494 22.609167 27.279297 22.505859 z M 34.316406 22.734375 C 34.233372 22.781749 34.15201 22.831321 34.070312 22.880859 A 10.788333 10.862298 0 0 1 34.316406 22.734375 z M 43.644531 23.070312 C 43.705873 23.097996 43.767353 23.125359 43.828125 23.154297 C 43.876147 23.177381 43.92306 23.202703 43.970703 23.226562 C 43.8627 23.17301 43.754585 23.119956 43.644531 23.070312 z M 28.271484 23.083984 A 10.788333 10.862298 0 0 1 28.841797 23.494141 C 28.654696 23.352413 28.466855 23.212851 28.271484 23.083984 z M 33.402344 23.318359 C 33.358192 23.349829 33.313205 23.379977 33.269531 23.412109 A 10.788333 10.862298 0 0 1 33.402344 23.318359 z M 44.279297 23.384766 C 44.313229 23.401537 44.347124 23.418387 44.380859 23.435547 C 44.48346 23.492967 44.585039 23.552222 44.685547 23.613281 C 44.710225 23.62796 44.733263 23.645263 44.757812 23.660156 C 44.600899 23.563792 44.441516 23.472394 44.279297 23.384766 z M 29.207031 23.775391 A 10.788333 10.862298 0 0 1 29.740234 24.255859 C 29.566025 24.091098 29.390904 23.92749 29.207031 23.775391 z M 44.982422 23.802734 C 45.068366 23.858091 45.15602 23.910736 45.240234 23.96875 C 45.321834 24.02611 45.402575 24.084715 45.482422 24.144531 C 45.67453 24.286132 45.8615 24.434667 46.042969 24.589844 C 46.073273 24.61613 46.10283 24.643268 46.132812 24.669922 C 46.168654 24.701784 46.204853 24.733242 46.240234 24.765625 C 46.360643 24.876817 46.477005 24.992321 46.591797 25.109375 C 46.441779 24.959548 46.291761 24.809707 46.132812 24.669922 C 45.923408 24.485764 45.706201 24.310448 45.482422 24.144531 C 45.320343 24.02443 45.151509 23.912879 44.982422 23.802734 z M 32.507812 24.027344 C 32.460877 24.068922 32.417322 24.113841 32.371094 24.15625 A 10.788333 10.862298 0 0 1 32.507812 24.027344 z M 30.060547 24.556641 A 10.788333 10.862298 0 0 1 30.822266 25.421875 C 30.58322 25.117774 30.327384 24.830439 30.060547 24.556641 z M 31.779297 24.740234 C 31.730892 24.792036 31.682193 24.843688 31.634766 24.896484 A 10.788333 10.862298 0 0 1 31.779297 24.740234 z M 46.765625 25.277344 C 46.846625 25.364444 46.926065 25.452998 47.003906 25.542969 C 47.039022 25.582244 47.070981 25.624234 47.105469 25.664062 C 46.993311 25.533647 46.884095 25.401529 46.765625 25.277344 z M 47.371094 25.980469 C 47.388384 26.002197 47.406719 26.023047 47.423828 26.044922 C 47.48022 26.119837 47.533627 26.196951 47.587891 26.273438 C 47.516117 26.175462 47.446228 26.075541 47.371094 25.980469 z M 47.917969 26.75 C 47.939684 26.782844 47.963048 26.814553 47.984375 26.847656 C 48.028195 26.916776 48.071165 26.986448 48.113281 27.056641 C 48.127697 27.080958 48.140089 27.106421 48.154297 27.130859 C 48.078796 27.001636 47.998904 26.875186 47.917969 26.75 z M 30.169922 26.980469 C 29.971222 27.346558 29.799869 27.725084 29.644531 28.109375 A 10.907067 10.981847 0 0 1 30.169922 26.980469 z M 48.40625 27.595703 C 48.430174 27.642376 48.457278 27.687321 48.480469 27.734375 C 48.502748 27.780529 48.525304 27.826556 48.546875 27.873047 C 48.502191 27.779107 48.453692 27.687858 48.40625 27.595703 z M 29.503906 28.496094 C 29.408343 28.760551 29.321133 29.028072 29.246094 29.298828 A 10.907067 10.981847 0 0 1 29.503906 28.496094 z M 48.851562 28.59375 C 48.860978 28.618261 48.873589 28.641429 48.882812 28.666016 C 48.888653 28.681647 48.894628 28.69723 48.900391 28.712891 C 48.885535 28.672463 48.866912 28.633903 48.851562 28.59375 z M 29.128906 29.757812 C 29.068263 30.019899 29.021866 30.284637 28.980469 30.550781 A 10.907067 10.981847 0 0 1 29.128906 29.757812 z M 49.392578 30.660156 C 49.411971 30.783971 49.43448 30.906796 49.449219 31.03125 A 9.8976088 9.9654675 0 0 0 49.392578 30.660156 z M 28.912109 31.001953 C 28.865809 31.410278 28.834448 31.821145 28.833984 32.234375 A 10.907067 10.981847 0 0 1 28.912109 31.001953 z M 49.478516 33.119141 L 49.476562 33.15625 L 49.466797 33.15625 L 48.347656 36.398438 L 49.470703 33.140625 L 49.478516 33.119141 z "
       id="rect5516" />
    <path
       sodipodi:nodetypes="ccccc"
       inkscape:connector-curvature="0"
       id="path5608"
       d="m 12.511127,32.96632 37.020853,0 -6.882268,19.96602 -23.255157,0 z"
       style="opacity:1;fill:#bc6818;fill-opacity:1;stroke:none;stroke-width:1.5;stroke-linecap:round;stroke-linejoin:round;stroke-miterlimit:4;stroke-dasharray:none;stroke-dashoffset:0;stroke-opacity:1" />
    <path
       style="opacity:1;fill:url(#linearGradient5606);fill-opacity:1;stroke:none;stroke-width:1.5;stroke-linecap:round;stroke-linejoin:round;stroke-miterlimit:4;stroke-dasharray:none;stroke-dashoffset:0;stroke-opacity:1"
       d="m 12.511127,32.96632 37.020853,0 -6.882268,19.96602 -23.255157,0 z"
       id="rect5273"
       inkscape:connector-curvature="0"
       sodipodi:nodetypes="ccccc" />
    <path
       style="opacity:1;fill:#febe80;fill-opacity:1;stroke:none;stroke-width:1.5;stroke-linecap:round;stroke-linejoin:round;stroke-miterlimit:4;stroke-dasharray:none;stroke-dashoffset:0;stroke-opacity:1"
       d="M 12.511719 32.966797 L 13.09375 34.654297 L 14.234375 32.966797 L 12.511719 32.966797 z M 15.269531 32.966797 L 13.710938 35.378906 L 15.449219 38.064453 L 15.439453 39.900391 L 18.277344 35.703125 L 16.5625 32.966797 L 15.269531 32.966797 z M 18.277344 35.703125 L 20.125 32.966797 L 17.703125 32.966797 L 18.285156 33.867188 L 18.277344 35.703125 z M 18.277344 35.703125 L 18.285156 37.212891 L 16.546875 39.900391 L 18.285156 42.587891 L 18.275391 44.423828 L 21.113281 40.224609 L 18.277344 35.703125 z M 21.113281 40.224609 L 23.949219 36.027344 L 22.03125 32.966797 L 21.123047 32.966797 L 21.123047 33.013672 L 19.384766 35.703125 L 21.123047 38.390625 L 21.113281 40.224609 z M 21.113281 40.224609 L 21.123047 41.734375 L 19.382812 44.423828 L 21.121094 47.111328 L 21.113281 48.947266 L 23.949219 44.748047 L 21.113281 40.224609 z M 23.949219 44.748047 L 26.787109 40.548828 L 23.949219 36.027344 L 23.958984 37.537109 L 22.220703 40.224609 L 23.958984 42.912109 L 23.949219 44.748047 z M 23.949219 44.748047 L 23.958984 46.257812 L 22.220703 48.947266 L 23.957031 51.634766 L 23.949219 52.931641 L 24.3125 52.931641 L 26.785156 49.271484 L 23.949219 44.748047 z M 26.785156 49.271484 L 29.623047 45.072266 L 26.787109 40.548828 L 26.794922 42.060547 L 25.056641 44.748047 L 26.792969 47.435547 L 26.785156 49.271484 z M 26.785156 49.271484 L 26.792969 50.78125 L 25.402344 52.931641 L 29.080078 52.931641 L 26.785156 49.271484 z M 26.787109 40.548828 L 29.623047 36.351562 L 27.501953 32.966797 L 26.792969 32.966797 L 26.794922 33.337891 L 25.056641 36.027344 L 26.794922 38.712891 L 26.787109 40.548828 z M 29.623047 36.351562 L 31.912109 32.966797 L 28.630859 32.966797 L 29.632812 34.515625 L 29.623047 36.351562 z M 29.623047 36.351562 L 29.632812 37.861328 L 27.894531 40.548828 L 29.630859 43.236328 L 29.623047 45.072266 L 32.458984 40.875 L 29.623047 36.351562 z M 32.458984 40.875 L 35.296875 36.675781 L 32.970703 32.966797 L 32.464844 32.966797 L 32.46875 33.662109 L 30.730469 36.351562 L 32.46875 39.039062 L 32.458984 40.875 z M 32.458984 40.875 L 32.46875 42.384766 L 30.730469 45.072266 L 32.466797 47.759766 L 32.458984 49.595703 L 35.294922 45.398438 L 32.458984 40.875 z M 35.294922 45.398438 L 38.132812 41.199219 L 35.296875 36.675781 L 35.304688 38.185547 L 33.566406 40.875 L 35.302734 43.560547 L 35.294922 45.398438 z M 35.294922 45.398438 L 35.302734 46.90625 L 33.566406 49.595703 L 35.302734 52.283203 L 35.298828 52.931641 L 36.095703 52.931641 L 38.130859 49.921875 L 35.294922 45.398438 z M 38.130859 49.921875 L 40.96875 45.722656 L 38.132812 41.199219 L 38.140625 42.708984 L 36.402344 45.398438 L 38.140625 48.083984 L 38.130859 49.921875 z M 38.130859 49.921875 L 38.140625 51.429688 L 37.167969 52.931641 L 40.019531 52.931641 L 38.130859 49.921875 z M 38.132812 41.199219 L 40.96875 37 L 38.439453 32.966797 L 38.136719 32.966797 L 38.142578 33.988281 L 36.404297 36.675781 L 38.140625 39.363281 L 38.132812 41.199219 z M 40.96875 37 L 43.695312 32.966797 L 39.556641 32.966797 L 40.978516 35.164062 L 40.96875 37 z M 40.96875 37 L 40.978516 38.509766 L 39.240234 41.199219 L 40.976562 43.886719 L 40.96875 45.722656 L 43.804688 41.523438 L 40.96875 37 z M 43.804688 41.523438 L 46.642578 37.324219 L 43.910156 32.966797 L 43.806641 32.966797 L 43.814453 34.3125 L 42.076172 37 L 43.814453 39.6875 L 43.804688 41.523438 z M 43.804688 41.523438 L 43.814453 43.033203 L 42.076172 45.722656 L 43.8125 48.410156 L 43.806641 49.574219 L 45.597656 44.382812 L 43.804688 41.523438 z M 46.642578 37.324219 L 49.470703 33.140625 L 49.53125 32.966797 L 45.019531 32.966797 L 46.650391 35.488281 L 46.642578 37.324219 z M 46.642578 37.324219 L 46.650391 38.835938 L 44.912109 41.523438 L 46.001953 43.207031 L 47.537109 38.751953 L 46.642578 37.324219 z M 40.96875 45.722656 L 40.976562 47.232422 L 39.238281 49.921875 L 40.976562 52.607422 L 40.974609 52.931641 L 41.988281 52.931641 L 43.339844 50.933594 L 43.658203 50.009766 L 40.96875 45.722656 z M 35.296875 36.675781 L 37.800781 32.966797 L 34.091797 32.966797 L 35.304688 34.839844 L 35.296875 36.675781 z M 32.458984 49.595703 L 32.466797 51.105469 L 31.285156 52.931641 L 34.548828 52.931641 L 32.458984 49.595703 z M 32.458984 49.595703 L 29.623047 45.072266 L 29.630859 46.583984 L 27.892578 49.271484 L 29.628906 51.958984 L 29.625 52.931641 L 30.203125 52.931641 L 32.458984 49.595703 z M 23.949219 36.027344 L 26.017578 32.966797 L 23.166016 32.966797 L 23.958984 34.191406 L 23.949219 36.027344 z M 21.113281 48.947266 L 21.121094 50.457031 L 19.521484 52.931641 L 23.609375 52.931641 L 21.113281 48.947266 z M 21.113281 48.947266 L 18.275391 44.423828 L 18.285156 45.933594 L 17.435547 47.248047 L 19.064453 51.976562 L 21.113281 48.947266 z M 18.275391 44.423828 L 15.439453 39.900391 L 15.449219 41.410156 L 15.431641 41.4375 L 17.074219 46.201172 L 18.275391 44.423828 z M 15.439453 39.900391 L 14.246094 37.998047 L 15.083984 40.427734 L 15.439453 39.900391 z M 48.347656 36.398438 L 47.75 37.324219 L 47.931641 37.605469 L 48.347656 36.398438 z "
       id="path5491" />
    <path
       style="opacity:1;fill:#3ca953;fill-opacity:1;stroke:none;stroke-width:1.5;stroke-linecap:round;stroke-linejoin:round;stroke-miterlimit:4;stroke-dasharray:none;stroke-dashoffset:0;stroke-opacity:1"
       d="M 30.673828 11.794922 A 9.8976086 9.9654673 0 0 1 31.150391 11.814453 A 9.8976086 9.9654673 0 0 0 30.673828 11.794922 z M 29.685547 11.845703 A 9.8976086 9.9654673 0 0 0 23.214844 15.238281 A 9.8976086 9.9654673 0 0 1 29.685547 11.845703 z M 31.664062 11.855469 A 9.8976086 9.9654673 0 0 1 32.25 11.933594 A 9.8976086 9.9654673 0 0 0 31.664062 11.855469 z M 32.601562 11.996094 A 9.8976086 9.9654673 0 0 1 33.226562 12.144531 A 9.8976086 9.9654673 0 0 0 32.601562 11.996094 z M 33.552734 12.238281 A 9.8976086 9.9654673 0 0 1 34.193359 12.460938 A 9.8976086 9.9654673 0 0 0 33.552734 12.238281 z M 34.455078 12.566406 A 9.8976086 9.9654673 0 0 1 35.128906 12.876953 A 9.8976086 9.9654673 0 0 0 34.455078 12.566406 z M 35.314453 12.974609 A 9.8976086 9.9654673 0 0 1 36.019531 13.390625 A 9.8976086 9.9654673 0 0 0 35.314453 12.974609 z M 36.136719 13.466797 A 9.8976086 9.9654673 0 0 1 36.847656 13.992188 A 9.8976086 9.9654673 0 0 0 36.136719 13.466797 z M 36.910156 14.042969 A 9.8976086 9.9654673 0 0 1 37.595703 14.660156 A 9.8976086 9.9654673 0 0 0 36.910156 14.042969 z M 37.634766 14.699219 A 9.8976086 9.9654673 0 0 1 38.263672 15.390625 A 9.8976086 9.9654673 0 0 0 37.634766 14.699219 z M 27.851562 14.894531 C 26.691347 14.923052 26.272363 17.158286 24.964844 16.667969 C 24.3549 16.43923 23.428506 15.8172 23.199219 15.255859 A 9.8976086 9.9654673 0 0 0 20.791016 21.431641 A 10.788333 10.862298 0 0 1 22.376953 21.300781 A 10.788333 10.862298 0 0 1 31.003906 25.660156 A 10.788333 10.862298 0 0 1 39.626953 21.300781 A 10.788333 10.862298 0 0 1 40.556641 21.347656 A 9.8976086 9.9654673 0 0 0 39.384766 17.068359 C 38.543962 17.087844 36.385794 14.511495 36.119141 15.578125 C 35.981872 16.127324 36.015683 19.465859 34.791016 18.853516 C 33.384025 18.15002 34.50971 15.563133 32.919922 15.033203 C 31.875004 14.684898 32.260642 17.277699 31.517578 17.525391 C 29.583929 18.169938 29.465565 15.565794 28.400391 15.033203 C 28.199629 14.932823 28.017308 14.890457 27.851562 14.894531 z M 39.384766 17.068359 A 9.8976086 9.9654673 0 0 0 38.892578 16.240234 A 9.8976086 9.9654673 0 0 1 39.384766 17.068359 z M 38.304688 15.439453 A 9.8976086 9.9654673 0 0 1 38.857422 16.1875 A 9.8976086 9.9654673 0 0 0 38.304688 15.439453 z "
       id="path5267" />
    <path
       style="opacity:1;fill:#62acba;fill-opacity:1;stroke:none;stroke-width:1.5;stroke-linecap:round;stroke-linejoin:round;stroke-miterlimit:4;stroke-dasharray:none;stroke-dashoffset:0;stroke-opacity:1"
       d="M 22.376953 22.199219 A 9.8976086 9.9654673 0 0 1 23.203125 22.244141 A 9.8976088 9.9654675 0 0 0 22.376953 22.199219 z M 23.203125 22.244141 A 9.8976088 9.9654675 0 0 1 23.587891 22.285156 A 9.8976086 9.9654673 0 0 0 23.203125 22.244141 z M 23.587891 22.285156 A 9.8976086 9.9654673 0 0 1 24.199219 22.380859 A 9.8976088 9.9654675 0 0 0 23.587891 22.285156 z M 24.199219 22.380859 A 9.8976088 9.9654675 0 0 1 24.537109 22.453125 A 9.8976086 9.9654673 0 0 0 24.199219 22.380859 z M 24.537109 22.453125 A 9.8976086 9.9654673 0 0 1 25.179688 22.619141 A 9.8976088 9.9654675 0 0 0 24.537109 22.453125 z M 25.179688 22.619141 A 9.8976088 9.9654675 0 0 1 25.464844 22.710938 A 9.8976086 9.9654673 0 0 0 25.179688 22.619141 z M 25.464844 22.710938 A 9.8976086 9.9654673 0 0 1 26.126953 22.957031 A 9.8976088 9.9654675 0 0 0 25.464844 22.710938 z M 26.126953 22.957031 A 9.8976088 9.9654675 0 0 1 26.363281 23.058594 A 9.8976086 9.9654673 0 0 0 26.126953 22.957031 z M 26.363281 23.058594 A 9.8976086 9.9654673 0 0 1 27.050781 23.396484 A 9.8976088 9.9654675 0 0 0 26.363281 23.058594 z M 27.050781 23.396484 A 9.8976088 9.9654675 0 0 1 27.208984 23.486328 A 9.8976086 9.9654673 0 0 0 27.050781 23.396484 z M 27.208984 23.486328 A 9.8976086 9.9654673 0 0 1 27.898438 23.912109 A 9.8976088 9.9654675 0 0 0 27.208984 23.486328 z M 27.898438 23.912109 A 9.8976088 9.9654675 0 0 1 28.039062 24.009766 A 9.8976086 9.9654673 0 0 0 27.898438 23.912109 z M 28.039062 24.009766 A 9.8976086 9.9654673 0 0 1 28.726562 24.541016 A 9.8976088 9.9654675 0 0 0 28.039062 24.009766 z M 28.726562 24.541016 A 9.8976088 9.9654675 0 0 1 28.775391 24.582031 A 9.8976086 9.9654673 0 0 0 28.726562 24.541016 z M 28.775391 24.582031 A 9.8976086 9.9654673 0 0 1 29.449219 25.216797 A 9.8976088 9.9654675 0 0 0 28.775391 24.582031 z M 29.449219 25.216797 A 9.8976088 9.9654675 0 0 1 29.498047 25.267578 A 9.8976086 9.9654673 0 0 0 29.449219 25.216797 z M 29.498047 25.267578 A 9.8976086 9.9654673 0 0 1 30.107422 25.96875 A 9.8976088 9.9654675 0 0 0 29.498047 25.267578 z M 30.107422 25.96875 A 9.8976088 9.9654675 0 0 1 30.160156 26.037109 A 9.8976086 9.9654673 0 0 0 30.107422 25.96875 z M 30.160156 26.037109 A 9.8976086 9.9654673 0 0 1 30.472656 26.460938 A 10.907067 10.981847 0 0 1 30.478516 26.449219 A 9.8976088 9.9654675 0 0 0 30.160156 26.037109 z M 29.566406 26.835938 C 28.423684 26.772411 29.062554 28.52729 27.900391 29.689453 C 26.798598 30.79125 25.219441 28.008232 24.623047 28.207031 C 22.692367 28.850592 22.613756 30.608897 21.427734 31.794922 C 20.303934 32.918725 19.12229 28.521484 18.697266 28.521484 C 16.446796 28.521484 16.944418 30.861328 14.488281 30.861328 C 13.632335 30.861328 13.063782 30.570531 12.693359 30.154297 A 9.8976088 9.9654675 0 0 0 12.478516 32.164062 A 9.8976088 9.9654675 0 0 0 12.527344 32.966797 L 28.878906 32.966797 A 10.907067 10.981847 0 0 1 28.833984 32.234375 A 10.907067 10.981847 0 0 1 30.169922 26.980469 C 29.926847 26.891932 29.728049 26.844924 29.566406 26.835938 z M 13.152344 28.554688 A 9.8976086 9.9654673 0 0 0 12.982422 29.076172 A 9.8976088 9.9654675 0 0 1 13.152344 28.554688 z M 12.982422 29.076172 A 9.8976088 9.9654675 0 0 0 12.810547 29.626953 A 9.8976086 9.9654673 0 0 1 12.982422 29.076172 z "
       id="ellipse5269" />
    <path
       style="opacity:1;fill:#f18f86;fill-opacity:1;stroke:none;stroke-width:1.5;stroke-linecap:round;stroke-linejoin:round;stroke-miterlimit:4;stroke-dasharray:none;stroke-dashoffset:0;stroke-opacity:1"
       d="M 39.626953 22.199219 A 9.8976086 9.9654673 0 0 0 39.007812 22.236328 A 9.8976088 9.9654675 0 0 1 39.626953 22.199219 z M 39.007812 22.236328 A 9.8976088 9.9654675 0 0 0 38.435547 22.28125 A 9.8976086 9.9654673 0 0 1 39.007812 22.236328 z M 39.949219 22.210938 A 9.8976086 9.9654673 0 0 1 40.59375 22.255859 A 9.8976088 9.9654675 0 0 0 39.949219 22.210938 z M 41.001953 22.306641 A 9.8976086 9.9654673 0 0 1 41.597656 22.408203 A 9.8976088 9.9654675 0 0 0 41.001953 22.306641 z M 38.101562 22.332031 A 9.8976088 9.9654675 0 0 0 36.287109 22.796875 L 38.101562 22.332031 z M 41.962891 22.492188 A 9.8976086 9.9654673 0 0 1 42.537109 22.650391 A 9.8976088 9.9654675 0 0 0 41.962891 22.492188 z M 42.9375 22.785156 A 9.8976086 9.9654673 0 0 1 43.464844 22.990234 A 9.8976088 9.9654675 0 0 0 42.9375 22.785156 z M 36.080078 22.873047 A 9.8976088 9.9654675 0 0 0 29.730469 32.164062 A 9.8976088 9.9654675 0 0 0 29.779297 32.966797 L 49.486328 32.966797 A 9.8976088 9.9654675 0 0 0 49.525391 32.164062 A 9.8976088 9.9654675 0 0 0 49.203125 29.6875 C 48.915291 29.832618 46.815752 30.874347 46.179688 30.238281 C 45.48693 29.545522 47.032272 27.854765 44.539062 28.210938 C 43.207117 28.401228 40.324063 31.089671 39.082031 29.847656 C 37.501762 28.267382 39.697534 25.785441 38.769531 24.857422 C 37.499042 23.586935 35.967549 26.07439 34.949219 24.546875 C 34.546194 23.94235 35.631828 23.020701 36.080078 22.873047 z M 43.828125 23.154297 A 9.8976086 9.9654673 0 0 1 44.380859 23.435547 A 9.8976088 9.9654675 0 0 0 43.828125 23.154297 z M 44.685547 23.613281 A 9.8976086 9.9654673 0 0 1 45.240234 23.96875 A 9.8976088 9.9654675 0 0 0 44.685547 23.613281 z M 45.482422 24.144531 A 9.8976086 9.9654673 0 0 1 46.042969 24.589844 A 9.8976088 9.9654675 0 0 0 45.482422 24.144531 z M 46.240234 24.765625 A 9.8976086 9.9654673 0 0 1 46.765625 25.277344 A 9.8976088 9.9654675 0 0 0 46.240234 24.765625 z M 46.933594 25.458984 A 9.8976086 9.9654673 0 0 1 47.423828 26.044922 A 9.8976088 9.9654675 0 0 0 46.933594 25.458984 z M 47.550781 26.210938 A 9.8976086 9.9654673 0 0 1 47.984375 26.847656 A 9.8976088 9.9654675 0 0 0 47.550781 26.210938 z M 48.113281 27.056641 A 9.8976086 9.9654673 0 0 1 48.480469 27.734375 A 9.8976088 9.9654675 0 0 0 48.113281 27.056641 z M 48.560547 27.904297 A 9.8976086 9.9654673 0 0 1 48.882812 28.666016 A 9.8976088 9.9654675 0 0 0 48.560547 27.904297 z M 48.935547 28.810547 A 9.8976086 9.9654673 0 0 1 49.179688 29.599609 A 9.8976088 9.9654675 0 0 0 48.935547 28.810547 z "
       id="ellipse5271" />
    <path
       inkscape:connector-curvature="0"
       id="path5566"
       d="m 47.921602,8.6187184 c -0.506618,0.05477 -0.992037,0.304201 -1.338258,0.734368 l -5.695989,7.0790086 c -0.337687,-0.07223 -0.680172,-0.09568 -1.021418,-0.08201 a 10.173354,10.243104 0 0 1 1.543277,5.088386 10.470169,10.541953 0 0 1 2.314935,0.607625 c 0.431455,-0.947084 0.473894,-2.008472 0.149069,-2.967295 l 5.815284,-7.224391 c 0.692463,-0.860332 0.55838,-2.1108126 -0.301933,-2.8032736 -0.430177,-0.346229 -0.958388,-0.48719 -1.465026,-0.432418 z"
       style="opacity:1;fill:#408592;fill-opacity:1;stroke:none;stroke-width:1.5;stroke-linecap:round;stroke-linejoin:round;stroke-miterlimit:4;stroke-dasharray:none;stroke-dashoffset:0;stroke-opacity:1" />
    <path
       style="opacity:1;fill:#62acba;fill-opacity:1;stroke:none;stroke-width:1.5;stroke-linecap:round;stroke-linejoin:round;stroke-miterlimit:4;stroke-dasharray:none;stroke-dashoffset:0;stroke-opacity:1"
       d="M 48.302734 8.6152344 C 48.175247 8.6043118 48.048534 8.6054476 47.921875 8.6191406 C 47.415257 8.6739106 46.930205 8.9233486 46.583984 9.3535156 L 40.886719 16.431641 C 40.549032 16.359411 40.20648 16.335939 39.865234 16.349609 A 10.173354 10.243104 0 0 1 41.410156 21.4375 A 10.470169 10.541953 0 0 1 43.724609 22.046875 C 44.156064 21.099791 44.197872 20.036948 43.873047 19.078125 L 49.689453 11.853516 C 50.381916 10.993184 50.247032 9.7432422 49.386719 9.0507812 C 49.064086 8.7911095 48.685196 8.6480022 48.302734 8.6152344 z M 48.070312 9.1054688 C 48.439996 9.1110325 48.810235 9.2309794 49.123047 9.4804688 C 49.406761 9.7067635 49.600069 10.003405 49.701172 10.324219 C 49.734872 10.431157 49.758994 10.541409 49.771484 10.652344 C 49.821444 11.096061 49.70211 11.55727 49.400391 11.935547 L 43.523438 19.175781 C 44.06158 19.60917 43.807293 21.428165 43.591797 21.619141 C 43.623257 20.963976 43.602114 20.151939 42.71875 19.742188 C 42.70737 19.715547 42.701583 19.688509 42.689453 19.662109 L 48.828125 12.089844 C 49.145869 11.691474 49.27332 11.205567 49.220703 10.738281 C 49.168083 10.270977 48.935487 9.82361 48.537109 9.5058594 C 48.285758 9.3053882 47.997977 9.1878082 47.703125 9.1367188 C 47.824058 9.1133002 47.947085 9.1036142 48.070312 9.1054688 z "
       id="rect5293" />
    <path
       style="fill:#713700;fill-opacity:1;fill-rule:evenodd;stroke:none;stroke-width:1px;stroke-linecap:butt;stroke-linejoin:miter;stroke-opacity:1"
       d="m 39.626974,22.199738 c -0.493915,0.0026 -0.986944,0.04239 -1.474957,0.119078 -0.806754,0.119358 -1.360913,0.301865 -1.901318,0.487811 -0.04492,0.01504 -0.08973,0.03041 -0.134437,0.0461 -0.42762,0.114378 -1.579738,1.075812 -1.167675,1.693895 1.01833,1.527515 2.551342,-0.959363 3.821831,0.311124 0.928003,0.928019 -1.269152,3.40923 0.311117,4.989504 1.242032,1.242015 4.126183,-1.44599 5.458128,-1.63628 2.493208,-0.356172 0.947355,1.335307 1.640113,2.028066 0.637319,0.63732 2.745505,-0.411263 3.02673,-0.553109 -1.123364,-4.403357 -5.064188,-7.483018 -9.579532,-7.486176 z"
       id="path5314"
       inkscape:connector-curvature="0"
       sodipodi:nodetypes="cccccssssccc" />
    <path
       style="fill:#713700;fill-opacity:1;fill-rule:evenodd;stroke:none;stroke-width:1px;stroke-linecap:butt;stroke-linejoin:miter;stroke-opacity:1"
       d="M 22.376953 22.199219 A 9.8976086 9.9654673 0 0 0 12.685547 30.146484 C 13.055781 30.567049 13.626788 30.861328 14.488281 30.861328 C 16.944418 30.861328 16.446796 28.521484 18.697266 28.521484 C 19.12229 28.521484 20.303934 32.918725 21.427734 31.794922 C 22.613756 30.608897 22.692367 28.850592 24.623047 28.207031 C 25.219441 28.008232 26.798598 30.79125 27.900391 29.689453 C 29.228578 28.361266 28.204554 26.260179 30.175781 26.982422 A 10.907067 10.981847 0 0 1 30.472656 26.460938 A 9.8976086 9.9654673 0 0 0 22.376953 22.199219 z "
       id="path5320" />
    <path
       style="fill:#713700;fill-opacity:1;fill-rule:evenodd;stroke:none;stroke-width:1px;stroke-linecap:butt;stroke-linejoin:miter;stroke-opacity:1"
       d="m 30.673513,11.794376 a 9.8976086,9.9654673 0 0 0 -7.47465,3.460772 c 0.229287,0.561341 1.156937,1.184762 1.766881,1.413501 1.494308,0.560363 1.827786,-2.439324 3.433877,-1.63628 1.065174,0.532591 1.185275,3.137377 3.118924,2.49283 0.743064,-0.247692 0.357058,-2.841135 1.401976,-2.49283 1.589788,0.52993 0.463589,3.118332 1.87058,3.821828 1.224667,0.612343 1.191746,-2.727204 1.329015,-3.276403 0.266653,-1.06663 2.424063,1.509807 3.264867,1.490322 a 9.8976086,9.9654673 0 0 0 -8.71147,-5.27374 z"
       id="path5322"
       inkscape:connector-curvature="0" />
    <path
       style="opacity:1;fill:#ffffff;fill-opacity:0.25229359;stroke:none;stroke-width:1.5;stroke-linecap:round;stroke-linejoin:round;stroke-miterlimit:4;stroke-dasharray:none;stroke-dashoffset:0;stroke-opacity:1"
       d="M 26.597656 12.693359 A 9.8976086 9.9654673 0 0 0 26.394531 12.798828 A 9.8976086 9.9654673 0 0 1 26.611328 12.693359 A 8.5257616 8.5059347 0 0 0 26.597656 12.693359 z M 25.808594 13.101562 A 9.8976086 9.9654673 0 0 0 25.429688 13.337891 A 9.8976086 9.9654673 0 0 1 25.808594 13.101562 z M 24.992188 13.623047 A 9.8976086 9.9654673 0 0 0 24.587891 13.933594 A 9.8976086 9.9654673 0 0 1 24.992188 13.623047 z M 24.222656 14.228516 A 9.8976086 9.9654673 0 0 0 23.792969 14.632812 A 9.8976086 9.9654673 0 0 1 24.222656 14.228516 z M 27.851562 14.894531 C 26.691347 14.923052 26.272363 17.158286 24.964844 16.667969 C 24.356997 16.440016 23.436398 15.821549 23.203125 15.261719 A 9.8976086 9.9654673 0 0 0 20.791016 21.431641 A 10.788333 10.862298 0 0 1 22.376953 21.300781 A 10.788333 10.862298 0 0 1 31.003906 25.660156 A 10.788333 10.862298 0 0 1 35.884766 21.994141 A 8.5257616 8.5059347 0 0 0 35.927734 21.152344 A 8.5257616 8.5059347 0 0 0 35.533203 18.601562 C 35.357565 18.882567 35.123279 19.01965 34.791016 18.853516 C 33.384025 18.15002 34.50971 15.563133 32.919922 15.033203 C 31.875004 14.684898 32.260642 17.277699 31.517578 17.525391 C 29.583929 18.169938 29.465565 15.565794 28.400391 15.033203 C 28.199629 14.932823 28.017308 14.890457 27.851562 14.894531 z M 23.498047 14.923828 A 9.8976086 9.9654673 0 0 0 23.302734 15.140625 A 9.8976086 9.9654673 0 0 1 23.498047 14.923828 z "
       id="path5349" />
    <path
       style="opacity:1;fill:#ffffff;fill-opacity:0.15677966;stroke:none;stroke-width:1.5;stroke-linecap:round;stroke-linejoin:round;stroke-miterlimit:4;stroke-dasharray:none;stroke-dashoffset:0;stroke-opacity:1"
       d="M 16.916016 23.861328 A 9.8976088 9.9654675 0 0 0 16.902344 23.871094 A 9.8976086 9.9654673 0 0 1 16.919922 23.861328 A 8.5257616 8.5059347 0 0 0 16.916016 23.861328 z M 16.212891 24.382812 A 9.8976088 9.9654675 0 0 0 16.103516 24.464844 A 9.8976086 9.9654673 0 0 1 16.212891 24.382812 z M 15.482422 25.03125 A 9.8976088 9.9654675 0 0 0 15.369141 25.136719 A 9.8976086 9.9654673 0 0 1 15.482422 25.03125 z M 14.822266 25.744141 A 9.8976088 9.9654675 0 0 0 14.705078 25.878906 A 9.8976086 9.9654673 0 0 1 14.822266 25.744141 z M 14.242188 26.507812 A 9.8976088 9.9654675 0 0 0 14.115234 26.6875 A 9.8976086 9.9654673 0 0 1 14.242188 26.507812 z M 13.746094 27.310547 A 9.8976088 9.9654675 0 0 0 13.609375 27.552734 A 9.8976086 9.9654673 0 0 1 13.746094 27.310547 z M 13.314453 28.191406 A 9.8976088 9.9654675 0 0 0 13.193359 28.460938 A 9.8976086 9.9654673 0 0 1 13.314453 28.191406 z M 13.011719 28.982422 A 9.8976088 9.9654675 0 0 0 12.861328 29.443359 A 9.8976086 9.9654673 0 0 1 13.011719 28.982422 z "
       id="ellipse5351" />
    <path
       style="opacity:1;fill:#ffffff;fill-opacity:0.15686275;stroke:none;stroke-width:1.5;stroke-linecap:round;stroke-linejoin:round;stroke-miterlimit:4;stroke-dasharray:none;stroke-dashoffset:0;stroke-opacity:1"
       d="M 35.841797 23 A 8.5257616 8.5059347 0 0 0 35.736328 23.003906 A 9.8976088 9.9654675 0 0 0 29.730469 32.164062 A 9.8976088 9.9654675 0 0 0 29.779297 32.966797 L 44.355469 32.966797 A 8.5257616 8.5059347 0 0 0 44.492188 31.503906 A 8.5257616 8.5059347 0 0 0 43.904297 28.421875 C 42.439302 29.074696 40.152619 30.918229 39.082031 29.847656 C 37.501762 28.267382 39.697534 25.785441 38.769531 24.857422 C 37.499042 23.586935 35.967549 26.07439 34.949219 24.546875 C 34.604388 24.029639 35.33709 23.300509 35.841797 23 z "
       id="ellipse5353" />
    <path
       style="fill:url(#linearGradient5628);fill-opacity:1;fill-rule:evenodd;stroke:none;stroke-width:1px;stroke-linecap:butt;stroke-linejoin:miter;stroke-opacity:1"
       d="m 21.61761,22.871673 c -3.699972,-0.142087 -9.520478,6.158715 -3.993339,3.172547 2.796727,-1.159996 3.04019,5.063621 4.72086,1.08259 1.442736,-2.373455 4.489004,-1.206368 5.510348,-0.488911 0.335162,-3.095489 -4.132872,-3.685389 -6.237869,-3.766226 z"
       id="path5364"
       inkscape:connector-curvature="0"
       sodipodi:nodetypes="scccs" />
    <path
       style="fill:url(#linearGradient5632);fill-opacity:1;fill-rule:evenodd;stroke:none;stroke-width:1px;stroke-linecap:butt;stroke-linejoin:miter;stroke-opacity:1"
       d="m 30.2575,12.211165 c -0.933231,-0.01903 -4.835995,1.062655 -3.932785,1.899335 1.261042,-0.560963 2.786229,-1.652353 3.494755,-0.124691 0.269443,0.531597 1.377466,1.349364 1.373338,0.106062 -0.190679,-1.679332 2.80234,-0.646667 3.850987,0.313304 0.899375,-0.626612 -0.326553,-1.210252 -1.592151,-1.669025 -0.992001,-0.454946 -2.10374,-0.502747 -3.194144,-0.524985 z"
       id="path5373"
       inkscape:connector-curvature="0"
       sodipodi:nodetypes="scccccs" />
    <path
       style="fill:url(#linearGradient5630);fill-opacity:1;fill-rule:evenodd;stroke:none;stroke-width:1px;stroke-linecap:butt;stroke-linejoin:miter;stroke-opacity:1"
       d="m 39.640171,22.92769 c -0.152985,0.03472 1.727145,1.165058 1.151326,2.252964 -0.263877,0.819643 -0.998579,3.412014 0.727549,2.340156 1.366592,-0.897481 4.368723,-2.60466 5.284104,-0.280331 -0.0094,1.518142 1.153869,0.08316 -0.01219,-0.748175 -1.458886,-2.424343 -4.331583,-3.878035 -7.150791,-3.564614 z"
       id="path5377"
       inkscape:connector-curvature="0" />
  </g>
</svg>
