<?xml version="1.0" encoding="UTF-8" standalone="no"?>
<!-- Created with Inkscape (http://www.inkscape.org/) -->

<svg
   xmlns:dc="http://purl.org/dc/elements/1.1/"
   xmlns:cc="http://creativecommons.org/ns#"
   xmlns:rdf="http://www.w3.org/1999/02/22-rdf-syntax-ns#"
   xmlns:svg="http://www.w3.org/2000/svg"
   xmlns="http://www.w3.org/2000/svg"
   xmlns:sodipodi="http://sodipodi.sourceforge.net/DTD/sodipodi-0.dtd"
   xmlns:inkscape="http://www.inkscape.org/namespaces/inkscape"
   width="64"
   height="64"
   id="svg4684"
   version="1.1"
   inkscape:version="0.91 r13725"
   viewBox="0 0 64 64"
   sodipodi:docname="entree.svg">
  <defs
     id="defs4686">
    <inkscape:path-effect
       effect="spiro"
       id="path-effect6687"
       is_visible="true" />
    <inkscape:path-effect
       is_visible="true"
       id="path-effect6683"
       effect="spiro" />
    <inkscape:path-effect
       is_visible="true"
       id="path-effect5881"
       effect="spiro" />
    <inkscape:path-effect
       effect="spiro"
       id="path-effect3941-8"
       is_visible="true" />
    <inkscape:path-effect
       effect="spiro"
       id="path-effect3941-8-2"
       is_visible="true" />
    <inkscape:path-effect
       effect="spiro"
       id="path-effect4178-1"
       is_visible="true" />
    <inkscape:path-effect
       effect="spiro"
       id="path-effect4184-7"
       is_visible="true" />
    <inkscape:path-effect
       is_visible="true"
       id="path-effect4188-4"
       effect="spiro" />
    <inkscape:path-effect
       effect="spiro"
       id="path-effect4192-0"
       is_visible="true" />
    <inkscape:path-effect
       is_visible="true"
       id="path-effect4196-9"
       effect="spiro" />
    <inkscape:path-effect
       effect="spiro"
       id="path-effect4200-4"
       is_visible="true" />
    <inkscape:path-effect
       is_visible="true"
       id="path-effect4204-8"
       effect="spiro" />
    <inkscape:path-effect
       effect="spiro"
       id="path-effect4208-8"
       is_visible="true" />
    <inkscape:path-effect
       is_visible="true"
       id="path-effect4212-2"
       effect="spiro" />
    <inkscape:path-effect
       is_visible="true"
       id="path-effect5881-1"
       effect="spiro" />
    <inkscape:path-effect
       effect="spiro"
       id="path-effect3941-8-2-4"
       is_visible="true" />
  </defs>
  <sodipodi:namedview
     id="base"
     pagecolor="#ffffff"
     bordercolor="#666666"
     borderopacity="1.0"
     inkscape:pageopacity="0.0"
     inkscape:pageshadow="2"
     inkscape:zoom="4.6287367"
     inkscape:cx="18.781883"
     inkscape:cy="68.422042"
     inkscape:current-layer="layer1"
     showgrid="true"
     inkscape:document-units="px"
     inkscape:grid-bbox="true"
     inkscape:snap-page="true"
     inkscape:object-nodes="true"
     inkscape:object-paths="true"
     inkscape:snap-bbox="true"
     inkscape:bbox-nodes="true"
     inkscape:snap-object-midpoints="true"
     inkscape:snap-global="true"
     showguides="true"
     inkscape:window-width="1470"
     inkscape:window-height="841"
     inkscape:window-x="-8"
     inkscape:window-y="-8"
     inkscape:window-maximized="1" />
  <metadata
     id="metadata4689">
    <rdf:RDF>
      <cc:Work
         rdf:about="">
        <dc:format>image/svg+xml</dc:format>
        <dc:type
           rdf:resource="http://purl.org/dc/dcmitype/StillImage" />
        <dc:title></dc:title>
      </cc:Work>
    </rdf:RDF>
  </metadata>
  <g
     id="layer1"
     inkscape:label="Layer 1"
     inkscape:groupmode="layer">
    <path
       style="fill:#ffffff;stroke:none;stroke-width:0.74540049px;stroke-linecap:round;stroke-linejoin:round;stroke-opacity:1;fill-opacity:1"
       d="m 35.737065,33.758937 -4.245272,-3.183956 -1.857381,3.281656 z"
       id="path5955"
       inkscape:connector-curvature="0"
       sodipodi:nodetypes="cccc" />
    <path
       style="fill:#ffffff;stroke:none;stroke-width:0.74540049px;stroke-linecap:round;stroke-linejoin:round;stroke-opacity:1;fill-opacity:1;opacity:0.701"
       d="M 10.091797 33.857422 C 9.9302072 36.365527 10.26498 38.809753 10.996094 41.111328 C 10.265436 38.810208 9.9302424 36.364981 10.091797 33.857422 z M 32.386719 33.857422 L 32.386719 55.863281 C 42.503747 55.538517 51.167595 48.298047 52.578125 38.328125 C 52.792584 36.812301 52.822486 35.324914 52.695312 33.857422 L 32.386719 33.857422 z M 32.386719 55.863281 C 31.759897 55.883403 31.128528 55.877871 30.492188 55.845703 C 31.128847 55.879728 31.759846 55.883404 32.386719 55.863281 z M 28.539062 55.660156 C 29.176917 55.750421 29.812347 55.80669 30.443359 55.841797 C 29.812577 55.808523 29.176952 55.750426 28.539062 55.660156 z "
       id="path5923" />
    <path
       style="fill:#ffffff;stroke:none;stroke-width:0.74548131;stroke-linecap:round;stroke-linejoin:round;stroke-miterlimit:4;stroke-dasharray:none;stroke-opacity:1;fill-opacity:1"
       d="M 55.863281 18.972656 C 48.703836 18.972656 42.888672 24.959618 42.888672 32.341797 C 42.888672 32.851927 42.928372 33.362118 42.982422 33.857422 L 44.294922 33.857422 C 44.529982 24.127441 50.055537 19.72867 56.333984 19.095703 C 56.336641 19.095213 56.33914 19.094239 56.341797 19.09375 C 56.429613 19.077603 56.515099 19.055335 56.603516 19.041016 C 56.60045 19.030496 56.599649 19.02119 56.597656 19.011719 C 56.354076 18.994233 56.110963 18.972656 55.863281 18.972656 z M 56.636719 19.013672 L 56.619141 19.039062 C 56.6548 19.033333 56.688854 19.023008 56.724609 19.017578 C 56.695466 19.015601 56.665856 19.015743 56.636719 19.013672 z M 43.541016 19.484375 C 43.52788 19.494555 43.515126 19.505497 43.501953 19.515625 C 43.505427 19.517985 43.508252 19.521068 43.511719 19.523438 C 43.522127 19.510806 43.530552 19.496974 43.541016 19.484375 z M 43.324219 19.65625 C 43.169377 19.774014 43.012615 19.888429 42.865234 20.019531 C 38.910519 23.537403 37.690999 29.013049 39.300781 33.857422 L 40.386719 33.857422 C 38.937873 27.805461 39.915791 23.071405 43.324219 19.65625 z M 51.197266 21.294922 C 51.168175 21.315872 51.140243 21.338186 51.111328 21.359375 C 51.140203 21.33817 51.168215 21.315889 51.197266 21.294922 z M 48.078125 24.46875 C 48.000012 24.580892 47.930247 24.699747 47.855469 24.814453 C 47.930188 24.699601 48.000071 24.58104 48.078125 24.46875 z M 47.464844 25.435547 C 47.397349 25.552625 47.339466 25.675564 47.275391 25.794922 C 47.339366 25.675498 47.397454 25.552697 47.464844 25.435547 z M 46.931641 26.460938 C 46.874394 26.583574 46.82711 26.711246 46.773438 26.835938 C 46.826988 26.711287 46.874527 26.583543 46.931641 26.460938 z M 46.490234 27.523438 C 46.440607 27.658948 46.402843 27.799915 46.357422 27.9375 C 46.402725 27.800058 46.440741 27.658819 46.490234 27.523438 z M 40.617188 28.308594 C 40.626865 28.525339 40.649627 28.742437 40.669922 28.958984 C 40.649561 28.742191 40.626911 28.525587 40.617188 28.308594 z M 46.130859 28.654297 C 46.104293 28.752935 46.086906 28.855527 46.0625 28.955078 C 46.086908 28.855386 46.104288 28.753078 46.130859 28.654297 z "
       id="path5927" />
    <path
       style="fill:#ffffff;stroke:none;stroke-width:0.74540043;stroke-linecap:round;stroke-linejoin:round;stroke-opacity:1;fill-opacity:1;opacity:0.588"
       d="M 53.703125 26.234375 C 53.348484 26.220642 52.960501 26.237891 52.539062 26.287109 C 50.019562 26.212065 47.102307 28.352404 45.693359 31.457031 C 45.679179 31.712801 45.660156 31.967065 45.660156 32.226562 C 45.660156 32.781492 45.713464 33.320368 45.777344 33.857422 L 51.273438 33.857422 C 51.805169 32.954884 52.795101 32.341797 53.953125 32.341797 C 55.667837 32.341797 57.02016 31.007739 57.050781 29.361328 C 57.078632 27.864796 56.185611 26.330508 53.703125 26.234375 z "
       id="path5929" />
    <path
       inkscape:connector-curvature="0"
       style="fill:#ffffff;stroke:none;stroke-width:0.74540049;stroke-linecap:round;stroke-linejoin:round;stroke-opacity:1;fill-opacity:1;opacity:0.478"
       d="m 30.752512,25.051593 c -3.9109,0 -7.081304,3.170405 -7.081304,7.081305 0,0.598587 0.09312,1.169191 0.232937,1.723739 l 5.730267,0 4.402521,-7.989762 C 33.053377,25.349462 31.94112,25.051593 30.752512,25.051593 Z"
       id="path5931" />
    <path
       style="fill:#ffffff;stroke:none;stroke-width:0.74540049;stroke-linecap:round;stroke-linejoin:round;stroke-opacity:1;fill-opacity:1;opacity:0.783"
       d="M 30.476562 19.072266 L 30.476562 23.150391 C 30.024732 22.756907 29.44064 22.511719 28.794922 22.511719 C 28.769046 22.511719 28.746099 22.518598 28.720703 22.519531 L 28.720703 25.369141 C 29.363969 25.171565 30.041514 25.050781 30.751953 25.050781 C 30.972092 25.050781 31.189465 25.054659 31.404297 25.074219 C 31.398232 24.742561 31.323893 24.429197 31.205078 24.138672 C 32.25624 23.802044 33.011719 22.836825 33.011719 21.673828 C 33.011719 20.258424 31.882239 19.112549 30.476562 19.072266 z M 21.539062 20.673828 L 21.539062 23.726562 C 21.914699 23.716631 22.312498 23.705 22.623047 23.701172 C 22.637236 22.890016 23.027149 22.178557 23.621094 21.712891 C 23.607218 21.723921 23.591782 21.732849 23.578125 21.744141 C 23.586678 21.737087 23.59292 21.727653 23.601562 21.720703 C 23.127643 21.092778 22.385374 20.677794 21.539062 20.673828 z M 25.232422 21.138672 C 25.17087 21.138672 25.113096 21.151918 25.052734 21.15625 L 25.052734 24.349609 C 25.566664 24.799665 25.811101 25.458615 25.908203 26.263672 C 26.071737 26.216862 26.220739 26.151853 26.373047 26.076172 C 26.351307 26.02047 26.340137 25.958604 26.322266 25.900391 C 26.24136 25.652523 26.1875 25.393991 26.1875 25.121094 C 26.1875 23.958681 26.953441 22.988071 28.003906 22.652344 C 28.003356 22.651011 28.002502 22.649771 28.001953 22.648438 C 27.881071 22.687295 27.764817 22.731812 27.652344 22.787109 C 27.271754 21.817649 26.336942 21.138672 25.232422 21.138672 z M 25.052734 21.15625 C 24.89146 21.167825 24.735287 21.192145 24.583984 21.232422 C 24.735558 21.193752 24.891924 21.167369 25.052734 21.15625 z M 24.541016 21.246094 C 24.413689 21.282425 24.290468 21.326281 24.171875 21.380859 C 24.291004 21.327942 24.413291 21.281049 24.541016 21.246094 z M 24.050781 21.4375 C 23.971689 21.478895 23.896523 21.525337 23.822266 21.574219 C 23.896808 21.526298 23.971282 21.477824 24.050781 21.4375 z M 18.964844 23.677734 C 19.357004 23.714969 19.75326 23.729667 20.146484 23.736328 C 19.757405 23.729891 19.363463 23.715582 18.964844 23.677734 z M 22.855469 23.701172 C 23.120266 23.701172 23.361302 23.716552 23.583984 23.746094 C 23.362061 23.716111 23.120194 23.701172 22.855469 23.701172 z M 21.480469 23.726562 C 21.19437 23.73398 20.894125 23.737209 20.59375 23.738281 C 20.912511 23.737551 21.184006 23.734195 21.480469 23.726562 z M 23.958984 23.826172 C 24.029631 23.842828 24.107943 23.854903 24.173828 23.875 C 24.108247 23.854676 24.029345 23.843045 23.958984 23.826172 z M 28.25 25.535156 C 28.027261 25.619931 27.809329 25.711151 27.597656 25.816406 C 27.808219 25.709374 28.028222 25.62113 28.25 25.535156 z M 27.332031 25.962891 C 27.065258 26.110126 26.804953 26.26835 26.560547 26.449219 C 26.80463 26.26859 27.066471 26.112355 27.332031 25.962891 z "
       id="path5937" />
    <path
       id="path6956"
       d="m 12.862901,18.040169 c -0.343824,-0.03936 -0.69818,0.09254 -1.071513,0.465876 -0.964787,0.964787 0.475505,4.136652 -0.465876,5.078041 -4.3769692,4.376962 -5.2610142,5.605275 1.094807,10.179381 l 11.483826,0.09317 c -0.0983,-0.469685 -0.232937,-1.2244 -0.232937,-1.723744 0,-2.054435 0.885275,-3.900993 2.282789,-5.19451 -0.06642,-1.918654 -0.61998,-3.237834 -3.098071,-3.237834 -1.961171,0 -6.064958,0.448709 -7.034717,-1.490801 C 15.511115,21.58956 14.3528,18.210764 12.862901,18.040169 Z"
       style="opacity:0.73600003;fill:#ffffff;fill-opacity:1;stroke:none;stroke-width:0.74540049px;stroke-linecap:round;stroke-linejoin:round;stroke-opacity:1"
       inkscape:connector-curvature="0"
       sodipodi:nodetypes="cssccscssc" />
    <path
       style="opacity:0.59100001;fill:#ffffff;fill-opacity:1;fill-rule:evenodd;stroke:none;stroke-width:1px;stroke-linecap:butt;stroke-linejoin:miter;stroke-opacity:1"
       d="m 12.86411,18.040578 c -0.343824,-0.03936 -0.698932,0.09151 -1.072265,0.464843 -0.964787,0.964787 0.476537,4.136736 -0.464844,5.078125 -4.3769693,4.376962 -4.8549946,5.69977 1.500826,10.273876 l 6.916888,0 C 18.624748,33.332944 12.229693,23.511923 12.86411,18.040578 Z"
       id="path6958"
       inkscape:connector-curvature="0"
       sodipodi:nodetypes="cssccc" />
    <path
       style="fill:#ffffff;stroke:none;stroke-width:0.74540049;stroke-linecap:round;stroke-linejoin:round;stroke-opacity:1;fill-opacity:1"
       d="M 36.576172 20.486328 C 33.907705 20.486328 31.715375 22.489609 31.404297 25.074219 C 32.349405 25.159519 33.235714 25.445604 34.037109 25.867188 L 32.40625 28.824219 C 33.358394 30.089089 34.871053 30.921875 36.576172 30.921875 C 37.314945 30.921875 38.011553 30.755425 38.648438 30.478516 C 38.613654 29.941979 38.622308 29.405625 38.652344 28.871094 A 3.208055 3.437202 0 0 1 37.732422 29.017578 A 3.208055 3.437202 0 0 1 34.525391 25.580078 A 3.208055 3.437202 0 0 1 37.732422 22.142578 A 3.208055 3.437202 0 0 1 40.199219 23.386719 C 40.361669 23.089713 40.535309 22.79667 40.722656 22.511719 C 39.768625 21.273296 38.260337 20.486328 36.576172 20.486328 z M 41.304688 23.490234 C 41.133836 23.99046 41.003391 24.501194 40.896484 25.015625 A 3.208055 3.437202 0 0 1 40.896484 25.017578 A 3.208055 3.437202 0 0 1 40.941406 25.580078 A 3.208055 3.437202 0 0 1 40.650391 26.998047 C 40.650357 26.998696 40.650424 26.999351 40.650391 27 C 40.617541 27.644688 40.615246 28.292172 40.675781 28.941406 C 41.382905 28.051017 41.792969 26.928482 41.792969 25.703125 C 41.792969 24.910653 41.620782 24.162944 41.304688 23.490234 z M 39.623047 24.603516 C 39.592199 24.677999 39.564548 24.753129 39.535156 24.828125 C 39.564669 24.753194 39.592095 24.677935 39.623047 24.603516 z M 40.882812 25.095703 C 40.758307 25.7145 40.685834 26.341157 40.652344 26.972656 C 40.685622 26.341186 40.758925 25.714464 40.882812 25.095703 z M 39.144531 25.972656 C 39.133857 26.009942 39.121664 26.046609 39.111328 26.083984 C 39.121725 26.046716 39.133799 26.009835 39.144531 25.972656 z "
       id="path5951" />
    <path
       style="fill:none;stroke:#ffffff;stroke-width:0.01;stroke-linecap:round;stroke-linejoin:round;stroke-opacity:1;stroke-miterlimit:4;stroke-dasharray:none"
       d="m 50.449034,44.869104 -37.842812,0"
       id="path5957"
       inkscape:connector-curvature="0"
       sodipodi:nodetypes="cc" />
    <path
       style="fill:#ffffff;fill-opacity:1;fill-rule:evenodd;stroke:none;stroke-width:1px;stroke-linecap:butt;stroke-linejoin:miter;stroke-opacity:1;opacity:0.632"
       d="M 31.046875 25.841797 C 30.849214 25.841116 30.65869 25.85438 30.476562 25.884766 L 30.552734 30.773438 L 32.998047 26.191406 C 32.299213 25.977664 31.639859 25.843841 31.046875 25.841797 z M 29.40625 26.037109 C 26.803583 26.744661 25.763779 28.343003 24.976562 29.857422 L 29.40625 32.072266 L 29.941406 31.84375 L 29.40625 26.037109 z M 24.671875 30.621094 L 24.519531 33.21875 L 28.642578 33.294922 L 28.873047 32.683594 L 24.671875 30.621094 z "
       id="path6908" />
    <path
       style="opacity:1;fill:#ffffff;fill-opacity:1;stroke:none;stroke-width:1;stroke-linecap:square;stroke-linejoin:round;stroke-miterlimit:4;stroke-dasharray:none;stroke-dashoffset:0;stroke-opacity:1"
       d="M 30.402344 19.064453 C 28.961485 19.064453 27.794922 20.232969 27.794922 21.673828 C 27.794922 22.026112 27.877342 22.345761 28.003906 22.652344 C 26.953441 22.988071 26.1875 23.958681 26.1875 25.121094 C 26.1875 25.605157 26.330829 26.060686 26.560547 26.449219 C 27.206692 25.971051 27.936588 25.609622 28.720703 25.369141 L 28.720703 22.519531 C 28.580565 22.523544 28.446267 22.54515 28.3125 22.570312 C 28.443667 22.541186 28.579768 22.524713 28.720703 22.519531 C 28.746099 22.518598 28.769046 22.511719 28.794922 22.511719 C 29.44064 22.511719 30.024732 22.756907 30.476562 23.150391 L 30.476562 19.072266 C 30.451375 19.071547 30.427705 19.064453 30.402344 19.064453 z M 21.527344 20.671875 C 20.086485 20.671875 18.919922 21.84039 18.919922 23.28125 C 18.919922 23.41405 18.924599 23.55027 18.943359 23.677734 C 18.951159 23.678479 18.957084 23.676996 18.964844 23.677734 C 19.852981 23.76206 20.730595 23.747999 21.539062 23.726562 L 21.539062 20.673828 C 21.535006 20.673809 21.531406 20.671875 21.527344 20.671875 z M 25.052734 21.15625 C 23.712324 21.248929 22.646807 22.342918 22.623047 23.701172 C 22.691027 23.700427 22.791834 23.701172 22.855469 23.701172 C 23.890946 23.701172 24.583826 23.938763 25.052734 24.349609 L 25.052734 21.15625 z "
       id="rect6919" />
    <path
       style="opacity:0.52515723;fill:#ffffff;fill-opacity:1;stroke:none;stroke-width:1;stroke-linecap:square;stroke-linejoin:round;stroke-miterlimit:4;stroke-dasharray:none;stroke-dashoffset:0;stroke-opacity:1"
       d="M 37.732422 22.142578 A 3.208055 3.437202 0 0 0 34.525391 25.580078 A 3.208055 3.437202 0 0 0 37.732422 29.017578 A 3.208055 3.437202 0 0 0 38.652344 28.871094 C 38.759772 26.959247 39.272164 25.081644 40.199219 23.386719 A 3.208055 3.437202 0 0 0 37.732422 22.142578 z M 40.896484 25.015625 C 40.760668 25.66917 40.684422 26.332123 40.650391 27 A 3.208055 3.437202 0 0 0 40.941406 25.580078 A 3.208055 3.437202 0 0 0 40.896484 25.015625 z "
       id="path6947" />
    <path
       sodipodi:type="arc"
       style="fill:none;stroke:#ffffff;stroke-width:0.74540049;stroke-linecap:round;stroke-linejoin:round;stroke-opacity:1;opacity:1"
       id="path5945"
       sodipodi:cx="30.920372"
       sodipodi:cy="19.897573"
       sodipodi:rx="17.63645"
       sodipodi:ry="18.09103"
       d="M 19.391653,33.588232 A 17.63645,18.09103 0 0 1 13.350085,21.463142"
       sodipodi:start="2.2832427"
       sodipodi:end="3.0549459"
       sodipodi:open="true" />
    <path
       sodipodi:type="arc"
       style="fill:none;stroke:#ffffff;stroke-width:0.74540043;stroke-linecap:round;stroke-linejoin:round;stroke-opacity:1;opacity:1"
       id="path5947"
       sodipodi:cx="19.16062"
       sodipodi:cy="24.679602"
       sodipodi:rx="10.024965"
       sodipodi:ry="9.967351"
       d="M 14.618974,33.56543 A 10.024965,9.967351 0 0 1 9.5206372,27.415273"
       sodipodi:start="2.0409615"
       sodipodi:end="2.8635612"
       sodipodi:open="true" />
    <path
       style="opacity:0.868;fill:#ffffff;fill-opacity:1;stroke:#03771c;stroke-width:0.01;stroke-linecap:square;stroke-linejoin:round;stroke-miterlimit:4;stroke-dasharray:none;stroke-dashoffset:0;stroke-opacity:1"
       d="M 10.091797 33.857422 C 9.4071836 44.483609 17.378739 54.080816 28.539062 55.660156 C 29.837132 55.84385 31.122737 55.903856 32.386719 55.863281 L 32.386719 33.857422 L 10.091797 33.857422 z "
       id="rect6971" />
    <path
       sodipodi:open="true"
       sodipodi:end="2.8635612"
       sodipodi:start="2.0409615"
       transform="matrix(0.55959075,0.82876908,-0.82876908,0.55959076,0,0)"
       d="m 39.67414,1.3433426 a 10.024965,9.967351 0 0 1 -5.098337,-6.150157"
       sodipodi:ry="9.967351"
       sodipodi:rx="10.024965"
       sodipodi:cy="-7.5424857"
       sodipodi:cx="44.215786"
       id="path5949"
       style="fill:none;stroke:#ffffff;stroke-width:0.74540043;stroke-linecap:round;stroke-linejoin:round;stroke-opacity:1;opacity:1"
       sodipodi:type="arc" />
    <path
       style="opacity:0.698;fill:#ffffff;fill-opacity:1;stroke:#03771c;stroke-width:0.00038191;stroke-linecap:square;stroke-linejoin:round;stroke-miterlimit:4;stroke-dasharray:none;stroke-dashoffset:0;stroke-opacity:1"
       d="M 32.386719 44.886719 L 32.386719 47.349609 L 48.398438 47.349609 C 48.631991 47.044209 48.856132 46.733753 49.068359 46.417969 C 49.369851 45.969363 50.004415 44.914571 49.984375 44.894531 C 49.976052 44.886242 41.878034 44.88253 32.386719 44.886719 z "
       id="path6965" />
    <path
       style="opacity:1;fill:#ffffff;fill-opacity:1;stroke:none;stroke-width:0.01;stroke-linecap:square;stroke-linejoin:round;stroke-miterlimit:4;stroke-dasharray:none;stroke-dashoffset:0;stroke-opacity:1"
       d="M 31.515625 44.886719 L 13.0625 44.896484 L 13.304688 45.298828 C 13.734562 46.014508 14.207145 46.689403 14.730469 47.349609 L 32.386719 47.349609 L 32.386719 44.886719 C 31.916893 44.886926 31.994305 44.886469 31.515625 44.886719 z "
       id="rect6976" />
    <path
       style="opacity:0.33200001;fill:#000000;fill-opacity:1;stroke:none;stroke-width:0.01;stroke-linecap:square;stroke-linejoin:round;stroke-miterlimit:4;stroke-dasharray:none;stroke-dashoffset:0;stroke-opacity:1"
       d="m 13.634766,18.412109 0,0.0293 c 0.06866,0.05786 0.138683,0.10775 0.205078,0.175782 z m 0.308593,0.308594 c 0.950637,1.060822 1.647183,3.028741 1.876953,3.488281 0.47596,0.951913 1.710223,1.32424 3.072266,1.460938 z m 42.78125,0.296875 c -6.013163,0.913151 -10.675048,6.074113 -11.029297,12.435547 1.409641,-3.102469 4.325331,-5.241028 6.84375,-5.166016 3.371508,-0.39375 4.543549,1.363897 4.511719,3.074219 -0.03062,1.646411 -1.382944,2.980469 -3.097656,2.980469 -1.158024,0 -2.147956,0.613087 -2.679687,1.515625 l 1.421874,0 c 0.127176,1.467492 0.09727,2.954879 -0.117187,4.470703 -1.49864,10.592699 -11.183588,18.108685 -22.101563,17.517578 -0.01102,-5.65e-4 -0.02218,-0.0033 -0.0332,-0.0039 -0.631012,-0.03511 -1.266442,-0.09138 -1.904297,-0.181641 -0.698157,-0.0988 -1.382815,-0.228828 -2.054687,-0.388672 -2.685093,-0.638568 -5.148286,-1.751516 -7.306641,-3.228515 -0.341798,-0.233887 -0.6621,-0.492419 -0.988281,-0.744141 l -0.01563,0.01563 L 30.861328,64 64,64 64,26.292969 Z m -13.183593,0.466797 -1.398438,2.09375 c -0.330143,0.617289 -0.613949,1.255234 -0.83789,1.912109 l 0,0.002 c 0.315606,0.672287 0.488281,1.419106 0.488281,2.210937 0,1.225357 -0.410064,2.347892 -1.117188,3.238281 C 40.615246,28.292126 40.617541,27.644688 40.650391,27 l 0,-0.002 c 0.01399,-0.273797 0.01976,-0.548449 0.05078,-0.820313 -0.301508,2.581291 0.151365,5.263169 1.394531,7.679688 l 0.886719,0 c -0.05405,-0.495304 -0.09375,-1.005495 -0.09375,-1.515625 0,-3.756709 1.510911,-7.147223 3.933594,-9.576172 z m -11.451172,0.203125 -0.0078,0.0078 c 0.03737,0.03158 0.07581,0.06211 0.111328,0.0957 z m 0.230468,0.230469 c 0.426457,0.462805 0.691407,1.076145 0.691407,1.755859 0,0.08869 -0.0129,0.173565 -0.02148,0.259766 0.231106,-0.220782 0.482114,-0.419506 0.75,-0.595703 z m -5.421874,1.822265 -0.0059,0.0059 c 0.01849,0.01545 0.03859,0.02896 0.05664,0.04492 z m 13.097656,0.0078 -0.002,0.002 c 0.02308,0.01983 0.04368,0.04227 0.06641,0.0625 z m -12.847656,0.240234 c 0.211786,0.23247 0.386426,0.499576 0.503906,0.798828 0.0679,-0.03338 0.1401,-0.05733 0.210937,-0.08398 z m 13.330078,0.242188 c 0.08219,0.09204 0.166728,0.181452 0.242187,0.279297 0.0048,-0.0074 0.01076,-0.01412 0.01563,-0.02148 z m -8.779297,1.685547 c -0.156329,0.08876 -0.319345,0.166679 -0.494141,0.222656 0.118815,0.290525 0.193154,0.603889 0.199219,0.935547 0.0487,-0.404659 0.159409,-0.787461 0.294922,-1.158203 z m -0.294922,1.158203 c -0.214832,-0.01956 -0.432205,-0.02344 -0.652344,-0.02344 0.291178,0 0.578131,0.01815 0.859375,0.05273 -0.06945,-0.0085 -0.136918,-0.02297 -0.207031,-0.0293 z m -6.375,-0.742188 c 0.02305,0.01961 0.04249,0.04205 0.06445,0.0625 -0.01503,-0.01397 -0.02549,-0.03133 -0.04102,-0.04492 -0.0071,-0.0062 -0.01623,-0.01143 -0.02344,-0.01758 z m 0.769531,1.330078 c 0.09363,0.384095 0.138213,0.810766 0.154297,1.275391 0.19219,-0.177667 0.392504,-0.344286 0.603516,-0.5 -0.09719,-0.16601 -0.173122,-0.347932 -0.234375,-0.535156 0.01755,0.05769 0.02926,0.118697 0.05078,0.173828 -0.152308,0.07568 -0.30131,0.14069 -0.464844,0.1875 -0.02547,-0.211144 -0.06143,-0.411652 -0.109375,-0.601563 z m 6.609375,3.164063 -2.773437,5.03125 1.857422,-3.283203 4.24414,3.185547 -6.101562,0.09766 2.751953,0 6.914062,0 c -0.366734,-1.103627 -0.57814,-2.240477 -0.652343,-3.378906 -0.636885,0.276909 -1.333493,0.443359 -2.072266,0.443359 -1.704133,0 -3.215728,-0.832062 -4.167969,-2.095703 z"
       id="rect6991"
       inkscape:connector-curvature="0"
       sodipodi:nodetypes="cccccsccccccsccsccsccccccccccccsccccccscccccccsccccccccccccccccccccccccccccccccccccccccccccccsc" />
    <path
       style="fill:#ffffff;fill-rule:evenodd;stroke:none;stroke-width:1px;stroke-linecap:butt;stroke-linejoin:miter;stroke-opacity:1;fill-opacity:1;opacity:0.657"
       d="M 56.597656 19.011719 C 56.599777 19.021799 56.599837 19.031588 56.603516 19.042969 C 56.608842 19.042106 56.613812 19.039919 56.619141 19.039062 L 56.636719 19.013672 C 56.623761 19.012737 56.610617 19.012668 56.597656 19.011719 z M 56.341797 19.09375 C 50.060045 19.723786 44.530082 24.12331 44.294922 33.857422 L 45.777344 33.857422 C 45.713464 33.320368 45.660156 32.781492 45.660156 32.226562 C 45.660156 25.650837 50.275338 20.20905 56.341797 19.09375 z M 43.501953 19.515625 C 43.442281 19.561528 43.38414 19.610585 43.324219 19.65625 C 39.915791 23.071405 38.937873 27.805461 40.386719 33.857422 L 42.095703 33.857422 C 39.694312 29.189498 40.210943 23.529348 43.511719 19.523438 C 43.508252 19.521068 43.505427 19.517985 43.501953 19.515625 z "
       id="path7056" />
  </g>
</svg>
