<?xml version="1.0" encoding="UTF-8" standalone="no"?>
<!-- Created with Inkscape (http://www.inkscape.org/) -->

<svg
   xmlns:dc="http://purl.org/dc/elements/1.1/"
   xmlns:cc="http://creativecommons.org/ns#"
   xmlns:rdf="http://www.w3.org/1999/02/22-rdf-syntax-ns#"
   xmlns:svg="http://www.w3.org/2000/svg"
   xmlns="http://www.w3.org/2000/svg"
   xmlns:sodipodi="http://sodipodi.sourceforge.net/DTD/sodipodi-0.dtd"
   xmlns:inkscape="http://www.inkscape.org/namespaces/inkscape"
   width="64"
   height="64"
   id="svg4684"
   version="1.1"
   inkscape:version="0.91 r13725"
   viewBox="0 0 64 64"
   sodipodi:docname="entree-couleur.svg">
  <defs
     id="defs4686">
    <inkscape:path-effect
       effect="spiro"
       id="path-effect6687"
       is_visible="true" />
    <inkscape:path-effect
       is_visible="true"
       id="path-effect6683"
       effect="spiro" />
    <inkscape:path-effect
       is_visible="true"
       id="path-effect5881"
       effect="spiro" />
    <inkscape:path-effect
       effect="spiro"
       id="path-effect3941-8"
       is_visible="true" />
    <inkscape:path-effect
       effect="spiro"
       id="path-effect3941-8-2"
       is_visible="true" />
    <inkscape:path-effect
       effect="spiro"
       id="path-effect4178-1"
       is_visible="true" />
    <inkscape:path-effect
       effect="spiro"
       id="path-effect4184-7"
       is_visible="true" />
    <inkscape:path-effect
       is_visible="true"
       id="path-effect4188-4"
       effect="spiro" />
    <inkscape:path-effect
       effect="spiro"
       id="path-effect4192-0"
       is_visible="true" />
    <inkscape:path-effect
       is_visible="true"
       id="path-effect4196-9"
       effect="spiro" />
    <inkscape:path-effect
       effect="spiro"
       id="path-effect4200-4"
       is_visible="true" />
    <inkscape:path-effect
       is_visible="true"
       id="path-effect4204-8"
       effect="spiro" />
    <inkscape:path-effect
       effect="spiro"
       id="path-effect4208-8"
       is_visible="true" />
    <inkscape:path-effect
       is_visible="true"
       id="path-effect4212-2"
       effect="spiro" />
    <inkscape:path-effect
       is_visible="true"
       id="path-effect5881-1"
       effect="spiro" />
    <inkscape:path-effect
       effect="spiro"
       id="path-effect3941-8-2-4"
       is_visible="true" />
  </defs>
  <sodipodi:namedview
     id="base"
     pagecolor="#ffffff"
     bordercolor="#666666"
     borderopacity="1.0"
     inkscape:pageopacity="0.0"
     inkscape:pageshadow="2"
     inkscape:zoom="6.5460222"
     inkscape:cx="40.281748"
     inkscape:cy="63.669194"
     inkscape:current-layer="layer1"
     showgrid="true"
     inkscape:document-units="px"
     inkscape:grid-bbox="true"
     inkscape:snap-page="true"
     inkscape:object-nodes="true"
     inkscape:object-paths="true"
     inkscape:snap-bbox="true"
     inkscape:bbox-nodes="true"
     inkscape:snap-object-midpoints="true"
     inkscape:snap-global="true"
     showguides="true"
     inkscape:window-width="1470"
     inkscape:window-height="841"
     inkscape:window-x="-8"
     inkscape:window-y="-8"
     inkscape:window-maximized="1" />
  <metadata
     id="metadata4689">
    <rdf:RDF>
      <cc:Work
         rdf:about="">
        <dc:format>image/svg+xml</dc:format>
        <dc:type
           rdf:resource="http://purl.org/dc/dcmitype/StillImage" />
        <dc:title></dc:title>
      </cc:Work>
    </rdf:RDF>
  </metadata>
  <g
     id="layer1"
     inkscape:label="Layer 1"
     inkscape:groupmode="layer">
    <path
       style="fill:#6dbf7e;stroke:none;stroke-width:0.74540049px;stroke-linecap:round;stroke-linejoin:round;stroke-opacity:1;fill-opacity:1"
       d="m 35.737065,33.758937 -4.245272,-3.183956 -1.857381,3.281656 z"
       id="path5955"
       inkscape:connector-curvature="0"
       sodipodi:nodetypes="cccc" />
    <path
       inkscape:connector-curvature="0"
       style="fill:#febe80;stroke:none;stroke-width:0.74540049px;stroke-linecap:round;stroke-linejoin:round;stroke-opacity:1;fill-opacity:1"
       d="m 10.090943,33.856637 c -0.6846133,10.626187 7.288339,20.223627 18.448662,21.802967 11.687946,1.654 22.452409,-6.11504 24.039165,-17.330564 0.214459,-1.515824 0.243642,-3.004911 0.116469,-4.472403 l -42.604296,0 z"
       id="path5923" />
    <path
       style="fill:#3ca953;stroke:none;stroke-width:0.74548131;stroke-linecap:round;stroke-linejoin:round;stroke-miterlimit:4;stroke-dasharray:none;stroke-opacity:1;fill-opacity:1"
       d="m 55.863191,18.97192 c -7.159445,0 -12.974627,5.988443 -12.974627,13.370622 0,0.51013 0.03913,1.018791 0.09318,1.514095 l 2.795252,0 c -0.06388,-0.537054 -0.116469,-1.075635 -0.116469,-1.630564 0,-6.714844 4.808295,-12.2575 11.064538,-13.207565 -0.285719,-0.01938 -0.571386,-0.04659 -0.861869,-0.04659 z"
       id="path5927"
       inkscape:connector-curvature="0"
       sodipodi:nodetypes="ssccscs" />
    <path
       style="fill:#74cf88;fill-rule:evenodd;stroke:none;stroke-width:1px;stroke-linecap:butt;stroke-linejoin:miter;stroke-opacity:1;fill-opacity:1"
       d="M 56.597656 19.011719 C 56.599777 19.021799 56.599837 19.031588 56.603516 19.042969 C 56.608842 19.042106 56.613812 19.039919 56.619141 19.039062 L 56.636719 19.013672 C 56.623761 19.012737 56.610617 19.012668 56.597656 19.011719 z M 56.341797 19.09375 C 50.060045 19.723786 44.530082 24.12331 44.294922 33.857422 L 45.777344 33.857422 C 45.713464 33.320368 45.660156 32.781491 45.660156 32.226562 C 45.660156 25.650837 50.275338 20.20905 56.341797 19.09375 z "
       id="path7056" />
    <path
       style="fill:#dd8a3c;stroke:none;stroke-width:0.74540043;stroke-linecap:round;stroke-linejoin:round;stroke-opacity:1;fill-opacity:1"
       d="m 44.961709,33.856637 6.31261,0 c 0.531732,-0.902538 1.520759,-1.514095 2.678783,-1.514095 1.714712,0 3.06745,-1.335191 3.098071,-2.981602 0.03183,-1.710322 -1.139896,-3.468528 -4.511402,-3.074778 -3.128044,-0.09317 -6.873577,3.228085 -7.578062,7.570475 z"
       id="path5929"
       inkscape:connector-curvature="0"
       sodipodi:nodetypes="ccsscc" />
    <path
       inkscape:connector-curvature="0"
       style="fill:#ea584b;stroke:#f18f86;stroke-width:0.74540049;stroke-linecap:round;stroke-linejoin:round;stroke-opacity:1;fill-opacity:1"
       d="m 30.752512,25.051593 c -3.9109,0 -7.081304,3.170405 -7.081304,7.081305 0,0.598587 0.09312,1.169191 0.232937,1.723739 l 5.730267,0 4.402521,-7.989762 C 33.053377,25.349462 31.94112,25.051593 30.752512,25.051593 Z"
       id="path5931" />
    <path
       style="fill:#c91705;stroke:none;stroke-width:0.74540049;stroke-linecap:round;stroke-linejoin:round;stroke-opacity:1;fill-opacity:1"
       d="M 30.476562 19.072266 L 30.476562 23.150391 C 30.024732 22.756907 29.44064 22.511719 28.794922 22.511719 C 28.769046 22.511719 28.746099 22.518598 28.720703 22.519531 L 28.720703 25.369141 C 29.363969 25.171565 30.041514 25.050781 30.751953 25.050781 C 30.972092 25.050781 31.189465 25.054659 31.404297 25.074219 C 31.398232 24.742561 31.323893 24.429197 31.205078 24.138672 C 32.25624 23.802044 33.011719 22.836825 33.011719 21.673828 C 33.011719 20.258424 31.882239 19.112549 30.476562 19.072266 z M 21.539062 20.673828 L 21.539062 23.726562 C 21.914699 23.716631 22.312498 23.705 22.623047 23.701172 C 22.637236 22.890016 23.027149 22.178557 23.621094 21.712891 C 23.607218 21.723921 23.591782 21.732849 23.578125 21.744141 C 23.586678 21.737087 23.59292 21.727653 23.601562 21.720703 C 23.127643 21.092778 22.385374 20.677794 21.539062 20.673828 z M 25.232422 21.138672 C 25.17087 21.138672 25.113096 21.151918 25.052734 21.15625 L 25.052734 24.349609 C 25.566664 24.799665 25.811101 25.458615 25.908203 26.263672 C 26.071737 26.216862 26.220739 26.151853 26.373047 26.076172 C 26.351307 26.02047 26.340137 25.958604 26.322266 25.900391 C 26.24136 25.652523 26.1875 25.393991 26.1875 25.121094 C 26.1875 23.958681 26.953441 22.988071 28.003906 22.652344 C 28.003356 22.651011 28.002502 22.649771 28.001953 22.648438 C 27.881071 22.687295 27.764817 22.731812 27.652344 22.787109 C 27.271754 21.817649 26.336942 21.138672 25.232422 21.138672 z M 25.052734 21.15625 C 24.89146 21.167825 24.735287 21.192145 24.583984 21.232422 C 24.735558 21.193752 24.891924 21.167369 25.052734 21.15625 z M 24.541016 21.246094 C 24.413689 21.282425 24.290468 21.326281 24.171875 21.380859 C 24.291004 21.327942 24.413291 21.281049 24.541016 21.246094 z M 24.050781 21.4375 C 23.971689 21.478895 23.896523 21.525337 23.822266 21.574219 C 23.896808 21.526298 23.971282 21.477824 24.050781 21.4375 z M 18.964844 23.677734 C 19.357004 23.714969 19.75326 23.729667 20.146484 23.736328 C 19.757405 23.729891 19.363463 23.715582 18.964844 23.677734 z M 22.855469 23.701172 C 23.120266 23.701172 23.361302 23.716552 23.583984 23.746094 C 23.362061 23.716111 23.120194 23.701172 22.855469 23.701172 z M 21.480469 23.726562 C 21.19437 23.73398 20.894125 23.737209 20.59375 23.738281 C 20.912511 23.737551 21.184006 23.734195 21.480469 23.726562 z M 23.958984 23.826172 C 24.029631 23.842828 24.107943 23.854903 24.173828 23.875 C 24.108247 23.854676 24.029345 23.843045 23.958984 23.826172 z M 28.25 25.535156 C 28.027261 25.619931 27.809329 25.711151 27.597656 25.816406 C 27.808219 25.709374 28.028222 25.62113 28.25 25.535156 z M 27.332031 25.962891 C 27.065258 26.110126 26.804953 26.26835 26.560547 26.449219 C 26.80463 26.26859 27.066471 26.112355 27.332031 25.962891 z "
       id="path5937" />
    <path
       id="path6956"
       d="m 12.862901,18.040169 c -0.343824,-0.03936 -0.69818,0.09254 -1.071513,0.465876 -0.964787,0.964787 0.475505,4.136652 -0.465876,5.078041 -4.3769692,4.376962 -5.3308952,5.325745 1.024926,9.899851 l 11.483826,0.09317 c -0.0983,-0.469685 -0.163056,-0.94487 -0.163056,-1.444214 0,-2.054435 0.885275,-3.900993 2.282789,-5.19451 -0.06642,-1.918654 -0.61998,-3.237834 -3.098071,-3.237834 -1.961171,0 -6.064958,0.448709 -7.034717,-1.490801 C 15.511115,21.58956 14.3528,18.210764 12.862901,18.040164 Z"
       style="fill:#3ca953;stroke:none;stroke-width:0.74540049px;stroke-linecap:round;stroke-linejoin:round;stroke-opacity:1;fill-opacity:1"
       inkscape:connector-curvature="0" />
    <path
       style="fill:#74cf88;fill-opacity:1;fill-rule:evenodd;stroke:none;stroke-width:1px;stroke-linecap:butt;stroke-linejoin:miter;stroke-opacity:1"
       d="m 12.86411,18.040578 c -0.343824,-0.03936 -0.698932,0.09151 -1.072265,0.464843 -0.964787,0.964787 0.476537,4.136736 -0.464844,5.078125 -4.3769693,4.376962 -5.3323838,5.326285 1.023437,9.900391 l 6.955079,0.05469 C 18.18555,33.014149 12.229693,23.511923 12.86411,18.040578 Z"
       id="path6958"
       inkscape:connector-curvature="0" />
    <path
       inkscape:connector-curvature="0"
       style="fill:#62acba;stroke:none;stroke-width:0.74540049;stroke-linecap:round;stroke-linejoin:round;stroke-opacity:1;fill-opacity:1"
       d="m 36.575954,20.486015 c -2.668467,0 -4.860138,2.004262 -5.171216,4.588872 0.945108,0.0853 1.8308,0.370404 2.632195,0.791988 l -1.630563,2.958309 c 0.952144,1.26487 2.464465,2.096439 4.169584,2.096439 0.738773,0 1.43626,-0.165673 2.073145,-0.442582 -0.180991,-2.79183 0.51774,-5.600739 2.073145,-7.966469 -0.954031,-1.238423 -2.462125,-2.026557 -4.14629,-2.026557 z m 4.728634,3.004895 c -0.597424,1.749157 -0.801544,3.599502 -0.628932,5.450743 0.707124,-0.890389 1.118101,-2.012478 1.118101,-3.237835 0,-0.792472 -0.173075,-1.540198 -0.489169,-2.212908 z"
       id="path5951" />
    <path
       inkscape:connector-curvature="0"
       style="fill:#3ca953;stroke:none;stroke-width:0.74540049;stroke-linecap:round;stroke-linejoin:round;stroke-opacity:1;fill-opacity:1"
       d="m 43.540789,19.484383 c -0.226363,0.175422 -0.458481,0.34269 -0.675519,0.535757 -3.954715,3.517872 -5.173728,8.992124 -3.563946,13.836497 l 2.795252,0 C 39.687613,29.173994 40.211972,23.492431 43.540789,19.484383 Z"
       id="path5953" />
    <path
       style="fill:none;stroke:#ffffff;stroke-width:0.01;stroke-linecap:round;stroke-linejoin:round;stroke-opacity:1;stroke-miterlimit:4;stroke-dasharray:none"
       d="m 50.449034,44.869104 -37.842812,0"
       id="path5957"
       inkscape:connector-curvature="0"
       sodipodi:nodetypes="cc" />
    <path
       style="fill:#ef8479;fill-opacity:1;fill-rule:evenodd;stroke:none;stroke-width:1px;stroke-linecap:butt;stroke-linejoin:miter;stroke-opacity:1"
       d="M 29.407172,32.072213 24.977,29.857128 c 0.787217,-1.514419 1.827504,-3.111561 4.430171,-3.819113 l 0.534677,5.805052 z"
       id="path6908"
       inkscape:connector-curvature="0"
       sodipodi:nodetypes="ccccc" />
    <path
       style="fill:#f18f86;fill-rule:evenodd;stroke:none;stroke-width:1px;stroke-linecap:butt;stroke-linejoin:miter;stroke-opacity:1;fill-opacity:1"
       d="m 30.552906,30.773715 -0.07638,-4.888465 c 0.728512,-0.121543 1.588835,0.02054 2.520614,0.305529 z"
       id="path6910"
       inkscape:connector-curvature="0"
       sodipodi:nodetypes="cccc" />
    <path
       style="fill:#f18f86;fill-rule:evenodd;stroke:none;stroke-width:1px;stroke-linecap:butt;stroke-linejoin:miter;stroke-opacity:1;fill-opacity:1"
       d="m 28.872496,32.683271 -4.201025,-2.062321 -0.152764,2.596997 4.124642,0.07638 z"
       id="path6912"
       inkscape:connector-curvature="0" />
    <path
       style="opacity:1;fill:#fa8275;fill-opacity:1;stroke:none;stroke-width:1;stroke-linecap:square;stroke-linejoin:round;stroke-miterlimit:4;stroke-dasharray:none;stroke-dashoffset:0;stroke-opacity:1"
       d="M 30.402344 19.064453 C 28.961485 19.064453 27.794922 20.232969 27.794922 21.673828 C 27.794922 22.026112 27.877342 22.345761 28.003906 22.652344 C 26.953441 22.988071 26.1875 23.958681 26.1875 25.121094 C 26.1875 25.605157 26.330829 26.060686 26.560547 26.449219 C 27.206692 25.971051 27.936588 25.609622 28.720703 25.369141 L 28.720703 22.519531 C 28.580565 22.523544 28.446267 22.54515 28.3125 22.570312 C 28.443667 22.541186 28.579768 22.524713 28.720703 22.519531 C 28.746099 22.518598 28.769046 22.511719 28.794922 22.511719 C 29.44064 22.511719 30.024732 22.756907 30.476562 23.150391 L 30.476562 19.072266 C 30.451375 19.071547 30.427705 19.064453 30.402344 19.064453 z M 21.527344 20.671875 C 20.086485 20.671875 18.919922 21.84039 18.919922 23.28125 C 18.919922 23.41405 18.924599 23.55027 18.943359 23.677734 C 18.951159 23.678479 18.957084 23.676996 18.964844 23.677734 C 19.852981 23.76206 20.730595 23.747999 21.539062 23.726562 L 21.539062 20.673828 C 21.535006 20.673809 21.531406 20.671875 21.527344 20.671875 z M 25.052734 21.15625 C 23.712324 21.248929 22.646807 22.342918 22.623047 23.701172 C 22.691027 23.700427 22.791834 23.701172 22.855469 23.701172 C 23.890946 23.701172 24.583826 23.938763 25.052734 24.349609 L 25.052734 21.15625 z "
       id="rect6919" />
    <path
       style="opacity:1;fill:#3b7985;fill-opacity:1;stroke:none;stroke-width:1;stroke-linecap:square;stroke-linejoin:round;stroke-miterlimit:4;stroke-dasharray:none;stroke-dashoffset:0;stroke-opacity:1"
       d="M 37.732422 22.142578 A 3.208055 3.437202 0 0 0 34.525391 25.580078 A 3.208055 3.437202 0 0 0 37.732422 29.017578 A 3.208055 3.437202 0 0 0 38.652344 28.871094 C 38.759772 26.959247 39.272164 25.081644 40.199219 23.386719 A 3.208055 3.437202 0 0 0 37.732422 22.142578 z M 40.896484 25.015625 C 40.760668 25.66917 40.684422 26.332123 40.650391 27 A 3.208055 3.437202 0 0 0 40.941406 25.580078 A 3.208055 3.437202 0 0 0 40.896484 25.015625 z "
       id="path6947" />
    <path
       sodipodi:type="arc"
       style="fill:none;stroke:#03771c;stroke-width:0.74540049;stroke-linecap:round;stroke-linejoin:round;stroke-opacity:1"
       id="path5945"
       sodipodi:cx="30.920372"
       sodipodi:cy="19.897573"
       sodipodi:rx="17.63645"
       sodipodi:ry="18.09103"
       d="M 19.391653,33.588232 A 17.63645,18.09103 0 0 1 13.350085,21.463142"
       sodipodi:start="2.2832427"
       sodipodi:end="3.0549459"
       sodipodi:open="true" />
    <path
       sodipodi:type="arc"
       style="fill:none;stroke:#03771c;stroke-width:0.74540043;stroke-linecap:round;stroke-linejoin:round;stroke-opacity:1"
       id="path5947"
       sodipodi:cx="19.16062"
       sodipodi:cy="24.679602"
       sodipodi:rx="10.024965"
       sodipodi:ry="9.967351"
       d="M 14.618974,33.56543 A 10.024965,9.967351 0 0 1 9.5206372,27.415273"
       sodipodi:start="2.0409615"
       sodipodi:end="2.8635612"
       sodipodi:open="true" />
    <path
       style="opacity:1;fill:#fedbb9;fill-opacity:1;stroke:#03771c;stroke-width:0.01;stroke-linecap:square;stroke-linejoin:round;stroke-miterlimit:4;stroke-dasharray:none;stroke-dashoffset:0;stroke-opacity:1"
       d="M 10.091797 33.857422 C 9.4071836 44.483609 17.378739 54.080816 28.539062 55.660156 C 29.837132 55.84385 31.122737 55.903856 32.386719 55.863281 L 32.386719 33.857422 L 10.091797 33.857422 z "
       id="rect6971" />
    <path
       sodipodi:open="true"
       sodipodi:end="2.8635612"
       sodipodi:start="2.0409615"
       transform="matrix(0.55959075,0.82876908,-0.82876908,0.55959076,0,0)"
       d="m 39.67414,1.3433426 a 10.024965,9.967351 0 0 1 -5.098337,-6.150157"
       sodipodi:ry="9.967351"
       sodipodi:rx="10.024965"
       sodipodi:cy="-7.5424857"
       sodipodi:cx="44.215786"
       id="path5949"
       style="fill:none;stroke:#03771c;stroke-width:0.74540043;stroke-linecap:round;stroke-linejoin:round;stroke-opacity:1"
       sodipodi:type="arc" />
    <path
       style="opacity:1;fill:#3b7985;fill-opacity:1;stroke:#03771c;stroke-width:0.00038191;stroke-linecap:square;stroke-linejoin:round;stroke-miterlimit:4;stroke-dasharray:none;stroke-dashoffset:0;stroke-opacity:1"
       d="M 32.386719 44.886719 L 32.386719 47.349609 L 48.398438 47.349609 C 48.631991 47.044209 48.856132 46.733753 49.068359 46.417969 C 49.369851 45.969363 50.004415 44.914571 49.984375 44.894531 C 49.976052 44.886242 41.878034 44.88253 32.386719 44.886719 z "
       id="path6965" />
    <path
       style="opacity:1;fill:#62acba;fill-opacity:1;stroke:none;stroke-width:0.01;stroke-linecap:square;stroke-linejoin:round;stroke-miterlimit:4;stroke-dasharray:none;stroke-dashoffset:0;stroke-opacity:1"
       d="M 31.515625 44.886719 L 13.0625 44.896484 L 13.304688 45.298828 C 13.734562 46.014508 14.207145 46.689403 14.730469 47.349609 L 32.386719 47.349609 L 32.386719 44.886719 C 31.916893 44.886926 31.994305 44.886469 31.515625 44.886719 z "
       id="rect6976" />
    <path
       style="opacity:0.33200001;fill:#000000;fill-opacity:1;stroke:none;stroke-width:0.01;stroke-linecap:square;stroke-linejoin:round;stroke-miterlimit:4;stroke-dasharray:none;stroke-dashoffset:0;stroke-opacity:1"
       d="M 13.634766 18.412109 L 13.634766 18.441406 C 13.703426 18.499266 13.773449 18.549156 13.839844 18.617188 L 13.634766 18.412109 z M 13.943359 18.720703 C 14.893996 19.781525 15.590542 21.749444 15.820312 22.208984 C 16.296272 23.160897 17.530535 23.533224 18.892578 23.669922 L 13.943359 18.720703 z M 56.724609 19.017578 C 50.711446 19.930729 46.049561 25.091691 45.695312 31.453125 C 47.104953 28.350656 50.020643 26.212097 52.539062 26.287109 C 55.91057 25.893359 57.082611 27.651006 57.050781 29.361328 C 57.020161 31.007739 55.667837 32.341797 53.953125 32.341797 C 52.795101 32.341797 51.805169 32.954884 51.273438 33.857422 L 52.695312 33.857422 C 52.822488 35.324914 52.792582 36.812301 52.578125 38.328125 C 51.079485 48.920824 41.394537 56.43681 30.476562 55.845703 C 30.465543 55.845138 30.454379 55.842397 30.443359 55.841797 C 29.812347 55.806687 29.176917 55.750417 28.539062 55.660156 C 27.840905 55.561356 27.156247 55.431328 26.484375 55.271484 C 23.799282 54.632916 21.336089 53.519968 19.177734 52.042969 C 18.835936 51.809082 18.515634 51.55055 18.189453 51.298828 L 18.173828 51.314453 L 30.861328 64 L 64 64 L 64 26.292969 L 56.724609 19.017578 z M 43.541016 19.484375 L 42.142578 21.578125 C 41.812435 22.195414 41.528629 22.833359 41.304688 23.490234 L 41.304688 23.492188 C 41.620294 24.164475 41.792969 24.911294 41.792969 25.703125 C 41.792969 26.928482 41.382905 28.051017 40.675781 28.941406 C 40.615246 28.292126 40.617541 27.644688 40.650391 27 L 40.650391 26.998047 C 40.664381 26.72425 40.670152 26.449598 40.701172 26.177734 C 40.399664 28.759025 40.852537 31.440903 42.095703 33.857422 L 42.982422 33.857422 C 42.928372 33.362118 42.888672 32.851927 42.888672 32.341797 C 42.888672 28.585088 44.399583 25.194574 46.822266 22.765625 L 43.541016 19.484375 z M 32.089844 19.6875 L 32.082031 19.695312 C 32.119401 19.726893 32.157841 19.757426 32.193359 19.791016 L 32.089844 19.6875 z M 32.320312 19.917969 C 32.746769 20.380774 33.011719 20.994114 33.011719 21.673828 C 33.011719 21.762518 32.998814 21.847393 32.990234 21.933594 C 33.22134 21.712812 33.472348 21.514088 33.740234 21.337891 L 32.320312 19.917969 z M 26.898438 21.740234 L 26.892578 21.746094 C 26.911068 21.761544 26.931169 21.775056 26.949219 21.791016 L 26.898438 21.740234 z M 39.996094 21.748047 L 39.994141 21.75 C 40.017221 21.76983 40.037817 21.79227 40.060547 21.8125 L 39.996094 21.748047 z M 27.148438 21.988281 C 27.360224 22.220751 27.534864 22.487857 27.652344 22.787109 C 27.720244 22.753729 27.792444 22.729775 27.863281 22.703125 L 27.148438 21.988281 z M 40.478516 22.230469 C 40.560706 22.322509 40.645244 22.411921 40.720703 22.509766 C 40.725503 22.502366 40.731458 22.495641 40.736328 22.488281 L 40.478516 22.230469 z M 31.699219 23.916016 C 31.54289 24.004776 31.379874 24.082695 31.205078 24.138672 C 31.323893 24.429197 31.398232 24.742561 31.404297 25.074219 C 31.452997 24.66956 31.563706 24.286758 31.699219 23.916016 z M 31.404297 25.074219 C 31.189465 25.054659 30.972092 25.050781 30.751953 25.050781 C 31.043131 25.050781 31.330084 25.068926 31.611328 25.103516 C 31.541878 25.095016 31.47441 25.080549 31.404297 25.074219 z M 25.029297 24.332031 C 25.052347 24.351641 25.07179 24.374081 25.09375 24.394531 C 25.07872 24.380561 25.068264 24.363199 25.052734 24.349609 C 25.045634 24.343409 25.036507 24.338181 25.029297 24.332031 z M 25.798828 25.662109 C 25.892458 26.046204 25.937041 26.472875 25.953125 26.9375 C 26.145315 26.759833 26.345629 26.593214 26.556641 26.4375 C 26.459451 26.27149 26.383519 26.089568 26.322266 25.902344 C 26.339816 25.960034 26.351527 26.021041 26.373047 26.076172 C 26.220739 26.151852 26.071737 26.216862 25.908203 26.263672 C 25.882733 26.052528 25.846772 25.85202 25.798828 25.662109 z M 32.408203 28.826172 L 29.634766 33.857422 L 31.492188 30.574219 L 35.736328 33.759766 L 29.634766 33.857422 L 32.386719 33.857422 L 39.300781 33.857422 C 38.934047 32.753795 38.722641 31.616945 38.648438 30.478516 C 38.011553 30.755425 37.314945 30.921875 36.576172 30.921875 C 34.872039 30.921875 33.360444 30.089813 32.408203 28.826172 z M 23.771484 33.193359 C 23.792474 33.320942 23.807524 33.44975 23.833984 33.576172 L 21.111328 33.552734 L 21.087891 33.632812 C 21.085791 33.606122 21.083931 33.579434 21.082031 33.552734 L 19.369141 33.539062 L 19.392578 33.587891 C 19.376268 33.571651 19.36 33.555373 19.34375 33.539062 L 19.304688 33.539062 L 14.566406 33.501953 L 14.619141 33.566406 C 14.581241 33.545166 14.543481 33.523683 14.505859 33.501953 L 13.978516 33.498047 L 13.998047 33.857422 L 23.904297 33.857422 C 23.849417 33.63974 23.809167 33.416711 23.771484 33.193359 z "
       id="rect6991" />
    <path
       style="fill:#74cf88;fill-rule:evenodd;stroke:none;stroke-width:1px;stroke-linecap:butt;stroke-linejoin:miter;stroke-opacity:1;fill-opacity:1"
       d="M 43.501953 19.515625 C 43.442281 19.561528 43.38414 19.610585 43.324219 19.65625 C 39.915791 23.071405 38.937873 27.805461 40.386719 33.857422 L 42.095703 33.857422 C 39.694312 29.189498 40.210943 23.529348 43.511719 19.523438 C 43.508252 19.521068 43.505427 19.517985 43.501953 19.515625 z "
       id="path7058" />
  </g>
</svg>
