<?xml version="1.0" encoding="UTF-8" standalone="no"?>
<!-- Created with Inkscape (http://www.inkscape.org/) -->

<svg
   xmlns:dc="http://purl.org/dc/elements/1.1/"
   xmlns:cc="http://creativecommons.org/ns#"
   xmlns:rdf="http://www.w3.org/1999/02/22-rdf-syntax-ns#"
   xmlns:svg="http://www.w3.org/2000/svg"
   xmlns="http://www.w3.org/2000/svg"
   xmlns:xlink="http://www.w3.org/1999/xlink"
   xmlns:sodipodi="http://sodipodi.sourceforge.net/DTD/sodipodi-0.dtd"
   xmlns:inkscape="http://www.inkscape.org/namespaces/inkscape"
   width="64"
   height="64"
   id="svg4684"
   version="1.1"
   inkscape:version="0.91 r13725"
   viewBox="0 0 64 64"
   sodipodi:docname="garniture-couleur.svg">
  <defs
     id="defs4686">
    <linearGradient
       inkscape:collect="always"
       id="linearGradient4447">
      <stop
         style="stop-color:#febe80;stop-opacity:1;"
         offset="0"
         id="stop4449" />
      <stop
         style="stop-color:#febe80;stop-opacity:0;"
         offset="1"
         id="stop4451" />
    </linearGradient>
    <inkscape:path-effect
       effect="spiro"
       id="path-effect3941-8"
       is_visible="true" />
    <linearGradient
       inkscape:collect="always"
       xlink:href="#linearGradient4447"
       id="linearGradient4453"
       x1="4.6371427"
       y1="41.508946"
       x2="58.941534"
       y2="41.508946"
       gradientUnits="userSpaceOnUse" />
  </defs>
  <sodipodi:namedview
     id="base"
     pagecolor="#ffffff"
     bordercolor="#666666"
     borderopacity="1.0"
     inkscape:pageopacity="0.0"
     inkscape:pageshadow="2"
     inkscape:zoom="9.8190334"
     inkscape:cx="42.39425"
     inkscape:cy="31.960052"
     inkscape:current-layer="layer1"
     showgrid="true"
     inkscape:document-units="px"
     inkscape:grid-bbox="true"
     inkscape:snap-page="true"
     inkscape:object-nodes="true"
     inkscape:object-paths="true"
     inkscape:snap-bbox="true"
     inkscape:bbox-nodes="true"
     inkscape:snap-object-midpoints="true"
     inkscape:snap-global="true"
     showguides="true"
     inkscape:window-width="1470"
     inkscape:window-height="841"
     inkscape:window-x="-8"
     inkscape:window-y="-8"
     inkscape:window-maximized="1"
     inkscape:snap-nodes="true" />
  <metadata
     id="metadata4689">
    <rdf:RDF>
      <cc:Work
         rdf:about="">
        <dc:format>image/svg+xml</dc:format>
        <dc:type
           rdf:resource="http://purl.org/dc/dcmitype/StillImage" />
        <dc:title></dc:title>
      </cc:Work>
    </rdf:RDF>
  </metadata>
  <g
     id="layer1"
     inkscape:label="Layer 1"
     inkscape:groupmode="layer">
    <path
       style="opacity:0.33200001;fill:#000000;fill-opacity:1;stroke:none;stroke-width:0.69199997;stroke-linecap:round;stroke-linejoin:round;stroke-miterlimit:4;stroke-dasharray:none;stroke-dashoffset:0;stroke-opacity:1"
       d="M 39.082031 19.314453 C 36.924895 19.260513 34.732095 19.930395 32.902344 21.367188 C 32.422444 21.744024 32.045476 22.20125 31.753906 22.697266 C 31.764176 22.679796 31.768797 22.659938 31.779297 22.642578 C 31.208629 21.979152 30.367574 21.5625 29.423828 21.5625 C 29.322116 21.5625 29.226164 21.582257 29.126953 21.591797 C 27.549689 21.743382 26.310547 23.056968 26.310547 24.673828 C 26.310547 25.472456 26.638251 26.175624 27.132812 26.726562 C 27.138112 26.720762 27.145031 26.716757 27.150391 26.710938 C 27.101741 26.763258 27.064641 26.82536 27.019531 26.880859 L 25.294922 25.15625 L 25.283203 25.167969 C 24.760143 24.686038 24.083737 24.370116 23.322266 24.339844 C 23.280526 24.338144 23.241366 24.328125 23.199219 24.328125 C 21.480647 24.328125 20.087891 25.720881 20.087891 27.439453 C 20.087891 27.456663 20.091497 27.473104 20.091797 27.490234 L 19.03125 26.429688 L 18.982422 26.478516 C 18.448507 26.016812 17.768144 25.722542 17.007812 25.714844 C 16.997103 25.714735 16.987302 25.710937 16.976562 25.710938 C 15.257991 25.710938 13.865234 27.105647 13.865234 28.824219 C 12.631511 28.824219 11.585207 29.545008 11.082031 30.585938 C 10.972033 30.574178 10.865062 30.552734 10.751953 30.552734 C 10.697093 30.552734 10.645964 30.565549 10.591797 30.568359 C 8.9492817 30.653399 7.640625 32.000358 7.640625 33.664062 L 7.6386719 33.664062 C 5.924325 33.665163 4.5346487 35.052283 4.5292969 36.765625 L 3.2558594 36.765625 L 3.2558594 39.078125 L 7.8671875 39.078125 L 7.8769531 39.087891 L 4.6367188 39.087891 C 4.6367188 40.476973 5.2304213 41.718993 6.1679688 42.601562 L 6.1582031 42.611328 L 27.546875 64 L 64 64 L 64 38.960938 L 56.724609 31.685547 C 56.703549 31.659157 56.682056 31.633122 56.660156 31.607422 C 56.626536 31.570132 56.592026 31.533662 56.556641 31.498047 C 56.519861 31.459317 56.482091 31.421547 56.443359 31.384766 C 56.407649 31.352016 56.371179 31.320102 56.333984 31.289062 C 56.321694 31.278552 56.309325 31.268133 56.296875 31.257812 L 53.539062 28.5 C 53.473323 28.42537 53.400646 28.357086 53.328125 28.289062 L 53.148438 28.109375 L 53.138672 28.119141 C 52.922573 27.947195 52.685021 27.801551 52.427734 27.691406 C 52.343624 27.655396 52.252009 27.635492 52.164062 27.607422 C 52.058889 27.573112 51.957422 27.530882 51.847656 27.507812 C 51.656454 27.467623 51.458219 27.448642 51.255859 27.445312 C 51.245809 27.445148 51.236632 27.441506 51.226562 27.441406 C 51.219163 27.441355 51.212438 27.439453 51.205078 27.439453 C 51.141458 27.439453 51.082203 27.453261 51.019531 27.457031 L 45.712891 22.152344 L 45.691406 22.173828 C 43.894551 20.356328 41.506581 19.375092 39.082031 19.314453 z M 31.150391 25.726562 C 31.176581 25.922303 31.19902 26.118048 31.25 26.310547 C 31.080875 26.1891 30.89529 26.089965 30.703125 26.001953 C 30.889923 26.085803 31.072679 26.176778 31.238281 26.294922 C 31.189341 26.107784 31.175481 25.91659 31.150391 25.726562 z M 29.966797 25.765625 C 29.975697 25.767225 29.985271 25.765872 29.994141 25.767578 C 29.988541 25.766478 29.982203 25.768678 29.976562 25.767578 C 29.973263 25.766966 29.969997 25.766525 29.966797 25.765625 z M 31.693359 27.378906 C 31.815333 27.599542 31.942793 27.818759 32.103516 28.023438 C 31.982683 27.869559 31.878188 27.712043 31.779297 27.548828 C 31.746117 27.494058 31.723989 27.434829 31.693359 27.378906 z "
       id="rect4457" />
    <rect
       style="fill:#ffffff;stroke:none;stroke-width:0.69150037;stroke-linecap:round;stroke-linejoin:round;stroke-opacity:1"
       id="rect5801"
       width="57.073597"
       height="2.3116248"
       x="3.2559566"
       y="36.765999" />
    <path
       inkscape:connector-curvature="0"
       id="path4455"
       d="m 4.6371427,39.087783 c 0,2.673334 2.1671692,4.840503 4.8405028,4.840503 l 44.6233855,0 c 0.07976,0 0.158893,0.0041 0.237704,0 2.562838,-0.124021 4.602799,-2.246927 4.602799,-4.840503 l -9.681006,0 -34.94238,0 -9.6810053,0 z"
       style="fill:#ffffff;stroke:none;stroke-width:0.69150043;stroke-linecap:round;stroke-linejoin:round;stroke-opacity:1;fill-opacity:1" />
    <path
       style="fill:url(#linearGradient4453);stroke:none;stroke-width:0.69150043;stroke-linecap:round;stroke-linejoin:round;stroke-opacity:1;fill-opacity:1"
       d="m 4.6371427,39.087783 c 0,2.673334 2.1671692,4.840503 4.8405028,4.840503 l 44.6233855,0 c 0.07976,0 0.158893,0.0041 0.237704,0 2.562838,-0.124021 4.602799,-2.246927 4.602799,-4.840503 l -9.681006,0 -34.94238,0 -9.6810053,0 z"
       id="path5803"
       inkscape:connector-curvature="0" />
    <path
       style="fill:#96cfda;stroke:none;stroke-width:0.692;stroke-linecap:round;stroke-linejoin:round;stroke-opacity:1;fill-opacity:1;stroke-miterlimit:4;stroke-dasharray:none"
       d="M 29.126953 21.591797 C 27.549689 21.743382 26.310547 23.056968 26.310547 24.673828 C 26.310547 25.472456 26.638251 26.175624 27.132812 26.726562 C 27.138129 26.720743 27.145032 26.716717 27.150391 26.710938 C 26.633915 27.266425 26.310547 28.005898 26.310547 28.824219 C 26.195542 28.824219 26.084284 28.835423 25.972656 28.847656 C 25.969516 28.853846 25.968024 28.861023 25.964844 28.867188 C 24.914227 28.98466 24.034317 29.611272 23.566406 30.509766 C 23.564483 30.509995 23.56247 30.509536 23.560547 30.509766 C 23.551535 30.527127 23.539947 30.542999 23.53125 30.560547 A 3.1117518 3.1117518 0 0 0 23.484375 30.558594 A 3.1117518 3.1117518 0 0 1 26.318359 33.654297 A 3.1117518 3.1117518 0 0 1 26.005859 35.005859 C 26.107351 35.018709 26.205777 35.046875 26.310547 35.046875 C 26.310547 35.69134 26.51604 36.278755 26.851562 36.775391 L 29.228516 36.775391 L 29.228516 31.955078 C 29.29439 31.950916 29.356903 31.935547 29.423828 31.935547 C 28.229992 31.935547 27.205441 32.614914 26.683594 33.601562 L 26.683594 28.861328 C 27.982881 29.01802 29.030646 29.968016 29.330078 31.214844 L 29.330078 25.720703 C 29.262359 25.728325 29.19497 25.737538 29.126953 25.744141 L 29.126953 21.591797 z M 23.199219 24.328125 C 21.480647 24.328125 20.087891 25.720881 20.087891 27.439453 C 20.087891 27.95025 20.228707 28.424566 20.447266 28.849609 C 20.328781 28.835793 20.210219 28.824219 20.087891 28.824219 C 21.228317 28.824219 22.211297 29.445834 22.751953 30.361328 C 22.78275 30.413132 22.82574 30.45592 22.853516 30.509766 C 22.949269 30.520502 23.043749 30.537526 23.140625 30.544922 A 3.1117518 3.1117518 0 0 0 22.869141 30.564453 C 22.870832 30.567878 22.873321 30.570787 22.875 30.574219 C 21.311047 30.738527 20.087891 32.056587 20.087891 33.664062 C 20.087891 34.146473 20.216172 34.596391 20.412109 35.003906 C 20.410184 35.004109 20.408173 35.003691 20.40625 35.003906 A 3.1117518 3.1117518 0 0 0 23.207031 36.765625 A 3.1117518 3.1117518 0 0 0 23.220703 36.765625 L 23.220703 30.542969 A 3.1117518 3.1117518 0 0 1 23.263672 30.544922 C 23.283494 30.54355 23.302604 30.539077 23.322266 30.537109 L 23.322266 24.339844 C 23.28053 24.338184 23.241361 24.328125 23.199219 24.328125 z M 41.857422 24.330078 C 40.145331 24.337675 38.757813 25.725586 38.757812 27.439453 C 38.757812 27.954861 38.90109 28.433331 39.123047 28.861328 C 39.059473 28.853798 38.995106 28.849448 38.931641 28.841797 C 40.019982 28.902984 40.951034 29.522114 41.458984 30.416016 C 41.479981 30.447653 41.505868 30.475706 41.523438 30.509766 C 41.634213 30.522186 41.743704 30.548577 41.857422 30.550781 L 41.857422 24.330078 z M 23.335938 24.341797 C 23.745847 24.359912 24.136303 24.456315 24.490234 24.617188 C 24.135755 24.454644 23.747 24.359965 23.335938 24.341797 z M 24.490234 24.617188 C 24.669222 24.698543 24.839166 24.79599 24.998047 24.908203 C 24.839458 24.7953 24.66898 24.69915 24.490234 24.617188 z M 24.998047 24.908203 C 25.151999 25.016935 25.294303 25.139242 25.425781 25.273438 C 25.294716 25.138715 25.151567 25.017497 24.998047 24.908203 z M 25.535156 25.404297 C 25.628315 25.51042 25.720715 25.618125 25.798828 25.736328 C 25.720808 25.617432 25.628279 25.511104 25.535156 25.404297 z M 16.976562 25.710938 C 15.257991 25.710938 13.865234 27.105647 13.865234 28.824219 C 12.631511 28.824219 11.585207 29.545008 11.082031 30.585938 C 12.643337 30.752885 13.865234 32.0586 13.865234 33.664062 C 13.865234 34.146703 13.747063 34.598246 13.550781 35.005859 C 13.655682 35.018062 13.757165 35.046875 13.865234 35.046875 C 13.865234 35.69134 14.068774 36.278755 14.404297 36.775391 L 17.007812 36.775391 L 17.007812 31.939453 C 18.421249 31.953767 19.597078 32.913141 19.960938 34.212891 L 19.960938 28.835938 C 18.409999 28.899802 17.163301 30.094765 17.007812 31.621094 L 17.007812 25.714844 C 16.997104 25.714735 16.987297 25.710938 16.976562 25.710938 z M 17.007812 25.714844 C 17.856734 25.723438 18.625053 26.070615 19.181641 26.628906 C 18.625191 26.069036 17.857291 25.723456 17.007812 25.714844 z M 29.423828 25.710938 C 29.594748 25.710938 29.761931 25.726305 29.925781 25.753906 C 30.13325 25.788855 30.33143 25.849801 30.523438 25.923828 C 30.534149 25.927879 30.545984 25.929429 30.556641 25.933594 C 30.204612 25.794962 29.825498 25.710938 29.423828 25.710938 z M 25.847656 25.824219 C 25.932377 25.961943 26.011588 26.102979 26.074219 26.253906 C 26.011948 26.10309 25.931858 25.962004 25.847656 25.824219 z M 30.558594 25.939453 C 30.607389 25.958951 30.655548 25.980163 30.703125 26.001953 C 30.687848 25.994973 30.675561 25.983309 30.660156 25.976562 C 30.639578 25.967591 30.618456 25.95971 30.597656 25.951172 C 30.585205 25.946033 30.571123 25.944439 30.558594 25.939453 z M 30.677734 25.984375 C 30.695437 25.992175 30.710982 26.0036 30.728516 26.011719 C 30.859715 26.073155 30.984835 26.143196 31.105469 26.220703 C 31.148107 26.248124 31.197036 26.265496 31.238281 26.294922 C 31.064308 26.170806 30.874518 26.071614 30.677734 25.984375 z M 26.107422 26.363281 C 26.163422 26.51372 26.21777 26.665617 26.25 26.826172 C 26.217881 26.665587 26.163225 26.513899 26.107422 26.363281 z M 19.367188 26.855469 C 19.432105 26.934107 19.503498 27.006945 19.560547 27.091797 C 19.503646 27.006999 19.431925 26.934085 19.367188 26.855469 z M 19.619141 27.197266 C 19.703007 27.333055 19.783219 27.472477 19.845703 27.621094 C 19.783238 27.472247 19.703005 27.333302 19.619141 27.197266 z M 51.205078 27.439453 C 49.489819 27.439453 48.099107 28.828966 48.09375 30.542969 A 3.1117518 3.1117518 0 0 1 48.101562 30.542969 A 3.1117518 3.1117518 0 0 1 51.210938 33.603516 C 51.211458 33.576879 51.217564 33.551859 51.21875 33.525391 A 3.1117518 3.1117518 0 0 0 51.212891 33.654297 A 3.1117518 3.1117518 0 0 0 54.324219 36.765625 A 3.1117518 3.1117518 0 0 0 54.421875 36.761719 L 54.421875 36.759766 L 54.421875 30.548828 A 3.1117518 3.1117518 0 0 1 57.373047 33.035156 A 3.1117518 3.1117518 0 0 0 54.324219 30.542969 A 3.1117518 3.1117518 0 0 0 54.316406 30.542969 C 54.316417 30.546275 54.316406 30.549425 54.316406 30.552734 C 52.669441 30.552734 51.336047 31.835876 51.226562 33.455078 L 51.226562 27.441406 C 51.219211 27.441355 51.212442 27.439453 51.205078 27.439453 z M 51.255859 27.445312 C 51.458219 27.448641 51.656454 27.467623 51.847656 27.507812 C 51.656204 27.467456 51.458518 27.448652 51.255859 27.445312 z M 44.912109 27.447266 C 43.226881 27.485656 41.871094 28.858282 41.871094 30.552734 C 41.871094 31.068137 42.014375 31.544663 42.236328 31.972656 C 42.177956 31.965742 42.118739 31.962403 42.060547 31.955078 C 43.137495 32.021102 44.059722 32.63529 44.566406 33.517578 C 44.587217 33.554084 44.617381 33.583605 44.636719 33.621094 C 44.728623 33.631398 44.819413 33.648077 44.912109 33.65625 L 44.912109 27.447266 z M 42.060547 31.955078 C 41.997809 31.947181 41.936031 31.935547 41.871094 31.935547 C 40.465742 31.935547 39.290568 32.872989 38.904297 34.152344 L 38.904297 28.839844 C 38.855555 28.834531 38.80804 28.824219 38.757812 28.824219 C 37.534354 28.824219 36.506234 29.53752 35.998047 30.564453 A 3.1117518 3.1117518 0 0 0 35.927734 30.560547 A 3.1117518 3.1117518 0 0 1 38.765625 33.654297 A 3.1117518 3.1117518 0 0 1 38.453125 35.005859 C 38.554617 35.018707 38.653042 35.046875 38.757812 35.046875 C 38.757812 35.69134 38.963305 36.278755 39.298828 36.775391 L 42.060547 36.775391 L 42.060547 31.955078 z M 41.871094 31.935547 C 41.871094 31.758663 41.850601 31.587701 41.820312 31.419922 C 41.848623 31.588146 41.871094 31.759095 41.871094 31.935547 z M 51.888672 27.519531 C 52.074939 27.561409 52.255761 27.617784 52.427734 27.691406 C 52.256056 27.617822 52.074609 27.561442 51.888672 27.519531 z M 31.779297 27.548828 C 31.610035 27.59089 31.446035 27.646723 31.289062 27.714844 C 31.106426 27.794592 30.935817 27.894498 30.773438 28.005859 C 30.733884 28.032921 30.698352 28.064947 30.660156 28.09375 C 30.547286 28.179037 30.439909 28.271616 30.339844 28.371094 C 30.335926 28.37499 30.332022 28.378896 30.328125 28.382812 C 29.773293 28.940502 29.423828 29.700397 29.423828 30.552734 C 29.423828 30.900856 29.50627 31.224856 29.617188 31.535156 C 29.670198 31.683375 29.717347 31.834366 29.789062 31.972656 C 30.79177 32.091394 31.641817 32.678329 32.119141 33.517578 C 32.139952 33.554084 32.170115 33.583605 32.189453 33.621094 C 32.304775 33.634024 32.41637 33.664062 32.535156 33.664062 C 32.535156 33.613174 32.548366 33.565916 32.550781 33.515625 A 3.1117518 3.1117518 0 0 0 32.542969 33.654297 A 3.1117518 3.1117518 0 0 0 35.654297 36.765625 A 3.1117518 3.1117518 0 0 0 35.789062 36.759766 L 35.789062 30.550781 A 3.1117518 3.1117518 0 0 0 35.654297 30.542969 A 3.1117518 3.1117518 0 0 0 35.644531 30.542969 C 35.644542 30.546361 35.646484 30.549339 35.646484 30.552734 C 34.253398 30.552734 33.08813 31.4742 32.691406 32.736328 L 32.691406 28.638672 C 32.482024 28.453286 32.28289 28.251868 32.103516 28.023438 C 31.982683 27.869559 31.878188 27.712043 31.779297 27.548828 z M 30.339844 28.371094 C 30.43023 28.281166 30.525988 28.197473 30.626953 28.119141 C 30.525854 28.197529 30.430349 28.281087 30.339844 28.371094 z M 31.289062 27.714844 C 31.111345 27.791967 30.945612 27.888901 30.787109 27.996094 C 30.945489 27.889 31.111468 27.791908 31.289062 27.714844 z M 52.498047 27.728516 C 52.656831 27.801406 52.812036 27.882994 52.955078 27.980469 C 52.811617 27.882467 52.657369 27.801747 52.498047 27.728516 z M 52.955078 27.980469 C 53.11944 28.092471 53.272383 28.218763 53.412109 28.359375 C 53.27275 28.218935 53.118971 28.092428 52.955078 27.980469 z M 13.953125 28.832031 C 15.6301 28.87963 16.976562 30.247057 16.976562 31.935547 C 15.502975 31.935547 14.275097 32.962454 13.953125 34.337891 L 13.953125 28.832031 z M 34.736328 29.693359 C 34.777225 29.702992 34.818242 29.710208 34.859375 29.71875 C 34.818266 29.710311 34.777208 29.702876 34.736328 29.693359 z M 48.070312 30.554688 C 46.413525 30.567215 45.076712 31.87549 44.998047 33.515625 A 3.1117518 3.1117518 0 0 0 44.990234 33.654297 A 3.1117518 3.1117518 0 0 0 48.070312 36.763672 L 48.070312 30.554688 z M 10.591797 30.568359 C 8.949282 30.653395 7.640625 32.000355 7.640625 33.664062 C 9.0287181 33.664063 10.191019 34.57897 10.591797 35.833984 L 10.591797 30.568359 z M 41.734375 31.072266 C 41.747496 31.117233 41.762329 31.161234 41.773438 31.207031 C 41.761697 31.161337 41.748139 31.117135 41.734375 31.072266 z M 7.6386719 33.664062 C 5.9210136 33.665136 4.5292969 35.05748 4.5292969 36.775391 L 7.6386719 36.775391 L 7.6386719 33.664062 z M 57.429688 33.818359 A 3.1117518 3.1117518 0 0 1 57.416016 33.962891 A 3.1117518 3.1117518 0 0 0 57.429688 33.818359 z M 57.396484 34.138672 A 3.1117518 3.1117518 0 0 1 57.369141 34.279297 A 3.1117518 3.1117518 0 0 0 57.396484 34.138672 z M 44.845703 34.181641 C 44.859531 34.228829 44.877066 34.274156 44.888672 34.322266 C 44.876604 34.274383 44.859987 34.22862 44.845703 34.181641 z M 32.398438 34.183594 C 32.410304 34.224453 32.427283 34.263153 32.4375 34.304688 C 32.426801 34.263265 32.410799 34.224336 32.398438 34.183594 z M 57.333984 34.433594 A 3.1117518 3.1117518 0 0 1 57.279297 34.617188 A 3.1117518 3.1117518 0 0 0 57.333984 34.433594 z M 32.484375 34.529297 C 32.512856 34.698505 32.535156 34.869558 32.535156 35.046875 C 32.535156 34.869225 32.514481 34.697851 32.484375 34.529297 z M 44.933594 34.541016 C 44.960885 34.70628 44.982422 34.873627 44.982422 35.046875 C 44.982422 34.87334 44.962363 34.705887 44.933594 34.541016 z M 57.246094 34.714844 A 3.1117518 3.1117518 0 0 1 57.167969 34.908203 A 3.1117518 3.1117518 0 0 0 57.246094 34.714844 z M 57.123047 35.005859 A 3.1117518 3.1117518 0 0 1 57.029297 35.183594 A 3.1117518 3.1117518 0 0 0 57.123047 35.005859 z M 56.976562 35.277344 A 3.1117518 3.1117518 0 0 1 56.841797 35.476562 A 3.1117518 3.1117518 0 0 0 56.976562 35.277344 z M 56.810547 35.519531 A 3.1117518 3.1117518 0 0 1 56.644531 35.720703 A 3.1117518 3.1117518 0 0 0 56.810547 35.519531 z M 13.126953 35.654297 C 13.100722 35.685512 13.076246 35.717894 13.048828 35.748047 C 13.076049 35.717838 13.100904 35.685558 13.126953 35.654297 z M 56.611328 35.759766 A 3.1117518 3.1117518 0 0 1 56.433594 35.935547 A 3.1117518 3.1117518 0 0 0 56.611328 35.759766 z M 12.832031 35.962891 C 12.77134 36.017748 12.707469 36.069142 12.642578 36.119141 C 12.707419 36.068646 12.771417 36.018279 12.832031 35.962891 z M 56.382812 35.982422 A 3.1117518 3.1117518 0 0 1 56.195312 36.136719 A 3.1117518 3.1117518 0 0 0 56.382812 35.982422 z M 56.146484 36.171875 A 3.1117518 3.1117518 0 0 1 55.912109 36.326172 A 3.1117518 3.1117518 0 0 0 56.146484 36.171875 z M 12.425781 36.28125 C 12.295953 36.364375 12.159599 36.438517 12.017578 36.501953 C 12.159073 36.438071 12.296559 36.364875 12.425781 36.28125 z M 55.894531 36.335938 A 3.1117518 3.1117518 0 0 1 55.669922 36.455078 A 3.1117518 3.1117518 0 0 0 55.894531 36.335938 z M 37.179688 36.361328 A 3.1117518 3.1117518 0 0 1 37.083984 36.412109 A 3.1117518 3.1117518 0 0 0 37.179688 36.361328 z M 55.599609 36.488281 A 3.1117518 3.1117518 0 0 1 55.359375 36.583984 A 3.1117518 3.1117518 0 0 0 55.599609 36.488281 z M 36.917969 36.492188 A 3.1117518 3.1117518 0 0 1 36.785156 36.546875 A 3.1117518 3.1117518 0 0 0 36.917969 36.492188 z M 11.84375 36.568359 C 11.723675 36.613535 11.601206 36.653354 11.474609 36.683594 C 11.601426 36.653053 11.723631 36.61403 11.84375 36.568359 z M 55.328125 36.595703 A 3.1117518 3.1117518 0 0 1 55.046875 36.677734 A 3.1117518 3.1117518 0 0 0 55.328125 36.595703 z M 36.636719 36.601562 A 3.1117518 3.1117518 0 0 1 36.501953 36.644531 A 3.1117518 3.1117518 0 0 0 36.636719 36.601562 z M 55.033203 36.679688 A 3.1117518 3.1117518 0 0 1 54.765625 36.730469 A 3.1117518 3.1117518 0 0 0 55.033203 36.679688 z M 36.328125 36.6875 A 3.1117518 3.1117518 0 0 1 36.175781 36.716797 A 3.1117518 3.1117518 0 0 0 36.328125 36.6875 z M 11.306641 36.720703 C 11.125969 36.753321 10.941993 36.775391 10.751953 36.775391 C 10.941898 36.775391 11.126442 36.753501 11.306641 36.720703 z M 36.048828 36.736328 A 3.1117518 3.1117518 0 0 1 35.853516 36.755859 A 3.1117518 3.1117518 0 0 0 36.048828 36.736328 z M 54.716797 36.738281 A 3.1117518 3.1117518 0 0 1 54.453125 36.759766 A 3.1117518 3.1117518 0 0 0 54.716797 36.738281 z M 23.529297 36.748047 A 3.1117518 3.1117518 0 0 1 23.330078 36.759766 A 3.1117518 3.1117518 0 0 0 23.529297 36.748047 z "
       id="path5805" />
    <path
       style="fill:#3ca953;stroke:none;stroke-width:0.1;stroke-linecap:round;stroke-linejoin:round;stroke-opacity:1;fill-opacity:1;stroke-miterlimit:4;stroke-dasharray:none"
       d="m 39.082507,19.315193 c -2.157136,-0.05394 -4.350534,0.616099 -6.180285,2.052892 -2.058991,1.616804 -2.416351,4.596701 -0.799547,6.655691 1.097245,1.397336 2.812595,2.005642 4.451533,1.750361 0.557025,-0.585556 1.327363,-0.950813 2.204158,-0.950813 0.08597,-0.06749 0.171803,-0.130362 0.259313,-0.194485 -0.157227,-0.365596 -0.259313,-0.76538 -0.259313,-1.188516 0,-1.718572 1.39318,-3.111752 3.111752,-3.111752 1.489125,0 2.741073,1.044518 3.046924,2.441861 1.177099,0.02759 2.339207,0.263462 3.435892,0.71311 -0.241085,-1.588709 -0.859998,-3.11911 -1.923235,-4.473144 -1.847309,-2.352539 -4.573736,-3.62584 -7.347192,-3.695205 z"
       id="path5847"
       inkscape:connector-curvature="0" />
    <path
       style="opacity:1;fill:#5ab66e;fill-opacity:1;stroke:none;stroke-width:0.1;stroke-linecap:round;stroke-linejoin:round;stroke-miterlimit:4;stroke-dasharray:none;stroke-dashoffset:0;stroke-opacity:1"
       d="m 31.554638,26.956116 c -0.411571,-0.988603 -0.486396,-2.201996 -0.194484,-3.153822 0.362893,-1.183271 1.02061,-2.015498 2.217701,-2.806113 0.916499,-0.6053 1.866752,-1.027503 2.963496,-1.316699 0.792504,-0.208972 0.922,-0.222331 2.210093,-0.228 1.074062,-0.0047 1.496291,0.02215 1.963688,0.125008 1.280201,0.281723 2.452331,0.779902 3.53469,1.502315 0.695695,0.464336 2.034276,1.80522 2.486977,2.491256 0.345606,0.523742 0.920522,1.627405 1.01749,1.953271 0.05081,0.17074 0.04693,0.170058 -0.334923,-0.05895 -1.287245,-0.771981 -2.851109,-1.378551 -4.323051,-1.676767 -0.70774,-0.143389 -1.031487,-0.165361 -2.436503,-0.165361 -1.405015,0 -1.728762,0.02197 -2.436503,0.165361 -2.233196,0.452446 -4.321676,1.462997 -5.973499,2.89039 l -0.596397,0.515366 -0.09877,-0.23726 z"
       id="path4293"
       inkscape:connector-curvature="0" />
    <path
       style="opacity:1;fill:#66abbf;fill-opacity:0.94117647;stroke:none;stroke-width:0.69199997;stroke-linecap:round;stroke-linejoin:round;stroke-miterlimit:4;stroke-dasharray:none;stroke-dashoffset:0;stroke-opacity:1"
       d="M 29.423828 21.5625 C 29.322116 21.5625 29.226164 21.582258 29.126953 21.591797 L 29.126953 25.744141 C 29.19497 25.737538 29.262359 25.728325 29.330078 25.720703 L 29.330078 31.214844 C 29.030646 29.968016 27.982881 29.01802 26.683594 28.861328 L 26.683594 33.601562 C 27.205441 32.614914 28.229992 31.935547 29.423828 31.935547 C 29.535285 31.935547 29.63962 31.903988 29.748047 31.892578 C 29.549891 31.485955 29.423828 31.035373 29.423828 30.552734 C 29.423828 29.094712 30.425201 27.885326 31.779297 27.548828 C 31.543654 27.159921 31.373027 26.739998 31.259766 26.316406 C 30.743714 25.943134 30.107508 25.710938 29.423828 25.710938 C 30.101243 25.710938 30.724157 25.928137 31.238281 26.294922 C 30.915371 25.060283 31.116141 23.739201 31.779297 22.642578 C 31.208629 21.979152 30.367574 21.5625 29.423828 21.5625 z M 29.423828 31.935547 C 29.356903 31.935547 29.29439 31.950916 29.228516 31.955078 L 29.228516 36.775391 L 32.015625 36.775391 C 32.351148 36.278755 32.535156 35.69134 32.535156 35.046875 C 32.535156 33.328303 31.142401 31.935547 29.423828 31.935547 z M 41.871094 24.328125 C 41.866405 24.328125 41.862106 24.330057 41.857422 24.330078 L 41.857422 30.550781 C 41.862083 30.550872 41.866411 30.552734 41.871094 30.552734 C 41.871094 28.858282 43.226881 27.485656 44.912109 27.447266 L 44.912109 33.65625 C 44.935732 33.658349 44.958301 33.664062 44.982422 33.664062 C 44.982422 31.953508 46.362806 30.567599 48.070312 30.554688 L 48.070312 36.763672 A 3.1117518 3.1117518 0 0 0 48.101562 36.765625 A 3.1117518 3.1117518 0 0 0 51.212891 33.654297 A 3.1117518 3.1117518 0 0 0 48.101562 30.542969 A 3.1117518 3.1117518 0 0 0 48.09375 30.542969 C 48.088394 28.82896 46.697681 27.439453 44.982422 27.439453 C 44.982422 25.720881 43.589666 24.328125 41.871094 24.328125 z M 23.322266 24.339844 L 23.322266 30.539062 C 23.403763 30.529491 23.485136 30.51947 23.566406 30.509766 C 24.034317 29.611272 24.914227 28.98466 25.964844 28.867188 C 26.185018 28.440351 26.310547 27.95283 26.310547 27.439453 C 26.310547 25.76301 24.982521 24.405848 23.322266 24.339844 z M 17.007812 25.714844 L 17.007812 31.621094 C 17.163301 30.094765 18.409999 28.899802 19.960938 28.835938 L 19.960938 34.212891 C 19.597078 32.913141 18.421249 31.953767 17.007812 31.939453 L 17.007812 36.775391 L 19.568359 36.775391 C 19.903882 36.278755 20.087891 35.69134 20.087891 35.046875 C 20.087891 34.880239 20.064294 34.72002 20.039062 34.560547 C 20.067874 34.718863 20.087891 34.879798 20.087891 35.046875 C 20.199347 35.046875 20.303681 35.015316 20.412109 35.003906 C 20.216172 34.596391 20.087891 34.146473 20.087891 33.664062 C 20.087891 32.056587 21.311047 30.738527 22.875 30.574219 C 22.369078 29.540468 21.316376 28.824219 20.087891 28.824219 C 20.087891 27.116379 18.711574 25.732093 17.007812 25.714844 z M 51.226562 27.441406 L 51.226562 33.455078 C 51.336047 31.835876 52.669441 30.552734 54.316406 30.552734 C 54.316406 28.841515 52.934991 27.453257 51.226562 27.441406 z M 32.691406 28.638672 L 32.691406 32.736328 C 33.08813 31.4742 34.253398 30.552734 35.646484 30.552734 C 35.646484 30.299174 35.617807 30.052366 35.560547 29.816406 C 34.516987 29.757868 33.50425 29.358412 32.691406 28.638672 z M 13.953125 28.832031 L 13.953125 34.337891 C 14.275097 32.962454 15.502975 31.935547 16.976562 31.935547 C 16.976562 30.247057 15.6301 28.87963 13.953125 28.832031 z M 38.904297 28.837891 L 38.904297 34.152344 C 39.290568 32.872989 40.465742 31.935547 41.871094 31.935547 C 41.871094 30.267134 40.553385 28.91596 38.904297 28.837891 z M 23.220703 30.542969 L 23.220703 36.765625 A 3.1117518 3.1117518 0 0 0 26.318359 33.654297 A 3.1117518 3.1117518 0 0 0 23.220703 30.542969 z M 35.789062 30.548828 L 35.789062 36.761719 A 3.1117518 3.1117518 0 0 0 38.765625 33.654297 A 3.1117518 3.1117518 0 0 0 35.789062 30.548828 z M 54.421875 30.548828 L 54.421875 36.761719 A 3.1117518 3.1117518 0 0 0 57.435547 33.654297 A 3.1117518 3.1117518 0 0 0 54.421875 30.548828 z M 10.751953 30.552734 C 10.697088 30.552734 10.645964 30.565554 10.591797 30.568359 L 10.591797 35.833984 C 10.191019 34.57897 9.0287181 33.664063 7.640625 33.664062 L 7.6386719 33.664062 L 7.6386719 36.775391 L 10.751953 36.775391 C 10.751953 36.602712 10.728212 36.436502 10.701172 36.271484 C 10.731769 36.435157 10.751953 36.602376 10.751953 36.775391 C 12.470526 36.775391 13.865234 35.382635 13.865234 33.664062 C 13.865234 31.94549 12.470526 30.552734 10.751953 30.552734 z M 42.060547 31.955078 L 42.060547 36.775391 L 44.462891 36.775391 C 44.798414 36.278755 44.982422 35.69134 44.982422 35.046875 C 44.982422 33.39324 43.689054 32.054916 42.060547 31.955078 z "
       id="rect4303" />
  </g>
</svg>
