<?xml version="1.0" encoding="UTF-8" standalone="no"?>
<!-- Created with Inkscape (http://www.inkscape.org/) -->

<svg
   xmlns:dc="http://purl.org/dc/elements/1.1/"
   xmlns:cc="http://creativecommons.org/ns#"
   xmlns:rdf="http://www.w3.org/1999/02/22-rdf-syntax-ns#"
   xmlns:svg="http://www.w3.org/2000/svg"
   xmlns="http://www.w3.org/2000/svg"
   xmlns:xlink="http://www.w3.org/1999/xlink"
   xmlns:sodipodi="http://sodipodi.sourceforge.net/DTD/sodipodi-0.dtd"
   xmlns:inkscape="http://www.inkscape.org/namespaces/inkscape"
   width="64"
   height="64"
   id="svg4684"
   version="1.1"
   inkscape:version="0.91 r13725"
   viewBox="0 0 64 64"
   sodipodi:docname="garniture.svg">
  <defs
     id="defs4686">
    <linearGradient
       inkscape:collect="always"
       id="linearGradient4502">
      <stop
         style="stop-color:#ffffff;stop-opacity:1;"
         offset="0"
         id="stop4504" />
      <stop
         style="stop-color:#ffffff;stop-opacity:0;"
         offset="1"
         id="stop4506" />
    </linearGradient>
    <inkscape:path-effect
       effect="spiro"
       id="path-effect3941-8"
       is_visible="true" />
    <linearGradient
       inkscape:collect="always"
       xlink:href="#linearGradient4502"
       id="linearGradient4508"
       x1="4.6371427"
       y1="41.508946"
       x2="58.941534"
       y2="41.508946"
       gradientUnits="userSpaceOnUse" />
  </defs>
  <sodipodi:namedview
     id="base"
     pagecolor="#ffffff"
     bordercolor="#666666"
     borderopacity="1.0"
     inkscape:pageopacity="0.0"
     inkscape:pageshadow="2"
     inkscape:zoom="4.9095167"
     inkscape:cx="42.39425"
     inkscape:cy="36.033773"
     inkscape:current-layer="layer1"
     showgrid="true"
     inkscape:document-units="px"
     inkscape:grid-bbox="true"
     inkscape:snap-page="true"
     inkscape:object-nodes="true"
     inkscape:object-paths="true"
     inkscape:snap-bbox="true"
     inkscape:bbox-nodes="true"
     inkscape:snap-object-midpoints="true"
     inkscape:snap-global="true"
     showguides="true"
     inkscape:window-width="1470"
     inkscape:window-height="841"
     inkscape:window-x="-8"
     inkscape:window-y="-8"
     inkscape:window-maximized="1"
     inkscape:snap-nodes="true" />
  <metadata
     id="metadata4689">
    <rdf:RDF>
      <cc:Work
         rdf:about="">
        <dc:format>image/svg+xml</dc:format>
        <dc:type
           rdf:resource="http://purl.org/dc/dcmitype/StillImage" />
        <dc:title></dc:title>
      </cc:Work>
    </rdf:RDF>
  </metadata>
  <g
     id="layer1"
     inkscape:label="Layer 1"
     inkscape:groupmode="layer">
    <path
       style="opacity:0.33200001;fill:#000000;fill-opacity:1;stroke:none;stroke-width:0.69199997;stroke-linecap:round;stroke-linejoin:round;stroke-miterlimit:4;stroke-dasharray:none;stroke-dashoffset:0;stroke-opacity:1"
       d="M 39.082031 19.314453 C 39.404553 19.322519 39.726923 19.35019 40.046875 19.390625 C 39.726608 19.350098 39.404905 19.322528 39.082031 19.314453 z M 40.412109 19.451172 C 40.614932 19.484774 40.817078 19.519851 41.017578 19.566406 C 40.817131 19.519827 40.614886 19.484798 40.412109 19.451172 z M 41.382812 19.664062 C 41.585467 19.719575 41.787232 19.778848 41.986328 19.847656 C 41.787205 19.7788 41.5855 19.719611 41.382812 19.664062 z M 42.333984 19.978516 C 42.522298 20.051837 42.708559 20.131439 42.892578 20.216797 C 42.708289 20.131262 42.522583 20.051974 42.333984 19.978516 z M 43.259766 20.394531 C 43.434171 20.484617 43.604 20.582452 43.773438 20.683594 C 43.604192 20.582526 43.433967 20.484565 43.259766 20.394531 z M 44.126953 20.898438 C 44.299063 21.011526 44.465166 21.13685 44.630859 21.261719 C 44.464776 21.13651 44.299478 21.011808 44.126953 20.898438 z M 44.949219 21.5 C 45.161966 21.674604 45.364864 21.863783 45.564453 22.058594 C 45.36508 21.863971 45.161705 21.674467 44.949219 21.5 z M 45.712891 22.152344 L 45.691406 22.173828 C 45.949984 22.435377 46.197292 22.713811 46.429688 23.009766 C 47.492925 24.3638 48.112431 25.895666 48.353516 27.484375 C 47.256831 27.034727 46.095068 26.797121 44.917969 26.769531 C 44.905299 26.711648 44.879369 26.659976 44.863281 26.603516 C 44.937854 26.86988 44.982422 27.149286 44.982422 27.439453 C 46.697681 27.439453 48.088394 28.82896 48.09375 30.542969 C 48.098908 28.892538 49.392478 27.554872 51.019531 27.457031 L 45.712891 22.152344 z M 23.322266 24.339844 C 23.535314 24.348313 23.740237 24.383976 23.939453 24.433594 C 23.740981 24.382906 23.535591 24.348324 23.322266 24.339844 z M 24.191406 24.517578 C 24.29279 24.552525 24.392012 24.591805 24.488281 24.636719 C 24.392174 24.590859 24.292704 24.553349 24.191406 24.517578 z M 24.796875 24.802734 C 24.84942 24.834986 24.898778 24.871027 24.949219 24.90625 C 24.898961 24.870713 24.849178 24.835357 24.796875 24.802734 z M 25.294922 25.15625 L 25.283203 25.167969 C 25.412357 25.286967 25.540334 25.40815 25.648438 25.546875 C 25.699789 25.609132 25.754264 25.668893 25.798828 25.736328 C 25.817294 25.764272 25.830083 25.795651 25.847656 25.824219 C 25.932377 25.961943 26.011588 26.102979 26.074219 26.253906 C 26.088706 26.288818 26.09419 26.327735 26.107422 26.363281 C 26.140874 26.453572 26.16534 26.547879 26.193359 26.640625 C 26.21205 26.702617 26.237091 26.761864 26.25 26.826172 C 26.289556 27.023852 26.310547 27.229898 26.310547 27.439453 C 26.310547 27.945416 26.18695 28.425264 25.972656 28.847656 C 26.084284 28.835423 26.195542 28.824219 26.310547 28.824219 C 26.310547 28.082977 26.585702 27.414574 27.019531 26.880859 L 25.294922 25.15625 z M 31.136719 25.636719 C 31.140095 25.666787 31.147081 25.696478 31.150391 25.726562 C 31.150916 25.730488 31.151821 25.734356 31.152344 25.738281 C 31.177874 25.930096 31.200042 26.121908 31.25 26.310547 C 31.191155 26.088423 31.162603 25.862913 31.136719 25.636719 z M 17.007812 25.714844 C 17.220057 25.716993 17.423821 25.747785 17.623047 25.791016 C 17.424668 25.746777 17.220107 25.716993 17.007812 25.714844 z M 17.878906 25.867188 C 17.982632 25.899544 18.084918 25.935767 18.183594 25.978516 C 18.084818 25.93469 17.982827 25.90045 17.878906 25.867188 z M 18.494141 26.134766 C 18.544591 26.163803 18.591985 26.196773 18.640625 26.228516 C 18.592162 26.196468 18.544365 26.164165 18.494141 26.134766 z M 44.699219 26.146484 C 44.736591 26.227953 44.766498 26.313376 44.796875 26.398438 C 44.765668 26.313401 44.73761 26.227827 44.699219 26.146484 z M 19.03125 26.429688 L 18.982422 26.478516 C 19.118521 26.596207 19.252514 26.716558 19.367188 26.855469 C 19.432105 26.934107 19.503498 27.006945 19.560547 27.091797 C 19.582347 27.124284 19.598549 27.163926 19.619141 27.197266 C 19.703007 27.333055 19.783219 27.472477 19.845703 27.621094 C 20.001354 27.991305 20.087891 28.397259 20.087891 28.824219 C 20.210181 28.824219 20.328825 28.835808 20.447266 28.849609 C 20.236072 28.43889 20.100899 27.981427 20.091797 27.490234 L 19.03125 26.429688 z M 52.998047 28.021484 C 53.114092 28.103888 53.224578 28.191912 53.328125 28.289062 L 53.148438 28.109375 L 53.138672 28.119141 C 53.093982 28.083582 53.044557 28.054712 52.998047 28.021484 z M 53.539062 28.5 C 54.019455 29.045773 54.313961 29.759924 54.316406 30.542969 A 3.1117518 3.1117518 0 0 1 54.324219 30.542969 A 3.1117518 3.1117518 0 0 1 54.732422 30.574219 A 3.1117518 3.1117518 0 0 0 54.636719 30.566406 A 3.1117518 3.1117518 0 0 1 54.777344 30.582031 A 3.1117518 3.1117518 0 0 1 54.789062 30.583984 A 3.1117518 3.1117518 0 0 1 54.966797 30.617188 A 3.1117518 3.1117518 0 0 1 55.089844 30.646484 A 3.1117518 3.1117518 0 0 0 55.091797 30.646484 A 3.1117518 3.1117518 0 0 1 55.240234 30.689453 A 3.1117518 3.1117518 0 0 1 55.390625 30.738281 A 3.1117518 3.1117518 0 0 1 55.402344 30.742188 A 3.1117518 3.1117518 0 0 1 55.513672 30.787109 A 3.1117518 3.1117518 0 0 1 55.685547 30.863281 A 3.1117518 3.1117518 0 0 1 55.830078 30.939453 A 3.1117518 3.1117518 0 0 1 55.921875 30.990234 A 3.1117518 3.1117518 0 0 1 55.935547 30.998047 A 3.1117518 3.1117518 0 0 1 56.080078 31.09375 A 3.1117518 3.1117518 0 0 1 56.205078 31.183594 A 3.1117518 3.1117518 0 0 1 56.296875 31.257812 L 53.539062 28.5 z M 22.751953 30.361328 C 22.791767 30.428745 22.834307 30.493929 22.869141 30.564453 A 3.1117518 3.1117518 0 0 1 23.140625 30.544922 C 23.043749 30.537526 22.949269 30.520502 22.853516 30.509766 C 22.82574 30.45592 22.78275 30.413132 22.751953 30.361328 z M 23.560547 30.509766 C 23.481195 30.519254 23.401834 30.529718 23.322266 30.539062 L 23.322266 30.537109 C 23.303248 30.539013 23.284754 30.543404 23.265625 30.544922 A 3.1117518 3.1117518 0 0 1 23.494141 30.558594 A 3.1117518 3.1117518 0 0 1 23.53125 30.560547 C 23.539947 30.542999 23.551535 30.527127 23.560547 30.509766 z M 29.617188 31.535156 C 29.660046 31.655059 29.692819 31.779248 29.748047 31.892578 C 29.63962 31.903988 29.535285 31.935547 29.423828 31.935547 C 29.548997 31.935547 29.667762 31.958292 29.789062 31.972656 C 29.717347 31.834366 29.670198 31.683375 29.617188 31.535156 z M 56.724609 31.685547 A 3.1117518 3.1117518 0 0 1 56.769531 31.740234 A 3.1117518 3.1117518 0 0 1 56.792969 31.769531 A 3.1117518 3.1117518 0 0 1 56.865234 31.865234 A 3.1117518 3.1117518 0 0 1 56.876953 31.880859 A 3.1117518 3.1117518 0 0 1 56.921875 31.949219 A 3.1117518 3.1117518 0 0 1 57.007812 32.085938 A 3.1117518 3.1117518 0 0 1 57.023438 32.113281 A 3.1117518 3.1117518 0 0 1 57.091797 32.244141 A 3.1117518 3.1117518 0 0 1 57.167969 32.404297 A 3.1117518 3.1117518 0 0 1 57.169922 32.40625 A 3.1117518 3.1117518 0 0 1 57.214844 32.517578 A 3.1117518 3.1117518 0 0 1 57.273438 32.673828 A 3.1117518 3.1117518 0 0 1 57.273438 32.675781 A 3.1117518 3.1117518 0 0 1 57.326172 32.851562 A 3.1117518 3.1117518 0 0 1 57.373047 33.035156 A 3.1117518 3.1117518 0 0 1 57.435547 33.654297 A 3.1117518 3.1117518 0 0 1 57.429688 33.826172 A 3.1117518 3.1117518 0 0 1 57.416016 33.962891 A 3.1117518 3.1117518 0 0 1 57.396484 34.138672 A 3.1117518 3.1117518 0 0 1 57.369141 34.279297 A 3.1117518 3.1117518 0 0 1 57.333984 34.433594 A 3.1117518 3.1117518 0 0 1 57.316406 34.494141 A 3.1117518 3.1117518 0 0 1 57.279297 34.617188 A 3.1117518 3.1117518 0 0 1 57.246094 34.714844 A 3.1117518 3.1117518 0 0 1 57.191406 34.849609 A 3.1117518 3.1117518 0 0 1 57.167969 34.908203 A 3.1117518 3.1117518 0 0 1 57.123047 35.005859 A 3.1117518 3.1117518 0 0 1 57.029297 35.183594 A 3.1117518 3.1117518 0 0 1 56.976562 35.277344 A 3.1117518 3.1117518 0 0 1 56.841797 35.476562 A 3.1117518 3.1117518 0 0 1 56.810547 35.519531 A 3.1117518 3.1117518 0 0 1 56.644531 35.720703 A 3.1117518 3.1117518 0 0 1 56.5625 35.808594 A 3.1117518 3.1117518 0 0 1 56.433594 35.935547 A 3.1117518 3.1117518 0 0 1 56.382812 35.982422 A 3.1117518 3.1117518 0 0 1 56.349609 36.009766 A 3.1117518 3.1117518 0 0 1 56.195312 36.136719 A 3.1117518 3.1117518 0 0 1 56.146484 36.171875 A 3.1117518 3.1117518 0 0 1 55.912109 36.326172 A 3.1117518 3.1117518 0 0 1 55.894531 36.335938 A 3.1117518 3.1117518 0 0 1 55.695312 36.441406 A 3.1117518 3.1117518 0 0 1 55.669922 36.455078 A 3.1117518 3.1117518 0 0 1 55.599609 36.488281 A 3.1117518 3.1117518 0 0 1 55.359375 36.583984 A 3.1117518 3.1117518 0 0 1 55.328125 36.595703 A 3.1117518 3.1117518 0 0 1 55.255859 36.617188 A 3.1117518 3.1117518 0 0 1 55.046875 36.677734 A 3.1117518 3.1117518 0 0 1 55.033203 36.679688 A 3.1117518 3.1117518 0 0 1 54.845703 36.714844 A 3.1117518 3.1117518 0 0 1 54.765625 36.730469 A 3.1117518 3.1117518 0 0 1 54.421875 36.761719 A 3.1117518 3.1117518 0 0 1 54.324219 36.765625 L 60.330078 36.765625 L 60.330078 39.078125 L 7.8671875 39.078125 L 7.8769531 39.087891 L 14.318359 39.087891 L 49.259766 39.087891 L 58.941406 39.087891 C 58.941406 41.681467 56.900729 43.803713 54.337891 43.927734 C 54.25908 43.931834 54.181323 43.927734 54.101562 43.927734 L 9.4785156 43.927734 C 8.194264 43.927734 7.034762 43.417527 6.1679688 42.601562 L 6.1582031 42.611328 L 27.546875 64 L 64 64 L 64 38.960938 L 56.724609 31.685547 z M 54.324219 36.765625 A 3.1117518 3.1117518 0 0 1 51.212891 33.654297 A 3.1117518 3.1117518 0 0 1 48.101562 36.765625 L 54.324219 36.765625 z M 48.101562 36.765625 A 3.1117518 3.1117518 0 0 1 48.070312 36.763672 A 3.1117518 3.1117518 0 0 1 44.990234 33.654297 A 3.1117518 3.1117518 0 0 1 44.998047 33.515625 C 44.995639 33.565833 44.982422 33.613254 44.982422 33.664062 C 44.958301 33.664062 44.935732 33.658349 44.912109 33.65625 C 44.819413 33.648077 44.728623 33.631398 44.636719 33.621094 C 44.617381 33.583605 44.587217 33.554084 44.566406 33.517578 C 44.685572 33.725081 44.777015 33.947229 44.845703 34.181641 C 44.859531 34.228829 44.877066 34.274156 44.888672 34.322266 C 44.906125 34.394609 44.92133 34.466749 44.933594 34.541016 C 44.960885 34.70628 44.982422 34.873627 44.982422 35.046875 C 44.982422 35.687244 44.800226 36.271 44.46875 36.765625 L 48.101562 36.765625 z M 51.212891 33.654297 A 3.1117518 3.1117518 0 0 1 51.21875 33.525391 C 51.217564 33.551859 51.211458 33.576879 51.210938 33.603516 A 3.1117518 3.1117518 0 0 1 51.212891 33.654297 z M 20.40625 35.003906 C 20.299887 35.015801 20.197367 35.046875 20.087891 35.046875 C 20.087891 35.687244 19.905695 36.271 19.574219 36.765625 L 23.140625 36.765625 A 3.1117518 3.1117518 0 0 1 20.40625 35.003906 z M 13.550781 35.005859 C 13.437423 35.241268 13.293299 35.456347 13.126953 35.654297 C 13.100722 35.685512 13.076246 35.717894 13.048828 35.748047 C 12.980035 35.823703 12.907896 35.894319 12.832031 35.962891 C 12.77134 36.017748 12.707469 36.069142 12.642578 36.119141 C 12.570945 36.174334 12.50216 36.232347 12.425781 36.28125 C 12.295953 36.364375 12.159599 36.438517 12.017578 36.501953 C 11.960989 36.52723 11.902062 36.546421 11.84375 36.568359 C 11.723675 36.613535 11.601206 36.653354 11.474609 36.683594 C 11.273436 36.731648 11.065748 36.758731 10.851562 36.765625 L 14.398438 36.765625 C 14.066699 36.270991 13.865234 35.687262 13.865234 35.046875 C 13.757165 35.046875 13.655682 35.018062 13.550781 35.005859 z M 26.005859 35.005859 A 3.1117518 3.1117518 0 0 1 23.53125 36.748047 A 3.1117518 3.1117518 0 0 0 23.529297 36.748047 A 3.1117518 3.1117518 0 0 1 23.480469 36.75 A 3.1117518 3.1117518 0 0 1 23.330078 36.759766 A 3.1117518 3.1117518 0 0 1 23.220703 36.765625 L 26.845703 36.765625 C 26.513943 36.270991 26.310547 35.687262 26.310547 35.046875 C 26.205777 35.046875 26.107351 35.018709 26.005859 35.005859 z M 4.7421875 40.087891 C 4.799033 40.35432 4.8832578 40.609479 4.9824219 40.857422 C 4.8846899 40.609525 4.7981925 40.353844 4.7421875 40.087891 z "
       id="rect4457" />
    <rect
       style="fill:#ffffff;stroke:none;stroke-width:0.69150037;stroke-linecap:round;stroke-linejoin:round;stroke-opacity:1"
       id="rect5801"
       width="57.073597"
       height="2.3116248"
       x="3.2559566"
       y="36.765999" />
    <path
       inkscape:connector-curvature="0"
       id="path4455"
       d="m 4.6371427,39.087783 c 0,2.673334 2.1671692,4.840503 4.8405028,4.840503 l 44.6233855,0 c 0.07976,0 0.158893,0.0041 0.237704,0 2.562838,-0.124021 4.602799,-2.246927 4.602799,-4.840503 l -9.681006,0 -34.94238,0 -9.6810053,0 z"
       style="fill:url(#linearGradient4508);stroke:none;stroke-width:0.69150043;stroke-linecap:round;stroke-linejoin:round;stroke-opacity:1;fill-opacity:1" />
    <path
       style="fill:#ffffff;stroke:none;stroke-width:0.692;stroke-linecap:round;stroke-linejoin:round;stroke-opacity:1;fill-opacity:1;stroke-miterlimit:4;stroke-dasharray:none"
       d="M 29.126953 21.591797 C 27.549689 21.743382 26.310547 23.056968 26.310547 24.673828 C 26.310547 25.472456 26.638251 26.175624 27.132812 26.726562 C 27.138129 26.720743 27.145032 26.716717 27.150391 26.710938 C 26.633915 27.266425 26.310547 28.005898 26.310547 28.824219 C 26.195542 28.824219 26.084284 28.835423 25.972656 28.847656 C 25.969516 28.853846 25.968024 28.861023 25.964844 28.867188 C 24.914227 28.98466 24.034317 29.611272 23.566406 30.509766 C 23.564483 30.509995 23.56247 30.509536 23.560547 30.509766 C 23.551535 30.527127 23.539947 30.542999 23.53125 30.560547 A 3.1117518 3.1117518 0 0 0 23.484375 30.558594 A 3.1117518 3.1117518 0 0 1 26.318359 33.654297 A 3.1117518 3.1117518 0 0 1 26.005859 35.005859 C 26.107351 35.018709 26.205777 35.046875 26.310547 35.046875 C 26.310547 35.69134 26.51604 36.278755 26.851562 36.775391 L 29.228516 36.775391 L 29.228516 31.955078 C 29.29439 31.950916 29.356903 31.935547 29.423828 31.935547 C 28.229992 31.935547 27.205441 32.614914 26.683594 33.601562 L 26.683594 28.861328 C 27.982881 29.01802 29.030646 29.968016 29.330078 31.214844 L 29.330078 25.720703 C 29.262359 25.728325 29.19497 25.737538 29.126953 25.744141 L 29.126953 21.591797 z M 23.199219 24.328125 C 21.480647 24.328125 20.087891 25.720881 20.087891 27.439453 C 20.087891 27.95025 20.228707 28.424566 20.447266 28.849609 C 20.328781 28.835793 20.210219 28.824219 20.087891 28.824219 C 21.228317 28.824219 22.211297 29.445834 22.751953 30.361328 C 22.78275 30.413132 22.82574 30.45592 22.853516 30.509766 C 22.949269 30.520502 23.043749 30.537526 23.140625 30.544922 A 3.1117518 3.1117518 0 0 0 22.869141 30.564453 C 22.870832 30.567878 22.873321 30.570787 22.875 30.574219 C 21.311047 30.738527 20.087891 32.056587 20.087891 33.664062 C 20.087891 34.146473 20.216172 34.596391 20.412109 35.003906 C 20.410184 35.004109 20.408173 35.003691 20.40625 35.003906 A 3.1117518 3.1117518 0 0 0 23.207031 36.765625 A 3.1117518 3.1117518 0 0 0 23.220703 36.765625 L 23.220703 30.542969 A 3.1117518 3.1117518 0 0 1 23.263672 30.544922 C 23.283494 30.54355 23.302604 30.539077 23.322266 30.537109 L 23.322266 24.339844 C 23.28053 24.338184 23.241361 24.328125 23.199219 24.328125 z M 41.857422 24.330078 C 40.145331 24.337675 38.757813 25.725586 38.757812 27.439453 C 38.757812 27.954861 38.90109 28.433331 39.123047 28.861328 C 39.059473 28.853798 38.995106 28.849448 38.931641 28.841797 C 40.019982 28.902984 40.951034 29.522114 41.458984 30.416016 C 41.479981 30.447653 41.505868 30.475706 41.523438 30.509766 C 41.634213 30.522186 41.743704 30.548577 41.857422 30.550781 L 41.857422 24.330078 z M 23.335938 24.341797 C 23.745847 24.359912 24.136303 24.456315 24.490234 24.617188 C 24.135755 24.454644 23.747 24.359965 23.335938 24.341797 z M 24.490234 24.617188 C 24.669222 24.698543 24.839166 24.79599 24.998047 24.908203 C 24.839458 24.7953 24.66898 24.69915 24.490234 24.617188 z M 24.998047 24.908203 C 25.151999 25.016935 25.294303 25.139242 25.425781 25.273438 C 25.294716 25.138715 25.151567 25.017497 24.998047 24.908203 z M 25.535156 25.404297 C 25.628315 25.51042 25.720715 25.618125 25.798828 25.736328 C 25.720808 25.617432 25.628279 25.511104 25.535156 25.404297 z M 16.976562 25.710938 C 15.257991 25.710938 13.865234 27.105647 13.865234 28.824219 C 12.631511 28.824219 11.585207 29.545008 11.082031 30.585938 C 12.643337 30.752885 13.865234 32.0586 13.865234 33.664062 C 13.865234 34.146703 13.747063 34.598246 13.550781 35.005859 C 13.655682 35.018062 13.757165 35.046875 13.865234 35.046875 C 13.865234 35.69134 14.068774 36.278755 14.404297 36.775391 L 17.007812 36.775391 L 17.007812 31.939453 C 18.421249 31.953767 19.597078 32.913141 19.960938 34.212891 L 19.960938 28.835938 C 18.409999 28.899802 17.163301 30.094765 17.007812 31.621094 L 17.007812 25.714844 C 16.997104 25.714735 16.987297 25.710938 16.976562 25.710938 z M 17.007812 25.714844 C 17.856734 25.723438 18.625053 26.070615 19.181641 26.628906 C 18.625191 26.069036 17.857291 25.723456 17.007812 25.714844 z M 29.423828 25.710938 C 29.594748 25.710938 29.761931 25.726305 29.925781 25.753906 C 30.13325 25.788855 30.33143 25.849801 30.523438 25.923828 C 30.534149 25.927879 30.545984 25.929429 30.556641 25.933594 C 30.204612 25.794962 29.825498 25.710938 29.423828 25.710938 z M 25.847656 25.824219 C 25.932377 25.961943 26.011588 26.102979 26.074219 26.253906 C 26.011948 26.10309 25.931858 25.962004 25.847656 25.824219 z M 30.558594 25.939453 C 30.607389 25.958951 30.655548 25.980163 30.703125 26.001953 C 30.687848 25.994973 30.675561 25.983309 30.660156 25.976562 C 30.639578 25.967591 30.618456 25.95971 30.597656 25.951172 C 30.585205 25.946033 30.571123 25.944439 30.558594 25.939453 z M 30.677734 25.984375 C 30.695437 25.992175 30.710982 26.0036 30.728516 26.011719 C 30.859715 26.073155 30.984835 26.143196 31.105469 26.220703 C 31.148107 26.248124 31.197036 26.265496 31.238281 26.294922 C 31.064308 26.170806 30.874518 26.071614 30.677734 25.984375 z M 26.107422 26.363281 C 26.163422 26.51372 26.21777 26.665617 26.25 26.826172 C 26.217881 26.665587 26.163225 26.513899 26.107422 26.363281 z M 19.367188 26.855469 C 19.432105 26.934107 19.503498 27.006945 19.560547 27.091797 C 19.503646 27.006999 19.431925 26.934085 19.367188 26.855469 z M 19.619141 27.197266 C 19.703007 27.333055 19.783219 27.472477 19.845703 27.621094 C 19.783238 27.472247 19.703005 27.333302 19.619141 27.197266 z M 51.205078 27.439453 C 49.489819 27.439453 48.099107 28.828966 48.09375 30.542969 A 3.1117518 3.1117518 0 0 1 48.101562 30.542969 A 3.1117518 3.1117518 0 0 1 51.210938 33.603516 C 51.211458 33.576879 51.217564 33.551859 51.21875 33.525391 A 3.1117518 3.1117518 0 0 0 51.212891 33.654297 A 3.1117518 3.1117518 0 0 0 54.324219 36.765625 A 3.1117518 3.1117518 0 0 0 54.421875 36.761719 L 54.421875 36.759766 L 54.421875 30.548828 A 3.1117518 3.1117518 0 0 1 57.373047 33.035156 A 3.1117518 3.1117518 0 0 0 54.324219 30.542969 A 3.1117518 3.1117518 0 0 0 54.316406 30.542969 C 54.316417 30.546275 54.316406 30.549425 54.316406 30.552734 C 52.669441 30.552734 51.336047 31.835876 51.226562 33.455078 L 51.226562 27.441406 C 51.219211 27.441355 51.212442 27.439453 51.205078 27.439453 z M 51.255859 27.445312 C 51.458219 27.448641 51.656454 27.467623 51.847656 27.507812 C 51.656204 27.467456 51.458518 27.448652 51.255859 27.445312 z M 44.912109 27.447266 C 43.226881 27.485656 41.871094 28.858282 41.871094 30.552734 C 41.871094 31.068137 42.014375 31.544663 42.236328 31.972656 C 42.177956 31.965742 42.118739 31.962403 42.060547 31.955078 C 43.137495 32.021102 44.059722 32.63529 44.566406 33.517578 C 44.587217 33.554084 44.617381 33.583605 44.636719 33.621094 C 44.728623 33.631398 44.819413 33.648077 44.912109 33.65625 L 44.912109 27.447266 z M 42.060547 31.955078 C 41.997809 31.947181 41.936031 31.935547 41.871094 31.935547 C 40.465742 31.935547 39.290568 32.872989 38.904297 34.152344 L 38.904297 28.839844 C 38.855555 28.834531 38.80804 28.824219 38.757812 28.824219 C 37.534354 28.824219 36.506234 29.53752 35.998047 30.564453 A 3.1117518 3.1117518 0 0 0 35.927734 30.560547 A 3.1117518 3.1117518 0 0 1 38.765625 33.654297 A 3.1117518 3.1117518 0 0 1 38.453125 35.005859 C 38.554617 35.018707 38.653042 35.046875 38.757812 35.046875 C 38.757812 35.69134 38.963305 36.278755 39.298828 36.775391 L 42.060547 36.775391 L 42.060547 31.955078 z M 41.871094 31.935547 C 41.871094 31.758663 41.850601 31.587701 41.820312 31.419922 C 41.848623 31.588146 41.871094 31.759095 41.871094 31.935547 z M 51.888672 27.519531 C 52.074939 27.561409 52.255761 27.617784 52.427734 27.691406 C 52.256056 27.617822 52.074609 27.561442 51.888672 27.519531 z M 31.779297 27.548828 C 31.610035 27.59089 31.446035 27.646723 31.289062 27.714844 C 31.106426 27.794592 30.935817 27.894498 30.773438 28.005859 C 30.733884 28.032921 30.698352 28.064947 30.660156 28.09375 C 30.547286 28.179037 30.439909 28.271616 30.339844 28.371094 C 30.335926 28.37499 30.332022 28.378896 30.328125 28.382812 C 29.773293 28.940502 29.423828 29.700397 29.423828 30.552734 C 29.423828 30.900856 29.50627 31.224856 29.617188 31.535156 C 29.670198 31.683375 29.717347 31.834366 29.789062 31.972656 C 30.79177 32.091394 31.641817 32.678329 32.119141 33.517578 C 32.139952 33.554084 32.170115 33.583605 32.189453 33.621094 C 32.304775 33.634024 32.41637 33.664062 32.535156 33.664062 C 32.535156 33.613174 32.548366 33.565916 32.550781 33.515625 A 3.1117518 3.1117518 0 0 0 32.542969 33.654297 A 3.1117518 3.1117518 0 0 0 35.654297 36.765625 A 3.1117518 3.1117518 0 0 0 35.789062 36.759766 L 35.789062 30.550781 A 3.1117518 3.1117518 0 0 0 35.654297 30.542969 A 3.1117518 3.1117518 0 0 0 35.644531 30.542969 C 35.644542 30.546361 35.646484 30.549339 35.646484 30.552734 C 34.253398 30.552734 33.08813 31.4742 32.691406 32.736328 L 32.691406 28.638672 C 32.482024 28.453286 32.28289 28.251868 32.103516 28.023438 C 31.982683 27.869559 31.878188 27.712043 31.779297 27.548828 z M 30.339844 28.371094 C 30.43023 28.281166 30.525988 28.197473 30.626953 28.119141 C 30.525854 28.197529 30.430349 28.281087 30.339844 28.371094 z M 31.289062 27.714844 C 31.111345 27.791967 30.945612 27.888901 30.787109 27.996094 C 30.945489 27.889 31.111468 27.791908 31.289062 27.714844 z M 52.498047 27.728516 C 52.656831 27.801406 52.812036 27.882994 52.955078 27.980469 C 52.811617 27.882467 52.657369 27.801747 52.498047 27.728516 z M 52.955078 27.980469 C 53.11944 28.092471 53.272383 28.218763 53.412109 28.359375 C 53.27275 28.218935 53.118971 28.092428 52.955078 27.980469 z M 13.953125 28.832031 C 15.6301 28.87963 16.976562 30.247057 16.976562 31.935547 C 15.502975 31.935547 14.275097 32.962454 13.953125 34.337891 L 13.953125 28.832031 z M 34.736328 29.693359 C 34.777225 29.702992 34.818242 29.710208 34.859375 29.71875 C 34.818266 29.710311 34.777208 29.702876 34.736328 29.693359 z M 48.070312 30.554688 C 46.413525 30.567215 45.076712 31.87549 44.998047 33.515625 A 3.1117518 3.1117518 0 0 0 44.990234 33.654297 A 3.1117518 3.1117518 0 0 0 48.070312 36.763672 L 48.070312 30.554688 z M 10.591797 30.568359 C 8.949282 30.653395 7.640625 32.000355 7.640625 33.664062 C 9.0287181 33.664063 10.191019 34.57897 10.591797 35.833984 L 10.591797 30.568359 z M 41.734375 31.072266 C 41.747496 31.117233 41.762329 31.161234 41.773438 31.207031 C 41.761697 31.161337 41.748139 31.117135 41.734375 31.072266 z M 7.6386719 33.664062 C 5.9210136 33.665136 4.5292969 35.05748 4.5292969 36.775391 L 7.6386719 36.775391 L 7.6386719 33.664062 z M 57.429688 33.818359 A 3.1117518 3.1117518 0 0 1 57.416016 33.962891 A 3.1117518 3.1117518 0 0 0 57.429688 33.818359 z M 57.396484 34.138672 A 3.1117518 3.1117518 0 0 1 57.369141 34.279297 A 3.1117518 3.1117518 0 0 0 57.396484 34.138672 z M 44.845703 34.181641 C 44.859531 34.228829 44.877066 34.274156 44.888672 34.322266 C 44.876604 34.274383 44.859987 34.22862 44.845703 34.181641 z M 32.398438 34.183594 C 32.410304 34.224453 32.427283 34.263153 32.4375 34.304688 C 32.426801 34.263265 32.410799 34.224336 32.398438 34.183594 z M 57.333984 34.433594 A 3.1117518 3.1117518 0 0 1 57.279297 34.617188 A 3.1117518 3.1117518 0 0 0 57.333984 34.433594 z M 32.484375 34.529297 C 32.512856 34.698505 32.535156 34.869558 32.535156 35.046875 C 32.535156 34.869225 32.514481 34.697851 32.484375 34.529297 z M 44.933594 34.541016 C 44.960885 34.70628 44.982422 34.873627 44.982422 35.046875 C 44.982422 34.87334 44.962363 34.705887 44.933594 34.541016 z M 57.246094 34.714844 A 3.1117518 3.1117518 0 0 1 57.167969 34.908203 A 3.1117518 3.1117518 0 0 0 57.246094 34.714844 z M 57.123047 35.005859 A 3.1117518 3.1117518 0 0 1 57.029297 35.183594 A 3.1117518 3.1117518 0 0 0 57.123047 35.005859 z M 56.976562 35.277344 A 3.1117518 3.1117518 0 0 1 56.841797 35.476562 A 3.1117518 3.1117518 0 0 0 56.976562 35.277344 z M 56.810547 35.519531 A 3.1117518 3.1117518 0 0 1 56.644531 35.720703 A 3.1117518 3.1117518 0 0 0 56.810547 35.519531 z M 13.126953 35.654297 C 13.100722 35.685512 13.076246 35.717894 13.048828 35.748047 C 13.076049 35.717838 13.100904 35.685558 13.126953 35.654297 z M 56.611328 35.759766 A 3.1117518 3.1117518 0 0 1 56.433594 35.935547 A 3.1117518 3.1117518 0 0 0 56.611328 35.759766 z M 12.832031 35.962891 C 12.77134 36.017748 12.707469 36.069142 12.642578 36.119141 C 12.707419 36.068646 12.771417 36.018279 12.832031 35.962891 z M 56.382812 35.982422 A 3.1117518 3.1117518 0 0 1 56.195312 36.136719 A 3.1117518 3.1117518 0 0 0 56.382812 35.982422 z M 56.146484 36.171875 A 3.1117518 3.1117518 0 0 1 55.912109 36.326172 A 3.1117518 3.1117518 0 0 0 56.146484 36.171875 z M 12.425781 36.28125 C 12.295953 36.364375 12.159599 36.438517 12.017578 36.501953 C 12.159073 36.438071 12.296559 36.364875 12.425781 36.28125 z M 55.894531 36.335938 A 3.1117518 3.1117518 0 0 1 55.669922 36.455078 A 3.1117518 3.1117518 0 0 0 55.894531 36.335938 z M 37.179688 36.361328 A 3.1117518 3.1117518 0 0 1 37.083984 36.412109 A 3.1117518 3.1117518 0 0 0 37.179688 36.361328 z M 55.599609 36.488281 A 3.1117518 3.1117518 0 0 1 55.359375 36.583984 A 3.1117518 3.1117518 0 0 0 55.599609 36.488281 z M 36.917969 36.492188 A 3.1117518 3.1117518 0 0 1 36.785156 36.546875 A 3.1117518 3.1117518 0 0 0 36.917969 36.492188 z M 11.84375 36.568359 C 11.723675 36.613535 11.601206 36.653354 11.474609 36.683594 C 11.601426 36.653053 11.723631 36.61403 11.84375 36.568359 z M 55.328125 36.595703 A 3.1117518 3.1117518 0 0 1 55.046875 36.677734 A 3.1117518 3.1117518 0 0 0 55.328125 36.595703 z M 36.636719 36.601562 A 3.1117518 3.1117518 0 0 1 36.501953 36.644531 A 3.1117518 3.1117518 0 0 0 36.636719 36.601562 z M 55.033203 36.679688 A 3.1117518 3.1117518 0 0 1 54.765625 36.730469 A 3.1117518 3.1117518 0 0 0 55.033203 36.679688 z M 36.328125 36.6875 A 3.1117518 3.1117518 0 0 1 36.175781 36.716797 A 3.1117518 3.1117518 0 0 0 36.328125 36.6875 z M 11.306641 36.720703 C 11.125969 36.753321 10.941993 36.775391 10.751953 36.775391 C 10.941898 36.775391 11.126442 36.753501 11.306641 36.720703 z M 36.048828 36.736328 A 3.1117518 3.1117518 0 0 1 35.853516 36.755859 A 3.1117518 3.1117518 0 0 0 36.048828 36.736328 z M 54.716797 36.738281 A 3.1117518 3.1117518 0 0 1 54.453125 36.759766 A 3.1117518 3.1117518 0 0 0 54.716797 36.738281 z M 23.529297 36.748047 A 3.1117518 3.1117518 0 0 1 23.330078 36.759766 A 3.1117518 3.1117518 0 0 0 23.529297 36.748047 z "
       id="path5805" />
    <path
       style="fill:#ffffff;stroke:none;stroke-width:0.1;stroke-linecap:round;stroke-linejoin:round;stroke-opacity:1;fill-opacity:0.55932206;stroke-miterlimit:4;stroke-dasharray:none"
       d="M 39.082031 19.314453 C 36.924895 19.260513 34.732095 19.930395 32.902344 21.367188 C 30.843353 22.983991 30.486712 25.964447 32.103516 28.023438 C 33.200761 29.420773 34.91575 30.028719 36.554688 29.773438 C 37.111713 29.187881 37.881017 28.824219 38.757812 28.824219 C 38.843783 28.756729 38.930068 28.693029 39.017578 28.628906 C 38.860351 28.26331 38.757812 27.862589 38.757812 27.439453 C 38.757812 25.720881 40.152522 24.328125 41.871094 24.328125 C 43.360219 24.328125 44.612118 25.372188 44.917969 26.769531 C 46.095068 26.797121 47.256831 27.034727 48.353516 27.484375 C 48.112431 25.895666 47.492925 24.3638 46.429688 23.009766 C 44.582378 20.657227 41.855487 19.383818 39.082031 19.314453 z M 38.751953 19.451172 C 39.826015 19.446472 40.247447 19.473314 40.714844 19.576172 C 41.995045 19.857895 43.167641 20.355712 44.25 21.078125 C 44.945695 21.542461 46.283627 22.884276 46.736328 23.570312 C 47.081934 24.094054 47.656938 25.197571 47.753906 25.523438 C 47.804716 25.694177 47.801775 25.693852 47.419922 25.464844 C 46.132677 24.692863 44.567645 24.085325 43.095703 23.787109 C 42.387963 23.64372 42.065172 23.623047 40.660156 23.623047 C 39.255141 23.623047 38.930397 23.643718 38.222656 23.787109 C 35.98946 24.239555 33.901823 25.250341 32.25 26.677734 L 31.654297 27.193359 L 31.554688 26.957031 C 31.143117 25.968428 31.067463 24.75456 31.359375 23.802734 C 31.722268 22.619463 32.381034 21.786709 33.578125 20.996094 C 34.494624 20.390794 35.444272 19.968884 36.541016 19.679688 C 37.33352 19.470716 37.46386 19.456841 38.751953 19.451172 z "
       id="path5847" />
    <path
       style="opacity:1;fill:#ffffff;fill-opacity:1;stroke:none;stroke-width:0.1;stroke-linecap:round;stroke-linejoin:round;stroke-miterlimit:4;stroke-dasharray:none;stroke-dashoffset:0;stroke-opacity:1"
       d="m 31.554638,26.956116 c -0.411571,-0.988603 -0.486396,-2.201996 -0.194484,-3.153822 0.362893,-1.183271 1.02061,-2.015498 2.217701,-2.806113 0.916499,-0.6053 1.866752,-1.027503 2.963496,-1.316699 0.792504,-0.208972 0.922,-0.222331 2.210093,-0.228 1.074062,-0.0047 1.496291,0.02215 1.963688,0.125008 1.280201,0.281723 2.452331,0.779902 3.53469,1.502315 0.695695,0.464336 2.034276,1.80522 2.486977,2.491256 0.345606,0.523742 0.920522,1.627405 1.01749,1.953271 0.05081,0.17074 0.04693,0.170058 -0.334923,-0.05895 -1.287245,-0.771981 -2.851109,-1.378551 -4.323051,-1.676767 -0.70774,-0.143389 -1.031487,-0.165361 -2.436503,-0.165361 -1.405015,0 -1.728762,0.02197 -2.436503,0.165361 -2.233196,0.452446 -4.321676,1.462997 -5.973499,2.89039 l -0.596397,0.515366 -0.09877,-0.23726 z"
       id="path4293"
       inkscape:connector-curvature="0" />
    <path
       style="opacity:1;fill:#ffffff;fill-opacity:0.74576271;stroke:none;stroke-width:0.69199997;stroke-linecap:round;stroke-linejoin:round;stroke-miterlimit:4;stroke-dasharray:none;stroke-dashoffset:0;stroke-opacity:1"
       d="M 29.423828 21.5625 C 29.322116 21.5625 29.226164 21.582258 29.126953 21.591797 L 29.126953 25.744141 C 29.19497 25.737538 29.262359 25.728325 29.330078 25.720703 L 29.330078 31.214844 C 29.030646 29.968016 27.982881 29.01802 26.683594 28.861328 L 26.683594 33.601562 C 27.205441 32.614914 28.229992 31.935547 29.423828 31.935547 C 29.535285 31.935547 29.63962 31.903988 29.748047 31.892578 C 29.549891 31.485955 29.423828 31.035373 29.423828 30.552734 C 29.423828 29.094712 30.425201 27.885326 31.779297 27.548828 C 31.543654 27.159921 31.373027 26.739998 31.259766 26.316406 C 30.743714 25.943134 30.107508 25.710938 29.423828 25.710938 C 30.101243 25.710938 30.724157 25.928137 31.238281 26.294922 C 30.915371 25.060283 31.116141 23.739201 31.779297 22.642578 C 31.208629 21.979152 30.367574 21.5625 29.423828 21.5625 z M 29.423828 31.935547 C 29.356903 31.935547 29.29439 31.950916 29.228516 31.955078 L 29.228516 36.775391 L 32.015625 36.775391 C 32.351148 36.278755 32.535156 35.69134 32.535156 35.046875 C 32.535156 33.328303 31.142401 31.935547 29.423828 31.935547 z M 41.871094 24.328125 C 41.866405 24.328125 41.862106 24.330057 41.857422 24.330078 L 41.857422 30.550781 C 41.862083 30.550872 41.866411 30.552734 41.871094 30.552734 C 41.871094 28.858282 43.226881 27.485656 44.912109 27.447266 L 44.912109 33.65625 C 44.935732 33.658349 44.958301 33.664062 44.982422 33.664062 C 44.982422 31.953508 46.362806 30.567599 48.070312 30.554688 L 48.070312 36.763672 A 3.1117518 3.1117518 0 0 0 48.101562 36.765625 A 3.1117518 3.1117518 0 0 0 51.212891 33.654297 A 3.1117518 3.1117518 0 0 0 48.101562 30.542969 A 3.1117518 3.1117518 0 0 0 48.09375 30.542969 C 48.088394 28.82896 46.697681 27.439453 44.982422 27.439453 C 44.982422 25.720881 43.589666 24.328125 41.871094 24.328125 z M 23.322266 24.339844 L 23.322266 30.539062 C 23.403763 30.529491 23.485136 30.51947 23.566406 30.509766 C 24.034317 29.611272 24.914227 28.98466 25.964844 28.867188 C 26.185018 28.440351 26.310547 27.95283 26.310547 27.439453 C 26.310547 25.76301 24.982521 24.405848 23.322266 24.339844 z M 17.007812 25.714844 L 17.007812 31.621094 C 17.163301 30.094765 18.409999 28.899802 19.960938 28.835938 L 19.960938 34.212891 C 19.597078 32.913141 18.421249 31.953767 17.007812 31.939453 L 17.007812 36.775391 L 19.568359 36.775391 C 19.903882 36.278755 20.087891 35.69134 20.087891 35.046875 C 20.087891 34.880239 20.064294 34.72002 20.039062 34.560547 C 20.067874 34.718863 20.087891 34.879798 20.087891 35.046875 C 20.199347 35.046875 20.303681 35.015316 20.412109 35.003906 C 20.216172 34.596391 20.087891 34.146473 20.087891 33.664062 C 20.087891 32.056587 21.311047 30.738527 22.875 30.574219 C 22.369078 29.540468 21.316376 28.824219 20.087891 28.824219 C 20.087891 27.116379 18.711574 25.732093 17.007812 25.714844 z M 51.226562 27.441406 L 51.226562 33.455078 C 51.336047 31.835876 52.669441 30.552734 54.316406 30.552734 C 54.316406 28.841515 52.934991 27.453257 51.226562 27.441406 z M 32.691406 28.638672 L 32.691406 32.736328 C 33.08813 31.4742 34.253398 30.552734 35.646484 30.552734 C 35.646484 30.299174 35.617807 30.052366 35.560547 29.816406 C 34.516987 29.757868 33.50425 29.358412 32.691406 28.638672 z M 13.953125 28.832031 L 13.953125 34.337891 C 14.275097 32.962454 15.502975 31.935547 16.976562 31.935547 C 16.976562 30.247057 15.6301 28.87963 13.953125 28.832031 z M 38.904297 28.837891 L 38.904297 34.152344 C 39.290568 32.872989 40.465742 31.935547 41.871094 31.935547 C 41.871094 30.267134 40.553385 28.91596 38.904297 28.837891 z M 23.220703 30.542969 L 23.220703 36.765625 A 3.1117518 3.1117518 0 0 0 26.318359 33.654297 A 3.1117518 3.1117518 0 0 0 23.220703 30.542969 z M 35.789062 30.548828 L 35.789062 36.761719 A 3.1117518 3.1117518 0 0 0 38.765625 33.654297 A 3.1117518 3.1117518 0 0 0 35.789062 30.548828 z M 54.421875 30.548828 L 54.421875 36.761719 A 3.1117518 3.1117518 0 0 0 57.435547 33.654297 A 3.1117518 3.1117518 0 0 0 54.421875 30.548828 z M 10.751953 30.552734 C 10.697088 30.552734 10.645964 30.565554 10.591797 30.568359 L 10.591797 35.833984 C 10.191019 34.57897 9.0287181 33.664063 7.640625 33.664062 L 7.6386719 33.664062 L 7.6386719 36.775391 L 10.751953 36.775391 C 10.751953 36.602712 10.728212 36.436502 10.701172 36.271484 C 10.731769 36.435157 10.751953 36.602376 10.751953 36.775391 C 12.470526 36.775391 13.865234 35.382635 13.865234 33.664062 C 13.865234 31.94549 12.470526 30.552734 10.751953 30.552734 z M 42.060547 31.955078 L 42.060547 36.775391 L 44.462891 36.775391 C 44.798414 36.278755 44.982422 35.69134 44.982422 35.046875 C 44.982422 33.39324 43.689054 32.054916 42.060547 31.955078 z "
       id="rect4303" />
    <path
       style="fill:#ffffff;stroke:none;stroke-width:0.69150043;stroke-linecap:round;stroke-linejoin:round;stroke-opacity:1;fill-opacity:0.51271188"
       d="m 4.6371427,39.087783 c 0,2.673334 2.1671692,4.840503 4.8405028,4.840503 l 44.6233855,0 c 0.07976,0 0.158893,0.0041 0.237704,0 2.562838,-0.124021 4.602799,-2.246927 4.602799,-4.840503 l -9.681006,0 -34.94238,0 -9.6810053,0 z"
       id="path4512"
       inkscape:connector-curvature="0" />
  </g>
</svg>
