<?xml version="1.0" encoding="UTF-8" standalone="no"?>
<!-- Created with Inkscape (http://www.inkscape.org/) -->

<svg
   xmlns:dc="http://purl.org/dc/elements/1.1/"
   xmlns:cc="http://creativecommons.org/ns#"
   xmlns:rdf="http://www.w3.org/1999/02/22-rdf-syntax-ns#"
   xmlns:svg="http://www.w3.org/2000/svg"
   xmlns="http://www.w3.org/2000/svg"
   xmlns:xlink="http://www.w3.org/1999/xlink"
   xmlns:sodipodi="http://sodipodi.sourceforge.net/DTD/sodipodi-0.dtd"
   xmlns:inkscape="http://www.inkscape.org/namespaces/inkscape"
   width="64"
   height="64"
   id="svg4684"
   version="1.1"
   inkscape:version="0.91 r13725"
   viewBox="0 0 64 64"
   sodipodi:docname="plat_principal-couleur.svg">
  <defs
     id="defs4686">
    <linearGradient
       inkscape:collect="always"
       id="linearGradient4236">
      <stop
         style="stop-color:#ffffff;stop-opacity:1;"
         offset="0"
         id="stop4238" />
      <stop
         style="stop-color:#ffffff;stop-opacity:0;"
         offset="1"
         id="stop4240" />
    </linearGradient>
    <linearGradient
       inkscape:collect="always"
       id="linearGradient4226">
      <stop
         style="stop-color:#ffffff;stop-opacity:1;"
         offset="0"
         id="stop4228" />
      <stop
         style="stop-color:#ffffff;stop-opacity:0;"
         offset="1"
         id="stop4230" />
    </linearGradient>
    <linearGradient
       inkscape:collect="always"
       id="linearGradient4604">
      <stop
         style="stop-color:#ffffff;stop-opacity:1;"
         offset="0"
         id="stop4606" />
      <stop
         style="stop-color:#ffffff;stop-opacity:0;"
         offset="1"
         id="stop4608" />
    </linearGradient>
    <inkscape:path-effect
       is_visible="true"
       id="path-effect5881"
       effect="spiro" />
    <inkscape:path-effect
       effect="spiro"
       id="path-effect3941-8"
       is_visible="true" />
    <inkscape:path-effect
       effect="spiro"
       id="path-effect3941-8-2"
       is_visible="true" />
    <inkscape:path-effect
       effect="spiro"
       id="path-effect4730-1"
       is_visible="true" />
    <inkscape:path-effect
       is_visible="true"
       id="path-effect4734-3"
       effect="spiro" />
    <inkscape:path-effect
       effect="spiro"
       id="path-effect4738-9"
       is_visible="true" />
    <inkscape:path-effect
       is_visible="true"
       id="path-effect4761-6"
       effect="spiro" />
    <inkscape:path-effect
       effect="spiro"
       id="path-effect4763-7"
       is_visible="true" />
    <inkscape:path-effect
       is_visible="true"
       id="path-effect4765-6"
       effect="spiro" />
    <linearGradient
       inkscape:collect="always"
       xlink:href="#linearGradient4604"
       id="linearGradient4614"
       x1="28.484314"
       y1="3.641551"
       x2="27.898438"
       y2="22.714844"
       gradientUnits="userSpaceOnUse" />
    <linearGradient
       inkscape:collect="always"
       xlink:href="#linearGradient4226"
       id="linearGradient4232"
       x1="20.933937"
       y1="47.317039"
       x2="56.367579"
       y2="47.178963"
       gradientUnits="userSpaceOnUse" />
    <linearGradient
       inkscape:collect="always"
       xlink:href="#linearGradient4236"
       id="linearGradient4242"
       x1="46.517769"
       y1="43.125389"
       x2="56.368561"
       y2="43.125388"
       gradientUnits="userSpaceOnUse" />
  </defs>
  <sodipodi:namedview
     id="base"
     pagecolor="#ffffff"
     bordercolor="#666666"
     borderopacity="1.0"
     inkscape:pageopacity="0.0"
     inkscape:pageshadow="2"
     inkscape:zoom="5.121079"
     inkscape:cx="32.089142"
     inkscape:cy="31.41196"
     inkscape:current-layer="layer1"
     showgrid="true"
     inkscape:document-units="px"
     inkscape:grid-bbox="true"
     inkscape:snap-page="true"
     inkscape:object-nodes="true"
     inkscape:object-paths="true"
     inkscape:snap-bbox="true"
     inkscape:bbox-nodes="true"
     inkscape:snap-object-midpoints="true"
     inkscape:snap-global="false"
     showguides="true"
     inkscape:window-width="1470"
     inkscape:window-height="841"
     inkscape:window-x="-8"
     inkscape:window-y="-8"
     inkscape:window-maximized="1"
     inkscape:snap-smooth-nodes="true" />
  <metadata
     id="metadata4689">
    <rdf:RDF>
      <cc:Work
         rdf:about="">
        <dc:format>image/svg+xml</dc:format>
        <dc:type
           rdf:resource="http://purl.org/dc/dcmitype/StillImage" />
        <dc:title></dc:title>
      </cc:Work>
    </rdf:RDF>
  </metadata>
  <g
     id="layer1"
     inkscape:label="Layer 1"
     inkscape:groupmode="layer">
    <path
       style="color:#000000;font-style:normal;font-variant:normal;font-weight:normal;font-stretch:normal;font-size:medium;line-height:normal;font-family:sans-serif;text-indent:0;text-align:start;text-decoration:none;text-decoration-line:none;text-decoration-style:solid;text-decoration-color:#000000;letter-spacing:normal;word-spacing:normal;text-transform:none;direction:ltr;block-progression:tb;writing-mode:lr-tb;baseline-shift:baseline;text-anchor:start;white-space:normal;clip-rule:nonzero;display:inline;overflow:visible;visibility:visible;opacity:1;isolation:auto;mix-blend-mode:normal;color-interpolation:sRGB;color-interpolation-filters:linearRGB;solid-color:#000000;solid-opacity:1;fill:url(#linearGradient4614);fill-opacity:1;fill-rule:nonzero;stroke:none;stroke-width:0.67299998;stroke-linecap:square;stroke-linejoin:round;stroke-miterlimit:4;stroke-dasharray:none;stroke-dashoffset:0;stroke-opacity:1;color-rendering:auto;image-rendering:auto;shape-rendering:auto;text-rendering:auto;enable-background:accumulate"
       d="M 26.037109 8.0351562 L 25.853516 8.3183594 C 24.763347 9.9896191 24.456689 12.13132 25.035156 14.041016 C 25.209184 14.615461 25.450605 15.147439 25.664062 15.667969 C 26.008823 16.508612 26.299221 17.361382 26.423828 18.232422 C 26.548195 19.101781 26.501308 19.996154 26.199219 20.791016 C 26.029006 21.238863 25.777125 21.657606 25.460938 22.017578 L 25.238281 22.271484 L 25.744141 22.714844 L 25.966797 22.462891 C 26.336472 22.042026 26.629117 21.554861 26.828125 21.03125 C 27.181191 20.102262 27.226635 19.094879 27.089844 18.138672 C 26.953292 17.184136 26.642111 16.277723 26.287109 15.412109 C 26.067459 14.876477 25.836631 14.36376 25.679688 13.845703 C 25.161266 12.134239 25.439005 10.183332 26.416016 8.6855469 L 26.599609 8.4042969 L 26.037109 8.0351562 z M 28.191406 8.0351562 L 28.007812 8.3183594 C 26.917641 9.9896236 26.611046 12.13133 27.189453 14.041016 C 27.363481 14.615461 27.604902 15.147439 27.818359 15.667969 C 28.163121 16.508611 28.453518 17.361382 28.578125 18.232422 C 28.702493 19.10178 28.655605 19.996153 28.353516 20.791016 C 28.183303 21.238863 27.931423 21.657606 27.615234 22.017578 L 27.394531 22.271484 L 27.898438 22.714844 L 28.121094 22.462891 C 28.490769 22.042026 28.783414 21.554861 28.982422 21.03125 C 29.335487 20.102262 29.380933 19.09488 29.244141 18.138672 C 29.107589 17.184136 28.796409 16.277723 28.441406 15.412109 C 28.221755 14.876477 27.990929 14.36376 27.833984 13.845703 C 27.315612 12.134229 27.593304 10.183328 28.570312 8.6855469 L 28.755859 8.4042969 L 28.191406 8.0351562 z M 30.345703 8.0351562 L 30.162109 8.3183594 C 29.071938 9.9896236 28.765343 12.13133 29.34375 14.041016 C 29.517777 14.615461 29.759199 15.147439 29.972656 15.667969 C 30.317418 16.508611 30.607815 17.361382 30.732422 18.232422 C 30.85679 19.10178 30.809902 19.996153 30.507812 20.791016 L 30.388672 21.107422 L 31.017578 21.345703 L 31.138672 21.03125 C 31.491737 20.102262 31.535229 19.09488 31.398438 18.138672 C 31.261885 17.184136 30.950706 16.277723 30.595703 15.412109 C 30.376052 14.876477 30.145226 14.36376 29.988281 13.845703 C 29.469908 12.134229 29.749554 10.183328 30.726562 8.6855469 L 30.910156 8.4042969 L 30.345703 8.0351562 z "
       id="path5863" />
    <path
       id="path5869"
       d="m 43.594683,27.315875 c -0.724704,0.06968 -1.384172,0.558851 -1.616079,1.29623 -0.143293,0.455568 -0.08177,0.925879 0.101005,1.329899 l -4.040198,2.373616 c 0.04525,0.06786 0.09212,0.131376 0.134673,0.20201 0.214723,0.356604 0.384519,0.714032 0.505025,1.09422 l 4.528361,-2.659797 1.430931,0.454522 c 0.983168,0.309248 2.030711,-0.245719 2.33992,-1.228893 0.309264,-0.983174 -0.22889,-2.0307 -1.212059,-2.339948 l -1.430876,-0.454522 c -0.245806,-0.07731 -0.499153,-0.09056 -0.740703,-0.06734 z"
       style="fill:#ffe8d2;stroke:none;stroke-width:0.67336625;stroke-linecap:round;stroke-linejoin:round;stroke-miterlimit:4;stroke-dasharray:none;stroke-opacity:1;fill-opacity:1;opacity:1"
       inkscape:connector-curvature="0" />
    <path
       style="fill:#9d4f04;stroke:none;stroke-width:0.67336625;stroke-linecap:round;stroke-linejoin:round;stroke-miterlimit:4;stroke-dasharray:none;stroke-opacity:1;fill-opacity:1;opacity:1"
       d="M 39.667969 29.873047 C 39.634749 30.4262 39.560599 30.971951 39.423828 31.501953 L 40.488281 30.875 C 40.239983 30.528452 39.961791 30.197148 39.667969 29.873047 z M 33.544922 30.009766 C 32.716897 30.045156 31.881836 30.29189 31.121094 30.75 L 27.585938 32.888672 C 25.151637 34.354617 24.352414 37.524652 25.818359 39.958984 C 25.966852 40.205577 26.135192 40.431587 26.316406 40.642578 C 25.905977 40.682644 25.492262 40.712831 25.072266 40.728516 C 24.809492 40.738316 24.54731 40.728516 24.28125 40.728516 C 21.987756 40.728516 19.827026 40.339933 17.873047 39.677734 L 17.873047 38.257812 L 21.810547 35.144531 C 22.518605 34.583509 22.641127 33.546008 22.080078 32.837891 C 21.729389 32.395317 21.189626 32.192623 20.666016 32.232422 C 20.35185 32.256282 20.038958 32.357978 19.773438 32.568359 L 14.605469 36.675781 L 14.605469 38.179688 C 13.402289 37.459662 12.33078 36.624895 11.466797 35.671875 C 11.456697 35.840682 11.433594 36.007109 11.433594 36.177734 C 11.433594 38.308313 12.237407 40.295767 13.621094 42.001953 L 40.085938 42.001953 C 40.161138 41.909193 40.232934 41.811203 40.304688 41.716797 C 40.169961 41.633777 40.021651 41.551756 39.900391 41.447266 C 39.853521 41.406976 39.809911 41.373446 39.765625 41.330078 C 39.757025 41.322278 39.756127 41.32048 39.748047 41.3125 C 39.481394 41.05912 39.249796 40.742736 39.091797 40.386719 C 38.437285 38.911713 39.133187 37.179115 40.623047 36.53125 L 42.189453 35.857422 C 42.197553 35.791092 42.195751 35.722245 42.207031 35.65625 C 42.215131 35.61267 42.230534 35.56517 42.240234 35.521484 C 42.146664 34.321561 41.804668 33.175729 41.246094 32.103516 L 38.669922 33.619141 C 38.668861 33.615794 38.667167 33.612689 38.666016 33.609375 C 38.545731 33.235546 38.385281 32.868714 38.173828 32.517578 C 38.13177 32.447736 38.079916 32.387485 38.035156 32.320312 C 37.906681 32.127503 37.767857 31.945906 37.619141 31.775391 C 37.321708 31.434359 36.985972 31.139338 36.623047 30.892578 C 36.444735 30.77134 36.258768 30.661711 36.068359 30.564453 C 36.064982 30.562744 36.061975 30.560295 36.058594 30.558594 C 36.038264 30.548266 36.016545 30.5413 35.996094 30.53125 C 35.826644 30.447984 35.653423 30.372461 35.476562 30.308594 C 35.425196 30.290251 35.372204 30.276455 35.320312 30.259766 C 35.163014 30.208612 35.00518 30.160592 34.84375 30.125 C 34.841767 30.124568 34.839875 30.123477 34.837891 30.123047 C 34.635645 30.078714 34.431279 30.046587 34.224609 30.027344 C 34.223962 30.027284 34.223304 30.027403 34.222656 30.027344 C 33.997781 30.006732 33.77198 30.000063 33.544922 30.009766 z M 32.765625 30.507812 C 34.198532 30.44658 35.615459 31.164048 36.408203 32.480469 C 37.457849 34.223498 37.039103 36.423255 35.513672 37.675781 C 35.293856 37.889964 35.05515 38.088962 34.78125 38.253906 L 32 39.935547 C 31.401617 40.295885 30.745056 40.489738 30.09375 40.517578 C 28.660843 40.57881 27.243916 39.861343 26.451172 38.544922 C 25.401526 36.801892 25.820272 34.602136 27.345703 33.349609 C 27.565519 33.135427 27.804225 32.936428 28.078125 32.771484 L 30.859375 31.089844 C 31.457758 30.729506 32.114319 30.535653 32.765625 30.507812 z M 20.050781 32.921875 C 20.355715 32.898697 20.668816 33.015695 20.873047 33.273438 C 21.199785 33.685823 21.12915 34.290466 20.716797 34.617188 L 16.751953 37.716797 L 16.751953 40.333984 C 16.751953 40.699686 16.544048 41.015673 16.242188 41.177734 L 15.359375 41.177734 C 15.057483 41.015673 14.849609 40.699686 14.849609 40.333984 L 14.849609 36.794922 L 19.53125 33.117188 C 19.685882 32.994663 19.86782 32.935775 20.050781 32.921875 z "
       id="path5877" />
    <path
       style="fill:#dc893a;stroke:none;stroke-width:0.67336625;stroke-linecap:round;stroke-linejoin:round;stroke-miterlimit:4;stroke-dasharray:none;stroke-opacity:1;fill-opacity:1;opacity:1"
       d="M 26.0625 24.814453 C 18.145598 25.110114 11.816679 29.823511 11.466797 35.671875 C 12.33078 36.624895 13.402289 37.459662 14.605469 38.179688 L 14.605469 36.675781 L 19.773438 32.568359 C 20.038958 32.357978 20.35185 32.256282 20.666016 32.232422 C 21.189626 32.192623 21.729389 32.395317 22.080078 32.837891 C 22.641127 33.546008 22.518605 34.583509 21.810547 35.144531 L 17.873047 38.257812 L 17.873047 39.677734 C 19.827026 40.339933 21.987756 40.728516 24.28125 40.728516 C 24.54731 40.728516 24.809492 40.738316 25.072266 40.728516 C 25.492262 40.712831 25.905977 40.682644 26.316406 40.642578 C 26.135192 40.431587 25.966852 40.205577 25.818359 39.958984 C 24.352414 37.524652 25.151637 34.354617 27.585938 32.888672 L 31.121094 30.75 C 31.881836 30.29189 32.716897 30.045156 33.544922 30.009766 C 35.290598 29.935168 37.007352 30.777839 38.035156 32.320312 L 39.423828 31.501953 C 39.560599 30.971951 39.634749 30.4262 39.667969 29.873047 C 36.903774 26.823992 32.201707 24.814453 26.853516 24.814453 C 26.587456 24.814453 26.325274 24.804653 26.0625 24.814453 z M 25.28125 25.59375 C 25.467919 25.58685 25.652798 25.59375 25.841797 25.59375 C 29.841859 25.59375 34.116692 26.392806 36.808594 28.65625 C 28.810979 26.784434 16.472472 27.285583 13.203125 34.9375 C 13.160015 34.647994 13.130859 34.354788 13.130859 34.056641 C 13.130859 29.736234 19.49506 25.809839 25.28125 25.59375 z M 32.765625 30.507812 C 32.114319 30.535653 31.457758 30.729506 30.859375 31.089844 L 28.078125 32.771484 C 27.804225 32.936428 27.565519 33.135427 27.345703 33.349609 C 25.820272 34.602136 25.401526 36.801892 26.451172 38.544922 C 27.243916 39.861343 28.660843 40.57881 30.09375 40.517578 C 30.745056 40.489738 31.401617 40.295885 32 39.935547 L 34.78125 38.253906 C 35.05515 38.088962 35.293856 37.889964 35.513672 37.675781 C 37.039103 36.423255 37.457849 34.223498 36.408203 32.480469 C 35.615459 31.164048 34.198532 30.44658 32.765625 30.507812 z M 32.611328 31.007812 C 32.960864 30.982047 33.312061 31.145374 33.515625 31.460938 C 33.785157 31.878766 33.699086 32.418882 33.335938 32.736328 C 33.283862 32.790304 33.227759 32.840452 33.162109 32.882812 L 28.787109 35.611328 C 28.643669 35.703852 28.485048 35.755868 28.326172 35.767578 C 27.976638 35.793345 27.625438 35.630016 27.421875 35.314453 C 27.152343 34.896624 27.238415 34.354555 27.601562 34.037109 C 27.65364 33.983133 27.709741 33.932985 27.775391 33.890625 L 32.148438 31.164062 C 32.291877 31.071538 32.452452 31.019523 32.611328 31.007812 z M 20.050781 32.921875 C 19.86782 32.935775 19.685882 32.994663 19.53125 33.117188 L 14.849609 36.794922 L 14.849609 40.333984 C 14.849609 40.699686 15.057483 41.015673 15.359375 41.177734 L 16.242188 41.177734 C 16.544048 41.015673 16.751953 40.699686 16.751953 40.333984 L 16.751953 37.716797 L 20.716797 34.617188 C 21.12915 34.290466 21.199785 33.685823 20.873047 33.273438 C 20.668816 33.015695 20.355715 32.898697 20.050781 32.921875 z M 19.783203 33.337891 C 19.897545 33.312976 20.021416 33.350544 20.103516 33.445312 C 20.212215 33.570797 20.208675 33.754975 20.103516 33.876953 C 20.088826 33.897243 20.072454 33.916514 20.052734 33.933594 L 15.876953 37.160156 C 15.833874 37.197476 15.782439 37.223055 15.730469 37.234375 C 15.616127 37.259291 15.492256 37.221723 15.410156 37.126953 C 15.301457 37.00147 15.304997 36.817293 15.410156 36.695312 C 15.424846 36.675024 15.441217 36.655752 15.460938 36.638672 L 19.636719 33.412109 C 19.679797 33.374789 19.731233 33.349221 19.783203 33.337891 z "
       id="path5859" />
    <rect
       y="41.997696"
       x="7.3945045"
       height="2.2553844"
       width="48.974056"
       id="rect5885"
       style="fill:#fdbd80;stroke:none;stroke-width:0.67336637;stroke-linecap:round;stroke-linejoin:round;stroke-miterlimit:4;stroke-dasharray:none;stroke-opacity:1;fill-opacity:1;opacity:1" />
    <path
       id="path5887"
       d="m 7.402323,44.244567 c 0,3.241246 2.627583,5.868791 5.868791,5.868791 l 37.227674,0 c 3.241262,0 5.868791,-2.627545 5.868791,-5.868791 l -11.737582,0 -25.490092,0 -11.737582,0 z"
       style="fill:#febe80;stroke:none;stroke-width:0.67336637;stroke-linecap:round;stroke-linejoin:round;stroke-miterlimit:4;stroke-dasharray:none;stroke-opacity:1;fill-opacity:1;opacity:1"
       inkscape:connector-curvature="0" />
    <path
       style="fill:#3ca953;stroke:none;stroke-width:0.67336625;stroke-linecap:round;stroke-linejoin:round;stroke-miterlimit:4;stroke-dasharray:none;stroke-opacity:1;fill-opacity:1;opacity:1"
       d="M 44.939453 33.232422 C 44.089773 33.282572 43.270576 33.690737 42.732422 34.423828 C 42.501484 34.738393 42.336568 35.089602 42.25 35.445312 C 42.2446 35.456463 42.25 35.463459 42.25 35.474609 C 42.23438 35.534349 42.222788 35.595992 42.210938 35.65625 C 42.198008 35.72225 42.189721 35.789134 42.181641 35.855469 L 40.619141 36.533203 C 39.129008 37.181068 38.443144 38.903899 39.097656 40.378906 C 39.255655 40.734922 39.475535 41.051307 39.742188 41.304688 C 39.750287 41.312688 39.762864 41.316409 39.771484 41.324219 C 39.815654 41.367579 39.859547 41.408948 39.90625 41.449219 C 40.193523 41.696825 40.525646 41.876707 40.878906 41.998047 L 42.705078 41.998047 C 42.80713 41.965518 42.912129 41.949551 43.011719 41.90625 L 43.541016 41.677734 C 43.458216 41.598184 43.382193 41.517618 43.310547 41.429688 C 42.921503 40.952126 42.703456 40.365904 42.673828 39.75 C 42.670808 39.71574 42.669867 39.682068 42.667969 39.648438 C 42.671914 39.681359 42.676016 39.713495 42.677734 39.746094 C 42.707364 40.361998 42.927362 40.952126 43.316406 41.429688 C 43.495037 41.648907 43.712626 41.839554 43.957031 42.001953 L 50.320312 42.001953 C 50.398584 41.874973 50.462174 41.741285 50.521484 41.599609 C 50.585597 41.446484 50.626773 41.290469 50.662109 41.134766 C 50.644516 41.210885 50.632953 41.287374 50.609375 41.363281 L 51.121094 41.572266 C 52.62464 42.189 54.35351 41.486336 54.976562 39.998047 C 55.126965 39.63883 55.18913 39.276047 55.189453 38.910156 C 55.189507 38.898686 55.189453 38.882614 55.189453 38.871094 C 55.189453 38.808744 55.194853 38.75335 55.189453 38.691406 C 55.184053 38.618786 55.180712 38.542484 55.169922 38.470703 C 55.102912 37.934688 54.895235 37.42243 54.552734 37.001953 C 54.254783 36.636191 53.856567 36.335306 53.386719 36.142578 L 51.197266 35.253906 C 50.82142 35.099721 50.434384 35.032738 50.050781 35.035156 C 49.642726 35.037745 49.242907 35.127415 48.875 35.287109 C 48.884374 35.283048 48.892928 35.277403 48.902344 35.273438 C 48.856554 35.236317 48.816164 35.195086 48.767578 35.160156 L 46.849609 33.785156 C 46.273584 33.370831 45.600267 33.193394 44.939453 33.232422 z M 45.111328 33.6875 C 45.576425 33.696131 46.044045 33.838483 46.455078 34.126953 L 48.441406 35.521484 C 48.294908 35.616216 48.156673 35.724783 48.029297 35.845703 C 47.90192 35.966623 47.785401 36.099897 47.679688 36.244141 L 46.619141 35.5 C 45.3644 34.619402 43.718962 34.75451 42.619141 35.722656 C 42.685166 35.413704 42.812345 35.111669 43.005859 34.835938 L 43.087891 34.716797 C 43.568674 34.031741 44.336166 33.673116 45.111328 33.6875 z M 50.230469 35.402344 C 50.454707 35.403494 50.682549 35.448981 50.902344 35.542969 L 52.933594 36.410156 C 53.58587 36.689079 53.975447 37.317719 53.980469 37.982422 C 53.830476 37.871162 53.669803 37.770146 53.490234 37.693359 L 50.644531 36.476562 C 49.958054 36.183014 49.220369 36.240732 48.605469 36.552734 C 48.617496 36.519057 48.622461 36.484513 48.636719 36.451172 C 48.918682 35.791787 49.557754 35.398893 50.230469 35.402344 z M 42.166016 36.054688 C 42.139745 36.531131 42.22566 37.006027 42.433594 37.439453 C 42.450862 37.475469 42.47699 37.507712 42.496094 37.542969 L 41.291016 38.097656 C 40.280278 38.56228 39.6916 39.553437 39.6875 40.59375 C 39.630413 40.500417 39.568354 40.412514 39.521484 40.310547 C 38.882488 38.920482 39.486888 37.287433 40.876953 36.648438 L 42.166016 36.054688 z M 45.652344 36.634766 C 45.664654 36.634925 45.677132 36.638359 45.689453 36.638672 C 45.736174 36.639859 45.783245 36.650878 45.830078 36.654297 C 45.772122 36.650289 45.713647 36.639497 45.65625 36.638672 C 45.655604 36.638667 45.654943 36.63868 45.654297 36.638672 C 45.472219 36.636352 45.290619 36.647404 45.113281 36.677734 C 45.289978 36.647604 45.470902 36.632418 45.652344 36.634766 z M 45.337891 36.996094 C 45.561606 36.980745 45.793418 37.008374 46.019531 37.085938 L 48.109375 37.802734 C 48.834497 38.051472 49.277019 38.729963 49.267578 39.455078 C 49.140591 39.384482 49.007971 39.319814 48.865234 39.271484 L 45.935547 38.279297 C 45.161782 38.017306 44.35407 38.171081 43.742188 38.615234 C 43.751627 38.463196 43.774238 38.309601 43.826172 38.158203 C 44.058862 37.479862 44.666745 37.042141 45.337891 36.996094 z M 50.740234 40.402344 C 50.74147 40.426365 50.744571 40.449535 50.744141 40.474609 C 50.744141 40.486079 50.744248 40.502202 50.744141 40.513672 C 50.744014 40.680633 50.722625 40.847387 50.691406 41.013672 C 50.722035 40.84427 50.740085 40.673229 50.740234 40.503906 C 50.740288 40.492436 50.740234 40.482183 50.740234 40.470703 C 50.740234 40.447732 50.739579 40.425043 50.740234 40.402344 z "
       id="path5889" />
    <path
       style="fill:#febe80;fill-opacity:1;stroke:none;stroke-width:0.67336625;stroke-linecap:round;stroke-linejoin:round;stroke-miterlimit:4;stroke-dasharray:none;stroke-opacity:1;opacity:1"
       d="M 25.28125 25.59375 C 19.49506 25.809839 13.130859 29.736234 13.130859 34.056641 C 13.130859 34.354788 13.160015 34.647994 13.203125 34.9375 C 16.472472 27.285583 28.810979 26.784434 36.808594 28.65625 C 34.116692 26.392806 29.841859 25.59375 25.841797 25.59375 C 25.652798 25.59375 25.467919 25.58685 25.28125 25.59375 z M 32.611328 31.007812 C 32.452452 31.019523 32.291877 31.071537 32.148438 31.164062 L 27.775391 33.890625 C 27.709741 33.932985 27.65364 33.983133 27.601562 34.037109 C 27.238415 34.354555 27.152343 34.896624 27.421875 35.314453 C 27.625438 35.630016 27.976638 35.793345 28.326172 35.767578 C 28.485048 35.755868 28.643669 35.703852 28.787109 35.611328 L 33.162109 32.882812 C 33.227759 32.840452 33.283863 32.790304 33.335938 32.736328 C 33.699086 32.418882 33.785157 31.878766 33.515625 31.460938 C 33.312061 31.145374 32.960864 30.982047 32.611328 31.007812 z M 19.783203 33.337891 C 19.731233 33.349221 19.679797 33.374789 19.636719 33.412109 L 15.460938 36.638672 C 15.441218 36.655752 15.424846 36.675023 15.410156 36.695312 C 15.304997 36.817292 15.301457 37.00147 15.410156 37.126953 C 15.492256 37.221723 15.616127 37.259291 15.730469 37.234375 C 15.782439 37.223055 15.833874 37.197476 15.876953 37.160156 L 20.052734 33.933594 C 20.072454 33.916514 20.088826 33.897243 20.103516 33.876953 C 20.208675 33.754975 20.212215 33.570796 20.103516 33.445312 C 20.021416 33.350543 19.897545 33.312976 19.783203 33.337891 z "
       id="path4476" />
    <ellipse
       style="opacity:1;fill:#ffffff;fill-opacity:1;stroke:none;stroke-width:0.67299998;stroke-linecap:square;stroke-linejoin:bevel;stroke-miterlimit:4;stroke-dasharray:none;stroke-dashoffset:0;stroke-opacity:1"
       id="path4500"
       cx="43.691967"
       cy="29.02202"
       rx="1.1716281"
       ry="1.1960371" />
    <path
       style="opacity:1;fill:#ffffff;fill-opacity:1;stroke:none;stroke-width:0.67299998;stroke-linecap:square;stroke-linejoin:bevel;stroke-miterlimit:4;stroke-dasharray:none;stroke-dashoffset:0;stroke-opacity:1"
       d="m 45.551229,28.434228 a 1.1960371,1.1716281 84.928644 0 0 -0.137262,0.02202 1.6109886,1.5781113 84.928644 0 1 0.114286,0.470254 1.6109886,1.5781113 84.928644 0 1 -0.731059,1.506066 1.1960371,1.1716281 84.928644 0 0 0.965539,0.384906 1.1960371,1.1716281 84.928644 0 0 1.061453,-1.296167 1.1960371,1.1716281 84.928644 0 0 -1.272949,-1.087045 z"
       id="ellipse4502"
       inkscape:connector-curvature="0"
       inkscape:transform-center-x="-2.1945528"
       inkscape:transform-center-y="0.60316192" />
    <rect
       style="opacity:1;fill:#ffffff;fill-opacity:1;stroke:none;stroke-width:0.67299998;stroke-linecap:square;stroke-linejoin:bevel;stroke-miterlimit:4;stroke-dasharray:none;stroke-dashoffset:0;stroke-opacity:1"
       id="rect4507"
       width="0.53699619"
       height="4.6376944"
       x="47.311222"
       y="-21.111895"
       transform="matrix(0.50638725,0.86230618,-0.86230618,0.50638725,0,0)" />
    <path
       style="opacity:1;fill:#93d0a0;fill-opacity:1;stroke:none;stroke-width:0.67299998;stroke-linecap:square;stroke-linejoin:bevel;stroke-miterlimit:4;stroke-dasharray:none;stroke-dashoffset:0;stroke-opacity:1"
       d="M 45.111328 33.6875 C 44.336166 33.673116 43.568674 34.031741 43.087891 34.716797 L 43.005859 34.835938 C 42.812345 35.111669 42.685166 35.413704 42.619141 35.722656 C 43.718962 34.75451 45.3644 34.619402 46.619141 35.5 L 47.679688 36.244141 C 47.891114 35.955654 48.148409 35.710948 48.441406 35.521484 L 46.455078 34.126953 C 46.044045 33.838483 45.576425 33.696131 45.111328 33.6875 z M 50.230469 35.402344 C 49.557754 35.398893 48.918682 35.791787 48.636719 36.451172 C 48.622461 36.484513 48.617496 36.519057 48.605469 36.552734 C 49.220369 36.240732 49.958054 36.183014 50.644531 36.476562 L 53.490234 37.693359 C 53.669803 37.770146 53.830476 37.871162 53.980469 37.982422 C 53.975447 37.317719 53.58587 36.689079 52.933594 36.410156 L 50.902344 35.542969 C 50.682549 35.448981 50.454707 35.403494 50.230469 35.402344 z M 42.166016 36.054688 L 40.876953 36.648438 C 39.486888 37.287433 38.882488 38.920482 39.521484 40.310547 C 39.568354 40.412514 39.630413 40.500417 39.6875 40.59375 C 39.6916 39.553437 40.280278 38.56228 41.291016 38.097656 L 42.496094 37.542969 C 42.47699 37.507712 42.450862 37.475469 42.433594 37.439453 C 42.22566 37.006027 42.139745 36.531131 42.166016 36.054688 z M 45.652344 36.634766 C 45.470902 36.632418 45.289978 36.647604 45.113281 36.677734 C 45.290619 36.647404 45.472219 36.636352 45.654297 36.638672 C 45.665934 36.638812 45.67751 36.638522 45.689453 36.638672 C 45.677132 36.638359 45.664654 36.634925 45.652344 36.634766 z M 46.183594 36.691406 C 46.190718 36.692842 46.198044 36.693894 46.205078 36.695312 C 46.197843 36.693841 46.190832 36.692823 46.183594 36.691406 z M 45.337891 36.996094 C 44.666745 37.042141 44.058862 37.479862 43.826172 38.158203 C 43.774238 38.309601 43.751627 38.463196 43.742188 38.615234 C 44.35407 38.171081 45.161782 38.017306 45.935547 38.279297 L 48.865234 39.271484 C 49.007971 39.319814 49.140591 39.384482 49.267578 39.455078 C 49.277019 38.729963 48.834497 38.051472 48.109375 37.802734 L 46.019531 37.085938 C 45.793418 37.008374 45.561606 36.980745 45.337891 36.996094 z "
       id="rect4515" />
    <path
       style="opacity:0.33200001;fill:#000000;fill-opacity:1;stroke:none;stroke-width:0.67299998;stroke-linecap:square;stroke-linejoin:bevel;stroke-miterlimit:4;stroke-dasharray:none;stroke-dashoffset:0;stroke-opacity:1"
       d="M 46.404297 28.121094 L 46.353516 28.154297 C 46.944642 28.619931 47.218182 29.415816 46.978516 30.177734 C 46.669307 31.160908 45.62184 31.715498 44.638672 31.40625 L 43.207031 30.951172 L 41.246094 32.103516 C 41.489164 32.570106 41.683567 33.054148 41.841797 33.546875 C 41.865231 33.619823 41.896455 33.690189 41.917969 33.763672 C 42.001365 34.04883 42.069183 34.339959 42.123047 34.632812 C 42.176995 34.925728 42.216842 35.221504 42.240234 35.521484 C 42.243771 35.505923 42.245975 35.490005 42.25 35.474609 C 42.25 35.463459 42.2446 35.456463 42.25 35.445312 C 42.336568 35.089602 42.501484 34.738393 42.732422 34.423828 C 43.270576 33.690737 44.089773 33.282572 44.939453 33.232422 C 45.600267 33.193394 46.273584 33.370831 46.849609 33.785156 L 48.767578 35.160156 C 48.816164 35.195086 48.856554 35.236317 48.902344 35.273438 C 48.892928 35.277403 48.884374 35.283048 48.875 35.287109 C 49.242907 35.127415 49.642726 35.037745 50.050781 35.035156 C 50.434384 35.032738 50.82142 35.099721 51.197266 35.253906 L 53.386719 36.142578 C 53.856567 36.335306 54.254783 36.636191 54.552734 37.001953 C 54.895235 37.42243 55.102912 37.934688 55.169922 38.470703 C 55.180712 38.542484 55.184053 38.618786 55.189453 38.691406 C 55.194853 38.75335 55.189453 38.808744 55.189453 38.871094 C 55.189453 38.882614 55.189507 38.898686 55.189453 38.910156 C 55.18913 39.276047 55.126965 39.63883 54.976562 39.998047 C 54.35351 41.486336 52.62464 42.189 51.121094 41.572266 L 50.609375 41.363281 C 50.632953 41.287374 50.644516 41.210885 50.662109 41.134766 C 50.626773 41.290469 50.585597 41.446484 50.521484 41.599609 C 50.46275 41.73991 50.39951 41.872139 50.322266 41.998047 L 56.369141 41.998047 L 56.369141 44.253906 L 56.367188 44.253906 C 56.361859 47.490614 53.736017 50.113281 50.498047 50.113281 L 13.271484 50.113281 C 11.86892 50.113281 10.581907 49.619781 9.5722656 48.798828 L 24.773438 64 L 64 64 L 64 45.71875 L 46.404297 28.121094 z M 41.246094 32.103516 L 38.679688 33.611328 C 38.664237 33.562587 38.64206 33.51679 38.625 33.46875 C 38.641366 33.515039 38.65104 33.562832 38.666016 33.609375 C 38.667167 33.612689 38.668861 33.615794 38.669922 33.619141 L 41.246094 32.103516 z M 38.085938 32.384766 L 38.082031 32.386719 C 38.113601 32.429398 38.145948 32.47128 38.173828 32.517578 C 38.145841 32.471121 38.115997 32.428077 38.085938 32.384766 z M 42.238281 35.53125 C 42.228555 35.572262 42.214551 35.615794 42.207031 35.65625 C 42.203519 35.676764 42.202724 35.697734 42.201172 35.71875 C 42.204455 35.697887 42.206876 35.676983 42.210938 35.65625 C 42.219099 35.614751 42.229045 35.572899 42.238281 35.53125 z M 45.65625 36.638672 C 45.714287 36.639506 45.773424 36.650208 45.832031 36.654297 C 45.784554 36.6508 45.736816 36.639876 45.689453 36.638672 C 45.678174 36.63853 45.667235 36.638762 45.65625 36.638672 z M 38.898438 38.685547 C 38.792223 39.24149 38.845731 39.832186 39.091797 40.386719 C 39.248427 40.739651 39.478445 41.052421 39.742188 41.304688 C 39.475535 41.051307 39.255655 40.734922 39.097656 40.378906 C 38.852214 39.825779 38.79517 39.238618 38.898438 38.685547 z M 39.742188 41.304688 C 39.744492 41.306891 39.745736 41.310305 39.748047 41.3125 C 39.756147 41.32051 39.757025 41.322278 39.765625 41.330078 C 39.809908 41.373447 39.853521 41.406976 39.900391 41.447266 C 39.920398 41.464506 39.945512 41.476073 39.966797 41.492188 C 39.947452 41.476432 39.925211 41.465561 39.90625 41.449219 C 39.859547 41.408948 39.815654 41.367579 39.771484 41.324219 C 39.762864 41.316409 39.750287 41.312688 39.742188 41.304688 z M 42.667969 39.648438 C 42.669867 39.682068 42.670808 39.71574 42.673828 39.75 C 42.703456 40.365904 42.921503 40.952126 43.310547 41.429688 C 43.382193 41.517618 43.458216 41.598184 43.541016 41.677734 L 43.011719 41.90625 C 42.912129 41.949551 42.80713 41.965518 42.705078 41.998047 L 43.951172 41.998047 C 43.709196 41.836509 43.493589 41.647131 43.316406 41.429688 C 42.927362 40.952126 42.707364 40.361998 42.677734 39.746094 C 42.676016 39.713495 42.671914 39.681359 42.667969 39.648438 z M 50.740234 40.402344 C 50.739579 40.425043 50.740234 40.447732 50.740234 40.470703 C 50.740234 40.482183 50.740288 40.492436 50.740234 40.503906 C 50.740085 40.673229 50.722035 40.84427 50.691406 41.013672 C 50.722625 40.847387 50.744014 40.680633 50.744141 40.513672 C 50.744248 40.502202 50.744141 40.486079 50.744141 40.474609 C 50.744571 40.449535 50.74147 40.426365 50.740234 40.402344 z M 40.298828 41.724609 C 40.230113 41.815192 40.161756 41.90907 40.089844 41.998047 L 40.878906 41.998047 C 40.676246 41.928436 40.483098 41.834488 40.298828 41.724609 z "
       id="rect4542" />
    <path
       inkscape:connector-curvature="0"
       style="fill:url(#linearGradient4232);stroke:none;stroke-width:0.67336637;stroke-linecap:round;stroke-linejoin:round;stroke-miterlimit:4;stroke-dasharray:none;stroke-opacity:1;fill-opacity:1;opacity:1"
       d="m 7.402323,44.244567 c 0,3.241246 2.627583,5.868791 5.868791,5.868791 l 37.227674,0 c 3.241262,0 5.868791,-2.627545 5.868791,-5.868791 l -11.737582,0 -25.490092,0 -11.737582,0 z"
       id="path4224" />
    <rect
       style="fill:url(#linearGradient4242);stroke:none;stroke-width:0.67336637;stroke-linecap:round;stroke-linejoin:round;stroke-miterlimit:4;stroke-dasharray:none;stroke-opacity:1;fill-opacity:1;opacity:1"
       id="rect4234"
       width="48.974056"
       height="2.2553844"
       x="7.3945045"
       y="41.997696" />
  </g>
</svg>
