<?xml version="1.0" encoding="UTF-8" standalone="no"?>
<!-- Created with Inkscape (http://www.inkscape.org/) -->

<svg
   xmlns:dc="http://purl.org/dc/elements/1.1/"
   xmlns:cc="http://creativecommons.org/ns#"
   xmlns:rdf="http://www.w3.org/1999/02/22-rdf-syntax-ns#"
   xmlns:svg="http://www.w3.org/2000/svg"
   xmlns="http://www.w3.org/2000/svg"
   xmlns:sodipodi="http://sodipodi.sourceforge.net/DTD/sodipodi-0.dtd"
   xmlns:inkscape="http://www.inkscape.org/namespaces/inkscape"
   width="64"
   height="64"
   id="svg4684"
   version="1.1"
   inkscape:version="0.91 r13725"
   viewBox="0 0 64 64"
   sodipodi:docname="temps-preparation.svg">
  <defs
     id="defs4686">
    <inkscape:path-effect
       is_visible="true"
       id="path-effect5881"
       effect="spiro" />
    <inkscape:path-effect
       effect="spiro"
       id="path-effect3941-8"
       is_visible="true" />
    <inkscape:path-effect
       effect="spiro"
       id="path-effect3941-8-2"
       is_visible="true" />
  </defs>
  <sodipodi:namedview
     id="base"
     pagecolor="#ffffff"
     bordercolor="#666666"
     borderopacity="1.0"
     inkscape:pageopacity="0.0"
     inkscape:pageshadow="2"
     inkscape:zoom="4"
     inkscape:cx="-19.802293"
     inkscape:cy="31.793598"
     inkscape:current-layer="layer1"
     showgrid="true"
     inkscape:document-units="px"
     inkscape:grid-bbox="true"
     inkscape:snap-page="true"
     inkscape:object-nodes="true"
     inkscape:object-paths="true"
     inkscape:snap-bbox="true"
     inkscape:bbox-nodes="true"
     inkscape:snap-object-midpoints="true"
     inkscape:snap-global="false"
     showguides="true"
     inkscape:window-width="1470"
     inkscape:window-height="841"
     inkscape:window-x="-8"
     inkscape:window-y="-8"
     inkscape:window-maximized="1"
     inkscape:snap-midpoints="false"
     inkscape:snap-smooth-nodes="true" />
  <metadata
     id="metadata4689">
    <rdf:RDF>
      <cc:Work
         rdf:about="">
        <dc:format>image/svg+xml</dc:format>
        <dc:type
           rdf:resource="http://purl.org/dc/dcmitype/StillImage" />
        <dc:title />
      </cc:Work>
    </rdf:RDF>
  </metadata>
  <g
     id="layer1"
     inkscape:label="Layer 1"
     inkscape:groupmode="layer">
    <path
       style="opacity:0.33200001;fill:#000000;fill-opacity:0.42372885;stroke:none;stroke-width:1.5;stroke-linecap:round;stroke-linejoin:round;stroke-miterlimit:4;stroke-dasharray:none;stroke-dashoffset:0;stroke-opacity:1"
       d="M 45.529297 12.251953 L 45.521484 12.259766 A 2.1899245 2.1899246 0 0 1 45.5 15.302734 A 2.1899245 2.1899246 0 0 1 45.296875 15.486328 L 33.986328 25.560547 C 44.997143 25.709852 56.79501 27.33716 58.345703 29.773438 L 58.345703 30.177734 C 58.380793 30.635016 58.405206 31.094257 58.416016 31.552734 C 58.401633 40.965162 53.2969 49.646937 45.041016 54.304688 C 40.822351 55.366078 36.476053 55.917988 32.107422 55.955078 C 31.979107 55.956167 31.851007 55.960743 31.722656 55.960938 C 27.41881 55.940837 23.134435 55.417075 18.970703 54.402344 C 16.776173 53.180857 14.808437 51.670764 13.089844 49.943359 C 13.106654 49.972171 13.123813 50.000485 13.140625 50.029297 L 27.113281 64 L 64 64 L 64 30.722656 L 45.529297 12.251953 z M 58.345703 30.177734 C 58.265594 30.303595 58.151791 30.427784 58.011719 30.548828 L 58.013672 30.550781 C 58.148621 30.428215 58.264892 30.304696 58.345703 30.177734 z M 32.349609 29.060547 C 32.271189 29.060544 32.18664 29.063891 32.107422 29.064453 C 31.419313 29.069335 30.708702 29.091065 30.003906 29.107422 L 26.837891 31.927734 A 4.5789329 7.6979161 44.459903 0 1 27.40625 34.296875 C 29.004626 34.366923 30.586115 34.41032 32.107422 34.414062 C 32.189908 34.414262 32.279198 34.419926 32.361328 34.419922 C 41.04419 34.419492 50.564317 33.446502 55.367188 31.861328 C 50.969839 30.132337 41.21507 29.060998 32.349609 29.060547 z M 27.855469 29.164062 C 20.492105 29.477133 12.696086 30.502184 8.796875 31.84375 C 11.093579 32.522909 14.413465 33.105646 18.126953 33.546875 A 4.5789329 7.6979161 44.459903 0 1 26.099609 31.210938 L 27.855469 29.164062 z M 5.6542969 30.263672 C 5.7231689 30.358734 5.8138362 30.453378 5.9179688 30.546875 C 5.9187102 30.546208 5.9193167 30.545565 5.9199219 30.544922 C 5.815624 30.451328 5.7236129 30.358206 5.6542969 30.263672 z M 5.4628906 31.552734 C 5.4632302 32.082806 5.4852275 32.609975 5.5175781 33.134766 C 5.4853063 32.609963 5.4632302 32.082763 5.4628906 31.552734 z M 24.449219 31.699219 A 4.2476539 6.9847046 44.459903 0 0 19.458984 33.697266 C 19.775108 33.731014 20.103648 33.755514 20.423828 33.787109 C 21.46581 32.969173 22.449926 32.446278 23.4375 32.105469 C 24.145241 31.861229 24.922908 31.600407 25.546875 31.984375 C 25.342867 31.851918 25.127987 31.782167 24.871094 31.742188 A 4.2476539 6.9847046 44.459903 0 0 24.449219 31.699219 z M 5.5527344 33.599609 C 5.5843059 33.995558 5.6243852 34.389113 5.6738281 34.78125 C 5.6245163 34.389153 5.5842195 33.99549 5.5527344 33.599609 z M 54.701172 34.982422 C 54.680124 34.977882 54.645044 34.987268 54.589844 35.017578 C 52.584204 35.429211 50.571824 35.810718 48.548828 36.126953 C 46.164651 36.50299 43.770179 36.812981 41.367188 37.041016 C 39.714495 37.201547 38.058997 37.331089 36.400391 37.412109 C 34.97121 37.495094 33.539004 37.531634 32.107422 37.552734 C 31.993488 37.554413 31.879544 37.559098 31.765625 37.560547 C 30.219737 37.540906 28.67241 37.501719 27.128906 37.412109 C 25.470301 37.33109 23.816758 37.201547 22.164062 37.041016 C 19.761071 36.812981 17.364646 36.50299 14.980469 36.126953 C 12.957473 35.810718 10.945093 35.429211 8.9394531 35.017578 C 8.861765 34.974928 8.8232315 34.972311 8.8085938 34.994141 C 8.7816405 35.03435 8.8338148 35.155908 8.8671875 35.257812 C 8.7763777 37.442197 9.4635144 39.28855 10.566406 41.439453 C 12.924948 45.776208 16.085271 49.761951 21.097656 51.753906 C 23.555951 52.753194 25.916275 52.871289 28.28125 52.904297 C 29.441171 52.968257 30.603971 52.972392 31.765625 52.951172 C 31.879594 52.953253 31.993448 52.951557 32.107422 52.953125 C 33.156632 52.967555 34.206313 52.962167 35.253906 52.904297 C 37.616707 52.871151 39.973622 52.752287 42.429688 51.753906 C 47.076678 49.643125 50.429885 46.338263 52.964844 41.439453 C 53.863987 39.718585 54.910195 37.448662 54.662109 35.257812 L 54.660156 35.257812 C 54.698776 35.139882 54.764302 34.996042 54.701172 34.982422 z M 5.7285156 35.212891 C 5.8013338 35.72152 5.8859503 36.227649 5.9882812 36.728516 C 5.8860988 36.227304 5.8012056 35.721839 5.7285156 35.212891 z M 6.0566406 37.025391 C 6.1435879 37.426814 6.2401532 37.825095 6.3457031 38.220703 C 6.240385 37.825127 6.1433922 37.426761 6.0566406 37.025391 z M 6.4980469 38.763672 C 6.5943156 39.095375 6.6974492 39.424969 6.8066406 39.751953 C 6.6975971 39.424775 6.5941709 39.095565 6.4980469 38.763672 z M 6.9804688 40.271484 C 7.1347697 40.703134 7.2980574 41.130493 7.4746094 41.552734 C 7.2984511 41.130681 7.1344186 40.702926 6.9804688 40.271484 z M 7.7773438 42.232422 C 7.8800364 42.459575 7.9826902 42.686119 8.0917969 42.910156 C 7.9829483 42.686251 7.8797894 42.459438 7.7773438 42.232422 z M 8.4863281 43.685547 C 8.5699614 43.843708 8.6572841 43.999835 8.7441406 44.15625 C 8.6573767 43.999772 8.5698664 43.843772 8.4863281 43.685547 z M 10.40625 46.773438 C 10.516686 46.926484 10.626451 47.079731 10.740234 47.230469 C 10.626538 47.079724 10.516594 46.926494 10.40625 46.773438 z M 11.298828 47.945312 C 11.407845 48.079833 11.521065 48.211289 11.632812 48.34375 C 11.521085 48.211245 11.407817 48.079882 11.298828 47.945312 z M 43.976562 52.939453 C 40.105517 53.613586 36.116251 53.960512 32.107422 53.982422 C 32.00048 53.983006 31.894079 53.99012 31.787109 53.990234 C 27.848657 53.977438 23.927397 53.644598 20.117188 53.001953 C 23.739622 54.401095 27.826615 55.137625 31.984375 55.140625 C 32.025483 55.140554 32.066329 55.138886 32.107422 55.138672 C 36.272903 55.116984 40.361714 54.360548 43.976562 52.939453 z "
       id="rect5161" />
    <path
       style="opacity:1;fill:#ffffff;fill-opacity:0.70338984;stroke:none;stroke-width:1.5;stroke-linecap:round;stroke-linejoin:round;stroke-miterlimit:4;stroke-dasharray:none;stroke-dashoffset:0;stroke-opacity:1"
       d="m 58.345703,30.177734 c -1.626929,2.556055 -14.542442,4.241622 -25.984375,4.242188 -0.08213,4e-6 -0.17142,-0.0057 -0.253906,-0.0059 l 0,3.138672 c 1.431582,-0.0211 2.863788,-0.05764 4.292969,-0.140625 1.658606,-0.08102 3.314104,-0.210562 4.966797,-0.371093 2.402991,-0.228035 4.797463,-0.538026 7.18164,-0.914063 2.022996,-0.316235 4.035376,-0.697742 6.041016,-1.109375 0.0552,-0.03031 0.09028,-0.0397 0.111328,-0.03516 0.06313,0.01362 -0.0024,0.157459 -0.04102,0.27539 l 0.002,0 c 0.248086,2.19085 -0.798122,4.460773 -1.697265,6.181641 -2.534959,4.89881 -5.888165,8.203672 -10.535156,10.314453 -2.456066,0.998381 -4.812981,1.117245 -7.175782,1.150391 -1.047593,0.05787 -2.097274,0.06326 -3.146484,0.04883 l 0,1.029297 c 4.008829,-0.02191 7.998094,-0.368836 11.86914,-1.042969 -3.614849,1.421095 -7.703659,2.177531 -11.86914,2.199219 l 0,0.816406 c 4.368631,-0.03709 8.714929,-0.589 12.933594,-1.65039 8.255884,-4.65775 13.360617,-13.339526 13.375,-22.751954 -0.01081,-0.458477 -0.03522,-0.917718 -0.07031,-1.375 z"
       id="path5063"
       inkscape:connector-curvature="0"
       sodipodi:nodetypes="cscccccccccccccccccccc" />
    <path
       style="opacity:1;fill:#ffffff;fill-opacity:0.42372882;stroke:none;stroke-width:1.5;stroke-linecap:round;stroke-linejoin:round;stroke-miterlimit:4;stroke-dasharray:none;stroke-dashoffset:0;stroke-opacity:1"
       d="M 33.986328 25.560547 L 32.107422 27.234375 L 32.107422 29.064453 C 32.18664 29.063891 32.271189 29.060544 32.349609 29.060547 C 41.21507 29.060998 50.969839 30.132337 55.367188 31.861328 C 56.578982 31.461379 57.493484 31.023237 58.013672 30.550781 C 58.013672 30.550781 58.011719 30.548828 58.011719 30.548828 C 58.151791 30.427784 58.265594 30.303595 58.345703 30.177734 L 58.345703 29.773438 C 56.79501 27.33716 44.997143 25.709852 33.986328 25.560547 z "
       id="rect5082" />
    <path
       style="opacity:1;fill:#ffffff;fill-opacity:0.47881356;stroke:none;stroke-width:1.5;stroke-linecap:round;stroke-linejoin:round;stroke-miterlimit:4;stroke-dasharray:none;stroke-dashoffset:0;stroke-opacity:1"
       d="M 45.470703 12.207031 L 25.832031 32.216797 C 26.650999 33.236198 26.389549 34.192298 26.376953 34.236328 C 26.720391 34.254652 27.063014 34.281781 27.40625 34.296875 A 4.5789329 7.6979161 44.459903 0 0 26.837891 31.927734 L 45.296875 15.486328 A 2.1899245 2.1899246 0 0 0 45.5 15.302734 A 2.1899245 2.1899246 0 0 0 45.470703 12.207031 z "
       id="path5121" />
    <path
       style="opacity:1;fill:#ffffff;fill-opacity:1;stroke:none;stroke-width:1.5;stroke-linecap:round;stroke-linejoin:round;stroke-miterlimit:4;stroke-dasharray:none;stroke-dashoffset:0;stroke-opacity:1"
       d="M 5.5214844 29.976562 C 5.4862744 30.501262 5.4662046 31.026884 5.4628906 31.552734 C 5.4689606 41.027712 10.632712 49.761373 18.970703 54.402344 C 23.134435 55.417075 27.41881 55.940839 31.722656 55.960938 C 31.851007 55.960743 31.979107 55.956167 32.107422 55.955078 L 32.107422 55.138672 C 32.066329 55.138886 32.025483 55.140554 31.984375 55.140625 C 27.826615 55.137625 23.739624 54.401095 20.117188 53.001953 C 23.927397 53.644598 27.848657 53.977438 31.787109 53.990234 C 31.894079 53.99012 32.00048 53.983006 32.107422 53.982422 L 32.107422 52.953125 C 31.993448 52.951557 31.879594 52.953253 31.765625 52.951172 C 30.603971 52.972392 29.441171 52.968257 28.28125 52.904297 C 25.916275 52.871289 23.555951 52.753194 21.097656 51.753906 C 16.085271 49.761951 12.924948 45.776208 10.566406 41.439453 C 9.463514 39.28855 8.7763777 37.442197 8.8671875 35.257812 C 8.8338148 35.155908 8.7816406 35.03435 8.8085938 34.994141 C 8.8232317 34.972311 8.861765 34.974928 8.9394531 35.017578 C 10.945093 35.429211 12.957473 35.810718 14.980469 36.126953 C 17.364646 36.50299 19.761071 36.812981 22.164062 37.041016 C 23.816758 37.201547 25.470301 37.33109 27.128906 37.412109 C 28.67241 37.501719 30.219737 37.540906 31.765625 37.560547 C 31.879544 37.559098 31.993488 37.554413 32.107422 37.552734 L 32.107422 34.414062 C 20.698218 34.385996 5.9429368 32.389885 5.5214844 29.976562 z "
       id="rect5194" />
    <path
       style="opacity:1;fill:#ffffff;fill-opacity:0.72881359;stroke:none;stroke-width:1.5;stroke-linecap:round;stroke-linejoin:round;stroke-miterlimit:4;stroke-dasharray:none;stroke-dashoffset:0;stroke-opacity:1"
       d="M 30.947266 25.560547 C 19.719405 25.712142 5.9290164 27.64295 5.5214844 29.976562 C 5.5550894 30.168995 5.7117337 30.356621 5.921875 30.542969 C 5.9203866 30.544302 5.9194518 30.545541 5.9179688 30.546875 C 6.4273135 31.004196 7.4283782 31.439528 8.7949219 31.84375 C 12.693941 30.501796 20.492479 29.477078 27.857422 29.164062 L 30.947266 25.560547 z M 32.107422 27.234375 L 30.003906 29.107422 C 30.708702 29.091065 31.419313 29.069335 32.107422 29.064453 L 32.107422 27.234375 z "
       id="rect5199" />
    <path
       style="opacity:1;fill:#ffffff;fill-opacity:1;stroke:none;stroke-width:1.5;stroke-linecap:round;stroke-linejoin:round;stroke-miterlimit:4;stroke-dasharray:none;stroke-dashoffset:0;stroke-opacity:1"
       d="M 43.884766 11.582031 A 2.1899245 2.1899246 0 0 0 42.373047 12.236328 A 2.1899245 2.1899246 0 0 0 42.208984 12.429688 L 26.099609 31.210938 A 4.5789329 7.6979161 44.459903 0 0 18.126953 33.546875 C 18.571376 33.599825 19.000436 33.652517 19.455078 33.701172 A 4.2476539 6.9847046 44.459903 0 1 24.871094 31.742188 C 25.249298 31.801048 25.538931 31.912864 25.832031 32.216797 L 45.470703 12.207031 A 2.1899245 2.1899246 0 0 0 43.884766 11.582031 z "
       id="path5228" />
    <path
       style="fill:#ffffff;fill-opacity:0.3559322;fill-rule:evenodd;stroke:none;stroke-width:0.05;stroke-linecap:butt;stroke-linejoin:miter;stroke-miterlimit:4;stroke-dasharray:none;stroke-opacity:1"
       d="m 23.436721,32.105472 c -0.988986,0.341297 -1.973158,0.865594 -3.016799,1.685544 1.174651,0.116227 2.368729,0.217672 3.568359,0.304687 0.793906,0.05759 1.088113,0.08684 1.885125,0.129366 0.04702,0.203759 0.523973,-1.405269 -0.04137,-2.008272 -0.659742,-0.70369 -1.574915,-0.394443 -2.395315,-0.111325 z"
       id="path5238"
       inkscape:connector-curvature="0"
       sodipodi:nodetypes="scscss" />
    <path
       style="fill:#ffffff;fill-rule:evenodd;stroke:none;stroke-width:1px;stroke-linecap:butt;stroke-linejoin:miter;stroke-opacity:1;fill-opacity:0.720339"
       d="M 25.84375 32.234375 C 26.311894 32.763768 26.031355 34.003402 25.914062 34.208984 C 26.068592 34.217564 26.222547 34.228311 26.376953 34.236328 C 26.389476 34.192552 26.645647 33.247142 25.84375 32.234375 z "
       id="path5251" />
  </g>
</svg>
