<?xml version="1.0" encoding="UTF-8" standalone="no"?>
<!-- Created with Inkscape (http://www.inkscape.org/) -->

<svg
   xmlns:dc="http://purl.org/dc/elements/1.1/"
   xmlns:cc="http://creativecommons.org/ns#"
   xmlns:rdf="http://www.w3.org/1999/02/22-rdf-syntax-ns#"
   xmlns:svg="http://www.w3.org/2000/svg"
   xmlns="http://www.w3.org/2000/svg"
   xmlns:sodipodi="http://sodipodi.sourceforge.net/DTD/sodipodi-0.dtd"
   xmlns:inkscape="http://www.inkscape.org/namespaces/inkscape"
   width="64"
   height="64"
   id="svg4684"
   version="1.1"
   inkscape:version="0.91 r13725"
   viewBox="0 0 64 64"
   sodipodi:docname="temps-cuisson.svg">
  <defs
     id="defs4686">
    <inkscape:path-effect
       is_visible="true"
       id="path-effect5881"
       effect="spiro" />
    <inkscape:path-effect
       effect="spiro"
       id="path-effect3941-8"
       is_visible="true" />
    <inkscape:path-effect
       effect="spiro"
       id="path-effect3941-8-2"
       is_visible="true" />
    <inkscape:path-effect
       effect="spiro"
       id="path-effect4730-1"
       is_visible="true" />
    <inkscape:path-effect
       is_visible="true"
       id="path-effect4734-3"
       effect="spiro" />
    <inkscape:path-effect
       effect="spiro"
       id="path-effect4738-9"
       is_visible="true" />
    <inkscape:path-effect
       is_visible="true"
       id="path-effect4761-6"
       effect="spiro" />
    <inkscape:path-effect
       effect="spiro"
       id="path-effect4763-7"
       is_visible="true" />
    <inkscape:path-effect
       is_visible="true"
       id="path-effect4765-6"
       effect="spiro" />
  </defs>
  <sodipodi:namedview
     id="base"
     pagecolor="#ffffff"
     bordercolor="#666666"
     borderopacity="1.0"
     inkscape:pageopacity="0.0"
     inkscape:pageshadow="2"
     inkscape:zoom="7.2422994"
     inkscape:cx="-6.1567231"
     inkscape:cy="41.169157"
     inkscape:current-layer="layer1"
     showgrid="true"
     inkscape:document-units="px"
     inkscape:grid-bbox="true"
     inkscape:snap-page="true"
     inkscape:object-nodes="true"
     inkscape:object-paths="true"
     inkscape:snap-bbox="true"
     inkscape:bbox-nodes="true"
     inkscape:snap-object-midpoints="true"
     inkscape:snap-global="true"
     showguides="false"
     inkscape:window-width="1470"
     inkscape:window-height="841"
     inkscape:window-x="-8"
     inkscape:window-y="-8"
     inkscape:window-maximized="1"
     inkscape:snap-smooth-nodes="true"
     inkscape:snap-intersection-paths="false" />
  <metadata
     id="metadata4689">
    <rdf:RDF>
      <cc:Work
         rdf:about="">
        <dc:format>image/svg+xml</dc:format>
        <dc:type
           rdf:resource="http://purl.org/dc/dcmitype/StillImage" />
        <dc:title />
      </cc:Work>
    </rdf:RDF>
  </metadata>
  <g
     id="layer1"
     inkscape:label="Layer 1"
     inkscape:groupmode="layer">
    <path
       style="opacity:0.33200001;fill:#000000;fill-opacity:0.62288136;stroke:none;stroke-width:1.5;stroke-linecap:round;stroke-linejoin:round;stroke-miterlimit:4;stroke-dasharray:none;stroke-dashoffset:0;stroke-opacity:1"
       d="M 19.097656 11.382812 L 19.097656 12.113281 L 16.058594 12.113281 L 16.058594 17.943359 L 16.845703 17.943359 L 16.845703 18.794922 L 16.058594 18.794922 L 16.058594 27.960938 L 16.058594 42.324219 L 16.058594 45.205078 L 16.845703 45.205078 L 16.845703 46.056641 L 16.058594 46.056641 L 16.058594 51.929688 L 28.128906 64 L 64 64 L 64 28.173828 L 47.939453 12.113281 L 44.513672 12.113281 L 44.513672 11.382812 L 35.791016 11.382812 L 35.791016 12.113281 L 28.207031 12.113281 L 28.207031 11.382812 L 19.097656 11.382812 z "
       id="rect4958" />
    <path
       inkscape:connector-curvature="0"
       style="opacity:1;fill:#ffffff;fill-opacity:0.40677969;stroke:none;stroke-width:1.5;stroke-linecap:round;stroke-linejoin:round;stroke-miterlimit:4;stroke-dasharray:none;stroke-dashoffset:0;stroke-opacity:1"
       d="M 31.719204,13.698243 A 1.4011279,1.4011279 0 0 0 30.3176,15.099846 1.4011279,1.4011279 0 0 0 31.719204,16.50145 1.4011279,1.4011279 0 0 0 32,16.470516 l 0,-2.743717 a 1.4011279,1.4011279 0 0 0 -0.280796,-0.02856 z"
       id="circle4808" />
    <path
       inkscape:connector-curvature="0"
       style="opacity:1;fill:#ffffff;fill-opacity:0.40677969;stroke:none;stroke-width:1.5;stroke-linecap:round;stroke-linejoin:round;stroke-miterlimit:4;stroke-dasharray:none;stroke-dashoffset:0;stroke-opacity:1"
       d="m 32,13.726798 0,2.743717 A 1.4011279,1.4011279 0 0 0 33.120807,15.099846 1.4011279,1.4011279 0 0 0 32,13.726798 Z"
       id="circle4811" />
    <path
       inkscape:connector-curvature="0"
       style="opacity:1;fill:#ffffff;fill-opacity:1;stroke:none;stroke-width:1.5;stroke-linecap:round;stroke-linejoin:round;stroke-miterlimit:4;stroke-dasharray:none;stroke-dashoffset:0;stroke-opacity:1"
       d="m 16.058839,18.795417 0,26.409167 15.941161,0 0,-2.382012 -12.371712,0 0,-16.771654 12.371712,0 0,-3.269616 -12.371712,0 0,-1.603872 12.371712,0 0,-2.382013 -15.941161,0 z"
       id="rect4756" />
    <path
       inkscape:connector-curvature="0"
       style="opacity:1;fill:#ffffff;fill-opacity:1;stroke:none;stroke-width:1.5;stroke-linecap:round;stroke-linejoin:round;stroke-miterlimit:4;stroke-dasharray:none;stroke-dashoffset:0;stroke-opacity:1"
       d="m 16.058839,12.113408 0,5.8301 15.941161,0 0,-1.472993 A 1.4011279,1.4011279 0 0 1 31.719204,16.501449 1.4011279,1.4011279 0 0 1 30.3176,15.099845 1.4011279,1.4011279 0 0 1 31.719204,13.698242 1.4011279,1.4011279 0 0 1 32,13.7268 l 0,-1.61339 -15.941161,0 z m 1.606252,0.935195 2.543828,0 0,1.403983 -2.543828,0 0,-1.403983 z m 9.668449,0.64964 a 1.4011279,1.4011279 0 0 1 1.401604,1.401603 1.4011279,1.4011279 0 0 1 -1.401604,1.401604 1.4011279,1.4011279 0 0 1 -1.401603,-1.401604 1.4011279,1.4011279 0 0 1 1.401603,-1.401603 z m 4.764025,0.05235 a 1.4011279,1.4011279 0 0 1 0.09994,0.03331 1.4011279,1.4011279 0 0 0 -0.09994,-0.03331 z m 0.145158,0.04997 a 1.4011279,1.4011279 0 0 1 0.07138,0.03093 1.4011279,1.4011279 0 0 0 -0.07138,-0.03093 z m 0.823353,1.684781 a 1.4011279,1.4011279 0 0 1 -0.03093,0.09043 1.4011279,1.4011279 0 0 0 0.03093,-0.09043 z m -0.09757,0.245102 a 1.4011279,1.4011279 0 0 1 -0.05473,0.09757 1.4011279,1.4011279 0 0 0 0.05473,-0.09757 z m -0.159435,0.247482 a 1.4011279,1.4011279 0 0 1 -0.05473,0.06187 1.4011279,1.4011279 0 0 0 0.05473,-0.06187 z m -0.19275,0.197509 a 1.4011279,1.4011279 0 0 1 -0.07852,0.05949 1.4011279,1.4011279 0 0 0 0.07852,-0.05949 z m -0.118986,0.08566 a 1.4011279,1.4011279 0 0 1 -0.09757,0.05949 1.4011279,1.4011279 0 0 0 0.09757,-0.05949 z m -0.107083,0.06663 a 1.4011279,1.4011279 0 0 1 -0.09519,0.04521 1.4011279,1.4011279 0 0 0 0.09519,-0.04521 z"
       id="rect4758" />
    <path
       inkscape:connector-curvature="0"
       style="opacity:1;fill:#ffffff;fill-opacity:1;stroke:none;stroke-width:1.5;stroke-linecap:round;stroke-linejoin:round;stroke-miterlimit:4;stroke-dasharray:none;stroke-dashoffset:0;stroke-opacity:1"
       d="m 16.058839,46.036339 0,5.893088 15.941161,0 0,-5.893088 -15.941161,0 z"
       id="rect4760" />
    <circle
       style="opacity:1;fill:#ffffff;fill-opacity:0.40677969;stroke:none;stroke-width:1.5;stroke-linecap:round;stroke-linejoin:round;stroke-miterlimit:4;stroke-dasharray:none;stroke-dashoffset:0;stroke-opacity:1"
       id="path4762"
       cx="27.333469"
       cy="15.099161"
       r="1.4011279" />
    <path
       inkscape:connector-curvature="0"
       style="opacity:1;fill:#ffffff;fill-opacity:0.7118644;stroke:none;stroke-width:1.5;stroke-linecap:round;stroke-linejoin:round;stroke-miterlimit:4;stroke-dasharray:none;stroke-dashoffset:0;stroke-opacity:1"
       d="m 32,12.113408 0,1.61339 A 1.4011279,1.4011279 0 0 1 33.120807,15.099846 1.4011279,1.4011279 0 0 1 32,16.470515 l 0,1.472993 15.938783,0 0,-5.8301 -15.938783,0 z m 4.104867,1.584835 a 1.4011279,1.4011279 0 0 1 1.401605,1.401603 1.4011279,1.4011279 0 0 1 -1.401605,1.401604 1.4011279,1.4011279 0 0 1 -1.401604,-1.401604 1.4011279,1.4011279 0 0 1 1.401604,-1.401603 z m 4.385664,0 a 1.4011279,1.4011279 0 0 1 1.401604,1.401603 1.4011279,1.4011279 0 0 1 -1.401604,1.401604 1.4011279,1.4011279 0 0 1 -1.401604,-1.401604 1.4011279,1.4011279 0 0 1 1.401604,-1.401603 z m 4.385664,0 a 1.4011279,1.4011279 0 0 1 1.401603,1.401603 1.4011279,1.4011279 0 0 1 -1.401603,1.401604 1.4011279,1.4011279 0 0 1 -1.401604,-1.401604 1.4011279,1.4011279 0 0 1 1.401604,-1.401603 z"
       id="rect4789" />
    <circle
       style="opacity:1;fill:#ffffff;fill-opacity:0.40677969;stroke:none;stroke-width:1.5;stroke-linecap:round;stroke-linejoin:round;stroke-miterlimit:4;stroke-dasharray:none;stroke-dashoffset:0;stroke-opacity:1"
       id="circle4768"
       cx="36.105087"
       cy="15.099161"
       r="1.4011279" />
    <circle
       r="1.4011279"
       cy="15.099161"
       cx="40.490894"
       id="circle4772"
       style="opacity:1;fill:#ffffff;fill-opacity:0.40677969;stroke:none;stroke-width:1.5;stroke-linecap:round;stroke-linejoin:round;stroke-miterlimit:4;stroke-dasharray:none;stroke-dashoffset:0;stroke-opacity:1" />
    <circle
       style="opacity:1;fill:#ffffff;fill-opacity:0.40677969;stroke:none;stroke-width:1.5;stroke-linecap:round;stroke-linejoin:round;stroke-miterlimit:4;stroke-dasharray:none;stroke-dashoffset:0;stroke-opacity:1"
       id="circle4776"
       cx="44.876701"
       cy="15.099161"
       r="1.4011279" />
    <rect
       style="opacity:1;fill:#ffffff;fill-opacity:0.40677969;stroke:none;stroke-width:1.5;stroke-linecap:round;stroke-linejoin:round;stroke-miterlimit:4;stroke-dasharray:none;stroke-dashoffset:0;stroke-opacity:1"
       id="rect4778"
       width="2.5437536"
       height="1.4060553"
       x="17.664864"
       y="13.04758" />
    <path
       inkscape:connector-curvature="0"
       style="opacity:1;fill:#ffffff;fill-opacity:0.7118644;stroke:none;stroke-width:1.5;stroke-linecap:round;stroke-linejoin:round;stroke-miterlimit:4;stroke-dasharray:none;stroke-dashoffset:0;stroke-opacity:1"
       d="m 32,18.795417 0,2.382013 12.371712,0 0,1.603872 -12.371712,0 0,3.269616 12.371712,0 0,16.771654 -12.371712,0 0,2.382012 15.938783,0 0,-26.409167 -15.938783,0 z"
       id="rect4798" />
    <path
       inkscape:connector-curvature="0"
       style="opacity:1;fill:#ffffff;fill-opacity:0.23305085;stroke:none;stroke-width:1.5;stroke-linecap:round;stroke-linejoin:round;stroke-miterlimit:4;stroke-dasharray:none;stroke-dashoffset:0;stroke-opacity:1"
       d="m 19.628288,26.050918 0,16.771654 12.371712,0 L 32,32 l 0,-5.949082 -12.371712,0 z"
       id="rect4780" />
    <path
       inkscape:connector-curvature="0"
       style="opacity:1;fill:#ffffff;fill-opacity:0.13983053;stroke:none;stroke-width:1.5;stroke-linecap:round;stroke-linejoin:round;stroke-miterlimit:4;stroke-dasharray:none;stroke-dashoffset:0;stroke-opacity:1"
       d="m 32,21.17743 0,1.603872 12.371712,0 0,-1.603872 -12.371712,0 z"
       id="rect4782" />
    <path
       inkscape:connector-curvature="0"
       style="opacity:0.506;fill:#ffffff;fill-opacity:0.62288136;stroke:none;stroke-width:1.5;stroke-linecap:round;stroke-linejoin:round;stroke-miterlimit:4;stroke-dasharray:none;stroke-dashoffset:0;stroke-opacity:1"
       d="m 19.09763,11.38286 0,0.749585 9.109235,0 0,-0.749585 -9.109235,0 z m 16.693125,0 0,0.749585 8.723736,0 0,-0.749585 -8.723736,0 z"
       id="rect4784" />
    <path
       inkscape:connector-curvature="0"
       style="opacity:1;fill:#ffffff;fill-opacity:0.7118644;stroke:none;stroke-width:1.5;stroke-linecap:round;stroke-linejoin:round;stroke-miterlimit:4;stroke-dasharray:none;stroke-dashoffset:0;stroke-opacity:1"
       d="m 32,46.036339 0,5.893088 15.938783,0 0,-5.893088 -15.938783,0 z"
       id="rect4794" />
    <path
       inkscape:connector-curvature="0"
       style="opacity:1;fill:#ffffff;fill-opacity:0.05084746;stroke:none;stroke-width:1.5;stroke-linecap:round;stroke-linejoin:round;stroke-miterlimit:4;stroke-dasharray:none;stroke-dashoffset:0;stroke-opacity:1"
       d="M 32,26.050918 32,32 l 0,10.822572 12.371712,0 0,-16.771654 -12.371712,0 z"
       id="rect4819" />
    <rect
       style="opacity:1;fill:#ffffff;fill-opacity:0.33898309;stroke:none;stroke-width:1.5;stroke-linecap:round;stroke-linejoin:round;stroke-miterlimit:4;stroke-dasharray:none;stroke-dashoffset:0;stroke-opacity:1"
       id="rect4933"
       width="12.37135"
       height="1.605914"
       x="19.627647"
       y="21.176548" />
  </g>
</svg>
