<?xml version="1.0" encoding="UTF-8" standalone="no"?>
<!-- Created with Inkscape (http://www.inkscape.org/) -->

<svg
   xmlns:dc="http://purl.org/dc/elements/1.1/"
   xmlns:cc="http://creativecommons.org/ns#"
   xmlns:rdf="http://www.w3.org/1999/02/22-rdf-syntax-ns#"
   xmlns:svg="http://www.w3.org/2000/svg"
   xmlns="http://www.w3.org/2000/svg"
   xmlns:sodipodi="http://sodipodi.sourceforge.net/DTD/sodipodi-0.dtd"
   xmlns:inkscape="http://www.inkscape.org/namespaces/inkscape"
   width="85mm"
   height="54mm"
   viewBox="0 0 85 54"
   id="svg5305"
   version="1.1"
   inkscape:version="0.91 r13725"
   sodipodi:docname="accueil-marine.svg">
  <defs
     id="defs3" />
  <sodipodi:namedview
     id="base"
     pagecolor="#ffffff"
     bordercolor="#666666"
     borderopacity="1.0"
     inkscape:pageopacity="0.0"
     inkscape:pageshadow="2"
     inkscape:zoom="2.4"
     inkscape:cx="118.3867"
     inkscape:cy="47.893162"
     inkscape:document-units="mm"
     inkscape:current-layer="layer1"
     showgrid="false"
     inkscape:snap-page="true"
     inkscape:snap-bbox="true"
     inkscape:bbox-nodes="true"
     inkscape:window-width="1474"
     inkscape:window-height="841"
     inkscape:window-x="-8"
     inkscape:window-y="-8"
     inkscape:window-maximized="1" />
  <metadata
     id="metadata5309">
    <rdf:RDF>
      <cc:Work
         rdf:about="">
        <dc:format>image/svg+xml</dc:format>
        <dc:type
           rdf:resource="http://purl.org/dc/dcmitype/StillImage" />
        <dc:title></dc:title>
      </cc:Work>
    </rdf:RDF>
  </metadata>
  <g
     inkscape:label="Layer 1"
     inkscape:groupmode="layer"
     id="layer1">
    <g
       transform="matrix(0.05331626,0,0,0.05331626,-0.24186682,-7.301991)"
       id="g4185"
       style="fill:#222e3d;fill-opacity:1;stroke:none">
      <g
         id="text2989"
         style="font-style:normal;font-weight:normal;font-size:195.66812134px;line-height:125%;font-family:Sans;letter-spacing:0px;word-spacing:0px;fill:#222e3d;fill-opacity:1;stroke:none"
         transform="matrix(2.3299034,0,0,2.3299034,-51.272395,-168.77304)">
        <path
           id="path3008"
           style="font-variant:normal;font-stretch:normal;font-size:200px;font-family:'Hipster Script Pro';-inkscape-font-specification:'Hipster Script Pro';fill:#222e3d;fill-opacity:1;stroke:none"
           d="m 247.75297,251.34894 c -0.0459,1.67927 -0.60418,5.57088 -1.67498,11.67485 -1.07084,6.10419 -2.37915,13.94575 -3.92495,23.5247 l -1.99997,0 c -5.03744,0.0126 -9.71238,-0.26241 -14.02482,-0.825 -4.31243,-0.5624 -8.03738,-1.48738 -11.17486,-2.77496 -0.39998,-0.56656 -0.79997,-0.83323 -1.19998,-0.79999 -0.59998,0.0876 -1.04997,0.66259 -1.34999,1.72499 -0.29998,1.06258 -0.44997,2.08756 -0.44999,3.07495 -0.0125,5.31669 1.2625,9.0333 3.82495,11.14986 2.56248,2.11671 6.48743,3.13337 11.77485,3.04996 1.81248,0.004 3.78745,-0.0541 5.92493,-0.175 2.13746,-0.12075 4.36243,-0.32908 6.67491,-0.62499 -0.9375,7.45414 -1.76249,15.2457 -2.47498,23.3747 -0.71249,8.12911 -1.08749,15.67067 -1.12498,22.62471 -0.0875,11.35404 1.08749,20.69558 3.52496,28.02463 2.43746,7.32907 6.6624,11.12069 12.67484,11.37486 3.57909,0.0375 6.87071,-1.68748 9.87487,-5.17493 3.00409,-3.48745 5.24573,-8.96238 6.72491,-16.42479 0.0208,-0.32916 -0.0209,-0.67082 -0.125,-1.025 -0.1042,-0.35414 -0.39587,-0.5458 -0.87499,-0.57498 -0.41253,0.0125 -0.78752,0.13751 -1.12498,0.37499 -0.33753,0.23752 -0.56253,0.51251 -0.67499,0.82499 -1.36669,4.28745 -3.08333,7.46241 -5.14994,9.52488 -2.06666,2.06247 -4.0833,3.08746 -6.04992,3.07496 -1.74583,-0.004 -3.20415,-0.79582 -4.37494,-2.37497 -1.17084,-1.57914 -1.77916,-3.92077 -1.82498,-7.02491 0.0667,-12.95814 0.78331,-25.24131 2.14998,-36.84953 1.36662,-11.60812 2.98327,-22.19131 4.84993,-31.74959 11.34565,-1.82906 21.75384,-3.8207 31.2246,-5.97492 9.47065,-2.15405 15.3289,-3.6957 17.57477,-4.62494 -0.0126,-0.0207 0.11243,-0.37907 0.375,-1.07499 0.26242,-0.69573 0.73741,-1.60405 1.42498,-2.72496 0.38742,-0.4499 0.96241,-0.7999 1.72498,-1.04999 0.76241,-0.2499 1.1874,-0.69989 1.27498,-1.34998 -0.0917,-0.76656 -0.7584,-1.23322 -1.99997,-1.39998 -1.24173,-0.16657 -2.50838,-0.23323 -3.79995,-0.2 -2.32088,0.12927 -7.72914,0.87092 -16.2248,2.22497 -8.49577,1.35425 -18.15397,2.5459 -28.97462,3.57496 1.09162,-5.39567 2.10827,-10.30394 3.04996,-14.72482 0.94162,-4.42066 1.85828,-8.97893 2.74996,-13.67482 -0.30003,-2.02901 -2.05,-3.37066 -5.24993,-4.02494 -3.19999,-0.65404 -6.04995,-1.64569 -8.54989,-2.97497 -0.10835,-0.0957 -0.24168,-0.15403 -0.39999,-0.175 -0.15836,-0.0207 -0.29169,-0.029 -0.4,-0.025 -0.50418,0.0251 -0.94584,0.17512 -1.32498,0.44999 -0.37918,0.27513 -0.67085,0.52512 -0.87499,0.74999 z"
           inkscape:connector-curvature="0" />
        <path
           id="path3010"
           style="font-variant:normal;font-stretch:normal;font-size:200px;font-family:'Hipster Script Pro';-inkscape-font-specification:'Hipster Script Pro';fill:#222e3d;fill-opacity:1;stroke:none"
           d="m 316.41509,315.94811 c -2.47918,0.90838 -4.92082,1.9417 -7.32491,3.09996 -2.40418,1.15837 -3.69582,1.7917 -3.87495,1.89997 2.58326,1.58754 4.46657,4.2625 5.64993,8.0249 1.18327,3.7625 1.7666,8.08744 1.74998,12.97483 -0.0792,8.66659 -1.57086,16.68314 -4.47495,24.04969 -2.90416,7.36658 -6.74577,11.28319 -11.52485,11.74985 -3.59997,-0.17083 -6.29994,-2.47913 -8.0999,-6.92491 -1.79999,-4.44576 -2.69998,-10.00402 -2.69996,-16.67478 -0.0125,-10.4165 2.11246,-20.23304 6.37492,-29.44963 4.26242,-9.21649 10.73733,-14.13308 19.42475,-14.7498 2.79992,-0.0333 5.79988,0.63339 8.99988,1.99997 -0.12921,-6.00402 -1.77085,-10.19563 -4.92493,-12.57484 -3.15417,-2.37905 -7.04579,-3.5207 -11.67485,-3.42495 -6.37649,0.20255 -11.95666,2.97535 -16.74053,8.31841 -4.7839,5.3432 -8.51225,12.04187 -11.18504,20.09603 -2.67281,8.05426 -4.03082,16.24921 -4.07402,24.58487 -0.0625,9.49157 1.91247,17.55813 5.92493,24.19969 4.01244,6.64158 10.43735,10.1082 19.27475,10.39987 8.83735,-0.5875 15.91225,-5.76243 21.22472,-15.5248 5.31238,-9.76236 8.03734,-20.58721 8.1749,-32.47458 0.004,-0.60829 -0.004,-1.24162 -0.025,-1.89998 -0.0209,-0.65828 -0.0792,-1.2916 -0.17499,-1.89998 2.59574,-1.1916 4.70404,-2.55825 6.32491,-4.09995 1.62075,-1.54159 2.77907,-3.30823 3.47496,-5.29992 -6e-5,-0.39161 -0.10006,-0.65827 -0.3,-0.79999 -0.20006,-0.14162 -0.50006,-0.20828 -0.89998,-0.2 -3.98751,0.11255 -7.21247,-0.11244 -9.67488,-0.67499 -2.46252,-0.56244 -5.43748,-2.13742 -8.92488,-4.72494 z"
           inkscape:connector-curvature="0" />
        <path
           id="path3012"
           style="font-variant:normal;font-stretch:normal;font-size:200px;font-family:'Hipster Script Pro';-inkscape-font-specification:'Hipster Script Pro';fill:#222e3d;fill-opacity:1;stroke:none"
           d="m 334.13441,350.94766 c 0.37082,12.20819 3.67911,21.39139 9.92487,27.54964 6.24574,6.15825 13.20397,9.24154 20.87473,9.24988 6.30404,-1e-5 11.69564,-2.14998 16.17479,-6.44992 4.47905,-4.29994 6.82069,-10.74985 7.02491,-19.34974 -0.0625,-4.96658 -1.03754,-9.23319 -2.92496,-12.79984 -1.88753,-3.56659 -4.3125,-5.43323 -7.27491,-5.59993 -1.15003,0.0375 -1.85002,0.21254 -2.09997,0.525 -0.25005,0.31253 -0.35005,0.53753 -0.3,0.67499 1.59994,4.99996 2.39993,9.5999 2.39997,13.79982 -0.13338,6.59993 -1.56669,11.54986 -4.29995,14.84981 -2.73334,3.29995 -5.96662,4.94993 -9.69987,4.94993 -4.08747,-0.0167 -7.76242,-1.9833 -11.02486,-5.89992 -3.26247,-3.91661 -4.98745,-9.6832 -5.17493,-17.29978 0.25831,-9.98317 2.64162,-19.46638 7.14991,-28.44964 4.50825,-8.98315 9.59151,-13.96641 15.2498,-14.9498 0.49579,0.2084 0.85411,0.59173 1.07498,1.14999 0.22079,0.55839 0.32913,1.24171 0.325,2.04997 -0.1167,2.5167 -0.78336,5.13333 -1.99997,7.8499 -1.21669,2.71668 -2.28334,4.23333 -3.19996,4.54994 -0.40003,5e-5 -0.60003,0.20005 -0.59999,0.59999 -0.0209,0.54588 0.4208,1.1042 1.32499,1.67498 0.90411,0.57087 2.39576,0.8792 4.47493,0.92499 3.47492,-0.0666 6.32488,-1.13327 8.54989,-3.19996 2.22492,-2.06659 3.37491,-4.73322 3.44996,-7.9999 -0.004,-0.50826 -0.0459,-1.04159 -0.125,-1.59997 -0.0792,-0.55827 -0.17089,-1.0916 -0.275,-1.59998 -0.56254,-6.77485 -2.18752,-11.77478 -4.87494,-14.99981 -2.68751,-3.22488 -6.06246,-4.82486 -10.12486,-4.79994 -6.46415,0.20749 -12.24679,3.0593 -17.34793,8.55545 -5.10119,5.49629 -9.1357,12.39249 -12.10355,20.68862 -2.96787,8.29623 -4.48389,16.74796 -4.54808,25.35523 z"
           inkscape:connector-curvature="0" />
      </g>
      <g
         transform="matrix(2.3299034,0,0,2.3299034,436.72675,-1457.5913)"
         inkscape:export-ydpi="32.843575"
         inkscape:export-xdpi="32.843575"
         inkscape:export-filename="C:\Users\Émile\Desktop\SÉMINAIRE TAL\graphismes\TocTocToque_logo2-web-footer.png"
         id="text2993"
         style="font-style:normal;font-weight:normal;font-size:40px;line-height:125%;font-family:Sans;letter-spacing:0px;word-spacing:0px;fill:#222e3d;fill-opacity:1;stroke:none">
        <path
           sodipodi:nodetypes="cccscccccccccccscsscscsssccsscccccccccccscccccc"
           inkscape:connector-curvature="0"
           id="path3848"
           d="m 214.71875,803.96875 c -0.50418,0.0251 -0.96461,0.16263 -1.34375,0.4375 -0.37918,0.27513 -0.67086,0.52512 -0.875,0.75 -0.0459,1.67927 -0.58545,5.58353 -1.65625,11.6875 -1.07084,6.10419 -2.3917,13.9523 -3.9375,23.53125 l -2,0 c -5.03744,0.0126 -9.71881,-0.28116 -14.03125,-0.84375 -4.31244,-0.5624 -8.01878,-1.49367 -11.15625,-2.78125 -0.39998,-0.56656 -0.81874,-0.81448 -1.21875,-0.78125 -0.59998,0.0876 -1.04373,0.65635 -1.34375,1.71875 -0.29998,1.06258 -0.43749,2.07511 -0.4375,3.0625 -0.0125,5.31669 1.25005,9.03969 3.8125,11.15625 2.56248,2.11672 6.49383,3.14591 11.78125,3.0625 1.81248,0.004 3.80003,-0.0666 5.9375,-0.1875 2.13747,-0.12075 4.34377,-0.32909 6.65625,-0.625 -0.9375,7.45414 -1.75626,15.246 -2.46875,23.375 -0.71249,8.12911 -1.08751,15.67096 -1.125,22.625 -0.0435,5.64007 -1.67024,29.34979 -1.96875,52.6875 -0.30241,23.64352 0.74208,46.90537 1.96875,50.59375 2.43747,7.3291 8.15905,14.1513 22.25181,8.3708 14.09276,-5.7804 37.70764,-17.18013 58.99373,-10.6788 11.6807,3.5675 22.2218,16.629 31.59375,23.7187 -0.26669,-6.79 2.22359,-8.8565 -1.79791,-13.4289 -5.75696,-6.5457 -16.32302,-15.44626 -27.4297,-18.80651 -10.23804,-3.09745 -20.88177,-0.95052 -29.86168,-0.11279 -14.14093,1.3192 -33.12593,12.1311 -38.57026,10.5416 -5.44433,-1.5895 -6.07143,-3.90621 -6.11724,-7.01035 0.0261,-5.08087 -0.8244,-28.21604 0.0625,-47.15625 1.37498,-29.36444 4.7942,-57.9121 5.625,-64.96875 1.36666,-11.60812 2.97708,-22.19173 4.84375,-31.75 11.34565,-1.82907 21.74799,-3.81453 31.21875,-5.96875 9.47064,-2.15405 15.34788,-3.69576 17.59375,-4.625 -0.0126,-0.0207 0.11243,-0.36658 0.375,-1.0625 0.26242,-0.69573 0.71868,-1.62909 1.40625,-2.75 0.38742,-0.4499 0.98743,-0.78116 1.75,-1.03125 0.76241,-0.2499 1.16242,-0.69366 1.25,-1.34375 -0.0917,-0.76656 -0.75843,-1.23949 -2,-1.40625 -1.24173,-0.16657 -2.48967,-0.25198 -3.78125,-0.21875 -2.32087,0.12927 -7.72309,0.89595 -16.21875,2.25 -8.49577,1.35425 -18.17935,2.53344 -29,3.5625 1.09162,-5.39567 2.12081,-10.29787 3.0625,-14.71875 0.94162,-4.42066 1.85832,-8.99161 2.75,-13.6875 -0.30003,-2.02901 -2.05008,-3.37697 -5.25,-4.03125 -3.19999,-0.65403 -6.06256,-1.63947 -8.5625,-2.96875 -0.10835,-0.0957 -0.21668,-0.13528 -0.375,-0.15625 -0.15835,-0.0207 -0.29794,-0.0353 -0.40625,-0.0312 z"
           style="font-variant:normal;font-stretch:normal;font-size:200px;font-family:'Hipster Script Pro';-inkscape-font-specification:'Hipster Script Pro';fill:#222e3d;fill-opacity:1;stroke:none" />
        <path
           inkscape:connector-curvature="0"
           id="path3850"
           style="font-variant:normal;font-stretch:normal;font-size:200px;font-family:'Hipster Script Pro';-inkscape-font-specification:'Hipster Script Pro';fill:#222e3d;fill-opacity:1;stroke:none"
           d="m 281.1762,869.76299 c -2.47918,0.90838 -4.92082,1.9417 -7.32491,3.09996 -2.40418,1.15837 -3.69582,1.7917 -3.87495,1.89997 2.58326,1.58754 4.46657,4.2625 5.64993,8.0249 1.18327,3.7625 1.7666,8.08744 1.74998,12.97483 -0.0792,8.66659 -1.57086,16.68314 -4.47495,24.04969 -2.90416,7.36658 -6.74578,11.28319 -11.52485,11.74985 -3.59997,-0.17083 -6.29994,-2.47913 -8.0999,-6.92491 -1.79999,-4.44576 -2.69998,-10.00402 -2.69996,-16.67478 -0.0125,-10.4165 2.11246,-20.23304 6.37492,-29.44963 4.26242,-9.21649 10.73733,-14.13308 19.42475,-14.7498 2.79992,-0.0333 5.79988,0.63339 8.99988,1.99997 -0.12921,-6.00402 -1.77086,-10.19563 -4.92494,-12.57484 -3.15417,-2.37905 -7.04578,-3.5207 -11.67484,-3.42495 -6.37649,0.20255 -11.95666,2.97535 -16.74053,8.31841 -4.7839,5.3432 -8.51225,12.04187 -11.18505,20.09603 -2.6728,8.05426 -4.03081,16.24921 -4.07401,24.58487 -0.0625,9.49157 1.91247,17.55813 5.92493,24.19969 4.01243,6.64158 10.43734,10.1082 19.27474,10.39987 8.83735,-0.5875 15.91226,-5.76243 21.22473,-15.5248 5.31238,-9.76236 8.03734,-20.58721 8.1749,-32.47458 0.004,-0.60829 -0.004,-1.24161 -0.025,-1.89998 -0.0209,-0.65828 -0.0792,-1.2916 -0.17499,-1.89997 2.59574,-1.19161 4.70404,-2.55826 6.32491,-4.09996 1.62075,-1.54159 2.77907,-3.30823 3.47496,-5.29992 -6e-5,-0.39161 -0.10006,-0.65827 -0.3,-0.79999 -0.20006,-0.14161 -0.50006,-0.20828 -0.89998,-0.2 -3.98751,0.11255 -7.21247,-0.11244 -9.67488,-0.67499 -2.46252,-0.56244 -5.43748,-2.13742 -8.92488,-4.72494 z" />
        <path
           sodipodi:nodetypes="csscscscscccscsccscccccccccccccsscccssc"
           inkscape:connector-curvature="0"
           id="path3852"
           d="m 329.09375,854.375 c -6.30117,0.20748 -11.77917,2.96287 -16.40625,8.28125 -4.62711,5.31851 -8.18052,11.93442 -10.71875,19.875 -2.53824,7.94068 -3.84043,15.95732 -3.875,24.03125 -0.0333,8.54575 1.57713,15.75426 4.84375,21.625 3.26661,5.87076 8.37716,8.94166 15.34375,9.1875 2.81661,-0.0583 5.53959,-1.19794 8.15625,-3.40625 2.6166,-2.20831 5.03332,-5.15422 7.25,-8.8125 -2.66668,12.95399 -4.88964,25.68973 -6.65625,38.21875 -1.76668,12.52897 -2.68337,23.93341 -2.75,34.1875 -0.0567,9.5593 1.02882,17.2188 3.1875,23.0313 4.08571,2.8121 10.06941,-0.9367 10.34375,-7.2813 -0.15583,-0.4764 -0.30563,-1.0019 -0.4375,-1.5625 -0.86252,-3.6667 -1.29379,-8.721 -1.28125,-15.1875 0.0208,-8.45412 0.61664,-18.38352 1.8125,-29.8125 1.18373,-11.31388 2.84725,-23.20872 4.04863,-29.93249 l 4.15373,-24.53284 c 1.01486,-5.46534 2.88183,-14.55788 4.89139,-23.31592 2.11658,-9.22483 4.2833,-17.64379 6.5,-25.21875 0.0958,-0.1916 0.13535,-0.35827 0.15625,-0.5 0.0208,-0.1416 0.0353,-0.30827 0.0312,-0.5 -0.10423,-1.18742 -0.83966,-2.33744 -2.21875,-3.5 -1.37921,-1.16241 -2.78341,-1.78743 -4.1875,-1.875 -0.40838,7e-5 -0.76672,0.0813 -1.125,0.28125 -0.35838,0.20007 -0.66672,0.50633 -0.875,0.90625 l -3,12 c -0.66671,-4.78738 -2.35842,-8.66247 -5.125,-11.625 -2.76667,-2.96239 -6.79593,-4.47493 -12.0625,-4.5625 z m 0.1875,15.1875 c 1.59995,-0.0166 3.26874,0.51049 4.96875,1.59375 1.69994,1.08338 3.44998,2.83551 5.25,5.21875 -0.55189,5.60615 -1.62251,12.3567 -3.21875,20.28125 -1.59632,7.92462 -4.0003,14.98722 -7.21875,21.15625 -3.2185,6.16906 -7.55033,9.4105 -12.96875,9.75 -1.99999,-0.0708 -3.50003,-1.39169 -4.5,-3.9375 -1.00001,-2.54579 -1.50002,-5.89171 -1.5,-10.0625 0.0185,-5.39126 0.7919,-11.47351 2.34375,-18.25 1.55181,-6.77641 3.76206,-12.68458 6.625,-17.75 2.8629,-5.06531 6.26692,-7.74192 10.21875,-8 z"
           style="font-variant:normal;font-stretch:normal;font-size:200px;font-family:'Hipster Script Pro';-inkscape-font-specification:'Hipster Script Pro';fill:#222e3d;fill-opacity:1;stroke:none" />
        <path
           sodipodi:nodetypes="cccscsccssscscsccccccccccccccccccccccc"
           inkscape:connector-curvature="0"
           id="path3854"
           d="m 421.46875,854.5625 c -0.89588,0.008 -1.68548,0.34175 -2.40625,1 -0.72087,0.6584 -1.40423,1.60425 -2,2.8125 -1.75837,3.68335 -3.36674,8.96057 -4.875,15.84375 -1.50836,6.8833 -2.56672,14.27306 -3.125,22.15625 -2.91251,8.07492 -6.48134,15.65636 -10.71875,22.78125 -4.23747,7.12492 -7.86257,10.93125 -10.875,11.40625 -1.20834,0.0292 -2.12294,-0.81669 -2.78125,-2.5625 -0.65834,-1.7458 -1.0861,-4.56766 -1,-8.4375 0.4433,-19.92514 9.89456,-36.2884 8.73319,-39.01543 -1.54647,-3.63128 -8.00288,4.90486 -12.481,9.91904 -8.02408,8.98461 -7.44914,23.80131 -7.93236,22.17829 -0.0875,9.17906 -1.80106,13.07653 0.33642,19.4806 2.13746,6.40408 5.9313,9.75207 11.34375,10.03125 5.4124,-0.50417 10.23127,-4.43343 14.46875,-11.8125 4.23741,-7.37906 7.80625,-15.17093 10.71875,-23.375 0.0166,8.75407 1.32082,16.12717 3.9375,22.15625 2.61658,6.02909 7.03336,9.18333 13.25,9.4375 5.29986,-0.6 9.60622,-3.23757 12.90625,-7.9375 3.29988,-4.69994 4.99367,-7.86876 5.09375,-9.46875 -0.0168,-0.56248 -0.0709,-0.93749 -0.1875,-1.125 -0.11674,-0.18749 -0.17091,-0.39374 -0.1875,-0.65625 0.008,-0.28332 0.0353,-0.47915 0.0937,-0.5625 0.0582,-0.0833 0.0854,-0.16665 0.0937,-0.25 0.16658,-0.79997 0.22075,-1.41249 0.1875,-1.8125 0.0333,-0.39998 -0.0209,-0.59373 -0.1875,-0.59375 -0.34174,0.0792 -0.81467,0.53961 -1.40625,1.34375 -0.59174,0.80417 -1.06467,1.48336 -1.40625,2.0625 -1.99588,2.9833 -3.78551,5.1792 -5.40625,6.5625 -1.62088,1.38332 -3.07925,2.04792 -4.375,2.03125 -2.49586,-0.14166 -4.37299,-2.30838 -5.59375,-6.5 -1.22087,-4.1916 -1.81673,-9.55215 -1.8125,-16.09375 0.11244,-9.37068 0.73746,-18.46674 1.875,-27.3125 1.13743,-8.84566 2.12494,-14.61038 2.9375,-17.28125 0.23326,-0.76658 0.3416,-1.43327 0.375,-2 -0.15423,-0.97075 -1.08341,-1.9291 -2.8125,-2.875 -1.7292,-0.94574 -3.32717,-1.46034 -4.78125,-1.53125 z"
           style="font-variant:normal;font-stretch:normal;font-size:200px;font-family:'Hipster Script Pro';-inkscape-font-specification:'Hipster Script Pro';fill:#222e3d;fill-opacity:1;stroke:none" />
        <path
           inkscape:connector-curvature="0"
           id="path3856"
           style="font-variant:normal;font-stretch:normal;font-size:200px;font-family:'Hipster Script Pro';-inkscape-font-specification:'Hipster Script Pro';fill:#222e3d;fill-opacity:1;stroke:none"
           d="m 472.58891,930.9622 c -3.38749,0.0792 -6.36245,-1.67914 -8.92489,-5.27493 -2.56248,-3.59578 -4.18746,-9.50403 -4.87493,-17.72477 10.44567,-6.19156 18.10389,-13.00813 22.9747,-20.44974 4.87072,-7.44152 7.27903,-14.35809 7.22491,-20.74973 -0.0209,-4.68321 -1.2292,-8.46649 -3.62496,-11.34986 -2.39585,-2.88322 -5.85413,-4.36653 -10.37486,-4.44994 -9.82073,0.60424 -17.57896,6.04583 -23.27471,16.32479 -5.69576,10.2791 -8.60405,21.7706 -8.72488,34.47456 -0.0708,10.34155 2.2208,19.20809 6.87491,26.59965 4.65409,7.39157 12.09566,11.25819 22.32471,11.59985 7.54987,-0.2875 13.69978,-3.21245 18.44976,-8.77488 4.74989,-5.56242 7.19985,-12.03734 7.34991,-19.42475 0.0874,-3.69576 -0.48755,-7.10405 -1.72498,-10.22487 -1.23754,-3.12076 -3.6625,-4.77907 -7.2749,-4.97494 -1.15003,0.0375 -1.85002,0.21254 -2.09998,0.525 -0.25004,0.31253 -0.35004,0.53753 -0.29999,0.67499 1.19994,3.79998 1.79993,7.39993 1.79997,10.79986 -0.17087,6.62076 -1.82918,11.97902 -4.97493,16.07479 -3.14583,4.09578 -6.75411,6.20409 -10.82486,6.32492 z m 4.79994,-64.59917 c -0.28337,5.33332 -2.41667,11.41657 -6.39992,18.24976 -3.98331,6.83329 -8.11658,11.81656 -12.39984,14.94981 0.28331,-9.329 1.86662,-17.72055 4.74994,-25.17467 2.88327,-7.45401 6.56655,-11.39562 11.04986,-11.82485 1.08744,0.0459 1.86243,0.45423 2.32496,1.22499 0.46246,0.77089 0.68746,1.62921 0.675,2.57496 z" />
      </g>
      <path
         inkscape:export-ydpi="32.843575"
         inkscape:export-xdpi="32.843575"
         inkscape:export-filename="C:\Users\Émile\Desktop\SÉMINAIRE TAL\graphismes\TocTocToque_logo2-web-footer.png"
         sodipodi:nodetypes="scccccccsccsss"
         inkscape:connector-curvature="0"
         id="path3821"
         d="m 895.06245,337.16225 c -8.81438,0.22321 -17.58434,1.89183 -24.28359,3.8101 -6.69927,1.91825 -15.70629,6.4001 -25.66376,12.71766 -32.7009,25.06696 -50.05475,70.48954 -43.68574,107.02996 6.01114,32.16771 31.06771,60.52023 59.84953,69.0962 19.59892,6.27874 40.69359,5.18812 60.72303,2.11146 4.13898,-8.25221 -2.41248,-18.55115 -2.18426,-27.74041 -3.75035,-9.13669 -17.51776,-2.40904 -25.5561,-4.51419 -18.83603,-1.09665 -21.0897,-1.88917 -39.09878,-9.53804 -36.50481,-15.50455 -48.38195,-55.16125 -42.88471,-73.97445 9.71838,-31.37012 33.48757,-48.2408 55.955,-55.09809 37.53043,-12.5059 52.89332,33.38169 53.84161,19.56706 0.59536,-8.67137 3.45689,-30.21785 0.94655,-34.43889 -4.18918,-7.04434 -16.06458,-9.32941 -27.95878,-9.02837 z"
         style="color:#000000;font-style:normal;font-variant:normal;font-weight:normal;font-stretch:normal;font-size:medium;line-height:normal;font-family:Sans;-inkscape-font-specification:Sans;text-indent:0;text-align:start;text-decoration:none;text-decoration-line:none;letter-spacing:normal;word-spacing:normal;text-transform:none;direction:ltr;block-progression:tb;writing-mode:lr-tb;baseline-shift:baseline;text-anchor:start;display:inline;overflow:visible;visibility:visible;fill:#222e3d;fill-opacity:1;stroke:none;stroke-width:13.80000019;marker:none;enable-background:accumulate" />
      <path
         inkscape:export-ydpi="32.843575"
         inkscape:export-xdpi="32.843575"
         inkscape:export-filename="C:\Users\Émile\Desktop\SÉMINAIRE TAL\graphismes\TocTocToque_logo2-web-footer.png"
         sodipodi:nodetypes="ccccsscscc"
         inkscape:connector-curvature="0"
         id="path3899"
         d="m 884.94028,252.14527 c 38.92722,-28.46224 109.27391,-11.21679 140.45632,25.79299 27.8208,33.95785 31.9766,57.15225 27.8344,88.98847 1.9423,14.39628 -18.4395,13.66693 -19.9453,6.1382 -1.4935,-42.24918 4.1553,-78.64608 -42.81731,-106.74502 -18.48228,-11.05604 -54.58897,-15.6075 -82.38289,-2.3158 -47.63624,22.78073 -26.92873,56.61333 -37.51701,56.83431 -5.36783,3.79946 -15.52774,12.90307 -20.92887,10.17931 -3.13953,-1.58325 -3.2362,-9.31515 -3.59959,-18.78227 -0.89392,-28.62599 20.49298,-46.92377 38.90025,-60.09019 z"
         style="fill:#222e3d;fill-opacity:1;stroke:none" />
      <path
         inkscape:export-ydpi="32.843575"
         inkscape:export-xdpi="32.843575"
         inkscape:export-filename="C:\Users\Émile\Desktop\SÉMINAIRE TAL\graphismes\TocTocToque_logo2-web-footer.png"
         sodipodi:nodetypes="cccscccccsc"
         inkscape:connector-curvature="0"
         id="path3903"
         d="m 1165.4108,225.05327 c 15.4747,4.32803 29.4263,13.32987 41.1515,24.1658 12.0256,13.01906 22.0783,27.77853 31.8124,42.5548 3.4623,8.07496 32.0355,40.76374 12.7937,39.36362 -4.9704,-0.36164 -3.99,1.5716 -17.3516,1.09308 -9.9702,-3.19129 -13.5388,-19.45141 -21.3802,-29.87348 -12.5381,-19.54887 -27.8616,-38.42409 -49.2289,-48.69532 -19.3732,-9.9079 -41.7758,-12.9931 -63.308,-10.8354 -20.5805,1.12771 -41.7999,12.15979 -60.9636,19.04993 -1.4683,2.63989 -12.7608,-3.13759 -10.2947,-5.65781 23.7272,-24.2487 87.3042,-49.18449 136.7694,-31.16522 z"
         style="fill:#222e3d;fill-opacity:1;stroke:none" />
      <path
         inkscape:export-ydpi="32.843575"
         inkscape:export-xdpi="32.843575"
         inkscape:export-filename="C:\Users\Émile\Desktop\SÉMINAIRE TAL\graphismes\TocTocToque_logo2-web-footer.png"
         sodipodi:nodetypes="ssssscscccss"
         inkscape:connector-curvature="0"
         id="path3905"
         d="m 1243.3101,349.75829 c -17.4629,0.0855 -35.2004,2.90866 -51.9131,8.4459 -25.5606,8.4687 -41.1525,14.68429 -56.5002,25.2649 -2.457,1.69384 -3.1656,4.37676 -1.529,7.13532 6.2649,10.56 9.2402,12.8157 15.5084,10.41176 17.7869,-6.82136 54.0266,-25.77381 93.4147,-29.1238 47.8204,-3.69163 108.2664,31.14154 111.3652,101.71587 3.7558,85.53226 -80.2751,179.10214 -111.2197,90.64681 l -19.5129,11.79513 c 37.9506,119.22718 138.8939,-5.6968 142.7377,-78.51037 12.0382,-57.34271 -11.5768,-95.32749 -23.9127,-109.26531 -22.8208,-25.78417 -60.0199,-38.70411 -98.4384,-38.51621 z"
         style="fill:#222e3d;fill-opacity:1;stroke:none" />
      <g
         id="text3916"
         style="font-style:normal;font-weight:normal;font-size:195.66812134px;line-height:125%;font-family:Sans;letter-spacing:0px;word-spacing:0px;fill:#222e3d;fill-opacity:1;stroke:none"
         transform="matrix(2.3299034,0,0,2.3299034,-51.272395,-168.77304)">
        <path
           id="path3001"
           style="font-variant:normal;font-stretch:normal;font-size:200px;font-family:'Hipster Script Pro';-inkscape-font-specification:'Hipster Script Pro';fill:#222e3d;fill-opacity:1;stroke:none"
           d="m 59.752958,251.34894 c -0.04585,1.67927 -0.604175,5.57088 -1.67498,11.67485 -1.070835,6.10419 -2.37915,13.94575 -3.924948,23.5247 l -1.999974,0 c -5.037439,0.0126 -9.712374,-0.26241 -14.024818,-0.825 -4.312434,-0.5624 -8.037383,-1.48738 -11.174857,-2.77496 -0.399979,-0.56656 -0.799973,-0.83323 -1.199985,-0.79999 -0.599974,0.0876 -1.049969,0.66259 -1.349986,1.72499 -0.299979,1.06258 -0.449976,2.08756 -0.449991,3.07495 -0.01248,5.31669 1.262501,9.0333 3.824952,11.14986 2.562482,2.11671 6.487427,3.13337 11.774847,3.04996 1.81248,0.004 3.787453,-0.0541 5.924926,-0.175 2.137467,-0.12075 4.362436,-0.32908 6.674912,-0.62499 -0.937498,7.45414 -1.762488,15.2457 -2.474972,23.3747 -0.712499,8.12911 -1.087492,15.67067 -1.124982,22.62471 -0.0875,11.35404 1.087485,20.69558 3.52496,28.02463 2.437456,7.32907 6.662396,11.12069 12.674832,11.37486 3.579094,0.0375 6.870715,-1.68748 9.874871,-5.17493 3.004093,-3.48745 5.245729,-8.96238 6.724915,-16.42479 0.0208,-0.32916 -0.02087,-0.67082 -0.125,-1.025 -0.104205,-0.35414 -0.395867,-0.5458 -0.874987,-0.57498 -0.412533,0.0125 -0.787528,0.13751 -1.124987,0.37499 -0.337531,0.23752 -0.562528,0.51251 -0.67499,0.82499 -1.366685,4.28745 -3.083328,7.46241 -5.149933,9.52488 -2.066667,2.06247 -4.083306,3.08746 -6.049923,3.07496 -1.745834,-0.004 -3.204148,-0.79582 -4.374945,-2.37497 -1.170837,-1.57914 -1.779161,-3.92077 -1.824975,-7.02491 0.06665,-12.95814 0.78331,-25.24131 2.149976,-36.84953 1.366625,-11.60812 2.983268,-22.19131 4.849934,-31.74959 11.345648,-1.82906 21.753837,-3.8207 31.224597,-5.97492 9.470643,-2.15405 15.328903,-3.6957 17.574773,-4.62494 -0.0126,-0.0207 0.11243,-0.37907 0.375,-1.07499 0.26242,-0.69573 0.73741,-1.60405 1.42498,-2.72496 0.38742,-0.4499 0.96241,-0.7999 1.72498,-1.04999 0.76241,-0.2499 1.1874,-0.69989 1.27498,-1.34998 -0.0917,-0.76656 -0.7584,-1.23322 -1.99997,-1.39998 -1.24173,-0.16657 -2.50838,-0.23323 -3.79996,-0.2 -2.32087,0.12927 -7.72913,0.87092 -16.224791,2.22497 -8.495772,1.35425 -18.15397,2.5459 -28.974622,3.57496 1.091622,-5.39567 2.108274,-10.30394 3.04996,-14.72482 0.941625,-4.42066 1.858279,-8.97893 2.749965,-13.67482 -0.300031,-2.02901 -2.050008,-3.37066 -5.249935,-4.02494 -3.199984,-0.65404 -6.049944,-1.64569 -8.549887,-2.97497 -0.108349,-0.0957 -0.241681,-0.15403 -0.399995,-0.175 -0.158353,-0.0207 -0.291685,-0.029 -0.399995,-0.025 -0.504178,0.0251 -0.945839,0.17512 -1.324984,0.44999 -0.379181,0.27513 -0.670843,0.52512 -0.874988,0.74999 z"
           inkscape:connector-curvature="0" />
        <path
           id="path3003"
           style="font-variant:normal;font-stretch:normal;font-size:200px;font-family:'Hipster Script Pro';-inkscape-font-specification:'Hipster Script Pro';fill:#222e3d;fill-opacity:1;stroke:none"
           d="m 128.41508,315.94811 c -2.47918,0.90838 -4.92082,1.9417 -7.32491,3.09996 -2.40418,1.15837 -3.69582,1.7917 -3.87495,1.89997 2.58326,1.58754 4.46657,4.2625 5.64993,8.0249 1.18327,3.7625 1.7666,8.08744 1.74998,12.97483 -0.0792,8.66659 -1.57086,16.68314 -4.47495,24.04969 -2.90416,7.36658 -6.74577,11.28319 -11.52485,11.74985 -3.59997,-0.17083 -6.29994,-2.47913 -8.0999,-6.92491 -1.799992,-4.44576 -2.699979,-10.00402 -2.699959,-16.67478 -0.01251,-10.4165 2.112458,-20.23304 6.374919,-29.44963 4.26242,-9.21649 10.73733,-14.13308 19.42475,-14.7498 2.79992,-0.0333 5.79988,0.63339 8.99988,1.99997 -0.12921,-6.00402 -1.77085,-10.19563 -4.92493,-12.57484 -3.15418,-2.37905 -7.04579,-3.5207 -11.67485,-3.42495 -6.37649,0.20255 -11.95666,2.97535 -16.740531,8.31841 -4.783903,5.3432 -8.512247,12.04187 -11.185044,20.09603 -2.672809,8.05426 -4.030813,16.24921 -4.074016,24.58487 -0.0625,9.49157 1.912475,17.55813 5.924928,24.19969 4.012438,6.64158 10.437343,10.1082 19.274743,10.39987 8.83735,-0.5875 15.91226,-5.76243 21.22473,-15.5248 5.31238,-9.76236 8.03734,-20.58721 8.1749,-32.47458 0.004,-0.60829 -0.004,-1.24162 -0.025,-1.89998 -0.0209,-0.65828 -0.0792,-1.2916 -0.17499,-1.89998 2.59574,-1.1916 4.70404,-2.55825 6.32491,-4.09995 1.62075,-1.54159 2.77907,-3.30823 3.47496,-5.29992 -6e-5,-0.39161 -0.10006,-0.65827 -0.3,-0.79999 -0.20006,-0.14162 -0.50006,-0.20828 -0.89998,-0.2 -3.98751,0.11255 -7.21247,-0.11244 -9.67488,-0.67499 -2.46252,-0.56244 -5.43748,-2.13742 -8.92488,-4.72494 z"
           inkscape:connector-curvature="0" />
        <path
           id="path3005"
           style="font-variant:normal;font-stretch:normal;font-size:200px;font-family:'Hipster Script Pro';-inkscape-font-specification:'Hipster Script Pro';fill:#222e3d;fill-opacity:1;stroke:none"
           d="m 146.13439,350.94766 c 0.37083,12.20819 3.67912,21.39139 9.92488,27.54964 6.24573,6.15825 13.20397,9.24154 20.87473,9.24988 6.30404,-1e-5 11.69563,-2.14998 16.17479,-6.44992 4.47905,-4.29994 6.82069,-10.74985 7.02491,-19.34974 -0.0626,-4.96658 -1.03754,-9.23319 -2.92497,-12.79984 -1.88753,-3.56659 -4.31249,-5.43323 -7.2749,-5.59993 -1.15003,0.0375 -1.85002,0.21254 -2.09998,0.525 -0.25004,0.31253 -0.35004,0.53753 -0.29999,0.67499 1.59993,4.99996 2.39992,9.5999 2.39997,13.79982 -0.13338,6.59993 -1.56669,11.54986 -4.29995,14.84981 -2.73334,3.29995 -5.96662,4.94993 -9.69987,4.94993 -4.08748,-0.0167 -7.76243,-1.9833 -11.02486,-5.89992 -3.26248,-3.91661 -4.98745,-9.6832 -5.17493,-17.29978 0.25831,-9.98317 2.64161,-19.46638 7.14991,-28.44964 4.50825,-8.98315 9.59151,-13.96641 15.2498,-14.9498 0.49578,0.2084 0.85411,0.59173 1.07498,1.14999 0.22079,0.55839 0.32913,1.24171 0.325,2.04997 -0.1167,2.5167 -0.78336,5.13333 -1.99997,7.8499 -1.21669,2.71668 -2.28334,4.23333 -3.19996,4.54994 -0.40003,5e-5 -0.60003,0.20005 -0.59999,0.59999 -0.0209,0.54588 0.4208,1.1042 1.32498,1.67498 0.90412,0.57087 2.39577,0.8792 4.47494,0.92499 3.47491,-0.0666 6.32487,-1.13327 8.54989,-3.19996 2.22492,-2.06659 3.37491,-4.73322 3.44996,-7.9999 -0.004,-0.50826 -0.0459,-1.04159 -0.125,-1.59997 -0.0792,-0.55827 -0.17089,-1.0916 -0.275,-1.59998 -0.56254,-6.77485 -2.18752,-11.77478 -4.87494,-14.99981 -2.68751,-3.22488 -6.06246,-4.82486 -10.12486,-4.79994 -6.46415,0.20749 -12.24679,3.0593 -17.34793,8.55545 -5.10119,5.49629 -9.1357,12.39249 -12.10355,20.68862 -2.96787,8.29623 -4.48389,16.74796 -4.54809,25.35523 z"
           inkscape:connector-curvature="0" />
      </g>
      <path
         inkscape:export-ydpi="32.843575"
         inkscape:export-xdpi="32.843575"
         inkscape:export-filename="C:\Users\Émile\Desktop\SÉMINAIRE TAL\graphismes\TocTocToque_logo2-web-footer.png"
         sodipodi:nodetypes="sssscscccccssssccs"
         inkscape:connector-curvature="0"
         id="path3948"
         d="m 214.24818,909.02284 c -27.97363,-0.51515 -30.65487,-9.06658 -55.40396,-21.64108 -22.31623,-11.33847 -26.13923,-35.9734 -16.25614,-54.99118 10.82874,-20.83752 13.50434,-28.44693 34.63013,-40.98234 26.29307,-15.60153 55.911,-18.95825 87.9725,-20.54475 41.33226,-2.39372 79.40946,-0.021 120.59482,4.38546 41.45444,4.43434 84.50083,12.03447 126.23138,17.63327 74.33512,10.77785 103.74213,25.03694 179.36242,23.74923 89.75841,-1.68553 184.92885,-42.17199 158.38286,-26.83807 -15.05575,8.73368 -77.202,30.00421 -96.01815,33.02513 -45.12901,12.51548 -124.12587,14.5036 -170.45413,11.82091 -39.1373,-3.13766 -77.81638,-9.31046 -116.34285,-15.37576 -41.15824,-6.47962 -80.3699,-19.17855 -121.57978,-23.13662 -51.18398,-4.91603 -93.61964,-13.02614 -141.74599,4.75643 -27.66874,10.22353 -36.49724,28.02271 -22.16719,44.77458 18.62562,21.7734 39.67618,31.10518 70.43536,34.37753 20.90044,0.83807 19.93725,5.76768 4.3432,12.21546 -10.93233,6.10108 -29.46706,17.00222 -41.98448,16.7718 z"
         style="fill:#222e3d;fill-opacity:1;stroke:none" />
      <path
         inkscape:export-ydpi="32.843575"
         inkscape:export-xdpi="32.843575"
         inkscape:export-filename="C:\Users\Émile\Desktop\SÉMINAIRE TAL\graphismes\TocTocToque_logo2-web-footer.png"
         sodipodi:nodetypes="cccsscc"
         inkscape:connector-curvature="0"
         id="path3953"
         d="m 938.55609,1053.3248 c 23.10523,-3.5438 31.31676,-53.1535 66.82321,-23.0116 1.1193,0.8739 0.6539,0.7272 2.4625,3.0631 -52.26546,12.3084 -28.11048,37.406 -63.81692,44.4788 -24.1067,4.7751 -37.90712,-17.7934 -37.30705,-36.2761 1.08804,-33.5087 35.39744,-35.0955 42.63193,-34.8102 -57.99375,14.8185 -24.36858,47.2044 -10.79367,46.556 z"
         style="fill:#222e3d;fill-opacity:1;stroke:none" />
      <path
         inkscape:export-ydpi="32.843575"
         inkscape:export-xdpi="32.843575"
         inkscape:export-filename="C:\Users\Émile\Desktop\SÉMINAIRE TAL\graphismes\TocTocToque_logo2-web-footer.png"
         style="fill:#222e3d;fill-opacity:1;stroke:none"
         d="m 1084.3448,1073.5961 c -15.2878,-11.6139 -6.2702,-73.72546 -54.4227,-39.5454 -0.9115,0.5968 -0.5326,0.5651 -2.0055,2.4537 42.5665,25.2403 12.0976,39.9116 51.9743,60.2689 19.7369,10.0758 45.7317,-5.2862 45.243,-23.9172 -0.8861,-33.7778 -29.6108,-39.1614 -35.5027,-40.6662 47.2318,29.168 5.7695,45.4133 -5.2864,41.4062 z"
         id="path3958"
         inkscape:connector-curvature="0"
         sodipodi:nodetypes="cccsscc" />
      <path
         inkscape:export-ydpi="32.843575"
         inkscape:export-xdpi="32.843575"
         inkscape:export-filename="C:\Users\Émile\Desktop\SÉMINAIRE TAL\graphismes\TocTocToque_logo2-web-footer.png"
         style="fill:#222e3d;fill-opacity:1;stroke:none"
         d="m 1560.458,921.53559 c 11.6215,-0.51513 19.1681,-9.06659 29.4502,-21.64109 9.2711,-11.33846 10.8595,-35.97344 6.7534,-54.99104 -4.4987,-20.83749 -12.0431,-28.44703 -20.8197,-40.98244 -10.9234,-15.60153 -23.2281,-18.95823 -36.5481,-20.54474 -17.1714,-2.39371 -32.9905,-0.021 -50.1007,4.38546 -17.2224,4.43434 -35.106,12.03446 -52.4428,17.63328 -30.8824,10.77784 -43.0994,25.03694 -74.5157,23.74921 -37.2901,-1.68545 -76.8284,-42.17198 -65.7999,-26.83806 6.2549,8.73368 32.0734,30.00416 39.8905,33.02511 18.7486,12.51555 51.5679,14.50366 70.8149,11.821 16.2597,-3.13768 32.3288,-9.31053 48.3345,-15.37573 17.0991,-6.47969 33.3893,-19.17865 50.51,-23.13671 21.2643,-4.91604 44.0926,-11.46202 64.0865,6.32055 11.4952,10.22347 15.1628,28.02276 9.2094,44.77453 -7.7381,21.7734 -21.6818,29.54105 -34.4606,32.81341 -8.6831,0.83807 -8.2829,5.76768 -1.8043,12.21546 4.5417,6.10107 12.242,17.00224 17.4424,16.7718 z"
         id="path3960"
         inkscape:connector-curvature="0"
         sodipodi:nodetypes="sssscscccccssssccs" />
    </g>
  </g>
</svg>
