<?xml version="1.0" encoding="UTF-8" standalone="no"?>
<!-- Created with Inkscape (http://www.inkscape.org/) -->

<svg
   xmlns:dc="http://purl.org/dc/elements/1.1/"
   xmlns:cc="http://creativecommons.org/ns#"
   xmlns:rdf="http://www.w3.org/1999/02/22-rdf-syntax-ns#"
   xmlns:svg="http://www.w3.org/2000/svg"
   xmlns="http://www.w3.org/2000/svg"
   xmlns:sodipodi="http://sodipodi.sourceforge.net/DTD/sodipodi-0.dtd"
   xmlns:inkscape="http://www.inkscape.org/namespaces/inkscape"
   width="64px"
   height="64px"
   id="svg3004"
   version="1.1"
   inkscape:version="0.91 r13725"
   sodipodi:docname="favicon.svg"
   inkscape:export-filename="C:\Users\emile\Desktop\layout4\img\logo\favicon.png"
   inkscape:export-xdpi="90"
   inkscape:export-ydpi="90">
  <defs
     id="defs3006" />
  <sodipodi:namedview
     id="base"
     pagecolor="#ffffff"
     bordercolor="#666666"
     borderopacity="1.0"
     inkscape:pageopacity="0.0"
     inkscape:pageshadow="2"
     inkscape:zoom="5.2295739"
     inkscape:cx="-22.93003"
     inkscape:cy="11.967651"
     inkscape:current-layer="layer1"
     showgrid="true"
     inkscape:document-units="px"
     inkscape:grid-bbox="true"
     inkscape:snap-page="true"
     inkscape:snap-global="true"
     inkscape:window-width="1470"
     inkscape:window-height="841"
     inkscape:window-x="-8"
     inkscape:window-y="-8"
     inkscape:window-maximized="1"
     inkscape:object-paths="true"
     inkscape:object-nodes="true"
     inkscape:snap-smooth-nodes="true"
     inkscape:snap-object-midpoints="false"
     showguides="false" />
  <metadata
     id="metadata3009">
    <rdf:RDF>
      <cc:Work
         rdf:about="">
        <dc:format>image/svg+xml</dc:format>
        <dc:type
           rdf:resource="http://purl.org/dc/dcmitype/StillImage" />
        <dc:title />
      </cc:Work>
    </rdf:RDF>
  </metadata>
  <g
     id="layer1"
     inkscape:label="Layer 1"
     inkscape:groupmode="layer">
    <path
       style="opacity:1;fill:#e74536;fill-opacity:1;stroke:none;stroke-width:1.5;stroke-linecap:round;stroke-linejoin:round;stroke-miterlimit:4;stroke-dasharray:none;stroke-opacity:1"
       d="m 29.237132,4.2972606 c -1.923707,0.049119 -4.478974,1.0341056 -5.565641,1.9701939 1.715043,2.4142093 3.238307,6.3821385 1.115458,8.9388945 C 23.222601,16.252686 21.39579,14.565606 21.983521,12.844624 22.397626,9.3984684 20.229129,5.4251025 16.39996,5.4951458 13.679013,4.9998699 10.604111,6.899784 10.697237,9.8118335 c -0.253836,0.9529625 1.921734,0.012 2.542707,0.5259225 2.412134,0.529218 2.026397,3.94249 0.943435,5.427665 -1.929151,0.456004 -2.904711,-2.984144 -5.0083608,-1.472941 -3.0321768,1.008953 -4.8852712,5.217482 -2.0257424,7.506268 1.6505926,2.792428 7.0429982,3.978098 8.3923002,2.272712 0.499244,-1.32296 1.280539,2.559751 1.554537,3.946976 -1.49716,8.86719 -2.001431,20.186926 -1.593302,29.112052 3.556507,-0.337316 7.759045,-2.739549 11.492896,-2.493127 3.471508,-0.326226 5.27399,0.385305 7.821404,2.176909 1.039122,-0.738983 0.127941,-3.276407 0.549217,-4.680444 0.447026,-6.316196 1.895718,-12.50264 3.358916,-18.645616 0.515392,-2.509516 0.511582,-2.943776 0.685403,-4.159 0.354611,-1.006344 0.693564,-2.704853 2.376954,-2.291839 2.508404,0.364008 1.6027,3.410947 1.255226,4.811249 3.865515,-0.749958 5.193126,-5.408246 5.537866,-8.839442 0.310096,-5.474308 -5.854519,-9.609051 -10.841889,-7.428323 -2.161972,0.337576 -4.21763,2.330912 -6.318242,1.717537 -1.370969,-0.949943 -1.499393,-3.082884 0.266993,-3.652788 2.163321,-1.154591 4.694107,-2.01087 7.025144,-2.336638 C 36.675658,8.6743389 35.027253,4.958224 31.266458,4.4531555 30.599408,4.3196877 29.916576,4.2719931 29.237132,4.2972606 Z"
       id="path4282"
       inkscape:connector-curvature="0"
       sodipodi:nodetypes="ccccccccccccccccccccccccccc" />
    <path
       style="font-style:normal;font-variant:normal;font-weight:normal;font-stretch:normal;font-size:200px;line-height:125%;font-family:'Hipster Script Pro';-inkscape-font-specification:'Hipster Script Pro';letter-spacing:0px;word-spacing:0px;fill:#1a1a1a;fill-opacity:1;stroke:none"
       d="M 31.875128,0.29128441 C 28.684127,0.5220314 25.212623,1.5630124 23.062155,4.0214811 22.969195,5.4172178 24.88054,5.6171364 25.751052,4.8813557 29.625731,2.824996 35.0438,3.0423426 37.868637,6.7223415 c 1.440624,1.2908455 1.712134,3.5532695 3.350416,4.5991395 0.964658,0.06435 3.018844,0.417969 3.058518,-1.07051 C 43.673264,8.0865767 41.972959,6.3756281 40.7981,4.49344 38.838837,1.6184235 35.295836,0.12825093 31.875128,0.29128441 Z M 15.094775,1.9443709 C 11.662739,2.0170239 8.2021515,4.4753356 7.2711951,7.8186613 7.1847051,8.9500224 6.7383041,11.049756 8.2630464,11.346064 9.269248,11.149625 10.430289,10.551902 10.837927,9.5989535 10.543035,6.9363152 12.999595,5.0536458 15.435839,4.8332756 c 3.823346,-0.7450154 8.02989,2.1700169 7.937268,6.2497684 0.412343,1.265635 -0.645627,3.396762 0.825928,4.200313 1.259316,0.609438 2.623404,-0.600273 2.323537,-1.937613 C 27.251879,7.6281063 22.149211,2.4154111 16.592384,2.004596 16.095368,1.9498048 15.594626,1.9291078 15.094775,1.9443709 Z m -3.040693,8.6359901 c -7.07634,0.03216 -11.52729083,9.671299 -7.1168712,15.143857 1.8302374,2.491458 5.0319295,3.706439 8.0626312,3.242875 -0.817674,7.492484 -0.973347,15.047314 -1.035317,22.579639 0.248697,2.673236 -0.316916,5.599245 0.845428,8.098921 1.112916,2.186426 4.016953,1.832265 5.812892,0.781936 3.801831,-1.599381 8.636624,-3.458669 12.446634,-0.865513 1.935462,1.402343 3.516503,3.229112 5.472389,4.609589 -0.189945,-1.690476 0.685007,-3.828949 -1.055764,-5.004117 -2.483866,-2.64464 -6.112025,-4.39444 -9.793339,-3.701683 -3.308858,-0.01142 -6.243262,1.642875 -9.369545,2.368154 -1.608793,-0.197238 -0.546713,-2.306999 -0.902129,-3.303098 -0.168466,-8.769436 0.654847,-17.506182 2.085099,-26.165453 3.319879,-0.595225 6.681222,-1.136122 9.883484,-2.219067 -0.04761,-0.97423 1.698488,-1.205054 0.881236,-2.271303 -1.646263,-1.064254 -3.8132,0.124966 -5.609377,0.137567 -1.443514,0.215229 -2.923334,0.389513 -4.376733,0.538417 0.189691,-1.846173 1.155051,-3.743042 0.878777,-5.570714 -0.733384,-1.151214 -2.372886,-0.992667 -3.459803,-1.573196 -1.728125,0.229763 -0.979564,2.572293 -1.501728,3.758054 -0.380357,1.043542 -0.129525,2.844422 -0.789239,3.530269 -3.7074475,0.592761 -8.3403119,-2.00579 -8.0103971,-6.179097 0.6302102,-2.632636 3.3993118,-5.176022 6.2196561,-4.65322 1.32009,0.09551 1.805989,2.522909 3.175276,1.797499 0.456645,-1.196066 0.561279,-2.721306 0.243354,-3.984611 -0.620815,-0.97971 -1.93554,-1.107114 -2.986614,-1.095705 z m 30.041904,1.101236 c -3.456189,0.177294 -6.993955,1.273563 -9.790073,3.316003 -0.692011,1.268973 1.103076,3.161582 2.412645,2.230129 3.800471,-1.706142 8.520913,-3.652546 12.482329,-1.194032 3.943701,2.160308 5.031239,7.309 3.580865,11.275394 -0.913057,2.536021 -2.399778,5.663833 -5.335347,6.152673 -1.81923,-0.01432 -0.138256,-2.203734 -0.113073,-3.26684 0.128505,-1.492867 -2.195266,-2.828866 -2.925163,-1.231518 0.286139,1.799023 -2.103329,1.967108 -2.449571,3.070637 0.272236,1.434512 1.686879,2.607692 0.754225,4.106508 -0.659395,2.867487 -1.401697,5.714494 -1.916245,8.611356 0.603816,-0.413869 -0.627456,1.644417 -0.49224,2.779518 -0.637925,4.882375 -1.793733,10.05864 -0.233519,14.877155 1.599059,1.337251 3.913792,-0.868608 3.089856,-2.61544 -0.651801,-7.197358 0.986912,-14.40387 2.190799,-21.46307 0.137232,-0.905483 0.151105,-1.806288 1.217996,-1.388837 3.635194,-0.219495 5.98998,-3.657698 7.574082,-6.577928 1.80827,-3.810502 2.537601,-8.464262 0.917492,-12.466353 -1.675905,-4.375069 -6.544454,-6.373631 -10.965058,-6.215355 z"
       id="path3848"
       inkscape:connector-curvature="0" />
    <rect
       style="opacity:1;fill:#e74536;fill-opacity:0.00392157;stroke:none;stroke-width:0;stroke-linecap:round;stroke-linejoin:round;stroke-miterlimit:4;stroke-dasharray:none;stroke-dashoffset:0;stroke-opacity:1"
       id="rect4135"
       width="1.9122016"
       height="1.5297613"
       x="0"
       y="0" />
    <rect
       y="62.470238"
       x="62.087799"
       height="1.5297613"
       width="1.9122016"
       id="rect4137"
       style="opacity:1;fill:#e74536;fill-opacity:0.00392157;stroke:none;stroke-width:0;stroke-linecap:round;stroke-linejoin:round;stroke-miterlimit:4;stroke-dasharray:none;stroke-dashoffset:0;stroke-opacity:1" />
  </g>
</svg>
