<?xml version="1.0" encoding="UTF-8" standalone="no"?>
<!-- Created with Inkscape (http://www.inkscape.org/) -->

<svg
   xmlns:dc="http://purl.org/dc/elements/1.1/"
   xmlns:cc="http://creativecommons.org/ns#"
   xmlns:rdf="http://www.w3.org/1999/02/22-rdf-syntax-ns#"
   xmlns:svg="http://www.w3.org/2000/svg"
   xmlns="http://www.w3.org/2000/svg"
   xmlns:sodipodi="http://sodipodi.sourceforge.net/DTD/sodipodi-0.dtd"
   xmlns:inkscape="http://www.inkscape.org/namespaces/inkscape"
   width="64"
   height="64"
   id="svg4839"
   version="1.1"
   inkscape:version="0.91 r13725"
   viewBox="0 0 64 64"
   sodipodi:docname="dessert.svg">
  <defs
     id="defs4841">
    <inkscape:path-effect
       effect="spiro"
       id="path-effect4730-1"
       is_visible="true" />
    <inkscape:path-effect
       is_visible="true"
       id="path-effect4734-3"
       effect="spiro" />
    <inkscape:path-effect
       effect="spiro"
       id="path-effect4738-9"
       is_visible="true" />
    <inkscape:path-effect
       is_visible="true"
       id="path-effect4761-6"
       effect="spiro" />
    <inkscape:path-effect
       effect="spiro"
       id="path-effect4763-7"
       is_visible="true" />
    <inkscape:path-effect
       is_visible="true"
       id="path-effect4765-6"
       effect="spiro" />
  </defs>
  <sodipodi:namedview
     id="base"
     pagecolor="#ffffff"
     bordercolor="#666666"
     borderopacity="1.0"
     inkscape:pageopacity="0.0"
     inkscape:pageshadow="2"
     inkscape:zoom="9.2783531"
     inkscape:cx="39.688526"
     inkscape:cy="29.622833"
     inkscape:current-layer="layer1"
     showgrid="true"
     inkscape:document-units="px"
     inkscape:grid-bbox="true"
     inkscape:snap-object-midpoints="true"
     inkscape:snap-page="true"
     inkscape:snap-bbox="true"
     inkscape:bbox-nodes="true"
     inkscape:snap-global="true"
     showguides="true"
     inkscape:window-width="1474"
     inkscape:window-height="841"
     inkscape:window-x="-8"
     inkscape:window-y="-8"
     inkscape:window-maximized="1" />
  <metadata
     id="metadata4844">
    <rdf:RDF>
      <cc:Work
         rdf:about="">
        <dc:format>image/svg+xml</dc:format>
        <dc:type
           rdf:resource="http://purl.org/dc/dcmitype/StillImage" />
        <dc:title></dc:title>
      </cc:Work>
    </rdf:RDF>
  </metadata>
  <g
     id="layer1"
     inkscape:label="Layer 1"
     inkscape:groupmode="layer">
    <path
       style="opacity:0.33200001;fill:#000000;fill-opacity:1;stroke:none;stroke-width:1.5;stroke-linecap:round;stroke-linejoin:round;stroke-miterlimit:4;stroke-dasharray:none;stroke-opacity:1"
       d="M 32.621094 6.1875 C 32.554554 6.169738 32.483507 6.1699503 32.419922 6.1914062 C 31.762768 6.740462 31.15379 7.3463423 30.607422 8.0058594 C 30.153156 8.7318631 29.729744 9.484637 29.464844 10.302734 C 29.248738 11.094376 29.107578 11.915208 29.144531 12.738281 C 29.162691 13.556818 29.308579 14.375646 29.591797 15.144531 C 29.898614 16.048698 30.396433 16.875713 30.980469 17.626953 L 31.806641 18.589844 C 30.975588 18.777233 30.124486 18.950492 29.369141 19.361328 C 28.664227 19.810171 28.043623 20.385388 27.542969 21.054688 C 27.060546 21.872843 26.625183 22.756219 26.546875 23.716797 C 26.480135 24.534902 26.612722 25.354461 26.800781 26.148438 C 27.117208 26.885374 27.515448 27.596182 28.060547 28.189453 C 28.161793 28.313515 28.279074 28.420939 28.394531 28.529297 L 28.392578 28.53125 L 30.460938 30.599609 C 29.543228 30.366191 28.718357 29.892528 27.896484 29.4375 C 27.232211 29.008879 26.416673 29.266321 25.679688 29.203125 C 24.693683 29.221045 23.704776 29.159149 22.720703 29.230469 C 21.865124 29.306779 21.030657 29.633477 20.355469 30.166016 C 19.781152 30.620851 19.340564 31.227984 19.019531 31.882812 C 18.679381 32.561482 18.618107 33.332857 18.689453 34.078125 C 18.714273 34.459559 18.763699 34.840372 18.800781 35.220703 C 18.729871 35.307533 18.569 35.214856 18.537109 35.349609 C 17.802568 35.887714 17.001778 36.455069 16.662109 37.337891 C 16.361874 38.097106 16.328239 38.957513 16.574219 39.736328 C 16.752276 40.404088 17.102342 41.029486 17.597656 41.513672 L 19.375 43.292969 C 19.345862 43.287928 19.316146 43.288901 19.287109 43.283203 C 18.599852 43.121155 17.96586 42.801479 17.326172 42.511719 L 20.208984 52.794922 L 20.162109 52.841797 L 21.15625 53.835938 L 20.429688 53.835938 L 20.517578 54.021484 C 20.576991 54.146682 20.668952 54.260669 20.773438 54.365234 L 20.771484 54.367188 L 30.404297 64 L 64 64 L 64 37.388672 L 32.900391 6.2890625 C 32.878111 6.3064929 32.859929 6.3261914 32.837891 6.34375 C 32.822756 6.3260993 32.810528 6.3052764 32.792969 6.2910156 C 32.749189 6.2404956 32.687626 6.2052613 32.621094 6.1875 z "
       id="rect5832" />
    <path
       style="color:#000000;font-style:normal;font-variant:normal;font-weight:normal;font-stretch:normal;font-size:medium;line-height:normal;font-family:sans-serif;text-indent:0;text-align:start;text-decoration:none;text-decoration-line:none;text-decoration-style:solid;text-decoration-color:#000000;letter-spacing:normal;word-spacing:normal;text-transform:none;direction:ltr;block-progression:tb;writing-mode:lr-tb;baseline-shift:baseline;text-anchor:start;white-space:normal;clip-rule:nonzero;display:inline;overflow:visible;visibility:visible;opacity:1;isolation:auto;mix-blend-mode:normal;color-interpolation:sRGB;color-interpolation-filters:linearRGB;solid-color:#000000;solid-opacity:1;fill:#ffffff;fill-opacity:1;fill-rule:nonzero;stroke:none;stroke-width:0.95101535;stroke-linecap:round;stroke-linejoin:miter;stroke-miterlimit:4;stroke-dasharray:none;stroke-dashoffset:0;stroke-opacity:1;color-rendering:auto;image-rendering:auto;shape-rendering:auto;text-rendering:auto;enable-background:accumulate"
       d="m 32.621535,6.1879861 c -0.06654,-0.017762 -0.138672,-0.018026 -0.202257,0.00343 -0.657154,0.5490557 -1.265377,1.155656 -1.811745,1.8151731 -0.454266,0.7260037 -0.878368,1.478722 -1.143268,2.2968198 -0.216106,0.791642 -0.357479,1.612584 -0.320526,2.435657 0.01816,0.818537 0.164147,1.635919 0.447365,2.404804 0.306817,0.904167 0.806054,1.73241 1.39009,2.48365 l 0.826169,0.961579 c -0.831053,0.187389 -1.682025,0.362199 -2.43737,0.773035 -0.704914,0.448843 -1.326518,1.022461 -1.827172,1.691761 -0.482423,0.818156 -0.917552,1.703047 -0.99586,2.663625 -0.06674,0.818105 0.06562,1.63654 0.253679,2.430516 0.316427,0.736936 0.714723,1.448155 1.259822,2.041426 0.578707,0.709119 1.411143,1.147905 2.250541,1.474079 0.791075,0.244132 1.624054,0.385481 2.452797,0.301672 0.916548,-0.09815 1.809736,-0.423999 2.571068,-0.944439 0.46006,-0.282012 0.84531,-0.6623 1.235825,-1.030141 0.22499,-0.316587 0.45227,-0.631352 0.622198,-0.982147 0.167811,-0.304395 0.295475,-0.631491 0.407943,-0.959865 0.206695,-0.63442 0.267482,-1.310563 0.257107,-1.97458 -0.0091,-0.545357 -0.08258,-1.095895 -0.298244,-1.600916 -0.253948,-0.690118 -0.614114,-1.346156 -1.08499,-1.912878 -0.466265,-0.497366 -0.999135,-0.939441 -1.609488,-1.247824 -0.626105,-0.320598 -1.299391,-0.533931 -1.959153,-0.773034 -0.101516,-0.05109 -0.04726,-0.229012 -0.186831,-0.23311 -0.61385,-0.623183 -1.1934,-1.283139 -1.681477,-2.010574 -0.483877,-0.813023 -0.833236,-1.709823 -0.980433,-2.646485 -0.167835,-0.953215 -0.07539,-1.944331 0.176546,-2.874452 0.258844,-0.8752294 0.644614,-1.7312719 1.234112,-2.4356574 0.420697,-0.5434937 0.921177,-1.0177988 1.393518,-1.5152154 0.15145,-0.1499663 0.08179,-0.4109532 -0.06857,-0.5330678 -0.04378,-0.05052 -0.104864,-0.08508 -0.171396,-0.1028413 z m 2.219688,14.8264849 c -0.02357,-0.02722 0.02466,-0.01631 0.214255,0.07542 0.379194,0.183457 0.825703,0.455629 1.23754,1.122698 0.130762,0.163802 0.206846,0.361683 0.31367,0.539925 0.143317,0.365026 0.260105,0.848251 0.27939,1.23754 -0.07955,1.458684 -0.407283,1.971529 -1.246111,3.03043 0.514915,-0.847994 0.771266,-2.217334 0.659907,-3.081852 -0.09368,-0.72731 -0.288435,-1.343359 -0.670191,-1.991719 -0.16471,-0.279737 -0.360177,-0.536207 -0.569063,-0.781604 -0.100146,-0.05818 -0.19583,-0.123612 -0.219397,-0.150838 z m 1.822028,8.155424 -1.08499,0.64448 c -0.728522,0.390146 -1.486169,0.752703 -2.298533,0.927298 -0.91099,0.190973 -1.862159,0.123188 -2.756183,-0.121697 -0.943492,-0.227057 -1.786696,-0.717109 -2.627631,-1.182691 -0.664273,-0.428621 -1.479273,-0.171628 -2.216259,-0.234824 -0.986005,0.01792 -1.974368,-0.04389 -2.958441,0.02743 -0.855579,0.07631 -1.690194,0.403329 -2.365382,0.935868 -0.574317,0.454835 -1.015921,1.062644 -1.336954,1.717473 -0.34015,0.67867 -0.400442,1.450423 -0.329096,2.195691 0.02482,0.381434 0.07433,0.761222 0.111412,1.141553 -0.07091,0.08683 -0.232071,-0.0062 -0.263962,0.128553 -0.734541,0.538105 -1.535496,1.105471 -1.875165,1.988293 -0.300235,0.759215 -0.3334,1.620846 -0.08742,2.399661 0.208503,0.781941 0.638073,1.517985 1.280391,2.020859 0.756146,0.531857 1.689706,0.829842 2.617346,0.783318 0.954336,-0.04456 1.889048,-0.435205 2.581351,-1.095274 0.549926,-0.525292 0.891752,-1.221077 1.107273,-1.942012 0.04055,-0.01503 0.06037,-0.438065 0.121697,-0.04628 0.308929,0.74999 0.669241,1.524738 1.343811,2.015716 0.681635,0.576469 1.519362,1.022475 2.430515,1.033568 0.972754,0.04967 1.962093,-0.304436 2.677337,-0.96672 0.71491,-0.665175 1.091528,-1.585168 1.539212,-2.432229 l 0.01543,-0.03257 c 0.361076,0.739764 0.653803,1.530323 1.19126,2.166552 0.656324,0.732878 1.604826,1.20591 2.589921,1.258109 0.796272,0.07285 1.605413,-0.154299 2.27968,-0.575919 0.813817,-0.491563 1.311135,-1.361172 1.604345,-2.241971 0.157258,-0.435445 0.296037,-0.87825 0.445652,-1.316386 0.281726,0.829351 0.548868,1.66497 0.896445,2.469939 0.531071,0.723896 1.279574,1.307406 2.152839,1.547782 0.897575,0.245007 1.879895,0.130173 2.708191,-0.28796 0.811152,-0.419983 1.421548,-1.179315 1.696904,-2.046569 0.274609,-0.774334 0.391248,-1.633023 0.16969,-2.435657 -0.23709,-0.816078 -0.73036,-1.560972 -1.410658,-2.073994 -0.282158,-0.217672 -0.589897,-0.398525 -0.887876,-0.593059 -0.01782,-0.950783 -0.0199,-1.932979 -0.389087,-2.82646 -0.345095,-0.836409 -0.920451,-1.575371 -1.65234,-2.108274 -0.761074,-0.590021 -1.752961,-0.692899 -2.682479,-0.733611 -1.445813,-0.05128 -2.892042,-0.06765 -4.338246,-0.107986 z M 26.11159,34.464521 c 0.146889,0.211366 0.529457,0.400813 0.371948,0.706187 -0.223079,0.24359 -0.583831,0.02789 -0.699331,-0.21597 l -2.02257,-2.492198 c 0,0 1.664148,1.190036 2.349953,2.001981 z m 10.565405,-1.485872 2.533793,2.110075 c 0.276564,0.195596 -0.05085,0.723486 -0.415947,0.394862 z M 19.620508,36.26261 c 0.02776,0.0019 0.05457,0.01054 0.08056,0.02914 0.689891,0.704423 1.229379,1.536915 1.86488,2.28825 0.0088,0.02405 0.317917,0.370265 0.02571,0.07199 -0.665269,-0.637968 -1.482069,-1.101725 -2.106561,-1.784321 -0.122244,-0.132516 -0.241985,-0.329122 -0.08227,-0.486788 0.04872,-0.06527 0.13441,-0.124061 0.217681,-0.118271 z m 25.48852,0.05163 0.04113,0.012 c -0.01033,0.333059 -0.40676,0.465206 -0.521069,0.759321 -0.56646,0.702331 -1.12158,1.413985 -1.724329,2.085992 -0.360041,0.124615 -0.648423,-0.496361 -0.291387,-0.666764 l 2.456225,-2.171694 z m -14.904295,0.44373 0.0086,0 c -0.580072,0.86951 -1.255401,1.668808 -1.916302,2.476795 -0.170167,0.149144 -0.285834,0.526973 -0.581061,0.375375 -0.240869,-0.118314 -0.347641,-0.552515 -0.04971,-0.671905 l 2.403091,-2.096277 0.10627,-0.07028 z m 4.790696,0.294494 0.68219,0.565635 c 0.56283,0.440344 1.144987,0.861358 1.642054,1.378091 0.159795,0.32451 -0.416579,0.628392 -0.584489,0.301672 z m 5.390727,4.007758 -0.08742,0.13541 c -0.594537,0.789608 -1.353353,1.493664 -2.289963,1.84774 -0.953136,0.39117 -2.032658,0.412087 -3.020147,0.140551 -0.890688,-0.290754 -1.683033,-0.855489 -2.26768,-1.585491 l -0.435368,-0.533068 c -0.58127,0.639583 -1.120809,1.357313 -1.895733,1.77575 -0.851398,0.404046 -1.81229,0.619706 -2.754469,0.498787 -0.735849,-0.115463 -1.462663,-0.363189 -2.06371,-0.812457 -0.583609,-0.390767 -0.959413,-1.006521 -1.498075,-1.444939 -0.405743,0.803708 -1.130986,1.419751 -1.921444,1.827171 -0.888771,0.389154 -1.906357,0.561946 -2.865882,0.373662 -0.687257,-0.162048 -1.321179,-0.48156 -1.960867,-0.77132 l 2.91559,10.395679 5.148989,0.279389 18.883629,-0.253678 2.936158,-10.417962 c -0.662898,0.358817 -1.358348,0.687494 -2.108275,0.810743 -0.892105,0.137545 -1.81553,-0.01861 -2.632773,-0.39423 -0.766132,-0.305666 -1.293583,-0.966925 -1.822029,-1.568351 -0.08611,-0.101663 -0.175897,-0.200517 -0.260531,-0.303386 z m -8.282263,3.273825 c 0.0401,-0.0017 0.08476,0.0056 0.133696,0.02228 0.453255,0.765952 0.279658,1.67992 0.222826,2.517932 -0.09956,1.327821 -0.194002,2.655456 -0.291388,3.98344 l -0.428511,-5.855177 c 0.009,-0.238793 0.08271,-0.656973 0.363377,-0.668475 z m 8.724486,0.08399 0.07542,0.142265 c 0.291902,0.85765 -0.338226,1.638364 -0.634197,2.401376 l -1.103845,2.192263 0.958151,-3.889166 c 0.139088,-0.32983 0.230409,-0.894638 0.704471,-0.846738 z m -17.349557,0.0034 c 0.08848,-0.02612 0.187024,-0.02431 0.272533,0.0018 0.412855,0.770744 0.697518,1.601396 0.910157,2.447656 0.193159,0.838256 0.383915,1.677673 0.575919,2.516217 -0.549327,-1.111711 -1.131414,-2.208543 -1.592347,-3.361241 -0.215002,-0.451997 -0.289497,-0.950368 -0.377089,-1.438083 0.04392,-0.08608 0.122345,-0.140141 0.210827,-0.166263 z m 8.757053,9.406676 -11.806338,0.0086 0.08742,0.185116 c 0.157942,0.332824 0.506354,0.617838 0.879304,0.721613 0.119125,0.03315 2.391631,0.04219 10.85333,0.04456 10.631066,0.003 10.703667,0.0034 10.920177,-0.06342 0.255146,-0.07881 0.570641,-0.299616 0.69933,-0.488503 0.111662,-0.163897 0.211398,-0.374806 0.188546,-0.397659 -0.0095,-0.0095 -5.328855,-0.01494 -11.821765,-0.01029 z"
       id="path5781"
       inkscape:connector-curvature="0"
       sodipodi:nodetypes="sccccccccccccccccccccccccccccccscsccccsscccccccccccccccccccccccccccccccccccccccccccccccsccscccccscccccccccccccccccccccscccccccccccccccccccsccccscsccccscccccssccsssscsccc" />
  </g>
</svg>
