<?xml version="1.0" encoding="UTF-8" standalone="no"?>
<!-- Created with Inkscape (http://www.inkscape.org/) -->

<svg
   xmlns:dc="http://purl.org/dc/elements/1.1/"
   xmlns:cc="http://creativecommons.org/ns#"
   xmlns:rdf="http://www.w3.org/1999/02/22-rdf-syntax-ns#"
   xmlns:svg="http://www.w3.org/2000/svg"
   xmlns="http://www.w3.org/2000/svg"
   xmlns:sodipodi="http://sodipodi.sourceforge.net/DTD/sodipodi-0.dtd"
   xmlns:inkscape="http://www.inkscape.org/namespaces/inkscape"
   width="64"
   height="64"
   id="svg4839"
   version="1.1"
   inkscape:version="0.91 r13725"
   viewBox="0 0 64 64"
   sodipodi:docname="entree.svg">
  <defs
     id="defs4841" />
  <sodipodi:namedview
     id="base"
     pagecolor="#ffffff"
     bordercolor="#666666"
     borderopacity="1.0"
     inkscape:pageopacity="0.0"
     inkscape:pageshadow="2"
     inkscape:zoom="5.4837278"
     inkscape:cx="11.741125"
     inkscape:cy="35.468678"
     inkscape:current-layer="layer1"
     showgrid="true"
     inkscape:document-units="px"
     inkscape:grid-bbox="true"
     inkscape:snap-object-midpoints="true"
     inkscape:snap-page="true"
     inkscape:snap-bbox="true"
     inkscape:bbox-nodes="true"
     inkscape:snap-global="true"
     showguides="true"
     inkscape:window-width="1474"
     inkscape:window-height="841"
     inkscape:window-x="-8"
     inkscape:window-y="-8"
     inkscape:window-maximized="1" />
  <metadata
     id="metadata4844">
    <rdf:RDF>
      <cc:Work
         rdf:about="">
        <dc:format>image/svg+xml</dc:format>
        <dc:type
           rdf:resource="http://purl.org/dc/dcmitype/StillImage" />
        <dc:title />
      </cc:Work>
    </rdf:RDF>
  </metadata>
  <g
     id="layer1"
     inkscape:label="Layer 1"
     inkscape:groupmode="layer">
    <path
       style="opacity:0.33200001;fill:#000000;fill-opacity:1;stroke:none;stroke-width:1.5;stroke-linecap:round;stroke-linejoin:round;stroke-miterlimit:4;stroke-dasharray:none;stroke-opacity:1"
       d="M 13.207031 16.720703 C 12.730149 16.778383 12.345306 17.232918 12.353516 17.710938 L 12.351562 18.226562 L 12.349609 18.228516 L 12.351562 18.253906 L 12.345703 21.457031 C 12.277883 21.838598 12.049174 22.164442 11.814453 22.462891 C 11.107159 23.234976 10.401657 24.008317 9.6523438 24.740234 C 9.2634248 25.134071 8.8864336 25.565273 8.6875 26.089844 C 8.5225853 26.497655 8.4709126 26.95939 8.5996094 27.384766 C 8.7360793 27.888935 9.0522804 28.317141 9.3789062 28.714844 C 9.5552613 28.935597 9.7512806 29.140273 9.9492188 29.341797 L 9.9550781 29.375 L 13.53125 32.951172 L 10.90625 32.951172 L 10.871094 33.089844 C 10.819454 33.295574 10.891787 35.238831 10.980469 36.029297 C 11.243749 38.375997 11.895405 40.605389 12.939453 42.734375 L 13.322266 43.515625 L 13.330078 43.515625 L 13.328125 43.517578 L 14.095703 44.285156 L 13.775391 44.285156 L 13.910156 44.503906 C 14.724647 45.808344 15.673633 47.001667 16.720703 48.087891 L 16.707031 48.101562 L 32.605469 64 L 64 64 L 64 27.3125 L 54.689453 18.001953 L 54.666016 18.011719 C 54.664134 18.010978 54.674716 18.006225 54.671875 18.005859 C 54.617085 17.998759 54.384814 18.062039 53.957031 18.191406 C 51.935565 18.802697 49.9634 20.017122 48.46875 21.572266 C 47.591102 22.485436 46.872443 23.487548 46.294922 24.570312 L 42.583984 20.859375 C 42.584624 20.856028 42.59572 20.825917 42.595703 20.824219 C 42.595632 20.818519 42.593844 20.815006 42.589844 20.816406 C 42.553668 20.828207 42.361999 21.13565 42.148438 21.498047 L 41.136719 20.486328 L 41.125 20.498047 C 40.515337 19.933795 39.644269 19.484238 38.757812 19.300781 C 38.519109 19.251381 38.230004 19.223067 37.931641 19.216797 C 37.43437 19.206327 36.906547 19.255124 36.519531 19.357422 C 35.96979 19.502738 35.245135 19.867039 34.818359 20.185547 L 32.900391 18.267578 L 32.880859 18.287109 C 32.77437 18.195755 32.664888 18.106856 32.542969 18.037109 C 32.169478 17.823446 31.771825 17.730231 31.384766 17.738281 C 30.22359 17.762431 29.160156 18.691012 29.160156 19.974609 C 29.160156 20.192093 29.173487 20.393731 29.1875 20.4375 L 29.142578 20.482422 L 29.988281 21.328125 C 29.961652 21.326547 29.951417 21.321725 29.921875 21.320312 C 29.791692 21.314113 29.678512 21.312659 29.572266 21.318359 C 29.263879 21.334682 29.025565 21.410458 28.712891 21.570312 L 27.6875 20.544922 L 27.660156 20.517578 C 27.493424 20.359854 27.312534 20.209286 27.177734 20.140625 C 26.839783 19.968487 26.482398 19.879086 26.125 19.875 C 25.767602 19.8709 25.411991 19.952759 25.076172 20.117188 C 24.855718 20.225134 24.632491 20.419149 24.435547 20.636719 L 23.830078 20.03125 L 23.84375 20.011719 L 23.695312 19.890625 C 23.613273 19.824025 23.397909 19.695524 23.216797 19.605469 C 22.929429 19.462577 22.824227 19.439368 22.388672 19.421875 C 21.842591 19.399945 21.531783 19.471051 21.117188 19.710938 C 20.817967 19.884062 20.442907 20.272932 20.271484 20.587891 C 20.145289 20.819755 19.984717 21.398266 19.982422 21.630859 C 19.982256 21.648472 19.994906 21.660476 20.015625 21.671875 L 19.982422 21.705078 L 20.730469 22.453125 C 20.232599 22.43756 19.735317 22.423609 19.238281 22.392578 L 13.710938 16.865234 L 13.703125 16.873047 C 13.701072 16.871192 13.699321 16.86904 13.697266 16.867188 C 13.559602 16.758572 13.380426 16.713724 13.207031 16.720703 z "
       id="rect5496" />
    <path
       style="opacity:1;fill:#ffffff;fill-opacity:1;stroke:none;stroke-width:0.07692462;stroke-linecap:round;stroke-linejoin:round;stroke-miterlimit:4;stroke-dasharray:none;stroke-opacity:1"
       d="m 13.207142,16.720388 c -0.476882,0.05768 -0.861164,0.511843 -0.852954,0.989862 l -0.0079,3.746215 c -0.06782,0.381567 -0.297166,0.707165 -0.531887,1.005614 -0.707294,0.772085 -1.412756,1.546464 -2.1620695,2.278381 -0.3889189,0.393837 -0.7666973,0.823922 -0.9656309,1.348493 -0.1649147,0.407811 -0.2165358,0.871017 -0.087839,1.296393 0.1364699,0.504169 0.4536323,0.932614 0.7802581,1.330317 0.4372928,0.547384 0.9437653,1.039051 1.5053933,1.45814 0.532836,0.401575 1.066472,0.802435 1.583539,1.224305 0.134277,0.102029 0.25834,0.222171 0.409515,0.298655 0.138321,0.03544 0.289207,0.07296 0.429504,0.06543 0.100211,-0.06156 0.04143,-0.206234 -0.05634,-0.229595 -0.363485,-0.340548 -0.724819,-0.685091 -1.058315,-1.055292 -0.485942,-0.56594 -0.84985,-1.220596 -1.22612,-1.860992 -0.198741,-0.344694 -0.372914,-0.703825 -0.511266,-1.077097 -0.212355,-0.529882 -0.406053,-1.067372 -0.6057905,-1.601712 -0.0036,-0.08617 0.10968,-0.0886 0.104802,-0.0018 0.078629,0.169696 0.1357745,0.348472 0.2205065,0.515529 0.323812,0.735639 0.727123,1.436816 1.203103,2.084527 0.328561,0.440854 0.719552,0.830459 1.132829,1.191592 0.53255,0.479015 1.05137,0.977237 1.640485,1.387868 0.273066,0.192978 0.548276,0.38758 0.847502,0.537943 0.369016,0.149035 0.774719,0.129432 1.164937,0.142361 l 2.817535,0.03877 c -0.841286,-1.053719 -1.705304,-2.101464 -2.36501,-3.282782 -0.530231,-0.924001 -1.055267,-1.85463 -1.468437,-2.838134 -0.276454,-0.695223 -0.486963,-1.414107 -0.708173,-2.128145 -0.165963,-0.55164 -0.323458,-1.109856 -0.382858,-1.684706 -0.03482,-0.295588 -0.05002,-0.593113 -0.05876,-0.890514 l 1.130406,3.546304 c 0.298767,0.704466 0.609757,1.403826 0.949882,2.089375 0.3332,0.661918 0.722275,1.296736 1.174021,1.884617 0.773165,1.026327 1.656934,1.961115 2.528575,2.902952 0.11418,0.106756 0.197383,0.264646 0.361657,0.301078 0.353018,0.113259 0.728616,0.07889 1.093454,0.09208 0.140563,-0.04331 0.04502,-0.229984 0.09147,-0.335608 0.07883,-0.899832 0.123245,-1.812731 0.38286,-2.683656 0.220324,-0.797042 0.515847,-1.576279 0.914139,-2.302007 0.259775,-0.444295 0.59199,-0.839741 0.923227,-1.231573 -0.38912,0.90252 -0.752073,1.818498 -1.030452,2.761802 -0.210595,0.826823 -0.277358,1.682268 -0.298655,2.532814 l -0.03514,1.030451 c 0.02234,0.166179 0.196183,0.277991 0.356811,0.26776 l 1.628367,0.0085 c -0.09714,-1.201739 -0.006,-2.432055 0.384072,-3.57841 0.287945,-0.846712 0.778402,-1.605008 1.299423,-2.325027 l 0.447075,-0.5858 c 0.13281,-0.303529 0.08389,-0.647465 0.01332,-0.960179 -0.07802,-0.316839 -0.190545,-0.623258 -0.299258,-0.930495 -0.413955,-0.575593 -1.10965,-0.925057 -1.814952,-0.946247 -1.004298,-0.03628 -2.009367,-0.04363 -3.013811,-0.07512 -0.67574,-0.01932 -1.351821,-0.0403 -2.026369,-0.0842 -0.683081,-0.08599 -1.374035,-0.24272 -1.96821,-0.604603 -0.379769,-0.223069 -0.745228,-0.499997 -0.978354,-0.880821 -0.453058,-0.868961 -0.804469,-1.792276 -1.341827,-2.615807 -0.327783,-0.521012 -0.71472,-1.007877 -1.172813,-1.420582 -0.137664,-0.108615 -0.316083,-0.154185 -0.489478,-0.147206 z m 18.176771,1.017124 c -1.161176,0.02415 -2.223254,0.954196 -2.223254,2.237793 0,0.222056 0.01226,0.434348 0.02666,0.471911 0.01977,0.05158 0.135982,0.06447 0.474334,0.05149 0.550863,-0.02113 1.008747,0.07796 1.496305,0.323491 0.377355,0.190035 0.953211,0.687582 1.134041,0.980172 0.05943,0.09615 0.116269,0.175074 0.126006,0.175074 0.0097,0 0.07628,-0.127868 0.147812,-0.284116 0.173739,-0.379496 0.62683,-1.066345 0.912928,-1.383022 l 0.232016,-0.256246 -0.0424,-0.347725 c -0.08213,-0.677169 -0.51643,-1.321699 -1.125569,-1.67017 -0.373491,-0.213663 -0.77182,-0.306705 -1.158879,-0.298655 z m 23.288438,0.268365 c -0.05479,-0.0071 -0.28826,0.0554 -0.716043,0.184767 -2.021466,0.611291 -3.993822,1.826383 -5.488472,3.381527 -1.963418,2.042886 -3.171679,4.501724 -3.643229,7.414281 -0.08763,0.541249 -0.161541,2.652207 -0.103591,2.961109 l 0.03453,0.183555 0.659101,0 0.659707,0 0.870522,0.003 c -0.111493,-0.979992 -0.250451,-1.855423 -0.122366,-2.823566 0.632798,-4.783099 3.339859,-8.932724 7.494246,-11.07326 0.286389,-0.147562 0.41039,-0.22436 0.355598,-0.231413 z m -16.739833,1.210977 c -0.497271,-0.01047 -1.02569,0.03764 -1.412706,0.139938 -0.674706,0.178348 -1.641526,0.691324 -1.9561,1.037721 -0.0097,0.01064 -0.01937,0.02667 -0.02908,0.0412 -0.06089,0.05069 -0.120339,0.102341 -0.178102,0.155689 -0.477528,0.441032 -1.028613,1.253665 -1.255806,1.85251 -0.04481,0.118104 -0.08449,0.253013 -0.121764,0.393158 0.007,0.0028 0.01303,0.0046 0.01999,0.0073 -0.0053,0.01697 -0.01103,0.03237 -0.01575,0.05028 l -0.06966,0.262308 0.136302,0.02969 c 1.002127,0.215193 2.170418,0.640189 2.405598,0.875369 0.06372,0.06372 0.115706,0.17401 0.115706,0.245345 0,0.07133 -0.35761,0.777416 -0.794798,1.569 -0.437188,0.791584 -0.794798,1.458338 -0.794798,1.481766 0,0.08117 0.697839,0.700752 1.062557,0.943217 0.674209,0.448212 1.412732,0.71616 2.203264,0.799645 0.220619,0.0233 0.42432,0.04459 0.452526,0.04786 0.176093,0.02036 1.085214,-0.112754 1.396956,-0.204758 l 0.371955,-0.109648 6.39e-4,-0.620936 c 4.34e-4,-1.489251 0.262703,-3.087397 0.734825,-4.474982 0.323145,-0.949735 0.839748,-2.061214 1.265498,-2.721821 0.0697,-0.108143 0.05806,-0.131133 -0.207181,-0.40164 -0.609866,-0.621974 -1.555853,-1.118628 -2.505553,-1.315173 -0.238704,-0.0494 -0.526119,-0.07672 -0.824482,-0.08299 z M 22.38791,19.421612 c -0.546081,-0.02193 -0.855749,0.04847 -1.270344,0.288357 -0.299221,0.173125 -0.675474,0.563438 -0.846897,0.878397 -0.126195,0.231864 -0.286061,0.809974 -0.288356,1.042567 -7.86e-4,0.08348 0.105591,0.08966 1.5272,0.08966 l 1.528411,0 0.06179,-0.294414 c 0.07962,-0.380453 0.270932,-0.788175 0.534308,-1.137072 L 23.843625,20.01105 23.6946,19.890496 c -0.08204,-0.0666 -0.297463,-0.195271 -0.478575,-0.285326 -0.287368,-0.142892 -0.392562,-0.166062 -0.828117,-0.183555 z m 3.737733,0.454343 c -0.357398,-0.0041 -0.714624,0.07607 -1.050443,0.240499 -0.516826,0.253066 -1.075758,0.938344 -1.176445,1.441784 l -0.02969,0.147208 0.376802,0.02848 c 0.481104,0.03651 0.957879,0.159752 1.363637,0.352571 0.335606,0.159483 0.862402,0.60628 0.985018,0.835386 0.08797,0.164382 0.124102,0.128819 0.204151,-0.201122 0.112052,-0.461851 0.407026,-0.945011 0.837809,-1.373329 l 0.401037,-0.398612 -0.101773,-0.142967 c -0.155084,-0.217807 -0.536824,-0.553502 -0.757234,-0.665769 -0.337951,-0.172138 -0.695467,-0.260039 -1.052865,-0.264125 z m 16.464199,0.940794 c -0.05935,0.01936 -0.536433,0.802254 -0.843868,1.391503 -0.675417,1.294554 -1.111743,2.653827 -1.333346,4.153913 -0.04167,0.282056 -0.0895,0.97399 -0.106013,1.538103 -0.04061,1.387253 0.08871,2.497174 0.443438,3.808005 l 0.114495,0.422843 0.969872,0 0.969266,0 -0.08239,-0.192037 c -1.297976,-3.026548 -1.542012,-6.207473 -0.71544,-9.329188 0.09827,-0.371141 0.271381,-0.913227 0.384677,-1.204918 0.113296,-0.291692 0.205646,-0.553354 0.205364,-0.581559 -7.1e-5,-0.0057 -0.0021,-0.008 -0.0061,-0.0066 z m -13.018457,0.501596 c -0.318737,0.01687 -0.558077,0.09274 -0.886878,0.264125 -0.359167,0.187208 -0.799422,0.647622 -0.97593,1.020758 -0.231138,0.488624 -0.287193,1.156418 -0.132063,1.566577 0.024,0.06347 0.05446,0.1151 0.06785,0.1151 0.01339,0 0.158081,-0.08049 0.321676,-0.179314 0.95595,-0.577434 2.460723,-0.999666 3.5669,-1.000162 0.344958,-1.59e-4 0.448285,-0.01643 0.448285,-0.07027 0,-0.03852 -0.08273,-0.235852 -0.18416,-0.438594 -0.239584,-0.478901 -0.616186,-0.861157 -1.065586,-1.081943 -0.300408,-0.147587 -0.41973,-0.176468 -0.808732,-0.195065 -0.130183,-0.0062 -0.245113,-0.0069 -0.351359,-0.0012 z m 13.08994,2.094827 c -0.06753,0 -0.262506,1.39808 -0.285933,2.051209 -0.0224,0.624454 -0.0204,0.635995 0.05816,0.43617 0.228665,-0.581689 0.351895,-1.442512 0.298656,-2.080893 -0.01865,-0.223691 -0.05041,-0.406486 -0.07087,-0.406486 z m -11.502766,0.457372 c -0.646769,0.06214 -1.282064,0.232097 -1.874319,0.499172 -0.817794,0.360211 -1.58572,0.844651 -2.234764,1.461169 -0.316756,0.296808 -0.598301,0.629369 -0.856589,0.977747 -0.481111,0.634262 -0.900361,1.332348 -1.109204,2.106336 -0.179122,0.665263 -0.194182,1.361498 -0.160536,2.045759 0.01113,0.288183 0.03501,0.575655 0.05574,0.863252 -0.02786,0.146631 0.108179,0.298664 0.256856,0.288357 1.32179,0.0021 2.642755,0.03171 3.964299,0.05391 0.351443,0.0035 0.703222,0.0053 1.054682,0.0054 0.159866,0.04059 0.273406,-0.115776 0.324099,-0.245952 0.199482,-0.353329 0.390003,-0.711207 0.580954,-1.069222 0.977033,-1.828677 1.969176,-3.649361 2.953838,-5.47393 0.131985,-0.243272 0.271954,-0.484526 0.356811,-0.749365 0.04527,-0.121613 -0.08205,-0.228347 -0.182346,-0.273185 -0.131371,-0.05355 -0.273465,-0.07636 -0.408908,-0.118129 -0.563768,-0.155598 -1.137578,-0.283209 -1.72166,-0.329551 -0.331698,-0.03462 -0.66556,-0.04647 -0.998949,-0.04181 z m -0.219296,0.966843 c 0.129137,0.04898 0.157768,0.204237 0.160534,0.326523 0.04301,0.847772 0.198387,1.690267 0.165987,2.541294 -0.03473,0.66916 -0.08977,1.337686 -0.08481,2.008198 0.01277,0.137305 -0.165242,0.239231 -0.272,0.14539 -0.12316,-0.08715 -0.07795,-0.249687 -0.107225,-0.376197 -0.07565,-0.632011 -0.148384,-1.264907 -0.202333,-1.899156 -0.04325,-0.507389 0.0042,-1.015555 0.02181,-1.52296 0.01581,-0.339661 0.02645,-0.679553 0.0315,-1.019545 0.01175,-0.136073 0.161535,-0.215083 0.286539,-0.203547 z m 23.951172,0.287751 c -0.193637,0.0035 -0.398841,0.01214 -0.6173,0.02604 -1.068451,0.06807 -1.660907,0.206761 -2.406203,0.562781 -0.956807,0.457058 -1.642435,0.960088 -2.464361,1.808893 -0.678938,0.701143 -1.147723,1.344759 -1.608375,2.206897 l -0.260491,0.487057 6.39e-4,0.534309 c 1.7e-4,0.293812 0.0152,0.724452 0.03332,0.95715 l 0.03271,0.422842 2.530996,0 2.531601,0 0.422844,-0.422842 c 0.232557,-0.232698 0.57269,-0.510178 0.756029,-0.616695 0.524172,-0.304543 1.253585,-0.496568 1.897336,-0.499173 0.675816,-0.0027 1.337848,-0.276932 1.870079,-0.774807 1.101896,-1.030769 1.133607,-2.875332 0.06603,-3.871613 -0.649902,-0.606499 -1.429365,-0.845189 -2.784824,-0.820847 z m -21.348693,2.963532 -0.254433,0.480998 c -0.249022,0.47103 -0.25242,0.483376 -0.152053,0.55551 0.05642,0.04054 0.99134,0.74315 2.077258,1.56173 l 1.974275,1.48843 1.426639,0.0036 c 1.335899,0.0034 1.424634,-0.002 1.398771,-0.08602 -0.112005,-0.363973 -0.302134,-1.269565 -0.374378,-1.782239 -0.0477,-0.338468 -0.0911,-0.622142 -0.09632,-0.630628 -0.0053,-0.0085 -0.202629,0.03505 -0.438593,0.09693 -0.597246,0.156617 -1.694618,0.192925 -2.314729,0.07633 -1.112229,-0.209125 -2.125041,-0.71598 -2.922944,-1.462379 l -0.323492,-0.302289 z m -7.720812,0.641533 c 0.01943,-0.0016 0.03943,0.0017 0.05876,0.01212 0.171782,0.07454 0.334365,0.169053 0.50523,0.245951 0.53761,0.255216 1.098115,0.456885 1.641089,0.699689 0.528815,0.234364 1.007124,0.564023 1.504785,0.855377 0.116061,0.08464 0.267874,0.128069 0.358629,0.242317 0.06315,0.09714 0.05977,0.261765 -0.05815,0.315617 -0.168348,0.0679 -0.34676,-0.0079 -0.499172,-0.08117 -0.564847,-0.249019 -1.13395,-0.490737 -1.67562,-0.788134 -0.367798,-0.197925 -0.713423,-0.433605 -1.077702,-0.6379 -0.28403,-0.160445 -0.577942,-0.304297 -0.859618,-0.468881 -0.115902,-0.05472 -0.116752,-0.205664 -0.04543,-0.296839 0.03365,-0.04368 0.0889,-0.09348 0.147208,-0.09814 z m 6.803644,1.051047 c -0.02783,0.03234 -1.309721,2.364884 -1.309721,2.383185 0,0.01014 1.020179,0.01817 2.266871,0.01817 1.279723,0 2.245308,-0.01916 2.217802,-0.04422 -0.13935,-0.126962 -3.162611,-2.371477 -3.174952,-2.357135 z m -21.718228,3.170713 -0.03453,0.137514 c -0.05164,0.20573 0.02036,2.148834 0.109042,2.9393 0.26328,2.3467 0.914478,4.57652 1.958526,6.705506 l 0.383463,0.782076 19.244177,0 19.244175,0 0.312588,-0.654254 c 0.985093,-2.057461 1.611704,-4.331065 1.831915,-6.649167 0.07576,-0.797571 0.108431,-3.018792 0.04665,-3.179799 -0.02832,-0.07379 -1.976299,-0.08118 -21.56375,-0.08118 l -21.532249,0 z m 2.868424,11.333146 0.136301,0.218084 c 3.611601,5.784114 9.703393,9.542538 16.557491,10.214855 0.451292,0.04427 0.959356,0.08759 1.12859,0.09632 3.756853,0.193677 7.653162,-0.619598 10.993296,-2.294738 3.540276,-1.775517 6.536322,-4.517414 8.564073,-7.837729 0.116575,-0.190885 0.212027,-0.358347 0.212027,-0.371956 0,-0.01361 -8.458149,-0.02484 -18.795889,-0.02484 l -18.795889,0 z"
       id="path5456"
       inkscape:connector-curvature="0" />
  </g>
</svg>
