<?xml version="1.0" encoding="UTF-8" standalone="no"?>
<!-- Created with Inkscape (http://www.inkscape.org/) -->

<svg
   xmlns:dc="http://purl.org/dc/elements/1.1/"
   xmlns:cc="http://creativecommons.org/ns#"
   xmlns:rdf="http://www.w3.org/1999/02/22-rdf-syntax-ns#"
   xmlns:svg="http://www.w3.org/2000/svg"
   xmlns="http://www.w3.org/2000/svg"
   xmlns:sodipodi="http://sodipodi.sourceforge.net/DTD/sodipodi-0.dtd"
   xmlns:inkscape="http://www.inkscape.org/namespaces/inkscape"
   width="64"
   height="64"
   id="svg4839"
   version="1.1"
   inkscape:version="0.91 r13725"
   viewBox="0 0 64 64"
   sodipodi:docname="plat_principal.svg">
  <defs
     id="defs4841">
    <inkscape:path-effect
       effect="spiro"
       id="path-effect4730-1"
       is_visible="true" />
    <inkscape:path-effect
       is_visible="true"
       id="path-effect4734-3"
       effect="spiro" />
    <inkscape:path-effect
       effect="spiro"
       id="path-effect4738-9"
       is_visible="true" />
    <inkscape:path-effect
       is_visible="true"
       id="path-effect4761-6"
       effect="spiro" />
    <inkscape:path-effect
       effect="spiro"
       id="path-effect4763-7"
       is_visible="true" />
    <inkscape:path-effect
       is_visible="true"
       id="path-effect4765-6"
       effect="spiro" />
  </defs>
  <sodipodi:namedview
     id="base"
     pagecolor="#ffffff"
     bordercolor="#666666"
     borderopacity="1.0"
     inkscape:pageopacity="0.0"
     inkscape:pageshadow="2"
     inkscape:zoom="4.6334337"
     inkscape:cx="26.142987"
     inkscape:cy="46.348746"
     inkscape:current-layer="layer1"
     showgrid="true"
     inkscape:document-units="px"
     inkscape:grid-bbox="true"
     inkscape:snap-object-midpoints="true"
     inkscape:snap-page="true"
     inkscape:snap-bbox="true"
     inkscape:bbox-nodes="true"
     inkscape:snap-global="true"
     showguides="true"
     inkscape:window-width="1474"
     inkscape:window-height="841"
     inkscape:window-x="-8"
     inkscape:window-y="-8"
     inkscape:window-maximized="1" />
  <metadata
     id="metadata4844">
    <rdf:RDF>
      <cc:Work
         rdf:about="">
        <dc:format>image/svg+xml</dc:format>
        <dc:type
           rdf:resource="http://purl.org/dc/dcmitype/StillImage" />
        <dc:title></dc:title>
      </cc:Work>
    </rdf:RDF>
  </metadata>
  <g
     id="layer1"
     inkscape:label="Layer 1"
     inkscape:groupmode="layer">
    <path
       style="opacity:0.33200001;fill:#000000;fill-opacity:1;stroke:none;stroke-width:1.5;stroke-linecap:round;stroke-linejoin:round;stroke-miterlimit:4;stroke-dasharray:none;stroke-opacity:1"
       d="M 26.863281 9.7675781 L 26.791016 9.7734375 C 26.519289 9.8999545 26.429995 10.209379 26.291016 10.449219 C 26.005927 11.158914 25.791472 11.895782 25.636719 12.644531 C 25.656099 13.409322 25.669999 14.185018 25.863281 14.929688 C 26.129229 15.790677 26.440512 16.638628 26.712891 17.498047 C 26.97382 18.320678 27.162595 19.172056 27.189453 20.037109 C 27.226653 20.6216 27.069603 21.199278 26.800781 21.714844 C 26.693215 21.951406 26.572788 22.182442 26.458984 22.416016 C 26.55137 22.279661 26.626065 22.147731 26.705078 22.015625 L 30.705078 26.015625 L 28.740234 25.728516 L 26.216797 25.691406 L 24.949219 25.841797 C 24.089485 25.994946 23.228442 26.13546 22.378906 26.339844 C 21.566249 26.662706 20.746009 26.974574 19.958984 27.357422 C 19.217538 27.725072 18.503801 28.146181 17.833984 28.632812 C 17.142488 29.176485 16.483542 29.771265 15.929688 30.457031 C 15.343958 31.148223 14.856529 31.920871 14.511719 32.759766 C 14.375433 33.11644 14.244758 33.476492 14.160156 33.849609 C 14.080896 34.119314 14.048328 34.401275 13.990234 34.675781 C 13.960884 34.927913 13.926683 35.179036 13.939453 35.433594 C 13.939673 35.787561 13.981117 36.140682 13.998047 36.494141 C 14.074597 36.948807 14.167256 37.401314 14.335938 37.832031 C 14.614172 38.707578 15.079954 39.502493 15.544922 40.289062 L 15.591797 40.371094 L 15.691406 40.441406 C 15.708036 40.448906 15.725257 40.442012 15.742188 40.443359 C 15.757367 40.471789 15.767623 40.500917 15.783203 40.529297 L 10.298828 40.529297 L 10.298828 41.216797 L 10.298828 41.902344 L 10.376953 41.902344 L 12.027344 43.552734 L 12.029297 43.554688 C 12.197505 43.909471 12.419452 44.235917 12.679688 44.544922 C 12.688186 44.554994 12.69454 44.566142 12.703125 44.576172 L 12.6875 44.591797 L 12.833984 44.738281 C 12.836884 44.741381 12.838897 44.744947 12.841797 44.748047 C 12.847797 44.754447 12.855308 44.759255 12.861328 44.765625 L 32.095703 64 L 64 64 L 64 42.90625 L 31.076172 9.9824219 L 31.005859 10.052734 L 31.005859 10 L 30.945312 9.8828125 L 30.841797 9.8007812 L 30.712891 9.7695312 L 30.597656 9.7890625 C 30.407196 9.9057415 30.329785 10.12409 30.226562 10.308594 C 30.155371 10.505315 30.097985 10.707056 30.033203 10.90625 L 29.017578 9.890625 L 29.001953 9.890625 C 29.001953 9.890625 29 9.890625 29 9.890625 C 28.954434 9.8307229 28.89338 9.7812115 28.816406 9.7695312 L 28.699219 9.7773438 C 28.539935 9.8455837 28.495993 10.029026 28.388672 10.150391 C 28.288612 10.348625 28.193881 10.552229 28.107422 10.757812 C 28.107422 10.757812 28.105469 10.759766 28.105469 10.759766 C 28.105469 10.759766 28.105469 10.761719 28.105469 10.761719 C 28.105469 10.761719 28.103516 10.763672 28.103516 10.763672 L 28.013672 10.851562 L 27.119141 9.9570312 L 27.091797 9.9570312 C 27.078043 9.923286 27.07592 9.8834931 27.044922 9.859375 L 26.931641 9.78125 L 26.863281 9.7675781 z M 22.537109 26.609375 L 22.582031 26.632812 L 22.648438 26.703125 C 22.610508 26.719515 22.571778 26.734513 22.535156 26.751953 L 22.46875 26.677734 L 22.472656 26.650391 L 22.509766 26.611328 L 22.537109 26.609375 z "
       id="rect5674" />
    <path
       style="color:#000000;font-style:normal;font-variant:normal;font-weight:normal;font-stretch:normal;font-size:medium;line-height:normal;font-family:sans-serif;text-indent:0;text-align:start;text-decoration:none;text-decoration-line:none;text-decoration-style:solid;text-decoration-color:#000000;letter-spacing:normal;word-spacing:normal;text-transform:none;direction:ltr;block-progression:tb;writing-mode:lr-tb;baseline-shift:baseline;text-anchor:start;white-space:normal;clip-rule:nonzero;display:inline;overflow:visible;visibility:visible;opacity:1;isolation:auto;mix-blend-mode:normal;color-interpolation:sRGB;color-interpolation-filters:linearRGB;solid-color:#000000;solid-opacity:1;fill:#ffffff;fill-opacity:1;fill-rule:nonzero;stroke:none;stroke-width:0.72425032;stroke-linecap:round;stroke-linejoin:round;stroke-miterlimit:4;stroke-dasharray:none;stroke-dashoffset:0;stroke-opacity:1;color-rendering:auto;image-rendering:auto;shape-rendering:auto;text-rendering:auto;enable-background:accumulate"
       d="m 26.86354,9.766832 -0.0719,0.0065 c -0.271727,0.126517 -0.361023,0.436634 -0.500002,0.676474 -0.285089,0.709695 -0.500479,1.445704 -0.655232,2.194453 0.01938,0.764791 0.03384,1.541291 0.227125,2.285957 0.265948,0.860989 0.577298,1.707586 0.849677,2.567005 0.260929,0.822631 0.450269,1.674174 0.477127,2.539227 0.0372,0.584491 -0.121703,1.162545 -0.390525,1.678111 -0.107566,0.236562 -0.226067,0.46741 -0.339871,0.700984 0.568145,-0.838549 0.871269,-1.592884 1.058828,-2.310468 0.176268,-0.794341 0.09764,-1.626085 -0.129085,-2.401971 -0.277977,-0.914671 -0.59052,-1.817898 -0.874187,-2.730403 -0.237224,-0.834254 -0.380383,-1.726934 -0.173203,-2.583345 0.136975,-0.750914 0.394516,-1.478453 0.750002,-2.153604 0.05189,-0.117445 0.0656,-0.287907 -0.04739,-0.375818 l -0.112746,-0.07843 -0.06863,-0.01471 z m 1.952623,0.0033 -0.116014,0.0065 c -0.159284,0.06824 -0.204771,0.25282 -0.312092,0.374185 -0.402849,0.798107 -0.713334,1.659264 -0.787586,2.555566 -0.07666,0.881432 0.02444,1.776039 0.315361,2.612756 0.249507,0.821857 0.575487,1.617171 0.833337,2.436285 0.229956,0.726389 0.387868,1.486981 0.397061,2.250009 -0.01877,0.7419 -0.276705,1.453814 -0.594774,2.116022 l -0.06372,0.13889 c -0.04431,0.04423 -0.132388,0.203034 -0.153596,0.254903 0.08976,-0.04194 0.342342,-0.433459 0.380721,-0.501636 0.275284,-0.450576 0.455726,-0.808658 0.612747,-1.334973 0.166665,-0.558637 0.229497,-1.093948 0.225492,-1.714059 -0.04215,-0.738349 -0.262899,-1.454433 -0.485296,-2.16014 -0.277462,-0.860281 -0.63858,-1.697704 -0.805559,-2.58988 -0.175262,-0.800896 -0.07937,-1.633409 0.135621,-2.416677 0.157291,-0.557746 0.393491,-1.087013 0.640526,-1.609484 0.09063,-0.171428 -0.03604,-0.390048 -0.222224,-0.418303 z m 1.897067,0 -0.116014,0.01961 c -0.19046,0.116679 -0.267693,0.335107 -0.370916,0.519611 -0.277906,0.767923 -0.513297,1.55335 -0.6585,2.357853 -0.02327,0.742304 0.04305,1.488157 0.232028,2.207525 0.22198,0.928352 0.646644,1.790613 0.919938,2.702626 0.249511,0.83584 0.479604,1.345052 0.47059,2.218964 0.0051,0.356191 -0.144444,1.208513 -0.282681,1.684647 0.210753,-0.467995 0.46534,-1.118946 0.506538,-1.598046 0.03796,-0.398822 -0.0057,-0.819319 -0.04738,-1.214057 -0.17047,-0.920838 -0.462381,-1.864855 -0.710787,-2.767986 L 30.24428,14.351853 c -0.09968,-0.800615 -0.09205,-1.617889 0.07843,-2.408506 l 0.222222,-0.767978 0.459153,-1.044122 0.0017,-0.130719 -0.06046,-0.117648 -0.102942,-0.0817 -0.129086,-0.03105 z m -4.496752,15.921637 -1.266345,0.150327 c -0.859734,0.153149 -1.72237,0.293984 -2.571906,0.498368 -0.812657,0.322862 -1.631286,0.633496 -2.418311,1.016344 -0.741446,0.36765 -1.456009,0.789515 -2.125826,1.276149 -0.691496,0.543673 -1.349748,1.137771 -1.903603,1.823537 -0.58573,0.691192 -1.073496,1.465037 -1.418306,2.303932 -0.136286,0.356674 -0.266707,0.716757 -0.351309,1.089874 -0.07926,0.269705 -0.111841,0.550661 -0.169935,0.825167 -0.02935,0.252132 -0.06506,0.503615 -0.05229,0.758173 2.2e-4,0.353967 0.04189,0.707003 0.05882,1.060462 0.07655,0.454666 0.169554,0.907524 0.338236,1.338241 0.278237,0.875547 0.744188,1.670956 1.209156,2.457526 l 0.04739,0.0817 0.09967,0.07026 c 0.09465,0.04284 0.193818,-0.0376 0.287583,0.01144 0.118047,0.0039 0.234758,-0.01002 0.351308,-0.02614 -0.09713,-0.398758 -0.226567,-0.797002 -0.217321,-1.212424 -0.006,-0.959154 -0.01198,-1.918309 -0.01797,-2.877463 l 0.0065,-0.434642 0.03758,-0.0915 2.19282,-1.763079 2.697725,-2.096415 c 0.176338,-0.137472 0.401563,-0.17397 0.609479,-0.236929 l 0.803925,0.04085 0.482029,0.207518 c 0.118412,0.129273 0.299816,0.189825 0.38889,0.348041 0.0916,0.142438 0.205759,0.274445 0.259805,0.43791 0.05085,0.139818 0.168718,0.276244 0.127451,0.436277 -0.02732,0.351255 -0.06864,0.700875 -0.122549,1.049023 -0.223863,0.259696 -0.434844,0.53543 -0.710788,0.743468 l -3.192823,2.588246 -0.03758,2.299029 -0.235295,0.54412 2.758182,0.04085 5.192832,0.0065 c -0.450989,-0.567582 -0.932701,-1.116921 -1.284319,-1.754909 -0.190968,-0.292887 -0.265942,-0.637378 -0.366014,-0.967325 -0.07543,-0.46166 -0.15046,-0.92976 -0.11438,-1.398698 0.01188,-0.250429 0.03202,-0.500631 0.09804,-0.743468 0.08375,-0.496312 0.301128,-0.954263 0.473858,-1.423209 0.400399,-0.570748 0.860906,-1.108883 1.429744,-1.51798 0.670077,-0.509691 1.400785,-0.931557 2.114388,-1.375822 l 1.808832,-1.091509 c 0.812582,-0.236998 1.652404,-0.46389 2.506546,-0.39706 0.246571,0.0081 0.491307,0.0395 0.736932,0.06046 0.487908,0.199434 0.998808,0.358986 1.437914,0.6585 0.511973,0.31283 0.938049,0.740412 1.377457,1.143795 l 1.61115,-0.965697 -1.320267,-1.398699 -2.057198,-1.465692 C 35.020327,27.437769 34.226143,27.07407 33.424026,26.727688 32.63107,26.488614 31.840185,26.239171 31.030225,26.062653 l -2.29086,-0.333335 -2.522887,-0.03758 z m 0.233662,0.870918 0.02287,0.0017 c 0.141009,0.0511 0.17837,0.218027 0.31046,0.281047 0.407417,0.379451 0.838741,0.745842 1.142161,1.21896 0.05687,0.11165 0.08596,0.233828 0.127452,0.351308 l -0.06536,0.07353 -0.03758,0.01144 c -0.05491,-0.04283 -0.103538,-0.132615 -0.187909,-0.124183 -0.330604,-0.278993 -0.688182,-0.539435 -0.928108,-0.906866 -0.17282,-0.239694 -0.34301,-0.481707 -0.514709,-0.722226 l -0.01471,-0.067 0.05229,-0.08333 0.09314,-0.03432 z m -1.934649,0.01634 0.06863,0.0065 0.06536,0.03105 1.385626,1.611118 0.0082,0.107844 c 0.0089,0.06528 -0.09285,0.03376 -0.102942,0.0033 -0.06397,-0.01507 -0.163885,-0.01254 -0.196079,-0.08824 l -0.04575,-0.04411 -0.07353,-0.0017 C 25.341838,27.997391 25.1026,27.739596 24.855362,27.492397 l -0.436276,-0.751637 -0.0033,-0.07027 0.03758,-0.05882 0.06209,-0.03268 z m -1.978766,0.02942 0.04575,0.02451 1.470595,1.570268 0.06046,0.127451 0.0017,0.0017 0.05066,0.09477 c 0.0091,0.08269 -0.143663,0.08915 -0.137255,-0.0049 -0.252928,-0.20328 -0.516033,-0.395682 -0.772879,-0.594773 l -0.529415,-0.864383 -0.25817,-0.285949 0.0049,-0.02614 0.03595,-0.03921 0.02778,-0.0033 z m 20.042568,1.307195 c -0.411622,0.01973 -0.688036,0.146627 -0.954252,0.43791 -0.33186,0.363111 -0.422983,0.815659 -0.266341,1.315365 0.09917,0.316355 0.09687,0.361206 -0.02777,0.483662 -0.05768,0.05667 -0.846135,0.537133 -1.751642,1.068632 l -1.647065,0.967324 0.140522,0.281048 c 0.07691,0.154781 0.150065,0.280931 0.1634,0.281047 0.01333,1.2e-4 0.443155,-0.245023 0.954253,-0.545754 2.410966,-1.418616 2.805156,-1.644909 2.897071,-1.658504 0.05423,-0.008 0.402725,0.08391 0.774513,0.202615 0.787453,0.251423 0.974548,0.287334 1.264711,0.241831 0.878191,-0.137713 1.397463,-1.094247 1.027782,-1.892165 -0.116979,-0.252488 -0.370213,-0.526118 -0.589872,-0.637258 -0.09524,-0.04819 -0.507615,-0.19343 -0.91667,-0.32353 C 42.932517,27.91033 42.891149,27.9007 42.579301,27.915642 Z m -9.336641,2.441186 -0.449348,0.08333 c -0.292682,0.07786 -0.594727,0.144304 -0.851311,0.313727 -0.801345,0.458358 -1.609465,0.904223 -2.406873,1.369287 l -1.709158,1.03922 c -0.554614,0.625232 -1.163839,1.251101 -1.418306,2.068636 l -0.168301,0.477127 c -0.01948,0.800241 -0.01939,1.61918 0.228759,2.388898 0.05631,0.143114 0.06901,0.312085 0.181373,0.428107 l 0.558826,0.859481 c 0.459303,0.37378 0.913069,0.756397 1.410137,1.08007 l 0.0719,0.01144 c 0.06337,-0.0121 0.151426,-0.07697 0.215687,-0.01961 l 3.436289,0.03268 2.658508,-1.534321 1.382359,-0.9902 c 0.358415,-0.423183 0.70797,-0.853565 1.049024,-1.290855 0.228501,-0.664426 0.420604,-1.348865 0.459152,-2.053931 0.03393,-0.219336 0.01079,-0.441576 -0.06372,-0.650329 -0.127494,-0.44536 -0.23164,-0.904831 -0.464055,-1.310463 -0.171304,-0.350441 -0.424435,-0.64975 -0.653604,-0.962468 -0.445188,-0.334544 -0.862761,-0.723382 -1.382359,-0.941181 -0.250916,-0.124296 -0.520563,-0.203993 -0.785951,-0.29085 -0.431969,-0.04847 -0.864994,-0.08422 -1.299025,-0.107845 z m -11.205929,1.983669 c -0.487308,-0.03183 -0.41238,-0.08121 -2.983674,1.960793 l -2.333342,1.851315 0,1.769615 c 0,1.694243 0.0045,1.77683 0.08006,1.978766 0.04916,0.131386 0.142744,0.275098 0.250001,0.382355 l 0.173203,0.173204 0.640525,0 0.642161,0 0.19281,-0.212419 c 0.297371,-0.325371 0.310459,-0.396447 0.310459,-1.751642 0,-0.962014 0.0089,-1.159852 0.05719,-1.228763 0.03168,-0.04523 0.833681,-0.69555 1.782687,-1.444451 0.949006,-0.7489 1.806753,-1.439421 1.905237,-1.53432 0.240913,-0.23214 0.347774,-0.486198 0.348041,-0.828435 5.09e-4,-0.620843 -0.433248,-1.074732 -1.065364,-1.116018 z m 18.161841,0.03758 c -0.02425,0.0062 -0.43602,0.240498 -0.913402,0.521244 -0.642015,0.377566 -0.860929,0.524906 -0.844776,0.566996 0.132946,0.346451 0.173364,1.447351 0.07516,2.016348 -0.209127,1.211746 -0.887018,2.346786 -1.838243,3.076811 -0.164976,0.126613 -2.447572,1.532413 -3.00328,1.849681 -0.05774,0.03296 0.55875,0.04492 2.539226,0.04575 l 2.616024,0.0017 -0.151961,-0.1634 c -0.204102,-0.217792 -0.471494,-0.634762 -0.580068,-0.901964 -0.151899,-0.373827 -0.222,-0.810816 -0.197714,-1.241836 0.02763,-0.490273 0.09754,-0.753461 0.320264,-1.202619 0.152376,-0.307287 0.235475,-0.41708 0.544119,-0.725493 0.40717,-0.406864 0.532333,-0.482292 1.488569,-0.893795 0.325146,-0.139922 0.614518,-0.276993 0.642159,-0.303923 0.06193,-0.06033 0.01447,-0.465654 -0.132353,-1.127456 -0.141204,-0.636472 -0.476841,-1.540217 -0.563728,-1.51798 z m 3.634003,0.851311 c -0.980281,0.0081 -1.904808,0.637104 -2.21733,1.638896 -0.06624,0.212325 -0.08349,0.359873 -0.08333,0.723859 2.08e-4,0.48357 0.06309,0.748576 0.250001,1.065364 0.04445,0.07534 0.09091,0.137351 0.104576,0.137256 0.01366,-9.6e-5 0.136525,-0.113987 0.272877,-0.251635 0.298671,-0.301512 0.571588,-0.486324 0.954253,-0.65033 0.697408,-0.298899 1.558965,-0.320885 2.250009,-0.05556 0.193927,0.07446 0.213112,0.07696 0.248367,0.01797 0.285354,-0.477402 0.636233,-0.888665 0.93301,-1.093142 0.05855,-0.04037 0.08005,-0.07803 0.05719,-0.09967 -0.158708,-0.15032 -1.610177,-1.143642 -1.790858,-1.225495 -0.318883,-0.144467 -0.652002,-0.210218 -0.978762,-0.207518 z m 4.567012,1.62419 c -0.804395,-0.02543 -1.595171,0.365262 -2.040858,1.032684 -0.08476,0.126923 -0.153596,0.242485 -0.153596,0.258171 0,0.01569 0.304129,0.153403 0.676474,0.305556 0.858126,0.350661 1.139525,0.516243 1.496739,0.877456 0.609594,0.61642 0.857732,1.27808 0.833336,2.227133 l -0.01307,0.490199 0.191177,0.0768 c 0.104886,0.04183 0.310677,0.09858 0.457518,0.125818 0.349143,0.06478 0.473426,0.06365 0.839873,-0.0017 0.87157,-0.155267 1.607898,-0.831396 1.828439,-1.678112 0.06844,-0.262767 0.07795,-0.840766 0.01797,-1.132358 -0.02286,-0.111163 -0.110585,-0.345619 -0.194445,-0.521244 -0.192086,-0.402283 -0.53825,-0.762877 -0.928108,-0.96569 -0.428501,-0.222917 -2.419116,-1.011842 -2.666678,-1.057194 -0.114539,-0.02098 -0.22986,-0.03395 -0.344774,-0.03758 z m -7.555587,0.918305 -0.571898,0.254902 c -0.663259,0.295415 -0.841801,0.409762 -1.135626,0.727128 -0.377185,0.407406 -0.599675,0.97814 -0.599675,1.539222 0,0.844266 0.427829,1.548106 1.230397,2.022884 l 0.235295,0.140524 0.872553,0 c 0.519863,0 0.899378,-0.01596 0.942814,-0.03921 0.06902,-0.03694 0.06591,-0.0499 -0.06209,-0.250001 -0.270204,-0.422397 -0.430414,-1.013374 -0.433008,-1.59151 -0.0013,-0.307868 0.08041,-0.791533 0.171569,-1.009808 0.05034,-0.120531 0.04746,-0.132789 -0.08497,-0.305557 -0.252494,-0.329419 -0.421514,-0.750171 -0.534316,-1.330071 l -0.03105,-0.158497 z m -9.872591,0.117647 0.04085,0.02778 c 0.09756,0.147859 0.268601,0.216429 0.383989,0.346406 0.287432,0.269605 0.574833,0.544398 0.794121,0.874187 l 0.334969,0.46242 c 0.01226,0.04072 0.04134,0.111819 0,0.150328 l -0.06046,0.04248 c -0.07096,0.02578 -0.158137,-0.0067 -0.19281,-0.07516 -0.314588,-0.239619 -0.655062,-0.458051 -0.901965,-0.77288 -0.243168,-0.27438 -0.423148,-0.595623 -0.599676,-0.915037 l 0.04085,-0.08333 0.07516,-0.05556 0.08497,-0.0017 z m 13.315416,0.411766 c -0.200276,4.02e-4 -0.401702,0.01805 -0.545754,0.05556 -0.432716,0.112643 -0.774712,0.309844 -1.086606,0.624186 -0.506186,0.51016 -0.707827,1.023733 -0.67484,1.720596 0.03031,0.64028 0.236879,1.122503 0.663402,1.549026 l 0.205884,0.205883 2.743475,0 2.74511,0 0.05719,-0.112746 c 0.166867,-0.322683 0.229817,-0.974631 0.137255,-1.433012 -0.02542,-0.125863 -0.114379,-0.37153 -0.197713,-0.545754 -0.170077,-0.355573 -0.462927,-0.679326 -0.81863,-0.906866 -0.231715,-0.148227 -2.334922,-1.011899 -2.686286,-1.102947 -0.142483,-0.03694 -0.342211,-0.05432 -0.542486,-0.05392 z m -11.508219,0.109478 c 0.03,-0.01087 0.06774,-0.0088 0.08987,0.0017 l 1.55066,1.736934 -0.02614,0.06209 c -0.02988,0.03601 -0.0765,-0.01467 -0.111112,0.01144 -0.06725,-0.01145 -0.08024,-0.103579 -0.153595,-0.102942 -0.07186,-0.02767 -0.168947,-0.03316 -0.217321,-0.104576 C 33.79959,37.9581 33.647133,37.914375 33.616841,37.768687 33.297885,37.356529 32.988202,36.936326 32.73285,36.4811 32.72635,36.44549 32.7486,36.4217 32.7786,36.41084 Z m -1.983668,1.434646 0.08333,0.0049 c 0.06459,0.03222 0.06977,0.115546 0.120915,0.160132 l 0.06863,0.0098 0.594774,0.43791 0.748369,1.200985 -0.0033,0.05882 -0.05719,0.01144 -0.910135,-0.687911 -0.759807,-1.070266 0.03758,-0.07843 0.0768,-0.04739 z m -20.496819,2.684653 0,0.686277 0,0.686278 1.281051,0 0.01634,0.133987 c 0.128982,1.06199 0.539193,1.954556 1.246737,2.710796 0.741321,0.792343 1.769636,1.322009 2.831712,1.459156 0.141281,0.01825 7.254928,0.02916 16.567063,0.02614 l 16.320331,-0.0049 0.323531,-0.0768 c 0.934436,-0.220528 1.630579,-0.591548 2.285957,-1.220594 0.574227,-0.551159 0.965487,-1.163271 1.209155,-1.892165 0.109797,-0.328432 0.23813,-0.933381 0.238563,-1.127456 8e-6,-0.0034 -0.09502,-0.0051 -0.104575,-0.0082 l 1.187913,0 0,-0.686278 0,-0.686277 -43.403778,0 z"
       id="path5863"
       inkscape:connector-curvature="0" />
  </g>
</svg>
