<?xml version="1.0" encoding="UTF-8" standalone="no"?>
<!-- Created with Inkscape (http://www.inkscape.org/) -->

<svg
   xmlns:dc="http://purl.org/dc/elements/1.1/"
   xmlns:cc="http://creativecommons.org/ns#"
   xmlns:rdf="http://www.w3.org/1999/02/22-rdf-syntax-ns#"
   xmlns:svg="http://www.w3.org/2000/svg"
   xmlns="http://www.w3.org/2000/svg"
   xmlns:sodipodi="http://sodipodi.sourceforge.net/DTD/sodipodi-0.dtd"
   xmlns:inkscape="http://www.inkscape.org/namespaces/inkscape"
   width="64"
   height="64"
   id="svg4839"
   version="1.1"
   inkscape:version="0.91 r13725"
   viewBox="0 0 64 64"
   sodipodi:docname="poisson.svg">
  <defs
     id="defs4841" />
  <sodipodi:namedview
     id="base"
     pagecolor="#ffffff"
     bordercolor="#666666"
     borderopacity="1.0"
     inkscape:pageopacity="0.0"
     inkscape:pageshadow="2"
     inkscape:zoom="5.4837278"
     inkscape:cx="33.702238"
     inkscape:cy="26.096034"
     inkscape:current-layer="layer1"
     showgrid="true"
     inkscape:document-units="px"
     inkscape:grid-bbox="true"
     inkscape:snap-object-midpoints="true"
     inkscape:snap-page="true"
     inkscape:snap-bbox="true"
     inkscape:bbox-nodes="true"
     inkscape:snap-global="true"
     showguides="true"
     inkscape:window-width="1474"
     inkscape:window-height="841"
     inkscape:window-x="-8"
     inkscape:window-y="-8"
     inkscape:window-maximized="1"
     inkscape:object-nodes="true" />
  <metadata
     id="metadata4844">
    <rdf:RDF>
      <cc:Work
         rdf:about="">
        <dc:format>image/svg+xml</dc:format>
        <dc:type
           rdf:resource="http://purl.org/dc/dcmitype/StillImage" />
        <dc:title></dc:title>
      </cc:Work>
    </rdf:RDF>
  </metadata>
  <g
     id="layer1"
     inkscape:label="Layer 1"
     inkscape:groupmode="layer">
    <path
       style="opacity:0.33200001;fill:#000000;fill-opacity:1;stroke:none;stroke-width:0.2;stroke-linecap:round;stroke-linejoin:round;stroke-miterlimit:4;stroke-dasharray:none;stroke-opacity:1"
       d="M 47.482422 11.234375 L 46.308594 12.410156 C 46.098662 12.337996 45.888125 12.263047 45.679688 12.210938 C 35.687364 9.7128556 18.386516 30.700837 17.324219 39.199219 C 16.778681 43.563512 19.219817 46.172039 20.929688 49.523438 L 20.357422 50.095703 L 34.263672 64 L 64 64 L 64 27.751953 L 47.482422 11.234375 z "
       id="rect4157" />
    <path
       style="fill:#ffffff;fill-rule:evenodd;stroke:none;stroke-width:0.24310581;stroke-linecap:butt;stroke-linejoin:miter;stroke-miterlimit:4;stroke-dasharray:none;stroke-opacity:1;fill-opacity:1"
       d="m 44.741713,10.633712 c -5.615139,0.05548 -14.436406,5.751772 -18.785305,8.909132 l -6.478074,-0.05223 0.05223,6.843682 c -6.145214,9.48338 -4.201384,14.792208 -1.880272,19.905871 3.396249,5.819053 4.477914,4.739019 6.634762,6.845263 -0.665317,-2.385867 -1.330051,-4.773641 -3.083138,-6.479655 0.926693,-1.493053 1.862959,-2.931583 2.926449,-3.603854 -1.647323,-0.101574 -1.393469,-0.74622 -5.642397,-0.104459 1.568275,-3.816192 5.073958,-5.810144 8.986685,-7.419792 l 0.470068,3.239828 c 2.226665,-1.287963 3.240352,-3.257438 3.238245,-5.799086 1.991709,-1.500033 3.7905,-2.86861 5.276789,-4.023275 l 0.57611,1.984731 c 1.639169,-1.69183 2.366581,-2.126535 2.768177,-5.381248 6.455155,-5.064895 8.904178,-9.849907 8.777766,-12.486078 l -2.717531,2.14142 1.620705,-3.918815 c -0.771253,-0.428514 -1.701427,-0.61171 -2.741267,-0.601437 z m -2.920119,1.856531 a 1.0710433,1.0710433 0 0 1 1.071502,1.071502 1.0710433,1.0710433 0 0 1 -1.071502,1.071502 1.0710433,1.0710433 0 0 1 -1.071502,-1.071502 1.0710433,1.0710433 0 0 1 1.071502,-1.071502 z m -3.952052,1.932501 c 0.139497,2.078583 -0.276471,5.446574 4.545572,7.679359 -1.622731,-0.07287 -5.846801,-1.745708 -5.537937,-7.157061 l 0.992365,-0.522298 z"
       id="path4147"
       inkscape:connector-curvature="0" />
  </g>
</svg>
