<?xml version="1.0" encoding="UTF-8" standalone="no"?>
<!-- Created with Inkscape (http://www.inkscape.org/) -->

<svg
   xmlns:dc="http://purl.org/dc/elements/1.1/"
   xmlns:cc="http://creativecommons.org/ns#"
   xmlns:rdf="http://www.w3.org/1999/02/22-rdf-syntax-ns#"
   xmlns:svg="http://www.w3.org/2000/svg"
   xmlns="http://www.w3.org/2000/svg"
   xmlns:sodipodi="http://sodipodi.sourceforge.net/DTD/sodipodi-0.dtd"
   xmlns:inkscape="http://www.inkscape.org/namespaces/inkscape"
   width="64"
   height="64"
   id="svg4263"
   version="1.1"
   inkscape:version="0.91 r13725"
   viewBox="0 0 64 64"
   inkscape:export-filename="C:\Users\emile\Desktop\SÉMINAIRE TAL\graphismes\allergenes\lactose_sq.png"
   inkscape:export-xdpi="105.46875"
   inkscape:export-ydpi="105.46875"
   sodipodi:docname="arachides.svg">
  <defs
     id="defs4265" />
  <sodipodi:namedview
     id="base"
     pagecolor="#ffffff"
     bordercolor="#666666"
     borderopacity="1.0"
     inkscape:pageopacity="0.0"
     inkscape:pageshadow="2"
     inkscape:zoom="7.7781746"
     inkscape:cx="29.122225"
     inkscape:cy="29.869868"
     inkscape:current-layer="layer1"
     showgrid="true"
     inkscape:document-units="px"
     inkscape:grid-bbox="true"
     inkscape:snap-page="true"
     inkscape:snap-bbox="true"
     inkscape:bbox-nodes="true"
     inkscape:snap-nodes="true"
     inkscape:snap-others="false"
     inkscape:object-nodes="true"
     inkscape:window-width="1474"
     inkscape:window-height="841"
     inkscape:window-x="-8"
     inkscape:window-y="-8"
     inkscape:window-maximized="1" />
  <metadata
     id="metadata4268">
    <rdf:RDF>
      <cc:Work
         rdf:about="">
        <dc:format>image/svg+xml</dc:format>
        <dc:type
           rdf:resource="http://purl.org/dc/dcmitype/StillImage" />
        <dc:title></dc:title>
      </cc:Work>
    </rdf:RDF>
  </metadata>
  <g
     id="layer1"
     inkscape:label="Layer 1"
     inkscape:groupmode="layer">
    <path
       style="opacity:0.33200001;fill:#000000;fill-opacity:1;stroke:none;stroke-width:3.88100004;stroke-linecap:round;stroke-linejoin:round;stroke-miterlimit:4;stroke-dasharray:7.762, 7.762;stroke-dashoffset:0;stroke-opacity:1"
       d="M 47.007812 19.283203 L 46.923828 19.365234 C 47.508635 19.880304 48.024648 20.470801 48.457031 21.119141 C 49.86979 23.248074 50.305378 25.878397 49.65625 28.349609 C 48.511202 32.64096 44.395238 35.445103 39.982422 34.941406 C 39.936482 34.937006 39.891739 34.933388 39.845703 34.929688 C 39.815833 34.927087 39.785739 34.924775 39.755859 34.921875 L 39.759766 34.929688 C 35.566564 34.736896 31.801561 37.480421 30.701172 41.53125 C 28.057751 47.881844 20.322286 49.207385 15.791016 44.492188 L 15.769531 44.519531 L 34.986328 63.832031 L 35.154297 64 L 64 64 L 64 36.275391 L 63.71875 35.994141 L 47.007812 19.283203 z M 48.457031 21.119141 C 46.155879 23.7128 47.132684 24.184569 48.457031 21.119141 z "
       id="rect5450" />
    <path
       style="opacity:0.68599997;fill:#ffffff;fill-opacity:1;stroke:none;stroke-width:7.18100023;stroke-linecap:butt;stroke-linejoin:round;stroke-miterlimit:4;stroke-dasharray:none;stroke-opacity:1"
       d="m 43.624636,17.4983 a 8.9604548,8.9604548 0 0 1 0.540827,0.190125 8.9604548,8.9604548 0 0 0 -0.540827,-0.190125 z m 0.878026,0.324406 a 8.9604548,8.9604548 0 0 1 0.515355,0.240995 8.9604548,8.9604548 0 0 0 -0.515355,-0.240995 z m 0.781068,0.378957 a 8.9604548,8.9604548 0 0 1 0.547088,0.326243 8.9604548,8.9604548 0 0 0 -0.547088,-0.326243 z m 0.738183,0.451131 a 8.9604548,8.9604548 0 0 1 0.564013,0.417546 8.9604548,8.9604548 0 0 0 -0.564013,-0.417546 z m 0.695798,0.524028 a 8.9604548,8.9604548 0 0 1 0.564561,0.513009 8.9604548,8.9604548 0 0 0 -0.564561,-0.513009 z m 0.639892,0.587484 a 8.9604548,8.9604548 0 0 1 0.547909,0.607708 8.9604548,8.9604548 0 0 0 -0.547909,-0.607708 z m 0.583962,0.651238 a 8.9604548,8.9604548 0 0 1 0.515998,0.703011 8.9604548,8.9604548 0 0 0 -0.515998,-0.703011 z m 0.515998,0.703011 c -0.116406,0.270493 -0.238681,0.530684 -0.366931,0.780738 l 0.06166,0.04666 0.0119,0.02166 0.0024,0.0017 0.108194,0.0804 0.0982,0.178071 0.006,0.0099 0.132177,0.261581 0.0048,0.0099 0.122311,0.266464 0.0048,0.01012 0.112955,0.270508 0.0048,0.01059 0.05082,0.135963 0.01262,0.172171 -0.152721,0.20485 -0.254512,0.01845 -0.08022,-0.07991 -0.06654,0.0508 -0.249954,-0.05166 -0.124131,-0.22327 -0.0095,-0.114324 -0.02297,-0.169595 -0.03047,-0.160452 -0.04059,-0.159085 -0.0463,-0.14671 -0.0036,-0.0096 c -0.441405,0.744718 -0.939883,1.394969 -1.489423,1.971429 l -0.02226,0.0446 -0.006,0.01131 -0.01428,0.02635 -0.133713,0.126102 -0.03202,8.04e-4 c -0.332342,0.330299 -0.681979,0.636492 -1.047994,0.921819 l 0.07225,0.01513 0.122097,0.211798 -0.07606,0.232248 -0.175062,0.19259 -0.0095,0.01059 -0.380976,0.381585 -0.0095,0.0096 -0.415327,0.379763 -0.0095,0.0081 -0.334699,0.28108 -0.170719,0.06912 -0.229825,-0.0831 -0.09201,-0.226017 0.106885,-0.219799 0.32995,-0.276388 0.384463,-0.351496 c -3.308523,2.172239 -7.699414,3.142486 -12.359148,5.618326 -1.455085,0.77313 -2.738761,1.884484 -3.984254,3.107212 l 0.04083,0.0357 0.01416,0.0317 0.0119,0.0312 0.03737,0.114515 0.0083,0.03037 0.02428,0.120943 0.0048,0.02871 0.01226,0.127259 0.0024,0.02656 1.9e-4,0.132975 -9.05e-4,0.02375 -0.0119,0.138751 -0.0024,0.02101 -0.02321,0.144164 -0.0036,0.01857 -0.03428,0.148796 -0.0048,0.01669 -0.04511,0.153489 -0.0048,0.01446 -0.05642,0.157752 -0.0048,0.01325 -0.06689,0.161536 -0.006,0.01178 -0.07713,0.165084 -0.006,0.01024 -0.01297,0.0254 -0.122584,0.121175 -0.229612,0.01107 -0.160994,-0.163109 0.01357,-0.22952 0.01226,-0.02396 6.19e-4,-0.001 0.06939,-0.147457 0.06177,-0.14934 0.05225,-0.147244 0.03975,-0.133107 0.03023,-0.13386 0.01952,-0.1225 0.0095,-0.113312 -4.05e-4,-0.109944 -0.0095,-0.09978 -0.0083,-0.03929 c -2.248197,2.261091 -4.419933,4.806547 -7.306773,6.294392 l 0.182834,-0.03343 0.185632,-0.04073 0.0024,-6.03e-4 0.198748,-0.05062 0.0036,-0.001 0.09415,-0.02736 0.172253,0.0051 0.166315,0.158852 -0.0071,0.229033 -0.175836,0.14792 -0.102243,0.02977 -0.0083,0.0021 -0.205437,0.05239 -0.0095,0.0023 -0.199594,0.04413 -0.0095,0.0018 -0.194071,0.03578 -0.01071,0.0018 -0.188108,0.02695 -0.0119,0.0018 -0.181621,0.01848 -0.01285,9.11e-4 -0.174086,0.0096 -0.01452,1.19e-4 -0.166921,9.1e-4 -0.01571,-1.46e-4 -0.159624,-0.0082 -0.01714,-0.0018 -0.09498,-0.01071 -0.157316,-0.07048 -0.0083,-0.01841 c -0.849126,0.331539 -1.760932,0.56855 -2.750699,0.685111 l 0.01726,0.02604 0.06523,0.08632 0.05796,0.151961 0.06975,0.03323 0.146532,0.174924 0.262308,0.284055 0.0419,0.04124 0.0095,-0.0099 0.254143,0.01966 0.02416,0.01293 0.154495,0.07494 0.150174,0.06392 0.155614,0.05745 0.0024,6.11e-4 0.172325,0.05463 0.174146,0.04588 0.181419,0.03979 0.0482,0.0082 0.154483,0.07649 0.09927,0.235107 -0.112955,0.228962 -0.24674,0.06429 -0.05666,-0.01 -0.0125,-0.0018 -0.192905,-0.04216 -0.01321,-0.0027 -0.186953,-0.04953 -0.01345,-0.0037 -0.181264,-0.05718 -0.01381,-0.0045 -0.131404,-0.04798 -0.216448,0.133751 -0.243882,-0.0763 -0.142164,-0.127916 -0.01071,-0.0098 -0.285779,-0.282016 -0.0095,-0.01024 -0.272104,-0.294627 -0.0095,-0.01083 -0.150555,-0.179868 -0.06927,-0.157816 0.0024,-0.0073 -0.07927,-0.04243 -0.0732,-0.09676 -0.0119,-0.01566 -0.08808,-0.133014 -0.0095,-0.0153 -0.08046,-0.138041 -0.0083,-0.01529 -0.0048,-0.0092 c -0.229267,0.01347 -0.462033,0.02131 -0.699714,0.02168 l -0.08701,0.05691 a 8.9604548,8.9604548 0 0 0 5.354188,3.994451 8.9604548,8.9604548 0 0 0 10.655777,-5.509159 8.9604548,8.9604548 0 0 1 9.058588,-6.602111 l -0.0048,-0.0073 a 8.9604548,8.9604548 0 0 0 0.08986,0.008 8.9604548,8.9604548 0 0 1 0.137951,0.01213 8.9604548,8.9604548 0 0 0 9.673794,-6.59249 8.9604548,8.9604548 0 0 0 -1.200192,-7.230964 z m 0.54929,3.102723 0,0 0.151163,0.205565 0.01928,0.09308 0.0024,0.01178 0.04844,0.290789 0.0024,0.0044 0.06535,0.425976 0.0024,0.01912 0.03607,0.405657 -0.03345,0.1695 -0.201617,0.156424 -0.250417,-0.04953 -0.126286,-0.221833 -0.03476,-0.394311 -0.06308,-0.413828 -0.0024,-0.0044 -0.04725,-0.282658 -0.0024,-0.004 -0.01714,-0.08125 0.01393,-0.171697 0.181442,-0.179268 0.254643,0.02041 z m -0.888702,-0.03777 0.224743,0.119295 0.05701,0.248687 -0.006,0.02814 -0.0024,0.01211 -0.05142,0.206762 -0.0024,0.01155 -0.0607,0.208922 -0.0024,0.01119 -0.06999,0.211091 -0.0048,0.01012 -0.07879,0.212404 -0.0048,0.0099 -0.0882,0.213595 -0.006,0.01408 -0.03773,0.08082 -0.114383,0.128878 -0.253191,0.03324 -0.191024,-0.169072 0.0036,-0.255067 0.03404,-0.07243 0.08189,-0.198499 0,-0.0045 0.07534,-0.201767 0.06796,-0.205531 2.15e-4,-0.001 0.0563,-0.193439 0.04702,-0.187789 0,-0.003 0.006,-0.02451 0.0807,-0.152328 0.238634,-0.09185 z m 0.856899,2.440922 0.0024,4.02e-4 0.237325,0.09414 0.08344,0.241279 -0.006,0.05948 -0.0024,0.01796 -0.06415,0.415622 -0.0036,0.01694 -0.08808,0.410965 -0.006,0.01624 -0.08617,0.31633 -0.08998,0.146912 -0.243169,0.07733 -0.217626,-0.133908 -0.04154,-0.25146 0.08356,-0.307075 0.08534,-0.398261 0.06082,-0.394866 0.0048,-0.05049 0.06368,-0.159988 0.22691,-0.117347 z m -1.733556,-0.178129 0.168992,0.191297 -0.03356,0.253121 -0.0901,0.14279 -0.0095,0.01446 -0.308704,0.434582 -0.0095,0.01313 -0.326438,0.412244 -0.140772,0.09937 -0.254107,-0.0244 -0.147472,-0.208266 0.0607,-0.248077 0.324308,-0.409534 0.0024,-0.0029 0.293374,-0.414106 0.08594,-0.136401 0.129,-0.114145 0.255428,-0.0031 z m -1.420687,1.995912 0.182312,0.178925 -0.01595,0.254593 -0.0095,0.01738 -0.0083,0.01409 -0.168813,0.278832 -0.0095,0.01396 -0.182906,0.269254 -0.0095,0.01343 -0.196821,0.258767 -0.01071,0.01296 -0.149924,0.176387 -0.144449,0.09449 -0.252798,-0.0336 -0.140153,-0.213051 0.06963,-0.245576 0.143723,-0.169473 0.186775,-0.245402 0.175336,-0.257258 0.16003,-0.265511 0.0048,-0.0094 0.120715,-0.122824 0.254464,-0.02098 z m 2.581041,0.544449 0.193809,0.166184 0,0.255522 -0.05213,0.115062 -0.006,0.01438 -0.193642,0.374978 -0.0071,0.01357 -0.21265,0.364695 -0.0083,0.01284 -0.140426,0.215624 -0.130868,0.112491 -0.255441,-0.0013 -0.166242,-0.19388 0.03797,-0.252515 0.137105,-0.210321 0.20445,-0.351251 0.188655,-0.36466 0,-0.0025 0.04571,-0.100933 0.112241,-0.130603 0.252821,-0.03743 z m -6.260446,-1.103907 1.78e-4,4.3e-5 0.217876,0.110277 0.0638,0.235896 -0.133821,0.205014 -0.158779,0.102552 -0.01071,0.0068 -0.519152,0.305645 -0.01071,0.0064 -0.514665,0.275019 -0.0119,0.0061 -0.381845,0.183453 -0.182037,0.02508 -0.201867,-0.136921 -0.03333,-0.242174 0.157994,-0.186377 0.376501,-0.18047 0.502049,-0.269131 0.513927,-0.303269 7.2e-5,-4.02e-4 0.148615,-0.09615 0.177574,-0.04748 z m 1.946849,2.373968 0.23867,0.09064 0.08748,0.239616 -0.124381,0.223398 -0.126012,0.09235 -0.01547,0.01095 -0.270377,0.174242 -0.0169,0.01 -0.280959,0.156879 -0.01773,0.0092 -0.290898,0.138065 -0.01893,0.0083 -0.09867,0.03872 -0.171825,0.01552 -0.207259,-0.148786 -0.02321,-0.254266 0.177003,-0.183668 0.0901,-0.03546 0.270592,-0.128425 0.264129,-0.147449 0.249918,-0.160848 0.123012,-0.09014 0.161994,-0.05895 z m 3.04956,0.811649 0.135986,0.216284 -0.07499,0.243835 -0.137188,0.154736 -0.0095,0.01119 -0.295909,0.302448 -0.01071,0.01036 -0.310513,0.287715 -0.01071,0.01024 -0.133951,0.11217 -0.157828,0.06928 -0.243764,-0.07528 -0.102599,-0.233931 0.109503,-0.230625 0.130083,-0.10886 0.295766,-0.274385 0.29104,-0.297156 0.0024,-0.0012 0.127321,-0.143856 0.145771,-0.0917 0.251726,0.03875 z m -8.162745,-1.67376 1.79e-4,3.9e-5 0.17292,0.172548 -0.01309,0.244131 -0.190512,0.153063 -0.109622,0.02916 -0.0095,0.0021 -0.218995,0.05081 -0.0095,0.002 -0.213448,0.0425 -0.01071,0.0018 -0.207307,0.03274 -0.0119,0.0018 -0.20051,0.02436 -0.0125,0.0012 -0.193583,0.0154 -0.01369,6.04e-4 -0.186,0.0063 -0.01512,-2.2e-5 -0.178038,-0.0031 -0.01654,-6.03e-4 -0.169528,-0.01208 -0.01881,-0.0023 -0.100457,-0.01343 -0.166207,-0.07928 -0.09332,-0.225361 0.104861,-0.220845 0.234409,-0.06874 0.09308,0.0122 0.15171,0.01119 0.162934,0.0029 0.163755,-0.0056 0.0036,1.05e-4 0.177443,-0.01371 0.0024,-2.01e-4 0.193654,-0.02327 0.199249,-0.0319 0.0024,-6.05e-4 0.198903,-0.03923 0.0048,-0.001 0.20076,-0.04674 0.0024,-6.04e-4 0.107242,-0.0281 0.183608,0.0096 z m 2.90786,1.682421 0.15997,0.06376 0.117478,0.226612 -0.09463,0.236869 -0.241336,0.08371 -0.02297,-0.0023 -0.0024,-2.6e-5 -0.0036,-4.02e-4 -0.312525,-0.02272 -0.301134,0.120457 -0.0095,0.0037 -0.364681,0.131479 -0.0095,0.0033 -0.02309,0.0075 -0.172099,0.0048 -0.19757,-0.161913 -0.0071,-0.255037 0.188191,-0.172175 0.01345,-0.0042 0.36267,-0.130953 0.0024,-6.03e-4 0.357159,-0.14252 0.135998,-0.02082 0.389773,0.02783 0.0071,8.05e-4 0.03071,0.0029 z m 3.22492,1.520459 0.229504,0.111765 0.0663,0.246219 -0.14364,0.211478 -0.244466,0.14841 -0.01393,0.0079 -0.370776,0.199973 -0.01452,0.0074 -0.380976,0.179217 -0.01512,0.0069 -0.09272,0.03743 -0.171623,0.01746 -0.208639,-0.146548 -0.02619,-0.254237 0.175217,-0.18562 0.08736,-0.03573 0.361146,-0.170416 0.36029,-0.193644 0.235813,-0.143272 0.16685,-0.04466 z m -5.503219,-0.921887 0,0 0.178847,0.181991 -0.02035,0.254308 -0.206164,0.151047 -0.219816,0.0456 -0.0119,0.0023 -0.345412,0.05753 -0.01226,0.0017 -0.339175,0.04273 -0.01333,0.0013 -0.310061,0.02578 -0.168873,-0.0349 -0.155625,-0.202395 0.05023,-0.250263 0.223078,-0.12478 0.297146,-0.02436 0.0024,1.7e-5 0.333259,-0.04175 0.0048,-6.03e-4 0.321487,-0.05337 0.0024,-6.05e-4 0.218364,-0.04494 0.171408,0.01376 z m -3.350587,-0.06955 0.25919,0.07694 0.263248,0.06072 0.268021,0.04531 0.04475,0.0049 7.1e-5,-4.03e-4 0.158744,0.06665 0.113908,0.228394 -0.09855,0.235746 -0.242395,0.0797 -0.04999,-0.0054 -0.0169,-0.0025 -0.290302,-0.04902 -0.01797,-0.0033 -0.279817,-0.06451 -0.01845,-0.0049 -0.181894,-0.05414 -0.21571,0.06382 -0.172134,4.02e-4 -0.193428,-0.166419 0,-0.255221 0.192607,-0.167772 0.303086,-0.08911 0.174538,1.94e-4 z m 6.699805,1.960432 0.181156,0.179947 -0.01797,0.25482 -0.204378,0.153001 -0.347625,0.07569 -0.01857,0.0037 -0.418029,0.06507 -0.01857,0.0025 -0.423206,0.03999 -0.01916,0.0013 -0.02345,8.04e-4 -0.166837,-0.04309 -0.14514,-0.210301 0.06368,-0.247157 0.228885,-0.113157 0.01488,-6.04e-4 0.403257,-0.03817 0.401449,-0.06286 0.337746,-0.07365 0.171718,0.01222 z M 23.230219,29.481245 a 8.9604548,8.9604548 0 0 0 -1.788986,-6.03e-4 8.9604548,8.9604548 0 0 1 1.788986,6.03e-4 z m 11.535386,2.613265 -8.3e-5,4.04e-4 0.206628,0.150232 0.02166,0.254256 -0.178395,0.182745 -0.01654,0.0064 -0.0024,0.0012 -0.006,0.0023 -0.3454,0.144982 -0.348411,0.157925 -0.350589,0.171362 -0.0024,0.001 -0.015,0.008 -0.168778,0.03416 -0.222304,-0.125099 -0.05094,-0.250266 0.155638,-0.202341 0.02309,-0.01191 0.0083,-0.004 0.352065,-0.172317 0.0083,-0.004 0.356814,-0.161851 0.0083,-0.0037 0.361266,-0.151449 0.0083,-0.0033 0.0244,-0.0094 0.171706,-0.01492 z m 5.676413,1.550689 2.02e-4,4.1e-5 0.159553,0.0643 0.116645,0.227084 -0.09534,0.23675 -0.231242,0.0792 0.0024,0.0046 -0.0095,-8.06e-4 -0.389748,-0.02183 -0.0036,-2.01e-4 -0.40571,-0.006 -0.0036,4.02e-4 -0.386391,0.01047 -0.16666,-0.044 -0.144127,-0.210719 0.06522,-0.246827 0.229303,-0.112122 0.398782,-0.01071 0.0125,-2.01e-4 0.412899,0.0061 0.01309,6.05e-4 0.412256,0.02307 0.01297,8.06e-4 0.0024,5.7e-5 z m -2.350441,0.135811 -7.1e-5,4.02e-4 0.167921,0.192024 -0.03499,0.252826 -0.214614,0.138549 -0.01428,0.0021 -0.0036,6.05e-4 -0.397414,0.07507 -0.385844,0.0879 -0.0024,1.79e-4 -0.360266,0.09673 -0.172265,-0.0035 -0.189298,-0.171235 0.006,-0.254924 0.196677,-0.163134 0.360766,-0.09758 0.01071,-0.0027 0.403841,-0.09235 0.0119,-0.0023 0.406554,-0.07663 0.01214,-0.0018 0.02642,-0.0039 0.171789,0.02392 z M 18.846076,30.142075 a 8.9604548,8.9604548 0 0 0 -1.199835,0.630246 8.9604548,8.9604548 0 0 1 1.199835,-0.630246 z m 13.672867,3.064021 0.232968,0.104278 0.0738,0.244652 -0.136606,0.215475 -0.263212,0.171639 -0.30605,0.213513 -9.05e-4,8.05e-4 -0.306371,0.228598 -0.0036,0.0031 -0.0048,0.0032 -0.09177,0.07362 -0.159482,0.06515 -0.241955,-0.0809 -0.09712,-0.236248 0.115217,-0.227842 0.09974,-0.07987 0.0083,-0.0058 0.315096,-0.235613 0.0083,-0.0058 0.322333,-0.224943 0.0083,-0.0054 0.263498,-0.171577 0.164731,-0.04953 8.3e-5,-4.03e-4 z m 3.147208,1.227964 0.207973,0.148301 0.02392,0.254095 -0.176217,0.184461 -0.04999,0.01988 0,4.02e-4 -0.361944,0.160778 -0.355529,0.173804 -0.0048,0.0023 -0.300705,0.16222 -0.16885,0.03604 -0.223362,-0.123105 -0.0532,-0.249803 0.154031,-0.203626 0.304883,-0.164185 0.01071,-0.0056 0.371419,-0.181846 0.01071,-0.0054 0.378191,-0.167482 0.01071,-0.0044 0.05058,-0.02035 0.17104,-0.01633 z m -5.112995,0.284263 0.242764,0.07855 0.09951,0.235178 -0.112597,0.229019 -0.06368,0.05205 -0.0024,0.002 -0.17286,0.154856 -0.171968,0.168619 -0.151781,0.161161 -0.153412,0.176599 -0.0036,0.0037 -0.09094,0.113265 -0.141533,0.09859 -0.253655,-0.02652 -0.145984,-0.209217 0.06249,-0.247397 0.09427,-0.117299 0.0071,-0.0088 0.160898,-0.185143 0.0083,-0.0093 0.168909,-0.179675 0.0095,-0.0092 0.177526,-0.174084 0.0095,-0.0089 0.187227,-0.167636 0.01071,-0.0092 0.06653,-0.05426 0.15859,-0.06692 z m 2.90123,0.903443 0.236611,0.09589 0.08236,0.241695 -0.129083,0.220206 -0.05808,0.04059 -0.318881,0.24461 -0.0024,0.0021 -0.302384,0.251844 -0.237574,0.2152 -0.1549,0.07495 -0.246644,-0.06611 -0.111646,-0.230131 0.101052,-0.23427 0.242955,-0.219759 0.0095,-0.0081 0.316191,-0.263484 0.01071,-0.008 0.327022,-0.250476 0.0095,-0.0071 0.06261,-0.04437 0.163458,-0.05548 z m -4.169635,1.073802 0.218173,0.132758 0.04202,0.251886 -0.0083,0.03109 -0.0036,0.01155 -0.06999,0.224666 -0.0036,0.01083 -0.07975,0.226092 -0.0036,0.01048 -0.08963,0.227522 -0.0048,0.0099 -0.09986,0.228222 -0.0036,0.0096 -0.09784,0.204967 -0.114979,0.128451 -0.253083,0.03264 -0.190155,-0.170151 0.0036,-0.255243 0.09332,-0.195488 9.17e-4,-0.0017 0.09463,-0.216992 9.05e-4,-0.002 0.08867,-0.224865 1.31e-4,-6.04e-4 0.07249,-0.204581 0.06999,-0.224663 0.006,-0.01947 0.08975,-0.146974 0.242978,-0.078 z m 2.552915,0.641179 0.139652,0.21389 -0.06987,0.245518 -0.04999,0.05774 -0.0024,0.0017 -0.25106,0.32193 -9.05e-4,0.0013 -0.226862,0.319415 -0.165707,0.258011 -0.130273,0.112622 -0.255452,2.02e-4 -0.166802,-0.192734 0.03606,-0.252594 0.169778,-0.263795 0.0083,-0.01166 0.238943,-0.336463 0.0083,-0.01095 0.253571,-0.32488 0.0083,-0.01059 0.05832,-0.06864 0.144401,-0.0942 0.253036,0.03397 z m -5.329573,0.587833 0.119073,0.196014 -0.06677,0.21936 -0.159862,0.184728 -0.0095,0.01012 -0.349685,0.366343 -0.0095,0.0092 -0.381928,0.36497 -0.0095,0.0086 -0.30849,0.27046 -0.158613,0.0685 -0.217424,-0.07293 -0.09117,-0.210075 0.0957,-0.208559 0.303907,-0.266679 0.373811,-0.357829 0.340032,-0.356365 0.15484,-0.178831 0.147508,-0.08944 0.225684,0.04247 z m 1.811018,1.001912 0.159779,0.199158 -0.04583,0.250876 -0.239002,0.342763 -0.0095,0.01343 -0.334343,0.427324 -0.09082,0.183393 -0.116526,0.126861 -0.253595,0.02905 -0.188072,-0.172555 0.0083,-0.25533 0.104028,-0.210912 0.03357,-0.05298 0.351387,-0.449966 0.231813,-0.332584 0.134642,-0.10792 0.254714,0.0094 z m 2.14336,0.451363 4.05e-4,8.3e-5 0.192654,0.167201 -4.05e-4,0.255336 -0.03892,0.0847 -0.06523,0.263253 -0.0024,0.01071 -0.0832,0.288853 -0.0036,0.01036 -0.09332,0.286097 -0.0036,0.01035 -0.07046,0.192054 -0.102243,0.138986 -0.249168,0.05619 -0.205414,-0.151554 -0.01964,-0.25448 0.06689,-0.182389 1.91e-4,-0.0012 0.0926,-0.28247 3.93e-4,-0.0021 0.07879,-0.274589 0.07094,-0.284781 0.01881,-0.05413 0.05047,-0.109741 0.113074,-0.130103 0.252322,-0.03659 z M 13.674628,36.086776 a 8.9604548,8.9604548 0 0 0 1.016691,6.958028 8.9604548,8.9604548 0 0 1 -1.016691,-6.958028 z m 10.135173,3.993406 0.206663,0.09878 0.06463,0.22063 -0.120608,0.194827 -0.147187,0.09992 -0.0095,0.0062 -0.481041,0.298465 -0.0095,0.0058 -0.477518,0.269526 -0.01071,0.0056 -0.354671,0.180299 -0.170183,0.02725 -0.192797,-0.124295 -0.03666,-0.226443 0.144723,-0.178739 0.350042,-0.177792 0.46527,-0.262296 0.470626,-0.292438 0.143092,-0.09699 0.165755,-0.04837 z m 3.211838,0.924827 0.167838,0.192318 -0.03547,0.252723 -0.121489,0.189911 -0.006,0.0092 -0.159054,0.230673 -0.0071,0.0093 -0.168099,0.225627 -0.0048,0.0054 -0.193071,0.246919 -0.01381,0.01639 -0.08546,0.09453 -0.146794,0.09051 -0.251881,-0.04097 -0.133856,-0.217417 0.07689,-0.243452 0.07725,-0.08551 0.183073,-0.233856 0.0048,-0.0057 0.161827,-0.21683 0.0024,-0.0026 0.146473,-0.212783 0.0024,-0.0036 0.119442,-0.186232 0.129488,-0.113407 0.255273,-0.001 z m 2.579089,0.664012 0.182739,0.178388 -0.01512,0.255087 -0.0338,0.06394 -0.0048,0.0087 -0.150651,0.261474 -0.006,0.009 -0.159327,0.256185 -0.006,0.0082 -0.167886,0.250285 -0.006,0.009 -0.147044,0.203503 -0.135843,0.106088 -0.254917,-0.01293 -0.156851,-0.201064 0.04928,-0.250787 0.140926,-0.195319 0.166719,-0.249275 9.16e-4,-0.0018 0.15221,-0.244738 0.0024,-0.0025 0.140188,-0.243139 0.03428,-0.06389 0.120168,-0.123254 0.25425,-0.02166 z m -4.364552,1.087976 0.231671,0.10748 0.07058,0.245223 -0.13939,0.213638 -0.131464,0.08367 -0.01726,0.0096 -0.260583,0.14251 -0.01726,0.009 -0.268367,0.12542 -0.01738,0.0073 -0.275568,0.108444 -0.0175,0.0064 -0.173455,0.05654 -0.172301,0.0055 -0.198344,-0.161131 -0.0083,-0.254855 0.187751,-0.173212 0.165397,-0.05417 0.25913,-0.102397 0.250787,-0.116776 0.241395,-0.132312 0.124393,-0.07849 0.165636,-0.0478 z m 2.98556,0.921392 0.12844,0.220703 -0.08272,0.241581 -0.01964,0.01994 -0.0071,0.0073 -0.214638,0.211152 -0.0083,0.0073 -0.22184,0.203341 -0.0083,0.0073 -0.229053,0.19552 -0.0083,0.0073 -0.232111,0.184457 -0.159779,0.06509 -0.241836,-0.08148 -0.09641,-0.236419 0.115812,-0.227415 0.223803,-0.177991 0.0048,-0.0037 0.0036,-0.0027 0.218066,-0.18676 0.0024,-0.0018 0.206271,-0.189228 0.0036,-0.0027 0.204176,-0.200399 0.0048,-0.0045 0.0024,-0.0037 0.01214,-0.01265 0.148829,-0.08667 0.250858,0.04743 z m -5.158474,-0.135345 0.15759,0.200591 -0.04868,0.250913 -0.221363,0.127033 -0.07987,0.0073 -0.01607,9.11e-4 -0.300538,0.01202 -0.01583,1.63e-4 -0.246585,-0.0027 -0.463925,0.16377 -0.171848,0.0095 -0.201903,-0.156194 -0.01416,-0.25522 0.183787,-0.176883 0.515058,-0.181798 0.105576,-0.01739 0.293314,0.0027 0.284589,-0.01119 0.07142,-0.0064 0.169289,0.03286 z m 3.063069,1.568378 0.222792,0.124256 0.05225,0.249912 -0.155162,0.203077 -0.248013,0.132194 -0.01071,0.0055 -0.270973,0.131821 -0.01071,0.0045 -0.276341,0.121222 -0.01071,0.0045 -0.281697,0.110622 -0.01071,0.0045 -0.03892,0.01366 -0.172324,0.009 -0.201356,-0.157342 -0.01262,-0.254902 0.184334,-0.176453 0.03642,-0.01257 0.0024,-9.1e-4 0.266247,-0.104707 0.0036,-0.0018 0.259725,-0.114264 0.255702,-0.123655 0.0048,-0.0027 0.243371,-0.12969 0.169052,-0.03533 z m -5.473094,-1.076594 0.17486,0.185896 -0.02595,0.254073 -0.209592,0.146234 -0.304371,0.05599 -0.01762,0.0027 -0.472209,0.05845 -0.01892,0.0018 -0.441691,0.02732 -0.168219,-0.03797 -0.151174,-0.205571 0.05618,-0.249029 0.225303,-0.120212 0.431146,-0.02667 0.454748,-0.05645 0.296111,-0.05426 0.171492,0.01784 z m 3.261639,1.93224 0.17761,0.183318 -0.0225,0.254174 -0.207437,0.149521 -0.350125,0.06948 -0.01797,0.0037 -0.401699,0.05491 -0.01797,0.0018 -0.401497,0.03132 -0.01797,9.1e-4 -0.06249,9.11e-4 -0.166397,-0.04516 -0.1427,-0.211371 0.06677,-0.246508 0.230242,-0.110646 0.05106,-9.1e-4 0.386321,-0.02969 0.381547,-0.05217 0.343507,-0.06801 0.171754,0.01512 z m -5.78951,-1.181912 0.147794,0.09942 0.330009,0.200345 0.338389,0.184412 0.211353,0.10198 0.127964,0.115788 0.0313,0.253427 -0.171242,0.1893 -0.255226,-0.0055 -0.218471,-0.105671 -0.01333,-0.0073 -0.351256,-0.190894 -0.01262,-0.0073 -0.342364,-0.207665 -0.0119,-0.0082 -0.153352,-0.103099 -0.110336,-0.132304 0.0048,-0.255347 0.196403,-0.163197 0.25206,0.04169 z m 2.129041,1.013479 0.111646,0.03505 0.366705,0.09435 0.375216,0.07629 0.298289,0.04406 0.156709,0.07193 0.105694,0.232685 -0.106766,0.231494 -0.245108,0.07156 -0.303503,-0.04489 -0.01607,-0.0027 -0.390094,-0.07903 -0.01571,-0.0037 -0.385488,-0.09955 -0.015,-0.0045 -0.119739,-0.03733 -0.143521,-0.09569 -0.06796,-0.245924 0.141676,-0.212527 0.252953,-0.03205 z"
       id="path5435"
       inkscape:connector-curvature="0" />
    <path
       style="opacity:1;fill:#ffffff;fill-opacity:1;stroke:none;stroke-width:7.18100023;stroke-linecap:butt;stroke-linejoin:round;stroke-miterlimit:4;stroke-dasharray:none;stroke-opacity:1"
       d="m 42.409792,17.21143 a 8.9604548,8.9604548 0 0 0 -9.756232,5.603811 8.9604548,8.9604548 0 0 1 -0.0071,0.0369 8.9604548,8.9604548 0 0 1 -9.415629,6.629107 8.9604548,8.9604548 0 0 0 -9.55559,6.60552 8.9604548,8.9604548 0 0 0 1.017404,6.959127 l 0.08701,-0.05691 c 0.237693,-4e-4 0.470459,-0.0082 0.699714,-0.02167 l -0.06761,-0.132831 -0.0071,-0.01602 -0.05773,-0.13142 -0.184442,-0.123492 -0.0726,-0.118096 -0.0071,-0.0133 -0.192511,-0.350597 -0.0071,-0.01381 -0.173884,-0.359648 -0.006,-0.01466 -0.112717,-0.267294 -0.0194,-0.171382 0.143842,-0.210807 0.253595,-0.02905 0.188,0.172858 0.108075,0.257496 0.167767,0.346682 0.01619,0.0296 0.171706,0.0062 0.160137,0.198915 0.0338,0.133027 0.04344,0.139474 0.05154,0.138632 0.05535,0.126185 0.06451,0.127478 0.06999,0.119766 0.06332,0.09534 c 0.989767,-0.116549 1.901572,-0.353572 2.750699,-0.685107 l -0.08498,-0.191717 0.09403,-0.209545 0.218721,-0.06918 0.08772,0.0095 0.139034,0.007 0.156435,-8.06e-4 0.16135,-0.0092 0.166088,-0.01674 0.178705,-0.02577 6.19e-4,-2.02e-4 c 2.886828,-1.487844 5.058564,-4.0333 7.306774,-6.29439 l -0.01071,-0.05374 -0.02678,-0.08198 -0.0071,-0.01668 -0.02071,-0.171031 0.131832,-0.188064 0.227934,-0.02716 0.132142,0.115395 c 1.245504,-1.222728 2.529169,-2.334083 3.984265,-3.107212 4.659889,-2.475934 9.050935,-3.446159 12.359506,-5.618564 l 0.01547,-0.01443 0.0024,-0.0018 0.374608,-0.375336 0.169409,-0.186518 0.159363,-0.0917 0.166564,0.03524 c 0.366026,-0.285329 0.715663,-0.59152 1.048006,-0.92182 l -0.212341,0.0055 -0.168314,-0.177893 0.02023,-0.243283 0.01345,-0.02528 0,-0.0017 0.07796,-0.157021 0.06856,-0.155824 0.05773,-0.152107 0.04678,-0.144918 0.03607,-0.143693 0.02357,-0.127359 0.0125,-0.123027 0.0024,-0.114705 -0.0071,-0.105159 -0.01726,-0.09803 -0.02738,-0.09224 -0.0071,-0.01644 -0.01726,-0.182943 0.145068,-0.196977 0.243454,-0.02296 0.0024,4.03e-4 0.179919,0.164849 0.01428,0.03424 0.0125,0.03322 0.03654,0.122861 0.0083,0.03257 0.02309,0.129532 0.0036,0.03054 0.0095,0.135967 0,0.0279 -0.0024,0.141556 -0.0024,0.02555 -0.01535,0.147376 -0.0024,0.02279 -0.02773,0.152369 -0.0048,0.01996 -0.04011,0.157665 -0.006,0.01775 -0.05178,0.162176 -0.006,0.01522 -0.06356,0.166658 -0.006,0.01403 -0.07499,0.170258 -0.006,0.01238 -0.06392,0.129021 c 0.549552,-0.576459 1.048054,-1.22671 1.489447,-1.971429 l -0.05606,-0.144005 -0.06415,-0.13875 -0.0071,-0.01351 -0.03642,-0.168626 0.122894,-0.223713 0.249537,-0.05359 0,0 0.141795,0.106992 c 0.128202,-0.250054 0.250488,-0.510243 0.366895,-0.780738 a 8.9604548,8.9604548 0 0 0 -5.171412,-3.722611 8.9604548,8.9604548 0 0 0 -0.876348,-0.184488 z m 0.234944,0.676127 0.0175,0.004 0.392212,0.09908 0.0024,0.0017 0.0024,-4.03e-4 0.284804,0.07691 0.0119,0.0035 0.102838,0.03224 0.143509,0.09568 0.06796,0.245932 -0.141616,0.212217 -0.25331,0.03227 -0.09689,-0.03035 -0.279174,-0.07511 -0.0024,-8.06e-4 -0.375774,-0.0947 -0.381631,-0.07284 -0.373502,-0.04968 -0.01642,-0.001 -0.161303,-0.06056 -0.121966,-0.224405 0.08975,-0.239154 0.239515,-0.08852 0.02202,0.0018 0.01726,0.0018 0.396343,0.05225 0.01726,0.003 0.394687,0.07527 z m 1.997661,0.689236 0.119026,0.05898 0.0095,0.0052 0.258118,0.139531 0.0095,0.0058 0.252131,0.148694 0.0095,0.0061 0.246383,0.157914 0.0095,0.006 0.178085,0.12374 0.108313,0.134095 -0.0083,0.255209 -0.198701,0.160505 -0.251298,-0.04529 -0.173075,-0.120485 -0.232468,-0.149004 -0.0024,-0.001 -0.24837,-0.146961 -0.0024,-0.0013 -0.244252,-0.131895 -0.0036,-0.002 -0.108551,-0.05331 -0.126857,-0.116514 -0.02904,-0.253591 0.172849,-0.18801 0.255107,0.0075 z m -3.952664,-0.806335 0.156697,0.201671 -0.04987,0.250345 -0.22241,0.126182 -0.331236,0.02891 -0.377013,0.05313 -0.375382,0.07241 -0.08284,0.02023 -0.172361,-0.0076 -0.185322,-0.17514 0.01071,-0.254996 0.200189,-0.158616 0.09308,-0.02252 0.01488,-0.0035 0.389427,-0.07483 0.01547,-0.0029 0.392891,-0.05518 0.01595,-0.0018 0.337746,-0.02977 0.169112,0.03372 z m 5.783405,2.186478 0.241478,0.08018 0.01512,0.01391 0.0083,0.008 0.207414,0.206909 0.0071,0.0079 0.199879,0.214177 0.0071,0.008 0.192595,0.221806 0.0071,0.0081 0.184359,0.227979 0.006,0.0083 0.02071,0.0277 0.06106,0.161142 -0.08832,0.239777 -0.238551,0.08997 -0.0976,-0.05261 -0.04047,0.03067 -0.249989,-0.05166 -0.16153,-0.118073 -0.226588,-0.13641 -0.242312,-0.11855 -0.264664,-0.103647 -0.101529,-0.03101 -0.103552,-0.06806 -0.07118,0.01416 -0.188215,-0.04504 -0.179502,-0.03534 -0.0024,-6.05e-4 -0.196975,-0.03015 -0.0036,-8.05e-4 -0.186537,-0.02133 -0.403186,-0.02401 -0.162482,-0.05796 -0.125202,-0.222552 0.08594,-0.240283 0.238396,-0.09222 0.409411,0.02436 0.01666,0.0013 0.208342,0.02432 0.01226,0.0013 0.203641,0.03154 0.01214,0.002 0.198868,0.03938 0.0125,0.0026 0.193655,0.04618 0.130249,0.07458 0.08046,-0.01059 0.112479,0.03426 0.0024,4.02e-4 -0.0048,-0.008 0.04499,-0.251677 0.218531,-0.130153 z m -8.253204,-1.667096 0.208901,0.146919 0.02559,0.253802 -0.175217,0.185624 -0.243895,0.09896 -0.0036,0.0018 -0.3449,0.159289 -0.0036,0.0018 -0.337009,0.175785 -0.0048,0.002 -0.128773,0.07537 -0.167683,0.04102 -0.227053,-0.11599 -0.06118,-0.247994 0.147461,-0.208471 0.141211,-0.08191 0.01262,-0.0068 0.35391,-0.184243 0.01297,-0.0061 0.361718,-0.167143 0.01333,-0.0057 0.247679,-0.100374 0.171599,-0.01749 z m 5.289342,1.889004 0.165196,0.194293 -0.03904,0.252611 -0.21584,0.135452 -0.174075,0.02326 -0.477958,0.09043 -0.487599,0.119979 -0.137474,0.0021 -0.02964,-0.0062 -0.151828,-0.08164 -0.09046,-0.238978 0.121167,-0.224701 0.145033,-0.03218 -0.0036,-0.01458 0.498228,-0.122492 0.01595,-0.0033 0.48854,-0.09295 0.01642,-0.0025 0.185799,-0.02492 0.170718,0.02623 z m -2.559092,0.07671 0.167374,0.04352 0.144437,0.210781 -0.06511,0.246526 -0.228814,0.112848 -0.17348,0.0054 -0.260701,0.02221 -0.263831,0.03733 -0.26082,0.05154 -0.187025,0.0474 -0.172372,-0.0061 -0.187156,-0.17394 0.0095,-0.255013 0.198915,-0.160143 0.192679,-0.04874 0.01595,-0.0037 0.277996,-0.05522 0.01631,-0.0025 0.280471,-0.03985 0.0169,-0.0021 0.282887,-0.02419 0.01726,-8.06e-4 0.178847,-0.0052 z m -4.937753,-0.749969 0.241455,0.08333 0.09439,0.23695 -0.11724,0.226796 -0.156459,0.12324 -0.291529,0.251273 -0.276972,0.263159 -0.15109,0.157832 -0.149544,0.08554 -0.250667,-0.04833 -0.127405,-0.22112 0.08427,-0.241264 0.155923,-0.162822 0.01071,-0.01012 0.288838,-0.274568 0.01071,-0.0098 0.301979,-0.260455 0.01071,-0.0094 0.16122,-0.126349 0.160208,-0.06406 z m 8.71626,2.170244 0.174134,0.05947 0.119656,0.212871 -0.07927,0.231557 -0.224613,0.09573 -0.01345,-2.01e-4 -0.174229,0.0058 -0.0036,4.02e-4 -0.174062,0.01412 -0.188429,0.02247 -0.190822,0.03082 -0.209698,0.04108 -0.0048,8.05e-4 -0.200427,0.04649 -0.006,0.0012 -0.0036,0.0013 -0.21152,0.05585 -0.289101,0.09014 -0.18362,-0.0021 -0.18049,-0.164973 0.0024,-0.244163 0.183775,-0.161728 0.296801,-0.09232 0.0125,-0.0033 0.224946,-0.05967 0.0095,-0.0018 0.219375,-0.05105 0.0095,-0.0021 0.213389,-0.04219 0.01071,-0.0017 0.207426,-0.03334 0.01071,-0.0021 0.20076,-0.024 0.0125,-8.06e-4 0.193618,-0.0154 0.01333,-0.001 0.185953,-0.006 0.015,-4.02e-4 0.02,4.02e-4 z m -6.103928,-0.806295 0,8.3e-5 0.223196,0.122441 0.05416,0.249686 -0.153162,0.204119 -0.241157,0.131106 -0.225077,0.135731 -0.0024,0.002 -0.234003,0.157228 0,0.001 -0.207688,0.153883 -0.0036,0.0025 -0.0657,0.05318 -0.158971,0.06715 -0.242383,-0.07878 -0.09915,-0.235415 0.112836,-0.228654 0.06892,-0.0563 0.01071,-0.0083 0.230231,-0.17096 0.0119,-0.008 0.23773,-0.159924 0.01214,-0.008 0.244704,-0.148045 0.01297,-0.0071 0.245775,-0.133611 0.168064,-0.03684 z m 2.716265,1.821356 0.207866,0.12776 0.0438,0.240568 -0.149579,0.192877 -0.502668,0.269003 -0.508417,0.299682 -0.515843,0.333491 -0.177598,0.04748 -0.217816,-0.110265 -0.06332,-0.236132 0.133404,-0.204775 0.519926,-0.336432 0.01071,-0.006 0.519058,-0.306615 0.01071,-0.006 0.508988,-0.272104 0.180776,-0.0326 z m -6.844718,-1.379201 0.158316,0.200112 -0.04773,0.250798 -0.07713,0.108908 -0.198927,0.312628 -0.0024,0.0029 -0.189846,0.335676 -0.128071,0.257672 -0.116764,0.126497 -0.253774,0.02839 -0.187631,-0.173097 0.0083,-0.255202 0.131392,-0.264552 0.0071,-0.01423 0.195511,-0.346176 0.0083,-0.01345 0.212889,-0.335597 0.0095,-0.01295 0.07975,-0.112765 0.134998,-0.106575 0.255298,0.01107 z m 2.363629,1.128197 0.140378,0.213413 -0.06939,0.245641 -0.07189,0.0844 -0.166373,0.215879 -0.156185,0.223065 -0.145556,0.230973 -0.118312,0.209816 -0.123357,0.120379 -0.254798,0.01522 -0.1783,-0.183135 0.0219,-0.2543 0.122441,-0.217174 0.0071,-0.01291 0.152602,-0.242124 0.0083,-0.01222 0.164362,-0.234933 0.0095,-0.01143 0.175062,-0.22732 0.0095,-0.01107 0.07701,-0.0906 0.143913,-0.09492 0.253179,0.03337 z m 2.12478,1.714727 0.226053,0.0921 0.08272,0.229759 -0.116407,0.215285 -0.220435,0.169531 -0.44112,0.370268 -1.31e-4,6.05e-4 -0.401686,0.367466 -0.254845,0.255474 -0.16372,0.08384 -0.236646,-0.06243 -0.111884,-0.217226 0.08725,-0.228329 0.261058,-0.261115 0.0095,-0.0096 0.41497,-0.379529 0.0095,-0.0083 0.447857,-0.375179 0.0095,-0.0079 0.22497,-0.173006 0.173265,-0.06164 z m -5.638289,-0.668522 0.21352,0.139988 0.03392,0.252728 -0.01952,0.06504 -0.0926,0.380953 -0.01428,0.04375 -0.162922,0.398764 -0.006,0.0142 -0.135391,0.289609 -0.113907,0.129307 -0.25287,0.03458 -0.191749,-0.16859 0.0024,-0.255254 0.132928,-0.285389 0.150626,-0.368506 0.08986,-0.369221 0.0048,-0.017 0.02143,-0.07067 0.09463,-0.144389 0.245394,-0.06991 z m 2.231832,1.056438 0.218852,0.131009 0.04392,0.25166 -0.05785,0.221858 -0.05487,0.270449 -0.04916,0.114419 -0.187132,0.268368 0,6.04e-4 -0.173491,0.268064 -0.0024,0.0031 -0.01714,0.02864 -0.126488,0.117204 -0.255107,0.0092 -0.173646,-0.18722 0.02773,-0.253698 0.01869,-0.03178 0.006,-0.0095 0.179942,-0.277765 0.006,-0.0095 0.156768,-0.224209 0.0444,-0.218638 0.0036,-0.01621 0.05939,-0.22845 0.08867,-0.147834 0.242692,-0.07963 z m -3.171763,1.185863 0.165529,0.194358 -0.03856,0.252395 -0.08713,0.132695 -0.0083,0.01155 -0.248929,0.343526 -0.0083,0.01119 -0.264177,0.331816 -0.0095,0.01047 -0.145341,0.16661 -0.145057,0.09279 -0.252774,-0.03674 -0.137521,-0.215024 0.07225,-0.244704 0.143687,-0.164745 0.0024,-0.0018 0.252286,-0.317253 0.235503,-0.324551 0.0024,-0.0033 0.08522,-0.129618 0.131285,-0.111467 0.255012,0.0018 z m 4.241182,1.039038 0.154138,0.189777 -0.03845,0.241361 -0.02535,0.03984 -2.02e-4,0.0012 -0.09974,0.165738 -0.09153,0.166172 -0.07987,0.161364 -0.06951,0.157514 -0.05832,0.151978 -0.04606,0.145055 -0.03523,0.13848 -0.02404,0.132944 -0.01297,0.120129 -0.0024,0.131675 -0.006,4.02e-4 -0.03737,0.152892 -0.201022,0.138548 -0.236777,-0.05742 -0.115811,-0.214893 0,-0.0027 0,-0.02795 0.0024,-0.14186 0.0024,-0.0252 0.01535,-0.147382 0.0024,-0.02245 0.02809,-0.152908 0.0036,-0.02009 0.03975,-0.157106 0.0048,-0.01795 0.05225,-0.162094 0.006,-0.01589 0.06356,-0.166356 0.006,-0.01358 0.07511,-0.170554 0.006,-0.01214 0.08653,-0.174155 0.006,-0.01119 0.09772,-0.177212 0.006,-0.0099 0.108313,-0.179724 0.006,-0.0093 0.02654,-0.04055 0.142651,-0.116026 0.244383,0.01196 8.4e-5,-4.03e-4 z m -2.106046,-0.03345 0,8.3e-5 0.201534,0.156433 0.01393,0.254851 -0.09998,0.253131 0,0.0018 -0.0932,0.272221 -0.04273,0.08198 -0.338413,0.463411 -0.0095,0.01191 -0.04904,0.06079 -0.141842,0.09852 -0.25375,-0.02748 -0.145271,-0.209699 0.06344,-0.24751 0.04761,-0.05855 0.0024,-0.0021 0.3018,-0.41361 0.07832,-0.22956 0.006,-0.01341 0.104623,-0.26636 0.105576,-0.136413 0.25012,-0.0503 z m -3.921682,0.814996 0.245716,0.06905 0.108313,0.231011 -0.10379,0.233398 -0.184703,0.163114 -0.0095,0.0084 -0.329605,0.267304 -0.0095,0.0076 -0.34071,0.253933 -0.01071,0.0073 -0.109146,0.07506 -0.164219,0.05311 -0.235325,-0.09909 -0.07891,-0.242876 0.131845,-0.218366 0.09939,-0.06761 0.0036,-0.0027 0.332474,-0.247765 0.314048,-0.254773 0.0036,-0.003 0.180847,-0.159814 0.156173,-0.07343 z m 2.641803,1.227724 0.124905,0.222491 -0.08689,0.240091 -0.289375,0.295295 -0.01071,0.0099 -0.419802,0.390518 -0.01071,0.0089 -0.184215,0.156271 -0.157709,0.07025 -0.244323,-0.07413 -0.103671,-0.233518 0.10867,-0.231114 0.179943,-0.152429 0.403234,-0.374721 0.0024,-0.0026 0.286851,-0.29234 0.15021,-0.08415 0.250048,0.05126 z m -4.578166,0.169427 0.221696,0.126546 0.04928,0.250556 -0.156971,0.201114 -0.3038,0.157469 -0.01071,0.0056 -0.386083,0.180993 -0.01071,0.0052 -0.392962,0.165655 -0.01071,0.0043 -0.03119,0.01211 -0.17192,0.013 -0.204914,-0.1524 -0.01916,-0.254353 0.179585,-0.180919 0.02023,-0.0075 0.0024,-8.06e-4 0.379774,-0.159892 4.05e-4,-4.03e-4 0.383702,-0.180222 0.0024,-8.06e-4 0.292553,-0.151929 0.169266,-0.03344 z m 2.519076,1.364653 0.236681,0.09559 0.08272,0.241455 -0.128476,0.220334 -0.207402,0.146372 -0.01071,0.0071 -0.484302,0.311044 -0.01071,0.0071 -0.344793,0.200984 -0.167457,0.04139 -0.227171,-0.115384 -0.06177,-0.247817 0.147222,-0.208837 0.342174,-0.199012 0.0024,-0.002 0.467174,-0.300103 0.201914,-0.142782 0.16316,-0.05554 z m -4.738422,-0.451619 0.192476,0.168108 -9.17e-4,0.25521 -0.19388,0.166246 -0.01714,0.0049 -0.01202,0.0029 -0.413994,0.101588 -0.01226,0.0029 -0.417422,0.08478 -0.0125,0.0021 -0.35347,0.05679 -0.170968,-0.02187 -0.170575,-0.189738 0.03214,-0.253419 0.212401,-0.141541 0.34096,-0.05435 0.0036,-8.05e-4 0.401508,-0.08115 0.0024,-6.03e-4 0.40984,-0.09993 0.0024,-0.001 0.006,-0.0013 0.172003,2.01e-4 z m -2.522706,0.3391 0.166897,0.0428 8.4e-5,-4.02e-4 0.145508,0.210062 -0.06332,0.247207 -0.228398,0.113883 -0.116645,0.0037 -0.01333,4.04e-4 -0.42542,-0.0037 -0.01321,-2.01e-4 -0.425325,-0.02233 -0.01333,-0.0012 -0.258999,-0.02511 -0.159922,-0.06406 -0.117002,-0.226847 0.0951,-0.237111 0.241217,-0.0831 0.252512,0.02439 0.404674,0.02148 0.0024,-6.4e-5 0.421599,0.0038 0.0024,5e-5 0.103671,-0.0039 z m 5.185862,1.334454 0.216899,0.134382 0.04047,0.252176 -0.163957,0.195237 -0.0932,0.04428 -0.0119,0.0051 -0.531495,0.225722 -0.01202,0.0048 -0.512606,0.192734 -0.171932,0.01299 -0.205033,-0.151796 -0.01904,-0.254655 0.179954,-0.181156 0.500561,-0.18799 0.0048,-0.0018 0.51513,-0.218409 0.0024,-0.0012 0.09106,-0.04313 0.170182,-0.02724 z m -7.48236,-1.393203 0.157161,0.201136 -0.04916,0.250484 -0.221661,0.126973 -0.217268,0.01991 -0.405103,0.06209 -0.397057,0.08556 -0.133118,0.03721 -0.172217,-0.0023 -0.190941,-0.169369 0.0036,-0.255372 0.195083,-0.164417 0.142175,-0.03973 0.01797,-0.0042 0.416624,-0.08999 0.01809,-0.0035 0.422445,-0.0651 0.01881,-0.0024 0.225815,-0.02001 0.169289,0.03286 z m -2.463503,0.598048 0.216471,0.134923 0.03975,0.252051 -0.164862,0.195045 -0.286268,0.135558 -0.359766,0.194071 -0.347006,0.211575 -0.0394,0.02651 -0.163612,0.05324 -0.235396,-0.09879 -0.07891,-0.242874 0.131618,-0.218732 0.04452,-0.03046 0.01345,-0.0086 0.363587,-0.221372 0.01404,-0.0081 0.374073,-0.202125 0.01476,-0.007 0.292493,-0.138049 0.170408,-0.02688 z m 7.649626,1.601809 -7.1e-5,4.02e-4 0.154483,0.0765 0.09808,0.235831 -0.113432,0.228527 -0.247215,0.06354 -0.169802,-0.03045 -0.0036,-2.01e-4 -0.200261,-0.02671 -0.218066,-0.02004 -0.0024,-4.02e-4 -0.207116,-0.01047 -0.0024,-4.02e-4 -0.222232,-0.0032 -0.0024,1.46e-4 -0.134511,0.0031 -0.166516,-0.04461 -0.143366,-0.211198 0.06606,-0.246638 0.229766,-0.111384 0.136451,-0.0033 0.0119,1.72e-4 0.235492,0.0032 0.0119,2.02e-4 0.230814,0.01196 0.0125,8.04e-4 0.225458,0.02094 0.01262,0.0013 0.220483,0.02969 0.01321,0.0018 0.173122,0.03114 z m -2.384529,0.05734 0.178038,0.182769 -0.02095,0.254186 -0.206354,0.15038 -0.398425,0.08148 -0.512821,0.134913 -0.244513,0.07926 -0.172468,0.005 -0.19757,-0.161911 -0.0071,-0.254972 0.188239,-0.17248 0.253571,-0.08178 0.01607,-0.0045 0.530698,-0.14033 0.0169,-0.0037 0.404365,-0.08276 0.172182,0.01454 z m -2.477012,0.304771 0.159256,0.06582 0.114502,0.228218 -0.0976,0.235938 -0.242276,0.08067 -0.08558,-0.009 -0.0095,-8.05e-4 -0.29335,-0.0405 -0.161601,0.02241 -0.197177,0.03706 -0.192999,0.04582 -0.0048,0.001 -0.14539,0.04159 -0.172491,-0.001 -0.192167,-0.168042 0.0024,-0.255386 0.19413,-0.165883 0.159494,-0.04557 0.01369,-0.0035 0.20558,-0.04856 0.01416,-0.0027 0.209068,-0.03962 0.01428,-0.0021 0.211961,-0.02923 0.08403,-4.02e-4 0.326224,0.04485 0.0048,6.03e-4 0.0048,4.04e-4 0.07653,0.0081 4.05e-4,-4.02e-4 z m -4.932433,-0.624471 0.247394,0.06246 0.114859,0.227979 -0.09736,0.236 -0.304789,0.284491 -0.288791,0.296995 -0.241978,0.275525 -0.145842,0.09199 -0.252274,-0.03759 -0.136784,-0.215503 0.0738,-0.244388 0.248477,-0.282377 0.01071,-0.01119 0.297778,-0.306794 0.01071,-0.01035 0.310597,-0.289592 0.153888,-0.07769 z m 9.070134,2.122067 0.164397,0.05174 0.116883,0.197449 -0.0688,0.218916 -0.209259,0.09484 -0.01262,1.89e-4 -0.161291,0.0089 -0.168706,0.01714 -0.170575,0.02463 -0.0024,4.04e-4 -0.188786,0.03471 -0.0024,6.03e-4 -0.186013,0.04098 -0.0036,8.06e-4 -0.187143,0.048 -0.006,0.0018 -0.0036,8.05e-4 -0.197236,0.05694 -0.269581,0.09042 -0.172503,0.0021 -0.172385,-0.150965 -0.0024,-0.229847 0.168814,-0.155072 0.276757,-0.09303 0.0119,-0.0037 0.210294,-0.06052 0.0083,-0.0021 0.204891,-0.05282 0.0095,-0.0021 0.199546,-0.04384 0.0095,-0.0021 0.193701,-0.03558 0.01071,-0.0017 0.18781,-0.02702 0.0119,-0.0017 0.181252,-0.01828 0.01285,-0.001 0.174681,-0.0095 0.01369,-6.03e-4 0.01892,1.69e-4 z m -6.485821,-0.891207 -8.3e-5,4.02e-4 0.228647,0.112848 0.06451,0.247116 -0.144996,0.210248 -0.04761,0.02855 -0.0024,0.0012 -0.166469,0.109158 -0.163767,0.117299 -0.0024,8.06e-4 -0.14614,0.113086 -0.0036,0.003 -0.151163,0.126559 -0.229837,0.215872 -0.153662,0.07806 -0.247882,-0.06163 -0.115574,-0.227801 0.09677,-0.236127 0.237289,-0.222842 0.01309,-0.01143 0.160327,-0.134117 0.0095,-0.0075 0.165004,-0.127771 0.0095,-0.0071 0.169611,-0.121125 0.01071,-0.0068 0.174217,-0.114478 0.01071,-0.0067 0.05844,-0.03482 0.167004,-0.04369 z m 3.326829,1.914933 0.197939,0.116216 0.04618,0.224651 -0.136462,0.184564 -0.466365,0.263017 -0.470627,0.292436 -0.477148,0.323591 -0.165457,0.04843 -0.20689,-0.09915 -0.06487,-0.220023 0.121049,-0.195371 0.480922,-0.326586 0.01071,-0.0064 0.480672,-0.298228 0.0095,-0.0062 0.471733,-0.266002 0.169278,-0.035 z m -7.308547,-1.253617 0.1671,0.192798 -0.03642,0.252838 -0.0538,0.08346 -0.204366,0.353795 -0.187822,0.368302 -0.105933,0.237684 -0.111764,0.13133 -0.252096,0.03852 -0.19469,-0.1651 -0.0024,-0.255235 0.110812,-0.247399 0.006,-0.01435 0.193321,-0.379463 0.0071,-0.01358 0.213055,-0.369658 0.0083,-0.01313 0.05666,-0.08792 0.130321,-0.112919 0.255393,5.2e-5 z m 2.361712,1.069393 0.160637,0.198072 -0.0444,0.251497 -0.06987,0.101267 -0.203926,0.3441 -0.179966,0.356373 -0.09474,0.2239 -0.108789,0.133536 -0.251667,0.04398 -0.19769,-0.161307 -0.0071,-0.255339 0.09808,-0.232058 0.0083,-0.01907 0.191,-0.377429 0.01071,-0.01838 0.215602,-0.363756 0.01071,-0.01753 0.0738,-0.107052 0.133916,-0.109015 0.255273,0.0082 z m 2.765803,1.608509 0.214305,0.08176 0.08237,0.21424 -0.104266,0.204243 -0.20326,0.164286 -0.402008,0.352248 -0.371347,0.355183 -0.236598,0.248236 -0.151389,0.08231 -0.22341,-0.05334 -0.109742,-0.20163 0.07689,-0.216299 0.239645,-0.250759 0.0095,-0.0092 0.381631,-0.365034 0.0095,-0.0082 0.412078,-0.361191 0.0095,-0.008 0.20758,-0.166854 0.160732,-0.06205 z m -6.198434,-0.461417 0.218662,0.131917 0.04297,0.251774 -0.04951,0.187266 -0.08141,0.397187 -0.05904,0.399672 -0.015,0.171449 -0.06261,0.160846 -0.225648,0.118883 -0.23792,-0.09269 -0.08546,-0.240447 0.01571,-0.178894 0.0024,-0.01788 0.06166,-0.41995 0.0024,-0.01738 0.0857,-0.415554 0.0048,-0.01682 0.05118,-0.193254 0.08927,-0.147404 0.242514,-0.07874 z m 2.421261,1.073006 0.156792,0.201376 -0.05011,0.250592 -0.161779,0.224105 -0.25181,0.38744 -0.229778,0.396785 -0.124977,0.119091 -0.255083,0.01202 -0.176026,-0.184873 0.02464,-0.254033 0.23279,-0.40215 0.0083,-0.01339 0.262189,-0.403895 0.0083,-0.01243 0.164838,-0.228199 0.136141,-0.106027 0.255107,0.01358 z m 1.638943,1.89127 4.05e-4,8.3e-5 0.148841,0.174457 -0.03119,0.227426 -0.01869,0.0302 -0.0024,0.0045 -0.0024,0.0042 -0.08975,0.157399 -0.07999,0.153424 -8.09e-4,0.0024 -0.07368,0.156027 -0.06177,0.149036 -0.05166,0.144217 -0.04023,0.136498 -0.03023,0.131011 -0.01988,0.124982 -0.0095,0.117371 1.66e-4,0.120003 -0.006,-8.2e-5 -0.03119,0.144078 -0.186334,0.134674 -0.224291,-0.0491 -0.113669,-0.199301 -1.55e-4,-0.0023 -0.0024,-0.0262 -1.91e-4,-0.132975 9.05e-4,-0.02412 0.0119,-0.138748 0.0024,-0.02125 0.02309,-0.143557 0.0036,-0.01915 0.03392,-0.148552 0.0048,-0.01674 0.04535,-0.153429 0.0048,-0.01474 0.05606,-0.15751 0.0048,-0.01316 0.06725,-0.161174 0.006,-0.01219 0.07737,-0.165022 0.006,-0.01059 0.08784,-0.168204 0.006,-0.0093 0.09772,-0.171211 0.0048,-0.0087 0.0238,-0.03858 0.131345,-0.111765 0.22929,0.0056 z m -4.137534,-0.476245 0.127773,0.220876 0.02845,0.292316 0.06701,0.414654 0.0024,0.0056 0.06975,0.386796 0.01738,0.07088 -0.0083,0.172537 -0.176526,0.184401 -0.254976,-0.01258 -0.157519,-0.200896 -0.01988,-0.08308 -0.0036,-0.01683 -0.07177,-0.397666 -9.16e-4,-0.0056 -0.06939,-0.429038 -0.0024,-0.01978 -0.02928,-0.301958 0.03202,-0.169784 0.200117,-0.158313 0.25087,0.0474 z m 1.262216,0.712561 0.205402,0.151555 0.01928,0.255024 -0.02071,0.05661 -0.107599,0.36361 -0.07844,0.353624 -0.05118,0.357738 -0.07142,0.157139 -0.231897,0.106516 -0.232409,-0.105433 -0.07225,-0.244936 0.05213,-0.365732 0.0036,-0.02251 0.08344,-0.377517 0.006,-0.02097 0.113669,-0.385074 0.006,-0.01885 0.02464,-0.06651 0.102481,-0.138319 0.248798,-0.05595 z"
       id="path5443"
       inkscape:connector-curvature="0" />
  </g>
</svg>
