<?xml version="1.0" encoding="UTF-8" standalone="no"?>
<!-- Created with Inkscape (http://www.inkscape.org/) -->

<svg
   xmlns:dc="http://purl.org/dc/elements/1.1/"
   xmlns:cc="http://creativecommons.org/ns#"
   xmlns:rdf="http://www.w3.org/1999/02/22-rdf-syntax-ns#"
   xmlns:svg="http://www.w3.org/2000/svg"
   xmlns="http://www.w3.org/2000/svg"
   xmlns:sodipodi="http://sodipodi.sourceforge.net/DTD/sodipodi-0.dtd"
   xmlns:inkscape="http://www.inkscape.org/namespaces/inkscape"
   width="64"
   height="64"
   id="svg4263"
   version="1.1"
   inkscape:version="0.91 r13725"
   viewBox="0 0 64 64"
   inkscape:export-filename="C:\Users\emile\Desktop\SÉMINAIRE TAL\graphismes\allergenes\lactose_sq.png"
   inkscape:export-xdpi="105.46875"
   inkscape:export-ydpi="105.46875"
   sodipodi:docname="composes.svg">
  <defs
     id="defs4265" />
  <sodipodi:namedview
     id="base"
     pagecolor="#ffffff"
     bordercolor="#666666"
     borderopacity="1.0"
     inkscape:pageopacity="0.0"
     inkscape:pageshadow="2"
     inkscape:zoom="5.5"
     inkscape:cx="29.122225"
     inkscape:cy="29.245966"
     inkscape:current-layer="layer1"
     showgrid="true"
     inkscape:document-units="px"
     inkscape:grid-bbox="true"
     inkscape:snap-page="true"
     inkscape:snap-bbox="true"
     inkscape:bbox-nodes="true"
     inkscape:snap-nodes="true"
     inkscape:snap-others="false"
     inkscape:object-nodes="true"
     inkscape:window-width="1474"
     inkscape:window-height="841"
     inkscape:window-x="-8"
     inkscape:window-y="-8"
     inkscape:window-maximized="1"
     showguides="false" />
  <metadata
     id="metadata4268">
    <rdf:RDF>
      <cc:Work
         rdf:about="">
        <dc:format>image/svg+xml</dc:format>
        <dc:type
           rdf:resource="http://purl.org/dc/dcmitype/StillImage" />
        <dc:title></dc:title>
      </cc:Work>
    </rdf:RDF>
  </metadata>
  <g
     id="layer1"
     inkscape:label="Layer 1"
     inkscape:groupmode="layer">
    <path
       style="opacity:0.33200001;fill:#000000;fill-opacity:1;stroke:none;stroke-width:9;stroke-linecap:butt;stroke-linejoin:miter;stroke-miterlimit:4;stroke-dasharray:none;stroke-dashoffset:0;stroke-opacity:1"
       d="M 33.992188 6.0800781 C 34.325851 6.5256613 34.525391 7.0796463 34.525391 7.6816406 C 34.525391 9.1608397 33.334668 10.351564 31.855469 10.351562 L 21.388672 10.351562 C 20.76999 10.351562 20.203726 10.139699 19.751953 9.7890625 L 19.738281 9.8046875 L 24.664062 14.730469 L 26.951172 14.730469 C 26.808913 14.403471 26.730469 14.042633 26.730469 13.662109 C 26.730469 12.182898 27.919227 10.992186 29.398438 10.992188 L 34.525391 10.992188 C 36.00459 10.992188 37.195313 12.182898 37.195312 13.662109 C 37.195312 15.141308 36.00459 16.332031 34.525391 16.332031 L 30.03125 16.332031 C 30.173426 16.658946 30.253906 17.019986 30.253906 17.400391 C 30.253906 18.879602 29.063183 20.070312 27.583984 20.070312 L 17.117188 20.070312 C 16.429137 20.070312 15.80636 19.809258 15.333984 19.384766 L 15.332031 19.386719 L 26.871094 30.925781 L 26.871094 24.576172 L 24.861328 24.576172 L 24.861328 22.818359 L 28.628906 22.818359 L 28.628906 22.820312 L 30.130859 22.820312 C 30.00424 22.500778 29.933594 22.148966 29.933594 21.779297 C 29.933594 20.300086 31.052917 19.109375 32.443359 19.109375 C 33.833812 19.109375 34.953125 20.300086 34.953125 21.779297 C 34.953125 22.148788 34.884192 22.498943 34.757812 22.818359 L 35.332031 22.818359 L 39.099609 22.818359 L 39.099609 24.576172 L 37.089844 24.576172 L 37.089844 35.001953 L 45.484375 48.507812 C 45.522935 48.566493 45.593631 48.747857 45.59375 48.748047 C 45.59375 48.748071 45.597656 48.783209 45.597656 48.792969 C 45.959779 49.504502 46.175521 50.282561 46.177734 51.082031 L 46.177734 51.083984 L 46.177734 51.085938 C 46.177699 52.485447 45.618496 53.726136 44.839844 54.630859 C 44.063963 55.532377 43.064945 56.161219 41.957031 56.148438 C 41.957031 56.148438 36.92972 56.13667 31.896484 56.125 C 29.379873 56.119 26.860872 56.113185 24.96875 56.109375 C 24.022677 56.106975 23.23425 56.105916 22.679688 56.103516 C 22.402394 56.102909 22.183103 56.103516 22.033203 56.103516 C 21.958213 56.103313 21.900607 56.103563 21.861328 56.103516 C 21.841688 56.10348 21.826166 56.103516 21.816406 56.103516 C 21.814006 56.103516 21.806991 56.103397 21.800781 56.103516 L 21.785156 56.101562 C 20.84263 56.084182 20.025545 55.565288 19.333984 54.814453 L 19.296875 54.851562 L 28.195312 63.748047 L 28.447266 64 L 64 64 L 64 36.087891 L 63.744141 35.832031 L 33.992188 6.0800781 z M 37.984375 16.439453 C 39.013313 16.439453 39.841797 17.319458 39.841797 18.414062 C 39.841797 19.508692 39.013313 20.390625 37.984375 20.390625 C 36.955448 20.390625 36.128906 19.508691 36.128906 18.414062 C 36.128906 17.319458 36.955448 16.439453 37.984375 16.439453 z M 45.123047 49.763672 C 45.113547 49.766072 45.099791 49.77553 45.087891 49.78125 C 45.090291 49.78725 45.09135 49.792638 45.09375 49.798828 C 45.10325 49.794028 45.105354 49.793762 45.115234 49.789062 L 45.123047 49.763672 z M 45.091797 49.798828 C 44.973367 49.853698 44.92145 49.870614 44.908203 49.871094 C 44.914203 49.873494 44.964758 49.857748 45.091797 49.798828 z M 20.580078 53.568359 C 20.599838 53.589429 20.618552 53.612693 20.638672 53.632812 C 20.618672 53.612583 20.599958 53.589429 20.580078 53.568359 z "
       id="rect6028" />
    <path
       style="opacity:0.56999966;fill:#ffffff;fill-opacity:1;stroke:none;stroke-width:9;stroke-linecap:butt;stroke-linejoin:miter;stroke-miterlimit:4;stroke-dasharray:none;stroke-dashoffset:0;stroke-opacity:1"
       d="m 28.62866,22.819385 0,12.684695 -8.487874,13.584395 -0.01071,0.01607 c -0.382892,0.555503 -0.588354,1.213975 -0.588496,1.888658 2.3e-5,0.924541 0.385808,1.794974 0.899307,2.420309 0.513523,0.625323 1.180767,0.928147 1.375683,0.93173 0,1.2e-5 0.0024,0 0.0024,0 0.01071,1.2e-5 0.02583,-2.4e-5 0.04582,0 0.03976,0 0.09772,2.02e-4 0.172777,4.05e-4 0.150163,4.04e-4 0.368729,6.07e-4 0.646082,9.16e-4 0.554682,9.05e-4 1.344522,0.0036 2.29063,0.006 1.892205,0.0048 4.410186,0.0095 6.926821,0.01571 0.01607,3.5e-5 0.01607,-3.6e-5 0.03202,0 l 0,-31.548315 -3.303595,0 z"
       id="path5985"
       inkscape:connector-curvature="0" />
    <path
       style="color:#000000;font-style:normal;font-variant:normal;font-weight:normal;font-stretch:normal;font-size:medium;line-height:normal;font-family:sans-serif;text-indent:0;text-align:start;text-decoration:none;text-decoration-line:none;text-decoration-style:solid;text-decoration-color:#000000;letter-spacing:normal;word-spacing:normal;text-transform:none;direction:ltr;block-progression:tb;writing-mode:lr-tb;baseline-shift:baseline;text-anchor:start;white-space:normal;clip-rule:nonzero;display:inline;overflow:visible;visibility:visible;opacity:1;isolation:auto;mix-blend-mode:normal;color-interpolation:sRGB;color-interpolation-filters:linearRGB;solid-color:#000000;solid-opacity:1;fill:#ffffff;fill-opacity:1;fill-rule:nonzero;stroke:none;stroke-width:9;stroke-linecap:butt;stroke-linejoin:miter;stroke-miterlimit:4;stroke-dasharray:none;stroke-dashoffset:0;stroke-opacity:1;color-rendering:auto;image-rendering:auto;shape-rendering:auto;text-rendering:auto;enable-background:accumulate"
       d="m 24.861282,22.819385 0,1.757445 2.010302,0 0,10.423427 -8.210188,13.140074 0.02178,-0.03309 c -0.584902,0.848543 -0.898677,1.854998 -0.898951,2.885602 l 0,4.05e-4 c 2.4e-5,1.399393 0.556503,2.632578 1.298245,3.535873 0.74179,0.903307 1.643192,1.553733 2.70178,1.573241 l 0.01678,4.05e-4 c 0.006,-9.5e-5 0.01333,0 0.01571,0 0.0095,1.2e-5 0.025,-2.4e-5 0.04463,0 0.03928,5.9e-5 0.09701,1.9e-4 0.172004,4.04e-4 0.1499,1.91e-4 0.368419,5.96e-4 0.6457,9.05e-4 0.554575,9.17e-4 1.344189,0.0036 2.290261,0.006 1.89211,0.0048 4.410579,0.0095 6.927202,0.01571 5.033224,0.0119 10.059961,0.02369 10.059961,0.02369 l -0.0119,-4.05e-4 c 1.112625,0.01738 2.116496,-0.613218 2.895136,-1.51793 0.778652,-0.904723 1.337143,-2.146288 1.337178,-3.5458 l 0,-9.16e-4 0,-9.05e-4 c -0.0024,-0.799481 -0.216828,-1.577192 -0.578963,-2.288738 0,-0.0095 -0.0036,-0.04535 -0.0036,-0.04535 -6e-5,-1.91e-4 -0.07213,-0.181931 -0.110575,-0.240658 l -8.394451,-13.506207 0,-10.424571 2.009945,0 0,-1.757456 -3.767389,0 0,12.683552 8.473388,13.632827 0.170861,0.297111 c 0.288696,0.50237 0.441025,1.071894 0.442798,1.652952 0,0.924124 -0.384476,1.785796 -0.911532,2.398181 -0.527294,0.612659 -1.192978,0.912687 -1.535486,0.907342 l -0.006,0 -0.006,0 c 0,0 -5.027082,-0.01202 -10.060353,-0.02369 -2.516624,-0.006 -5.034628,-0.0119 -6.926822,-0.01571 -0.946108,-0.0024 -1.73596,-0.0048 -2.290642,-0.006 -0.277353,-6.07e-4 -0.495907,-7.98e-4 -0.646081,-9.17e-4 -0.07499,-1.43e-4 -0.132999,-3.93e-4 -0.172777,-3.93e-4 -0.02,-3.5e-5 -0.03487,1.2e-5 -0.04583,0 0,0 -0.0024,1.2e-5 -0.0024,0 -0.194916,-0.0036 -0.862184,-0.306407 -1.375683,-0.931742 -0.513523,-0.625335 -0.899296,-1.495767 -0.89932,-2.420308 1.67e-4,-0.674683 0.205593,-1.333155 0.588485,-1.888646 l 0.01071,-0.01607 8.487862,-13.584395 0,-12.684695 -3.76777,0 z m 20.261406,26.944523 -0.0083,0.02511 c -0.267641,0.126774 -0.239372,0.07784 -0.151032,0.05523 0.02035,-0.006 0.113312,-0.06546 0.15903,-0.08046 z"
       id="rect5953"
       inkscape:connector-curvature="0" />
    <path
       style="opacity:0.29600004;fill:#ffffff;fill-opacity:1;stroke:none;stroke-width:9;stroke-linecap:butt;stroke-linejoin:miter;stroke-miterlimit:4;stroke-dasharray:none;stroke-dashoffset:0;stroke-opacity:1"
       d="m 31.932267,22.819385 0,31.548315 c 5.017143,0.0119 10.028323,0.02369 10.028323,0.02369 l 0.006,0 0.006,0 c 0.342519,0.006 1.00818,-0.294671 1.535474,-0.90733 0.527068,-0.612385 0.911532,-1.474045 0.911532,-2.398182 -0.0024,-0.581057 -0.154102,-1.150582 -0.442798,-1.652952 l -0.170861,-0.297111 -8.473365,-13.632826 0,-12.683552 -3.400125,0 z m 13.154952,26.962079 c -0.04785,0.02321 -0.107242,0.05868 -0.12356,0.06296 -0.08499,0.02166 -0.107956,0.06404 0.128904,-0.04583 -0.0024,-0.006 -0.0036,-0.0119 -0.006,-0.01714 z"
       id="path5993"
       inkscape:connector-curvature="0" />
    <path
       style="opacity:1;fill:#ffffff;fill-opacity:1;stroke:none;stroke-width:9;stroke-linecap:butt;stroke-linejoin:miter;stroke-miterlimit:4;stroke-dasharray:none;stroke-dashoffset:0;stroke-opacity:1"
       d="m 21.389195,5.0111158 c -1.479199,0 -2.670167,1.1905626 -2.670167,2.6697735 0,1.4791991 1.190968,2.6701547 2.670167,2.6701547 l 10.46667,0 c 1.479199,0 2.670142,-1.1909556 2.670142,-2.6701547 0,-1.4792109 -1.190943,-2.6697735 -2.670142,-2.6697735 l -10.46667,0 z m 8.01007,5.9806172 c -1.479211,0 -2.669761,1.190943 -2.669761,2.670154 0,0.380535 0.07963,0.741218 0.221827,1.068228 l -9.834217,0 c -1.479223,0 -2.669785,1.190551 -2.669785,2.66975 0,1.479211 1.190562,2.670166 2.669785,2.670166 l 10.466646,0 c 1.479211,0 2.670167,-1.190955 2.670167,-2.670166 0,-0.380393 -0.07999,-0.740909 -0.222221,-1.067824 l 4.494301,0 c 1.479211,0 2.669762,-1.190944 2.669762,-2.670154 0,-1.479211 -1.190551,-2.670154 -2.669762,-2.670154 l -5.126742,0 z m 8.58588,5.446895 c -1.028927,0 -1.857188,0.881359 -1.857188,1.975963 0,1.094629 0.828261,1.975975 1.857188,1.975975 1.028938,0 1.857187,-0.881346 1.857187,-1.975975 0,-1.094604 -0.828249,-1.975963 -1.857187,-1.975963 z m -5.5417,2.670155 c -1.39043,0 -2.510065,1.190955 -2.510065,2.670154 0,1.479211 1.119635,2.669774 2.510065,2.669774 1.390466,0 2.509696,-1.190563 2.509696,-2.669774 0,-1.479199 -1.11923,-2.670154 -2.509696,-2.670154 z"
       id="rect6009"
       inkscape:connector-curvature="0" />
    <path
       style="opacity:0.56999966;fill:#ffffff;fill-opacity:1;stroke:none;stroke-width:9;stroke-linecap:butt;stroke-linejoin:miter;stroke-miterlimit:4;stroke-dasharray:none;stroke-dashoffset:0;stroke-opacity:1"
       d="m 24.662689,41.851724 -4.521844,7.236822 -0.01071,0.01607 c -0.382893,0.555503 -0.58864,1.213582 -0.588771,1.888265 2.4e-5,0.924553 0.385999,1.795068 0.899499,2.420404 0.51351,0.625335 1.180862,0.928147 1.375766,0.931742 0,0 0.0024,0 0.0024,0 0.01071,0 0.02583,-3.6e-5 0.04559,0 0.03975,0 0.0976,1.9e-4 0.172658,4.04e-4 0.150162,4.05e-4 0.368847,6.07e-4 0.6462,9.17e-4 0.554682,9.04e-4 1.34451,0.0036 2.290619,0.006 1.892193,0.0048 4.41028,0.0095 6.926916,0.01571 0.01607,3.6e-5 0.01595,-3.5e-5 0.0319,0 l 0,-4.16e-4 c 5.017143,0.0119 10.028526,0.02392 10.028526,0.02392 l 0.006,0 0.006,0 c 0.342507,0.006 1.008168,-0.294707 1.535462,-0.907354 0.52708,-0.612397 0.911675,-1.474247 0.911675,-2.398384 -0.0024,-0.581058 -0.154174,-1.150689 -0.442858,-1.653059 l -0.170682,-0.296944 -4.527366,-7.284028 -14.615631,0 z m 20.424375,7.929835 c -0.04785,0.02321 -0.107123,0.05868 -0.123477,0.06296 -0.0851,0.02166 -0.107956,0.0638 0.129,-0.04594 -0.0024,-0.006 -0.0036,-0.01071 -0.006,-0.0169 z"
       id="rect6020"
       inkscape:connector-curvature="0" />
  </g>
</svg>
