<?xml version="1.0" encoding="UTF-8" standalone="no"?>
<!-- Created with Inkscape (http://www.inkscape.org/) -->

<svg
   xmlns:dc="http://purl.org/dc/elements/1.1/"
   xmlns:cc="http://creativecommons.org/ns#"
   xmlns:rdf="http://www.w3.org/1999/02/22-rdf-syntax-ns#"
   xmlns:svg="http://www.w3.org/2000/svg"
   xmlns="http://www.w3.org/2000/svg"
   xmlns:sodipodi="http://sodipodi.sourceforge.net/DTD/sodipodi-0.dtd"
   xmlns:inkscape="http://www.inkscape.org/namespaces/inkscape"
   width="64"
   height="64"
   id="svg4263"
   version="1.1"
   inkscape:version="0.91 r13725"
   viewBox="0 0 64 64"
   inkscape:export-filename="C:\Users\emile\Desktop\SÉMINAIRE TAL\graphismes\allergenes\lactose_sq.png"
   inkscape:export-xdpi="105.46875"
   inkscape:export-ydpi="105.46875"
   sodipodi:docname="fructose.svg">
  <defs
     id="defs4265" />
  <sodipodi:namedview
     id="base"
     pagecolor="#ffffff"
     bordercolor="#666666"
     borderopacity="1.0"
     inkscape:pageopacity="0.0"
     inkscape:pageshadow="2"
     inkscape:zoom="7.7781746"
     inkscape:cx="29.122225"
     inkscape:cy="29.869868"
     inkscape:current-layer="layer1"
     showgrid="true"
     inkscape:document-units="px"
     inkscape:grid-bbox="true"
     inkscape:snap-page="true"
     inkscape:snap-bbox="true"
     inkscape:bbox-nodes="true"
     inkscape:snap-nodes="true"
     inkscape:snap-others="false"
     inkscape:object-nodes="true"
     inkscape:window-width="1474"
     inkscape:window-height="841"
     inkscape:window-x="-8"
     inkscape:window-y="-8"
     inkscape:window-maximized="1" />
  <metadata
     id="metadata4268">
    <rdf:RDF>
      <cc:Work
         rdf:about="">
        <dc:format>image/svg+xml</dc:format>
        <dc:type
           rdf:resource="http://purl.org/dc/dcmitype/StillImage" />
        <dc:title></dc:title>
      </cc:Work>
    </rdf:RDF>
  </metadata>
  <g
     id="layer1"
     inkscape:label="Layer 1"
     inkscape:groupmode="layer">
    <path
       style="opacity:0.33300003;fill:#000000;fill-opacity:1;stroke:none;stroke-width:7.18100023;stroke-linecap:butt;stroke-linejoin:round;stroke-miterlimit:4;stroke-dasharray:none;stroke-opacity:1"
       d="M 34.21875 9.6699219 L 34.21875 11.476562 C 32.522753 12.429672 31.099723 13.781877 30.082031 15.408203 C 29.313463 16.635402 28.792454 17.994004 28.544922 19.410156 C 27.439849 18.230496 25.874444 17.55727 24.232422 17.554688 L 29.119141 22.441406 L 28.830078 22.730469 C 28.94039 22.837473 29.048364 22.94434 29.154297 23.056641 L 29.164062 23.046875 L 32.001953 25.882812 L 35.191406 22.693359 L 35.197266 22.697266 C 37.134655 20.834436 39.71663 19.792028 42.404297 19.791016 C 48.150172 19.790992 52.808641 24.449424 52.808594 30.195312 C 52.802494 32.231741 51.292828 35.412011 49.195312 37.148438 C 47.604672 38.251326 36.833984 46.519531 36.833984 46.519531 C 36.444316 46.771281 36.071342 47.048154 35.71875 47.349609 L 35.589844 47.445312 C 35.590649 47.448912 35.595703 47.452231 35.595703 47.457031 C 33.324504 49.429269 32.018506 51.322082 32.013672 54.330078 C 32.011172 51.321999 30.707351 49.429006 28.4375 47.455078 C 28.4326 47.450278 28.431641 47.445246 28.431641 47.441406 L 28.386719 47.408203 C 28.033502 47.106998 27.659778 46.829506 27.269531 46.578125 C 27.269532 46.578125 17.513463 39.399339 15.798828 38.052734 C 15.511063 37.826729 15.229982 37.573719 14.955078 37.302734 L 38.855469 61.203125 L 40.5 62.847656 L 41.652344 64 L 64 64 L 64 35.537109 L 63.816406 35.353516 L 58.892578 30.429688 L 40.060547 11.599609 L 40.060547 15.621094 C 36.853028 15.623494 34.246428 18.136608 34.220703 21.251953 L 32.001953 23.470703 L 30.058594 21.529297 L 30.058594 21.296875 L 30.074219 21.296875 C 30.074085 17.08226 32.842765 13.498119 36.708984 12.160156 L 34.21875 9.6699219 z M 30.058594 11.728516 L 27.660156 14.126953 C 28.509215 14.430289 29.316358 14.84657 30.058594 15.367188 L 30.058594 11.728516 z M 14.611328 36.947266 L 14.605469 36.953125 L 14.822266 37.169922 C 14.751366 37.097672 14.68107 37.021871 14.611328 36.947266 z "
       id="rect4868" />
    <path
       style="opacity:0.63399999;fill:#ffffff;fill-opacity:1;stroke:none;stroke-width:7.18100023;stroke-linecap:butt;stroke-linejoin:round;stroke-miterlimit:4;stroke-dasharray:none;stroke-opacity:1"
       d="m 42.404524,19.792707 c -2.687666,9.04e-4 -5.270733,1.041733 -7.208122,2.904563 l -0.0051,-0.0036 -3.190106,3.190105 c 0.0043,-0.0024 0.0083,-0.0048 0.01258,-0.006 l 0,19.547719 6.251601,0 c 2.121988,-1.627136 9.543279,-7.31407 10.929981,-8.275557 2.097514,-1.736424 3.606825,-4.916448 3.612908,-6.952876 4.8e-5,-5.745875 -4.657858,-10.403753 -10.403735,-10.403729 z m -13.627271,2.884888 c 0.12858,0.122989 0.254463,0.249465 0.37718,0.379548 -0.122783,-0.130154 -0.248528,-0.2565 -0.37718,-0.379548 z m 3.236515,23.439084 0,1.413545 3.500819,0 c 0.02755,-0.02416 0.05356,-0.0482 0.08141,-0.07237 0,-0.0036 -0.0048,-0.0071 -0.0055,-0.0119 l 0.128218,-0.09522 c 0.352591,-0.301456 0.724962,-0.579284 1.114629,-0.831047 0,0 0.481479,-0.368288 0.527425,-0.403543 l -5.346999,0 z m 0,2.105368 0,1.413544 1.505575,0 c 0.357166,-0.485373 0.772688,-0.95175 1.244817,-1.413544 l -2.750392,0 z m 0,2.105367 0,4.003476 c 0.0025,-1.586917 0.370605,-2.861916 1.048161,-4.003476 l -1.048161,0 z"
       id="path4740"
       inkscape:connector-curvature="0" />
    <path
       style="opacity:1;fill:#ffffff;fill-opacity:1;stroke:none;stroke-width:7.18100023;stroke-linecap:butt;stroke-linejoin:round;stroke-miterlimit:4;stroke-dasharray:none;stroke-opacity:1"
       d="m 21.595481,19.792707 c -5.745878,-3.6e-5 -10.403735,4.657841 -10.403735,10.403729 0.0058,2.040118 2.115144,5.899597 4.607582,7.857076 1.451354,1.139846 7.725524,5.764943 9.906202,7.371345 l 6.308238,0 0,-19.547707 c -0.0043,0.0024 -0.0083,0.0048 -0.01258,0.006 l -2.83613,-2.836516 -0.01059,0.01071 C 27.190995,20.975961 24.45684,19.79529 21.595512,19.792862 Z m 5.047691,26.323972 c 0.06963,0.0513 0.626145,0.46214 0.626144,0.46214 0.390248,0.251381 0.763379,0.528675 1.116598,0.82988 l 0.04641,0.0338 c 0,0.0048 -2.26e-4,0.0083 0.0048,0.01226 0.02899,0.02523 0.05589,0.05035 0.08456,0.07546 l 3.492165,0 0,-1.413533 -5.370596,0 z m 2.627285,2.105368 c 0.471118,0.461723 0.886143,0.928302 1.242456,1.413544 l 1.500855,0 0,-1.413544 -2.743311,0 z m 1.699477,2.105367 c 0.676101,1.141834 1.042512,2.417143 1.043834,4.003476 l 0,-4.003476 -1.043834,0 z"
       id="rect5044"
       inkscape:connector-curvature="0" />
    <path
       style="opacity:1;fill:#ffffff;fill-rule:evenodd;stroke:none;stroke-width:1px;stroke-linecap:butt;stroke-linejoin:miter;stroke-opacity:1"
       d="m 30.058644,9.6689954 0,5.6974336 C 28.36242,14.176664 26.32448,13.534463 24.232205,13.530475 l 0,4.02352 c 1.642022,0.0024 3.207137,0.676362 4.31221,1.856022 0.247532,-1.416152 0.76926,-2.773909 1.537828,-4.001108 1.017692,-1.626326 2.44001,-2.978382 4.136007,-3.931491 l 0,-1.8084226 -4.159606,0 z m 10.002169,1.9291626 c -5.515236,-1.55e-4 -9.986215,4.342818 -9.986043,9.699731 l -0.01613,0 0,0.230874 1.942539,1.942528 2.219821,-2.21981 c 0.02572,-3.115345 2.63229,-5.627922 5.83981,-5.629397 l 0,-4.023926 z"
       id="path5062"
       inkscape:connector-curvature="0" />
  </g>
</svg>
