<?xml version="1.0" encoding="UTF-8" standalone="no"?>
<!-- Created with Inkscape (http://www.inkscape.org/) -->

<svg
   xmlns:dc="http://purl.org/dc/elements/1.1/"
   xmlns:cc="http://creativecommons.org/ns#"
   xmlns:rdf="http://www.w3.org/1999/02/22-rdf-syntax-ns#"
   xmlns:svg="http://www.w3.org/2000/svg"
   xmlns="http://www.w3.org/2000/svg"
   xmlns:sodipodi="http://sodipodi.sourceforge.net/DTD/sodipodi-0.dtd"
   xmlns:inkscape="http://www.inkscape.org/namespaces/inkscape"
   width="64"
   height="64"
   id="svg4263"
   version="1.1"
   inkscape:version="0.91 r13725"
   viewBox="0 0 64 64"
   inkscape:export-filename="C:\Users\emile\Desktop\SÉMINAIRE TAL\graphismes\allergenes\lactose_sq.png"
   inkscape:export-xdpi="105.46875"
   inkscape:export-ydpi="105.46875"
   sodipodi:docname="gluten.svg">
  <defs
     id="defs4265" />
  <sodipodi:namedview
     id="base"
     pagecolor="#ffffff"
     bordercolor="#666666"
     borderopacity="1.0"
     inkscape:pageopacity="0.0"
     inkscape:pageshadow="2"
     inkscape:zoom="7.7781746"
     inkscape:cx="29.122225"
     inkscape:cy="29.869868"
     inkscape:current-layer="layer1"
     showgrid="true"
     inkscape:document-units="px"
     inkscape:grid-bbox="true"
     inkscape:snap-page="true"
     inkscape:snap-bbox="true"
     inkscape:bbox-nodes="true"
     inkscape:snap-nodes="true"
     inkscape:snap-others="false"
     inkscape:object-nodes="true"
     inkscape:window-width="1474"
     inkscape:window-height="841"
     inkscape:window-x="-8"
     inkscape:window-y="-8"
     inkscape:window-maximized="1" />
  <metadata
     id="metadata4268">
    <rdf:RDF>
      <cc:Work
         rdf:about="">
        <dc:format>image/svg+xml</dc:format>
        <dc:type
           rdf:resource="http://purl.org/dc/dcmitype/StillImage" />
        <dc:title></dc:title>
      </cc:Work>
    </rdf:RDF>
  </metadata>
  <g
     id="layer1"
     inkscape:label="Layer 1"
     inkscape:groupmode="layer">
    <path
       style="opacity:0.33300003;fill:#000000;fill-opacity:1;fill-rule:evenodd;stroke:none;stroke-width:1px;stroke-linecap:butt;stroke-linejoin:miter;stroke-opacity:1"
       d="M 47.578125 6.7910156 C 47.577671 6.7945856 46.699294 13.933963 46.402344 14.75 C 46.292781 15.051123 46.032565 15.575575 45.638672 16.054688 C 47.022654 16.153478 48.644712 16.136606 51.292969 14.226562 C 51.292969 14.226562 46.799895 19.84919 46.119141 20.388672 C 45.438402 20.92819 42.959311 22.286508 41.746094 20.078125 C 40.898302 18.534937 41.271427 17.299207 42.236328 16.603516 C 41.990318 16.439903 41.781088 16.26458 41.607422 16.082031 C 40.726205 19.112189 39.615322 22.082683 38.076172 24.841797 C 35.864449 28.727045 33.126929 32.289623 30.181641 35.644531 C 25.353681 41.172435 19.808456 46.000901 14.632812 51.189453 C 14.007916 51.82049 13.388185 52.457922 12.773438 53.101562 L 11.177734 52.447266 L 20.271484 61.736328 L 20.244141 61.761719 L 22.482422 64 L 64 64 L 64 23.703125 L 62.439453 22.142578 A 32.000003 32.000003 0 0 0 62.412109 22.042969 L 62.375 22.078125 L 62.316406 22.019531 L 47.578125 6.7910156 z M 47.542969 6.8691406 C 47.482779 7.0032702 47.433807 7.122011 47.378906 7.2480469 C 47.434206 7.126034 47.488104 6.9991043 47.542969 6.8691406 z M 39.988281 8.8027344 C 39.979581 8.8249924 39.971481 8.8488368 39.962891 8.8710938 C 39.968691 8.8615736 39.993727 8.8209991 39.998047 8.8144531 L 39.988281 8.8027344 z M 40.037109 8.8554688 C 38.69761 13.271881 40.390559 14.473014 40.744141 16.378906 C 40.811841 16.743874 40.826856 17.10142 40.791016 17.4375 C 40.995911 16.890769 41.185061 16.336191 41.355469 15.777344 C 40.522898 14.614347 40.948023 13.215674 42.107422 12.265625 C 42.335116 12.079041 42.577058 11.927286 42.828125 11.785156 L 40.037109 8.8554688 z M 34.480469 13.904297 L 34.460938 14.001953 C 34.243242 18.604317 36.176554 19.354445 36.984375 21.115234 C 37.804298 22.902435 37.153416 24.83262 34.638672 24.990234 C 32.123918 25.147847 31.943932 22.328646 32.035156 21.464844 C 32.050666 21.31799 32.146349 20.958979 32.269531 20.53125 L 30.943359 19.138672 L 30.939453 19.162109 C 30.667972 23.909838 32.637835 24.654214 33.455078 26.435547 C 34.275002 28.222748 33.624122 30.152922 31.109375 30.310547 C 28.594623 30.468161 28.414636 27.648959 28.505859 26.785156 C 28.526149 26.592919 28.668499 26.079773 28.861328 25.439453 L 27.134766 23.626953 L 27.125 23.683594 C 26.859137 28.416243 28.824349 29.16218 29.640625 30.941406 C 30.460551 32.728607 29.809668 34.658781 27.294922 34.816406 C 24.780172 34.974031 24.602136 32.152865 24.693359 31.289062 C 24.717339 31.061915 24.900334 30.414765 25.152344 29.597656 L 23.8125 28.193359 C 23.263005 32.737591 25.127106 33.631294 25.798828 35.443359 C 26.482272 37.287073 25.687456 39.162472 23.167969 39.130859 C 20.648479 39.099319 20.682077 36.272475 20.837891 35.417969 C 20.880471 35.184417 21.131148 34.50699 21.462891 33.666016 L 20.029297 32.162109 C 19.040494 36.623761 20.806477 37.696339 21.296875 39.564453 C 21.796121 41.466335 20.822581 43.255224 18.318359 42.976562 C 17.868046 42.926454 17.509751 42.793006 17.224609 42.605469 L 19.148438 44.570312 C 21.809867 42.023801 24.484002 39.492188 27.097656 36.896484 C 30.787152 33.227802 34.29927 29.320695 37.013672 24.861328 C 38.215151 22.929225 39.331428 20.922757 40.232422 18.828125 C 39.696188 19.467053 38.789306 19.798218 37.523438 19.5625 C 35.046331 19.101241 35.559968 16.323183 35.859375 15.507812 C 35.868775 15.482342 35.891943 15.437818 35.908203 15.402344 L 34.480469 13.904297 z M 48.833984 20.224609 C 48.833984 20.224609 44.338958 25.847236 43.658203 26.386719 C 42.977464 26.926236 40.500328 28.284544 39.287109 26.076172 C 38.073892 23.8678 39.356217 22.285804 41.304688 22.021484 C 43.253158 21.757188 44.942138 23.031654 48.833984 20.224609 z M 46.736328 26.771484 C 46.736328 26.771496 41.293105 31.482367 40.525391 31.888672 C 39.757689 32.295013 37.073398 33.177732 36.283203 30.785156 C 35.493011 28.392593 37.041866 27.070605 39.005859 27.166016 C 40.969853 27.261476 42.397881 28.821814 46.736328 26.771484 z M 34.734375 32.259766 C 34.842723 32.254966 34.950913 32.254966 35.0625 32.259766 C 35.181527 32.265766 35.303997 32.276419 35.425781 32.292969 C 37.374356 32.556503 38.661832 34.233151 43.160156 32.5625 C 43.160156 32.5625 37.33294 36.787992 36.533203 37.126953 C 35.733478 37.465949 32.984407 38.115603 32.402344 35.664062 C 31.890768 33.509406 33.109099 32.334049 34.734375 32.259766 z M 30.931641 36.785156 C 31.162437 36.793456 31.398929 36.824756 31.638672 36.878906 C 33.5566 37.312432 34.694687 39.095612 39.322266 37.826172 C 39.322266 37.826172 33.14671 41.525495 32.320312 41.792969 C 31.493924 42.060466 28.696704 42.46582 28.332031 39.972656 C 28.012942 37.791148 29.316096 36.726858 30.931641 36.785156 z M 26.507812 41.314453 C 26.738605 41.322753 26.975105 41.353933 27.214844 41.408203 C 29.132773 41.841705 30.268904 43.62491 34.896484 42.355469 C 34.896484 42.355469 28.720928 46.054792 27.894531 46.322266 C 27.06814 46.589775 24.272878 46.995105 23.908203 44.501953 C 23.589114 42.320445 24.892267 41.256154 26.507812 41.314453 z M 16.630859 41.998047 L 16.634766 42.003906 C 16.633666 42.001506 16.631959 42.000447 16.630859 41.998047 z M 21.9375 45.814453 C 22.168291 45.822753 22.406742 45.853933 22.646484 45.908203 C 24.564413 46.341717 25.700544 48.124898 30.328125 46.855469 C 30.328125 46.855469 24.152567 50.554793 23.326172 50.822266 C 22.499779 51.089764 19.702566 51.495105 19.337891 49.001953 C 19.018802 46.820445 20.321954 45.756154 21.9375 45.814453 z "
       id="path4467" />
    <path
       style="opacity:0.68900003;fill:#ffffff;fill-opacity:1;stroke:none;stroke-width:12.5;stroke-linecap:butt;stroke-linejoin:round;stroke-miterlimit:4;stroke-dasharray:none;stroke-opacity:1"
       d="m 30.327871,46.855535 c -4.62758,1.269441 -5.764175,-0.514725 -7.682102,-0.948239 -1.917929,-0.433514 -3.671628,0.601125 -3.306954,3.094277 0.364674,2.493164 3.160686,2.087359 3.987078,1.819862 0.826396,-0.267474 7.001978,-3.9659 7.001978,-3.9659 z"
       id="path4362"
       inkscape:connector-curvature="0"
       sodipodi:nodetypes="czzzc" />
    <path
       style="color:#000000;font-style:normal;font-variant:normal;font-weight:normal;font-stretch:normal;font-size:medium;line-height:normal;font-family:sans-serif;text-indent:0;text-align:start;text-decoration:none;text-decoration-line:none;text-decoration-style:solid;text-decoration-color:#000000;letter-spacing:normal;word-spacing:normal;text-transform:none;direction:ltr;block-progression:tb;writing-mode:lr-tb;baseline-shift:baseline;text-anchor:start;white-space:normal;clip-rule:nonzero;display:inline;overflow:visible;visibility:visible;opacity:1;isolation:auto;mix-blend-mode:normal;color-interpolation:sRGB;color-interpolation-filters:linearRGB;solid-color:#000000;solid-opacity:1;fill:#ffffff;fill-opacity:1;fill-rule:evenodd;stroke:none;stroke-width:10.39999962;stroke-linecap:butt;stroke-linejoin:miter;stroke-miterlimit:4;stroke-dasharray:none;stroke-dashoffset:0;stroke-opacity:1;color-rendering:auto;image-rendering:auto;shape-rendering:auto;text-rendering:auto;enable-background:accumulate"
       d="m 41.355182,15.776311 c -0.981216,3.218789 -2.569049,6.233736 -4.342099,9.084964 -2.714402,4.459379 -6.225753,8.366099 -9.91525,12.034781 -3.132304,3.110798 -6.354471,6.129161 -9.533345,9.191956 -2.162583,2.078837 -4.319607,4.178527 -6.386116,6.360166 l 1.594466,0.653663 c 0.614748,-0.64363 1.235046,-1.281213 1.859944,-1.912249 5.175643,-5.188552 10.7214,-10.017528 15.54936,-15.545421 2.945288,-3.354919 5.683112,-6.916525 7.894835,-10.801761 1.539333,-2.75946 2.649441,-5.730367 3.530709,-8.760895 -0.09459,-0.0995 -0.17832,-0.201498 -0.252504,-0.305204 z"
       id="path4369"
       inkscape:connector-curvature="0" />
    <path
       sodipodi:nodetypes="czzzc"
       inkscape:connector-curvature="0"
       id="path4379"
       d="m 34.897285,42.356449 c -4.62758,1.269441 -5.764175,-0.514725 -7.682103,-0.948239 -1.917928,-0.433502 -3.671628,0.601126 -3.306953,3.094278 0.364673,2.493152 3.160686,2.087359 3.987078,1.819849 0.826395,-0.267462 7.001978,-3.965888 7.001978,-3.965888 z"
       style="opacity:0.68900003;fill:#ffffff;fill-opacity:1;stroke:none;stroke-width:12.5;stroke-linecap:butt;stroke-linejoin:round;stroke-miterlimit:4;stroke-dasharray:none;stroke-opacity:1" />
    <path
       style="opacity:0.68900003;fill:#ffffff;fill-opacity:1;stroke:none;stroke-width:12.5;stroke-linecap:butt;stroke-linejoin:round;stroke-miterlimit:4;stroke-dasharray:none;stroke-opacity:1"
       d="m 39.321595,37.827167 c -4.62758,1.269441 -5.764174,-0.514725 -7.682102,-0.948239 -1.91793,-0.433514 -3.671629,0.601126 -3.306954,3.094277 0.364675,2.493164 3.160689,2.087359 3.987078,1.819862 0.826395,-0.267474 7.001978,-3.9659 7.001978,-3.9659 z"
       id="path4381"
       inkscape:connector-curvature="0"
       sodipodi:nodetypes="czzzc" />
    <path
       sodipodi:nodetypes="czzzc"
       inkscape:connector-curvature="0"
       id="path4383"
       d="m 43.160704,32.562523 c -4.498324,1.670639 -5.787108,-0.0071 -7.735681,-0.270426 -1.948572,-0.263522 -3.604708,0.92103 -3.022648,3.372559 0.582061,2.45154 3.331677,1.801924 4.131402,1.462928 0.799736,-0.33896 6.626927,-4.565061 6.626927,-4.565061 z"
       style="opacity:0.68900003;fill:#ffffff;fill-opacity:1;stroke:none;stroke-width:12.5;stroke-linecap:butt;stroke-linejoin:round;stroke-miterlimit:4;stroke-dasharray:none;stroke-opacity:1" />
    <path
       style="opacity:0.68900003;fill:#ffffff;fill-opacity:1;stroke:none;stroke-width:12.5;stroke-linecap:butt;stroke-linejoin:round;stroke-miterlimit:4;stroke-dasharray:none;stroke-opacity:1"
       d="m 46.735831,26.771643 c -4.338448,2.050318 -5.76637,0.489516 -7.730367,0.394093 -1.963991,-0.09546 -3.512421,1.226818 -2.722229,3.619381 0.790195,2.392576 3.473956,1.509527 4.241658,1.103187 0.767713,-0.406305 6.210938,-5.116661 6.210938,-5.116661 z"
       id="path4385"
       inkscape:connector-curvature="0"
       sodipodi:nodetypes="czzzc"
       inkscape:transform-center-x="0.95941442"
       inkscape:transform-center-y="-2.6860356" />
    <path
       inkscape:transform-center-y="-2.098811"
       inkscape:transform-center-x="1.6973874"
       sodipodi:nodetypes="czzzc"
       inkscape:connector-curvature="0"
       id="path4387"
       d="m 48.833139,20.223823 c -3.891845,2.807045 -5.580431,1.532772 -7.528902,1.797068 -1.948463,0.264319 -3.22983,1.846725 -2.016615,4.055109 1.213219,2.208372 3.690963,0.850745 4.371702,0.311239 0.680755,-0.539494 5.173815,-6.163416 5.173815,-6.163416 z"
       style="opacity:0.68900003;fill:#ffffff;fill-opacity:1;stroke:none;stroke-width:12.5;stroke-linecap:butt;stroke-linejoin:round;stroke-miterlimit:4;stroke-dasharray:none;stroke-opacity:1" />
    <path
       style="opacity:0.68900003;fill:#ffffff;fill-opacity:1;stroke:none;stroke-width:12.5;stroke-linecap:butt;stroke-linejoin:round;stroke-miterlimit:4;stroke-dasharray:none;stroke-opacity:1"
       d="m 41.872381,12.47725 c -0.0132,0.01262 -0.02636,0.02535 -0.03934,0.03809 0.01294,-0.01273 0.02615,-0.02547 0.03934,-0.03809 z m -0.241491,0.253286 c -0.01221,0.01416 -0.02347,0.02857 -0.0354,0.04285 0.01193,-0.01428 0.02319,-0.02868 0.0354,-0.04285 z m -0.188392,0.240312 c -0.01071,0.01488 -0.02183,0.02976 -0.03224,0.04487 0.01035,-0.015 0.02154,-0.02988 0.03224,-0.04487 z m -0.179348,0.279245 c -0.0092,0.01607 -0.01758,0.03226 -0.02635,0.04833 0.0087,-0.01607 0.01726,-0.03238 0.02635,-0.04833 z m -0.07866,0.229696 -0.0704,0.07034 c -0.433332,1.029784 -0.171474,2.192899 1.122101,3.053226 -0.964899,0.695691 -1.337063,1.931674 -0.489271,3.474861 1.213217,2.208372 3.690859,0.850626 4.371597,0.311108 0.680756,-0.539482 5.173551,-6.1635 5.173551,-6.1635 -2.627196,1.894895 -4.243567,1.926877 -5.620347,1.830836 -0.664947,0.82081 -1.717946,1.508003 -3.101219,0.741778 -1.595833,-0.883966 -1.905903,-2.187055 -1.386009,-3.318712 z"
       id="path4389"
       inkscape:connector-curvature="0" />
    <path
       style="opacity:1;fill:#ffffff;fill-opacity:1;stroke:none;stroke-width:12.5;stroke-linecap:butt;stroke-linejoin:round;stroke-miterlimit:4;stroke-dasharray:none;stroke-opacity:1"
       d="m 40.095327,8.6657131 c -1.44828,4.5747629 0.290375,5.7798109 0.649046,7.7131509 0.358654,1.933317 -0.743336,3.645496 -3.220434,3.184225 -2.477107,-0.461271 -1.962977,-3.239405 -1.66357,-4.054776 0.299378,-0.815371 4.234958,-6.8425999 4.234958,-6.8425999 z"
       id="path4393"
       inkscape:connector-curvature="0"
       sodipodi:nodetypes="czzzc"
       inkscape:transform-center-x="3.8676417"
       inkscape:transform-center-y="0.090789577" />
    <path
       inkscape:transform-center-y="0.13959768"
       inkscape:transform-center-x="3.6619888"
       sodipodi:nodetypes="czzzc"
       inkscape:connector-curvature="0"
       id="path4395"
       d="m 34.471126,13.79442 c -0.287248,4.789936 1.693046,5.533916 2.512987,7.321128 0.819924,1.787201 0.16942,3.716637 -2.345326,3.874262 -2.514754,0.157614 -2.694624,-2.661953 -2.6034,-3.525756 0.0912,-0.863814 2.435739,-7.669634 2.435739,-7.669634 z"
       style="opacity:1;fill:#ffffff;fill-opacity:1;stroke:none;stroke-width:12.5;stroke-linecap:butt;stroke-linejoin:round;stroke-miterlimit:4;stroke-dasharray:none;stroke-opacity:1" />
    <path
       style="opacity:1;fill:#ffffff;fill-opacity:1;stroke:none;stroke-width:12.5;stroke-linecap:butt;stroke-linejoin:round;stroke-miterlimit:4;stroke-dasharray:none;stroke-opacity:1"
       d="m 30.941764,19.115471 c -0.287248,4.789924 1.693049,5.533903 2.512988,7.321116 0.819925,1.787201 0.169421,3.716649 -2.345325,3.874262 -2.514754,0.157625 -2.694624,-2.661953 -2.603399,-3.525756 0.0912,-0.863802 2.435736,-7.669622 2.435736,-7.669622 z"
       id="path4397"
       inkscape:connector-curvature="0"
       sodipodi:nodetypes="czzzc"
       inkscape:transform-center-x="3.6619885"
       inkscape:transform-center-y="0.13959945" />
    <path
       inkscape:transform-center-y="0.13959857"
       inkscape:transform-center-x="3.6619888"
       sodipodi:nodetypes="czzzc"
       inkscape:connector-curvature="0"
       id="path4399"
       d="m 27.12806,23.620412 c -0.287249,4.789936 1.693048,5.533916 2.512987,7.321117 0.819925,1.7872 0.169419,3.71666 -2.345326,3.874274 -2.514751,0.157625 -2.694623,-2.661954 -2.603399,-3.525756 0.0912,-0.863803 2.435738,-7.669635 2.435738,-7.669635 z"
       style="opacity:1;fill:#ffffff;fill-opacity:1;stroke:none;stroke-width:12.5;stroke-linecap:butt;stroke-linejoin:round;stroke-miterlimit:4;stroke-dasharray:none;stroke-opacity:1" />
    <path
       inkscape:transform-center-y="0.12664137"
       inkscape:transform-center-x="3.7600906"
       sodipodi:nodetypes="czzzc"
       inkscape:connector-curvature="0"
       id="path4403"
       d="m 23.841666,27.953791 c -0.646029,4.754847 1.272828,5.645394 1.956284,7.489097 0.683442,1.843714 -0.110075,3.718886 -2.629557,3.687273 -2.519489,-0.03154 -2.487181,-2.856739 -2.331366,-3.711245 0.155781,-0.854519 3.004639,-7.465125 3.004639,-7.465125 z"
       style="opacity:1;fill:#ffffff;fill-opacity:1;stroke:none;stroke-width:12.5;stroke-linecap:butt;stroke-linejoin:round;stroke-miterlimit:4;stroke-dasharray:none;stroke-opacity:1" />
    <path
       style="opacity:1;fill:#ffffff;fill-opacity:1;stroke:none;stroke-width:12.5;stroke-linecap:butt;stroke-linejoin:round;stroke-miterlimit:4;stroke-dasharray:none;stroke-opacity:1"
       d="m 20.084119,31.919822 c -1.109436,4.66853 0.712783,5.743043 1.212046,7.644924 0.499244,1.90187 -0.474427,3.69013 -2.978651,3.41148 -2.504232,-0.278674 -2.194888,-3.086993 -1.955983,-3.922098 0.238873,-0.835106 3.722588,-7.134306 3.722588,-7.134306 z"
       id="path4405"
       inkscape:connector-curvature="0"
       sodipodi:nodetypes="czzzc"
       inkscape:transform-center-x="3.2595875"
       inkscape:transform-center-y="-1.0611103" />
    <path
       style="opacity:0.68900003;fill:#ffffff;fill-opacity:1;stroke:none;stroke-width:12.5;stroke-linecap:butt;stroke-linejoin:round;stroke-miterlimit:4;stroke-dasharray:none;stroke-opacity:1"
       d="m 47.578075,6.7900408 c -1.843363,4.4303482 -3.949184,4.2301122 -5.470104,5.4763922 -0.454877,0.372751 -0.796795,0.814609 -0.994279,1.284152 l 0.0708,-0.07082 c -0.519892,1.131657 -0.209823,2.434746 1.386011,3.318711 1.383271,0.766226 2.436272,0.07903 3.101219,-0.741777 -0.01107,-7.62e-4 -0.02282,-9.05e-4 -0.03383,-0.0024 0.393892,-0.479101 0.654626,-1.003062 0.764192,-1.304196 0.297027,-0.81624 1.175987,-7.9605097 1.175987,-7.9605097 z"
       id="path5169"
       inkscape:connector-curvature="0" />
    <path
       style="opacity:0.68900003;fill:#ffffff;fill-opacity:1;stroke:none;stroke-width:12.5;stroke-linecap:butt;stroke-linejoin:round;stroke-miterlimit:4;stroke-dasharray:none;stroke-opacity:1"
       d="m 21.938051,45.813492 c -1.615546,-0.05832 -2.91845,1.006633 -2.599361,3.188141 0.10179,0.695858 0.393444,1.165448 0.778354,1.475676 l 4.006216,-4.006214 c -0.490818,-0.228576 -0.957136,-0.445952 -1.477651,-0.563609 -0.239742,-0.05416 -0.476766,-0.0857 -0.707558,-0.09403 z m 2.185209,0.657603 c 0.168377,0.07844 0.340083,0.158054 0.518379,0.235587 -0.178751,-0.07772 -0.349679,-0.157018 -0.518379,-0.235587 z m -4.006216,4.006214 c 0.05906,0.04761 0.120545,0.0907 0.183675,0.130975 -0.06302,-0.04023 -0.124709,-0.08344 -0.183675,-0.130975 z m 4.686635,-3.70258 c 0.05863,0.0244 0.118228,0.04832 0.178562,0.07189 -0.06042,-0.02357 -0.119861,-0.04761 -0.178562,-0.07189 z m 0.31504,0.124286 c 0.09951,0.03678 0.201622,0.07189 0.306779,0.105337 -0.105147,-0.03345 -0.207284,-0.06868 -0.306779,-0.105337 z m 4.661857,0.09522 c -0.04593,0.01071 -0.09128,0.02119 -0.136478,0.03154 0.04523,-0.01071 0.09051,-0.02059 0.136478,-0.03154 z m -4.261865,0.03892 c 0.105743,0.0319 0.215153,0.06142 0.327624,0.08891 -0.112551,-0.0275 -0.221802,-0.05689 -0.327624,-0.08891 z m 0.453482,0.117597 c 0.09937,0.02214 0.2019,0.04202 0.307171,0.05987 -0.105147,-0.01785 -0.207899,-0.03773 -0.307171,-0.05987 z m 2.691787,0.05749 c -0.04065,0.006 -0.08039,0.01071 -0.120352,0.01607 0.04004,-0.006 0.07965,-0.01071 0.120352,-0.01607 z m -2.22808,0.02868 c 0.01609,0.0024 0.03254,0.0048 0.04876,0.006 -0.01623,-0.0024 -0.03268,-0.0036 -0.04876,-0.006 z m 1.751001,0.0275 c -0.02932,0.0024 -0.05956,0.006 -0.0885,0.0095 0.02892,-0.0024 0.0592,-0.006 0.0885,-0.0095 z m -1.402137,0.0119 c 0.02226,0.0024 0.04394,0.0048 0.06646,0.006 -0.02256,-0.0024 -0.04418,-0.0048 -0.06646,-0.006 z m 0.914043,0.02119 c -0.03745,0.0024 -0.07374,0.0024 -0.110515,0.0024 0.03679,-8.81e-4 0.07307,-9.16e-4 0.110515,-0.0024 z m -0.503826,0.0024 c 0.03478,9.05e-4 0.0708,9.05e-4 0.106194,0.0024 -0.03539,-4.88e-4 -0.07142,-5.95e-4 -0.106194,-0.0024 z m -6.869091,3.323842 c 0.05777,0.03583 0.116859,0.06892 0.177381,0.09915 -0.06054,-0.03023 -0.119581,-0.06332 -0.177381,-0.09915 z m 0.195865,0.108551 c 0.06667,0.03249 0.134882,0.06177 0.204126,0.08808 -0.06925,-0.0263 -0.137449,-0.05558 -0.204126,-0.08808 z m 2.804273,0.08891 c -0.06496,0.02107 -0.146851,0.04285 -0.234018,0.06415 0.08763,-0.0213 0.16878,-0.04297 0.234018,-0.06415 z m -2.582054,0.006 c 0.04974,0.01845 0.100303,0.03404 0.15103,0.04951 -0.05072,-0.01547 -0.101314,-0.03107 -0.15103,-0.04951 z m 2.268983,0.0763 c -0.07757,0.01726 -0.161503,0.0338 -0.25093,0.0488 0.0897,-0.015 0.173169,-0.03142 0.25093,-0.0488 z m -1.911075,0.02797 c 0.02516,0.006 0.04986,0.01297 0.07513,0.01809 -0.02523,-0.006 -0.05,-0.01238 -0.07513,-0.01809 z m 1.598396,0.0319 c -0.109635,0.0169 -0.227861,0.03011 -0.34965,0.04059 0.122262,-0.01071 0.239636,-0.02345 0.34965,-0.04059 z m -1.255432,0.02869 c 0.03384,0.0048 0.06729,0.0071 0.101076,0.01071 -0.0337,-0.0036 -0.06733,-0.006 -0.101076,-0.01071 z m 0.296552,0.0244 c 0.03082,0.0024 0.06142,0.0024 0.09203,0.0036 -0.03053,-7.5e-4 -0.0613,-0.0024 -0.09203,-0.0036 z m 0.397631,0.0024 c -0.01261,5.35e-4 -0.02469,0.0024 -0.03736,0.0024 0.01269,-4.28e-4 0.02475,-0.0024 0.03736,-0.0024 z"
       id="path5196"
       inkscape:connector-curvature="0" />
    <path
       style="opacity:0.68900003;fill:#ffffff;fill-opacity:1;stroke:none;stroke-width:12.5;stroke-linecap:butt;stroke-linejoin:round;stroke-miterlimit:4;stroke-dasharray:none;stroke-opacity:1"
       d="m 26.507482,41.314466 c -1.615546,-0.05832 -2.918449,1.006633 -2.59936,3.188129 0.09947,0.680003 0.380876,1.142952 0.752788,1.453275 l 3.99835,-3.998358 -0.0015,-0.0024 C 28.179532,41.732435 27.72347,41.522177 27.215064,41.40727 26.975323,41.353114 26.7383,41.321929 26.507506,41.313597 Z m 2.150206,0.641475 c 0.178635,0.0832 0.361429,0.16804 0.55102,0.250536 -0.189954,-0.0826 -0.37214,-0.16723 -0.55102,-0.250536 z M 24.66091,45.95587 c 0.238733,0.199189 0.51491,0.333842 0.80549,0.422409 -0.290286,-0.08867 -0.566925,-0.223363 -0.80549,-0.422409 z m 4.696075,-3.686464 c 0.06043,0.02523 0.122227,0.04952 0.184461,0.07392 -0.06225,-0.0244 -0.124017,-0.04868 -0.184461,-0.07392 z m 0.320545,0.126655 c 0.109063,0.04047 0.220376,0.07951 0.336276,0.11605 -0.115728,-0.03642 -0.227361,-0.0757 -0.336276,-0.11605 z m 4.675624,0.09831 c -0.04938,0.0119 -0.09817,0.02285 -0.146704,0.0338 0.04852,-0.01071 0.09734,-0.02214 0.146704,-0.0338 z m -4.226863,0.05035 c 0.0897,0.02654 0.181612,0.05142 0.276102,0.07475 -0.09459,-0.02333 -0.186314,-0.04821 -0.276102,-0.07475 z m 0.411006,0.10617 c 0.106909,0.0238 0.217404,0.04475 0.331164,0.0638 -0.113764,-0.01881 -0.224249,-0.03987 -0.331164,-0.0638 z m 2.676842,0.06106 c -0.03284,0.0048 -0.06513,0.0095 -0.09754,0.01297 0.03242,-0.0048 0.06468,-0.0083 0.09754,-0.01297 z m -2.240272,0.02119 c 0.02502,0.0036 0.05092,0.006 0.0763,0.01071 -0.0254,-0.0036 -0.05126,-0.006 -0.0763,-0.01071 z m 1.72976,0.03773 c -0.01279,9.16e-4 -0.02622,0.0024 -0.03894,0.0036 0.01271,-9.04e-4 0.02616,-0.0024 0.03894,-0.0036 z m -1.385224,0.0024 c 0.02922,0.0024 0.05803,0.006 0.08771,0.0083 -0.02966,-0.0024 -0.05851,-0.006 -0.08771,-0.0083 z m 0.929775,0.02476 c -0.03268,9.05e-4 -0.06458,0.0024 -0.09676,0.0024 0.03219,-7.38e-4 0.06406,-9.05e-4 0.09676,-0.0024 z m -0.491631,0.0024 c 0.0243,7.14e-4 0.04972,7.26e-4 0.07433,9.16e-4 -0.02462,-4.64e-4 -0.05003,-4.76e-4 -0.07433,-9.16e-4 z m -3.861088,3.521281 c -0.06683,0.02166 -0.150848,0.04392 -0.241098,0.06558 0.09042,-0.0219 0.174176,-0.04392 0.241098,-0.06558 z m -0.307959,0.08106 c -0.08772,0.01964 -0.182697,0.03856 -0.285541,0.05511 0.103076,-0.01666 0.197671,-0.03535 0.285541,-0.05511 z m -1.922873,0.02714 c 0.04546,0.01071 0.0907,0.01988 0.136477,0.02833 -0.04572,-0.0083 -0.09109,-0.01785 -0.136477,-0.02833 z m 1.605083,0.0338 c -0.114467,0.01762 -0.238171,0.0313 -0.365776,0.04166 0.127988,-0.01071 0.251014,-0.02392 0.365776,-0.04166 z m -1.271166,0.0263 c 0.04423,0.006 0.088,0.0095 0.132152,0.01369 -0.04397,-0.0036 -0.0881,-0.0083 -0.132152,-0.01369 z m 0.284754,0.02476 c 0.04149,0.0024 0.08276,0.0048 0.123892,0.006 -0.04109,-9.16e-4 -0.08245,-0.0036 -0.123892,-0.006 z m 0.467642,7.85e-4 c -0.03116,0.0024 -0.0616,0.0036 -0.09321,0.0048 0.03167,-9.16e-4 0.062,-0.0024 0.09321,-0.0048 z"
       id="path5201"
       inkscape:connector-curvature="0" />
    <path
       style="opacity:0.68900003;fill:#ffffff;fill-opacity:1;stroke:none;stroke-width:12.5;stroke-linecap:butt;stroke-linejoin:round;stroke-miterlimit:4;stroke-dasharray:none;stroke-opacity:1"
       d="m 30.931782,36.785148 c -1.615545,-0.05832 -2.918449,1.006633 -2.59936,3.188141 0.100493,0.687026 0.38654,1.152784 0.764194,1.463095 l 4.001498,-4.001501 -0.002,-0.0024 c -0.483241,-0.225065 -0.943531,-0.438156 -1.456804,-0.55417 -0.239743,-0.05416 -0.476767,-0.08534 -0.70756,-0.09355 z m -1.835166,4.651236 c 0.06207,0.05094 0.126455,0.0976 0.193115,0.140414 -0.06663,-0.04285 -0.131065,-0.08939 -0.193115,-0.140414 z m 0.193115,0.140414 c 0.06669,0.04285 0.135232,0.08189 0.205697,0.11724 -0.0704,-0.03523 -0.139063,-0.07439 -0.205697,-0.11724 z m 0.205697,0.11724 c 0.127847,0.06392 0.261545,0.114264 0.398028,0.155744 -0.136416,-0.04154 -0.270236,-0.09177 -0.398028,-0.155744 z m 3.645164,-4.241027 c 0.160153,0.07451 0.322794,0.15015 0.492024,0.223791 -0.169614,-0.0738 -0.331589,-0.149103 -0.492024,-0.223791 z m 0.647774,0.289874 c 0.05858,0.0244 0.118263,0.04832 0.17856,0.07189 -0.06032,-0.02357 -0.119943,-0.04749 -0.17856,-0.07189 z m 0.320544,0.126238 c 0.09461,0.03511 0.191748,0.06868 0.29144,0.100696 -0.0996,-0.0319 -0.196921,-0.0657 -0.29144,-0.100696 z m 4.665005,0.09677 c -0.04766,0.01071 -0.09472,0.02202 -0.141589,0.03261 0.04691,-0.01071 0.09389,-0.02142 0.141589,-0.03261 z m -4.220962,0.04999 c 0.0909,0.0269 0.18381,0.05237 0.279641,0.07594 -0.09593,-0.02345 -0.188646,-0.04904 -0.279641,-0.07594 z m 3.618022,0.07903 c -0.01431,0.0024 -0.02943,0.006 -0.04366,0.0095 0.01422,-0.0024 0.02935,-0.006 0.04366,-0.0095 z m -3.202297,0.02797 c 0.09785,0.02166 0.198887,0.04142 0.302451,0.05904 -0.103504,-0.01762 -0.204646,-0.03737 -0.302451,-0.05904 z m 2.687068,0.05749 c -0.04313,0.006 -0.08544,0.0119 -0.127826,0.0169 0.04241,-0.006 0.08466,-0.01071 0.127826,-0.0169 z m -2.243419,0.02559 c 0.02158,0.0024 0.04385,0.006 0.06568,0.0095 -0.02189,-0.0024 -0.04406,-0.006 -0.06568,-0.0095 z m 1.747068,0.03261 c -0.02337,0.0024 -0.04767,0.0048 -0.0708,0.006 0.02309,-0.0024 0.04747,-0.0048 0.0708,-0.006 z m -1.405677,0.0071 c 0.02759,0.0024 0.0546,0.006 0.08259,0.0083 -0.02797,-0.0024 -0.05503,-0.006 -0.08259,-0.0083 z m 0.921122,0.02392 c -0.02938,9.16e-4 -0.05797,0.0024 -0.08692,0.0024 0.02898,-7.14e-4 0.05754,-9.16e-4 0.08692,-0.0024 z m -0.492025,0.0024 c 0.02973,8.57e-4 0.06067,6.79e-4 0.09085,9.05e-4 -0.03017,-5e-4 -0.06113,-3.22e-4 -0.09085,-9.05e-4 z m -3.863055,3.520698 c -0.06513,0.02107 -0.147364,0.04321 -0.234803,0.06451 0.08796,-0.02142 0.169367,-0.04333 0.234803,-0.06451 z m -0.313857,0.0826 c -0.08327,0.01857 -0.173,0.03618 -0.269808,0.0519 0.0969,-0.01583 0.186471,-0.03333 0.269808,-0.0519 z m -1.925627,0.02357 c 0.04561,0.01071 0.09092,0.02083 0.136871,0.02952 -0.04585,-0.0083 -0.09136,-0.01881 -0.136871,-0.02952 z m 1.614915,0.03547 c -0.113883,0.01762 -0.236475,0.0313 -0.363415,0.04166 0.127196,-0.01071 0.249331,-0.02404 0.363415,-0.04166 z m -1.269594,0.02714 c 0.04279,0.006 0.0851,0.0095 0.127826,0.01333 -0.04259,-0.0036 -0.08516,-0.0083 -0.127826,-0.01333 z m 0.293014,0.02511 c 0.03714,0.0024 0.07407,0.0048 0.110908,0.006 -0.03678,-9.16e-4 -0.07384,-0.0036 -0.110908,-0.006 z m 0.446796,3.81e-4 c -0.02594,9.16e-4 -0.05123,0.0036 -0.07748,0.0048 0.02635,-8.57e-4 0.05145,-0.0024 0.07748,-0.0048 z"
       id="path5206"
       inkscape:connector-curvature="0" />
    <path
       style="opacity:0.68900003;fill:#ffffff;fill-opacity:1;stroke:none;stroke-width:12.5;stroke-linecap:butt;stroke-linejoin:round;stroke-miterlimit:4;stroke-dasharray:none;stroke-opacity:1"
       d="m 35.063465,32.259758 c -1.785391,-0.07808 -3.206792,1.106554 -2.66111,3.404862 0.13958,0.58789 0.404571,0.996039 0.736662,1.274309 l 4.10651,-4.106505 -0.0048,-0.0048 c -0.621062,-0.219423 -1.187389,-0.450689 -1.815895,-0.535685 -0.121783,-0.01643 -0.24242,-0.02702 -0.361448,-0.03226 z m 7.617947,0.471185 c -0.06359,0.02131 -0.12575,0.04142 -0.188,0.06142 0.06227,-0.02 0.124366,-0.03999 0.188,-0.06142 z m -0.495959,0.15615 c -0.04942,0.01452 -0.09934,0.02964 -0.147882,0.04321 0.04847,-0.01369 0.09855,-0.0288 0.147882,-0.04321 z m -0.576195,0.155744 c -0.02505,0.006 -0.04873,0.01071 -0.07354,0.01643 0.02478,-0.006 0.04853,-0.01071 0.07354,-0.01643 z m -0.422804,0.09201 c -0.04105,0.0083 -0.08156,0.01535 -0.121924,0.02285 0.04042,-0.0071 0.08082,-0.01476 0.121924,-0.02285 z m -2.714204,0.04202 c 0.05956,0.0119 0.11989,0.0225 0.181313,0.03261 -0.06142,-0.0095 -0.121758,-0.02107 -0.181313,-0.03261 z m 2.295334,0.03035 c -0.03161,0.0048 -0.064,0.0095 -0.09518,0.01416 0.03118,-0.0048 0.06356,-0.0095 0.09518,-0.01416 z m -1.920908,0.0319 c 0.119698,0.01583 0.242586,0.02904 0.370101,0.03809 -0.12765,-0.0095 -0.25027,-0.02238 -0.370101,-0.03809 z m 1.457988,0.02476 c -0.0191,0.0024 -0.03731,0.0024 -0.05624,0.0048 0.01894,-0.0024 0.03714,-0.0024 0.05624,-0.0048 z m -0.347685,0.02238 c -0.03347,0.0024 -0.06657,0.0024 -0.0995,0.0036 0.03292,-9.05e-4 0.06606,-0.0024 0.0995,-0.0036 z m -6.815995,3.653815 c 0.131104,0.109623 0.272518,0.198951 0.42123,0.270605 -0.148679,-0.07165 -0.29013,-0.161018 -0.42123,-0.270605 z m 0.42123,0.270605 c 0.193709,0.09331 0.399269,0.154459 0.609233,0.194677 -0.209727,-0.04035 -0.415712,-0.101409 -0.609233,-0.194677 z m 2.971428,-0.08296 c -0.06703,0.02845 -0.152654,0.05892 -0.244635,0.08963 0.09238,-0.03083 0.177387,-0.06118 0.244635,-0.08963 z m -0.308352,0.110455 c -0.100112,0.03166 -0.208569,0.06368 -0.328804,0.09248 0.120538,-0.02892 0.228507,-0.0607 0.328804,-0.09248 z m -0.335488,0.09403 c -0.117276,0.02797 -0.244743,0.05166 -0.376003,0.07272 0.131322,-0.02119 0.258688,-0.04475 0.376003,-0.07272 z m -0.485342,0.08963 c -0.03793,0.006 -0.07615,0.01071 -0.114847,0.01452 0.03889,-0.0048 0.07672,-0.0095 0.114847,-0.01452 z m -1.084343,0.0095 c 0.04816,0.006 0.09602,0.01238 0.144341,0.0169 -0.04819,-0.0048 -0.0963,-0.01071 -0.144341,-0.0169 z m 0.790545,0.02119 c -0.03379,0.0024 -0.06694,0.006 -0.101076,0.0083 0.03418,-0.0024 0.06726,-0.006 0.101076,-0.0083 z m -0.49596,0.006 c 0.04436,0.0024 0.08835,0.006 0.132545,0.006 -0.04407,-6.67e-4 -0.0883,-0.0036 -0.132545,-0.006 z"
       id="path5211"
       inkscape:connector-curvature="0" />
    <path
       style="opacity:0.68900003;fill:#ffffff;fill-opacity:1;stroke:none;stroke-width:12.5;stroke-linecap:butt;stroke-linejoin:round;stroke-miterlimit:4;stroke-dasharray:none;stroke-opacity:1"
       d="m 46.274657,26.980021 c -0.04636,0.02012 -0.09159,0.03856 -0.137265,0.05785 0.04567,-0.01928 0.0909,-0.03773 0.137265,-0.05785 z m -7.632106,0.184453 c -1.785502,0.07534 -3.10025,1.377754 -2.359445,3.620786 0.146974,0.445012 0.359693,0.776141 0.613167,1.018667 l 4.191463,-4.191858 -0.01338,-0.01333 C 40.348739,27.4217 39.710062,27.199932 39.005568,27.1657 c -0.122751,-0.006 -0.243989,-0.006 -0.363023,-9.04e-4 z m -1.746278,4.639453 c 0.01664,0.01595 0.03415,0.02999 0.05113,0.04523 -0.017,-0.01524 -0.03447,-0.02928 -0.05113,-0.04523 z m 8.928048,-4.63787 c -0.04603,0.01809 -0.09196,0.03618 -0.137263,0.05356 0.04529,-0.01726 0.09124,-0.03547 0.137263,-0.05356 z m -0.481405,0.178562 c -0.02183,0.0071 -0.04442,0.01583 -0.06607,0.02321 0.02163,-0.0071 0.04427,-0.01571 0.06607,-0.02321 z m -0.470788,0.151412 c -0.02057,0.006 -0.04016,0.01071 -0.06057,0.0169 0.02039,-0.006 0.04,-0.01071 0.06057,-0.0169 z m -0.372856,0.100696 c -0.0381,0.0095 -0.07575,0.01833 -0.113277,0.02714 0.03757,-0.0095 0.07512,-0.01762 0.113277,-0.02714 z m -0.364988,0.0826 c -0.03598,0.0071 -0.07232,0.015 -0.107765,0.02166 0.03543,-0.006 0.0718,-0.01428 0.107765,-0.02166 z m -2.44243,0.04832 c 0.0641,0.01071 0.12874,0.02131 0.194687,0.03071 -0.06599,-0.0095 -0.130566,-0.01964 -0.194687,-0.03071 z m 0.36538,0.05273 c 0.10091,0.0119 0.203695,0.02166 0.309533,0.02868 -0.105838,-0.0071 -0.208634,-0.01702 -0.309533,-0.02868 z m 1.312464,0.01416 c -0.02148,0.0024 -0.04243,0.0036 -0.06372,0.006 0.02127,-0.0024 0.04224,-0.0024 0.06372,-0.006 z m -0.866061,0.02119 c 0.104588,0.0048 0.212151,0.006 0.322119,0.006 -0.110075,9.16e-4 -0.217423,-9.05e-4 -0.322119,-0.006 z m 0.54473,7.86e-4 c -0.02001,8.93e-4 -0.03996,0.0024 -0.05979,0.0024 0.01981,-6.9e-4 0.03979,-0.0024 0.05979,-0.0024 z m -2.523453,4.071904 c -0.06732,0.03559 -0.155527,0.07606 -0.24975,0.116406 0.09497,-0.04071 0.182007,-0.08058 0.24975,-0.116406 z m -3.509077,0.02 c 0.01951,0.01583 0.03949,0.03071 0.05939,0.04559 -0.01989,-0.015 -0.03989,-0.02976 -0.05939,-0.04559 z m 0.111693,0.08379 c 0.06753,0.04737 0.136816,0.0901 0.20806,0.127821 -0.07118,-0.03773 -0.140584,-0.08058 -0.20806,-0.127821 z m 3.077621,0.04202 c -0.09934,0.04047 -0.209306,0.08129 -0.328805,0.120358 0.119836,-0.03916 0.229231,-0.07975 0.328805,-0.120358 z m -2.83849,0.101052 c 0.06965,0.03547 0.140395,0.06689 0.212778,0.09403 -0.07226,-0.02714 -0.143245,-0.05868 -0.212778,-0.09403 z m 2.342532,0.06999 c -0.02464,0.0071 -0.04796,0.01476 -0.07315,0.02166 0.02524,-0.0071 0.04848,-0.01452 0.07315,-0.02166 z m -2.114808,0.03035 c 0.07726,0.02833 0.156069,0.05178 0.23559,0.07153 -0.07962,-0.01988 -0.158253,-0.04321 -0.23559,-0.07153 z m 1.782069,0.05463 c -0.02523,0.006 -0.05149,0.0095 -0.07709,0.01452 0.02566,-0.006 0.05179,-0.0095 0.07709,-0.01452 z m -1.517373,0.02404 c 0.07862,0.01857 0.158001,0.03368 0.237951,0.04475 -0.07989,-0.01071 -0.159392,-0.02631 -0.237951,-0.04475 z m 1.240094,0.02631 c -0.03585,0.006 -0.07225,0.0095 -0.108551,0.01452 0.03645,-0.0048 0.07255,-0.0095 0.108551,-0.01452 z m -0.294586,0.03345 c -0.03808,0.0024 -0.07612,0.006 -0.114455,0.0083 0.03841,-0.0024 0.0763,-0.0048 0.114455,-0.0083 z m -0.413366,0.01071 c 0.03314,9.05e-4 0.066,5.12e-4 0.09911,7.86e-4 -0.03307,-2.74e-4 -0.06604,4.88e-4 -0.09911,-7.86e-4 z"
       id="path5216"
       inkscape:connector-curvature="0" />
    <path
       style="opacity:0.68900003;fill:#ffffff;fill-opacity:1;stroke:none;stroke-width:12.5;stroke-linecap:butt;stroke-linejoin:round;stroke-miterlimit:4;stroke-dasharray:none;stroke-opacity:1"
       d="m 48.457112,20.486535 c -0.0453,0.03083 -0.08903,0.05892 -0.133722,0.08855 0.04468,-0.02964 0.08842,-0.05773 0.133722,-0.08855 z m -0.36538,0.23992 c -0.04788,0.03035 -0.09442,0.05868 -0.141591,0.08772 0.04717,-0.02916 0.09371,-0.05737 0.141591,-0.08772 z m -0.354762,0.217114 c -0.04296,0.02535 -0.08507,0.04928 -0.127431,0.07356 0.04235,-0.02416 0.08448,-0.0482 0.127431,-0.07356 z m -0.346503,0.196249 c -0.03991,0.02166 -0.0794,0.04261 -0.118775,0.06332 0.03941,-0.02071 0.07884,-0.04166 0.118775,-0.06332 z m -0.325265,0.169123 c -0.04015,0.02 -0.07997,0.03964 -0.119565,0.05868 0.03956,-0.01892 0.07946,-0.03868 0.119565,-0.05868 z m -0.332344,0.157315 c -0.02914,0.01309 -0.05848,0.02642 -0.08732,0.03892 0.02883,-0.01262 0.05819,-0.02583 0.08732,-0.03892 z m -0.324083,0.137272 c -0.02195,0.0095 -0.0443,0.01797 -0.06607,0.02631 0.02181,-0.0083 0.0441,-0.01762 0.06607,-0.02631 z m -0.302846,0.113669 c -0.01825,0.006 -0.03693,0.01345 -0.05507,0.01964 0.01813,-0.006 0.03681,-0.01333 0.05507,-0.01964 z m -0.881793,0.244252 c -0.122343,0.02476 -0.240639,0.04321 -0.357515,0.05987 0.116776,-0.01642 0.235283,-0.03511 0.357515,-0.05987 z m -3.196399,0.02166 c -0.240248,-0.0036 -0.480125,0.0048 -0.723682,0.03773 -1.948466,0.264319 -3.229698,1.84663 -2.016482,4.05499 0.0881,0.160375 0.183303,0.300337 0.283573,0.424778 l 4.415648,-4.415649 c -0.712711,0.0048 -1.339032,-0.09141 -1.959057,-0.101886 z m 2.693754,0.05785 c -0.09857,0.0119 -0.19481,0.02 -0.289866,0.02678 0.09502,-0.006 0.191355,-0.01524 0.289866,-0.02678 z m 0.03343,3.155897 c -0.387727,0.452332 -0.714538,0.819954 -0.925452,1.032426 0.21091,-0.212472 0.537734,-0.580094 0.925452,-1.032426 z m -1.236555,1.29515 c -0.02267,0.01595 -0.04999,0.03297 -0.07472,0.04951 0.02482,-0.01666 0.052,-0.03356 0.07472,-0.04951 z m -3.939749,0.01726 c 0.03766,0.0463 0.0761,0.09046 0.11524,0.132142 -0.03914,-0.04166 -0.07757,-0.08582 -0.11524,-0.132142 z m 0.11524,0.132142 c 0.333202,0.354207 0.717158,0.541303 1.114631,0.615135 -0.397389,-0.07403 -0.781451,-0.260963 -1.114631,-0.615135 z m 3.648701,-0.03345 c -0.02797,0.01762 -0.05939,0.03595 -0.08928,0.05392 0.03009,-0.01809 0.06113,-0.03618 0.08928,-0.05392 z m -0.21081,0.125464 c -0.02982,0.01678 -0.06198,0.03356 -0.09321,0.05035 0.03142,-0.0169 0.06323,-0.03345 0.09321,-0.05035 z m -0.23677,0.124679 c -0.03757,0.01857 -0.07693,0.03654 -0.116026,0.05463 0.03919,-0.01821 0.07837,-0.03595 0.116026,-0.05463 z m -0.248176,0.114503 c -0.04678,0.02012 -0.09512,0.03928 -0.143557,0.0582 0.04866,-0.01904 0.09658,-0.03809 0.143557,-0.0582 z m -0.274921,0.10736 c -0.05315,0.01892 -0.10704,0.0369 -0.161649,0.05392 0.05473,-0.01714 0.108397,-0.03487 0.161649,-0.05392 z m -0.284361,0.08963 c -0.05692,0.01571 -0.114241,0.03047 -0.172269,0.04368 0.05814,-0.01333 0.11524,-0.02773 0.172269,-0.04368 z m -0.305205,0.07034 c -0.05714,0.01071 -0.114491,0.02071 -0.172269,0.02833 0.05789,-0.0071 0.115002,-0.01762 0.172269,-0.02833 z m -0.972254,0.0169 c 0.0493,0.0095 0.09866,0.01666 0.148276,0.02238 -0.04955,-0.006 -0.09906,-0.01333 -0.148276,-0.02238 z m 0.14985,0.02238 c 0.09946,0.0119 0.199408,0.01654 0.299306,0.01571 -0.09991,7.5e-4 -0.199833,-0.0048 -0.299306,-0.01571 z m 0.51248,0.0024 c -0.0698,0.006 -0.139563,0.01274 -0.209635,0.01333 0.07019,-6.54e-4 0.139723,-0.0071 0.209635,-0.01333 z"
       id="path5221"
       inkscape:connector-curvature="0" />
    <path
       style="opacity:0.68900003;fill:#ffffff;fill-opacity:1;stroke:none;stroke-width:12.5;stroke-linecap:butt;stroke-linejoin:round;stroke-miterlimit:4;stroke-dasharray:none;stroke-opacity:1"
       d="m 41.872381,12.47725 c -0.0132,0.01262 -0.02636,0.02535 -0.03934,0.03809 0.01294,-0.01273 0.02615,-0.02547 0.03934,-0.03809 z m -0.241491,0.253286 c -0.01221,0.01416 -0.02347,0.02857 -0.0354,0.04285 0.01193,-0.01428 0.02319,-0.02868 0.0354,-0.04285 z m -0.188392,0.240312 c -0.01071,0.01488 -0.02183,0.02976 -0.03224,0.04487 0.01035,-0.015 0.02154,-0.02988 0.03224,-0.04487 z m -0.179348,0.279245 c -0.0092,0.01607 -0.01758,0.03226 -0.02635,0.04833 0.0087,-0.01607 0.01726,-0.03238 0.02635,-0.04833 z m -0.07866,0.229696 -0.0704,0.07034 c -0.433332,1.029784 -0.171474,2.192899 1.122101,3.053226 -0.964899,0.695691 -1.337063,1.931674 -0.489271,3.474861 0.119976,0.218399 0.252739,0.400508 0.394485,0.553384 l 4.619775,-4.554087 c -0.386195,0.01916 -0.745264,0.0024 -1.089459,-0.02083 -0.664947,0.82081 -1.717946,1.508003 -3.101219,0.741777 -1.595833,-0.883965 -1.905903,-2.187054 -1.386009,-3.318711 z m 0.956913,7.151874 c 0.161443,0.174122 0.334943,0.308537 0.516411,0.409435 -0.181468,-0.100934 -0.354958,-0.235301 -0.516411,-0.409435 z m 0.516411,0.409435 c 0.04128,0.02297 0.08304,0.0438 0.125073,0.06332 -0.04198,-0.01952 -0.08384,-0.04047 -0.125073,-0.06332 z m 8.634252,-6.815211 c -0.149852,0.108075 -0.295514,0.208532 -0.438931,0.304824 0.143528,-0.09641 0.288954,-0.196654 0.438931,-0.304824 z m -0.556923,0.382297 c -0.102778,0.06761 -0.20367,0.132166 -0.30324,0.193904 0.09951,-0.06177 0.20053,-0.126405 0.30324,-0.193904 z m -0.429098,0.27139 c -0.124915,0.07546 -0.247744,0.147675 -0.367741,0.214341 0.119992,-0.06666 0.242829,-0.138903 0.367741,-0.214341 z m -0.413363,0.239515 c -0.120399,0.06618 -0.238325,0.127071 -0.353975,0.184858 0.115764,-0.05785 0.233457,-0.118669 0.353975,-0.184858 z m -0.465675,0.239121 c -0.08192,0.03964 -0.162265,0.07725 -0.241882,0.112836 0.07948,-0.03547 0.160101,-0.07344 0.241882,-0.112836 z m -0.376001,0.171885 c -0.09984,0.04261 -0.198248,0.08248 -0.294586,0.119168 0.09634,-0.03654 0.194737,-0.07653 0.294586,-0.119168 z m -0.360662,0.143949 c -0.09908,0.03654 -0.196285,0.07034 -0.291832,0.101053 0.09561,-0.03071 0.192683,-0.06451 0.291832,-0.101053 z m -0.401959,0.134903 c -0.06735,0.02047 -0.133733,0.03928 -0.199404,0.05701 0.06562,-0.01773 0.132112,-0.03666 0.199404,-0.05701 z m -0.32251,0.08998 c -0.08443,0.02107 -0.167973,0.03975 -0.249751,0.05666 0.08188,-0.0169 0.16522,-0.03559 0.249751,-0.05666 z m -0.720144,0.134523 c -0.02622,0.0036 -0.05231,0.006 -0.07827,0.0095 0.02597,-0.0024 0.05205,-0.006 0.07827,-0.0095 z m -1.127216,4.355862 c -0.07019,0.05559 -0.164383,0.121382 -0.269415,0.189572 0.105397,-0.06844 0.199042,-0.133796 0.269415,-0.189572 z m -0.315037,0.219852 c -0.02745,0.01726 -0.05762,0.03499 -0.08691,0.05273 0.02931,-0.01762 0.05945,-0.03535 0.08691,-0.05273 z m -0.195867,0.116764 c -0.0369,0.02095 -0.07612,0.04202 -0.11524,0.06296 0.03938,-0.02107 0.0781,-0.0419 0.11524,-0.06296 z m -0.234018,0.124667 c -0.03935,0.01964 -0.08006,0.03892 -0.121138,0.0582 0.04128,-0.0194 0.0816,-0.03844 0.121138,-0.0582 z m -0.256828,0.118787 c -0.04127,0.01785 -0.08288,0.03571 -0.125466,0.05273 0.04274,-0.01702 0.08404,-0.03476 0.125466,-0.05273 z m -0.269024,0.106171 c -0.04705,0.0169 -0.09413,0.03404 -0.142375,0.04951 0.04839,-0.01559 0.09517,-0.03249 0.142375,-0.04951 z m -2.045977,0.03773 c 0.04127,0.01869 0.08281,0.03547 0.124679,0.05118 -0.04185,-0.01559 -0.08344,-0.03237 -0.124679,-0.05118 z m 1.765945,0.05225 c -0.05208,0.01476 -0.103885,0.02988 -0.156929,0.04249 0.05312,-0.01262 0.104778,-0.02773 0.156929,-0.04249 z m -1.625534,0.0048 c 0.04163,0.01512 0.08333,0.02916 0.125464,0.0413 -0.04212,-0.01214 -0.08383,-0.02619 -0.125464,-0.0413 z m 0.147096,0.04713 c 0.04187,0.0119 0.084,0.02214 0.126251,0.03107 -0.04224,-0.0095 -0.08439,-0.0194 -0.126251,-0.03107 z m 1.167726,0.02166 c -0.04844,0.0095 -0.09659,0.02 -0.145524,0.02714 0.049,-0.0071 0.09701,-0.01773 0.145524,-0.02714 z m -1.030855,0.0119 c 0.09472,0.01964 0.190078,0.03297 0.285933,0.04011 -0.09583,-0.0071 -0.191233,-0.02059 -0.285933,-0.04011 z m 0.719751,0.0319 c -0.143699,0.01297 -0.288151,0.01904 -0.432244,0.0083 0.144146,0.01071 0.288493,0.0048 0.432244,-0.0083 z"
       id="path5240"
       inkscape:connector-curvature="0" />
    <path
       style="opacity:0.68900003;fill:#ffffff;fill-opacity:1;stroke:none;stroke-width:12.5;stroke-linecap:butt;stroke-linejoin:round;stroke-miterlimit:4;stroke-dasharray:none;stroke-opacity:1"
       d="m 47.578075,6.7900408 c -1.843363,4.4303482 -3.949184,4.2301122 -5.470104,5.4763922 -0.454877,0.372751 -0.796795,0.814609 -0.994279,1.284152 l 0.0708,-0.07082 c -0.39285,0.855125 -0.310706,1.807994 0.440896,2.604083 0.117585,0.09355 0.240662,0.185882 0.372461,0.276484 l 5.062243,-5.600678 c 0.273901,-1.9934478 0.517985,-3.969637 0.517985,-3.969637 z"
       id="path5247"
       inkscape:connector-curvature="0" />
  </g>
</svg>
