<?xml version="1.0" encoding="UTF-8" standalone="no"?>
<!-- Created with Inkscape (http://www.inkscape.org/) -->

<svg
   xmlns:dc="http://purl.org/dc/elements/1.1/"
   xmlns:cc="http://creativecommons.org/ns#"
   xmlns:rdf="http://www.w3.org/1999/02/22-rdf-syntax-ns#"
   xmlns:svg="http://www.w3.org/2000/svg"
   xmlns="http://www.w3.org/2000/svg"
   xmlns:sodipodi="http://sodipodi.sourceforge.net/DTD/sodipodi-0.dtd"
   xmlns:inkscape="http://www.inkscape.org/namespaces/inkscape"
   width="64"
   height="64"
   id="svg4263"
   version="1.1"
   inkscape:version="0.91 r13725"
   viewBox="0 0 64 64"
   inkscape:export-filename="C:\Users\emile\Desktop\SÉMINAIRE TAL\graphismes\allergenes\lactose_sq.png"
   inkscape:export-xdpi="105.46875"
   inkscape:export-ydpi="105.46875"
   sodipodi:docname="oeufs.svg">
  <defs
     id="defs4265" />
  <sodipodi:namedview
     id="base"
     pagecolor="#ffffff"
     bordercolor="#666666"
     borderopacity="1.0"
     inkscape:pageopacity="0.0"
     inkscape:pageshadow="2"
     inkscape:zoom="7.7781746"
     inkscape:cx="29.122225"
     inkscape:cy="35.012462"
     inkscape:current-layer="layer1"
     showgrid="true"
     inkscape:document-units="px"
     inkscape:grid-bbox="true"
     inkscape:snap-page="true"
     inkscape:snap-bbox="true"
     inkscape:bbox-nodes="true"
     inkscape:snap-nodes="true"
     inkscape:snap-others="false"
     inkscape:object-nodes="true"
     inkscape:window-width="1474"
     inkscape:window-height="841"
     inkscape:window-x="-8"
     inkscape:window-y="-8"
     inkscape:window-maximized="1" />
  <metadata
     id="metadata4268">
    <rdf:RDF>
      <cc:Work
         rdf:about="">
        <dc:format>image/svg+xml</dc:format>
        <dc:type
           rdf:resource="http://purl.org/dc/dcmitype/StillImage" />
        <dc:title></dc:title>
      </cc:Work>
    </rdf:RDF>
  </metadata>
  <g
     id="layer1"
     inkscape:label="Layer 1"
     inkscape:groupmode="layer">
    <path
       style="opacity:0.33200001;fill:#000000;fill-opacity:1;stroke:none;stroke-width:3.88100004;stroke-linecap:round;stroke-linejoin:round;stroke-miterlimit:4;stroke-dasharray:7.762, 7.762;stroke-dashoffset:0;stroke-opacity:1"
       d="M 33.365234 10.078125 L 33.351562 10.089844 C 35.489033 12.062556 37.110709 14.754009 38.199219 17.322266 C 39.218147 19.912602 39.988448 22.589678 40.658203 25.292969 C 34.345386 26.297007 28.904924 31.446219 27.642578 37.755859 C 26.541808 42.584002 27.962236 47.985052 31.417969 51.5 C 29.908395 51.947619 28.331579 52.172057 26.757812 52.158203 C 24.747677 52.140583 22.740609 51.7335 20.884766 50.90625 C 19.144092 50.204834 17.596177 49.15982 16.273438 47.876953 L 16.113281 48.035156 L 32.076172 63.998047 L 32.078125 64 L 64 64 L 64 40.710938 L 63.013672 39.724609 L 33.365234 10.078125 z M 42.505859 26.097656 A 13.530485 14.486442 32.692252 0 1 42.507812 26.097656 A 13.530485 14.486442 32.692252 0 1 49.900391 28.113281 A 13.530485 14.486442 32.692252 0 1 53.462891 47.613281 A 13.530485 14.486442 32.692252 0 1 34.251953 52.496094 A 13.530485 14.486442 32.692252 0 1 30.6875 32.996094 A 13.530485 14.486442 32.692252 0 1 42.505859 26.097656 z "
       id="rect5534" />
    <path
       style="opacity:1;fill:#ffffff;fill-opacity:1;stroke:none;stroke-width:3.88100004;stroke-linecap:round;stroke-linejoin:round;stroke-miterlimit:4;stroke-dasharray:7.762, 7.762;stroke-dashoffset:0;stroke-opacity:1"
       d="m 26.61892,7.1305603 c -0.182538,-0.00476 -0.366801,-0.00476 -0.553028,0.00238 -4.361028,1.1072568 -7.712364,4.6559132 -9.350343,8.7498352 -1.619137,3.772234 -2.960624,7.661517 -4.283388,11.545563 -1.119719,3.861801 -2.049818,8.039589 -0.839248,12.000752 1.125302,4.979591 4.480137,9.538974 9.292712,11.47823 1.855831,0.82725 3.861669,1.233662 5.871804,1.251361 l 0,-45.0194447 c -0.0463,-0.00238 -0.09189,-0.00595 -0.138509,-0.00833 z"
       id="path5481"
       inkscape:connector-curvature="0" />
    <path
       style="opacity:1;fill:#ffffff;fill-opacity:1;stroke:none;stroke-width:3.88100004;stroke-linecap:round;stroke-linejoin:round;stroke-miterlimit:4;stroke-dasharray:7.762, 7.762;stroke-dashoffset:0;stroke-opacity:1"
       d="M 42.508383,26.097101 A 13.530485,14.486442 32.692252 0 0 30.68924,32.996046 13.530485,14.486442 32.692252 0 0 34.252037,52.495773 13.530485,14.486442 32.692252 0 0 53.463628,47.612367 13.530485,14.486442 32.692252 0 0 49.900819,28.11264 13.530485,14.486442 32.692252 0 0 42.508383,26.097101 Z m -2.797631,9.381813 a 8.0582977,8.0582977 0 0 1 8.0583,8.0583 8.0582977,8.0582977 0 0 1 -8.0583,8.058299 8.0582977,8.0582977 0 0 1 -8.058299,-8.058299 8.0582977,8.0582977 0 0 1 8.058299,-8.0583 z"
       id="path5493"
       inkscape:connector-curvature="0" />
    <circle
       style="opacity:0.62804877;fill:#ffffff;fill-opacity:1;stroke:none;stroke-width:3.88100004;stroke-linecap:round;stroke-linejoin:round;stroke-miterlimit:4;stroke-dasharray:7.762, 7.762;stroke-dashoffset:0;stroke-opacity:1"
       id="path5504"
       cx="39.710655"
       cy="43.537334"
       r="8.0582981" />
    <ellipse
       cy="45.28915"
       cx="38.200462"
       id="circle5509"
       style="opacity:0.62804877;fill:#ffffff;fill-opacity:1;stroke:none;stroke-width:3.88100004;stroke-linecap:round;stroke-linejoin:round;stroke-miterlimit:4;stroke-dasharray:7.762, 7.762;stroke-dashoffset:0;stroke-opacity:1"
       rx="6.5481086"
       ry="6.306479" />
    <path
       style="opacity:0.62804877;fill:#ffffff;fill-opacity:1;stroke:none;stroke-width:3.88100004;stroke-linecap:round;stroke-linejoin:round;stroke-miterlimit:4;stroke-dasharray:7.762, 7.762;stroke-dashoffset:0;stroke-opacity:1"
       d="m 39.597452,40.190888 a 3.4747301,3.3465096 0 0 0 -3.231085,2.123531 3.4747301,3.3465096 0 0 1 2.385053,-0.915269 3.4747301,3.3465096 0 0 1 3.474635,3.346326 3.4747301,3.3465096 0 0 1 -0.243574,1.222782 3.4747301,3.3465096 0 0 0 1.089606,-2.431044 3.4747301,3.3465096 0 0 0 -3.474635,-3.346326 z"
       id="ellipse5511"
       inkscape:connector-curvature="0" />
    <path
       style="opacity:0.79299999;fill:#ffffff;fill-opacity:1;stroke:none;stroke-width:3.88100004;stroke-linecap:round;stroke-linejoin:round;stroke-miterlimit:4;stroke-dasharray:7.762, 7.762;stroke-dashoffset:0;stroke-opacity:1"
       d="m 26.757429,7.138297 0,45.019456 c 1.573765,0.01381 3.150101,-0.21052 4.659675,-0.658126 C 27.96137,47.984666 26.541922,42.583607 27.64268,37.755476 28.905039,31.445837 34.345127,26.296766 40.657991,25.292716 39.9882,22.589436 39.218249,19.912902 38.199345,17.322554 36.18183,12.562529 32.340895,7.3720389 26.757429,7.138297 Z"
       id="rect5527"
       inkscape:connector-curvature="0" />
  </g>
</svg>
