<?xml version="1.0" encoding="UTF-8" standalone="no"?>
<!-- Created with Inkscape (http://www.inkscape.org/) -->

<svg
   xmlns:dc="http://purl.org/dc/elements/1.1/"
   xmlns:cc="http://creativecommons.org/ns#"
   xmlns:rdf="http://www.w3.org/1999/02/22-rdf-syntax-ns#"
   xmlns:svg="http://www.w3.org/2000/svg"
   xmlns="http://www.w3.org/2000/svg"
   xmlns:sodipodi="http://sodipodi.sourceforge.net/DTD/sodipodi-0.dtd"
   xmlns:inkscape="http://www.inkscape.org/namespaces/inkscape"
   width="64"
   height="64"
   id="svg4263"
   version="1.1"
   inkscape:version="0.91 r13725"
   viewBox="0 0 64 64"
   inkscape:export-filename="C:\Users\emile\Desktop\SÉMINAIRE TAL\graphismes\allergenes\lactose_sq.png"
   inkscape:export-xdpi="105.46875"
   inkscape:export-ydpi="105.46875"
   sodipodi:docname="ombelliferes.svg">
  <defs
     id="defs4265" />
  <sodipodi:namedview
     id="base"
     pagecolor="#ffffff"
     bordercolor="#666666"
     borderopacity="1.0"
     inkscape:pageopacity="0.0"
     inkscape:pageshadow="2"
     inkscape:zoom="5.5"
     inkscape:cx="29.122225"
     inkscape:cy="36.518693"
     inkscape:current-layer="layer1"
     showgrid="true"
     inkscape:document-units="px"
     inkscape:grid-bbox="true"
     inkscape:snap-page="true"
     inkscape:snap-bbox="true"
     inkscape:bbox-nodes="true"
     inkscape:snap-nodes="true"
     inkscape:snap-others="false"
     inkscape:object-nodes="true"
     inkscape:window-width="1474"
     inkscape:window-height="841"
     inkscape:window-x="-8"
     inkscape:window-y="-8"
     inkscape:window-maximized="1"
     showguides="false" />
  <metadata
     id="metadata4268">
    <rdf:RDF>
      <cc:Work
         rdf:about="">
        <dc:format>image/svg+xml</dc:format>
        <dc:type
           rdf:resource="http://purl.org/dc/dcmitype/StillImage" />
        <dc:title></dc:title>
      </cc:Work>
    </rdf:RDF>
  </metadata>
  <g
     id="layer1"
     inkscape:label="Layer 1"
     inkscape:groupmode="layer">
    <path
       style="opacity:0.33200001;fill:#000000;fill-opacity:1;stroke:none;stroke-width:3;stroke-linecap:round;stroke-linejoin:round;stroke-miterlimit:4;stroke-dasharray:none;stroke-dashoffset:0;stroke-opacity:1"
       d="M 25.888672 14.6875 C 24.600929 14.688565 23.564453 15.725668 23.564453 17.013672 C 23.564453 17.115819 23.574248 17.215857 23.585938 17.314453 C 23.39996 17.266863 23.205118 17.238281 23.003906 17.238281 L 17.158203 17.238281 C 15.86954 17.238281 14.832031 18.275786 14.832031 19.564453 C 14.832031 20.165343 15.060151 20.711133 15.431641 21.123047 L 15.423828 21.128906 L 17.751953 23.457031 C 18.289948 26.020213 19.605162 28.427397 21.431641 30.335938 C 21.446991 30.363388 21.459249 30.390399 21.474609 30.417969 L 26.542969 35.484375 L 23.541016 35.484375 L 21.886719 33.832031 L 21.865234 33.853516 C 21.575166 33.618668 21.204741 33.478516 20.800781 33.478516 L 17.210938 33.478516 C 16.863467 33.260803 16.453696 33.132813 16.011719 33.132812 L 10.333984 33.132812 C 9.0870521 33.132812 8.0832063 34.133664 8.0761719 35.378906 L 5.53125 35.378906 C 4.5955562 35.378906 3.8417969 36.132751 3.8417969 37.068359 C 3.8417969 37.461684 3.9753795 37.820968 4.1992188 38.107422 L 4.1972656 38.109375 L 4.2109375 38.125 C 4.2883035 38.2216 4.3780084 38.309306 4.4746094 38.386719 L 5.9570312 39.871094 C 6.3836179 41.926344 7.5012587 43.843824 9.0449219 45.291016 C 9.0683699 45.321696 9.0876421 45.350099 9.1113281 45.380859 L 20.880859 57.150391 L 23.263672 62.779297 L 24.484375 64 L 64 64 L 64 33.705078 L 63.824219 33.529297 L 58.169922 27.873047 L 49.949219 19.654297 L 49.935547 19.658203 C 49.517435 19.254169 48.9483 19.005859 48.318359 19.005859 L 47.027344 19.005859 L 45.011719 16.990234 C 44.444182 16.247701 43.551958 15.767578 42.541016 15.767578 L 34.720703 15.767578 C 34.394455 15.767578 34.08022 15.817852 33.785156 15.910156 C 33.39317 15.181794 32.624626 14.6875 31.736328 14.6875 L 25.890625 14.6875 L 25.888672 14.6875 z "
       id="rect5921" />
    <path
       inkscape:connector-curvature="0"
       style="opacity:1;fill:#ffffff;fill-opacity:1;stroke:none;stroke-width:3.88100004;stroke-linecap:round;stroke-linejoin:round;stroke-miterlimit:4;stroke-dasharray:7.762, 7.762;stroke-dashoffset:0;stroke-opacity:1"
       d="m 25.890339,14.687874 c -1.288663,0 -2.326016,1.037739 -2.326016,2.326405 0,0.102147 0.0095,0.20189 0.02119,0.300486 -0.185977,-0.04759 -0.380119,-0.07552 -0.581331,-0.07552 l -5.846488,0 c -1.288663,0 -2.326397,1.037345 -2.326397,2.326012 0,1.288666 1.037734,2.326013 2.326397,2.326013 l 0.362634,0 c 0.381917,4.696223 3.460054,9.115104 7.662779,11.254849 1.766276,0.954144 3.7592,1.534884 5.77925,1.697903 l -0.313072,1.81904 C 30.43398,35.97828 29.795969,35.484323 29.038301,35.484323 l -6.578827,0 c 0.01928,-0.102672 0.03071,-0.20814 0.03071,-0.31661 0,-0.935608 -0.753252,-1.688856 -1.68885,-1.688856 l -3.589709,0 c -0.34747,-0.217713 -0.757608,-0.345324 -1.199584,-0.345324 l -5.677376,0 c -1.2469451,0 -2.2509475,1.000538 -2.25797,2.245778 l -2.5458563,0 c -0.935658,0 -1.688874,0.75325 -1.688874,1.688858 0,0.935605 0.7532517,1.688856 1.688874,1.688856 l 0.2634982,0 c 0.2773647,3.409502 2.512077,6.617852 5.5633271,8.171326 1.772393,0.957465 3.859002,1.3989 5.877564,1.233809 L 17.102277,48.21842 23.717965,64 26.400217,64 19.467614,47.71105 c 0.939943,-0.312417 1.829074,-0.778344 2.621009,-1.411574 2.430473,-1.811326 4.197273,-4.494758 4.915936,-7.437417 l 2.033786,0 c 0.552825,0 1.040531,-0.264345 1.348247,-0.672553 L 28.496744,49.170216 30.814161,64 34.516532,64 30.82157,48.937414 32.515943,34.88537 c 2.680034,-0.07283 5.31779,-0.90261 7.447652,-2.605654 2.895267,-2.157696 5.106865,-5.213617 6.2925,-8.622056 l 2.06328,0 c 1.288663,0 2.326421,-1.037348 2.326421,-2.326014 0,-1.288668 -1.037758,-2.326406 -2.326421,-2.326406 l -1.564183,0 c -0.01643,-0.0012 -0.03309,-0.0018 -0.04868,0 l -1.060754,0 c 0.0024,-0.04234 0.006,-0.08388 0.006,-0.126645 0,-1.72354 -1.387502,-3.111052 -3.111048,-3.111052 l -7.819713,0 c -0.326237,0 -0.640214,0.04968 -0.935289,0.141984 -0.39201,-0.728362 -1.160438,-1.221608 -2.048735,-1.221608 l -5.846869,0 z m -0.581319,4.576903 c 0.186024,0.04762 0.380048,0.07552 0.581319,0.07552 l 0.449547,0 c -0.05713,1.680155 -0.01916,3.380706 0.164791,5.06185 l -1.419044,0 c -0.08653,-0.664451 -0.142283,-1.329022 -0.174622,-1.981082 -0.102957,-0.351227 0,-0.992615 0.01071,-1.536648 0.257595,-0.374507 0.409043,-0.828298 0.409043,-1.319149 0,-0.102148 -0.0095,-0.201884 -0.02166,-0.300487 z m 1.893764,0.07552 1.576395,0 c -0.07237,0.22541 -0.112479,0.465741 -0.112479,0.715817 0,0.947055 0.561312,1.756299 1.369874,2.119921 0.0024,0.72575 0.0048,1.451697 -0.0083,2.179309 5.9e-5,0.01559 0,0.0312 0,0.0468 l -2.538382,0 c -0.200343,-1.438438 -0.290945,-2.89584 -0.341007,-4.318109 0.09593,-0.187912 0.101647,-0.470972 0.05344,-0.743742 z m -3.197948,2.324047 c -0.02321,0.919361 0.02916,1.844537 0.103433,2.760614 -0.748479,0.09924 -1.382848,0.549307 -1.730152,1.183066 -0.483136,-1.187455 -0.815978,-2.442668 -1.010406,-3.716743 l 1.636538,0 c 0.3591,0 0.697489,-0.08283 1.000587,-0.226937 z m -5.443373,0.226937 1.804507,0 c 0.213912,2.76021 1.112958,5.478847 2.670535,7.772122 -2.326838,-1.964246 -3.952009,-4.77262 -4.475042,-7.772122 z m 19.712116,0.09833 1.9685,0 c 0.136248,0.465378 0.413077,0.868875 0.782294,1.162613 -0.0269,0.272036 -0.06903,0.515621 -0.158506,0.676485 -0.699095,3.292354 -2.328266,6.624851 -5.29352,8.422654 1.625981,-3.186882 2.375412,-6.714014 2.701232,-10.261752 z m -0.934111,0.337455 c -0.42135,3.0827 -1.132133,6.166197 -2.661882,8.897767 0.735529,-2.895085 1.110351,-5.863748 1.290437,-8.842703 l 0.871563,0 c 0.172015,0 0.33871,-0.01996 0.499882,-0.05506 z m -6.498604,0.04719 c 0.05059,0.0033 0.100577,0.0079 0.151841,0.0079 l 4.098637,0 c -0.288125,3.508583 -0.686598,7.068163 -2.172629,10.294393 -1.161151,1.214241 -1.580537,-0.927085 -1.70105,-1.786002 -0.120347,-0.64573 -0.195154,-1.294889 -0.243847,-1.946078 0.939919,-0.298445 1.617673,-1.175005 1.617673,-2.216281 0,-1.071291 -0.717985,-1.966729 -1.700277,-2.239093 -0.0024,-0.70638 -0.01214,-1.411815 -0.05035,-2.114806 z m 11.006295,1.196436 c 0.199201,0.05519 0.408531,0.08693 0.62574,0.08693 l 0.808634,0 c -0.04987,0.353944 -0.140795,0.681804 -0.341388,0.928202 -0.659853,1.981902 -1.722535,3.849908 -3.206209,5.331265 1.084225,-1.957454 1.840988,-4.121821 2.113223,-6.346397 z m 2.343716,0.08693 0.864481,0 c -0.493348,1.093401 -1.092415,2.139554 -1.784821,3.118524 0.361337,-1.011929 0.718616,-2.054837 0.92034,-3.118524 z m -19.786448,5.395767 c 0.0048,2.9e-5 0.0095,8.06e-4 0.01416,8.06e-4 l 0.65483,0 c 0.150841,0.420443 0.318821,0.834856 0.507774,1.240489 -0.425646,-0.38723 -0.816859,-0.802839 -1.176768,-1.241275 z m 2.016087,8.06e-4 1.036758,0 c 0.298623,0.946573 0.662007,1.873486 1.107947,2.770451 -0.924005,-0.780268 -1.618209,-1.728637 -2.144705,-2.770451 z m 2.257184,0 1.445801,0 c 0.04452,0.974795 0.109622,1.948447 0.206461,2.919905 -0.692394,-0.907312 -1.230615,-1.889617 -1.652262,-2.919905 z m -10.944925,7.80241 0.790542,0 c -0.01928,0.102552 -0.03035,0.208275 -0.03035,0.316609 0,0.236538 0.0482,0.461084 0.135296,0.665083 -0.0048,0.22076 -0.0048,0.420487 -0.01726,0.536468 -0.06796,0.862321 -0.141224,1.731534 -0.239919,2.597787 l -1.21019,0 c 0.335127,-0.308226 0.545909,-0.749527 0.545909,-1.242845 0,-0.935608 -0.753251,-1.688858 -1.688862,-1.688858 l -0.525056,0 c -0.04106,-0.162525 -0.104385,-0.302814 -0.177384,-0.389767 l 0.696537,0 c 0.691191,0 1.30704,-0.308419 1.720713,-0.794477 z m -6.373127,0.794477 0.821226,0 c -0.0024,0.129832 -0.0024,0.259763 -0.0024,0.389767 l -0.406673,0 c -0.215555,0 -0.420802,0.04148 -0.610017,0.114455 0.0024,-0.04377 0.0036,-0.08697 0.0048,-0.129398 0.07927,-0.115193 0.143033,-0.241206 0.191941,-0.374822 z m 1.435171,0 2.235926,0 c -0.05427,0.07188 -0.106289,0.186357 -0.151019,0.368133 -1.2e-5,0.0071 2.4e-5,0.01443 0,0.02164 l -2.066815,0 c -0.006,-0.130021 -0.01309,-0.260393 -0.01809,-0.389773 z m 29.096001,0.290261 c -1.59119,0 -2.872319,1.281114 -2.872319,2.872314 0,1.412849 1.010917,2.578608 2.35119,2.822756 -0.01393,2.165799 0.173539,4.43555 0.931754,6.429775 -1.918057,-1.444397 -2.431782,-4.017214 -2.544714,-6.271668 -0.0024,-0.0045 6e-5,-0.01202 -0.0024,-0.01694 0.02107,-0.08914 0.03345,-0.181561 0.03345,-0.277282 0,-0.115526 -0.01726,-0.226849 -0.04761,-0.332348 -0.006,-0.219329 -0.04166,-0.403413 -0.204926,-0.401956 -0.218102,-0.279666 -0.557455,-0.45938 -0.941169,-0.45938 l -3.000533,0 c -0.661352,0 -1.194086,0.53233 -1.194086,1.193684 0,0.661346 0.532734,1.193684 1.194086,1.193684 l 1.237721,0 c 0.201188,2.825205 1.885301,5.631245 4.622145,6.614222 0.09308,0.03578 0.18693,0.06611 0.280805,0.09715 L 36.107315,64 l 2.642612,0 5.261958,-12.24539 c 1.392393,0 2.801129,-0.331328 4.112384,-0.75082 2.499162,-0.829349 4.708534,-2.652785 5.75604,-5.088199 l 0.98603,0 c 1.06905,0 1.929555,-0.860908 1.929555,-1.929955 0,-1.069046 -0.860505,-1.929561 -1.929555,-1.929561 l -2.645778,0 c 0.180168,-0.376114 0.283982,-0.796092 0.283982,-1.242454 0,-1.591201 -1.281141,-2.872316 -2.872331,-2.872316 l -7.741835,0 z M 19.215542,38.55883 c 0.273544,0.190691 0.606161,0.30324 0.966343,0.30324 l 0.02916,0 c -0.09236,0.705532 -0.204378,1.411241 -0.348446,2.11048 l -0.82794,0 c 0.08272,-0.802528 0.140902,-1.607804 0.180942,-2.41372 z m -8.713318,0.03343 c -1.91e-4,0.0088 0,0.01757 -0.0024,0.02635 -0.259213,0.296682 -0.41691,0.684376 -0.41691,1.111091 0,0.480886 0.199891,0.912631 0.520355,1.219642 0.146532,1.344943 0.469174,2.679262 1.041864,3.908673 C 9.9071685,43.276878 8.9372193,41.058793 8.5860113,38.75706 l 1.188563,0 c 0.2607967,0 0.5063577,-0.06012 0.7264357,-0.164796 z m -3.9515338,0.164797 1.3093261,0 c 0.1552686,2.004049 0.8081224,3.977728 1.9389939,5.642765 -1.6893264,-1.42606 -2.8685697,-3.465108 -3.24832,-5.642765 z m 14.3076878,0.105016 2.071921,0 c -0.06737,0.441125 -0.03535,1.030259 -0.186406,1.301843 -0.09665,0.454847 -0.217864,0.91059 -0.365396,1.35966 -0.308418,-0.338189 -0.75168,-0.551022 -1.247563,-0.551022 l -0.546303,0 c 0.118906,-0.699086 0.20814,-1.404215 0.273747,-2.110481 z m 2.67526,0 1.098128,0 c -0.151377,0.566252 -0.01226,1.397224 -0.381917,1.851293 -0.479065,1.438915 -1.250789,2.795015 -2.32798,3.870526 0.123465,-0.222897 0.2403,-0.449756 0.351612,-0.679638 0.33533,-0.308237 0.546303,-0.749371 0.546303,-1.242841 0,-0.01602 -0.0024,-0.03168 -0.0024,-0.04762 0.435121,-1.204385 0.692133,-2.471918 0.716199,-3.751749 z m 1.743923,0 0.973044,0 c -0.413184,1.225404 -1.014762,2.386052 -1.761241,3.441425 0.394462,-1.104652 0.782615,-2.259793 0.788197,-3.441425 z M 11.414696,41.38002 c 0.115454,0.02476 0.235241,0.03854 0.358313,0.03854 l 0.651699,0 c 0.239883,1.575218 0.674373,3.114006 1.388382,4.550163 -1.381681,-1.166742 -2.068302,-2.84367 -2.398394,-4.588703 z m 1.752194,0.03854 1.715595,0 c 0.01428,1.555096 0.05773,3.110701 0.211984,4.658712 -1.048958,-1.374508 -1.614495,-2.983931 -1.927579,-4.658712 z m 2.334658,0 0.241478,0 c -0.08998,0.08276 -0.171646,0.174418 -0.241859,0.274924 9.5e-5,-0.09166 1.31e-4,-0.183256 0,-0.274924 z m 26.290943,2.262303 c 0.03285,9.1e-4 0.06511,0.0045 0.09831,0.0045 l 5.675413,0 c -0.146616,1.928042 -0.485731,3.906499 -1.515419,5.56528 -0.549468,0.753105 -1.454751,1.687472 -2.482154,1.282184 -1.008263,-0.854353 -1.242124,-2.269996 -1.492196,-3.49532 -0.200772,-1.107177 -0.229374,-2.23709 -0.283971,-3.35686 z m 6.163893,0.0045 0.217102,0 c -0.01535,0.09801 -0.02511,0.197686 -0.02511,0.30009 0,1.069046 0.860506,1.929954 1.929555,1.929954 l 0.441311,0 c -0.518725,1.372987 -1.345653,2.61866 -2.5679,3.465027 -0.515344,0.328633 -1.213713,0.745503 -1.701848,0.857803 1.222819,-1.951388 1.56623,-4.281239 1.706954,-6.552874 z m -32.408833,0.0055 c 0.308264,0.400653 0.79159,0.658787 1.338428,0.658787 l 0.881799,0 c -0.203843,0.763385 -0.460045,1.512311 -0.794077,2.237519 -0.843033,0.881567 -1.147488,-0.673137 -1.234983,-1.296733 -0.09891,-0.530582 -0.157018,-1.064066 -0.191167,-1.599573 z m 2.9738,0.658787 0.311097,0 c -0.173825,0.40272 -0.36592,0.798147 -0.581689,1.183459 0.09974,-0.392587 0.188334,-0.787449 0.270592,-1.183459 z m 1.201953,0 1.240875,0 c -0.556812,0.763439 -1.238363,1.428391 -2.063685,1.928771 0.319464,-0.626128 0.589937,-1.271049 0.82281,-1.928771 z m 19.569727,0.11799 0,0 c 0.0048,0.11793 0.0071,0.235244 0.0048,0.351222 0.116525,1.826914 0.621847,3.73182 1.699491,5.193216 -2.035309,-0.994458 -3.282623,-3.128481 -3.555513,-5.31829 l 1.151999,0 c 0.261784,0 0.502548,-0.08432 0.698905,-0.226148 z m 11.750417,1.447757 2.219429,0 c -0.457009,0.816366 -1.04866,1.556097 -1.760432,2.169477 -0.730684,0.65265 -1.621363,1.15762 -2.514814,1.498891 0.987315,-1.036497 1.646453,-2.309321 2.055817,-3.668368 z"
       id="path5697"
       sodipodi:nodetypes="cscssssccccscsscsscssscccccccccsccccccccssscccssscscccscccccsccccscccccccccccsccccccccccccccsccsccccsccccscccccccccsccccccccccccccsccccssccscccccscccccccccccsccccsccssssccccccccssscsscccscccccccscccsccccccccccscccccccsccccccccscccccccccccccsccccccccssccccccsccccccccccccccccasccccccc" />
  </g>
</svg>
