<?xml version="1.0" encoding="UTF-8" standalone="no"?>
<!-- Created with Inkscape (http://www.inkscape.org/) -->

<svg
   xmlns:dc="http://purl.org/dc/elements/1.1/"
   xmlns:cc="http://creativecommons.org/ns#"
   xmlns:rdf="http://www.w3.org/1999/02/22-rdf-syntax-ns#"
   xmlns:svg="http://www.w3.org/2000/svg"
   xmlns="http://www.w3.org/2000/svg"
   xmlns:sodipodi="http://sodipodi.sourceforge.net/DTD/sodipodi-0.dtd"
   xmlns:inkscape="http://www.inkscape.org/namespaces/inkscape"
   width="64"
   height="64"
   id="svg4263"
   version="1.1"
   inkscape:version="0.91 r13725"
   viewBox="0 0 64 64"
   inkscape:export-filename="C:\Users\emile\Desktop\SÉMINAIRE TAL\graphismes\allergenes\lactose_sq.png"
   inkscape:export-xdpi="105.46875"
   inkscape:export-ydpi="105.46875"
   sodipodi:docname="sesame.svg">
  <defs
     id="defs4265" />
  <sodipodi:namedview
     id="base"
     pagecolor="#ffffff"
     bordercolor="#666666"
     borderopacity="1.0"
     inkscape:pageopacity="0.0"
     inkscape:pageshadow="2"
     inkscape:zoom="7.7781746"
     inkscape:cx="29.122225"
     inkscape:cy="29.869868"
     inkscape:current-layer="layer1"
     showgrid="true"
     inkscape:document-units="px"
     inkscape:grid-bbox="true"
     inkscape:snap-page="true"
     inkscape:snap-bbox="true"
     inkscape:bbox-nodes="true"
     inkscape:snap-nodes="true"
     inkscape:snap-others="false"
     inkscape:object-nodes="true"
     inkscape:window-width="1474"
     inkscape:window-height="841"
     inkscape:window-x="-8"
     inkscape:window-y="-8"
     inkscape:window-maximized="1" />
  <metadata
     id="metadata4268">
    <rdf:RDF>
      <cc:Work
         rdf:about="">
        <dc:format>image/svg+xml</dc:format>
        <dc:type
           rdf:resource="http://purl.org/dc/dcmitype/StillImage" />
        <dc:title></dc:title>
      </cc:Work>
    </rdf:RDF>
  </metadata>
  <g
     id="layer1"
     inkscape:label="Layer 1"
     inkscape:groupmode="layer">
    <path
       style="opacity:0.33200001;fill:#000000;fill-opacity:1;stroke:none;stroke-width:3.88100004;stroke-linecap:round;stroke-linejoin:round;stroke-miterlimit:4;stroke-dasharray:7.762, 7.762;stroke-dashoffset:0;stroke-opacity:1"
       d="M 37.6875 7.1386719 L 35.658203 12.414062 L 38.537109 15.351562 L 34.904297 18.986328 L 47.84375 31.925781 L 54.035156 38.117188 L 52.998047 39.15625 L 49.152344 35.310547 L 47.197266 37.267578 L 39.375 29.445312 L 26.433594 16.503906 L 22.667969 20.269531 L 26.029297 23.630859 L 23.574219 26.085938 L 35.167969 37.679688 L 33.091797 39.755859 L 42.632812 49.298828 L 40.84375 51.087891 L 37.320312 47.5625 L 36.71875 48.164062 L 30.462891 41.90625 L 17.521484 28.966797 L 14.916016 31.572266 L 13.744141 30.400391 L 11.78125 32.365234 L 9.0625 29.646484 L 5.296875 33.412109 L 15.044922 43.162109 L 12.160156 46.044922 L 25.101562 58.986328 L 30.015625 63.900391 L 30.115234 64 L 64 64 L 64 31.033203 L 63.964844 30.998047 L 53.246094 20.28125 L 51.962891 21.564453 L 50.552734 20.154297 L 50.628906 20.078125 L 37.6875 7.1386719 z "
       id="rect5574" />
    <g
       id="g6108"
       transform="matrix(0.20137253,0,0,0.20137253,-169.20395,-144.83999)">
      <path
         sodipodi:nodetypes="cscscc"
         inkscape:connector-curvature="0"
         id="path5559"
         d="m 935.68742,892.39368 c -15.38141,3.27983 -27.67284,11.1227 -34.8906,21.34962 -8.21504,11.63997 -4.85879,23.79317 -0.15439,34.1815 11.8238,2.96595 23.85807,-1.16335 30.03448,-9.98978 7.41702,-10.59928 9.4448,-25.78768 6.76039,-45.45391 -0.58262,-0.0414 -1.16604,-0.0704 -1.74988,-0.0874 z"
         style="opacity:1;fill:#ffffff;fill-opacity:1;stroke:none;stroke-width:3.88100004;stroke-linecap:round;stroke-linejoin:round;stroke-miterlimit:4;stroke-dasharray:7.762, 7.762;stroke-dashoffset:0;stroke-opacity:1" />
      <path
         style="opacity:1;fill:#ffffff;fill-opacity:1;stroke:none;stroke-width:3.88100004;stroke-linecap:round;stroke-linejoin:round;stroke-miterlimit:4;stroke-dasharray:7.762, 7.762;stroke-dashoffset:0;stroke-opacity:1"
         d="m 1008.7343,862.02032 c -9.15327,12.78906 -12.94861,26.86694 -11.38873,39.28679 1.77527,14.13593 12.44533,20.85275 22.92183,25.35715 10.7342,-5.77717 16.8421,-16.93812 15.4569,-27.6215 -1.6635,-12.82928 -10.4013,-25.41695 -25.6382,-38.13719 -0.4583,0.36214 -0.9089,0.73385 -1.3518,1.11475 z"
         id="path5564"
         inkscape:connector-curvature="0"
         sodipodi:nodetypes="cscscc" />
      <path
         sodipodi:nodetypes="cscscc"
         inkscape:connector-curvature="0"
         id="path5566"
         d="m 961.78279,794.60269 c -9.15332,12.78907 -12.94864,26.86696 -11.38878,39.28679 1.77529,14.13593 12.44531,20.85277 22.92185,25.35716 10.73428,-5.77717 16.84218,-16.93811 15.45694,-27.62149 -1.66347,-12.82929 -10.40137,-25.41695 -25.63823,-38.13719 -0.45834,0.36213 -0.9089,0.73383 -1.35178,1.11473 z"
         style="opacity:1;fill:#ffffff;fill-opacity:1;stroke:none;stroke-width:3.88100004;stroke-linecap:round;stroke-linejoin:round;stroke-miterlimit:4;stroke-dasharray:7.762, 7.762;stroke-dashoffset:0;stroke-opacity:1" />
      <path
         style="opacity:1;fill:#ffffff;fill-opacity:1;stroke:none;stroke-width:3.88100004;stroke-linecap:round;stroke-linejoin:round;stroke-miterlimit:4;stroke-dasharray:7.762, 7.762;stroke-dashoffset:0;stroke-opacity:1"
         d="m 926.62198,862.28149 c -13.83338,-7.48203 -28.27539,-9.48694 -40.40265,-6.38608 -13.80292,3.52921 -19.1326,14.9555 -22.29142,25.91312 7.07427,9.92748 18.91146,14.59163 29.33772,11.88117 12.52053,-3.25487 23.91658,-13.4984 34.63139,-30.20645 -0.41661,-0.40945 -0.84174,-0.81 -1.27504,-1.20176 z"
         id="path5568"
         inkscape:connector-curvature="0"
         sodipodi:nodetypes="cscscc" />
      <path
         sodipodi:nodetypes="cscscc"
         inkscape:connector-curvature="0"
         id="path5570"
         d="m 1053.0976,818.53434 c 5.779,14.62685 15.5471,25.45165 26.8272,30.87804 12.8386,6.17636 24.2691,0.85591 33.7359,-5.50202 0.9693,-12.15155 -5.0939,-23.33685 -14.8205,-27.96812 -11.6801,-5.56151 -26.9947,-5.04879 -45.9459,0.85177 0.056,0.58144 0.1235,1.1616 0.2033,1.74033 z"
         style="opacity:1;fill:#ffffff;fill-opacity:1;stroke:none;stroke-width:3.88100004;stroke-linecap:round;stroke-linejoin:round;stroke-miterlimit:4;stroke-dasharray:7.762, 7.762;stroke-dashoffset:0;stroke-opacity:1" />
      <path
         style="opacity:1;fill:#ffffff;fill-opacity:1;stroke:none;stroke-width:3.88100004;stroke-linecap:round;stroke-linejoin:round;stroke-miterlimit:4;stroke-dasharray:7.762, 7.762;stroke-dashoffset:0;stroke-opacity:1"
         d="m 1026.0412,755.57154 c -11.8664,10.32146 -18.8189,23.1376 -20.1778,35.58102 -1.5468,14.16278 7.2775,23.16809 16.4258,29.97631 11.7805,-3.13399 20.3072,-12.57699 21.4338,-23.29073 1.353,-12.86565 -4.232,-27.13478 -16.1085,-43.03797 -0.5298,0.24603 -1.0542,0.50335 -1.5733,0.77137 z"
         id="path5572"
         inkscape:connector-curvature="0"
         sodipodi:nodetypes="cscscc" />
      <path
         sodipodi:nodetypes="cscscc"
         inkscape:connector-curvature="0"
         id="path5603"
         d="m 1063.8729,962.11985 c -10.7537,-11.47602 -23.8185,-17.94923 -36.3037,-18.84646 -14.2104,-1.02134 -22.8828,8.1304 -29.34766,17.52468 3.56816,11.65624 13.32036,19.82741 24.06846,20.55657 12.9071,0.87564 26.9596,-5.23393 42.4121,-17.69122 -0.2656,-0.52028 -0.5421,-1.0348 -0.8292,-1.54357 z"
         style="opacity:1;fill:#ffffff;fill-opacity:1;stroke:none;stroke-width:3.88100004;stroke-linecap:round;stroke-linejoin:round;stroke-miterlimit:4;stroke-dasharray:7.762, 7.762;stroke-dashoffset:0;stroke-opacity:1" />
      <path
         style="opacity:1;fill:#ffffff;fill-opacity:1;stroke:none;stroke-width:3.88100004;stroke-linecap:round;stroke-linejoin:round;stroke-miterlimit:4;stroke-dasharray:7.762, 7.762;stroke-dashoffset:0;stroke-opacity:1"
         d="m 1124.5132,902.91583 c -10.7537,-11.47602 -23.8185,-17.94923 -36.3038,-18.84647 -14.2103,-1.02133 -22.8827,8.13041 -29.3475,17.52469 3.5681,11.65623 13.3203,19.8274 24.0685,20.55657 12.9069,0.87563 26.9594,-5.23393 42.412,-17.69122 -0.2656,-0.52028 -0.5421,-1.0348 -0.8292,-1.54357 z"
         id="path5605"
         inkscape:connector-curvature="0"
         sodipodi:nodetypes="cscscc" />
    </g>
  </g>
</svg>
