<?xml version="1.0" encoding="UTF-8" standalone="no"?>
<!-- Created with Inkscape (http://www.inkscape.org/) -->

<svg
   xmlns:dc="http://purl.org/dc/elements/1.1/"
   xmlns:cc="http://creativecommons.org/ns#"
   xmlns:rdf="http://www.w3.org/1999/02/22-rdf-syntax-ns#"
   xmlns:svg="http://www.w3.org/2000/svg"
   xmlns="http://www.w3.org/2000/svg"
   xmlns:sodipodi="http://sodipodi.sourceforge.net/DTD/sodipodi-0.dtd"
   xmlns:inkscape="http://www.inkscape.org/namespaces/inkscape"
   width="64"
   height="64"
   id="svg4263"
   version="1.1"
   inkscape:version="0.91 r13725"
   viewBox="0 0 64 64"
   inkscape:export-filename="C:\Users\emile\Desktop\SÉMINAIRE TAL\graphismes\allergenes\lactose_sq.png"
   inkscape:export-xdpi="105.46875"
   inkscape:export-ydpi="105.46875"
   sodipodi:docname="soja.svg">
  <defs
     id="defs4265" />
  <sodipodi:namedview
     id="base"
     pagecolor="#ffffff"
     bordercolor="#666666"
     borderopacity="1.0"
     inkscape:pageopacity="0.0"
     inkscape:pageshadow="2"
     inkscape:zoom="5.5"
     inkscape:cx="29.122225"
     inkscape:cy="14.700512"
     inkscape:current-layer="layer1"
     showgrid="true"
     inkscape:document-units="px"
     inkscape:grid-bbox="true"
     inkscape:snap-page="true"
     inkscape:snap-bbox="true"
     inkscape:bbox-nodes="true"
     inkscape:snap-nodes="true"
     inkscape:snap-others="false"
     inkscape:object-nodes="true"
     inkscape:window-width="1474"
     inkscape:window-height="841"
     inkscape:window-x="-8"
     inkscape:window-y="-8"
     inkscape:window-maximized="1"
     showguides="false"
     inkscape:snap-global="true" />
  <metadata
     id="metadata4268">
    <rdf:RDF>
      <cc:Work
         rdf:about="">
        <dc:format>image/svg+xml</dc:format>
        <dc:type
           rdf:resource="http://purl.org/dc/dcmitype/StillImage" />
        <dc:title></dc:title>
      </cc:Work>
    </rdf:RDF>
  </metadata>
  <g
     id="layer1"
     inkscape:label="Layer 1"
     inkscape:groupmode="layer">
    <path
       style="opacity:0.33200001;fill:#000000;fill-opacity:1;stroke:none;stroke-width:3.5;stroke-linecap:round;stroke-linejoin:miter;stroke-miterlimit:4;stroke-dasharray:none;stroke-dashoffset:0;stroke-opacity:1"
       d="M 28.097656 9.96875 L 28.091797 9.9824219 C 28.455241 10.286617 28.733381 10.698051 28.869141 11.189453 C 29.224741 12.476743 28.248047 14.068359 28.248047 14.068359 L 26.994141 14.074219 C 26.994141 14.074219 25.936452 15.759612 26.041016 16.677734 C 26.156947 17.696099 26.372791 18.338711 26.654297 19.349609 C 27.404014 22.063858 25.812373 24.87313 23.097656 25.621094 C 22.686495 25.734382 22.108707 25.470972 21.835938 25.798828 C 21.242549 26.511993 20.791282 27.50349 20.904297 28.421875 C 20.995827 29.166211 21.753473 29.658523 21.955078 30.380859 C 22.704795 33.095105 21.962664 36.464929 19.248047 37.212891 C 19.003653 37.280211 18.682038 37.175102 18.501953 37.353516 C 18.197474 37.655156 17.714107 38.196636 17.990234 38.480469 C 18.927463 39.443868 19.163646 39.688814 19.521484 40.984375 C 20.271189 43.698615 18.677109 46.506151 15.962891 47.255859 C 14.478384 47.6659 12.967813 47.375545 11.779297 46.583984 L 29.048828 63.851562 L 29.197266 64 L 64 64 L 64 33.306641 L 63.9375 33.244141 L 50.230469 19.537109 C 50.384928 19.710195 50.523503 19.902518 50.638672 20.113281 C 51.282242 21.29474 50.827863 22.560827 50.15625 23.726562 C 49.698324 24.521497 49.79919 24.690804 50.058594 25.902344 C 50.181785 26.477561 50.604522 27.796335 50.886719 28.3125 C 52.052822 30.445448 50.769959 32.486407 49.154297 34.302734 C 48.267416 35.299803 48.479747 36.968455 48.78125 38.158203 C 48.941017 38.788703 49.768101 39.005437 50.080078 39.576172 C 51.151663 41.536759 50.429537 43.995156 48.46875 45.066406 C 46.507903 46.137683 44.049673 45.417915 42.978516 43.457031 C 42.001568 41.663325 43.062406 39.944749 44.175781 38.232422 C 44.934329 37.065868 44.876106 35.472273 44.580078 34.140625 C 44.421679 33.428173 43.463465 33.200894 43.113281 32.560547 C 41.939715 30.414641 42.729868 27.722187 44.876953 26.550781 C 45.227542 26.359516 45.27801 26.052875 45.613281 25.835938 C 45.76061 25.740617 45.650536 25.486403 45.666016 25.310547 C 45.711956 24.788834 46.0178 24.263962 45.820312 23.857422 C 45.605114 23.4144 45.45492 23.506423 45.21875 23.074219 C 44.545019 21.841366 44.800713 20.352383 45.748047 19.408203 L 39.177734 12.837891 L 39.164062 12.851562 C 39.30093 12.997764 39.421824 13.161322 39.521484 13.34375 C 40.161852 14.515824 40.990794 16.233333 39.818359 16.873047 C 39.444977 17.076776 38.836422 16.812702 38.599609 17.166016 C 38.145253 17.843816 37.765314 19.02431 38.265625 19.917969 C 38.778243 20.833667 38.723432 20.875029 39.228516 21.794922 C 40.587321 24.47268 38.51136 26.979348 36.666016 29.390625 C 36.282885 30.066288 36.004709 31.046192 36.412109 31.707031 C 36.935559 32.556107 37.337889 32.708798 37.816406 33.583984 C 39.243389 36.193866 38.283148 39.468141 35.671875 40.892578 C 35.253799 41.120638 35.134082 41.070242 34.853516 41.455078 C 34.420121 42.049627 34.252412 42.849072 34.410156 43.451172 C 34.540561 43.949057 34.628141 44.120635 34.875 44.572266 C 35.946525 46.53284 35.224459 48.991351 33.263672 50.0625 C 31.302861 51.133641 28.844594 50.411966 27.773438 48.451172 C 26.702316 46.490426 26.634321 44.050445 28.595703 42.980469 C 28.788822 42.875131 29.166714 42.934432 29.199219 42.716797 C 29.310984 41.968173 29.421041 41.144345 29.085938 40.498047 C 28.728981 39.809626 28.735437 39.428362 28.363281 38.748047 C 26.935667 36.138502 27.056589 32.697654 29.667969 31.273438 C 29.914089 31.139218 30.325508 31.193374 30.435547 30.935547 C 30.801455 30.077961 31.163387 29.042674 30.851562 28.140625 C 30.614679 27.455348 30.627291 27.319689 30.279297 26.683594 C 28.927824 24.213245 29.838891 21.112721 32.310547 19.763672 C 32.732528 19.533354 33.382277 19.660051 33.654297 19.263672 C 34.247639 18.39902 34.626053 17.566778 34.970703 16.841797 L 28.097656 9.96875 z M 31.095703 25.642578 C 31.21693 25.883894 31.36036 26.10839 31.521484 26.316406 C 31.360443 26.108479 31.216894 25.883778 31.095703 25.642578 z M 44.75 31.320312 C 44.633355 31.331022 44.515714 31.33976 44.398438 31.34375 C 44.515557 31.33975 44.633474 31.331053 44.75 31.320312 z M 29.183594 36.748047 C 29.204664 36.864847 29.230769 36.981085 29.261719 37.095703 C 29.230889 36.981082 29.204664 36.864845 29.183594 36.748047 z M 33.853516 45.941406 C 33.872676 45.996396 33.888587 46.053019 33.904297 46.109375 C 33.928817 46.198335 33.949364 46.287944 33.964844 46.376953 C 33.949494 46.287913 33.93089 46.19834 33.90625 46.109375 C 33.89054 46.053015 33.872796 45.99644 33.853516 45.941406 z "
       id="rect6295" />
    <path
       style="opacity:1;fill:#ffffff;fill-opacity:1;stroke:none;stroke-width:3.5;stroke-linecap:round;stroke-linejoin:miter;stroke-miterlimit:4;stroke-dasharray:none;stroke-dashoffset:0;stroke-opacity:1"
       d="M 25.895115,9.5027468 C 24.607773,9.8582802 24.207931,12.47737 24.207931,12.47737 l 0.102005,0.286302 -2.503948,2.848963 -1.91826,0.575515 c 0,0 -3.764306,2.469961 -3.012935,5.18375 0.193035,0.698897 0.510797,0.884093 0.580475,1.605797 0.09379,0.970947 -0.456772,1.951866 -1.067229,2.683128 -0.233921,0.280211 -0.726221,0.07613 -1.07806,0.173183 -2.714456,0.748931 -3.934132,4.547278 -3.184427,7.261524 0.221982,0.796133 0.111408,1.075518 0.333116,1.871728 0.207711,0.744461 0.237467,1.878772 -0.436763,2.317649 -2.2364991,1.455819 -3.0404431,3.84183 -2.3303624,6.414234 0.7497044,2.714244 3.5577984,4.306814 6.2720524,3.557097 2.714229,-0.7497 4.3068,-3.557798 3.557095,-6.272043 -0.35785,-1.29556 -0.593853,-1.541124 -1.531082,-2.504522 -0.276127,-0.283834 0.207152,-0.824851 0.51163,-1.126491 0.180086,-0.17841 0.501847,-0.0735 0.746241,-0.140834 2.71473,-0.747961 3.456948,-4.117516 2.707243,-6.831764 -0.201617,-0.722336 -0.957939,-1.215071 -1.049494,-1.959404 -0.112955,-0.918386 0.336604,-1.909538 0.929993,-2.622704 0.272758,-0.327855 0.850971,-0.06362 1.262132,-0.176913 2.714718,-0.747964 4.306812,-3.557805 3.557096,-6.272054 -0.281507,-1.010897 -0.497883,-1.652928 -0.613838,-2.671292 -0.104623,-0.918123 0.953619,-2.602986 0.953619,-2.602986 l 1.254432,-0.0067 c 0,0 0.976603,-1.59161 0.620991,-2.878899 -0.3556,-1.2872092 -1.687327,-2.0424713 -2.97455,-1.6869891 z m 10.789871,2.6902362 c -0.15415,0.04769 -0.303169,0.110741 -0.44475,0.188139 -1.171947,0.640311 -1.603747,2.109816 -0.962748,3.281371 0.04856,0.08892 0.215555,0.167787 0.164552,0.255386 -0.509178,0.874396 -0.921303,2.084523 -1.786605,3.345491 -0.272009,0.396382 -0.922887,0.270288 -1.344868,0.500607 -2.471655,1.349048 -3.381735,4.448414 -2.030262,6.918763 0.347994,0.636095 0.333997,0.772622 0.570869,1.457898 0.311823,0.90205 -0.04916,1.937793 -0.415101,2.795379 -0.110098,0.257822 -0.522652,0.203538 -0.768772,0.337757 -2.61138,1.424216 -2.731953,4.864327 -1.304351,7.473873 0.372168,0.680315 0.366824,1.062791 0.723781,1.751212 0.335128,0.646297 0.224029,1.469457 0.112241,2.218081 -0.03249,0.217589 -0.410804,0.158161 -0.603923,0.263506 -1.961358,1.069984 -1.892693,3.509641 -0.821572,5.470388 1.071157,1.960793 3.529041,2.681995 5.48984,1.610863 1.960788,-1.07115 2.682415,-3.529254 1.610877,-5.489837 -0.246858,-0.451623 -0.332961,-0.62377 -0.463377,-1.121663 -0.157733,-0.602092 0.0095,-1.401119 0.443274,-1.995668 0.280566,-0.384835 0.399354,-0.334313 0.81743,-0.562373 2.611285,-1.424437 3.571509,-4.69872 2.144515,-7.308601 -0.478518,-0.875187 -0.880323,-1.026938 -1.403773,-1.876015 -0.4074,-0.660839 -0.128892,-1.642198 0.254238,-2.317861 1.845333,-2.411277 3.921599,-4.917867 2.562782,-7.595625 -0.505072,-0.919893 -0.451011,-0.96019 -0.963617,-1.875888 -0.500311,-0.893658 -0.120454,-2.074279 0.333914,-2.752079 0.236812,-0.353321 0.846186,-0.08913 1.219569,-0.292852 1.172435,-0.639716 0.343007,-2.357341 -0.297361,-3.529414 -0.551504,-1.009531 -1.737829,-1.490804 -2.836802,-1.150838 z m -12.181361,6.337742 c 0.426718,0.430179 0.737612,0.966016 0.901593,1.553952 0.512785,1.856404 -0.532197,3.764779 -2.334015,4.262435 -1.801805,0.497714 -3.678156,-0.603756 -4.190893,-2.460174 -0.02654,-0.09824 -0.04868,-0.197575 -0.06677,-0.297688 0.565275,-0.01929 1.125682,-0.103742 1.670651,-0.251736 1.613281,-0.446939 3.027397,-1.434437 4.01939,-2.806779 z m 12.858579,2.426082 c 0.497871,0.501977 0.860589,1.127237 1.051887,1.813277 0.598364,2.16609 -0.620932,4.392848 -2.723347,4.973519 -2.102392,0.580773 -4.291768,-0.704466 -4.890025,-2.870606 -0.03083,-0.114622 -0.05689,-0.230489 -0.07796,-0.347285 0.659579,-0.02253 1.313456,-0.121084 1.949349,-0.293794 1.882492,-0.521479 3.5326,-1.673755 4.690085,-3.275111 z m 9.785191,-2.35196 c -0.04404,0.01155 -0.08808,0.02413 -0.131964,0.03771 -0.196868,0.0609 -0.387153,0.141356 -0.567977,0.240155 -1.496814,0.817744 -2.047473,2.694147 -1.229531,4.190849 0.236158,0.432203 0.386773,0.341364 0.601982,0.784387 0.197487,0.406538 -0.108075,0.931248 -0.154054,1.45296 -0.01547,0.175858 0.09522,0.429839 -0.05213,0.525153 -0.335271,0.216937 -0.386333,0.52264 -0.736922,0.713907 -2.147086,1.171404 -2.936747,3.86371 -1.763181,6.009617 0.350184,0.640347 1.308159,0.868724 1.466558,1.581177 0.296016,1.331648 0.354374,2.925247 -0.404174,4.091801 -1.113434,1.712327 -2.173676,3.430084 -1.19674,5.223786 1.071156,1.960892 3.529172,2.682084 5.490019,1.610808 1.960799,-1.071241 2.682235,-3.529388 1.61065,-5.489973 -0.311977,-0.570737 -1.138298,-0.788737 -1.298078,-1.419238 -0.301491,-1.189747 -0.513558,-2.857065 0.373335,-3.854135 1.615602,-1.816326 2.897326,-3.857713 1.731211,-5.990659 -0.282185,-0.516166 -0.705344,-1.835734 -0.828547,-2.41095 -0.259451,-1.211539 -0.360349,-1.380272 0.0976,-2.175204 0.671624,-1.165738 1.126444,-2.433285 0.48285,-3.614745 -0.682348,-1.248938 -2.125447,-1.864808 -3.490893,-1.507386 z m 2.131493,1.44814 1.79e-4,-4.8e-5 c 0.265688,0.267906 0.459271,0.601603 0.561347,0.967733 0.319285,1.155973 -0.33139,2.344307 -1.453347,2.654237 -1.122028,0.309996 -2.290499,-0.375891 -2.60982,-1.531937 -0.01655,-0.06119 -0.03047,-0.12306 -0.04166,-0.18542 0.351958,-0.01202 0.700892,-0.0646 1.040233,-0.15674 1.00461,-0.278307 1.885207,-0.893232 2.502936,-1.747805 z M 19.638311,30.408394 c 0.426658,0.430221 0.737481,0.966077 0.901391,1.554014 0.512915,1.856453 -0.532067,3.764955 -2.333968,4.262626 -1.801865,0.49771 -3.678251,-0.603864 -4.190905,-2.46037 -0.02654,-0.09826 -0.04868,-0.197575 -0.06677,-0.297689 0.565263,-0.01929 1.125646,-0.103731 1.670627,-0.251733 1.613353,-0.446908 3.027552,-1.434433 4.019592,-2.806836 z m 29.483095,-1.604018 c 0.354148,0.357085 0.612183,0.80187 0.74824,1.289886 0.425706,1.540837 -0.441631,3.124866 -1.937184,3.537918 -1.495541,0.413116 -3.05294,-0.501168 -3.478432,-2.04205 -0.0219,-0.08156 -0.04047,-0.164023 -0.05535,-0.247135 0.469151,-0.01597 0.934278,-0.08602 1.386598,-0.208813 1.339094,-0.370981 2.512874,-1.190689 3.336232,-2.329846 z m -13.298961,4.37565 c 0.497895,0.501974 0.860625,1.127232 1.051934,1.813276 0.59834,2.166024 -0.620872,4.392724 -2.72318,4.973469 -2.102392,0.580763 -4.291756,-0.704474 -4.890013,-2.870603 -0.03083,-0.114621 -0.05689,-0.230491 -0.07796,-0.347287 0.659591,-0.02253 1.313456,-0.121082 1.949337,-0.293789 1.882409,-0.521505 3.532433,-1.67376 4.689883,-3.27506 z m -18.988966,7.4133 c 0.426694,0.43027 0.737529,0.966198 0.901427,1.554205 0.512796,1.8564 -0.532186,3.764776 -2.334015,4.262433 -1.801806,0.497703 -3.678133,-0.603767 -4.19087,-2.46018 -0.02654,-0.0983 -0.0488,-0.197695 -0.06677,-0.297877 0.565275,-0.01921 1.125695,-0.1036 1.670688,-0.251543 1.613352,-0.446969 3.027563,-1.43456 4.019544,-2.807027 z m 31.634323,-0.934109 c 0.35416,0.357086 0.612183,0.801871 0.748253,1.289889 0.425694,1.540839 -0.441632,3.12486 -1.937185,3.537914 -1.495494,0.412991 -3.052773,-0.50129 -3.478253,-2.042099 -0.0219,-0.08158 -0.04047,-0.164025 -0.05523,-0.247132 0.469162,-0.01597 0.934289,-0.08602 1.386621,-0.208821 1.339023,-0.371004 2.51272,-1.190691 3.33603,-2.329794 z M 33.21391,44.917228 c 0.327248,0.329899 0.565644,0.74085 0.691382,1.191744 0.393189,1.423484 -0.408078,2.886811 -1.7897,3.268452 -1.38161,0.381606 -2.820388,-0.462994 -3.213564,-1.886477 -0.02035,-0.0753 -0.03737,-0.151488 -0.05118,-0.228243 0.433454,-0.01484 0.863159,-0.07958 1.281022,-0.193088 1.237125,-0.342756 2.321493,-1.10004 3.082136,-2.152424 z"
       id="path6150"
       inkscape:connector-curvature="0"
       sodipodi:nodetypes="ccccccsscccscssssccccsccccccccccccssccccccsscccccssccccscccccccccccccccccccccscccscscscsscccccccccccccccccccccccccccccccccsccccccccccccccccccccccccccccc" />
    <path
       style="opacity:0.5979996;fill:#ffffff;fill-opacity:1;stroke:none;stroke-width:3.5;stroke-linecap:round;stroke-linejoin:miter;stroke-miterlimit:4;stroke-dasharray:none;stroke-dashoffset:0;stroke-opacity:1"
       d="m 24.503625,18.530725 c -0.99198,1.372342 -2.406108,2.359839 -4.019377,2.806778 -0.544982,0.148 -1.105377,0.232439 -1.670652,0.251735 0.01809,0.100112 0.04035,0.199441 0.06677,0.297691 0.512737,1.856417 2.389088,2.957884 4.190893,2.460171 1.801829,-0.497657 2.846812,-2.406033 2.334015,-4.262434 -0.163981,-0.587936 -0.474875,-1.123774 -0.901593,-1.553952 z m 12.858579,2.426082 c -1.157497,1.60135 -2.807593,2.753625 -4.690073,3.275106 -0.635893,0.172713 -1.289794,0.271265 -1.949373,0.293799 0.02107,0.116775 0.04713,0.232636 0.07808,0.347232 0.598245,2.166134 2.787621,3.451373 4.890013,2.870612 2.102415,-0.580671 3.321735,-2.807431 2.723359,-4.973521 -0.191286,-0.686041 -0.554016,-1.311303 -1.051899,-1.813283 z m 11.916684,-0.90382 c -0.617741,0.854569 -1.498326,1.469493 -2.502936,1.747804 -0.339329,0.09215 -0.688264,0.144723 -1.040245,0.156739 0.01071,0.06236 0.02511,0.124225 0.04166,0.18542 0.319321,1.156045 1.48778,1.841932 2.609808,1.531937 1.121969,-0.30993 1.772644,-1.498263 1.453347,-2.654236 -0.102124,-0.366129 -0.295623,-0.699829 -0.561347,-0.967735 l -1.67e-4,4.8e-5 z M 19.638311,30.408394 c -0.992029,1.372406 -2.40624,2.359929 -4.019592,2.806837 -0.544981,0.147997 -1.105365,0.232438 -1.670628,0.251733 0.01809,0.100112 0.04035,0.19944 0.06677,0.297689 0.512653,1.856507 2.38904,2.958082 4.190905,2.460371 1.8019,-0.497671 2.846883,-2.406173 2.333967,-4.262626 -0.16391,-0.587936 -0.474732,-1.123794 -0.901379,-1.554015 z m 29.483095,-1.604018 c -0.823358,1.139155 -1.997138,1.958863 -3.33622,2.329844 -0.45232,0.122794 -0.917459,0.192836 -1.386622,0.208811 0.01488,0.08311 0.03345,0.165569 0.05535,0.247136 0.425516,1.5409 1.982938,2.455187 3.478479,2.042046 1.49553,-0.413062 2.362867,-1.997088 1.937161,-3.537918 -0.136069,-0.488017 -0.394093,-0.932801 -0.748241,-1.289887 z m -13.298961,4.37565 c -1.15745,1.6013 -2.807474,2.753555 -4.689895,3.27506 -0.635869,0.172708 -1.289746,0.271255 -1.949325,0.293789 0.02107,0.1168 0.04713,0.23267 0.07796,0.347287 0.598257,2.166129 2.787621,3.451367 4.890013,2.870603 2.102308,-0.580745 3.32152,-2.807443 2.72318,-4.973468 -0.191297,-0.686043 -0.554027,-1.311303 -1.051922,-1.813277 z m -18.988966,7.4133 c -0.991981,1.372467 -2.40618,2.360059 -4.019532,2.80703 -0.545005,0.147937 -1.105425,0.232313 -1.6707,0.251542 0.01809,0.100184 0.04035,0.199571 0.06689,0.297877 0.512737,1.856414 2.389076,2.957882 4.19087,2.460179 1.801829,-0.497657 2.846788,-2.406032 2.334015,-4.262432 -0.163898,-0.588009 -0.474745,-1.123936 -0.901427,-1.554205 z m 31.634323,-0.934109 c -0.823286,1.139093 -1.996995,1.958777 -3.335994,2.329788 -0.452332,0.1228 -0.917447,0.192844 -1.386633,0.208819 0.01488,0.08312 0.03345,0.165572 0.05523,0.247134 0.42548,1.540809 1.982759,2.455098 3.478253,2.042099 1.495553,-0.413045 2.362878,-1.997076 1.937184,-3.537913 -0.136069,-0.48802 -0.394092,-0.932804 -0.748264,-1.289889 z M 33.21391,44.917228 c -0.760655,1.052385 -1.845023,1.809669 -3.082113,2.152424 -0.417874,0.113503 -0.847579,0.178265 -1.281034,0.193089 0.01369,0.07676 0.03083,0.152908 0.05118,0.228242 0.393177,1.423483 1.831943,2.268084 3.213565,1.886478 1.381622,-0.381633 2.182876,-1.844968 1.7897,-3.268452 -0.125738,-0.450894 -0.364146,-0.861836 -0.691406,-1.191744 z"
       id="path6191"
       inkscape:connector-curvature="0"
       sodipodi:nodetypes="cccccccccccccccccccccccccccccccccccccccccccccsccccccccccccccccccccccccccc" />
  </g>
</svg>
