<?xml version="1.0" encoding="UTF-8" standalone="no"?>
<!-- Created with Inkscape (http://www.inkscape.org/) -->

<svg
   xmlns:dc="http://purl.org/dc/elements/1.1/"
   xmlns:cc="http://creativecommons.org/ns#"
   xmlns:rdf="http://www.w3.org/1999/02/22-rdf-syntax-ns#"
   xmlns:svg="http://www.w3.org/2000/svg"
   xmlns="http://www.w3.org/2000/svg"
   xmlns:sodipodi="http://sodipodi.sourceforge.net/DTD/sodipodi-0.dtd"
   xmlns:inkscape="http://www.inkscape.org/namespaces/inkscape"
   width="64"
   height="64"
   id="svg4263"
   version="1.1"
   inkscape:version="0.91 r13725"
   viewBox="0 0 64 64"
   inkscape:export-filename="C:\Users\emile\Desktop\SÉMINAIRE TAL\graphismes\allergenes\lactose_sq.png"
   inkscape:export-xdpi="105.46875"
   inkscape:export-ydpi="105.46875"
   sodipodi:docname="casher.svg">
  <defs
     id="defs4265" />
  <sodipodi:namedview
     id="base"
     pagecolor="#ffffff"
     bordercolor="#666666"
     borderopacity="1.0"
     inkscape:pageopacity="0.0"
     inkscape:pageshadow="2"
     inkscape:zoom="7.7781746"
     inkscape:cx="29.122225"
     inkscape:cy="30.128296"
     inkscape:current-layer="layer1"
     showgrid="true"
     inkscape:document-units="px"
     inkscape:grid-bbox="true"
     inkscape:snap-page="true"
     inkscape:snap-bbox="true"
     inkscape:bbox-nodes="true"
     inkscape:snap-nodes="true"
     inkscape:snap-others="false"
     inkscape:object-nodes="true"
     inkscape:window-width="1474"
     inkscape:window-height="841"
     inkscape:window-x="-8"
     inkscape:window-y="-8"
     inkscape:window-maximized="1"
     showguides="false"
     inkscape:snap-global="true" />
  <metadata
     id="metadata4268">
    <rdf:RDF>
      <cc:Work
         rdf:about="">
        <dc:format>image/svg+xml</dc:format>
        <dc:type
           rdf:resource="http://purl.org/dc/dcmitype/StillImage" />
        <dc:title></dc:title>
      </cc:Work>
    </rdf:RDF>
  </metadata>
  <g
     id="layer1"
     inkscape:label="Layer 1"
     inkscape:groupmode="layer">
    <path
       style="opacity:0.33200001;fill:#000000;fill-opacity:1;stroke:none;stroke-width:0.1;stroke-linecap:round;stroke-linejoin:round;stroke-miterlimit:4;stroke-dasharray:none;stroke-opacity:1"
       d="M 36.972656 22.9375 L 36.494141 23.621094 C 36.19559 24.047312 36.017578 24.864898 36.017578 25.802734 C 36.017578 26.071422 36.024436 26.29258 36.041016 26.492188 L 34.236328 24.685547 L 34.220703 24.701172 C 33.985176 24.519289 33.456131 24.332607 32.898438 24.257812 C 32.148018 24.157117 31.548325 23.879114 31.291016 23.511719 C 30.892983 22.943456 30.86684 22.957154 30.443359 23.970703 C 30.061205 24.885341 29.93492 25.680654 30.046875 26.333984 L 28.15625 24.445312 L 28.119141 24.550781 C 27.817566 24.26856 27.336819 24.175781 26.5625 24.175781 C 25.899017 24.175781 25.619614 24.023532 25.509766 23.603516 C 25.282903 22.736012 24.965626 22.910522 24.457031 24.181641 C 23.827554 25.754846 23.877875 26.66109 24.640625 27.423828 C 25.231514 28.014693 25.278469 28.279634 25.183594 30.589844 C 25.171694 30.877837 25.182467 31.136969 25.179688 31.410156 L 18.041016 24.271484 L 18.023438 24.271484 L 18.025391 24.257812 L 13.498047 24.105469 C 11.007986 24.020962 8.5972786 23.805622 8.1425781 23.626953 C 7.6878657 23.448272 7.2668165 23.350371 7.2050781 23.412109 C 7.1433041 23.473889 7.0205416 24.152864 6.9335938 24.921875 C 6.8146875 25.974464 6.7855108 26.589516 7.2207031 26.957031 C 7.2254631 26.960631 7.2270639 26.96467 7.2324219 26.96875 L 15.759766 35.5 C 15.793566 37.879042 15.729708 40.075759 15.605469 40.417969 C 15.498108 40.713378 15.449288 40.889862 15.486328 40.972656 L 15.478516 40.986328 L 37.917969 63.425781 L 38.492188 64 L 64 64 L 64 33.550781 L 63.925781 33.476562 L 55.726562 25.277344 C 55.686572 25.232944 55.651624 25.180981 55.609375 25.138672 C 54.964175 24.493448 54.744452 24.462891 51.1875 24.462891 C 47.578497 24.462891 47.436418 24.439065 47.208984 23.824219 C 46.980027 23.205358 46.960427 23.212857 46.503906 24.095703 C 45.649649 25.747608 46.076143 28.181641 47.220703 28.181641 C 47.379708 28.181641 47.254054 28.601722 46.941406 29.113281 C 46.649187 29.59143 46.381899 30.204682 46.15625 30.849609 L 39.957031 24.648438 C 39.938581 24.624038 39.912938 24.606004 39.892578 24.583984 L 39.867188 24.558594 L 39.861328 24.558594 C 39.584035 24.284312 39.13942 24.191448 38.445312 24.181641 L 36.972656 22.9375 z "
       id="rect4773" />
    <path
       sodipodi:nodetypes="csccscssscsssccsscssscccccccscsscccscscsscsscccssssccccccccscsssssscsssssscsssscsc"
       inkscape:connector-curvature="0"
       id="path4764"
       d="m 15.605597,40.416866 c 0.128655,-0.354171 0.199094,-2.669047 0.156507,-5.144191 -0.06463,-3.758724 0.0095,-4.75768 0.450011,-6.062566 l 0.527425,-1.562314 -4.551897,-0.09046 c -5.3365489,-0.10617 -5.5275251,-0.20189 -5.2527313,-2.633518 0.086889,-0.769023 0.2085561,-1.448752 0.2703065,-1.510515 0.061774,-0.06177 0.4842902,0.03392 0.9390026,0.212556 0.4547005,0.178669 2.8640232,0.394009 5.3540932,0.478517 l 4.527378,0.153674 -0.191131,2.462943 c -0.1051,1.354627 -0.173777,4.646582 -0.152591,7.315451 0.04154,5.22883 -0.14189,6.172141 -1.302863,6.701113 -0.97465,0.444072 -1.041281,0.41647 -0.77351,-0.320606 z m 10.728324,-1.574062 c -0.999349,-3.778066 -1.258467,-5.635825 -1.151035,-8.252108 0.09486,-2.310222 0.04928,-2.577315 -0.541636,-3.168169 -0.762726,-0.76275 -0.814395,-1.668021 -0.184918,-3.241226 0.508595,-1.271119 0.826666,-1.445669 1.053541,-0.578165 0.10986,0.420016 0.390355,0.572381 1.053838,0.572381 1.667747,0 2.011325,0.393747 2.011325,2.305056 0,1.662117 -0.02,1.707478 -0.683062,1.54108 -0.602316,-0.151174 -0.742349,-0.01619 -1.184576,1.141703 -0.661352,1.731783 -0.43418,3.923848 0.647724,6.249246 l 0.822072,1.767026 1.674306,-4.494123 1.674293,-4.494134 -0.759881,-0.597745 c -0.893916,-0.703142 -1.008109,-1.983902 -0.323107,-3.623345 0.423481,-1.01356 0.449309,-1.027545 0.847342,-0.459283 0.257321,0.367396 0.857351,0.646082 1.60777,0.746718 0.658496,0.08832 1.305481,0.33133 1.437802,0.540017 0.132297,0.208699 0.242538,1.121064 0.244942,2.027478 0.0048,1.569872 -0.02226,1.631289 -0.560847,1.295019 -0.366955,-0.229148 -0.662483,-0.255107 -0.842438,-0.07391 -0.152459,0.15346 -0.916292,2.017634 -1.69742,4.142593 -0.781139,2.124971 -1.510526,4.08896 -1.620815,4.36442 -0.178955,0.446869 0.0048,0.500835 1.701288,0.500835 l 1.901882,0 0.77601,-1.317348 c 0.426801,-0.724543 1.692611,-2.718098 2.812913,-4.430123 l 2.036916,-3.112774 -1.035247,-0.186607 c -1.834085,-0.330593 -2.036916,-0.550052 -2.036916,-2.204087 0,-0.937837 0.17905,-1.755921 0.477601,-2.182151 l 0.477566,-0.681849 0.228671,0.61817 c 0.166909,0.451202 0.468186,0.61817 1.115291,0.61817 1.69642,0 1.993746,0.377322 1.993746,2.530181 0,1.863151 -0.0688,2.054044 -1.788689,4.964939 -0.98378,1.664997 -2.49702,4.455534 -3.362751,6.201195 l -1.57405,3.173929 -3.331376,0.0071 -3.3314,0.0071 -0.586675,-2.217977 z m 18.559522,1.860247 c 0.0024,-0.196749 0.172063,-1.00167 0.375573,-1.788689 l 0.370073,-1.430958 3.859658,-0.143104 c 3.088552,-0.114502 4.018925,-0.247608 4.656675,-0.666185 1.223259,-0.802861 1.697456,-2.257493 1.539283,-4.722032 -0.115216,-1.795342 -0.245502,-2.210621 -0.898213,-2.863344 -0.719424,-0.719425 -0.919458,-0.763452 -3.467814,-0.763452 -2.427867,0 -2.770612,0.0663 -3.352265,0.647902 -0.838974,0.838962 -0.47672,1.483829 1.158188,2.06165 1.030366,0.364158 1.209178,0.554443 1.344748,1.430946 0.08594,0.556015 0.212163,1.365101 0.280328,1.79796 0.171254,1.087309 -0.647021,1.051446 -1.632432,-0.07153 -0.914555,-1.042257 -1.100687,-1.054457 -2.183781,-0.143092 -0.467674,0.39351 -0.992695,0.715473 -1.166722,0.715473 -0.742956,0 0.04404,-3.817868 1.165151,-5.652286 0.312632,-0.511559 0.438358,-0.930112 0.279352,-0.930112 -1.144571,0 -1.572431,-2.434222 -0.718175,-4.086139 0.456534,-0.882834 0.477304,-0.890845 0.706261,-0.271984 0.227445,0.614861 0.369561,0.637642 3.978564,0.637642 3.556928,0 3.776447,0.03368 4.421659,0.67892 0.952762,0.95275 1.326645,2.428652 1.502326,5.930556 0.158815,3.165692 -0.317202,6.541072 -1.25192,8.877218 l -0.445095,1.112386 -5.26349,0 c -4.022913,0 -5.262133,-0.08427 -5.257932,-0.357742 z"
       style="fill:#ffffff;fill-opacity:1" />
  </g>
</svg>
