<?xml version="1.0" encoding="UTF-8" standalone="no"?>
<!-- Created with Inkscape (http://www.inkscape.org/) -->

<svg
   xmlns:dc="http://purl.org/dc/elements/1.1/"
   xmlns:cc="http://creativecommons.org/ns#"
   xmlns:rdf="http://www.w3.org/1999/02/22-rdf-syntax-ns#"
   xmlns:svg="http://www.w3.org/2000/svg"
   xmlns="http://www.w3.org/2000/svg"
   xmlns:sodipodi="http://sodipodi.sourceforge.net/DTD/sodipodi-0.dtd"
   xmlns:inkscape="http://www.inkscape.org/namespaces/inkscape"
   width="64"
   height="64"
   id="svg4263"
   version="1.1"
   inkscape:version="0.91 r13725"
   viewBox="0 0 64 64"
   inkscape:export-filename="C:\Users\emile\Desktop\SÉMINAIRE TAL\graphismes\allergenes\lactose_sq.png"
   inkscape:export-xdpi="105.46875"
   inkscape:export-ydpi="105.46875"
   sodipodi:docname="halal.svg">
  <defs
     id="defs4265" />
  <sodipodi:namedview
     id="base"
     pagecolor="#ffffff"
     bordercolor="#666666"
     borderopacity="1.0"
     inkscape:pageopacity="0.0"
     inkscape:pageshadow="2"
     inkscape:zoom="7.7781746"
     inkscape:cx="29.122225"
     inkscape:cy="30.128296"
     inkscape:current-layer="layer1"
     showgrid="true"
     inkscape:document-units="px"
     inkscape:grid-bbox="true"
     inkscape:snap-page="true"
     inkscape:snap-bbox="true"
     inkscape:bbox-nodes="true"
     inkscape:snap-nodes="true"
     inkscape:snap-others="false"
     inkscape:object-nodes="true"
     inkscape:window-width="1474"
     inkscape:window-height="841"
     inkscape:window-x="-8"
     inkscape:window-y="-8"
     inkscape:window-maximized="1"
     showguides="false"
     inkscape:snap-global="true" />
  <metadata
     id="metadata4268">
    <rdf:RDF>
      <cc:Work
         rdf:about="">
        <dc:format>image/svg+xml</dc:format>
        <dc:type
           rdf:resource="http://purl.org/dc/dcmitype/StillImage" />
        <dc:title></dc:title>
      </cc:Work>
    </rdf:RDF>
  </metadata>
  <g
     id="layer1"
     inkscape:label="Layer 1"
     inkscape:groupmode="layer">
    <path
       style="opacity:0.33200001;fill:#000000;fill-opacity:1;stroke:none;stroke-width:0.1;stroke-linecap:round;stroke-linejoin:round;stroke-miterlimit:4;stroke-dasharray:none;stroke-opacity:1"
       d="M 19.373047 14.738281 C 19.275567 14.691031 19.117403 14.893364 18.679688 15.4375 C 18.1219 16.130811 17.841465 16.651519 17.720703 17.214844 C 17.627983 17.647177 17.700862 18.12085 18.050781 19.373047 C 18.309505 20.29898 18.527252 23.112131 19.097656 32.876953 L 19.275391 35.945312 L 18.921875 36.253906 C 18.113396 36.95567 16.282937 37.703785 14.728516 37.96875 C 13.624475 38.156941 11.756197 38.097861 10.970703 37.847656 C 9.3086125 37.318225 8.1473024 36.125816 7.8066406 34.603516 C 7.681569 34.044612 7.7985587 33.630131 8.4121094 32.458984 C 8.9957967 31.345843 9.1738281 30.78667 9.1738281 30.054688 L 9.1738281 29.457031 L 8.9355469 29.539062 C 8.6354964 29.643649 8.1965225 30.127519 7.9375 30.638672 C 7.3423267 31.813181 6.6122248 34.011814 6.4511719 35.113281 C 6.2968558 36.168612 6.384045 37.663531 6.6445312 38.429688 C 6.9064223 39.200026 7.3263299 39.843919 7.875 40.367188 L 7.8261719 40.371094 L 30.873047 63.416016 L 31.429688 63.972656 L 31.457031 64 L 64 64 L 64 39.296875 L 63.300781 38.597656 L 58.623047 33.917969 L 58.623047 33.916016 L 58.621094 33.916016 C 58.545642 33.800493 57.578147 33.531111 56.363281 33.287109 C 54.980995 33.009486 54.044103 32.64586 50.728516 31.095703 C 49.244165 30.40171 48.164826 30.019843 47.164062 29.824219 L 36.146484 18.810547 C 36.100774 18.748907 36.05694 18.705269 36.013672 18.677734 L 35.986328 18.650391 C 35.985816 18.654091 35.986328 18.656446 35.986328 18.660156 C 35.928008 18.633106 35.871555 18.627412 35.820312 18.669922 C 35.353366 19.05746 34.995509 20.11163 34.720703 21.916016 C 34.604892 22.676284 34.44056 23.555871 34.353516 23.873047 C 34.266506 24.190222 34.091307 24.937556 33.962891 25.53125 C 33.834522 26.124942 33.655901 26.860128 33.566406 27.167969 C 33.447857 27.575772 33.290442 28.021983 33.119141 28.476562 L 19.386719 14.746094 L 19.386719 14.75 C 19.381919 14.7469 19.3792 14.740371 19.375 14.738281 L 19.373047 14.738281 z "
       id="rect4717" />
    <path
       sodipodi:nodetypes="csscccsccccccccccccccsccccccccssscccccssscccccscsscccccccsccccssssscsssssccccccccccccsccccc"
       inkscape:connector-curvature="0"
       id="path4711"
       d="m 17.648115,41.876391 c 0,-0.220164 0.820357,-0.947811 1.423052,-1.262265 0.665708,-0.347339 1.531259,-0.652846 2.989197,-1.055094 3.025548,-0.834782 5.423904,-2.36572 7.476326,-4.772276 0.310929,-0.364604 0.320308,-0.39215 0.259332,-0.759608 -0.03452,-0.209706 -0.102838,-0.625356 -0.151186,-0.923663 -0.182573,-1.126789 -0.876704,-2.619947 -1.773701,-3.815365 -0.506047,-0.674406 -1.548576,-1.724689 -1.817228,-1.83072 -0.115573,-0.04562 -0.522734,-0.115692 -0.904745,-0.155736 -1.169767,-0.122581 -2.272035,-0.797808 -2.815111,-1.724581 -0.450046,-0.767957 -0.555919,-1.266188 -0.562263,-2.645673 0,-0.703634 0.02345,-1.450248 0.05939,-1.65914 l 0.06487,-0.379804 0.334925,0.0017 c 0.879608,0.0044 2.142786,0.718917 3.291747,1.861919 1.853852,1.844221 3.513824,4.777339 4.307626,7.61149 0.264855,0.945546 0.363824,1.463234 0.477767,2.499479 l 0.09427,0.857386 0.54454,-0.838866 c 1.007488,-1.552096 2.100496,-3.939193 2.617374,-5.716342 0.08951,-0.307841 0.267819,-1.04546 0.396176,-1.639153 0.128428,-0.593692 0.304656,-1.338948 0.391699,-1.656122 0.08701,-0.317176 0.252988,-1.19872 0.368788,-1.958988 0.274793,-1.804386 0.631095,-2.85727 1.098042,-3.244806 0.302181,-0.250731 0.747871,0.755154 1.092734,2.46599 0.431574,2.140608 0.498132,2.954812 0.565298,6.912623 0.05654,3.349633 0.08189,3.840608 0.229064,4.517661 0.207818,0.95558 0.661101,1.88024 1.049349,2.140702 0.487289,0.326897 0.834152,0.120674 1.381799,-0.821385 1.061633,-1.826456 2.469569,-3.24136 3.950891,-3.970476 0.531293,-0.261535 0.56481,-0.267193 1.544149,-0.261002 1.503061,0.0095 2.845129,0.389112 5.095835,1.441409 3.315587,1.550158 4.252517,1.914671 5.634792,2.192293 1.217924,0.244617 2.188717,0.515455 2.259823,0.630464 0.02071,0.03311 -0.08106,0.237205 -0.22547,0.453532 -0.144508,0.216329 -0.560548,0.915054 -0.924587,1.552727 -0.363955,0.637666 -0.671849,1.170313 -0.684132,1.183652 -0.0125,0.01339 -0.322725,-0.03662 -0.690072,-0.11105 -0.523782,-0.106135 -0.900782,-0.124971 -1.748122,-0.08734 -1.716581,0.07622 -3.159487,0.442452 -5.63809,1.431086 -2.77932,1.108576 -4.190291,1.512969 -5.81039,1.665296 -1.725824,0.162258 -3.333377,-0.129208 -4.350577,-0.788805 -2.127741,-1.37964 -2.894787,-4.052514 -2.654558,-9.249749 0.09748,-2.109472 0.05868,-2.923022 -0.16485,-3.427767 -0.09296,-0.210123 -0.204771,-0.359953 -0.248429,-0.332957 -0.04345,0.02699 -0.226362,0.52439 -0.406043,1.105318 -1.575809,5.096636 -2.747802,7.960901 -4.08105,9.973727 -0.717864,1.083809 -1.795137,2.136117 -2.558052,2.498638 -0.811049,0.385426 -1.845282,0.71666 -3.553638,1.138151 -3.172186,0.782637 -4.928783,1.078654 -6.400791,1.078654 -0.704843,0 -0.835484,-0.01954 -0.835484,-0.125151 z m 26.945974,-6.002036 c 1.715569,-0.223914 5.053283,-1.01045 4.900158,-1.154712 -0.112241,-0.105813 -2.527428,-1.01688 -3.061065,-1.154758 -0.697523,-0.180201 -1.811907,-0.182302 -2.535568,-0.0048 -0.741455,0.181872 -1.585898,0.619717 -2.169121,1.124627 -0.472256,0.408872 -0.972376,0.965849 -0.972376,1.08295 0,0.07206 0.656138,0.222946 1.159352,0.266626 0.491717,0.04269 1.661205,-0.02717 2.67862,-0.159954 z M 11.37136,41.873087 C 11.239421,41.853614 10.861611,41.780378 10.531793,41.710256 8.5766382,41.294583 7.232309,40.160204 6.6439559,38.429611 6.3834694,37.663456 6.2963906,36.169275 6.4507067,35.113944 c 0.1610529,-1.101466 0.89201,-3.301413 1.4871832,-4.475921 0.2590225,-0.511155 0.6979514,-0.994591 0.99799,-1.099184 l 0.23661,-0.08248 0,0.598052 c 0,0.731982 -0.1769308,1.291325 -0.7606301,2.404466 -0.614122,1.171149 -0.7312189,1.585404 -0.6061473,2.144309 0.3406737,1.5223 1.5037634,2.713824 3.1658425,3.243257 0.785494,0.250205 2.653808,0.311514 3.75785,0.123322 1.554432,-0.264964 3.384205,-1.013545 4.192707,-1.715306 l 0.354517,-0.307695 -0.179264,-3.069455 c -0.570404,-9.764823 -0.788625,-12.578121 -1.04735,-13.504053 -0.349898,-1.252198 -0.422253,-1.726155 -0.329473,-2.158487 0.120763,-0.563326 0.402233,-1.084609 0.960021,-1.777919 0.700355,-0.870618 0.686418,-0.864626 0.85016,-0.364865 0.310858,0.948652 0.904579,1.944271 1.619278,2.715643 l 0.345958,0.373358 -0.174491,0.346269 c -0.09593,0.190449 -0.463638,0.789417 -0.81706,1.331043 l -0.642545,0.984773 0.252512,1.69384 c 0.51714,3.469101 0.732623,5.937212 0.786482,9.010053 0.04904,2.803618 -0.05106,3.926322 -0.458449,5.142848 -1.035149,3.089663 -4.031107,5.044586 -7.975207,5.204001 -0.47078,0.01903 -0.963913,0.01869 -1.095841,-6.84e-4 z"
       style="fill:#ffffff;fill-opacity:1" />
  </g>
</svg>
