<?xml version="1.0" encoding="UTF-8" standalone="no"?>
<!-- Created with Inkscape (http://www.inkscape.org/) -->

<svg
   xmlns:dc="http://purl.org/dc/elements/1.1/"
   xmlns:cc="http://creativecommons.org/ns#"
   xmlns:rdf="http://www.w3.org/1999/02/22-rdf-syntax-ns#"
   xmlns:svg="http://www.w3.org/2000/svg"
   xmlns="http://www.w3.org/2000/svg"
   xmlns:sodipodi="http://sodipodi.sourceforge.net/DTD/sodipodi-0.dtd"
   xmlns:inkscape="http://www.inkscape.org/namespaces/inkscape"
   width="64"
   height="64"
   id="svg4263"
   version="1.1"
   inkscape:version="0.91 r13725"
   viewBox="0 0 64 64"
   inkscape:export-filename="C:\Users\emile\Desktop\SÉMINAIRE TAL\graphismes\allergenes\lactose_sq.png"
   inkscape:export-xdpi="105.46875"
   inkscape:export-ydpi="105.46875"
   sodipodi:docname="bon_marche.svg">
  <defs
     id="defs4265">
    <pattern
       y="0"
       x="0"
       height="6"
       width="6"
       patternUnits="userSpaceOnUse"
       id="EMFhbasepattern" />
  </defs>
  <sodipodi:namedview
     id="base"
     pagecolor="#ffffff"
     bordercolor="#666666"
     borderopacity="1.0"
     inkscape:pageopacity="0.0"
     inkscape:pageshadow="2"
     inkscape:zoom="6.6970926"
     inkscape:cx="37.390411"
     inkscape:cy="28.734502"
     inkscape:current-layer="layer1"
     showgrid="true"
     inkscape:document-units="px"
     inkscape:grid-bbox="true"
     inkscape:snap-page="true"
     inkscape:snap-bbox="true"
     inkscape:bbox-nodes="true"
     inkscape:snap-nodes="true"
     inkscape:snap-others="true"
     inkscape:object-nodes="true"
     inkscape:window-width="1474"
     inkscape:window-height="841"
     inkscape:window-x="-8"
     inkscape:window-y="-8"
     inkscape:window-maximized="1"
     showguides="false"
     inkscape:snap-object-midpoints="true"
     inkscape:snap-global="true" />
  <metadata
     id="metadata4268">
    <rdf:RDF>
      <cc:Work
         rdf:about="">
        <dc:format>image/svg+xml</dc:format>
        <dc:type
           rdf:resource="http://purl.org/dc/dcmitype/StillImage" />
        <dc:title></dc:title>
      </cc:Work>
    </rdf:RDF>
  </metadata>
  <g
     id="layer1"
     inkscape:label="Layer 1"
     inkscape:groupmode="layer">
    <circle
       style="fill:none;fill-opacity:1;fill-rule:evenodd;stroke:none;stroke-width:0.41730273px;stroke-linecap:butt;stroke-linejoin:miter;stroke-opacity:1"
       id="path3336"
       cx="32"
       cy="32"
       r="32"
       inkscape:export-xdpi="90"
       inkscape:export-ydpi="90" />
    <path
       style="opacity:0.33200001;fill:#000000;fill-opacity:1;stroke:none;stroke-width:0.1;stroke-linecap:round;stroke-linejoin:round;stroke-miterlimit:4;stroke-dasharray:none;stroke-opacity:1"
       d="M 40.771484 21.234375 L 40.753906 21.251953 A 13.166919 13.166919 0 0 1 41.046875 21.509766 L 40.771484 21.234375 z M 41.558594 22.021484 A 13.166919 13.166919 0 0 1 42.917969 23.712891 A 13.145046 13.235231 0 0 1 45.953125 32.152344 A 13.145046 13.235231 0 0 1 32.806641 45.388672 A 13.145046 13.235231 0 0 1 23.878906 41.841797 L 23.861328 41.859375 L 46.003906 64 L 64 64 L 64 44.462891 L 60.257812 40.720703 L 41.558594 22.021484 z "
       id="rect4275" />
    <g
       id="g4267"
       transform="translate(0.4296902,-1.6699645)">
      <g
         transform="matrix(0.8581079,0,0,0.8581079,140.96478,-241.9041)"
         id="g4182">
        <path
           inkscape:connector-curvature="0"
           transform="matrix(1.1653546,0,0,1.1653546,-158.49093,289.40968)"
           id="circle4144"
           d="m 27.300781,16.916016 c -1.307516,0 -2.509145,0.243276 -3.58789,0.736328 -1.042781,0.467454 -1.957613,1.090432 -2.736329,1.86914 l -0.0039,0.0039 -0.002,0.002 c -0.757452,0.775489 -1.370951,1.67007 -1.837891,2.675781 l -0.002,0.0039 -0.002,0.0039 c -0.380288,0.851842 -0.584475,1.729704 -0.732422,2.613281 l -1.634765,0 -0.783203,1.693359 0.902343,0 0.53125,-1.15039 1.634766,0 c 0,0 0.352134,-1.761438 0.732422,-2.613282 l 0.002,-0.0039 0.002,-0.0039 c 0.466939,-1.005711 1.08044,-1.900293 1.837891,-2.675782 l 0.002,-0.002 0.0039,-0.0039 c 0.778716,-0.778707 1.693547,-1.401687 2.736328,-1.869141 1.078745,-0.493051 2.280374,-0.736328 3.587891,-0.736328 1.698109,0 3.18239,0.399031 4.402344,1.210938 0.164803,0.105897 0.309254,0.226696 0.46289,0.341797 -0.341257,-0.318724 -0.703272,-0.621293 -1.113281,-0.884766 -1.219955,-0.811907 -2.704234,-1.210937 -4.402344,-1.210937 z m -0.101562,1.873046 c -0.257051,0 -0.507122,0.01233 -0.75,0.03516 0.242878,-0.02283 0.492949,-0.0332 0.75,-0.0332 0.263276,0 0.525458,0.01314 0.789062,0.04102 -0.263604,-0.02788 -0.525786,-0.04297 -0.789062,-0.04297 z m -1.796875,0.214844 c -0.334029,0.0847 -0.653557,0.19334 -0.958985,0.328125 l 0,0.002 c 0.305428,-0.134785 0.624956,-0.244893 0.958985,-0.330078 z m 7.435547,0.0293 c 0.270653,0.254686 0.51637,0.527828 0.74414,0.814453 -0.225302,-0.288688 -0.47352,-0.559626 -0.74414,-0.814453 z m 5.009765,0.386719 c 1.298332,2.080818 1.989669,4.48291 1.996094,6.935547 5.8e-4,7.271946 -5.89407,13.16747 -13.166016,13.167969 -4.127921,-0.0058 -8.014202,-1.94713 -10.498046,-5.244141 2.386865,3.917825 6.640874,6.310843 11.228515,6.316406 7.272708,5.79e-4 13.168549,-5.895261 13.167969,-13.167969 -0.0039,-2.896737 -0.962908,-5.711352 -2.728516,-8.007812 z m -4.066406,0.685547 c 0.08057,0.111547 0.156656,0.227447 0.230469,0.34375 -0.07318,-0.117332 -0.150635,-0.231095 -0.230469,-0.34375 z m -2.154297,0.382812 c 0.416088,0.400667 0.786218,0.899281 1.105469,1.50586 l 0.228516,0.435547 0.27539,-0.128907 C 32.950329,21.806267 32.634342,21.37502 32.277344,21.03125 l -0.0039,-0.0039 -0.002,-0.0039 C 32.06785,20.819742 31.848447,20.649973 31.626953,20.488281 Z M 20.894531,22.96875 c -0.07638,0.174008 -0.150123,0.385022 -0.21875,0.611328 0.06476,-0.205116 0.128896,-0.41017 0.21875,-0.611328 z m -0.539062,1.855469 0.65039,0.542969 8.896485,0 0.002,0 0.25,-0.542969 -9.798828,0 z m -2.166016,1.693359 c 6.26e-4,0.240991 0.02862,0.474495 0.04492,0.710938 l -2.423828,0 -0.763672,1.720703 3.505859,0 0,-0.002 -2.615234,0 0.523438,-1.175782 2.423828,0 c -0.0163,-0.236443 -0.0443,-0.469946 -0.04492,-0.710937 l -0.650391,-0.542969 z m 0.363281,2.431641 c 0.219204,0.870611 0.49366,1.724811 0.923828,2.539062 l 0.002,0.0059 0.0039,0.0059 c 0.518863,0.930387 1.155836,1.758163 1.910156,2.476562 0.244272,0.232637 0.50402,0.443634 0.769531,0.646485 -0.03934,-0.03533 -0.08071,-0.0669 -0.11914,-0.103516 -0.75432,-0.7184 -1.391293,-1.546176 -1.910157,-2.476562 l -0.0039,-0.0059 -0.002,-0.0059 C 19.696783,31.217 19.422328,30.360844 19.203125,29.490234 l -0.650391,-0.541015 z m 1.605469,-1.720703 0,0.002 0.650391,0.541015 8.09375,0 0.240234,-0.542968 -8.984375,0 z m 13.171875,3.451172 -0.214844,0.40625 c -0.318478,0.605102 -0.694026,1.113854 -1.128906,1.533203 -0.445144,0.429251 -0.926806,0.784094 -1.447266,1.068359 -0.525556,0.270133 -1.064897,0.472136 -1.61914,0.615234 -0.559427,0.127369 -1.107055,0.19336 -1.644531,0.19336 -0.857644,0 -1.654576,-0.157835 -2.410157,-0.472656 -0.543582,-0.226493 -1.049049,-0.514607 -1.519531,-0.861329 0.03031,0.02884 0.05904,0.05949 0.08984,0.08789 l 0,0.002 c 0.622995,0.558749 1.312727,0.995538 2.078125,1.314453 0.755581,0.314823 1.554464,0.472656 2.412109,0.472656 0.537476,0 1.085106,-0.06599 1.644531,-0.193359 0.554244,-0.143098 1.093584,-0.347055 1.619141,-0.617187 0.520459,-0.284266 1.002122,-0.637156 1.447266,-1.066407 0.43488,-0.419349 0.810428,-0.928099 1.128906,-1.533203 l 0.214844,-0.40625 0.964843,0.373047 0.111329,-0.246094 -1.726563,-0.669921 z m -10.544922,2.029296 0,0.002 c 0.03098,0.02779 0.06432,0.05114 0.0957,0.07812 -0.03154,-0.02737 -0.0645,-0.0521 -0.0957,-0.08008 z m -0.589844,1.939454 c 0.244893,0.185337 0.499409,0.357607 0.761719,0.517578 -0.261449,-0.161312 -0.517004,-0.332293 -0.761719,-0.517578 z m 0.90625,0.605468 c 0.253571,0.148354 0.512305,0.287093 0.78125,0.41211 -0.26846,-0.125117 -0.528675,-0.262576 -0.78125,-0.41211 z"
           style="opacity:0;fill:#91dff7;fill-opacity:1;stroke:none;stroke-width:1.41400003;stroke-miterlimit:4;stroke-dasharray:none;stroke-opacity:1" />
        <path
           transform="matrix(1.1653546,0,0,1.1653546,-164.27396,281.90406)"
           id="circle4174"
           d="M 31.570312,19.634766 A 13.166919,13.166919 0 0 0 18.472656,32.796875 13.166919,13.166919 0 0 0 31.570312,45.962891 l 0,-3.177735 c -0.92985,-0.06112 -1.813605,-0.265033 -2.636718,-0.630859 l -0.002,0 0,-0.002 -0.002,0 c -0.02914,-0.01319 -0.05504,-0.03143 -0.08398,-0.04492 -0.268946,-0.125017 -0.527679,-0.263756 -0.78125,-0.41211 -0.04859,-0.02879 -0.09652,-0.05825 -0.144531,-0.08789 -0.26231,-0.159971 -0.516826,-0.33224 -0.761719,-0.517578 -0.0075,-0.0057 -0.01597,-0.0099 -0.02344,-0.01563 -0.0034,-0.0031 -0.0082,-0.0067 -0.01172,-0.0098 -0.265511,-0.202851 -0.525259,-0.413847 -0.769531,-0.646484 -0.75432,-0.7184 -1.391294,-1.546176 -1.910157,-2.476563 l -0.0039,-0.0059 -0.002,-0.0059 C 24.007197,37.115271 23.732742,36.26107 23.513538,35.390459 l -3.50586,0 0.763672,-1.720703 2.423828,0 c -0.0163,-0.236443 -0.0443,-0.469947 -0.04492,-0.710938 l -1.308594,0 -0.902344,0 0.783203,-1.693359 1.634766,0 c 0.147947,-0.883577 0.352134,-1.761438 0.732422,-2.613281 l 0.002,-0.0039 0.0039,-0.0039 c 0.46694,-1.005711 1.080439,-1.900292 1.837891,-2.675781 l 0.002,-0.002 0.0039,-0.0039 c 0.778716,-0.778708 1.693547,-1.401687 2.736328,-1.869141 0.884144,-0.404108 1.85465,-0.631013 2.894531,-0.703125 l 0,-3.755859 z m 2.306641,0.1875 a 13.166919,13.166919 0 0 1 2.533203,0.703125 13.166919,13.166919 0 0 0 -2.533203,-0.703125 z m -2.306641,5.435546 c -0.05188,0.0037 -0.106959,0.003 -0.158203,0.0078 -0.728637,0.06848 -1.395004,0.240195 -2.005859,0.509766 l -0.002,0 c -0.203048,0.09165 -0.399533,0.191869 -0.587891,0.298828 -0.564512,0.32048 -1.064216,0.710474 -1.501953,1.171875 l -0.002,0.002 -0.002,0.0039 c -0.147414,0.151398 -0.286475,0.307367 -0.419922,0.470703 0,0 -0.002,0.002 -0.002,0.002 -0.399589,0.489463 -0.737129,1.033584 -1.013672,1.634766 0,0 0,0.002 0,0.002 -0.0074,0.01605 -0.0104,0.03275 -0.01758,0.04883 -0.09011,0.201728 -0.153869,0.407575 -0.21875,0.613282 -0.180888,0.596381 -0.320314,1.242187 -0.320313,1.242187 l 6.251953,0 0,-6.007813 z m 2.173829,0.140626 c 0.517078,0.109681 1.017944,0.290135 1.507812,0.542968 -0.489868,-0.252833 -0.990734,-0.433286 -1.507812,-0.542968 z m -8.666016,7.5625 0,0.04687 0,0.002 c 1.54e-4,0.231398 0.02577,0.442067 0.04297,0.660156 l 6.449218,0 0,-0.708984 -6.492187,0 z m 0.425781,2.429687 c 0.08999,0.312235 0.179986,0.625338 0.28711,0.929687 0.107123,0.303376 0.231805,0.598748 0.392578,0.878907 l 0,0.002 0,0.002 0.002,0 0,0.002 c 0.434301,0.738911 0.955715,1.383535 1.5625,1.94336 l 0,0.002 c 0.0312,0.02798 0.06417,0.05271 0.0957,0.08008 0.1484,0.127539 0.299586,0.250363 0.455078,0.365234 0.0033,0.0025 0.0064,0.0054 0.0098,0.0078 0.470482,0.346722 0.975949,0.634835 1.519531,0.861328 0.555792,0.231577 1.133941,0.376146 1.742187,0.4375 l 0,-5.511719 -6.066406,0 z m 6.066406,5.511719 c 0.218645,0.02206 0.441193,0.03516 0.667969,0.03516 -0.226776,0 -0.449324,-0.0131 -0.667969,-0.03516 z m 8.226563,-2.615235 c -0.166014,0.368922 -0.362991,0.718406 -0.589844,1.046875 0.226853,-0.328469 0.42383,-0.677953 0.589844,-1.046875 z"
           style="fill:#ffffff;fill-opacity:1;stroke:none;stroke-width:1.41400003;stroke-miterlimit:4;stroke-dasharray:none;stroke-opacity:1"
           inkscape:connector-curvature="0" />
      </g>
      <g
         style="opacity:0.68199978;fill:#ffffff"
         id="g4257"
         transform="matrix(0.8581079,0,0,0.8581079,140.96478,-241.9041)">
        <path
           transform="matrix(1.1653546,0,0,1.1653546,-158.49093,289.40968)"
           style="opacity:0.44600004;fill:#ffffff;fill-opacity:1;stroke:none;stroke-width:1.41400003;stroke-miterlimit:4;stroke-dasharray:none;stroke-opacity:1"
           d="m 27.300781,16.916016 c -1.307516,0 -2.509145,0.243276 -3.58789,0.736328 -1.042781,0.467454 -1.957613,1.090432 -2.736329,1.86914 l -0.0039,0.0039 -0.002,0.002 c -0.757452,0.775489 -1.370951,1.67007 -1.837891,2.675781 l -0.002,0.0039 -0.002,0.0039 c -0.380288,0.851842 -0.584475,1.729704 -0.732422,2.613281 l -1.634765,0 -0.783203,1.693359 0.902343,0 0.53125,-1.15039 1.634766,0 c 0,0 0.352134,-1.761438 0.732422,-2.613282 l 0.002,-0.0039 0.002,-0.0039 c 0.466939,-1.005711 1.08044,-1.900293 1.837891,-2.675782 l 0.002,-0.002 0.0039,-0.0039 c 0.778716,-0.778707 1.693547,-1.401687 2.736328,-1.869141 1.078745,-0.493051 2.280374,-0.736328 3.587891,-0.736328 1.698109,0 3.18239,0.399031 4.402344,1.210938 0.164803,0.105897 0.309254,0.226696 0.46289,0.341797 -0.341257,-0.318724 -0.703272,-0.621293 -1.113281,-0.884766 -1.219955,-0.811907 -2.704234,-1.210937 -4.402344,-1.210937 z m -0.101562,1.873046 c -0.257051,0 -0.507122,0.01233 -0.75,0.03516 0.242878,-0.02283 0.492949,-0.0332 0.75,-0.0332 0.263276,0 0.525458,0.01314 0.789062,0.04102 -0.263604,-0.02788 -0.525786,-0.04297 -0.789062,-0.04297 z m -1.796875,0.214844 c -0.334029,0.0847 -0.653557,0.19334 -0.958985,0.328125 l 0,0.002 c 0.305428,-0.134785 0.624956,-0.244893 0.958985,-0.330078 z m 7.435547,0.0293 c 0.270653,0.254686 0.51637,0.527828 0.74414,0.814453 -0.225302,-0.288688 -0.47352,-0.559626 -0.74414,-0.814453 z m 5.009765,0.386719 c 1.298332,2.080818 1.989669,4.48291 1.996094,6.935547 5.8e-4,7.271946 -5.89407,13.16747 -13.166016,13.167969 -4.127921,-0.0058 -8.014202,-1.94713 -10.498046,-5.244141 2.386865,3.917825 6.640874,6.310843 11.228515,6.316406 7.272708,5.79e-4 13.168549,-5.895261 13.167969,-13.167969 -0.0039,-2.896737 -0.962908,-5.711352 -2.728516,-8.007812 z m -4.066406,0.685547 c 0.08057,0.111547 0.156656,0.227447 0.230469,0.34375 -0.07318,-0.117332 -0.150635,-0.231095 -0.230469,-0.34375 z m -2.154297,0.382812 c 0.416088,0.400667 0.786218,0.899281 1.105469,1.50586 l 0.228516,0.435547 0.27539,-0.128907 C 32.950329,21.806267 32.634342,21.37502 32.277344,21.03125 l -0.0039,-0.0039 -0.002,-0.0039 C 32.06785,20.819742 31.848447,20.649973 31.626953,20.488281 Z M 20.894531,22.96875 c -0.07638,0.174008 -0.150123,0.385022 -0.21875,0.611328 0.06476,-0.205116 0.128896,-0.41017 0.21875,-0.611328 z m -0.539062,1.855469 0.65039,0.542969 8.896485,0 0.002,0 0.25,-0.542969 -9.798828,0 z m -2.166016,1.693359 c 6.26e-4,0.240991 0.02862,0.474495 0.04492,0.710938 l -2.423828,0 -0.763672,1.720703 3.505859,0 0,-0.002 -2.615234,0 0.523438,-1.175782 2.423828,0 c -0.0163,-0.236443 -0.0443,-0.469946 -0.04492,-0.710937 l -0.650391,-0.542969 z m 0.363281,2.431641 c 0.219204,0.870611 0.49366,1.724811 0.923828,2.539062 l 0.002,0.0059 0.0039,0.0059 c 0.518863,0.930387 1.155836,1.758163 1.910156,2.476562 0.244272,0.232637 0.50402,0.443634 0.769531,0.646485 -0.03934,-0.03533 -0.08071,-0.0669 -0.11914,-0.103516 -0.75432,-0.7184 -1.391293,-1.546176 -1.910157,-2.476562 l -0.0039,-0.0059 -0.002,-0.0059 C 19.696783,31.217 19.422328,30.360844 19.203125,29.490234 l -0.650391,-0.541015 z m 1.605469,-1.720703 0,0.002 0.650391,0.541015 8.09375,0 0.240234,-0.542968 -8.984375,0 z m 13.171875,3.451172 -0.214844,0.40625 c -0.318478,0.605102 -0.694026,1.113854 -1.128906,1.533203 -0.445144,0.429251 -0.926806,0.784094 -1.447266,1.068359 -0.525556,0.270133 -1.064897,0.472136 -1.61914,0.615234 -0.559427,0.127369 -1.107055,0.19336 -1.644531,0.19336 -0.857644,0 -1.654576,-0.157835 -2.410157,-0.472656 -0.543582,-0.226493 -1.049049,-0.514607 -1.519531,-0.861329 0.03031,0.02884 0.05904,0.05949 0.08984,0.08789 l 0,0.002 c 0.622995,0.558749 1.312727,0.995538 2.078125,1.314453 0.755581,0.314823 1.554464,0.472656 2.412109,0.472656 0.537476,0 1.085106,-0.06599 1.644531,-0.193359 0.554244,-0.143098 1.093584,-0.347055 1.619141,-0.617187 0.520459,-0.284266 1.002122,-0.637156 1.447266,-1.066407 0.43488,-0.419349 0.810428,-0.928099 1.128906,-1.533203 l 0.214844,-0.40625 0.964843,0.373047 0.111329,-0.246094 -1.726563,-0.669921 z m -10.544922,2.029296 0,0.002 c 0.03098,0.02779 0.06432,0.05114 0.0957,0.07812 -0.03154,-0.02737 -0.0645,-0.0521 -0.0957,-0.08008 z m -0.589844,1.939454 c 0.244893,0.185337 0.499409,0.357607 0.761719,0.517578 -0.261449,-0.161312 -0.517004,-0.332293 -0.761719,-0.517578 z m 0.90625,0.605468 c 0.253571,0.148354 0.512305,0.287093 0.78125,0.41211 -0.26846,-0.125117 -0.528675,-0.262576 -0.78125,-0.41211 z"
           id="path4259"
           inkscape:connector-curvature="0" />
        <path
           id="path4261"
           transform="matrix(1.1653546,0,0,1.1653546,-164.27396,281.90406)"
           d="m 31.640625,19.630859 a 13.166919,13.166919 0 0 0 -0.07031,0.0039 l 0,3.755859 c 0.228879,-0.01587 0.45749,-0.0332 0.69336,-0.0332 1.69811,0 3.182389,0.39903 4.402344,1.210937 0.410009,0.263473 0.772024,0.566042 1.113281,0.884766 0.0011,8.61e-4 0.0028,0.0011 0.0039,0.002 0.0064,0.006 0.0112,0.01353 0.01758,0.01953 0.26272,0.247388 0.50458,0.509747 0.72461,0.789063 0.0788,0.0982 0.157102,0.196732 0.230468,0.298828 0.07461,0.105908 0.148048,0.212241 0.216797,0.322266 0.142285,0.223619 0.274833,0.4537 0.390625,0.695312 0.0065,0.01351 0.0151,0.0255 0.02148,0.03906 0,0 0,0.002 0,0.002 l 0.21875,0.466797 -1.404297,0.65625 c 0,0 0,-0.002 0,-0.002 l -0.275391,0.128906 -0.228516,-0.435547 c -0.319241,-0.606622 -0.68938,-1.105193 -1.105468,-1.505859 l -0.0039,-0.0039 -0.002,-0.002 c 0,0 0,-0.002 0,-0.002 -0.02277,-0.01656 -0.04351,-0.03844 -0.06641,-0.05469 -0.194847,-0.189178 -0.397623,-0.361438 -0.607422,-0.515626 0,0 -0.002,-0.002 -0.002,-0.002 -0.210579,-0.154595 -0.428461,-0.290633 -0.65625,-0.408203 -0.489868,-0.252833 -0.990734,-0.433286 -1.507812,-0.542968 -0.528886,-0.112164 -1.05548,-0.166016 -1.582032,-0.166016 -0.202817,0 -0.397775,0.01145 -0.591797,0.02539 l 0,6.007813 3.546876,0 -0.25,0.542969 -0.533204,1.15039 0,0.002 -2.763672,0 0,0.708984 2.535157,0 -0.240235,0.542969 -0.523437,1.177734 -1.771485,0 0,5.511719 c 0.218645,0.02206 0.441193,0.03516 0.667969,0.03516 0.537476,0 1.085105,-0.06599 1.644531,-0.193359 0.554243,-0.143098 1.093584,-0.345102 1.619141,-0.615235 0.52046,-0.284265 1.002122,-0.639108 1.447266,-1.068359 0.43488,-0.419349 0.810428,-0.9281 1.128906,-1.533203 l 0.214844,-0.40625 1.726562,0.669922 -0.111328,0.246093 -0.111328,0.25 c -0.166014,0.368922 -0.362991,0.718406 -0.589844,1.046875 -0.226815,0.328604 -0.483579,0.635924 -0.769531,0.921875 -0.562121,0.562113 -1.190606,1.036514 -1.880859,1.417969 -0.686907,0.37961 -1.418874,0.669059 -2.19336,0.867188 l -0.0039,0.002 -0.0059,0 c -0.376165,0.08956 -0.749643,0.156179 -1.119141,0.201172 -0.369498,0.04499 -0.735016,0.06836 -1.097656,0.06836 -0.191336,0 -0.378888,-0.01502 -0.566407,-0.02734 l 0,3.177735 a 13.166919,13.166919 0 0 0 0.07031,0.002 13.166919,13.166919 0 0 0 13.166151,-13.16802 13.166919,13.166919 0 0 0 -13.166016,-13.166016 z"
           style="fill:#ffffff;fill-opacity:1;stroke:none;stroke-width:1.41400003;stroke-miterlimit:4;stroke-dasharray:none;stroke-opacity:1"
           inkscape:connector-curvature="0" />
      </g>
    </g>
    <path
       style="opacity:0;fill:#91dff7;fill-opacity:1;stroke:none;stroke-width:1.41400003;stroke-miterlimit:4;stroke-dasharray:none;stroke-opacity:1"
       d="m 32.692932,21.686689 c -1.307516,0 -2.509145,0.243276 -3.58789,0.736328 -1.042781,0.467454 -1.957613,1.090432 -2.736329,1.86914 l -0.0039,0.0039 -0.002,0.002 c -0.757452,0.775489 -1.370951,1.67007 -1.837891,2.675781 l -0.002,0.0039 -0.002,0.0039 c -0.380288,0.851842 -0.584475,1.729704 -0.732422,2.613281 l -1.634765,0 -0.783203,1.693359 0.902343,0 0.53125,-1.15039 1.634766,0 c 0,0 0.352134,-1.761438 0.732422,-2.613282 l 0.002,-0.0039 0.002,-0.0039 c 0.466939,-1.005711 1.08044,-1.900293 1.837891,-2.675782 l 0.002,-0.002 0.0039,-0.0039 c 0.778716,-0.778707 1.693547,-1.401687 2.736328,-1.869141 1.078745,-0.493051 2.280374,-0.736328 3.587891,-0.736328 1.698109,0 3.18239,0.399031 4.402344,1.210938 0.164803,0.105897 0.309254,0.226696 0.46289,0.341797 -0.341257,-0.318724 -0.703272,-0.621293 -1.113281,-0.884766 -1.219955,-0.811907 -2.704234,-1.210937 -4.402344,-1.210937 z m -0.101562,1.873046 c -0.257051,0 -0.507122,0.01233 -0.75,0.03516 0.242878,-0.02283 0.492949,-0.0332 0.75,-0.0332 0.263276,0 0.525458,0.01314 0.789062,0.04102 -0.263604,-0.02788 -0.525786,-0.04297 -0.789062,-0.04297 z m -1.796875,0.214844 c -0.334029,0.0847 -0.653557,0.19334 -0.958985,0.328125 l 0,0.002 c 0.305428,-0.134785 0.624956,-0.244893 0.958985,-0.330078 z m 7.435547,0.0293 c 0.270653,0.254686 0.51637,0.527828 0.74414,0.814453 -0.225302,-0.288688 -0.47352,-0.559626 -0.74414,-0.814453 z m 5.009765,0.386719 c 1.298332,2.080818 1.989669,4.48291 1.996094,6.935547 5.8e-4,7.271946 -5.89407,13.16747 -13.166016,13.167969 -4.127921,-0.0058 -8.014202,-1.94713 -10.498046,-5.244141 2.386865,3.917825 6.640874,6.310843 11.228515,6.316406 7.272708,5.79e-4 13.168549,-5.895261 13.167969,-13.167969 -0.0039,-2.896737 -0.962908,-5.711352 -2.728516,-8.007812 z m -4.066406,0.685547 c 0.08057,0.111547 0.156656,0.227447 0.230469,0.34375 -0.07318,-0.117332 -0.150635,-0.231095 -0.230469,-0.34375 z m -2.154297,0.382812 c 0.416088,0.400667 0.786218,0.899281 1.105469,1.50586 l 0.228516,0.435547 0.27539,-0.128907 C 38.34248,26.57694 38.026493,26.145693 37.669495,25.801923 l -0.0039,-0.0039 -0.002,-0.0039 c -0.203594,-0.203708 -0.422997,-0.373477 -0.644491,-0.535169 z m -10.732422,2.480466 c -0.07638,0.174008 -0.150123,0.385022 -0.21875,0.611328 0.06476,-0.205116 0.128896,-0.41017 0.21875,-0.611328 z m -0.539062,1.855469 0.65039,0.542969 8.896485,0 0.002,0 0.25,-0.542969 -9.798828,0 z m -2.166016,1.693359 c 6.26e-4,0.240991 0.02862,0.474495 0.04492,0.710938 l -2.423828,0 -0.763672,1.720703 3.505859,0 0,-0.002 -2.615234,0 0.523438,-1.175782 2.423828,0 c -0.0163,-0.236443 -0.0443,-0.469946 -0.04492,-0.710937 l -0.650391,-0.542969 z m 0.363281,2.431641 c 0.219204,0.870611 0.49366,1.724811 0.923828,2.539062 l 0.002,0.0059 0.0039,0.0059 c 0.518863,0.930387 1.155836,1.758163 1.910156,2.476562 0.244272,0.232637 0.50402,0.443634 0.769531,0.646485 -0.03934,-0.03533 -0.08071,-0.0669 -0.11914,-0.103516 -0.75432,-0.7184 -1.391293,-1.546176 -1.910157,-2.476562 l -0.0039,-0.0059 -0.002,-0.0059 c -0.430169,-0.81425 -0.704624,-1.670406 -0.923827,-2.541016 l -0.650391,-0.541015 z m 1.605469,-1.720703 0,0.002 0.650391,0.541015 8.09375,0 0.240234,-0.542968 -8.984375,0 z m 13.171875,3.451172 -0.214844,0.40625 c -0.318478,0.605102 -0.694026,1.113854 -1.128906,1.533203 -0.445144,0.429251 -0.926806,0.784094 -1.447266,1.068359 -0.525556,0.270133 -1.064897,0.472136 -1.61914,0.615234 -0.559427,0.127369 -1.107055,0.19336 -1.644531,0.19336 -0.857644,0 -1.654576,-0.157835 -2.410157,-0.472656 -0.543582,-0.226493 -1.049049,-0.514607 -1.519531,-0.861329 0.03031,0.02884 0.05904,0.05949 0.08984,0.08789 l 0,0.002 c 0.622995,0.558749 1.312727,0.995538 2.078125,1.314453 0.755581,0.314823 1.554464,0.472656 2.412109,0.472656 0.537476,0 1.085106,-0.06599 1.644531,-0.193359 0.554244,-0.143098 1.093584,-0.347055 1.619141,-0.617187 0.520459,-0.284266 1.002122,-0.637156 1.447266,-1.066407 0.43488,-0.419349 0.810428,-0.928099 1.128906,-1.533203 l 0.214844,-0.40625 0.964843,0.373047 0.111329,-0.246094 -1.726563,-0.669921 z m -10.544922,2.029296 0,0.002 c 0.03098,0.02779 0.06432,0.05114 0.0957,0.07812 -0.03154,-0.02737 -0.0645,-0.0521 -0.0957,-0.08008 z m -0.589844,1.939454 c 0.244893,0.185337 0.499409,0.357607 0.761719,0.517578 -0.261449,-0.161312 -0.517004,-0.332293 -0.761719,-0.517578 z m 0.90625,0.605468 c 0.253571,0.148354 0.512305,0.287093 0.78125,0.41211 -0.26846,-0.125117 -0.528675,-0.262576 -0.78125,-0.41211 z"
       id="path4342"
       inkscape:connector-curvature="0" />
    <path
       inkscape:connector-curvature="0"
       id="path4348"
       d="m 32.692932,21.686689 c -1.307516,0 -2.509145,0.243276 -3.58789,0.736328 -1.042781,0.467454 -1.957613,1.090432 -2.736329,1.86914 l -0.0039,0.0039 -0.002,0.002 c -0.757452,0.775489 -1.370951,1.67007 -1.837891,2.675781 l -0.002,0.0039 -0.002,0.0039 c -0.380288,0.851842 -0.584475,1.729704 -0.732422,2.613281 l -1.634765,0 -0.783203,1.693359 0.902343,0 0.53125,-1.15039 1.634766,0 c 0,0 0.352134,-1.761438 0.732422,-2.613282 l 0.002,-0.0039 0.002,-0.0039 c 0.466939,-1.005711 1.08044,-1.900293 1.837891,-2.675782 l 0.002,-0.002 0.0039,-0.0039 c 0.778716,-0.778707 1.693547,-1.401687 2.736328,-1.869141 1.078745,-0.493051 2.280374,-0.736328 3.587891,-0.736328 1.698109,0 3.18239,0.399031 4.402344,1.210938 0.164803,0.105897 0.309254,0.226696 0.46289,0.341797 -0.341257,-0.318724 -0.703272,-0.621293 -1.113281,-0.884766 -1.219955,-0.811907 -2.704234,-1.210937 -4.402344,-1.210937 z m -0.101562,1.873046 c -0.257051,0 -0.507122,0.01233 -0.75,0.03516 0.242878,-0.02283 0.492949,-0.0332 0.75,-0.0332 0.263276,0 0.525458,0.01314 0.789062,0.04102 -0.263604,-0.02788 -0.525786,-0.04297 -0.789062,-0.04297 z m -1.796875,0.214844 c -0.334029,0.0847 -0.653557,0.19334 -0.958985,0.328125 l 0,0.002 c 0.305428,-0.134785 0.624956,-0.244893 0.958985,-0.330078 z m 7.435547,0.0293 c 0.270653,0.254686 0.51637,0.527828 0.74414,0.814453 -0.225302,-0.288688 -0.47352,-0.559626 -0.74414,-0.814453 z m 5.009765,0.386719 c 1.298332,2.080818 1.989669,4.48291 1.996094,6.935547 5.8e-4,7.271946 -5.89407,13.16747 -13.166016,13.167969 -4.127921,-0.0058 -8.014202,-1.94713 -10.498046,-5.244141 2.386865,3.917825 6.640874,6.310843 11.228515,6.316406 7.272708,5.79e-4 13.168549,-5.895261 13.167969,-13.167969 -0.0039,-2.896737 -0.962908,-5.711352 -2.728516,-8.007812 z m -4.066406,0.685547 c 0.08057,0.111547 0.156656,0.227447 0.230469,0.34375 -0.07318,-0.117332 -0.150635,-0.231095 -0.230469,-0.34375 z m -2.154297,0.382812 c 0.416088,0.400667 0.786218,0.899281 1.105469,1.50586 l 0.228516,0.435547 0.27539,-0.128907 C 38.34248,26.57694 38.026493,26.145693 37.669495,25.801923 l -0.0039,-0.0039 -0.002,-0.0039 c -0.203594,-0.203708 -0.422997,-0.373477 -0.644491,-0.535169 z m -10.732422,2.480466 c -0.07638,0.174008 -0.150123,0.385022 -0.21875,0.611328 0.06476,-0.205116 0.128896,-0.41017 0.21875,-0.611328 z m -0.539062,1.855469 0.65039,0.542969 8.896485,0 0.002,0 0.25,-0.542969 -9.798828,0 z m -2.166016,1.693359 c 6.26e-4,0.240991 0.02862,0.474495 0.04492,0.710938 l -2.423828,0 -0.763672,1.720703 3.505859,0 0,-0.002 -2.615234,0 0.523438,-1.175782 2.423828,0 c -0.0163,-0.236443 -0.0443,-0.469946 -0.04492,-0.710937 l -0.650391,-0.542969 z m 0.363281,2.431641 c 0.219204,0.870611 0.49366,1.724811 0.923828,2.539062 l 0.002,0.0059 0.0039,0.0059 c 0.518863,0.930387 1.155836,1.758163 1.910156,2.476562 0.244272,0.232637 0.50402,0.443634 0.769531,0.646485 -0.03934,-0.03533 -0.08071,-0.0669 -0.11914,-0.103516 -0.75432,-0.7184 -1.391293,-1.546176 -1.910157,-2.476562 l -0.0039,-0.0059 -0.002,-0.0059 c -0.430169,-0.81425 -0.704624,-1.670406 -0.923827,-2.541016 l -0.650391,-0.541015 z m 1.605469,-1.720703 0,0.002 0.650391,0.541015 8.09375,0 0.240234,-0.542968 -8.984375,0 z m 13.171875,3.451172 -0.214844,0.40625 c -0.318478,0.605102 -0.694026,1.113854 -1.128906,1.533203 -0.445144,0.429251 -0.926806,0.784094 -1.447266,1.068359 -0.525556,0.270133 -1.064897,0.472136 -1.61914,0.615234 -0.559427,0.127369 -1.107055,0.19336 -1.644531,0.19336 -0.857644,0 -1.654576,-0.157835 -2.410157,-0.472656 -0.543582,-0.226493 -1.049049,-0.514607 -1.519531,-0.861329 0.03031,0.02884 0.05904,0.05949 0.08984,0.08789 l 0,0.002 c 0.622995,0.558749 1.312727,0.995538 2.078125,1.314453 0.755581,0.314823 1.554464,0.472656 2.412109,0.472656 0.537476,0 1.085106,-0.06599 1.644531,-0.193359 0.554244,-0.143098 1.093584,-0.347055 1.619141,-0.617187 0.520459,-0.284266 1.002122,-0.637156 1.447266,-1.066407 0.43488,-0.419349 0.810428,-0.928099 1.128906,-1.533203 l 0.214844,-0.40625 0.964843,0.373047 0.111329,-0.246094 -1.726563,-0.669921 z m -10.544922,2.029296 0,0.002 c 0.03098,0.02779 0.06432,0.05114 0.0957,0.07812 -0.03154,-0.02737 -0.0645,-0.0521 -0.0957,-0.08008 z m -0.589844,1.939454 c 0.244893,0.185337 0.499409,0.357607 0.761719,0.517578 -0.261449,-0.161312 -0.517004,-0.332293 -0.761719,-0.517578 z m 0.90625,0.605468 c 0.253571,0.148354 0.512305,0.287093 0.78125,0.41211 -0.26846,-0.125117 -0.528675,-0.262576 -0.78125,-0.41211 z"
       style="opacity:0.30417193;fill:#ffffff;fill-opacity:1;stroke:none;stroke-width:1.41400003;stroke-miterlimit:4;stroke-dasharray:none;stroke-opacity:1" />
  </g>
</svg>
